/* XPM */
static char *c0fc8dd845b74132f853e8222aab07ccEdQYTbq2iYwX3eD4[] = {
/* columns rows colors chars-per-pixel */
"80 80 250 2 ",
"   c #0A0405",
".  c #180706",
"X  c #1A0B0C",
"o  c #1B0E12",
"O  c #1B1316",
"+  c #1D1215",
"@  c #220B01",
"#  c #240A05",
"$  c #2B1403",
"%  c #27150C",
"&  c #2B150B",
"*  c #35190A",
"=  c #341B0D",
"-  c #230F12",
";  c #231414",
":  c #2A1613",
">  c #251A17",
",  c #2D1A16",
"<  c #241619",
"1  c #28171C",
"2  c #261A1C",
"3  c #2B1C1C",
"4  c #331C13",
"5  c #391D14",
"6  c #311D1B",
"7  c #3B210E",
"8  c #2F211E",
"9  c #3C2215",
"0  c #36221A",
"q  c #3D251C",
"w  c #271F22",
"e  c #2D1E21",
"r  c #331F22",
"t  c #2D2223",
"y  c #282426",
"u  c #332324",
"i  c #392425",
"p  c #372826",
"a  c #3C2924",
"s  c #352529",
"d  c #342B2B",
"f  c #3C2A2B",
"g  c #392E30",
"h  c #3D3232",
"j  c #41251B",
"k  c #442C1D",
"l  c #482C19",
"z  c #4D311B",
"x  c #52351E",
"c  c #452C23",
"v  c #492E27",
"b  c #463124",
"n  c #4B3528",
"m  c #563824",
"M  c #53392C",
"N  c #4B3A35",
"B  c #44393A",
"V  c #553C33",
"C  c #534135",
"Z  c #5F4133",
"A  c #5B4A3D",
"S  c #674525",
"D  c #62442A",
"F  c #654837",
"G  c #654B3A",
"H  c #6F5237",
"J  c #765337",
"K  c #4E4445",
"L  c #53494A",
"P  c #564949",
"I  c #5C5353",
"U  c #6C5446",
"Y  c #6D574F",
"T  c #745A4A",
"R  c #7C614A",
"E  c #7C6757",
"W  c #796763",
"Q  c #84654B",
"!  c #916D4B",
"~  c #856652",
"^  c #8A6A55",
"/  c #8D6F58",
"(  c #987556",
")  c #9D7B5D",
"_  c #AD7D4E",
"`  c #B17E4E",
"'  c #A67E57",
"]  c #AC7E51",
"[  c #887469",
"{  c #9A7C65",
"}  c #A57E60",
"|  c #9C855C",
" . c #AE814E",
".. c #AE8152",
"X. c #A1805C",
"o. c #AE825B",
"O. c #B38354",
"+. c #B78954",
"@. c #B58558",
"#. c #BB8C5C",
"$. c #9C8664",
"%. c #9C8B67",
"&. c #9E8877",
"*. c #A58464",
"=. c #AA8463",
"-. c #A48C64",
";. c #A88768",
":. c #A48D6C",
">. c #AC8D6C",
",. c #B48A64",
"<. c #B88B64",
"1. c #A4926C",
"2. c #AC936C",
"3. c #AC9A6C",
"4. c #B89666",
"5. c #B4956C",
"6. c #B9916C",
"7. c #A58874",
"8. c #AC8D73",
"9. c #B38D73",
"0. c #AC9574",
"q. c #AC9B74",
"w. c #AB947B",
"e. c #A99879",
"r. c #B49574",
"t. c #BA9272",
"y. c #B49B74",
"u. c #BC9C74",
"i. c #B3957C",
"p. c #BA9778",
"a. c #B49D7C",
"s. c #BC9D7C",
"d. c #ACA27C",
"f. c #B8A375",
"g. c #B4A27C",
"h. c #BCA37C",
"j. c #BCAA7C",
"k. c #C0905E",
"l. c #C69765",
"z. c #C69A66",
"x. c #C4976C",
"c. c #C6996C",
"v. c #C99A6D",
"b. c #C19775",
"n. c #C49B74",
"m. c #CB9C71",
"M. c #C39C7B",
"N. c #CCA274",
"B. c #C4A47C",
"V. c #CBA37C",
"C. c #C4AA7C",
"Z. c #D3A575",
"A. c #D2A57A",
"S. c #D5A97C",
"D. c #D9AC7C",
"F. c #DBB07B",
"G. c #95908C",
"H. c #A89689",
"J. c #B39985",
"K. c #B49E84",
"L. c #BC9E84",
"P. c #A59A95",
"I. c #B4A484",
"U. c #BCA584",
"Y. c #BCAA84",
"T. c #B9A78A",
"R. c #BCAC8C",
"E. c #BCB288",
"W. c #A2A19D",
"Q. c #BFBABB",
"!. c #C39E84",
"~. c #C4A684",
"^. c #CBA483",
"/. c #C4AB84",
"(. c #CCAD84",
"). c #C4A68C",
"_. c #C4AD8C",
"`. c #CCAD8C",
"'. c #D4AB85",
"]. c #DCAE82",
"[. c #C4B284",
"{. c #CCB384",
"}. c #C4B28C",
"|. c #CCB38C",
" X c #CABA8C",
".X c #DDB385",
"XX c #DAB887",
"oX c #D4B38C",
"OX c #DEB68A",
"+X c #DDB98C",
"@X c #C4AE94",
"#X c #CCAD93",
"$X c #D0AE90",
"%X c #C4B494",
"&X c #CCB594",
"*X c #CCBB94",
"=X c #C8B898",
"-X c #CCBB9C",
";X c #D4B694",
":X c #DBB793",
">X c #D4BB94",
",X c #D9B897",
"<X c #D4BD9C",
"1X c #DCBB9A",
"2X c #E1AE84",
"3X c #E3B586",
"4X c #E3B984",
"5X c #E2B68B",
"6X c #E3B98C",
"7X c #E9BA8C",
"8X c #E0B791",
"9X c #E3BB93",
"0X c #E2BE9B",
"qX c #C8BAA9",
"wX c #D1B4A2",
"eX c #D5BEA1",
"rX c #CFBFB2",
"tX c #E0BEA0",
"yX c #CCC29C",
"uX c #D4C29C",
"iX c #D9C499",
"pX c #E2C094",
"aX c #EBC296",
"sX c #E4C29C",
"dX c #EAC29A",
"fX c #DDC0A0",
"gX c #C4C0BF",
"hX c #DDC9B9",
"jX c #E6C4A5",
"kX c #E4CAB3",
"lX c #E9D3B7",
"zX c #CBC6C5",
"xX c #D0CCC9",
"cX c #DBD3C8",
"vX c #D8D8D6",
"bX c #DADBD6",
"nX c #DBDDD9",
"mX c #E6D9C7",
"MX c #EADCCB",
"NX c #E3DDD7",
"BX c #EBE1CC",
"VX c #ECE3D5",
"CX c #E3E2DD",
"ZX c #E8E4D9",
"AX c #F5E5D4",
"SX c #DFE2E1",
"DX c #E4E5E1",
"FX c #E9E6E4",
"GX c #EAE9E8",
"HX c #F8F0E8",
/* pixels */
"0.s.U.s.0.2.0.2.U./.U.g.h.Y.a.2.q.g.Y.Y.U.g.}.*XU.U.R.%XR.a.I._.g.h.g.q.2.0.y.U.}./.2.-.g.j.g./.a.q.g./.h.0.2.s.5.u.h.(.|.|.C.h.C.|.{.~.h.h.C.h./.B.h./.oX|.|./.",
"s.a.y.a.h.h.a.>.0.y.0.2.a././.U.Y.g.q.U.&X>X_.g.g.a.U._._.h.U.%Xh./._.`._._._.|.|.*X|././.U.h.Y.U.g.h.U.h.a.y.U.(./.B.h.B./.|.*XB.U.h.f.y.y.h.h.~.h.h.h.h.a.y.y.",
"h.U.h.r.r.h._.|._.|._././.}.|._.}.|.%X}.}.}.R./.U.U.U./.U.a.y.h._.U.s.q.y.h./.|.a.a.U.R.h.a.U.a.h.g.a.h.g.s.a.r.r.y.s.~.h.s.U.h.~.h.h.h.h.h.y.h.0.y.y.y.0.>.2.y.",
"a.h.~.a.y.U.|.>XU.`.|._.U.U.s.y.y.U.|.h.:.$.-.a.U.h.h.h.U.h.a.g.s.h./.`.|.`.U.a.#Xa.a.~.U.&X&X~.g./._./._._.~.s.s.s.i.r.0.a.~.&Xu.0.y.h.~.y.r.y.h.U.~./.U.h.U.`.",
"s.a.y.h._.|._.s.:.r.a.s.s.h.h.a.}.|.}._./.h.U.h.g.a.a./._.|.&X&XU.y.:.:.0.h._.|._.a.i.a.a.U.U.w.q.U._.~.h.~.U.s.s.s.s.y.r.a.U._./.h.h.~./.U.h.~.h.h.U.U.U.a.y.y.",
"~.~.a.r.y.s.h.a.B.U.~.U.B.U.`.&X/././._.|.&X/.h.`./././././.U.B.U.~.`.oX;X;X|._.r.0.q.a.2.:.0.>.a.h.U.y.0.y.h.h.>.y.~._.~.s.y.2.&X/.h.a.s.U./.|._._.~._./.~.s.a.",
"_._.~.r.:.0.U.`.`.~.~.s.s.s.h.~./.}.&X&X|.}.|.&X|.|.`./.h.s.y.y.&X(.U.y.i.s.~.~./.`.`.`.|.`./.|._.}.|._./.~./.).(.(./.C././.|.|.U.U.a.2.2.y.h.U.r.0.:.2.0.0.2.0.",
"/.~.U.h./.`./.h.a.u.a.s.s.B.U.~.~.U.y.0.r.a.a.h.h.B./.B.~./.(.|.`./.~.~.h.B.h.~.(./.h.u.|.|.h.~./._.}.&X}.~.a.r.u.u./.`.oX|./.C.`.&X;X_.~._.&X_.#X_.~.U.U.U.)._.",
"2.2.r.U._.|._.h.h.u.y.5.2.2.2.2.2.2.0.y.U./.`._.y.0.>.:.:.r.y.u.2.a.h.s.0.2.0.y.U.h.s.a.y.r.y.s.0.r.u.s.s.~./.`.Y.h.C.}.|././.|./.|.oX}.h.r.y.h.h.U._.|.`.s.y.s.",
"~.U.h.U./._./.h._./.~.U.h.U././././.U./._.`.}./.U./._.|.|.(.~.s.U.~.~.h.h.~.`.|.U.h.h.s.y.>.$.$.>.r.a.s.s.a.r.2./.h.y.s.Y./././.y.y.r.s./.|.|.|._._.`._./.`._.`.",
"U.s.y.y.s.h.U.~.:.:.>.2.i.h._.`.%X}._././.U.h.U.1.0.y.s._.`.`.`.u.h.h./././.U.h.s.a.U._.|.|./.~.s.~./.`./.~.h.s.h.s.0.2.5.s.h.h.0.y.h.h.y.y.s.h.r.r.0.>.2.a.~.h.",
"~.h.U.s.U.~._.`.;X&X&X#X&X&X-X;X;X&X;X|._./././.*X|.Y.h.a.a.s.s.a.U./.`.|.`.~.h.h.r.0.y.  + a.y.`./.U.~.~._./.~.s.~.(.y.>.r.d O   0.:.y.|.1X&Xh.!.~.B.a.h.&X*X&X",
"&X|.&X_./.U.h.h.a.L.a.L.h.L.s.K.U./._././.U._._./._._.|.|.|.`./.h.h.U.h.h./.|.>X<X;X|.|.+ g /.U./.h.y.0.0.r.0.2.a./.`.s.>.2.K u w /.|.`.a.0.r.a.B.`.`.~.|.<X<X|.",
"|.&X|.|.~.s.i.y.0.r.a.a.h.U.U.h.y.y.g.U.h.U./._.uX<X*X&X}.U.q.2.s.s.h.a.u.a.h./.~.~./._.. 6 ~./.&X|._.`.&X&X|._.~.~.U.s.s.s.N % : 2.0.a.~./.U.a.y.s.h.a.s.h.h.y.",
"/._.|._.~.U./._.|.|.|.|._.~.h.s._._.`.|.&X&X&X>X*X*X}.}.|.&X;X&X/.`.|.;X|./.~.h._._.`.[ m F E U.q.0.2.a.h./.h.a._._./.@X&X}.G D Z _.`./.a.i.s./._.|._._.~.h.a.y.",
"0.r.y.y.y.y.U.`.U.B././.(./.{.|.&X>X&X*X>X>X>X>X*X&X}.|.&X|.&X&X;X|._.|.|.&X|.(.X , . G t.=.T X 1 . U.~.}.|._.h.:.:.2 + ; % ( 6.9.q X ; . L.U._.}._./.U.y.>.>.9.",
"g.Y.%X%X}.E.|.yX|.j.h.h.h.h.h.B.a.h._._.U.a.0.0.h.h.U.y.2.2.y.h.j.Y.C.h.s.r.8.>.; f 4 H ,...Q 6 f 2 [.h.f././.C./.{.h u i j ( @.=.n 8 f 2 /.|.>X{.h.y.h._._.y.%.",
"}.}.|.*X*X<X<X<XiX>X|.U.s.u.~.|._._./.U.U.U./._.a.h./././.Y./.Y./.Y.U.g.a.s.L.!.X 4 $ G =.' R 4 u + B.h.}.oX|.Y.j./.8 : 4 * ( o.*.n > u < |./.h.f././._._._.|.iX",
"a.h.U.h.U.h.h.g.0.0.0.0.0.0.r.a.U.h.e.>.$.| $.$.U.h.e.0.0.y.h.U.Y././.|.`.`.~.W b m z ^ U.i.E , s 1 h.a.y.y.:.| u.y.M M m m 8.L.J.N ; u + a.U.>X{.|.|._.U.a.q.q.",
"_.`.|.`.B.a.s.h.).U.~._.`._.s.0.y.s.U.U./._.U.a.0.r.a.U.U.a.:.$.y.a.U.`.`.1 - Y 8.;.*.<XAXVXP.+ e e e 2 2 2 2 > : 9 { ;.=.;.lXAXVXP > p < y.s././.h.0.:.:.0.g.Y.",
"s.s.s.y.r.>.:.>.a.a.a.a.L.L.L.a.0.q.U.U._.|./.U._.h.r.a.U._.`.&Xg.s.h./._.> & R =.' ( &XZXbXG.X 6 6 , 6 , , , , : 9 ) o.] =.cXCXDXL , i ; U.a.2.-.2.h.U.U.U.%XuX",
"`.U.s.h._._.B.y.:.s.`._.h.a.U._.|._./.a.h._.R.h.0.0.a.`.<X&X_.U.U.h.U./._.p , E K.w.w.qXCXnXP.9 z z z m m m m z l x :.0.0.w.cXCXDXL 1 s < a.h.a.s.h._.&X%X_.U.g.",
"~.U.h.~._.`._.U.r./.|.~.y.2.1.2.g.a.0.:.0.U._.U.U.0.0.a.a.a.s.U.0.8.0.U.h.u : H.AXmXMXZXDXSXqX*.=.=.5.;X;X;X;X=.=.8.lXBXmXVXZXCXFXP 3 s < a.a.a.|.h.2.:.K._._.R.",
"2.a./.U.y.r.g.C.!.u.2.2.y./././.U.).h.a.s./.h.0.).a.K._._.U.a.a.s.0.r.h.~.u ; P.HXbXNXCXDXDXqXX.O...4.OXXXOX].o.o.;.mXZXZXCXCXnXDXI < f ; U.s.U.2.q.U.T._.R.U.I.",
"_.h.0.a._.|._.U.h.a.y.q.a.h.%X<X_._._._.U.I.U.U./.U.h.Y.R.Y.R.}.}.Y._.<X*Xi # P.HXZXCXCXCXZXeX' O. .#.4X4X4XF.] o.;.mXVXZXNXZXZXZXP : 6 ; :.0.a.g.g.g.g.g.Y.g.0.",
"&X_.U.h.U.a.y.0.g.a.0.>.:.:.a././.a.2.:.$.$.:.0.U./.}.&X>X*X*X=Xh.0.1.h.Y.k 7 H.AXmXmXmXmXmX1X] O. .#.4X4X4XF. ...,.lXmXmXmXMXmXMXU 5 k 4 Y._.|.}.}./._._.}.}.|.",
":.0.a.U.g.U./._.~.U.h.a.y.a./.-X_.a.:.:.q.U./.}.a.h.a.a.I.}.}.Y.U.y h q &.`.&X;XfX<X<XeX<X1XB._ O.` k.3X3X4XD. .O.@.>XuXeXeXeX<XeX#X#X#XwXY p B w s.y.a.y.0.r.a.",
"a.~._._.~.U._.|.<X&X}._.U.g.U._.&X_.g.U./._.Y.)./._./.h._.*X&XY.2.< u & w.8X9X9X6X.X8X+X+X+XN._ O.` #.5X3X6X].O.O.O.5XOX+X+X+X+X:X+X:X8XjXY ; u o h.a.U.~.y.0.y.",
":.0.y.g.U./._.&X_._./._.|.#X_.|._.U./._._._.U.U.h.R./.Y._.;X/.0.a.2 i = 8.3X6X6X3X3X6X.X.X5XN._ O.` #.5X5X6X].@.@.O.3X3X3XXX4X4X5X.X.X.XsXU : p + a.r.h._.U.h.U.",
"_.~.U.U.U.a.0.>.:.$.$.0.h.U.U.U.h.g.U._.}.|.&X<X*X&X_.~./.|.&X/./.e i = ^ #.#.#.#.#.#.N.6X.X.XD.F.Z.3X5X5X6X].2X2X].5X5X5XOX5X5X5X<.#.#.6.F , u + }.Y.`.|.&X&X>X",
"U./._.&X>X<X&X_.|._.U._._._./.U._._.U.U.U.U.U./.}./.a.0.0.y.s.s.>.2 u 5 ~ ......+. . .v.7X.X6X5XXX5X4X5X6X5X5X5X5X5X5X5X5X6X6X5X5X#._ +.,.Z , i + Y.U.g.g.h.g.U.",
"U.U._.&X>X&X~.a.8.-.:.0.a.U.~._._._.Y._._._._.&X_._.|.&X|.s.r.2.>.2 6 = ^ ........_ ..v.6X.XOX+XOX.X6XOX5X5X5X5X5X5X5X5X5X5XOXOX5Xl.` ` ,.F , i O /.&X}._._.}.}.",
":.0.h./._./._._.j././.C./.[.|.|.h.~.~.~.s.y.r.2.:.2.q.a.h.Y._._.U.2 f = ~ O.O.O.O.O...l.7X.X9X1X1X0X9X8X5X6X5X5X5X5X5X5X5XOXsX1X6X<._ O.,.F , i o |.g.U./.U.g.-.",
"~.h.g.s.g./._.|.;X*X>X|.|.|.Y.h.y.0.2.2.s.U.U.h./.}.&X>X&X}._./.}.3 u = ;.Z.S.S.S.S.Z..X.X.X5.m F D Q 9XOX5X5X5X5X5X5X5X5XOXJ D S 6.].Z.oXF , i X Y.0.0.h./.*X_.",
"_.h.2.:.2.y.a.g.2.0.2.0.a./././.`./.s.a.a.s.y.a.Y._.|./.Y.h.h.U.|.2 u = 8.3X5X5X5X7X5X3X5XOX) @ 6 % V 0XOX6X5XOXOXOX5X5X5X:Xz $ $ r.9X5XsXU , i o &X/.}.&XY.U.2.",
"<X}.~.U.Y._./.U.`.|.&X|.&X>X>X*X_.&X&X_.h.y.a.h.h.h.U.h.a.g./.}.U.2 i 4 8.]..X.X3X3X.X5X6XOX) : s 6 U 0XOX6X5XOXOXOX5X5X5X:XM 6 7 r.9X.X0XU : i + }.h.U.g.y.U.h.",
"/./.Y././.U.h.a.:.y.~.h.a.2.:.:./._.`./.a.0.y.g.U.h.U.g.g.h._.|.&X2 6 * i.3X4X4X7X5X5XaX6XOX) & i , F 0XOX6X5XOXOXOXOXOXOX:Xn , , a.aX4XdXG : i + h._.*X`.a.y.0.",
"_._.`._._./._./.a._._.R.h.U.`.&X|.U.y.q.a.h.h.g.U.Y./.Y.U.h.g.a.U.; a & ( l.l.l.l.l.x.A.8XOX) & i , F 0XOX6X5XOXOX5XOXOXOX:XM 6 4 ( m.4.N.G : s < >X_.Y.y.:.g./.",
"h.h.h.h.h.a.a.y.U.h.s.0.$.:.a.U.h.q.2.y._.*X>X&X/._._.|.}._.U.h.`.3 i 9 ~ O. .+.O.O...m.6XOX' = a % G 0X.X5X5XOXOXOXOXOXOX:XM 0 = ( @. .<.Z , i + _./.|.&XY._./.",
"/.Y._._._./.U.s.U._.&X_._._./._._._._.R._._.Y.Y.h.g.a.h./././.U.s.X ; @ ^ @.#.@.O.] ] m.6X].( @ & @ Z 1XOX6XOXaXaXaXOX6XOX:Xl % $ ! O._ ,.Z , i + Y.y.Y._.Y./.U.",
"*XY.y.q.0.%.1.I.h._.a.$.*.g._._.I.a.q.y.a.q.e.0.1.q.U.R.Y.q.e.1.-.1.q.g.T J J ' N.m.c.S.6X6Xu.Q / E { :X6X9X'.! ! ! OX6X5XOX) ~ / ,.A.v.^.Z , i + h.h.h.h./._./.",
"h.h.}.&X|._.T.U._.~.U._._.U.a._.`._.U.U.U.U.h.U._.}._./.Y._.|.}._.}.}._._.9 $ ) dX5X7X6X5X6X+XdXsXsXdXOXOX6XB.$ $ * oX5X5X5XdXjXjX9X6X0XjXU : i + [.|.>X>X`.U.h.",
"_._./.U.I._.|.&Xq.0.2.h.U.0.:.U.U._.&X/.q.0.U.&X|.Y.g.0.0.q.g.g.}.&X>X<X*Xf = { 0X3X5X5X5X5X6X5X5XOXOXOXOX6XB.a 0 k oX5X5X5X5X5XOXOXOXoXtXU ; f < /.|./.U.U.h.U.",
"|.&X;X&X|.&X_._.~.}.&X_.&X>X>X>X<X&X_._.&X&X&X_._.}._.}.|.*X<X>X&X|._._.Y.4 @ { 0X3X6X5X5X5X6X5X5X5X5XOXOX6XB.: % = oX6XOX6X6X6XOX9XsXsXlXA . 2   h.g.y.y.y.~._.",
"a.0.a.U.g.0.0.y.0._._.s.U._._.a.a.a.y.a.y.a.a.s.y.U.|._./._./.Y./._.|.*XW R U r.OXS.].D.5X5X6X.X.X.X.XOXOX6XB.T T Q oX6XOX6X9X9X9X=.) ) { [ h.U.h.~././.}.`./.Y.",
"&XU.U./.U.r.y./.0.a.y.0.a.a.a.~.h.~._./.U.s.h._.h._.|.`.y X o ; ; ; - . H.tX0XS.x.v.v.A.5X5X5X5X5XOXOXOXOXOXOXsXsXsX6X5X5X6X8XOX1Xm @ = @ q.a.h._./._.|.&X[./.f.",
"i.i.U._./.a.2.2.U.a.1.0.y.0.a.&X<Xa.:.>._.&XU.*.:.y.a.a.B u i f f f a 5 7.+X.XN.x.v.v.A.5X5X5X5X5X5XOXOXOXOXOXOXXX.X5X5X5X5X8XOX1XF 6 v 3 ~.U.U._._.U.h.h.B.h.C.",
"r.i.r.>.0.h.`.|./.&X&X_.&X_.~._./._.~.s.y.r.a.s.U._.~.s.h < , , 6 : 4 $ 7.OX6XA.x.v.v.A.6X6X6X6X6X6X6X6X6X6X6X6X5X5X5X6X6X6XdX9XjXV # 3 X a.0.0.h.h.~.U.h././.|.",
"g.g.Y.+ 2 < < 1 1 X h./.g.h.}._.f.Y.}.*X&X}.[.[.~.y < ; J.~.M.V.:X9X9X9X8X7X9XV.m.m.m.v.v.v.v.c.l.l.l.v.v.v.v.v.v.v.v.v.v.n.l & % _.|._.h.a.r.r.Y.a.y.a.h.s.0.>.",
"/.a.1.< s r r r s < /.j.y.y.Y.U.j.g.y._.-XiX*X/.g.y t 6 r.n.v.v..X3X3X3X7X6X8XA.m.m.m.v.v.v.v.l.l.z.z.v.v.v.v.v.v.v.v.v.v.M.c 3 2 h./.h.a.r.2.5.Y.h.a.y.r.y.s.B.",
"U.g.Y.2 u 1 , 3 3 X |.(.y.s.~.~.h./.&X}.U.a.f.g./.y t , r.n.v.v..X7X5X5X5XpX9X'.n.m.v.v.v.v.v.c.l.z.z.v.v.v.v.v.v.v.v.v.v.M.b 8 t /._././.h.~.U.y.h.a.:.-.0.s.h.",
":.a./.< t i v V N N ~.~.y.r.a.s./.Y.Y._._._././.h.y 3 , p.V.m.m.5X.X.X'.V.a.B.n.n.m.v.v.v.v.v.c.c.v.v.v.v.v.v.v.v.v.v.v.v.M.c 3 2 /././.h.h.s.s./.&X|.h.s.U.`._.",
"&X/.U.< f , 7.kX<XkX- 8 t t t 3 3 3 3 3 3 3 3 3 3 t u 6 `.8X3X3Xv.v.m.V.S 9 * / V.v.m.v.v.v.v.v.v.v.v.v.v.v.v.v.v.v.v.v.v.n.b 3 3 |.}./.U.h.a.u.s.U.~.r.0.h.~.h.",
"/.U.y.1 i 6 ;.1X;XjX0 u u u u i i i i i i i u u u u 3 6 $X8X3X3Xm.v.m.V.D a 5 ^ V.v.m.v.v.v.v.v.v.v.v.c.c.c.c.v.v.v.v.v.v.n.b 3 3 /.}._.`./././.~./.B.a.U.|.&X}.",
"g.U.~.+ e : ;.jX:XjX# 6 6 6 3 3 , , , , , , 3 6 8 , 3 , `.8X3X3Xv.v.m.V.D 6 % / ^.m.m.m.m.m.m.m.m.m.m.v.v.m.m.v.v.v.v.v.v.n.b 3 3 y.h.h.h.~.h.h.s.a.a.s.h.U./.Y.",
"~.a.2.d B f 7.#X~.,X7 k c c c c b c b v v v c k k k n k $X8X3X3Xv.v.v.V.S n = ^ s.6.t.t.t.t.t.t.6.6.6.B.^.^.^.6.6.6.v.v.v.n.b 3 3 Y././.U.s.y.2.s.!./.&X;X|.Y./.",
"s.|._.>.:.s.h.: c = =.} } t.:X;X;X;X;X;X$Xp.p.p.u.u.u.u.x.v.c.c.v.v.v.v.m.p.!.G = j 9 j j j q q q 4 Y AXmXVXrXj 9 l ' O.O.=.b 3 3 a.2.0.h.|.|.~.Y.Y.h./.*XI.2.g.",
"|.~.U././.s.h.; i 4 ,.o.o.v.6XOXOX+X+X6XOXm.c.c.c.n.v.v.v.v.v.v.v.v.v.m.m.n.^.H & u 6 8 u u u u u 2 I FXnXDXzXu 6 q } o.@.=.b 3 3 h.~./.|.}.h.y.0.h.a.q.U.h.0.0.",
"a.0.u._.h.$.>.1 f 6 ;.} } p.:X;X;X;X;X1X;Xp.p.p.p.p.p.n.m.v.v.v.v.v.m.n.M.L.).U , i u u u u u t u ; I FXnXDXzXu , q { *.*.*.b 3 3 /././.U.h.h.h./.&X`.~._.|.U.s.",
"y.h.U.Y.h.y.0.a.~.~.5 c c c c c b b b v v v c c c c c k r.n.v.v.v.v.m.b.jXmXmXcXzXxXxXxXxXzXG.< u < I DXnXGXgXr , f hXmXmXcXN 3 2 /.U.h.a.y.Y.;X&X~.h.~.~.r.-.>.",
"&X}././.&X*X/.2.h.h.- 3 3 e 3 3 1 1 3 3 6 6 6 6 6 3 u , r.n.v.v.v.m.m.M.kXCXCXCXCXDXDXDXDXDXW.< u < I DXnXGXgXu 3 g NXFXZXCXB 3 2 Y.~./././._.|._.s.s.~.U.r.0.r.",
"&X|.&X&X|._.U.h.>X_.1 i i i i i i i i i i i i i i s i a 8.n.v.v.v.x.n.p.hXnXvXbXbXbXnXnXnXbXG.< u < I NXvXDXQ.u 1 g xXnXbXbXC u e h.h.U./././.h.s.h._./.U.;X>Xh.",
"}.|.*X>X&XY./.}._.h.X t t t t 3 e e e 3 e e , , , , 3 , i.s.M.M.M.M.!.L.hXFXDXDXCXDXDXCXCXCXP.< s < I FXCXGXzXu 3 g bXDXCXnXB 2 < h.h.y.a././.g.2.0.a.a.y./._.0.",
"_.g.1.0.Y.<XY.:.-.0.B._.U.u.a.B._.a.a./.}.h.3.5.j./.|.|.A M M M M V V N N L L L L L L L L L B t e e s L L L L t t t L L L L ~.a.2.U._.h.U.|.|.h.}.g./.*X_.Y.Y.e.",
"*X}.j.g.}.*X&X_.U.g.U./._./.j.~.q.3.q.h.[.[.}.Y.U.~./._.d > , , , 3 3 3 3 1 1 1 , , , , < < 1 e e e e 1 1 1 1 t t t 1 1 1 2 U./.U.&X>XU.y.h.a.2.q.I._./.h.0.2.r.",
"Y.I.g.d.Y.&X*X&XI.g.h.}.|.|.}.(.iX}.h.Y.&X*X}.h.2.:.:.q.d t u u u u u u i u u u u u u u i u e u u u u u u u u u u u u u i u U.h._.|./.a.a.Y.&X&X|.}.}._.Y.U./.&X",
"E.[.[.U.g.g.U.I./.U.g.U.|.|.|.oXI.U.I.y.a.Y.R.Y.|.&X|._.~.h.Y._.}._.h./.&X>X|.Y.|.|.|.|.`.j.U./.Y.a.e.q.q.q.U.&X/.0.q.|.<X|.U.U.h./._././._._./.%X}.}.|.&X_./.Y.",
"}.*X*X&XR.U.g.a.}.Y._./.}././.`._.<X<X_.U.Y.&X_._.|.&XY.y.q.U.|.U.h.a.g.|.*X_.q.Y.h.y.2.0.y.U./.g._.&X&X&X<X<X}.Y.Y.|.<X>X_./.}.&X|.Y.a.q.y._.>X&X|.|.&X|.Y.a.y.",
"C./.}.|.|.%X}.&XI./.&XuX>X[.h.h._.R.U.U._.-X&X_.U.h.y.2.q.U./._.U._./.g.a.U.|.}./.|.|.}./.U././.&X-X*XY.U.R.}.Y.a./.&X}.Y.U.h.Y./.}.|._.h.U.}.uX*X|.}.}./.U.h./.",
"Y.U.h.h.U.U.R.%Xg.I.Y././././.|._._._.}.&X>X&X&X}.}._.g.g./.&X|._.|.}././._.|._.}.&X%Xg.%.$.q.-X*X&X&X<X*XU.a.g.Y._.Y.h.a.h.a.:.2.Y.<XuX*X_.Y.h.h.U./._.Y.U.Y.}.",
"h.h.h.U.g.y.a.U.}.U.g.a.h.j.(.|./.B.Y.~.y.:.-.y.g._.}.U.h.U.|.;XU.g.a.Y.|.&Xh.1.0.I.&X<XR.0.1.U.<XY.e.0.1.1.I.&X>X|._./._._.y.1.U.|.&XY.h.U./.h.0.a.U./.Y.g.U.Y.",
"5.y.~.}.|.R.}.&X*X}./.}.>X|./.B.h.2.2.h.(./././.*X|.}.U.Y./.U.2./././.}.&X}./.U.T.K.T.&X-XR.@X-X%X>X*XR.Y.}.&X&X&X_.}.>X<X|._._.h._.}.U.~.}./.a.|./.U.h.a.a.Y.|.",
"-.:.2./._.g.a.%X*X}.}.}.j.f.g.Y. X}.g.q.g.%X<X-X%X}.I.f.q.q.Y.=X*XY.Y.}.U.a.I./.R.Y./.%X}.U.Y.}./././.j.h.h.j./.E.}.}.%X X%X}.E.{./.C./.h.0.a.U.h.j.j.g.j.j.[.}.",
"2.y.a._.>X&X}.-X}._.U.y.g.j.}. X}.}.|.%X&X*X}.R.|.}.}.}.%X*X*X<XY.U.R.h.1.1.Y.}.2.1.:.0.Y.*X*X&X|.|.|._./.U././.%XU.q.g.Y.}.Y.q.2.g./.h.2.-.y._.Y.Y.Y./.|.}.}.}.",
"{.|./.h.Y.g.0.0._.%X}._.%XuXuX|.}./.g.g.g.I._.&Xe.g.h.I./.&X}.Y.y.Y.&X}.U.h.Y.U.Y./.g.a.Y.>X-X/.}.&X}._.h.I.U.Y.>XR.g.g.}.*X&X}.|.C.y.y.y.a.0.2._./.U./._./.U.y.",
"h./.h.a.g._._.%XU.T._._.&X|._.g./._.|.*X&X/.Y.%X}.*X&X_.%XuX<X}.<X_.Y.h.a._.*X|.<XuXuX|.Y.U.h.U._._.U.U.U.U.Y._._./.Y.U.h.Y.}.>Xy.a.h.Y././.|.iX_./.h.a.s.s.s.a.",
"h.&X_.a.y.g.h.U.T.U.a.I.U.a.h.Y.*X*X*X>X}.I.g._.g.Y./.g.y.U.Y.a.Y.y.U.>X&X/.U.g.h.U._.}.h.0.q.h.%XU.I.h.R.&X&X&X_.&X&X_.g.a.U.}.;X/./.&X|.a.y./.a.s.h.h.h.h./.`.",
"| y.g.h.U.U._.&X_.U.U._.|.Y./.&X|./.h.y.0.2.a.U.y./.}.Y.h.U.U.h.}.s.h.U.y.2.U.&Xh.y.s./._.h.s.U./.K.y.a.U._.|.&X*X*X|.|._.Y./._.h.:.:.h.|./.h.h.2.a._._.U.U.U._.",
"[.*X*X|./.U.a.U.a.a.h.U././.h.h.5.g./.R.Y.U.a.a.q.h.Y._./.U.h./.U.h.&X&Xh.a.h./.&X/.g.U./._.Y.U.h.g.h.h.U.Y.Y.h./.U.g.h.U.h.h.g.0.h./.U.y.2.y.y.1.h.%X|.R.g.g.Y.",
"/.}.Y.U.U.g.s._.`./.u.2.y.B.h.y.h./.h.a.y.U.h.K.h.U.~./.U.U.~.}.`._._.~.y.U./.U.s.h.r.:.2.s./.U./.{.*X X|./././.~.Y.~.g.a.r.q.y.0.I.h.0.h.|.|.f.q.I.}.%XY.I._.%X"
};
