/* XPM */
static char *ae8572802e6c4ce2fc595e427b947dd63wmpfbzDLZ9HJXZk[] = {
/* columns rows colors chars-per-pixel */
"80 80 244 2 ",
"   c #020202",
".  c #0C0200",
"X  c #040907",
"o  c #0A0807",
"O  c #050509",
"+  c #060A0B",
"@  c #0A0C0C",
"#  c #130100",
"$  c #1A0802",
"%  c #120E0D",
"&  c #0D100F",
"*  c #15120D",
"=  c #070B11",
"-  c #0B0E12",
";  c #130F13",
":  c #0D1113",
">  c #0B151B",
",  c #121313",
"<  c #161617",
"1  c #15191A",
"2  c #1A1B1B",
"3  c #250900",
"4  c #29170D",
"5  c #351A09",
"6  c #342416",
"7  c #0D1C24",
"8  c #141E24",
"9  c #1A1E21",
"0  c #0F2028",
"q  c #1C2224",
"w  c #152228",
"e  c #1C242C",
"r  c #1D292E",
"t  c #1B2631",
"y  c #182934",
"u  c #1B2934",
"i  c #232626",
"p  c #222A2D",
"a  c #2A2B29",
"s  c #232B32",
"d  c #252C36",
"f  c #283237",
"g  c #333635",
"h  c #36383A",
"j  c #401E05",
"k  c #4E3016",
"l  c #553925",
"z  c #3E413E",
"x  c #5A4732",
"c  c #6E4A2E",
"v  c #654D3A",
"b  c #3F4444",
"n  c #454848",
"m  c #4F4E4D",
"M  c #555655",
"N  c #58585A",
"B  c #685240",
"V  c #7B5D45",
"C  c #5E615D",
"Z  c #756251",
"A  c #585D61",
"S  c #5F6162",
"D  c #686866",
"F  c #6C6D6C",
"G  c #75716C",
"H  c #6E7475",
"J  c #777A7A",
"K  c #84552E",
"L  c #895736",
"P  c #9F6439",
"I  c #835D41",
"U  c #926E51",
"Y  c #A86F43",
"T  c #AE7648",
"R  c #817C75",
"E  c #DC843F",
"W  c #DF9A3D",
"Q  c #E6863E",
"!  c #E79C3B",
"~  c #EEA13D",
"^  c #9A855C",
"/  c #9C8664",
"(  c #9C8B69",
")  c #818379",
"_  c #A78964",
"`  c #A48C64",
"'  c #A48D6C",
"]  c #AC8E6C",
"[  c #A4926C",
"{  c #AC936C",
"}  c #AC9A6C",
"|  c #B5986B",
" . c #B18E71",
".. c #AC9574",
"X. c #AC9B74",
"o. c #A99879",
"O. c #B49574",
"+. c #B49B74",
"@. c #BC9C74",
"#. c #B4967C",
"$. c #B49D7C",
"%. c #BC9D7C",
"&. c #ACA27C",
"*. c #B8A375",
"=. c #B4A27C",
"-. c #BCA37C",
";. c #BCAA7C",
":. c #CB8449",
">. c #D98947",
",. c #DD8944",
"<. c #DA9B4B",
"1. c #CC8C57",
"2. c #D48E57",
"3. c #CE915C",
"4. c #D7945C",
"5. c #E38A43",
"6. c #E28C49",
"7. c #E49848",
"8. c #E18F52",
"9. c #E39354",
"0. c #EAA044",
"q. c #E3AA5E",
"w. c #CC9667",
"e. c #DA9A65",
"r. c #CA9974",
"t. c #D39B73",
"y. c #D8A96C",
"u. c #C4A47C",
"i. c #C4AA7C",
"p. c #D8AA78",
"a. c #DEB278",
"s. c #E6AD6D",
"d. c #E5B26E",
"f. c #7B8585",
"g. c #7C828B",
"h. c #7C8990",
"j. c #85898D",
"k. c #8D9498",
"l. c #969998",
"z. c #A39585",
"x. c #B49E84",
"c. c #BC9E84",
"v. c #99A19E",
"b. c #B4A484",
"n. c #BCA584",
"m. c #BCAA84",
"M. c #B9A78A",
"N. c #BCAC8C",
"B. c #BCB288",
"V. c #8F9BA3",
"C. c #959AA2",
"Z. c #9CA2A5",
"A. c #A6ABAA",
"S. c #ABB0B1",
"D. c #ABB3B4",
"F. c #B4BAB8",
"G. c #BBBDBC",
"H. c #C49E84",
"J. c #C4A684",
"K. c #C4AB84",
"L. c #CCAD84",
"P. c #C4A68C",
"I. c #C4AD8C",
"U. c #CCAD8C",
"Y. c #D8AA83",
"T. c #C4B284",
"R. c #CBB587",
"E. c #C4B28C",
"W. c #CCB38C",
"Q. c #D5B78C",
"!. c #C9AE94",
"~. c #C4B494",
"^. c #CCB594",
"/. c #CCBB94",
"(. c #C8B898",
"). c #CCBB9C",
"_. c #D4B694",
"`. c #D4BB94",
"'. c #DCBA97",
"]. c #D4BD9C",
"[. c #E7B488",
"{. c #D79DA8",
"}. c #C7B2AA",
"|. c #D3BCA8",
" X c #D6AAB3",
".X c #BCC1BF",
"XX c #CCC29C",
"oX c #D4C29C",
"OX c #DBC399",
"+X c #E6C59A",
"@X c #D9C4AA",
"#X c #C3C3BD",
"$X c #CAC4B9",
"%X c #D6C5B6",
"&X c #E6CAA3",
"*X c #EDCBAF",
"=X c #E8D1A8",
"-X c #E7D5B9",
";X c #F4DEBE",
":X c #FFE2BC",
">X c #BABDC2",
",X c #BDC3C3",
"<X c #BDC5C8",
"1X c #C2C5C3",
"2X c #C4C8C6",
"3X c #C4CBCB",
"4X c #CACDCC",
"5X c #DACDCA",
"6X c #CAD1CE",
"7X c #D8D4CA",
"8X c #C8CDD3",
"9X c #CCD2D4",
"0X c #CBD4D7",
"qX c #D5DBD5",
"wX c #D4D8D7",
"eX c #DEDDD6",
"rX c #DBDDDB",
"tX c #E8D4CA",
"yX c #EBDBC8",
"uX c #E6DAD7",
"iX c #E2DDDB",
"pX c #DCE0D5",
"aX c #DDE2DD",
"sX c #ECE3CE",
"dX c #F6E2C9",
"fX c #E3E2D6",
"gX c #EAE3D3",
"hX c #E2E2DC",
"jX c #EEE2DB",
"kX c #F4E8D5",
"lX c #DDDFE0",
"zX c #E5DEE2",
"xX c #DEE2E1",
"cX c #DFE7EB",
"vX c #E2E3E2",
"bX c #E3EAE6",
"nX c #E9E9E4",
"mX c #E5EBE9",
"MX c #EAEDEA",
"NX c #EEF0EE",
"BX c #E9EFF1",
"VX c #F1EDF1",
"CX c #EEF2F3",
"ZX c #F5F8F7",
/* pixels */
"..%.n.%...{ ..{ n.K.n.=.-.m.$.{ X.=.m.m.n.=.E./.n.n.N.~.N.$.b.I.=.-.=.X.{ ..+.n.E.K.{ ` =.;.=.K.$.X.=.K.-...{ %.| @.-.L.W.W.i.-.i.W.R.J.-.-.i.-.K.u.-.K.Q.W.W.K.",
"%.$.+.$.-.-.$.] ..+...{ $.K.K.n.m.=.X.n.^.`.I.=.=.$.n.I.I.-.n.~.-.K.I.U.I.I.I.W.W./.W.K.K.n.-.m.n.=.-.n.-.$.+.n.L.K.u.-.u.K.W./.u.n.-.*.+.+.-.-.J.-.-.-.-.$.+.+.",
"-.n.-.O.O.-.I.W.I.W.I.K.K.E.W.I.E.W.~.E.E.E.N.K.n.n.n.K.n.$.+.-.I.n.%.X.+.-.K.W.$.$.n.N.-.$.n.$.-.=.$.-.=.%.$.O.O.+.%.J.-.%.n.-.J.-.-.-.-.-.+.-...+.+.+..._ { +.",
"$.-.J.$.+.n.W.`.n.U.W.I.n.n.%.+.+.n.W.-.' / ` $.n.-.-.-.n.-.$.=.%.-.K.U.W.U.n.$.!.$.$.J.n.^.^.J.=.K.I.K.I.I.J.%.%.%.#.O...$.J.^.@...+.-.J.+.O.+.-.n.J.K.n.-.n.U.",
"%.$.+.-.I.W.I.%.' O.$.%.%.-.-.$.E.W.E.I.K.-.n.-.=.$.$.K.I.W.^.^.n.+.' ' ..-.I.W.I.$.#.$.$.n.n.o.X.n.I.J.-.J.n.%.%.%.%.+.O.$.n.I.K.-.-.J.K.n.-.J.-.-.n.n.n.$.+.+.",
"J.J.$.O.+.%.-.$.u.n.J.n.u.n.U.^.K.K.K.I.W.^.K.-.U.K.K.K.K.K.n.u.n.J.U.Q._._.W.I.O...X.$.{ ' ..] $.-.n.+...+.-.-.] +.J.I.J.%.+.{ ^.K.-.$.%.n.K.W.I.I.J.I.K.J.%.$.",
"I.I.J.O.' ..n.U.U.J.J.%.%.%.-.J.K.E.^.^.W.E.W.^.W.W.U.K.-.%.+.+.^.L.n.+.#.%.J.J.K.U.U.U.W.U.K.W.I.E.W.I.K.J.K.P.L.L.K.i.K.K.W.W.n.n.$.{ { +.-.n.O...' { ....{ ..",
"K.J.n.-.K.U.K.-.$.@.$.%.%.u.n.J.J.n.+...O.$.$.-.-.u.K.u.J.K.L.W.U.K.J.J.-.u.-.J.L.K.-.@.W.W.-.J.K.I.E.^.E.J.$.O.@.@.K.U.Q.W.K.i.U.^._.I.J.I.^.I.!.I.J.n.n.n.P.I.",
"{ { O.n.I.W.I.-.-.@.+.| { { { { { { ..+.n.K.U.I.+...] ' ' O.+.@.{ $.-.%...{ ..+.n.-.%.$.+.O.+.%...O.@.%.%.J.K.U.m.-.i.E.W.K.K.W.K.W.Q.E.-.O.+.-.-.n.I.W.U.%.+.%.",
"J.n.-.n.K.I.K.-.I.K.J.n.-.n.K.K.K.K.n.K.I.U.E.K.n.K.I.W.W.L.J.%.n.J.J.-.-.J.U.W.n.-.-.%.+.] / / ] O.$.%.%.$.O.{ K.-.+.%.m.K.K.K.+.+.O.%.K.W.W.W.I.I.U.I.K.U.I.U.",
"n.%.+.+.%.-.n.J.' ' ] { #.-.I.U.~.E.I.K.K.n.-.n.[ ..+.%.I.U.U.U.@.-.-.K.K.K.n.-.%.$.n.I.W.W.K.J.%.J.K.U.K.J.-.%.-.%...{ | %.-.-...+.-.-.+.+.%.-.O.O...] { $.J.-.",
"J.-.n.%.n.J.I.U._.^.^.!.^.^.)._._.^._.W.I.K.K.K./.W.m.-.$.$.%.%.$.n.K.U.W.U.J.-.-.O...+.n.-.$.+.U.K.n.J.J.I.K.J.%.J.L.+.] O.n.U.-...' +.W.'.^.-.H.J.u.$.-.^./.^.",
"^.W.^.I.K.n.-.-.$.c.$.c.-.c.%.x.n.K.I.K.K.n.I.I.K.I.I.W.W.W.U.K.-.-.n.-.-.K.W.`.]._.W.W.^.    F K.-.+.....O...{ $.K.U.%.] { a   @ K.W.U.$...O.$.u.U.U.J.W.].].W.",
"W.^.W.W.J.%.#.+...O.$.$.-.n.n.-.+.+.=.n.-.n.K.I.oX]./.^.E.n.X.{ %.%.-.$.@.$.-.K.J.J.K.I.U.  . D ^.W.I.U.^.^.W.I.J.J.n.%.%.%.a O - { ..$.J.K.n.$.+.%.-.$.%.-.-.+.",
"K.I.W.I.J.n.K.I.W.W.W.W.I.J.-.%.I.I.U.W.^.^.^.`././.E.E.W.^._.^.K.U.W._.W.K.J.-.I.I.U.K.$.3 5 Z X...{ $.-.K.-.$.I.I.K.!.^.E.e + : I.U.K.$.#.%.K.I.W.I.I.J.-.$.+.",
"..O.+.+.+.+.n.U.n.u.K.K.L.K.R.W.^.`.^./.`.`.`.`./.^.E.W.^.W.^.^._.W.I.W.W.^.W.L.I.  2 # v r.r.I $ 2 X J.E.W.I.-.' ' o., < : r p e 1 , < @ c.n.I.E.I.K.n.+.] ]  .",
"=.m.~.~.E.B.W.XXW.;.-.-.-.-.-.u.$.-.I.I.n.$.....-.-.n.+.{ { +.-.;.m.i.-.%.O. .] ..  * # c e.2.L # :   -.*.K.K.i.K.R.W.- : : e s e , : , O K.W.`.R.-.+.-.I.I.+.( ",
"E.E.W././.].].].OX`.W.n.%.@.J.W.I.I.K.n.n.n.K.I.$.-.K.K.K.m.K.m.K.m.n.=.$.%.c.H.U.. $ # c e.e.L # :   -.E.Q.W.m.;.K.W.+ = - 8 e e : @ ,   W.K.-.*.K.K.I.I.I.W.oX",
"$.-.n.-.n.-.-.=.............O.$.n.-.o.] / ^ / / n.-.o.....+.-.n.m.K.K.W.U.U.J.%.Z 3 5 3 c t.t.V . &   $.+.+.' ^ @.+.@.- - > s f s 1 @ -   $.n.`.R.W.W.I.n.$.X.X.",
"I.U.W.U.u.$.%.-.P.n.J.I.U.I.%...+.%.n.n.K.I.n.$...O.$.n.n.$.' / +.$.n.U.U.-.  % V e.2.1.p.@X7XR   & , @ @ @ @ @ @ + - s s u D.8X<Xh O <   +.%.K.K.-...' ' ..=.m.",
"%.%.%.+.O.] ' ] $.$.$.$.c.c.c.$...X.n.n.I.W.K.n.I.-.O.$.n.I.U.^.=.%.-.K.I.J.  % V e.:.1.p.%X4XJ   @ @ @ & & : : : : + r r r D.8X,Xf O ,   n.$.{ ` { -.n.n.n.~.oX",
"U.n.%.-.I.I.u.+.' %.U.I.-.$.n.I.W.I.K.$.-.I.N.-.....$.U.].^.I.n.n.-.n.K.I.-.  , V r.w.| U.$X3Xf.+ , < & , : @ : : + : s r s D.3X3Xh O ,   $.-.$.%.-.I.^.~.I.n.=.",
"J.n.-.J.I.U.I.n.O.K.W.J.+.{ [ { =.$...' ..n.I.n.n.....$.$.$.%.n... ...n.-.O.  % G @X_.(.@X$X<X<X,X,X,XG.>X1XA.q e q p S.A.A.,X3X,Xh O ,   $.$.$.W.-.{ ' x.I.I.N.",
"{ $.K.n.+.O.=.i.H.@.{ { +.K.K.K.n.P.-.$.%.K.-...P.$.x.I.I.n.$.$.%...O.-.J.J.  % J 7X$X#X#X1X<X9XMXmXbXvXmXCX3Xr t e f 3X2X3X<X,X,Xh O ,   n.%.n.{ X.n.M.I.N.n.b.",
"I.-...$.I.W.I.n.-.$.+.X.$.-.~.].I.I.I.I.n.b.n.n.K.n.-.m.N.m.N.E.E.m.I.]./.m.O < J 6X,X3X3X1X,X4XxXxXxXxXrXvX3Xe u u f <X,X,X,X,X3Xh + ,   ' ..$.=.=.=.=.=.m.=...",
"^.I.n.-.n.$.+...=.$...] ' ' $.K.K.$.{ ' / / ' ..n.K.E.^.`././.(.-...[ -.m.n   @ H 6X.X.X1X1X,X3XxXxXxXxXxXmX,Xu u t d <X3X6X0X0X0Xg   o   A.I.W.E.E.K.I.I.E.E.W.",
"' ..$.n.=.n.K.I.J.n.-.$.+.$.K.).I.$.' ' X.n.K.E.$.-.$.$.b.E.E.m.n.=.  X   S.ZXmXmXvXvXvXbXvXcXcXxXxXvXvXxXmX,Xt u u u 8 0 0 7 8 w F.ZXvXZXM     K.%.+.$.+...O.$.",
"$.J.I.I.J.n.I.W.].^.E.I.n.=.n.I.^.I.=.n.K.I.m.P.K.I.K.-.I./.^.m.{ -.O , O Z.bXwXrXrXaXxXxXaXxXrXxXxXxXvXxXmX,Xe u u u u u u u d d D.bXwXMXM     I.-.$.n.J.+...+.",
"' ..+.=.n.K.I.^.I.I.K.I.W.!.I.W.I.n.K.I.I.I.n.n.-.N.K.m.I._.K...$.J.O : O D.ZXBXcXcXxXxXpXaXxXxXaXaXaXxXxXbX,Xe u u u u u u 7 7 7 D.bXwXmXM     K.$.O.-.I.n.-.n.",
"I.J.n.n.n.$...] ' / / ..-.n.n.n.-.=.n.I.E.W.^.]./.^.I.J.K.W.^.K.K.I.  , @ M H H D.cXxXxXpXaXxXaXaXaXaXxXaXbX,Xr u u u u u u h.Z.V.6XxXwXMXM     ].E.m.U.W.^.^.`.",
"n.K.I.^.`.].^.I.W.I.n.I.I.I.K.n.I.I.n.n.n.n.n.K.E.K.$.....+.%.%.] ..O : @ : 1 8 j.bXrXaXaXaXxXxXaXaXxXxXaXbX,Xu u u u u u u 0XZXCXaXaXxXBXM     m.m.n.=.=.-.=.n.",
"n.n.I.^.`.^.J.$. .` ' ..$.n.J.I.I.I.m.I.I.I.I.^.I.I.W.^.W.%.O.{ ] ] O @ : q p s k.mXrXaXaXaXxXaXfXfXhXhXaXbX,Xr u u u u u r 1XeXeXeXhXlXBXM     =.K.^.E.I.I.E.E.",
"' ..-.K.I.K.I.I.;.K.K.i.K.T.W.W.-.J.J.J.%.+.O.{ ' { X.$.-.m.I.I.n.X.O , - q s r A k.f.J D.mXhX7XOXOXOX@XhXaX9Xf.f.f.f.f.f.) ).OX'.yXfXiXVXM     E.W.=.n.K.n.=.` ",
"J.-.=.%.=.K.I.W._./.`.W.W.W.m.-.+...{ { %.n.n.-.K.E.^.`.^.E.I.K.E.K.O , - q p r w 8 7 : J CXfX@X4.<.<.p.hXaXbXmXmXmXmXmXmXkXy.<.<.=XgXiXVXM     K.m.....-.K./.I.",
"I.-.{ ' { +.$.=.{ ..{ ..$.K.K.K.U.K.%.$.$.%.+.$.m.I.W.K.m.-.-.n.W.W.O , @ 9 i p r s s 8 f.NXgX&X<.~ ! d.hXvXvXaXaXaXaXpXaXyXs.0.0.&XgXeXVXM     K.^.K.E.^.m.n.{ ",
"].E.J.n.m.I.K.n.U.W.^.W.^.`.`./.I.^.^.I.-.+.$.-.-.-.n.-.$.=.K.E.n.n.O - @ * 2 2 2 , q @ J MXsX+X<.~ W d.hXaXxXxXaXhXhXaXfX;Xq.! ! =XgXrXMXM     I.E.-.n.=.+.n.-.",
"K.K.m.K.K.n.-.$.' +.J.-.$.{ ' ' K.I.U.K.$...+.=.n.-.n.=.=.-.I.W.^.W.O < . l v v v B v x z.nXsX+X<.~ ! d.aXxXxXxXaXhXhXaXfX;Xq.! ! =XgXeXMXM     ' -.I./.U.$.+...",
"I.I.U.I.I.K.I.K.$.I.I.N.-.n.U.^.W.n.+.X.$.-.-.=.n.m.K.m.n.-.=.$.n.K.+ , # U e.4.4.4.e.w.'.kXgX&X7.~ 7.d.aXxXxXaXaXaXaXhXfX;Xq.! ! =XgXeXMXM     ].`.I.m.+.' =.K.",
"-.-.-.-.-.$.$.+.n.-.%.../ ' $.n.-.X.{ +.I./.`.^.K.I.I.W.E.I.n.-.U.^.  . # U e.>.9.,.,.>.[.dXkX+X<.7.<.y.aXrXeXhXhXhXhXhXaXyXy.<.0.=XgXfXMXM     m.I.K.W.^.m.I.K.",
"K.m.I.I.I.K.n.%.n.I.^.I.I.I.K.I.I.I.I.N.I.I.m.m.-.=.$.-.K.K.K.n.%.%.] ..-.I Y P :.9.6.>.s.&X&X+Xa.d.p.'.aXrXiX5X5X5X5XaXaXyXQ.a.a.-XfXpXMXM     K.m.+.m.I.m.K.n.",
"/.m.+.X...( [ b.-.I.$./ _ =.I.I.b.$.X.+.$.X.o...[ X.n.N.m.X.o.[ ` [ X.=.-.m.# 3 K 9.E ,.>.>.1.a.:XdXyXgXaXeXuX{.{.{.{.hXvXiXsXsXyXuXhXwXMXM     -.-.-.-.-.K.I.K.",
"-.-.E.^.W.I.M.n.I.J.n.I.I.n.$.I.U.I.n.n.n.n.-.n.I.E.I.K.m.I.W.E.I.E.E.I.I.m.. * L 2.5.5.,.5.>.[.dXeXeXrXaXhXuX{.{.{.{.aXxXaXaXvXrXhXaXwXMXM     K.T.W.`.`.U.n.-.",
"I.I.K.n.b.I.W.^.X...{ -.n...' n.n.I.^.K.X...n.^.W.m.=.....X.=.=.E.^.`.]./.K.  $ L 9.Q 6.E ,.:.Y.yXaXaXaXxXaXuX{.{.{.{.xXaXaXaXxXvXnXmXvXZXm     K.K.W.K.n.n.-.n.",
"W.^._.^.W.^.I.I.J.E.^.I.^.`.`.`.].^.I.I.^.^.^.I.I.E.I.E.W./.].`.^.W.I.I.m.m 5 j P 9.Q ,.8.4.t.'.uXaXaXaXaXaXiX X X X XxXaXaXxXvXvX2XG.G.4XD a i J.-.=.+.+.+.J.I.",
"$...$.n.=.....+...I.I.%.n.I.I.$.$.$.+.$.+.$.$.%.+.n.W.I.K.I.2 + @ @ O @ . U t.1.8.5.5.>.[.;XtXjXhXaXaXaXaXaXrXzXuXuXiXxXxXaXxXxXvXg   ,   A.-.n.-.J.K.K.E.U.K.m.",
"^.n.n.K.n.O.+.K...$.+...$.$.$.J.-.J.I.K.n.%.-.I.-.I.W.U.m.J.i @ : + - o # U 4.,.,.5.,.:.Y.yXvXvXaXaXaXaXaXaXaXxXxXxXaXfXfXfXvXvXvXh   ,   X.$.-.I.K.I.W.^.T.K.*.",
"#.#.n.I.K.$.{ { n.$.[ ..+...$.^.].$.' ] I.^.n._ ' +.$.$.-.K.9 - : : q i 4 U t.e.3.4.3.w.'.yXvXxXaXaXaXaXaXaXaXaXaXxXiX-X-XtX5X2X4Xn 2 a < J.n.n.I.I.n.-.-.u.-.i.",
"O.#.O.] ..-., < < < 2 @ ^.I.J.I.K.I.J.%.+.O.$.%.n.I.J.2 2 1 q e e q pX7X7XtXyXyX-X|.|.|.$X$X2X3X1X1X1X1X2X1X2X1X2X2X%Xw.w.r.6 2 2 ' ..$.$.$.....-.-.J.n.-.K.K.W.",
"=.=.m.~.^.E.  @ @ @ &   =.-.E.I.*.m.E./.^.E.T.T.J.-.-.: - - 8 p r s mXhXhXeXeXhX7X#X2X2X,X1X1X<X,X,X,X,X1X#X1X,X1X1X|.>.>.1.4 o @ I.W.I.-.$.O.O.m.$.+.$.-.%...] ",
"K.$.[ ..-.m.  & @ o &   +.+.m.n.;.=.+.I.).OX/.K.=.J.I.< - : r r r r bXrXaXbXhXaX2XG.1X1X1X1X1X1X1X1X1X1X1X1X1X1X#X$X@X,.5.2.5 @ % -.K.-.$.O.{ | m.-.$.+.O.+.%.u.",
"n.=.m.I.I.m.  @ % $ 3 # +.%.J.J.-.K.^.E.n.$.*.=.K.K.W.@ : : e t t r mXrXaXwXwXwX4X,X,X,X1X1X1X1X1X1X1X1X1X#X$X|.|.|.'.,.5.2.5 @ % K.I.K.K.-.J.n.+.-.$.' ` ..%.-.",
"' $.K.E.m.-.  : . e.>.e.x . o @ @ @ @ @ @ @ @ @ + + @ @ - : t u u t bXwXMXn   , J 9X<X,X3X1X1X1X1X1X1X1X1X1X@X3.5.6.5.Q 5.2.5 @ % K.K.K.-.-.%.%.K.^.W.-.%.n.U.I.",
"^.K.n.K.W./.  & # 9.,.4.c . % , , ; , , : : & : & & + : @ > e u u t bXrXMXb O 1 J 4X,X2X1X1X1X1X1X1X#X.X2X#X|.2.5.5.5.,.6.1.5 @ @ W.E.K.n.-.$.@.%.n.J.O...-.J.-.",
"K.n.+...+.n.  X . e.1.t.c # $ $ $ $ $ .     X X X X X + : > 0 u u t CXxXCXn O - f.wX3X3X4X4X4X4X4X4X2X2X1X2X|.w.4.4.e.1.2.| 6 o @ K.E.I.U.K.K.K.J.K.u.$.n.W.^.E.",
"=.n.J.-.=.-.=.$.K.5 k j c T Y Y Y T Y ' }.S.A.l.v.v.k.q q e u u u u m n m j.Z.l.N g g g h g g g g g a C wXeX}.6 k j l *X*X%Xi o , +.-.-.-.J.-.-.%.$.$.%.-.n.K.m.",
"J.$.{ { +.n.O._ /   % # L e.9.9.8.8.2.Q.kXnXxX9X6X9XF.p r r u u u u e e > C.0X2XN   + O O O O O O +   z eXMX#X. o   * jXiXiXi o , m.K.K.n.%.+.{ %.H.K.^._.W.m.K.",
"%.W.I.] ' %.-.] ^   < # K 4.>.E E ,.:.L.yX7XwXF.G..XS.i t u u u u d t s e k.4X>XM o : & @ , , , , @   n rXmXG.@ @ @ 2 nXhXeXa o , $.{ ..-.W.W.J.m.m.-.K./.b.{ =.",
"W.J.n.K.K.%.-.I.E.E.K.n.Z k l l l l l m N M M n m m n 1 1 8 g.C.j.k.e u e C.8X2XS.k.l.k.l.l.Z.D O ,   n rXmXG.@ - @ 2 vXaXeXa o , -.J.K.W.E.-.+...-.$.X.n.-.....",
"$...@.I.-./ ] K.K.$.` ` } . . . . . . o O   O   O O   O = 1 >X0X8X0Xw r e C.8X<XlXMXMXMXZXCXZXl.  ,   n rXmXG.@ @ @ 2 vXaXeXa o , K.K.K.n.-.-.-.K.^.U.J.I.W.n.%.",
"+.-.n.m.-.+...$.J.J.J.J.L.. * ; ; , , , ; , , , , , , , = 9 D.<X>X>Xw s e k.3X1X6XrXrXrXrXrXmXj.  ,   n wXbXG.- , @ q rXwXwXa o , K.n.-.$.+.m._.^.J.-.J.J.O.` ] ",
"^.E.K.K.^./.K.{ -.-.-.u.c.      O O                 O O O - 1XwX9XwXq p q Z.lXwXvXCXZXCXCXNXZXl.  ,   n mXZX6X- : @ 2 ZXZXNXi   X m.J.K.K.K.I.W.I.%.%.J.n.O...O.",
"^.W.^.^.W.I.n.-.`.I.u.-.*.H.@.%.{ ] ] _ { @.L.Q.| O.{ ..-.n.S N N S 1 8 : n D C F F F F F F H n o @ o i D H N - - @ , F F F j.K.$.-.-.n.K.K.K.-.%.-.I.K.n._.`.-.",
"E.W./.`.^.m.K.E.I.-.$.%.@.+.@.%.K.$.$.=.-.-.;.E.K.K.i.-.+.{ <     O - + @                       @ @ , O o     - @ - @     o $.%.+.-.-.+.$.K.K.=.{ ..$.$.+.K.I...",
"I.=.[ ..m.].m.' ` ..u.I.n.@.$.u.I.$.$.K.E.-.} | ;.K.W.W.-.%.a , , , , , , , < 2 2 2 2 < 1 2 1 < , < , , 1 2 < , , , : < , 2 J.$.{ n.I.-.n.W.W.-.E.=.K./.I.m.m.o.",
"/.E.;.=.E./.^.I.n.=.n.K.I.K.;.J.X.} X.-.T.T.E.m.n.J.K.I.m.n.n.m./.n.-.I.E.-.$.-.-.....J.U.-.....n.n.$.' ( +.m.m...+.=.-.b.-.n.K.n.^.`.n.+.-.$.{ X.b.I.K.-...{ O.",
"m.b.=.&.m.^./.^.b.=.-.E.W.W.E.L.oXE.-.m.^./.E.-.{ ' ' X.n.E.E.I.W.K.n.m.n.-.n.^.^.n...[ ( ' +.I.n.=.m.^.E.b.$.b.+.` ' =.W.I.n.-.I.W.K.$.$.m.^.^.W.E.E.I.m.n.K.^.",
"B.T.T.n.=.=.n.b.K.n.=.n.W.W.W.Q.b.n.b.+.$.m.N.m.W.^.W.I.J.-.m.I.E.I.-.K.^.`.W.m.W.W.W.W.U.;.n.K.m.$.o.X.X.X.n.^.K...X.W.].W.n.n.-.K.I.K.K.I.I.K.~.E.E.W.^.I.K.m.",
"E././.^.N.n.=.$.E.m.I.K.E.K.K.U.I.].].I.n.m.^.I.I.W.^.m.+.X.n.W.n.-.$.=.W./.I.X.m.-.+.{ ..+.n.K.=.I.^.^.^.].].E.m.m.W.].`.I.K.E.^.W.m.$.X.+.I.`.^.W.W.^.W.m.$.+.",
"i.K.E.W.W.~.E.^.b.K.^.oX`.T.-.-.I.N.n.n.I.).^.I.n.-.+.{ X.n.K.I.n.I.K.=.$.n.W.E.K.W.W.E.K.n.K.K.^.)./.m.n.N.E.m.$.K.^.E.m.n.-.m.K.E.W.I.-.n.E.oX/.W.E.E.K.n.-.K.",
"m.n.-.-.n.n.N.~.=.b.m.K.K.K.K.W.I.I.I.E.^.`.^.^.E.E.I.=.=.K.^.W.I.W.E.K.K.I.W.I.E.^.~.=./ / X.)./.^.^.]./.n.$.=.m.I.m.-.$.-.$.' { m.].oX/.I.m.-.-.n.K.I.m.n.m.E.",
"-.-.-.n.=.+.$.n.E.n.=.$.-.;.L.W.K.u.m.J.+.' ` +.=.I.E.n.-.n.W._.n.=.$.m.W.^.-.[ ..b.^.].N...[ n.].m.o...[ [ b.^.`.W.I.K.I.I.+.[ n.W.^.m.-.n.K.-...$.n.K.m.=.n.m.",
"| +.J.E.W.N.E.^./.E.K.E.`.W.K.u.-.{ { -.L.K.K.K./.W.E.n.m.K.n.{ K.K.K.E.^.E.K.n.M.x.M.^.).N.!.).~.`./.N.m.E.^.^.^.I.E.`.].W.I.I.-.I.E.n.J.E.K.$.W.K.n.-.$.$.m.W.",
"` ' { K.I.=.$.~./.E.E.E.;.*.=.m.W.E.=.X.=.~.].).~.E.b.*.X.X.m.(./.m.m.E.n.$.b.K.N.m.K.~.E.n.m.E.K.K.K.;.-.-.;.K.B.E.E.~.E.~.E.B.R.K.i.K.-...$.n.-.;.;.=.;.;.T.E.",
"{ +.$.I.`.^.E.).E.I.n.+.=.;.E.W.E.E.W.~.^./.E.N.W.E.E.E.~././.].m.n.N.-.[ [ m.E.{ [ ' ..m././.^.W.W.W.I.K.n.K.K.~.n.X.=.m.E.m.X.{ =.K.-.{ ` +.I.m.m.m.K.W.E.E.E.",
"R.W.K.-.m.=.....I.~.E.I.~.oXoXW.E.K.=.=.=.b.I.^.o.=.-.b.K.^.E.m.+.m.^.E.n.-.m.n.m.K.=.$.m.`.).K.E.^.E.I.-.b.n.m.`.N.=.=.E./.^.E.W.i.+.+.+.$...{ I.K.n.K.I.K.n.+.",
"-.K.-.$.=.I.I.~.n.M.I.I.^.W.I.=.K.I.W./.^.K.m.~.E./.^.I.~.oX].E.].I.m.-.$.I./.W.].oXoXW.m.n.-.n.I.I.n.n.n.n.m.I.I.K.m.n.-.m.E.`.+.$.-.m.K.K.W.OXI.K.-.$.%.%.%.$.",
"-.^.I.$.+.=.-.n.M.n.$.b.n.$.-.m./././.`.E.b.=.I.=.m.K.=.+.n.m.$.m.+.n.`.^.K.n.=.-.n.I.E.-...X.-.~.n.b.-.N.^.^.^.I.^.^.I.=.$.n.E._.K.K.^.W.$.+.K.$.%.-.-.-.-.K.U.",
"^ +.=.-.n.n.I.^.I.n.n.I.W.m.K.^.W.K.-.+...{ $.n.+.K.E.m.-.n.n.-.E.%.-.n.+.{ n.^.-.+.%.K.I.-.%.n.K.x.+.$.n.I.W.^././.W.W.I.m.K.I.-.' ' -.W.K.-.-.{ $.I.I.n.n.n.I.",
"T././.W.K.n.$.n.$.$.-.n.K.K.-.-.| =.K.N.m.n.$.$.X.-.m.I.K.n.-.K.n.-.^.^.-.$.-.K.^.K.=.n.K.I.m.n.-.=.-.-.n.m.m.-.K.n.=.-.n.-.-.=...-.K.n.+.{ +.+.[ -.~.W.N.=.=.m.",
"K.E.m.n.n.=.%.I.U.K.@.{ +.u.-.+.-.K.-.$.+.n.-.x.-.n.J.K.n.n.J.E.U.I.I.J.+.n.K.n.%.-.O.' { %.K.n.K.R./.W.W.K.K.K.J.m.J.=.$.O.X.+...b.-...-.W.W.*.X.b.E.~.m.b.I.~."
};
