/* XPM */
static char *_0a38b01bbad4e35a3d3f3e71b213c7caA3qgJ0FG3uKQT7L[] = {
/* columns rows colors chars-per-pixel */
"80 80 214 2 ",
"   c #010203",
".  c #050807",
"X  c #030609",
"o  c #060A0C",
"O  c #0A0B0C",
"+  c #06100F",
"@  c #0E100F",
"#  c #10110E",
"$  c #050E12",
"%  c #0B0E11",
"&  c #090E18",
"*  c #061115",
"=  c #0D1113",
"-  c #051118",
";  c #0D141A",
":  c #0E1B1E",
">  c #121314",
",  c #161915",
"<  c #1A1816",
"1  c #14161B",
"2  c #14191C",
"3  c #1A1B1C",
"4  c #18201E",
"5  c #0D1A23",
"6  c #121520",
"7  c #141C23",
"8  c #1A1D22",
"9  c #131E29",
"0  c #181F2A",
"q  c #211F27",
"w  c #152125",
"e  c #1A2125",
"r  c #16222C",
"t  c #1B252B",
"y  c #1B292D",
"u  c #162632",
"i  c #1B2732",
"p  c #172934",
"a  c #1B2933",
"s  c #1D2A39",
"d  c #242425",
"f  c #292726",
"g  c #22252B",
"h  c #23292C",
"j  c #2B2D2D",
"k  c #2D302B",
"l  c #212A33",
"z  c #2E3234",
"x  c #22313C",
"c  c #313334",
"v  c #343638",
"b  c #3A3C3D",
"n  c #3C464A",
"m  c #414343",
"M  c #434649",
"N  c #454A4C",
"B  c #4A4B4C",
"V  c #424C52",
"C  c #4A5357",
"Z  c #4A555C",
"A  c #545356",
"S  c #515C5E",
"D  c #595C5D",
"F  c #4B5864",
"G  c #525C64",
"H  c #586365",
"J  c #606264",
"K  c #656768",
"L  c #6B6D6D",
"P  c #6D6F73",
"I  c #6E7173",
"U  c #6D7078",
"Y  c #727474",
"T  c #73797D",
"R  c #7A7B7B",
"E  c #9A855C",
"W  c #9C8664",
"Q  c #9C8C64",
"!  c #9C8A6C",
"~  c #A48664",
"^  c #A48C64",
"/  c #AC8E64",
"(  c #A48D6C",
")  c #AC8E6C",
"_  c #A4926C",
"`  c #AC936C",
"'  c #AC9A6C",
"]  c #B4966C",
"[  c #B49A6C",
"{  c #AC8E74",
"}  c #B48E74",
"|  c #A49474",
" . c #AC9574",
".. c #AC9B74",
"X. c #AC967C",
"o. c #AC9B7C",
"O. c #B49574",
"+. c #B49B74",
"@. c #BC9C74",
"#. c #B4967C",
"$. c #B49D7C",
"%. c #BC9E7C",
"&. c #ACA27C",
"*. c #B4A476",
"=. c #BCA374",
"-. c #B4A27C",
";. c #BCA37C",
":. c #BCAA7C",
">. c #C4A47C",
",. c #C4AA7C",
"<. c #7A7D84",
"1. c #7F8386",
"2. c #85878A",
"3. c #8E9499",
"4. c #959797",
"5. c #97999B",
"6. c #B49E84",
"7. c #BC9E84",
"8. c #B4A484",
"9. c #B4A787",
"0. c #BCA584",
"q. c #BCAA84",
"w. c #BCA68C",
"e. c #BCAC8C",
"r. c #BCB288",
"t. c #A7A9A9",
"y. c #A3ABAD",
"u. c #A5ABB0",
"i. c #A6B0B6",
"p. c #ACB3B5",
"a. c #ADB3B8",
"s. c #B2B3B5",
"d. c #B6B8BA",
"f. c #B6BABA",
"g. c #C49E84",
"h. c #C4A684",
"j. c #C4AB84",
"k. c #CCAC84",
"l. c #C4A68C",
"z. c #C4AD8C",
"x. c #CCAE8C",
"c. c #C4B284",
"v. c #CCB384",
"b. c #C4B38C",
"n. c #CCB38C",
"m. c #CABA8C",
"M. c #D4B58C",
"N. c #D4BA8C",
"B. c #C4AE94",
"V. c #CCAE94",
"C. c #C4B494",
"Z. c #CCB594",
"A. c #C7B897",
"S. c #CCBB94",
"D. c #CCBB9C",
"F. c #D4B694",
"G. c #D4BB94",
"H. c #D4BD9C",
"J. c #DCBE9C",
"K. c #C99DA6",
"L. c #D49BA7",
"P. c #E39EAE",
"I. c #D2A3AE",
"U. c #D4ACB5",
"Y. c #C8B6BA",
"T. c #D7B4BA",
"R. c #BAC1BF",
"E. c #CCC29C",
"W. c #D4C29C",
"Q. c #D8C398",
"!. c #AEB8C0",
"~. c #BCBEC1",
"^. c #CCBEC2",
"/. c #D5BAC1",
"(. c #B5C2C4",
"). c #BDC3C3",
"_. c #BDC6C9",
"`. c #BAC6D0",
"'. c #C2C4C4",
"]. c #C9C5C5",
"[. c #C2C5C9",
"{. c #C5CACC",
"}. c #C9CCCD",
"|. c #DACCCD",
" X c #C7D0CF",
".X c #C7CBD1",
"XX c #CDCFD1",
"oX c #C7D2D7",
"OX c #CDD2D4",
"+X c #CDD5DA",
"@X c #D0D2D4",
"#X c #DFD6D5",
"$X c #D4D9D6",
"%X c #D2D6DA",
"&X c #D5DCDC",
"*X c #DBDDDD",
"=X c #E4DAD9",
"-X c #F1DDDF",
";X c #D7E0DD",
":X c #DCE1DD",
">X c #E1E1DF",
",X c #EADEE2",
"<X c #DCE2E2",
"1X c #DCE7E6",
"2X c #DEE7E8",
"3X c #E3E4E3",
"4X c #E1EBE6",
"5X c #E4EBEC",
"6X c #E9ECED",
"7X c #E7F1EE",
"8X c #ECEEF0",
"9X c #ECF1F2",
"0X c #EBF5F6",
"qX c #F5F9FA",
/* pixels */
" .%.0.%. .`  .` 0.j.0.-.;.q.$.` ..-.q.q.0.-.b.S.0.0.e.C.e.$.8.z.-.;.-...`  .+.0.b.j.` ^ -.:.-.j.$...-.j.;. .` %.] @.;.k.n.n.,.;.,.n.v.h.;.;.,.;.j.>.;.j.M.n.n.j.",
"%.$.+.$.;.;.$.)  .+. .` $.j.j.0.q.-...0.Z.G.z.-.-.$.0.z.z.;.0.C.;.j.z.x.z.z.z.n.n.S.n.j.j.0.;.q.0.-.;.0.;.$.+.0.k.j.>.;.>.j.n.S.>.0.;.=.+.+.;.;.h.;.;.;.;.$.+.+.",
";.0.;.O.O.;.z.n.z.n.z.j.j.b.n.z.b.n.C.b.b.b.e.j.0.0.0.j.0.$.+.;.z.0.%...+.;.j.n.$.$.0.e.;.$.0.$.;.-.$.;.-.%.$.O.O.+.%.h.;.%.0.;.h.;.;.;.;.;.+.;. .+.+.+. ./ ` +.",
"$.;.h.$.+.0.n.G.0.x.n.z.0.0.%.+.+.0.n.;.( W ^ $.0.;.;.;.0.;.$.-.%.;.j.x.n.x.0.$.V.$.$.h.0.Z.Z.h.-.j.z.j.z.z.h.%.%.%.#.O. .$.h.Z.@. .+.;.h.+.O.+.;.0.h.j.0.;.0.x.",
"%.$.+.;.z.n.z.%.( O.$.%.%.;.;.$.b.n.b.z.j.;.0.;.-.$.$.j.z.n.Z.Z.0.+.( (  .;.z.n.z.$.#.$.$.0.0.X...0.z.h.;.h.0.%.%.%.%.+.O.$.0.z.j.;.;.h.j.0.;.h.;.;.0.0.0.$.+.+.",
"h.h.$.O.+.%.;.$.>.0.h.0.>.0.x.Z.j.j.j.z.n.Z.j.;.x.j.j.j.j.j.0.>.0.h.x.M.F.F.n.z.O. ...$.` (  .) $.;.0.+. .+.;.;.) +.h.z.h.%.+.` Z.j.;.$.%.0.j.n.z.z.h.z.j.h.%.$.",
"z.z.h.O.(  .0.x.x.h.h.%.%.%.;.h.j.b.Z.Z.n.b.n.Z.n.n.x.j.;.%.+.+.Z.k.0.+.#.%.h.h.j.x.x.x.n.x.j.n.z.b.n.z.j.h.j.l.k.k.j.,.j.j.n.n.0.0.$.` ` +.;.0.O. .( `  . .`  .",
"j.h.0.;.j.x.j.;.$.@.$.%.%.>.0.h.h.0.+. .O.$.$.;.;.>.j.>.h.j.k.n.x.j.h.h.;.>.;.h.k.j.;.@.n.n.;.h.j.z.b.Z.b.h.$.O.@.@.j.x.M.n.j.,.x.Z.F.z.h.z.Z.z.V.z.h.0.0.0.l.z.",
"` ` O.0.z.n.z.;.;.@.+.[ ` ` ` ` ` `  .+.0.j.x.z.+. .) ( ( O.+.@.` $.;.%. .`  .+.0.;.%.$.+.O.+.%. .O.@.%.%.h.j.x.q.;.,.b.n.j.j.n.j.n.M.b.;.O.+.;.;.0.z.n.x.%.+.%.",
"h.0.;.0.j.z.j.;.z.j.h.0.;.0.j.j.j.j.0.j.z.x.b.j.0.j.z.n.n.k.h.%.0.h.h.;.;.h.x.n.0.;.;.%.+.) W W ) O.$.%.%.$.O.` j.;.+.%.q.j.j.j.+.+.O.%.j.n.n.n.z.z.x.z.j.x.z.x.",
"0.%.+.+.%.;.0.h.( ( ) ` #.;.z.x.C.b.z.j.j.0.;.0._  .+.%.z.x.x.x.@.;.;.j.j.j.0.;.%.$.0.z.n.n.j.h.%.h.j.x.j.h.;.%.;.%. .` ] %.;.;. .+.;.;.+.+.%.;.O.O. .) ` $.h.;.",
"h.;.0.%.0.h.z.x.F.Z.Z.V.Z.Z.D.F.F.Z.F.n.z.j.j.j.S.n.q.;.$.$.%.%.$.0.j.x.n.x.h.;.;.O. .m   >   +.x.j.0.h.h.z.j.h.%.h.k.+.) O = o d  .( +.n.J.Z.;.g.h.>.$.;.Z.S.Z.",
"Z.n.Z.z.j.0.;.;.$.7.$.7.;.7.%.6.0.j.z.j.j.0.z.z.j.z.z.n.n.n.x.j.;.;.0.;.;.j.n.G.H.F.n.B X >   0.j.;.+. . .O. .` $.j.x.%.) . % o d j.n.x.$. .O.$.>.x.x.h.n.H.H.n.",
"n.Z.n.n.h.%.#.+. .O.$.$.;.0.0.;.+.+.-.0.;.0.j.z.W.H.S.Z.b.0...` %.%.;.$.@.$.;.j.h.h.j.n o 5 X j.Z.n.z.x.Z.Z.n.z.h.h.0.%.%.% $ $ g `  .$.h.j.0.$.+.%.;.$.%.;.;.+.",
"j.z.n.z.h.0.j.z.n.n.n.n.z.h.;.%.z.z.x.n.Z.Z.Z.G.S.S.b.b.n.Z.F.Z.j.x.n.F.n.j.h.;.z > 1 e t a t > >   ` $.;.j.;.$.z.z.O = 1 t t g g > @ 4 $.#.%.j.z.n.z.z.h.;.$.+.",
" .O.+.+.+.+.0.x.0.>.j.j.k.j.v.n.Z.G.Z.S.G.G.G.G.S.Z.b.n.Z.n.Z.Z.F.n.z.n.n.Z.n.k.c X % e y a t O >   0.h.b.n.z.;.( (   = ; t l h h > O 3  .7.0.z.b.z.j.0.+.) ) } ",
"-.q.C.C.b.r.n.E.n.:.;.;.;.;.;.>.$.;.z.z.0.$. . .;.;.0.+.` ` +.;.:.q.,.;.%.O.{ ) j . o 7 t r t % %   c.;.=.j.j.,.j.v.  o ; w e g t > O , j.j.n.G.v.;.+.;.z.z.+.Q ",
"b.b.n.S.S.H.H.H.Q.G.n.0.%.@.h.n.z.z.j.0.0.0.j.z.$.;.j.j.j.q.j.q.j.q.0.-.k , e e e e e y.%X{.*X  > O , d 3 3 8 8 g 0 t w n  XOX+X).O O 1 G.n.j.;.=.j.j.z.z.z.n.Q.",
"$.;.0.;.0.;.;.-. . . . . . .O.$.0.;.o.) W E W W 0.;.o. . .+.;.0.q.j.j.n., . % $ e a r a.9X<X9XX > O O . O . . X $ 1 t 7 n 2X2X5X{.O O , 0.$.0.G.v.n.n.z.0.$.....",
"z.x.n.x.>.$.%.;.l.0.h.z.x.z.%. .+.%.0.0.j.z.0.$. .O.$.0.0.$.( W +.$.0.x.3 . = * e y 7 p.5X&X5X  % . O > % % = = ; ; t w V <X&X5X}.O O > 0.+.%.j.j.;. .( (  .-.q.",
"%.%.%.+.O.) ( ) $.$.$.$.7.7.7.$. ...0.0.z.n.j.0.z.;.O.$.0.z.x.Z.-.%.;.j.3 . % $ t h 7 f.6X*X8X  % o % % $ $ $ $ * ; y w N 2X<X5X}.. O > ;.0.$.` ^ ` ;.0.0.0.C.W.",
"x.0.%.;.z.z.>.+.( %.x.z.;.$.0.z.n.z.j.$.;.z.e.;. . .$.x.H.Z.z.0.0.;.0.j.3 . = ; 3.a.u.+X1X&X9X; t t t t t t t h 2 V i.y.f.1X<X5X}.O O > +.$.;.$.%.;.z.Z.C.z.0.-.",
"h.0.;.h.z.x.z.0.O.j.n.h.+.` _ ` -.$. .(  .0.z.0.0. . .$.$.$.%.0. .{  .0.3 X O % y.+X_.$X<X;X7Xe l a l l l l l a 7 G +X_. X;X*X5X{.O O > z.$.$.$.n.;.` ( 6.z.z.e.",
"` $.j.0.+.O.-.,.g.@.` ` +.j.j.j.0.l.;.$.%.j.;. .l.$.6.z.z.0.$.$.%. .O.;.3 . = % a.oX X1X5X5X0X9 a s s s s s s s r F oX`.+X5X5X9X+X$ X = 0.0.%.0.` ..0.w.z.e.0.8.",
"z.;. .$.z.n.z.0.;.$.+...$.;.C.H.z.z.z.z.0.8.0.0.j.0.;.q.e.q.e.b.b.m M M e 8 7 e V Z C S S C H i a s s s p p p p u x F C Z H G S C e 7 t M N m $.-.-.-.-.-.q.-. .",
"Z.z.0.;.0.$.+. .-.$. .) ( ( $.j.j.$.` ( W W (  .0.j.b.Z.G.S.S.A.;.    X h l l a 9 9 r 9 9 5 : a a a s s a a a a u r r 5 5 9 5 7 9 t y l o     n.b.b.j.z.z.b.b.n.",
"(  .$.0.-.0.j.z.h.0.;.$.+.$.j.D.z.$.( ( ..0.j.b.$.;.$.$.8.b.b.q.0.O = o y a a i a a a t a l a i a a a a a a a a a u a a a i i a i t t t ; O O q.j.%.+.$.+. .O.$.",
"$.h.z.z.h.0.z.n.H.Z.b.z.0.-.0.z.Z.z.-.0.j.z.q.l.j.z.j.;.z.S.Z.q.` O O O t a a a a a a a a a a a a a a a a a a a a a a a a i i s s i a y $ = O h.z.;.$.0.h.+. .+.",
"(  .+.-.0.j.z.Z.z.z.j.z.n.V.z.n.z.0.j.z.z.z.0.0.;.e.j.q.z.F.j. .$.O O O t a a a a y a a a a a a a a a a a y y y y a a a a a i s s i a y = = O z.j.$.O.;.z.0.;.0.",
"z.h.0.0.0.$. .) ( W W  .;.0.0.0.;.-.0.z.b.n.Z.H.S.Z.z.h.j.n.Z.j.j.O O O t a a a a y a a a a a a a a a a a a a a a a a a a a y y i i a y = = O n.H.b.q.x.n.Z.Z.G.",
"0.j.z.Z.G.H.Z.z.n.z.0.z.z.z.j.0.z.z.0.0.0.0.0.j.b.j.$. . .+.%.%.) O O O t a a a a y a i i a a l a a a a i a a a a a a a a a l l r a a y * % O Z.q.q.0.-.-.;.-.0.",
"0.0.z.Z.G.Z.h.$.{ ^ (  .$.0.h.z.z.z.q.z.z.z.z.Z.z.z.n.Z.n.%.O.` ) O O O t a a a a y a i i i a 5 5 9 r a a a a a a a a a r 5 2 2 7 a a a = % O $.-.j.Z.b.z.z.b.b.",
"(  .;.j.z.j.z.z.:.j.j.,.j.c.n.n.;.h.h.h.%.+.O.` ( ` ..$.;.q.z.z.0.O O O t a a a a y a a a i a $ - - 9 a a a a a a a a a r $ o + * a a y * % O A.b.n.-.0.j.0.-.^ ",
"h.;.-.%.-.j.z.n.F.S.G.n.n.n.q.;.+. .` ` %.0.0.;.j.b.Z.G.Z.b.z.j.b.O O O t a a a a y a a a t a & * & : a a a a a a a a x i * * . $ i a y $ O . q.j.q. . .;.j.S.z.",
"z.;.` ( ` +.$.-.`  .`  .$.j.j.j.x.j.%.$.$.%.+.$.q.z.n.j.q.;.;.0.n.O O = t a a a a a a a a i a $ o $ * : 5 5 5 5 5 5 5 5 - & = O * a a y * % O Z.j.Z.j.b.Z.q.0.` ",
"H.b.h.0.q.z.j.0.x.n.Z.n.Z.G.G.S.z.Z.Z.z.;.+.$.;.;.;.0.;.$.-.j.b.0.O % = i a a a a i a a a i a % =   2.qX6X6X6X5X5X5X5XqX_.. @ O * a a h * % O W z.b.;.0.-.+.0.;.",
"j.j.q.j.j.0.;.$.( +.h.;.$.` ( ( j.z.x.j.$. .+.-.0.;.0.-.-.;.z.n.Z.O % = i i a a p s a a a i a % =   R 6X*X*X*X:X:X:X:X3Xf.@ @ O * a a h * % O ;.( ;.z.S.x.$.+. .",
"z.z.x.z.z.j.z.j.$.z.z.e.;.0.x.Z.n.0.+...$.;.;.-.0.q.j.q.0.;.-.$.0.      l i a a i i a s a i a   O   R 9X3X>X3X3X>X:X3X4Xf.    X o i a y = = O Z.H.G.z.q.+.( -.j.",
";.;.;.;.;.$.$.+.0.;.%. .W ( $.0.;...` +.z.S.G.Z.j.z.z.n.b.z.0.;.x.M B A e 9 r r t e r a p a t M m v 3.>X$X=X=X|.|.#X=X5X{.M m M n i a y = = O 0.q.z.j.n.Z.q.z.j.",
"j.q.z.z.z.j.0.%.0.z.Z.z.z.z.j.z.z.z.z.e.z.z.q.q.;.-.$.;.j.j.j.0.%.%.)  .8 o & - ; ; 9 a a a 9 %X}.OX}.'.'.U.K.L.K.T.-X<X*X6X4X9X%Xi a y = = O q.j.q.+.q.z.q.j.0.",
"S.q.+... .! _ 8.;.z.$.W ~ -.z.z.8.$...+.$...o. ._ ..0.e.q...| _ ^ _ ..-.2 o $ * 1 2 ; t a a 7 .X~.[.'.'.'.U.L.P.L.T.-X:X:X&X&X<X{.t a y = = O ;.;.;.;.;.;.j.z.j.",
";.;.b.Z.n.z.w.0.z.h.0.z.z.0.$.z.x.z.0.0.0.0.;.0.z.b.z.j.q.z.n.b.z.b.b.z.1 $ * = 1 1 1 t y l 7 a.y.y.f.{.)./.U.I.K./.,X:X&X)._.`.!.e e e z v c 0.j.c.n.G.G.x.0.;.",
"z.z.j.0.8.z.n.Z... .` ;.0. .( 0.0.z.Z.j... .0.Z.n.q.-. . .... O O O O O t l l t 2 1 1 t i a l t t 4 T OXR.].Y.^.Y.|.3X4X).t a a t $ o 2 x.;.;.0.j.j.n.j.0.0.;.0.",
"n.Z.F.Z.n.Z.z.z.h.b.Z.z.Z.G.G.G.H.Z.z.z.Z.Z.Z.z.z.b.z.b.n.S.# O O O O O e r a y 2 1 6 t i i i y w 7 T OX_.'.'.[.).}.:X1X(.y t s y % O > n.z.j.z.h.;.-.+.+.+.h.z.",
"$. .$.0.-. . .+. .z.z.%.0.z.z.$.$.$.+.$.+.$.$.%.+.0.n.z.j.z.O O O O O % y a a y 2 1 7 t i a a y h 8 <.%X_.[.'.}.[.OX3X5X(.y a a t O O < 0.$.;.0.;.h.j.j.b.x.j.q.",
"Z.0.0.j.0.O.+.j. .$.+. .$.$.$.h.;.h.z.j.0.%.;.z.;.z.n.x.q.h.= = = = % ; a r a i 7 2 7 0 t i i y h 7 U ).a.f.s.p.a.~.XX*Xp.e e e t h d f +...$.;.z.j.z.n.Z.c.j.*.",
"#.#.0.z.j.3 , 3 3 3 3 3 +. .$.Z.H.$.( ) z.Z.0.~ ( +.O , ; 7 y y y y t y a i i i 7 2 2 7 7 7 7 2 8 6 0 e 8 8 8 e e e h q e = = . e 0.z.j.0.h.0.0.z.z.0.;.;.>.;.,.",
"O.#.O.)  .> O O O O O O Z.z.h.z.j.z.h.%.+.O.$.%.0.z.  > % ; a a a a a i i i a l 2 1 1 2 2 2 2 2 1 1 1 2 2 2 2 1 1 1 1 1 > % O . d (  .$.$.$. . .;.;.h.0.;.j.j.n.",
"-.-.q.C.Z.> O = , @ > @ -.;.b.z.=.q.b.S.Z.b.c.c.h.;.  @ O ; i a a a i i i i i t 2 7 2 2 2 2 2 2 1 1 2 2 2 2 2 1 1 1 1 3 > = % O d z.n.z.;.$.O.O.q.$.+.$.;.%. .) ",
"j.$._  .;.> O > 5.p.t.t.m f d f f d d d d d d d d 3 O % = ; a p p a a i ; & & = 1 1 2 2 2 2 2 2 1 2 2 2 2 2 2 1 1 1 1 2 > = % O d ;.j.;.$.O.` ] q.;.$.+.O.+.%.>.",
"0.-.q.z.z.> O , f.}.].{.j O O O O O O O O O . . . O % . o * u p p a a u & = % % 1 ; 2 2 2 2 2 2 2 2 2 2 2 2 2 1 1 1 1 2 > = % O d j.z.j.j.;.h.0.+.;.$.( ^  .%.;.",
"( $.j.b.q.> O , s.'.'.'.c > > = = = % % % > = = = % % % % 1 a p p i i a & % % % 1 1 2 2 2 2 2 2 1 1 1 2 2 1 1 2 3 3 2 1 1 O % O d j.j.j.;.;.%.%.j.Z.n.;.%.0.x.z.",
"Z.j.0.j.n.> O = f.@X{.}.c . X o . % o o o = = % % % % % O ; i a a a a l = O % % 1 1 1 1 1 1 1 1 2 2 1 = % 1 2 1 1 > 1 > > O O X 8 n.b.j.0.;.$.@.%.0.h.O. .;.h.;.",
"j.0.+. .+.0.h.;.3   .   ).3XqXH e h t t t h 7 2 1 7 7 7 1 1 6 6 6 6 1 1 ; 1 1 1 O O o o o o o o %   I %X[.1.  1 X m @X@Xt.O % O d j.b.z.x.j.j.j.h.j.>.$.0.n.Z.b.",
"-.0.h.;.-.;.-.$.d O > = s.&X2XS w y t t t t 7 2 2 2 2 2 2 2 6 6 6 6 1 1 8 1 1 1 % % = = = = = = >   I XX).R   > X m {.{.t.O O   d +.;.;.;.h.;.;.%.$.$.%.;.0.j.q.",
"h.$.` ` +.0.O.~ 3   X   ).5XqXH : h y y t h e 7 2 1 1 1 2 2 7 1 1 1 1 1 $ % % O .           X O >   P XX~.R   > X m XX{.t.X @ . d q.j.j.0.%.+.` %.g.j.Z.F.n.q.j.",
"%.n.z.) ( %.;.) E ..b.n.J D D h 1 2 1 1 1 1 1 = = = = = > 1 1 1 1 1 1 7 <.2.2.2.4.5.5.5.5.4.t.X >   P XX~.R   > X N *X*Xs.O = . d $.`  .;.n.n.h.q.q.;.j.S.8.` -.",
"n.h.0.j.j.%.;.z.b.b.j.0.z X   X O . % % % O % % O % % O % = 1 1 1 1 1 1 [.OX}.XX6X6X6X6X8X6XqX  >   I XX).R   O   B 8X6X~.= @ . d ;.h.j.n.b.;.+. .;.$...0.;. . .",
"$. .@.z.;.W ) j.j.$.^ ^ b , > > > > > > > > > > > > > > % > 3 1 1 1 1 1 s.'.~.f.$X$X&X&X&X$X5X  >   L XXf.R   >   B 5X3Xf.= > . h j.j.j.0.;.;.;.j.Z.x.h.z.n.0.%.",
"+.;.0.q.;.+. .$.h.h.h.h.k.x.x.k.k.x.k.%.%.>.h.%.] O.] ;.j.L > > > > > = D J D J L Y I I I L Y . % X b K J b   % X j Y L Y 2.;.j.F.j.0.;.$.+.q.F.Z.h.;.h.h.O.^ ) ",
"Z.b.j.j.Z.S.j.` ;.;.;.>.7.g.@.%.O.@.@.O.+.h.x.x.M.k.h.k.n.Z.O % % % O .                       O = % X       . % O O     j ;.0.z.j.q.h.j.j.j.z.n.z.%.%.h.0.O. .O.",
"Z.n.Z.Z.n.z.0.;.G.z.>.;.=.g.@.%.` ) ) / ` @.k.M.[ O.`  .;.0., , , , , > , , 3 3 , < 2 2 2 2 2 2 , , , , , , , > , , , > m $.%.j.$.;.;.0.j.j.j.;.%.;.z.j.0.F.G.;.",
"b.n.S.G.Z.q.j.b.z.;.$.%.@.+.@.%.j.$.$.-.;.;.:.b.j.j.,.;.+.`                                                             j %.$.%.+.;.;.+.$.j.j.-.`  .$.$.+.j.z. .",
"z.-._  .q.H.q.( ^  .>.z.0.@.$.>.z.$.$.j.b.;.' [ :.j.n.n.;.%.O.%.+.$.%.;.h.j.j.h.0.` E W O.$.%.$.;.;.;.;.-.;.;.;.0.j.j.0.;.j.h.$.` 0.z.;.0.n.n.;.b.-.j.S.z.q.q.o.",
"S.b.:.-.b.S.Z.z.0.-.0.j.z.j.:.h...' ..;.c.c.b.q.0.h.j.z.q.0.0.q.S.0.;.z.b.;.$.;.;. . .h.x.;. . .0.0.$.( ! +.q.q. .+.-.;.8.;.0.j.0.Z.G.0.+.;.$.` ..8.z.j.;. .` O.",
"q.8.-.&.q.Z.S.Z.8.-.;.b.n.n.b.k.Q.b.;.q.Z.S.b.;.` ( ( ..0.b.b.z.n.j.0.q.0.;.0.Z.Z.0. ._ ! ( +.z.0.-.q.Z.b.8.$.8.+.^ ( -.n.z.0.;.z.n.j.$.$.q.Z.Z.n.b.b.z.q.0.j.Z.",
"r.c.c.0.-.-.0.8.j.0.-.0.n.n.n.N.8.0.8.+.$.q.e.q.n.Z.n.z.h.;.q.z.b.z.;.j.Z.G.n.q.n.n.n.n.x.:.0.j.q.$.| ......0.Z.j. ...n.H.n.0.0.;.j.z.j.j.z.z.j.C.b.b.n.Z.z.j.q.",
"b.S.S.Z.e.0.-.$.b.q.z.j.b.j.j.x.z.H.H.z.0.q.Z.z.z.n.Z.q.+...0.n.0.;.$.-.n.S.z...q.;.+.`  .+.0.j.-.z.Z.Z.Z.H.H.b.q.q.n.H.G.z.j.b.Z.n.q.$...+.z.G.Z.n.n.Z.n.q.$.+.",
",.j.b.n.n.C.b.Z.8.j.Z.W.G.c.;.;.z.e.0.0.z.D.Z.z.0.;.+.` ..0.j.z.0.z.j.-.$.0.n.b.j.n.n.b.j.0.j.j.Z.D.S.q.0.e.b.q.$.j.Z.b.q.0.;.q.j.b.n.z.;.0.b.W.S.n.b.b.j.0.;.j.",
"q.0.;.;.0.0.e.C.-.8.q.j.j.j.j.n.z.z.z.b.Z.G.Z.Z.b.b.z.-.-.j.Z.n.z.n.b.j.j.z.n.z.b.Z.C.-.Q W ..D.S.Z.Z.H.S.0.$.-.q.z.q.;.$.;.$.( ` q.H.W.S.z.q.;.;.0.j.z.q.0.q.b.",
";.;.;.0.-.+.$.0.b.0.-.$.;.:.k.n.j.>.q.h.+.( ^ +.-.z.b.0.;.0.n.F.0.-.$.q.n.Z.;._  .8.Z.H.e. .| 0.H.q.o. ._ _ 8.Z.G.n.z.j.z.z.+._ 0.n.Z.q.;.0.j.;. .$.0.j.q.-.0.q.",
"] +.h.b.n.e.b.Z.S.b.j.b.G.n.j.>.;.` ` ;.k.j.j.j.S.n.b.0.q.j.0.` j.j.j.b.Z.b.j.0.w.6.8.Z.D.e.B.D.C.G.S.e.q.b.Z.Z.Z.z.b.G.H.n.z.z.;.z.b.0.h.b.j.$.n.j.0.;.$.$.q.n.",
"^ ( ` j.z.-.$.C.S.b.b.b.:.*.-.q.m.b.-...-.C.H.D.C.b.8.*.....q.A.S.q.q.b.0.$.8.j.e.q.j.C.b.0.q.b.j.j.j.:.;.;.:.j.r.b.b.C.m.C.b.r.v.j.,.j.;. .$.0.;.:.:.-.:.:.c.b.",
"` +.$.z.G.Z.b.D.b.z.0.+.-.:.b.m.b.b.n.C.Z.S.b.e.n.b.b.b.C.S.S.H.q.0.e.;._ _ q.b.` _ (  .q.S.S.Z.n.n.n.z.j.0.j.j.C.0...-.q.b.q...` -.j.;.` ^ +.z.q.q.q.j.n.b.b.b.",
"v.n.j.;.q.-. . .z.C.b.z.C.W.W.n.b.j.-.-.-.8.z.Z.o.-.;.8.j.Z.b.q.+.q.Z.b.0.;.q.0.q.j.-.$.q.G.D.j.b.Z.b.z.;.8.0.q.G.e.-.-.b.S.Z.b.n.,.+.+.+.$. .` z.j.0.j.z.j.0.+.",
";.j.;.$.-.z.z.C.0.w.z.z.Z.n.z.-.j.z.n.S.Z.j.q.C.b.S.Z.z.C.W.H.b.H.z.q.;.$.z.S.n.H.W.W.n.q.0.;.0.z.z.0.0.0.0.q.z.z.j.q.0.;.q.b.G.+.$.;.q.j.j.n.Q.z.j.;.$.%.%.%.$.",
";.Z.z.$.+.-.;.0.w.0.$.8.0.$.;.q.S.S.S.G.b.8.-.z.-.q.j.-.+.0.q.$.q.+.0.G.Z.j.0.-.;.0.z.b.;. ...;.C.0.8.;.e.Z.Z.Z.z.Z.Z.z.-.$.0.b.F.j.j.Z.n.$.+.j.$.%.;.;.;.;.j.x.",
"E +.-.;.0.0.z.Z.z.0.0.z.n.q.j.Z.n.j.;.+. .` $.0.+.j.b.q.;.0.0.;.b.%.;.0.+.` 0.Z.;.+.%.j.z.;.%.0.j.6.+.$.0.z.n.Z.S.S.n.n.z.q.j.z.;.( ( ;.n.j.;.;.` $.z.z.0.0.0.z.",
"c.S.S.n.j.0.$.0.$.$.;.0.j.j.;.;.[ -.j.e.q.0.$.$...;.q.z.j.0.;.j.0.;.Z.Z.;.$.;.j.Z.j.-.0.j.z.q.0.;.-.;.;.0.q.q.;.j.0.-.;.0.;.;.-. .;.j.0.+.` +.+.| ;.C.n.e.-.-.q.",
"j.b.q.0.0.-.%.z.x.j.@.` +.>.;.+.;.j.;.$.+.0.;.6.;.0.h.j.0.0.h.b.x.z.z.h.+.0.j.0.%.;.O.( ` %.j.0.j.v.S.m.n.j.j.j.h.q.h.-.$.O...+. .8.;. .;.n.n.=...8.b.C.q.8.z.C."
};
