/* XPM */
static char *_376aebbe62644caf79af111d9839de4Y0HKOqtVM7EKG9GI[] = {
/* columns rows colors chars-per-pixel */
"80 80 225 2 ",
"   c #0C0607",
".  c #14080B",
"X  c #170D10",
"o  c #1C0E12",
"O  c #1D1315",
"+  c #1D1718",
"@  c #250F14",
"#  c #221316",
"$  c #231519",
"%  c #2A171B",
"&  c #241A1C",
"*  c #2A1B1D",
"=  c #36181A",
"-  c #271D21",
";  c #2B1E21",
":  c #341F23",
">  c #2D2224",
",  c #2B2527",
"<  c #312326",
"1  c #342529",
"2  c #39252B",
"3  c #332B2B",
"4  c #3B292E",
"5  c #362E31",
"6  c #3B2C31",
"7  c #3B3233",
"8  c #3B3536",
"9  c #43373B",
"0  c #45363A",
"q  c #443A3C",
"w  c #56353C",
"e  c #4A3E41",
"r  c #5C3B42",
"t  c #4A4546",
"y  c #4C4445",
"u  c #524547",
"i  c #524A4B",
"p  c #5A5556",
"a  c #625456",
"s  c #635A5C",
"d  c #685F62",
"f  c #6C6465",
"g  c #6E6468",
"h  c #6F6B6B",
"j  c #736B6D",
"k  c #76696C",
"l  c #776E70",
"z  c #7B7475",
"x  c #85797C",
"c  c #E49A3B",
"v  c #EBA03D",
"b  c #9A855C",
"n  c #9C8664",
"m  c #9C8B66",
"M  c #80807E",
"N  c #A68864",
"B  c #A48C64",
"V  c #A48D6C",
"C  c #AC8E6C",
"Z  c #A4926C",
"A  c #AC936C",
"S  c #AC9A6C",
"D  c #B4986C",
"F  c #AC8E74",
"G  c #B48E74",
"H  c #A69476",
"J  c #AC9574",
"K  c #AC9B74",
"L  c #AC9B7C",
"P  c #B49674",
"I  c #B49B74",
"U  c #BC9C74",
"Y  c #B4967C",
"T  c #B49D7C",
"R  c #BC9D7C",
"E  c #ACA27C",
"W  c #B8A375",
"Q  c #B4A27C",
"!  c #BCA37C",
"~  c #BCAA7C",
"^  c #DA9D4A",
"/  c #CF9E5D",
"(  c #DA9C52",
")  c #E99C40",
"_  c #EFA145",
"`  c #C4A47C",
"'  c #C4AA7C",
"]  c #DBB174",
"[  c #E3AC67",
"{  c #3E779A",
"}  c #467295",
"|  c #447DA9",
" . c #A97F83",
".. c #4782AB",
"X. c #4281AC",
"o. c #5080A9",
"O. c #4789BB",
"+. c #6F97AF",
"@. c #719EBB",
"#. c #6EA0BC",
"$. c #8C8586",
"%. c #8F8B8B",
"&. c #908787",
"*. c #918C8D",
"=. c #989595",
"-. c #9A9494",
";. c #A88389",
":. c #B18083",
">. c #B49E84",
",. c #BC9E84",
"<. c #A39C9C",
"1. c #B4A484",
"2. c #BCA584",
"3. c #BCAA84",
"4. c #B9A78A",
"5. c #BCAC8C",
"6. c #BCB288",
"7. c #A7A5A4",
"8. c #B3A5A7",
"9. c #B3ADAE",
"0. c #B8AFB1",
"q. c #B9B6B5",
"w. c #BDBEBD",
"e. c #C49E84",
"r. c #C9909F",
"t. c #C4A684",
"y. c #C4AB84",
"u. c #CCAD84",
"i. c #C4A68C",
"p. c #C4AD8C",
"a. c #CCAD8C",
"s. c #C4B284",
"d. c #CCB284",
"f. c #C4B38C",
"g. c #CCB38C",
"h. c #CABA8C",
"j. c #D5B68B",
"k. c #C9AE94",
"l. c #C4B494",
"z. c #CCB594",
"x. c #CCBB94",
"c. c #C8B898",
"v. c #CCBB9C",
"b. c #D4B694",
"n. c #D4BB94",
"m. c #D4BD9C",
"M. c #DBBE9A",
"N. c #CA99A5",
"B. c #DB95A4",
"V. c #D29AA6",
"C. c #DB98A7",
"Z. c #D39BA9",
"A. c #E397A8",
"S. c #CDA3AC",
"D. c #D7A3AD",
"F. c #D3ABB4",
"G. c #D9A9B4",
"H. c #C6B9B9",
"J. c #C2BDBD",
"K. c #D6B8BD",
"L. c #E5A2AC",
"P. c #E3A1B1",
"I. c #BDC2BE",
"U. c #D5C296",
"Y. c #D4C29C",
"T. c #D9C499",
"R. c #E1C399",
"E. c #C1C1BF",
"W. c #E3CCA6",
"Q. c #E1D2BA",
"!. c #97B3C7",
"~. c #A9BAC2",
"^. c #E7B9C3",
"/. c #98C4DA",
"(. c #BEC4C1",
"). c #BDC8C2",
"_. c #ADCDD9",
"`. c #99C6E2",
"'. c #C3C4C3",
"]. c #CBC4C4",
"[. c #C3C9C5",
"{. c #CAC9C7",
"}. c #C8CAC9",
"|. c #CCCCCB",
" X c #D7C3C6",
".X c #D3CECD",
"XX c #CFD1CE",
"oX c #D7D5CE",
"OX c #CFD1D0",
"+X c #D2D3D2",
"@X c #DBD5D4",
"#X c #DAD9D6",
"$X c #D7DFDA",
"%X c #DBDCDA",
"&X c #E7C7CD",
"*X c #EECECE",
"=X c #EBCBD1",
"-X c #E4D4D4",
";X c #ECD3D7",
":X c #E4DDDC",
">X c #EBDEDD",
",X c #F4D7D9",
"<X c #D7E0DD",
"1X c #DDE2DE",
"2X c #E8E2CD",
"3X c #E5E2D4",
"4X c #E7E7D4",
"5X c #E2E1DE",
"6X c #EBE1DE",
"7X c #F1E7D5",
"8X c #C0D5E1",
"9X c #E8DEE1",
"0X c #DEE3E1",
"qX c #D9E6E7",
"wX c #CDEAF8",
"eX c #D5EBF6",
"rX c #DDECF3",
"tX c #E4E5E3",
"yX c #EAE4E3",
"uX c #E6E9E6",
"iX c #E7E8E8",
"pX c #ECEAEA",
"aX c #F5E9EB",
"sX c #E7F0F2",
"dX c #F5F5F3",
/* pixels */
"J R 2.R J A J A 2.y.2.Q ! 3.T A K Q 3.3.2.Q f.x.2.2.5.l.5.T 1.p.Q ! Q K A J I 2.f.y.A B Q ~ Q y.T K Q y.! J A R D U ! u.g.g.' ! ' g.d.t.! ! ' ! y.` ! y.j.g.g.y.",
"R T I T ! ! T C J I J A T y.y.2.3.Q K 2.z.n.p.Q Q T 2.p.p.! 2.l.! y.p.a.p.p.p.g.g.x.g.y.y.2.! 3.2.Q ! 2.! T I 2.u.y.` ! ` y.g.x.` 2.! W I I ! ! t.! ! ! ! T I I ",
"! 2.! P P ! p.g.p.g.p.y.y.f.g.p.f.g.l.f.f.f.5.y.2.2.2.y.2.T I ! p.2.R K I ! y.g.T T 2.5.! T 2.T ! Q T ! Q R T P P I R t.! R 2.! t.! ! ! ! ! I ! J I I I J C A I ",
"T ! t.T I 2.g.n.2.a.g.p.2.2.R I I 2.g.! V n B T 2.! ! ! 2.! T Q R ! y.a.g.a.2.T k.T T t.2.z.z.t.Q y.p.y.p.p.t.R R R Y P J T t.z.U J I ! t.I P I ! 2.t.y.2.! 2.a.",
"R T I ! p.g.p.R V P T R R ! ! T f.g.f.p.y.! 2.! Q T T y.p.g.z.z.2.I V V J ! p.g.p.T Y T T 2.2.L K 2.p.t.! t.2.R R R R I P T 2.p.y.! ! t.y.2.! t.! ! 2.2.2.T I I ",
"t.t.T P I R ! T ` 2.t.2.` 2.a.z.y.y.y.p.g.z.y.! a.y.y.y.y.y.2.` 2.t.a.j.b.b.g.p.P J K T A V J C T ! 2.I J I ! ! C I t.p.t.R I A z.y.! T R 2.y.g.p.p.t.p.y.t.R T ",
"p.p.t.P V J 2.a.a.t.t.R R R ! t.y.f.z.z.g.f.g.z.g.g.a.y.! R I I z.u.2.I Y R t.t.y.a.a.a.g.a.y.g.p.f.g.p.y.t.y.i.u.u.y.' y.y.g.g.2.2.T A A I ! 2.P J V A J J A J ",
"y.t.2.! y.a.y.! T U T R R ` 2.t.t.2.I J P T T ! ! ` y.` t.y.u.g.a.y.t.t.! ` ! t.u.y.! U g.g.! t.y.p.f.z.f.t.T P U U y.a.j.g.y.' a.z.b.p.t.p.z.p.k.p.t.2.2.2.i.p.",
"A A P 2.p.g.p.! ! U I D A A A A A A J I 2.y.a.p.I J C V V P I U A T ! R J A J I 2.! R T I P I R J P U R R t.y.a.3.! ' f.g.y.y.g.y.g.j.f.! P I ! ! 2.p.g.a.R I R ",
"t.2.! 2.y.p.y.! p.y.t.2.! 2.y.y.y.y.2.y.p.a.f.y.2.y.p.g.g.u.t.R 2.t.t.! ! t.a.g.2.! ! R I C n n C P T R R T P A y.! I R 3.y.y.y.I I P R y.g.g.g.p.p.a.p.y.a.p.a.",
"2.R I I R ! 2.t.V V C A Y ! p.a.l.f.p.y.y.2.! 2.Z J I R p.a.a.a.U ! ! y.y.y.2.! R T 2.p.g.g.y.t.R t.y.a.y.t.! R ! R J A D R ! ! J I ! ! I I R ! P P J C A T t.! ",
"t.! 2.R 2.t.p.a.b.z.z.k.z.z.v.b.b.z.b.g.p.y.y.y.x.g.3.! T T R R T 2.y.a.g.a.t.! ! P J I 2.! T I a.y.2.t.t.p.y.t.R t.u.I C P 2.a.! J V I g.M.z.! e.t.` T ! z.x.z.",
"z.g.z.p.y.2.! ! T ,.T ,.! ,.R >.2.y.p.y.y.2.p.p.y.p.p.g.g.g.a.y.! ! 2.! ! y.g.n.m.b.g.g.z.p.y.5 + > I J J P J A T y.a.R C A U I T X < O T J P T ` a.a.t.g.m.m.g.",
"g.z.g.g.t.R Y I J P T T ! 2.2.! I I Q 2.! 2.y.p.Y.m.x.z.f.2.K A R R ! T U T ! y.t.t.y.p.a.2.t.8 > 1 p.a.z.z.g.p.t.t.2.R R R P J P % 1 & t.y.2.T I R ! T R ! ! I ",
"y.p.g.p.t.2.y.p.g.g.g.g.p.t.! R p.p.a.g.z.z.z.n.x.x.f.f.g.z.b.z.y.a.g.b.g.y.t.! p.p.a.y.T A I 7 * > A T ! y.! T p.p.y.k.z.f.p.p.2.# 1 $ T Y R y.p.g.p.p.t.! T I ",
"J P I I I I 2.a.2.` y.y.u.y.d.g.z.n.z.x.n.n.n.n.x.z.f.g.z.g.z.z.b.g.p.g.g.z.g.u.p.a.p.2.A C T u q e 2.t.f.g.p.! V V L 2.2.T 2.z.J 7 t 8 J ,.2.p.f.p.y.2.I C C G ",
"Q 3.l.l.f.6.g.Y.g.~ ! ! ! ! ! ` T ! p.p.2.T J J ! ! 2.I A A I ! ~ 3.' ! R P F C J ! y.1 3 1 7 .X:X#Xu ; 2 * y.' y.d.g.d.3.3.$ * g 9X@XtX9.> < n.d.! I ! p.p.I m ",
"f.f.g.x.x.m.m.m.T.n.g.2.R U t.g.p.p.y.2.2.2.y.p.T ! y.y.y.3.y.3.y.3.2.Q T R ,.e.a.p.p.1 < > 3 .X:X%Xy * 1 % g.3.~ y.g.g.z.x.O * k yX%XpX9.& * ! W y.y.p.p.p.g.U.",
"T ! 2.! 2.! ! Q J J J J J J P T 2.! L C n b n n 2.! L J J I ! 2.3.y.y.g.a.a.t.R ! 2.3.7 4 3 0  X;X;Xu % < % V b U I U I J A > > k aX=X,XH.* ; n.d.g.g.p.2.T K K ",
"p.a.g.a.` T R ! i.2.t.p.a.p.R J I R 2.2.y.p.2.T J P T 2.2.T V n I T 2.a.a.! R P 1 8 3 ]..XoX XF.S.S.w * < < 3 7 7 7 7 7 > z %X.X XS.S.F.;.% * y.y.! J V V J Q 3.",
"R R R I P C V C T T T T ,.,.,.T J K 2.2.p.g.y.2.p.! P T 2.p.a.z.Q R ! y.p.t.y.a.& > & tXtX5X>XD.C.C.w % > < > > > ; ; > O z dXyX*XZ.Z.D.;.= ; A B A ! 2.2.2.l.Y.",
"a.2.R ! p.p.` I V R a.p.! T 2.p.g.p.y.T ! p.5.! J J T a.m.z.p.2.2.! 2.y.p.! ! ! ; > , @X:X#X;XD.A.A.w % * > < < < < < < & x aX>X&XV.A.P.;.= ; T R ! p.z.l.p.2.Q ",
"t.2.! t.p.a.p.2.P y.g.t.I A Z A Q T J V J 2.p.2.2.J J T T T R 2.J F J 2.! P A A % 1 ; ;X,X,X,XC.A.A.r * < 1 , , , , , 3 # x aX,X^.B.A.L.:.= * T g.! A V >.p.p.5.",
"A T y.2.I P Q ' e.U A A I y.y.y.2.i.! T R y.! J i.T >.p.p.2.T T R J P ! t.t.y.n.% 1 ; S.G.G.G.A.A.B.K.J.].].].].].].].].].F.F.G.D.B.A.L. .= * 2.A K 2.4.p.5.2.1.",
"p.! J T p.g.p.2.! T I K T ! l.m.p.p.p.p.2.1.2.2.y.2.! 3.5.3.5.f.f.3.p.m.x.3.Q g.& 1 * N.C.C.B.A.A.A.;X6X5XtXtXtXiXiXuXtXaX^.r.B.A.A.A.L.:.= * T Q Q Q Q Q 3.Q J ",
"z.p.2.! 2.T I J Q T J C V V T y.y.T A V n n V J 2.y.f.z.n.x.x.c.! J Z ! 3.2.2.y.X & # N.Z.Z.Z.Z.V.Z.@X1X<X<X1X1X1X1X1X1X9X&XD.V.V.V.V.G. .@ # g.f.f.y.p.p.f.f.g.",
"V J T 2.Q 2.y.p.t.2.! T I T y.v.p.T V V K 2.y.f.T ! T T 1.f.f.3.2.Q 2.f.g.p.y.g 9.0.8.&X=X*X*X*X*X*X:X1X<X<X1X1X1X1X1XtX:X-X&X&X&X&X&X=X X8.0.<.y.R I T I J P T ",
"T t.p.p.t.2.p.g.m.z.f.p.2.Q 2.p.z.p.Q 2.y.p.3.i.y.p.y.! p.x.z.3.A ! y.2.. ; X y aXpXpX5X5X6X6X6X>X6X5X<X<X<X1X1X1X1X1X0X1X5XyX>X5X5XyX>XyXpXdX|.& O O 2.t.I J I ",
"V J I Q 2.y.p.z.p.p.y.p.g.k.p.g.p.2.y.p.p.p.2.2.! 5.y.3.p.b.y.J T t.y.T & 1 & i tX%X5X1X1X1X1X1X1X1X1X<X<X<X1X1X1X1X1X1X0X0X1X5X1X1X$X$X$X%XtX].> < > ! p.2.! 2.",
"p.t.2.2.2.T J C V n n J ! 2.2.2.! Q 2.p.f.g.z.m.x.z.p.t.y.g.z.y.y.p.g.g.$ 1 & u yX1X1X1X1X1X1X1X1X5X5X1X1X1X1X1X1X1X1X1X0X1X1X1X1X1X1X0X0X0XiX].> < ; a.g.z.z.n.",
"2.y.p.z.n.m.z.p.g.p.2.p.p.p.y.2.p.p.2.2.2.2.2.y.f.y.T J J I R R C J I t.$ 1 * u yX1X1X1X1X5X1X1X1X1X5X5X1X1X1X1X1X1X1X1X1X1X1X1X1X1X1X1X0X0XiX].> < ; Q Q ! Q 2.",
"2.2.p.z.n.z.t.T F B V J T 2.t.p.p.p.3.p.p.p.p.z.p.p.g.z.g.R P A C C P P $ 1 * u yX1X1X5X5X5X1X1X1X1X1X5X1X1X<X<X1X1X1X1X1X0X0X0X0X1X1X1X0X0XiX].> < ; f.p.p.f.f.",
"V J ! y.p.y.p.p.~ y.y.' y.s.g.g.! t.t.t.R I P A V A K T ! 3.p.p.2.K m J $ 1 * u yX1X1X1X1X1X5X1X1X1X3X7X7X2X4X1X1X1X1X1X1X1X1X0XqXrXrXrXuXtXtX{.> < * 2.y.2.Q B ",
"t.! Q R Q y.p.g.b.x.n.g.g.g.3.! I J A A R 2.2.! y.f.z.n.z.f.p.y.f.y.2.y.$ 1 * u yX%X1X1X1X1X5X5X1X1XW.M.R.Y.Q.#X1X1X1X1X1X1X1XuX8X!.!.!.~.qXtX].> < * J ! y.x.p.",
"p.! A V A I T Q A J A J T y.y.y.a.y.R T T R I T 3.p.g.y.3.! ! 2.g.g.p.p.$ 1 * u yX%X1X1X1X1X1X1X1X0X] ( ( / W.3X1X1X1X1X1X1X1XrX!.} o.} +.wXtX{.> < ; f.z.3.2.A ",
"m.f.t.2.3.p.y.2.a.g.z.g.z.n.n.x.p.z.z.p.! I T ! ! ! 2.! T Q y.f.2.2.I T $ 1 * u iX1X1X1X1X1X1X1X1X%X[ ) _ ( W.4X1X1X1X1X0X1X1XrX`...O.| @.wXtX{.> < * 2.Q I 2.! ",
"y.y.3.y.y.2.! T V I t.! T A V V y.p.a.y.T J I Q 2.! 2.Q Q ! p.g.z.g.y.p.$ 1 & i iX1X1X1X1X1X1X1X1X1X[ c ) ( W.3X1X1X1X1X0X0X0XeX`.X.O.X.@.wXiX].> < ; x.a.T I J ",
"p.p.a.p.p.y.p.y.T p.p.5.! 2.a.z.g.2.I K T ! ! Q 2.3.y.3.2.! Q T 2.y.2.I $ 1 & i iX1X1X1X1X1X1X1X1X1X[ c v ( W.2X1X1X1X1X0X0X1XeX/.X.O.X.@.wXiX].> < ; 3.I V Q y.",
"! ! ! ! ! T T I 2.! R J n V T 2.! K A I p.x.n.z.y.p.p.g.f.p.2.! a.z.a.! $ 1 * i iX1X1X1X1X1X1X1X1X%X[ c v ( W.2X1X1X1X1X1X1X1XrX/...O.X.#.wXiX].> < ; g.z.3.p.y.",
"y.3.p.p.p.y.2.R 2.p.z.p.p.p.y.p.p.p.p.5.p.p.3.3.! Q T ! y.y.y.2.R R C J   & X y dXpXiXtXtXtXtX1X1X1X[ ^ ^ / W.3X5XtX5X5X5X:X:XrX/.{ ..{ +.wXiXJ.1 < ; 3.p.3.y.2.",
"x.3.I K J m Z 1.! p.T n N Q p.p.1.T K I T K L J Z K 2.5.3.K H Z B Z K Q ! 3.f.j 9.9.7.+X$X+X#XtXtX1XU.] ] j.Q.5X5X-X&X&X&X-X:XqX_.+.@.@.!.eXiXJ.1 < ; ! ! y.p.y.",
"! ! f.z.g.p.4.2.p.t.2.p.p.2.T p.a.p.2.2.2.2.! 2.p.f.p.y.3.p.g.f.p.f.f.p.p.3.p.p.O * + w.'.I.[.1X1X1X2X2X2X2X3X5X:XK.Z.V.S.K.6X0XqXeXeXeXrXqXiX].1 < ; n.n.a.2.! ",
"p.p.y.2.1.p.g.z.K J A ! 2.J V 2.2.p.z.y.K J 2.z.g.3.Q J J K Q Q f.z.n.m.x.y.Q K & 1 , w.'.'.'.%X1X0X$X<X1X5X1X1XyX^.C.A.V.K.yX<X1X<XqXqX$X$XiX]., > ; y.2.2.! 2.",
"g.z.b.z.g.z.p.p.t.f.z.p.z.n.n.n.m.z.p.p.z.z.z.p.p.f.p.f.g.x.m.n.z.g.p.p.3.y.p.g.$ * & E.'.'.'.1X0X1X1X1X1X1X1X1XyX^.Z.C.Z.K.6X1X1X1X1XtXtXtXpX].; & $ I I I t.p.",
"T J T 2.Q J J I J p.p.R 2.p.p.T T T I T I T T R I 2.g.p.y.p.y.3.y.p.g.x.n.x.g.f.q y q J.{.'.'.1X0X1X1X1X1X1X1X1X:X XF.G.F. XyX1X1X1XtXtX%X]..X9.i i y y.f.a.y.3.",
"z.2.2.y.2.P I y.J T I J T T T t.! t.p.y.2.R ! p.! p.g.a.3.t.3.2.! O 1 ; ; * # y 5X%XtX{.E.'.'.1X5X1X1X1X1X1X1X1X5XyX-X>X9XtX:X1X1X1X1XuX0.& % y p.y.p.g.z.s.y.W ",
"Y Y 2.p.y.T A A 2.T Z J I J T z.m.T V C p.z.2.N V I T T ! y.g.p.g.O > > < ; $ t tX1X0X[.[.(.'.$X1X0X1X1X0X0X0X0XtXtXtXtX0X1X1X1X1X1X%XpXq.& * t p.p.2.! ! ` ! ' ",
"P Y P C J ! a.g.y.z.z.p.z.p.t.p.y.p.t.R I P T R 2.p.t.R T 2.2.I =.3 7 8 0 7 3 p tX$X1X(.[.I.[.$X1X$X<X<X$X$X$X$X:X%X%X$X$X$X$X1X+X+X.X@X9.7 6 p ! ! t.2.! y.y.g.",
"Q Q 3.l.z.f.f.f.> 7 5 5 5 5 t p.W 3.f.x.z.f.s.s.t.! ! 3.t.! 8 > z %X+X#X#X+X$X#XiX1X0X).[.'.(.[.'.[.[.[.[.[.[.[.{.{.{.[.[.[.[.|.*., 7 1 ! T P P 3.T I T ! R J C ",
"y.T Z J ! 3.p.3.O ; > > > > 5 2.~ Q I p.v.T.x.y.Q t.p.g.y.! 1 O h sX0XtXtX1X1XtX5X$X<X(.[.'.'.(.(.(.(.(.(.(.(.(.'.].'.'.'.I.I.|.$.O ; $ T P A D 3.! T I P I R ` ",
"2.Q 3.p.p.3.p.p.& > < ; ; * 3 t.! y.z.f.2.T W Q y.y.g.y.2.Q 1 # l pX$X0X0X0X0X0XiXtX0X[.E.'.'.'.'.'.'.'.'.'.'.'.'.'.(.(.'.'.'.|.%.% 1 # y.! t.2.I ! T V B J R ! ",
"V T y.f.3.! Q ! $ > ; 4 1 1 8 R y.3.3.p.p.p.y.y.! ! I A V B 1 $ l aX%X0X0X0XtX0X+X#X#X'.'.'.'.'.'.'.[.[.[.[.[.'.'.(.(.(.(.I.'.|.%.% 1 # ! ! R R y.z.g.! R 2.a.p.",
"z.y.2.y.g.x.x.z.$ : e  X].{.J.y q q q q q q 9 9 9 9 9 9 q 1 1 # l pX$X0X0XtXyXJ.8 8 7 w.[.'.(.(.(.'.'.'.'.'.'.'.(.).).).(.(.(.|.%.% 1 # 2.! T U R 2.t.P J ! t.! ",
"y.2.I J I 2.t.! & * u :X%X%X.X5 4 1 1 1 1 1 1 1 1 1 < ; 1 1 1 $ l pX$X0X0XtXiXq.> 1 ; J.[.(.(.(.'.'.'.'.'.'.(.I.I.'.(.I.I.[.I.|.%.% 1 # a.y.y.y.t.y.` T 2.g.z.f.",
"Q 2.t.! Q ! Q T O O q yXtXiX@X1 * & & & & & & & & & ; > ; > * O j dX1X0X0XtXpXw.& - * J.|.|.|.|.|.|.|.|.|.|.[.'.[.'.{.|.|.'.(.|.*.& 1 % ! t.! ! R T T R ! 2.y.3.",
"t.T A A I 2.P N n y.3.y u i p 9.0.q.q.q.q.q.q.q.q.7.7.7.7.7.<.=.0.+X}.|.|.|.}.'.7.=.7.u y y y t t t y y i e 7.{.{.x q u q M XX|.*.& 1 % 2.R I A R e.y.z.b.g.3.y.",
"R g.p.C V R ! C b K f.* > & 1 @XpXuXuXuXuXpXpXpXpX+X|.|.}.|.{.{.|.'.(.(.(.(.(.[.}.|..X> & & & & & & & & ; O =..X.Xg X ; O h XX|.*.& 1 % ! g.g.t.3.3.! y.x.1.A Q ",
"g.t.2.y.y.R ! p.f.f.y.> 1 ; 8 .X#X#X#X#X#X#X#X#X#X[.I.'.w.'.w.'.'.'.[.'.'.'.'.'.'.'.].5 , < < < < < < > 1 * =..X.Xg % 3 & j XX|.%.$ 1 # g.f.! I J ! T K 2.! J J ",
"T J U p.! n C y.y.T B + O O , %XpXpXpXpXpXpXpXpXpX#X|.{.|.|.|.|.|.'.'.'.'.'.'.'.'.[.[.& + & & & & & ; > < & =.|..Xf $ 1 & h |.[.$.# < O 2.! ! ! y.z.a.t.p.g.2.R ",
"I ! 2.3.! I J T t.t.t.t.u.a.a.g d g g g g g g g f s s s s s p p $.|.'.'.[.[.'.'.'.'.[.%.%.*.%.*.*.*.0 * < & =.|..Xg $ 3 & j XX|.$.$ < O T I 3.b.z.t.! t.t.P B C ",
"z.f.y.y.z.x.y.A ! ! ! ` ,.e.U 0 1 1 1 1 1 1 1 1 1 1 1 1 1 2 1 > f {.w.(.(.(.(.(.(.(.(.(.I.I.I.I.I.I.y & ; $ *.|.{.f $ 1 O j |.].$.> 7 & y.y.p.g.p.R R t.2.P J P ",
"z.g.z.z.g.p.2.! n.p.` ! W e.U - X X X X O X o o o o o o o o o . s 9X|.OX+X+X+X+X+X+X+X+X+XOXOXOXOX|.y * < & <.%X:Xk % 2 # z tX:X&.  O   y.y.y.! R ! p.y.2.b.n.! ",
"f.g.x.n.z.3.y.f.p.! T R U I U R y.T T Q ! ! ~ f.y.y.' ! I A B N $.g l j j j j j j j j j j h h h h h 7 ; > ; a l j w % 2 * y j k x <.=.=.T y.y.Q A J T T I y.p.J ",
"p.Q Z J 3.m.3.V B J ` p.2.U T ` p.T T y.f.! S D ~ y.g.g.! R P R I   + O # # # # $ $ $ $ O O O O O O ; > ; ; % # # : 2 : : % # . j 2.p.! 2.g.g.! f.Q y.x.p.3.3.L ",
"x.f.~ Q f.x.z.p.2.Q 2.y.p.y.~ t.K S K ! s.s.f.3.2.t.y.p.3.2.2.3.x.> 7 6 6 6 6 6 6 6 4 4 4 4 4 4 4 2 1 1 4 4 4 4 2 4 2 2 2 1 4 ; x z.n.2.I ! T A K 1.p.y.! J A P ",
"3.1.Q E 3.z.x.z.1.Q ! f.g.g.f.u.U.f.! 3.z.x.f.! A V V K 2.f.f.p.g.. + $ $ $ $ $ $ $ # # # # # # # $ $ # % % % % $ % $ $ $ # %   j g.y.T T 3.z.z.g.f.f.p.3.2.y.z.",
"6.s.s.2.Q Q 2.1.y.2.Q 2.g.g.g.j.1.2.1.I T 3.5.3.g.z.g.p.t.! 3.p.f.p.! y.z.n.g.3.g.g.g.g.a.~ 2.y.3.T H K K K 2.z.y.J K g.m.g.2.2.! y.p.y.y.p.p.y.l.f.f.g.z.p.y.3.",
"f.x.x.z.5.2.Q T f.3.p.y.f.y.y.a.p.m.m.p.2.3.z.p.p.g.z.3.I K 2.g.2.! T Q g.x.p.K 3.! I A J I 2.y.Q p.z.z.z.m.m.f.3.3.g.m.n.p.y.f.z.g.3.T K I p.n.z.g.g.z.g.3.T I ",
"' y.f.g.g.l.f.z.1.y.z.Y.n.s.! ! p.5.2.2.p.v.z.p.2.! I A K 2.y.p.2.p.y.Q T 2.g.f.y.g.g.f.y.2.y.y.z.v.x.3.2.5.f.3.T y.z.f.3.2.! 3.y.f.g.p.! 2.f.Y.x.g.f.f.y.2.! y.",
"3.2.! ! 2.2.5.l.Q 1.3.y.y.y.y.g.p.p.p.f.z.n.z.z.f.f.p.Q Q y.z.g.p.g.f.y.y.p.g.p.f.z.l.Q m n K v.x.z.z.m.x.2.T Q 3.p.3.! T ! T V A 3.m.Y.x.p.3.! ! 2.y.p.3.2.3.f.",
"! ! ! 2.Q I T 2.f.2.Q T ! ~ u.g.y.` 3.t.I V B I Q p.f.2.! 2.g.b.2.Q T 3.g.z.! Z J 1.z.m.5.J H 2.m.3.L J Z Z 1.z.n.g.p.y.p.p.I Z 2.g.z.3.! 2.y.! J T 2.y.3.Q 2.3.",
"D I t.f.g.5.f.z.x.f.y.f.n.g.y.` ! A A ! u.y.y.y.x.g.f.2.3.y.2.A y.y.y.f.z.f.y.2.4.>.4.z.v.5.k.v.l.n.x.5.3.f.z.z.z.p.f.n.m.g.p.p.! p.f.2.t.f.y.T g.y.2.! T T 3.g.",
"B V A y.p.Q T l.x.f.f.f.~ W Q 3.h.f.Q K Q l.m.v.l.f.1.W K K 3.c.x.3.3.f.2.T 1.y.5.3.y.l.f.2.3.f.y.y.y.~ ! ! ~ y.6.f.f.l.h.l.f.6.d.y.' y.! J T 2.! ~ ~ Q ~ ~ s.f.",
"A I T p.n.z.f.v.f.p.2.I Q ~ f.h.f.f.g.l.z.x.f.5.g.f.f.f.l.x.x.m.3.2.5.! Z Z 3.f.A Z V J 3.x.x.z.g.g.g.p.y.2.y.y.l.2.K Q 3.f.3.K A Q y.! A B I p.3.3.3.y.g.f.f.f.",
"d.g.y.! 3.Q J J p.l.f.p.l.Y.Y.g.f.y.Q Q Q 1.p.z.L Q ! 1.y.z.f.3.I 3.z.f.2.! 3.2.3.y.Q T 3.n.v.y.f.z.f.p.! 1.2.3.n.5.Q Q f.x.z.f.g.' I I I T J A p.y.2.y.p.y.2.I ",
"! y.! T Q p.p.l.2.4.p.p.z.g.p.Q y.p.g.x.z.y.3.l.f.x.z.p.l.Y.m.f.m.p.3.! T p.x.g.m.Y.Y.g.3.2.! 2.p.p.2.2.2.2.3.p.p.y.3.2.! 3.f.n.I T ! 3.y.y.g.T.p.y.! T R R R T ",
"! z.p.T I Q ! 2.4.2.T 1.2.T ! 3.x.x.x.n.f.1.Q p.Q 3.y.Q I 2.3.T 3.I 2.n.z.y.2.Q ! 2.p.f.! J K ! l.2.1.! 5.z.z.z.p.z.z.p.Q T 2.f.b.y.y.z.g.T I y.T R ! ! ! ! y.a.",
"b I Q ! 2.2.p.z.p.2.2.p.g.3.y.z.g.y.! I J A T 2.I y.f.3.! 2.2.! f.R ! 2.I A 2.z.! I R y.p.! R 2.y.>.I T 2.p.g.z.x.x.g.g.p.3.y.p.! V V ! g.y.! ! A T p.p.2.2.2.p.",
"s.x.x.g.y.2.T 2.T T ! 2.y.y.! ! D Q y.5.3.2.T T K ! 3.p.y.2.! y.2.! z.z.! T ! y.z.y.Q 2.y.p.3.2.! Q ! ! 2.3.3.! y.2.Q ! 2.! ! Q J ! y.2.I A I I H ! l.g.5.Q Q 3.",
"y.f.3.2.2.Q R p.a.y.U A I ` ! I ! y.! T I 2.! >.! 2.t.y.2.2.t.f.a.p.p.t.I 2.y.2.R ! P V A R y.2.y.d.x.h.g.y.y.y.t.3.t.Q T P K I J 1.! J ! g.g.W K 1.f.l.3.1.p.l."
};
