/* XPM */
static char *_c021359f4ec47a1a0f150a264d61167cOpQf1blnQWw6J2t[] = {
/* columns rows colors chars-per-pixel */
"80 80 225 2 ",
"   c #0B0203",
".  c #0C0507",
"X  c #14070A",
"o  c #130B0C",
"O  c #1C100E",
"+  c #180E11",
"@  c #1E1215",
"#  c #1B1415",
"$  c #210F11",
"%  c #211215",
"&  c #2C1917",
"*  c #24161A",
"=  c #241A1C",
"-  c #2A1B1D",
";  c #361B17",
":  c #321D1D",
">  c #2B201C",
",  c #32211E",
"<  c #39211C",
"1  c #2D1E21",
"2  c #321E23",
"3  c #2D2223",
"4  c #2C2528",
"5  c #332224",
"6  c #3B2424",
"7  c #342529",
"8  c #3B2728",
"9  c #342A2B",
"0  c #3C2A2D",
"q  c #3B2D30",
"w  c #3C3334",
"e  c #43241E",
"r  c #482B27",
"t  c #432C2C",
"y  c #512E25",
"u  c #45312E",
"i  c #4D322D",
"p  c #53342C",
"a  c #5A372B",
"s  c #422F31",
"d  c #453333",
"f  c #4C3433",
"g  c #4C3934",
"h  c #423738",
"j  c #4E3738",
"k  c #433A3A",
"l  c #4A3B3B",
"z  c #513433",
"x  c #563935",
"c  c #533B3A",
"v  c #613B2C",
"b  c #54413C",
"n  c #6C4535",
"m  c #67473A",
"M  c #774D3A",
"N  c #734D3C",
"B  c #76523F",
"V  c #7C513D",
"C  c #493F41",
"Z  c #4C4446",
"A  c #534546",
"S  c #5E5255",
"D  c #595856",
"F  c #5D595A",
"G  c #674945",
"H  c #6C4C43",
"J  c #714E42",
"K  c #6C5248",
"L  c #755244",
"P  c #7C5443",
"I  c #73534A",
"U  c #7B5549",
"Y  c #73594D",
"T  c #7C5A4C",
"R  c #625C5C",
"E  c #735C54",
"W  c #7B5B52",
"Q  c #7E6358",
"!  c #696464",
"~  c #746867",
"^  c #7D756D",
"/  c #7F7A75",
"(  c #804E3B",
")  c #80533C",
"_  c #815543",
"`  c #82594A",
"'  c #815950",
"]  c #806459",
"[  c #8C7469",
"{  c #907267",
"}  c #847A79",
"|  c #9C865C",
" . c #9C8664",
".. c #9C8B68",
"X. c #84807F",
"o. c #9B8475",
"O. c #9D867B",
"+. c #A48C64",
"@. c #A88A64",
"#. c #A48D6C",
"$. c #AC8E6C",
"%. c #A4926C",
"&. c #AC936C",
"*. c #AC9A6C",
"=. c #B4986C",
"-. c #A98C78",
";. c #B48E74",
":. c #A69476",
">. c #AC9574",
",. c #AC9B74",
"<. c #AC9B7C",
"1. c #B49574",
"2. c #B49B74",
"3. c #BC9C74",
"4. c #B4967C",
"5. c #B49D7C",
"6. c #BC9E7C",
"7. c #ACA27C",
"8. c #B4A476",
"9. c #BCA374",
"0. c #B4A27C",
"q. c #BCA37C",
"w. c #BCAA7C",
"e. c #C4A47C",
"r. c #C4AA7C",
"t. c #868281",
"y. c #8C8483",
"u. c #8F8A8A",
"i. c #928687",
"p. c #918D8D",
"a. c #97928E",
"s. c #9A8E93",
"d. c #999695",
"f. c #A59289",
"g. c #B49E84",
"h. c #BC9E84",
"j. c #B19A8D",
"k. c #A19B9B",
"l. c #B4A484",
"z. c #BCA584",
"x. c #BCAA84",
"c. c #B9A78A",
"v. c #BCAC8C",
"b. c #BCB288",
"n. c #B0A298",
"m. c #A79FA2",
"M. c #A4A1A1",
"N. c #ADAEAB",
"B. c #BFA9A1",
"V. c #B4B2B0",
"C. c #BEBEBC",
"Z. c #C49E84",
"A. c #C4A684",
"S. c #C4AB84",
"D. c #CCAD84",
"F. c #C4A68C",
"G. c #C4AD8C",
"H. c #CCAE8C",
"J. c #C4B284",
"K. c #CCB384",
"L. c #C4B28C",
"P. c #CCB38C",
"I. c #CABA8C",
"U. c #D4B78C",
"Y. c #C9AE94",
"T. c #C4B494",
"R. c #CCB594",
"E. c #C7B897",
"W. c #CCBB94",
"Q. c #CCBB9C",
"!. c #D4B694",
"~. c #D4BA94",
"^. c #D4BB94",
"/. c #D4BD9C",
"(. c #DCBE9C",
"). c #CBB5AA",
"_. c #C3BFBD",
"`. c #BDC2BF",
"'. c #CCC29C",
"]. c #D4C29C",
"[. c #D9C499",
"{. c #C1C1BE",
"}. c #C9C0BC",
"|. c #BBBFC2",
" X c #C2BFC0",
".X c #BFC4C1",
"XX c #C2C4C3",
"oX c #CBC3C3",
"OX c #C5C8C6",
"+X c #CCC9C7",
"@X c #C7C7C9",
"#X c #CBCCCC",
"$X c #D2CDCB",
"%X c #D9CECB",
"&X c #DAD2CC",
"*X c #D1D0D0",
"=X c #D3D5D4",
"-X c #D5DBD5",
";X c #D7D9D7",
":X c #DCDDD6",
">X c #DCDDDA",
",X c #E3D2C6",
"<X c #E4D4CB",
"1X c #E3DBD6",
"2X c #EADCD7",
"3X c #E3DEDB",
"4X c #DEE2DE",
"5X c #E2E2DD",
"6X c #EDE2DC",
"7X c #F1E6DE",
"8X c #F3E9DE",
"9X c #E3DFE1",
"0X c #DEE2E0",
"qX c #E2E5E2",
"wX c #E9E6E4",
"eX c #E6E9E5",
"rX c #EBEBE4",
"tX c #E7ECE8",
"yX c #ECEEEB",
"uX c #F1EAE4",
"iX c #F8ECE3",
"pX c #F0EDEC",
"aX c #EEF2EE",
"sX c #F8F3ED",
"dX c #FEFBF8",
/* pixels */
">.6.z.6.>.&.>.&.z.S.z.0.q.x.5.&.,.0.x.x.z.0.L.W.z.z.v.T.v.5.l.G.0.q.0.,.&.>.2.z.L.S.&.+.0.w.0.S.5.,.0.S.q.>.&.6.=.3.q.D.P.P.r.q.r.P.K.A.q.q.r.q.S.e.q.S.U.P.P.S.",
"6.5.2.5.q.q.5.$.>.2.>.&.5.S.S.z.x.0.,.z.R.~.G.0.0.5.z.G.G.q.z.T.q.S.G.H.G.G.G.P.P.W.P.S.S.z.q.x.z.0.q.z.q.5.2.z.D.S.e.q.e.S.P.W.e.z.q.9.2.2.q.q.A.q.q.q.q.5.2.2.",
"q.z.q.1.1.q.G.P.G.P.G.S.S.L.P.G.L.P.T.L.L.L.v.S.z.z.z.S.z.5.2.q.G.z.6.,.2.q.S.P.5.5.z.v.q.5.z.5.q.0.5.q.0.6.5.1.1.2.6.A.q.6.z.q.A.q.q.q.q.q.2.q.>.2.2.2.>.@.&.2.",
"5.q.A.5.2.z.P.~.z.H.P.G.z.z.6.2.2.z.P.q.#. .+.5.z.q.q.q.z.q.5.0.6.q.S.H.P.H.z.5.Y.5.5.A.z.R.R.A.0.S.G.S.G.G.A.6.6.6.4.1.>.5.A.R.3.>.2.q.A.2.1.2.q.z.A.S.z.q.z.H.",
"6.5.2.q.G.P.G.6.#.1.5.6.6.q.q.5.L.P.L.G.S.q.z.q.0.5.5.S.G.P.R.R.z.2.#.#.>.q.G.P.G.5.4.5.5.z.z.<.,.z.G.A.q.A.z.6.6.6.6.2.1.5.z.G.S.q.q.A.S.z.q.A.q.q.z.z.z.5.2.2.",
"A.A.5.1.2.6.q.5.e.z.A.z.e.z.H.R.S.S.S.G.P.R.S.q.H.S.S.S.S.S.z.e.z.A.H.U.!.!.P.G.1.>.,.5.&.#.>.$.5.q.z.2.>.2.q.q.$.2.A.G.A.6.2.&.R.S.q.5.6.z.S.P.G.G.A.G.S.A.6.5.",
"G.G.A.1.#.>.z.H.H.A.A.6.6.6.q.A.S.L.R.R.P.L.P.R.P.P.H.S.q.6.2.2.R.D.z.2.4.6.A.A.S.H.H.H.P.H.S.P.G.L.P.G.S.A.S.F.D.D.S.r.S.S.P.P.z.z.5.&.&.2.q.z.1.>.#.&.>.>.&.>.",
"S.A.z.q.S.H.S.q.5.3.5.6.6.e.z.A.A.z.2.>.1.5.5.q.q.e.S.e.A.S.D.P.H.S.A.A.q.e.q.A.D.S.q.3.P.P.q.A.S.G.L.R.L.A.5.1.3.3.S.H.U.P.S.r.H.R.!.G.A.G.R.G.Y.G.A.z.z.z.F.G.",
"&.&.1.z.G.P.G.q.q.3.2.=.&.&.&.&.&.&.>.2.z.S.H.G.2.>.$.#.#.1.2.3.&.5.q.6.>.&.>.2.z.q.6.5.2.1.2.6.>.1.3.6.6.A.S.H.x.q.r.L.P.S.S.P.S.P.U.L.q.1.2.q.q.z.G.P.H.6.2.6.",
"A.z.q.z.S.G.S.q.G.S.A.z.q.z.S.S.S.S.z.S.G.H.L.S.z.S.G.P.P.D.A.6.z.A.A.q.q.A.H.P.z.q.q.6.2.$. . .$.1.5.6.6.5.1.&.S.q.2.6.x.S.S.S.2.2.1.6.S.P.P.P.G.G.H.G.S.H.G.H.",
"z.6.2.2.6.q.z.A.#.#.$.&.4.q.G.H.T.L.G.S.S.z.q.z.%.>.2.6.G.H.H.H.3.q.q.S.S.S.z.q.6.5.z.G.P.P.S.A.6.A.S.H.S.A.q.6.q.6.>.&.=.6.q.q.>.2.q.q.2.2.6.q.1.1.>.$.&.5.A.q.",
"A.q.z.6.z.A.G.H.!.R.R.Y.R.R.Q.!.!.R.!.P.G.S.S.S.W.P.x.q.5.5.6.6.5.z.S.H.P.H.A.q.q.1.>.  @ o 5.2.H.S.z.A.A.G.S.A.6.A.D.2.$.S     q.>.#.2.P.(.R.q.Z.A.e.5.q.R.W.R.",
"R.P.R.G.S.z.q.q.5.h.5.h.q.h.6.g.z.S.G.S.S.z.G.G.S.G.G.P.P.P.H.S.q.q.z.q.q.S.P.~./.!.P.# 7 = S.z.S.q.2.>.>.1.>.&.5.S.H.6.$.! % O 5.S.P.H.5.>.1.5.e.H.H.A.P././.P.",
"P.R.P.P.A.6.4.2.>.1.5.5.q.z.z.q.2.2.0.z.q.z.S.G.]./.W.R.L.z.,.&.6.6.q.5.3.5.q.S.A.A.S.% 7 - A.S.R.P.G.H.R.R.P.G.A.A.z.6.6.! % % 1.&.>.5.A.S.z.5.2.6.q.5.6.q.q.2.",
"S.G.P.G.A.z.S.G.P.P.P.P.G.A.q.6.G.G.H.P.R.R.R.~.W.W.L.L.P.R.!.R.S.H.P.!.P.S.A.q.G.G.y.7 9 5 l z.,.>.&.5.q.S.q.5.G.G.S.Y.R.S : & ~ G.H.S.5.4.6.S.G.P.G.G.A.q.5.2.",
">.1.2.2.2.2.z.H.z.e.S.S.D.S.K.P.R.~.R.W.~.~.~.~.W.R.L.P.R.P.R.R.!.P.G.P.P.R.P.D.. O , d g d d % O 9 z.A.L.P.G.q.#.Z X @ % s c c , O = X >.h.z.G.L.G.S.z.2.$.$.;.",
"0.x.T.T.L.b.P.'.P.w.q.q.q.q.q.e.5.q.G.G.z.5.>.>.q.q.z.2.&.&.2.q.w.x.r.q.6.1.-.$.% , 8 g f i d 8 3 h J.q.9.S.S.r.S.S = 9 7 t f i 8 - 7 @ S.S.P.~.K.q.2.q.G.G.2...",
"L.L.P.W.W./././.[.~.P.z.6.3.A.P.G.G.S.z.z.z.S.G.5.q.S.S.S.x.S.x.S.x.z.0.5.6.h.Z.% : 6 i i i t 2 1 h e.q.L.U.P.x.w.S * 5 : t z z r - 9 @ ~.P.S.q.9.S.S.G.G.G.P.[.",
"5.q.z.q.z.q.q.0.>.>.>.>.>.>.1.5.z.q.<.$. .|  . .z.q.<.>.>.2.q.z.x.S.S.P.o 3 = 7 f i m I U W G : 5 3 * - = = = = * s l j f G W W x : 5 % z.5.z.~.K.P.P.G.z.5.,.,.",
"G.H.P.H.e.5.6.q.F.z.A.G.H.G.6.>.2.6.z.z.S.G.z.5.>.1.5.z.z.5.#. .2.5.z.H.# 7 1 0 f p a U M P H r 5 7 7 7 3 5 5 5 7 d g f z H P ` a : 5 % z.2.6.S.S.q.>.#.#.>.0.x.",
"6.6.6.2.1.$.#.$.5.5.5.5.h.h.h.5.>.,.z.z.G.P.S.z.G.q.1.5.z.G.H.R.0.6.q.S.@ 5 : t z y v P ) _ H & * 1 = - = - - - & u g i p H _ ` a : 5 % q.z.5.&.+.&.q.z.z.z.T.].",
"H.z.6.q.G.G.e.2.#.6.H.G.q.5.z.G.P.G.S.5.q.G.v.q.>.>.5.H./.R.G.z.z.q.z.S.@ 7 : 6 x a n V ) _ I c l C C l k Z Z b g g a a a n V _ a : 5 @ 2.5.q.5.6.q.G.R.T.G.z.0.",
"A.z.q.A.G.H.G.z.1.S.P.A.2.&.%.&.0.5.>.#.>.z.G.z.z.>.>.5.5.5.6.z.>.-.>.z.# 7 : p U U V V ) V ] 2X>X9X9X3X>X>X>X3X2X[ H L B P ) _ a ; 2 @ G.5.5.5.P.q.&.#.g.G.G.v.",
"&.5.S.z.2.1.0.r.Z.3.&.&.2.S.S.S.z.F.q.5.6.S.q.>.F.5.g.G.G.z.5.5.6.>.1.q.# 4 5 p U P P ) ( M [ 2XqX9X9X5X4X4X4X5X6X[ N P P V V ` p ; 7 * z.z.6.z.&.,.z.c.G.v.z.l.",
"G.q.>.5.G.P.G.z.q.5.2.,.5.q.T./.G.G.G.G.z.l.z.z.S.z.q.x.v.x.v.L.L.x.G.u.+ 9 & y ' U P P V N Q 6X4X0X0X4X4X4X4X5XrX[ H L L V V U p ; 5 * #.#.>.5.0.0.0.0.0.x.0.>.",
"R.G.z.q.z.5.2.>.0.5.>.$.#.#.5.S.S.5.&.#. . .#.>.z.S.L.R.~.W.W.E.q.w 3 t.3X$X&X%X,X<X<X,X,X&X&X1X4X0X0X4X4X4X4X5X3X1X&X<X<X,X,X,X<X%X$X>Xp.4 4 P.L.L.S.G.G.L.L.P.",
"#.>.5.z.0.z.S.G.A.z.q.5.2.5.S.Q.G.5.#.#.,.z.S.L.5.q.5.5.l.L.L.x.z.7 @ t.pX>XqXqX5X5X5X5X5X5X5X5X4X0X0X4X4X4X4X4X4X5X5X5X5X3X3X5X5X5X5XyXp.% @ x.S.6.2.5.2.>.1.5.",
"5.A.G.G.A.z.G.P./.R.L.G.z.0.z.G.R.G.0.z.S.G.x.F.S.G.S.q.G.W.R.x.&.7 % t.pX>X4X0X0XqX0X4X4X4X4X4X4X0X0X4X4X4X4X4X4X4X4X0XqX4X4XqXqX5X5XyXp.% % A.G.q.5.z.A.2.>.2.",
"#.>.2.0.z.S.G.R.G.G.S.G.P.Y.G.P.G.z.S.G.G.G.z.z.q.v.S.x.G.!.S.>.5.7 % t.yX>X4X4X4X4X4X4X4X4X4X4X4X0X0X4X4X4X4X4X4X4X4X4XqX4X4X4X4X4X4XyXp.% % G.S.5.1.q.G.z.q.z.",
"G.A.z.z.z.5.>.$.#. . .>.q.z.z.z.q.0.z.G.L.P.R./.W.R.G.A.S.P.R.S.S.7 @ t.yX4XqX4X4X4X4X4X4X4X4X4X4X0X0X4X4X4X4X4X4X4X4X4XqX4X4X4X4X4X4XyXp.% % P./.L.x.H.P.R.R.~.",
"z.S.G.R.~./.R.G.P.G.z.G.G.G.S.z.G.G.z.z.z.z.z.S.L.S.5.>.>.2.6.6.$.7 @ t.yX>X4X4X4X4X4X4X4X4XqX>X4X4XqX>X4X4X4X4X4X4X4X4XqXqXqX4X4XqX>XtXp.@ % R.x.x.z.0.0.q.0.z.",
"z.z.G.R.~.R.A.5.-.+.#.>.5.z.A.G.G.G.x.G.G.G.G.R.G.G.P.R.P.6.1.&.$.7 @ t.yX>X4X4X4X4X4X4X4X4X4XqX>X4XqX4XqX4X4X4X4X4X4X4XqX4X4X4X>XqX>XtXp.@ % 5.0.S.R.L.G.G.L.L.",
"#.>.q.S.G.S.G.G.w.S.S.r.S.J.P.P.q.A.A.A.6.2.1.&.#.&.,.5.q.x.G.G.z.7 @ t.yX>X4X4X4X4X4X4X4X4X+XD D ! >XqX4X4X4X4X4X4X4X4X5Xt.Z Z M.tX4XtXp.@ % E.L.P.0.z.S.z.0.+.",
"A.q.0.6.0.S.G.P.!.W.~.P.P.P.x.q.2.>.&.&.6.z.z.q.S.L.R.~.R.L.G.S.L.7 % t.yX>X4X4X4X4X4X4X>XeXC.> # 9 ;XeX4X4X5X5X5X>X>X>XrXR + O u.tX;XtXp.@ % x.S.x.>.>.q.S.W.G.",
"G.q.&.#.&.2.5.0.&.>.&.>.5.S.S.S.H.S.6.5.5.6.2.5.x.G.P.S.x.q.q.z.P.7 @ t.yX>X4X4X4X4X4X4X>XeX+X4 3 h %X5X:X5X3X3X3X1X1X1XuX~ = - p.aX;XtXp.@ % R.S.R.S.L.R.x.z.&.",
"/.L.A.z.x.G.S.z.H.P.R.P.R.~.~.W.G.R.R.G.q.2.5.q.q.q.z.q.5.0.S.L.z.7 % t.yX>X4X4X4X4X4X4X>XeXoX3 - 0 2XiX8X8XuX7X7X7X7X7XdX~ * * i.tX=XtXp.@ %  .G.L.q.z.0.2.z.q.",
"S.S.x.S.S.z.q.5.#.2.A.q.5.&.#.#.S.G.H.S.5.>.2.0.z.q.z.0.0.q.G.P.R.7 @ t.yX>X4X4X4X4X4X4X>XeXoX7 1 8 } O.o.O.O.O.O.O.O.O.f.b & O y.yX;XtXp.@ % q.#.q.G.W.H.5.2.>.",
"G.G.H.G.G.S.G.S.5.G.G.v.q.z.H.R.P.z.2.,.5.q.q.0.z.x.S.x.z.q.0.5.z.0 % / aX>X4X4X>X>X4X4X4XeXXX7 5 : G J N n n N N N N n L r : % i.pX:XyXp.* % R./.~.G.x.2.#.0.S.",
"q.q.q.q.q.5.5.2.z.q.6.>. .#.5.z.q.,.&.2.G.W.~.R.S.G.G.P.L.G.z.q.H.0 * X.yX>X4X>XqX4X4X4X4XeX X4 1 6 I U P _ _ _ _ V _ _ ` y ; $ i.sX:XyXp.* % z.x.G.S.P.R.x.G.S.",
"S.x.G.G.G.S.z.6.z.G.R.G.G.G.S.G.G.G.G.v.G.G.x.x.q.0.5.q.S.S.S.z.6.* . X.dXtXaXtXqX0X0X4X>XeX}.7 , < H U U _ _ P P P P P U y ; $ y.uX>XyXp.* % x.S.x.2.x.G.x.S.z.",
"W.x.2.,.>...%.l.q.G.5. .@.0.G.G.l.5.,.2.5.,.<.>.%.,.z.v.x.,.:.%.+.%.,.y.  - o D #X.X#X0X0XwXoXd j j f u i i ; ; ; m P V V _ ` J n.uX>XyXs.* % q.q.q.q.q.q.S.G.S.",
"q.q.L.R.P.G.c.z.G.A.z.G.G.z.5.G.H.G.z.z.z.z.q.z.G.L.G.S.x.G.P.L.G.L.L.u.= q 1 ! #XXX#XqX0XqXoXd c c f j j j 6 : ; m U P V V P N j.rX=XpXp.- * z.S.J.P.~.~.H.z.q.",
"G.G.S.z.l.G.P.R.,.>.&.q.z.>.#.z.z.G.R.S.,.>.z.R.P.x.0.>.>.,.0.0.L.R.~.u.  = . D #X#X#XqX0XqXoX9 8 6 u j f d : : ; m U P _ M n n c.sXqXdXs.X X z.S.S.P.S.z.z.q.z.",
"P.R.!.R.P.R.G.G.A.L.R.G.R.~.~.~./.R.G.G.R.R.R.G.G.L.G.L.P.k.m.M.M.d.M.t.~ ~ ~ p.#XXX#XqX0XqX&X} } } f j j f 6 6 ; m U V V { -.-.f.a.a.d.u.G.S.G.A.q.0.2.2.2.A.G.",
"5.>.5.z.0.>.>.2.>.G.G.6.z.G.G.5.5.5.2.5.2.5.5.6.2.z.P.G.A . * @ @ @ . t.dXyXaX>XXXXX#X0X0X>XwXwXuX1XA t j j j z x H P M J ).sXsX^   -   z.5.q.z.q.A.S.S.L.H.S.x.",
"R.z.z.S.z.1.2.S.>.5.2.>.5.5.5.A.q.A.G.S.z.6.q.G.q.G.P.H.R 3 q 0 7 9 = t.eX=X4X;XXXXX#XqXqX4X>X:X:X%XA f j j j z p J U U H B.6XwX/ - 0 * 2.,.5.q.G.S.G.P.R.J.S.8.",
"4.4.z.G.S.5.&.&.z.5.%.>.2.>.5.R./.5.#.$.G.R.z.@.#.2.5.5.S @ 2 % * = o X.yX>XqX;X.X.X#X0X0X>X5X4X5X&Xl t f f f f r m B P m ).sXdX/ O 3 o z.A.z.z.G.G.z.q.q.e.q.r.",
"1.4.1.$.1 * = = 3 o R.G.R.G.A.G.S.G.A.6.2.1.5.6.z.G.- # V.aXqXwXwXeXeXqX;X4XqX;X`.XXXXXXXXXXXXXXXX+X+X+X+X+X+X+XoXoX}.}.&XR = %  .#.>.5.5.5.>.>.q.q.A.z.q.S.S.P.",
"0.0.x.T.7 2 7 5 9 % q.S.0.q.L.G.9.x.L.W.R.L.J.J.A.Z 7 - N.tX4X4X4X4X4X>X4X4XqX=XXXOXXXXXXXXXXXXXXXXXXXXXXXXXXXXXXXXXXXXX=XF * % S.G.P.G.q.5.1.1.x.5.2.5.q.6.>.$.",
"S.5.%.>.7 : 5 5 - % S.w.2.2.x.z.w.0.2.G.Q.[.W.S.0.l 5 = N.tX>X4X4X4X4XqXtXqXtX>XXXXXXXXXXXXXXXXXXXXXXXXXXXXXXXXXXXXXXXXX#XF = % 0.q.S.q.5.1.&.=.x.q.5.2.1.2.6.e.",
"z.0.x.G.7 2 5 7 0 & P.D.2.6.A.A.q.S.R.L.z.5.8.0.S.C 5 = N.tX4X4X4X4X5X*X_._.{.C.OXXXXXXXXXXXXXXXXXXXXXXXXXXXXXXXXXXXXXXX#XF = % x.S.G.S.S.q.A.z.2.q.5.#.+.>.6.q.",
"#.5.S.L.7 : 8 f f j s - - - - - - - 1 1 1 3 3 3 3 3 3 = N.tX>X4X4X4XyX} @ 9 = ! #XXXXXXXXXXXXXXXXXXXXXXXXXXXXXXXXXXXXXXX#XF = % x.S.S.S.q.q.6.6.S.R.P.q.6.z.H.G.",
"R.S.z.S.5 : 8 f f j t 8 8 6 7 7 7 7 5 5 5 7 7 7 7 3 7 = N.tX>X4X4X>XpXt.= 9 = R #XXXXXXXXXXXXXXXXXXXXXXXXXXXXXXXXXXXXXXX#XF * % P.P.L.S.z.q.5.3.6.z.A.1.>.q.A.q.",
"S.z.2.>.& & 5 f f z t : : : & & & & - - - - - - - - 1 @ N.tX>X4X4X>XpX} @ 5 @ F =XXXOXOXOXOXOXOXOXOXXXOXOXOXOXOXOXXXXXXX#XF * * x.S.L.G.H.S.S.S.A.S.e.5.z.P.R.L.",
"0.z.A.q.0.q.0.% 6 2 u U N { 1X>X>X>X>X>X>XXX{.C.C.C.{.C.XXXXXXXXXXOXOX.XC.C.+Xu.1 9 9 9 9 9 9 9 8 8 E W T W t 9 7 K Q T W i : % 5.2.q.q.q.A.q.q.6.5.5.6.q.z.S.x.",
"A.5.&.&.2.z.1.% 7 2 u P N { 2X5X4X4X4X4X4XOXXX.X.X.X.X.XXXXXXXXXXXOXXXOXXX.X$Xy.* 1 1 1 1 1 1 1 : < J L L L e 5 : m U V T i : % S.x.S.S.z.6.2.&.6.Z.S.R.!.P.x.S.",
"6.P.G.$.#.6.q.@ 7 5 f P N { 2X5X4X4X4X4X4XOXXXXXXXXX.X.X.X.X.XXXXXXXOX@X@XXX*Xi.& 5 3 3 3 3 5 5 , 6 I L L I e 5 : G U P T i : % q.5.&.>.q.P.P.A.x.x.q.S.W.l.&.0.",
"P.A.z.S.S.6.q.@ 7 3 d U N [ 1X>X>X>X>X>X>XXX{._.C.C.{.{.{..XXXXXXXXX@X+XoX_.%Xy.& : : : : : 1 1 : 6 K L L I r 5 : G U L W i 2 % 0.q.A.S.P.L.q.2.>.q.5.,.z.q.>.>.",
"5.>.3.G.q. .$.S.S.5.+.6 8 8 h h h h h h h w w w w w w 9 k.$XXXXX.XXX+Xf.Y ] Q G f f f f f f d 5 5 5 i p p p , 5 , u p p x t 2 % S.S.S.S.z.q.q.q.S.R.H.A.G.P.z.6.",
"2.q.z.x.q.2.>.5.A.A.A.1 1 1 - - - & & = = 1 - - 1 1 3 = k.+X{.{.XX.X$XO.m P L G f z z z z f d 5 5 7 f i i i , 5 , u z i z 6 2 % !.S.z.q.5.2.x.!.R.A.q.A.A.1.+.$.",
"R.L.S.S.R.W.S.&.q.q.q.9 7 7 7 7 7 7 7 9 9 4 4 4 7 7 9 3 d.+X{.`.`.|.+X-.n U U G i z z z z f d 5 3 7 f f i f , 5 2 d z f c 8 5 % S.x.A.S.S.S.G.P.G.6.6.A.z.1.>.1.",
"R.P.R.R.P.G.z.q.~.G.e.q.9.Z.3.6.&.$.$.@.&.3.D.U.=.1.&.>.~ k Z Z Z A A d t t t 7 7 7 7 7 7 7 7 7 5 7 7 7 7 5 5 5 2 5 7 7 1 5.6.S.5.q.q.z.S.S.S.q.6.q.G.S.z.!.~.q.",
"L.P.W.~.R.x.S.L.G.q.5.6.3.2.3.6.S.5.5.0.q.q.w.L.S.S.r.q.2.+ 1 * 1 1 1 - - 1 1 1 1 1 1 1 1 1 5 5 5 5 5 5 5 2 5 5 5 5 5 3 * 6.5.6.2.q.q.2.5.S.S.0.&.>.5.5.2.S.G.>.",
"G.0.%.>.x./.x.#.+.>.e.G.z.3.5.e.G.5.5.S.L.q.*.=.w.S.P.P.q.= 7 7 5 7 7 7 5 2 2 5 2 2 1 1 1 1 7 7 7 5 5 5 5 2 2 2 2 5 5 7 = S.A.5.&.z.G.q.z.P.P.q.L.0.S.W.G.x.x.<.",
"W.L.w.0.L.W.R.G.z.0.z.S.G.S.w.A.,.*.,.q.J.J.L.x.z.A.S.G.x.o = = * * * * * * * * = = = = = * * * * * * * * = = * * = - - + q.z.S.z.R.~.z.2.q.5.&.,.l.G.S.q.>.&.1.",
"x.l.0.7.x.R.W.R.l.0.q.L.P.P.L.D.[.L.q.x.R.W.L.q.&.#.#.,.z.L.L.G.P.S.z.x.z.q.z.R.R.z.>.%...#.2.G.z.0.x.R.L.l.5.l.2.+.#.0.P.G.z.q.G.P.S.5.5.x.R.R.P.L.L.G.x.z.S.R.",
"b.J.J.z.0.0.z.l.S.z.0.z.P.P.P.U.l.z.l.2.5.x.v.x.P.R.P.G.A.q.x.G.L.G.q.S.R.~.P.x.P.P.P.P.H.w.z.S.x.5.:.,.,.,.z.R.S.>.,.P./.P.z.z.q.S.G.S.S.G.G.S.T.L.L.P.R.G.S.x.",
"L.W.W.R.v.z.0.5.L.x.G.S.L.S.S.H.G././.G.z.x.R.G.G.P.R.x.2.,.z.P.z.q.5.0.P.W.G.,.x.q.2.&.>.2.z.S.0.G.R.R.R././.L.x.x.P./.~.G.S.L.R.P.x.5.,.2.G.~.R.P.P.R.P.x.5.2.",
"r.S.L.P.P.T.L.R.l.S.R.].~.J.q.q.G.v.z.z.G.Q.R.G.z.q.2.&.,.z.S.G.z.G.S.0.5.z.P.L.S.P.P.L.S.z.S.S.R.Q.W.x.z.v.L.x.5.S.R.L.x.z.q.x.S.L.P.G.q.z.L.].W.P.L.L.S.z.q.S.",
"x.z.q.q.z.z.v.T.0.l.x.S.S.S.S.P.G.G.G.L.R.~.R.R.L.L.G.0.0.S.R.P.G.P.L.S.S.G.P.G.L.R.T.0. . .,.Q.W.R.R./.W.z.5.0.x.G.x.q.5.q.5.#.&.x./.].W.G.x.q.q.z.S.G.x.z.x.L.",
"q.q.q.z.0.2.5.z.L.z.0.5.q.w.D.P.S.e.x.A.2.#.+.2.0.G.L.z.q.z.P.!.z.0.5.x.P.R.q.%.>.l.R./.v.>.:.z./.x.<.>.%.%.l.R.~.P.G.S.G.G.2.%.z.P.R.x.q.z.S.q.>.5.z.S.x.0.z.x.",
"=.2.A.L.P.v.L.R.W.L.S.L.~.P.S.e.q.&.&.q.D.S.S.S.W.P.L.z.x.S.z.&.S.S.S.L.R.L.S.z.c.g.c.R.Q.v.Y.Q.T.~.W.v.x.L.R.R.R.G.L.~./.P.G.G.q.G.L.z.A.L.S.5.P.S.z.q.5.5.x.P.",
"+.#.&.S.G.0.5.T.W.L.L.L.w.8.0.x.I.L.0.,.0.T./.Q.T.L.l.8.,.,.x.E.W.x.x.L.z.5.l.S.v.x.S.T.L.z.x.L.S.S.S.w.q.q.w.S.b.L.L.T.I.T.L.b.K.S.r.S.q.>.5.z.q.w.w.0.w.w.J.L.",
"&.2.5.G.~.R.L.Q.L.G.z.2.0.w.L.I.L.L.P.T.R.W.L.v.P.L.L.L.T.W.W./.x.z.v.q.%.%.x.L.&.%.#.>.x.W.W.R.P.P.P.G.S.z.S.S.T.z.,.0.x.L.x.,.&.0.S.q.&.+.2.G.x.x.x.S.P.L.L.L.",
"K.P.S.q.x.0.>.>.G.T.L.G.T.].].P.L.S.0.0.0.l.G.R.<.0.q.l.S.R.L.x.2.x.R.L.z.q.x.z.x.S.0.5.x.~.Q.S.L.R.L.G.q.l.z.x.~.v.0.0.L.W.R.L.P.r.2.2.2.5.>.&.G.S.z.S.G.S.z.2.",
"q.S.q.5.0.G.G.T.z.c.G.G.R.P.G.0.S.G.P.W.R.S.x.T.L.W.R.G.T.]./.L./.G.x.q.5.G.W.P./.].].P.x.z.q.z.G.G.z.z.z.z.x.G.G.S.x.z.q.x.L.~.2.5.q.x.S.S.P.[.G.S.q.5.6.6.6.5.",
"q.R.G.5.2.0.q.z.c.z.5.l.z.5.q.x.W.W.W.~.L.l.0.G.0.x.S.0.2.z.x.5.x.2.z.~.R.S.z.0.q.z.G.L.q.>.,.q.T.z.l.q.v.R.R.R.G.R.R.G.0.5.z.L.!.S.S.R.P.5.2.S.5.6.q.q.q.q.S.H.",
"| 2.0.q.z.z.G.R.G.z.z.G.P.x.S.R.P.S.q.2.>.&.5.z.2.S.L.x.q.z.z.q.L.6.q.z.2.&.z.R.q.2.6.S.G.q.6.z.S.g.2.5.z.G.P.R.W.W.P.P.G.x.S.G.q.#.#.q.P.S.q.q.&.5.G.G.z.z.z.G.",
"J.W.W.P.S.z.5.z.5.5.q.z.S.S.q.q.=.0.S.v.x.z.5.5.,.q.x.G.S.z.q.S.z.q.R.R.q.5.q.S.R.S.0.z.S.G.x.z.q.0.q.q.z.x.x.q.S.z.0.q.z.q.q.0.>.q.S.z.2.&.2.2.:.q.T.P.v.0.0.x.",
"S.L.x.z.z.0.6.G.H.S.3.&.2.e.q.2.q.S.q.5.2.z.q.g.q.z.A.S.z.z.A.L.H.G.G.A.2.z.S.z.6.q.1.#.&.6.S.z.S.K.W.I.P.S.S.S.A.x.A.0.5.1.,.2.>.l.q.>.q.P.P.9.,.l.L.T.x.l.G.T."
};
