/* XPM */
static char *_4595f19bdac41e281d48330d2866b9fO3o4bpQdhf8NRr3Y[] = {
/* columns rows colors chars-per-pixel */
"80 80 247 2 ",
"   c #17070B",
".  c #1B0C12",
"X  c #1E1215",
"o  c #280609",
"O  c #260D14",
"+  c #310C17",
"@  c #211315",
"#  c #2C1317",
"$  c #24151A",
"%  c #2B151A",
"&  c #251A1C",
"*  c #2B1A1D",
"=  c #31141C",
"-  c #391618",
";  c #331A1E",
":  c #27211E",
">  c #2E1621",
",  c #2C1D22",
"<  c #321423",
"1  c #331B22",
"2  c #391B26",
"3  c #341729",
"4  c #2C2223",
"5  c #2F2828",
"6  c #322225",
"7  c #362426",
"8  c #342429",
"9  c #39242C",
"0  c #342B2C",
"q  c #3B2A2D",
"w  c #38302F",
"e  c #3A2D32",
"r  c #3D3233",
"t  c #3B3536",
"y  c #44171E",
"u  c #461627",
"i  c #421B25",
"p  c #431B2B",
"a  c #451C33",
"s  c #4A1B34",
"d  c #551F38",
"f  c #45242B",
"g  c #49252E",
"h  c #4B2332",
"j  c #4B2A33",
"k  c #482837",
"l  c #542E37",
"z  c #542838",
"x  c #552C3B",
"c  c #423639",
"v  c #463538",
"b  c #66333D",
"n  c #582B44",
"m  c #5B3443",
"M  c #683946",
"N  c #73364C",
"B  c #683754",
"V  c #4C4244",
"C  c #57484A",
"Z  c #544A4C",
"A  c #584E51",
"S  c #76434B",
"D  c #724C56",
"F  c #62595C",
"G  c #7D4E65",
"H  c #6C6064",
"J  c #88525C",
"K  c #8A506C",
"L  c #935B67",
"P  c #994C79",
"I  c #8C5777",
"U  c #945479",
"Y  c #975879",
"T  c #A74E77",
"R  c #A44C7B",
"E  c #AB5477",
"W  c #A4527D",
"Q  c #AA527D",
"!  c #A4597C",
"~  c #99646C",
"^  c #8E6871",
"/  c #9C6777",
"(  c #A66578",
")  c #AB727F",
"_  c #99865C",
"`  c #9C8664",
"'  c #9C8B68",
"]  c #A78964",
"[  c #A48C64",
"{  c #A48D6C",
"}  c #AC8E6C",
"|  c #A4926C",
" . c #AC936C",
".. c #AC9A6C",
"X. c #B4986C",
"o. c #AE8E74",
"O. c #AC9574",
"+. c #AC9B74",
"@. c #A99879",
"#. c #B49574",
"$. c #B49B74",
"%. c #BC9C74",
"&. c #B4967C",
"*. c #B49D7C",
"=. c #BC9D7C",
"-. c #ACA27C",
";. c #B8A375",
":. c #B4A27C",
">. c #BCA37C",
",. c #BCAA7C",
"<. c #C4A47C",
"1. c #C4AA7C",
"2. c #9C5982",
"3. c #A74E83",
"4. c #AA4F84",
"5. c #A55483",
"6. c #AC5386",
"7. c #A95887",
"8. c #B45D86",
"9. c #9B6986",
"0. c #9C778E",
"q. c #AE6582",
"w. c #A76589",
"e. c #B66786",
"r. c #B66D8A",
"t. c #BC6D8B",
"y. c #AC718B",
"u. c #BB768B",
"i. c #A87997",
"p. c #BC7994",
"a. c #C36686",
"s. c #C5668B",
"d. c #CA678E",
"f. c #C46A8C",
"g. c #C9698E",
"h. c #C7728E",
"j. c #CA6691",
"k. c #C66992",
"l. c #CA6C92",
"z. c #C87696",
"x. c #CA759A",
"c. c #D57C9B",
"v. c #D17DA1",
"b. c #8A8688",
"n. c #91868A",
"m. c #9B9396",
"M. c #B8858C",
"N. c #B89E84",
"B. c #AA869A",
"V. c #B9899C",
"C. c #B4A484",
"Z. c #BCA584",
"A. c #BCAA84",
"S. c #B9A78A",
"D. c #BCAC8C",
"F. c #BCB288",
"G. c #B091A1",
"H. c #BAB6B4",
"J. c #C49E84",
"K. c #C78A94",
"L. c #C88598",
"P. c #D7879D",
"I. c #DA859D",
"U. c #DA939E",
"Y. c #E0859F",
"T. c #E3939E",
"R. c #C4A684",
"E. c #C4AB84",
"W. c #CCAD84",
"Q. c #C4A68C",
"!. c #C4AD8C",
"~. c #CCAD8C",
"^. c #C4B284",
"/. c #CCB284",
"(. c #C4B38C",
"). c #CCB38C",
"_. c #CABA8C",
"`. c #D4B78C",
"'. c #C9AE94",
"]. c #C4B494",
"[. c #CCB594",
"{. c #CCBB94",
"}. c #C8B898",
"|. c #CCBB9C",
" X c #D4B694",
".X c #D4BB94",
"XX c #D4BD9C",
"oX c #DCBE9C",
"OX c #DB86A6",
"+X c #DE8BA2",
"@X c #CC95A2",
"#X c #CE9BA6",
"$X c #D495A5",
"%X c #DD95A3",
"&X c #DE99A6",
"*X c #D794AB",
"=X c #D39AA9",
"-X c #DC9CAB",
";X c #E085A1",
":X c #E28CA3",
">X c #E28CAC",
",X c #E494A4",
"<X c #E994A4",
"1X c #E499A5",
"2X c #E99AA7",
"3X c #E595AA",
"4X c #EA95AA",
"5X c #E49AAB",
"6X c #E99AAB",
"7X c #E68EB0",
"8X c #E994B2",
"9X c #E69DB2",
"0X c #EC9CB3",
"qX c #D4A3AA",
"wX c #D8A7B2",
"eX c #D0A9B1",
"rX c #C2BBBB",
"tX c #E7A1AE",
"yX c #E5A3B2",
"uX c #EAA3B3",
"iX c #ECA8B7",
"pX c #CCC29C",
"aX c #D4C29C",
"sX c #D9C499",
"dX c #D7BBC7",
"fX c #E9BED2",
"gX c #CCC9C9",
"hX c #D4CACB",
"jX c #D6C9D0",
"kX c #D8D9D6",
"lX c #DDDCDB",
"zX c #E3C2CB",
"xX c #E9CCD7",
"cX c #ECD7DA",
"vX c #E3DCDC",
"bX c #F4D6D9",
"nX c #DEE1DC",
"mX c #E5E1DE",
"MX c #ECD9E4",
"NX c #F7DAE7",
"BX c #E4E5E2",
"VX c #EBE4E5",
"CX c #EAE7E7",
"ZX c #EDECEC",
"AX c #F3E8ED",
"SX c #F3F1EF",
"DX c #F5EBF2",
/* pixels */
"O.=.Z.=.O. .O. .Z.E.Z.:.>.A.*. .+.:.A.A.Z.:.(.{.Z.Z.D.].D.*.C.!.:.>.:.+. .O.$.Z.(.E. .[ :.,.:.E.*.+.:.E.>.O. .=.X.%.>.W.).).1.>.1.)./.R.>.>.1.>.E.<.>.E.`.).).E.",
"=.*.$.*.>.>.*.} O.$.O. .*.E.E.Z.A.:.+.Z.[..X!.:.:.*.Z.!.!.>.Z.].>.E.!.~.!.!.!.).).{.).E.E.Z.>.A.Z.:.>.Z.>.*.$.Z.W.E.<.>.<.E.).{.<.Z.>.;.$.$.>.>.R.>.>.>.>.*.$.$.",
">.Z.>.#.#.>.!.).!.).!.E.E.(.).!.(.).].(.(.(.D.E.Z.Z.Z.E.Z.*.$.>.!.Z.=.+.$.>.E.).*.*.Z.D.>.*.Z.*.>.:.*.>.:.=.*.#.#.$.=.R.>.=.Z.>.R.>.>.>.>.>.$.>.O.$.$.$.O.]  .$.",
"*.>.R.*.$.Z.)..XZ.~.).!.Z.Z.=.$.$.Z.).>.{ ` [ *.Z.>.>.>.Z.>.*.:.=.>.E.~.).~.Z.*.'.*.*.R.Z.[.[.R.:.E.!.E.!.!.R.=.=.=.&.#.O.*.R.[.%.O.$.>.R.$.#.$.>.Z.R.E.Z.>.Z.~.",
"=.*.$.>.!.).!.=.{ #.*.=.=.>.>.*.(.).(.!.E.>.Z.>.:.*.*.E.!.).[.[.Z.$.{ { O.>.!.).!.*.&.*.*.Z.Z.@.+.Z.!.R.>.R.Z.=.=.=.=.$.#.*.Z.!.E.>.>.R.E.Z.>.R.>.>.Z.Z.Z.*.$.$.",
"R.R.*.#.$.=.>.*.<.Z.R.Z.<.Z.~.[.E.E.E.!.).[.E.>.~.E.E.E.E.E.Z.<.Z.R.~.`. X X).!.#.O.+.*. .{ O.} *.>.Z.$.O.$.>.>.} $.R.!.R.=.$. .[.E.>.*.=.Z.E.).!.!.R.!.E.R.=.*.",
"!.!.R.#.{ O.Z.~.~.R.R.=.=.=.>.R.E.(.[.[.).(.).[.).).~.E.>.=.$.$.[.W.Z.$.&.=.R.R.E.~.~.~.).~.E.).!.(.).!.E.R.E.Q.W.W.E.1.E.E.).).Z.Z.*. . .$.>.Z.#.O.{  .O.O. .O.",
"E.R.Z.>.E.~.E.>.*.%.*.=.=.<.Z.R.R.Z.$.O.#.*.*.>.>.<.E.<.R.E.W.).~.E.R.R.>.<.>.R.W.E.>.%.).).>.R.E.!.(.[.(.R.*.#.%.%.E.~.`.).E.1.~.[. X!.R.!.[.!.'.!.R.Z.Z.Z.Q.!.",
" . .#.Z.!.).!.>.>.%.$.X. . . . . . .O.$.Z.E.~.!.$.O.} { { #.$.%. .*.>.=.O. .O.$.Z.>.=.*.$.#.$.=.O.#.%.=.=.R.E.~.A.>.1.(.).E.E.).E.).`.(.>.#.$.>.>.Z.!.).~.=.$.=.",
"R.Z.>.Z.E.!.E.>.!.E.R.Z.>.Z.E.E.E.E.Z.E.!.~.(.E.Z.E.!.).).W.R.=.Z.R.R.>.>.R.~.).Z.>.>.=.$.} ` ` } #.*.=.=.*.#. .E.>.$.=.A.E.E.E.$.$.#.=.E.).).).!.!.~.!.E.~.!.~.",
"Z.=.$.$.=.>.Z.R.{ { }  .&.>.!.~.].(.!.E.E.Z.>.Z.| O.$.=.!.~.~.~.%.>.>.E.E.E.Z.>.=.*.Z.!.).).R.R.=.R.E.~.E.R.>.=.>.=.O. .X.=.>.>.O.$.>.>.$.$.=.>.#.#.O.}  .*.R.>.",
"R.>.Z.=.Z.R.!.~. X[.[.'.[.[.|. X X[. X).!.E.E.E.{.).A.>.*.*.=.=.*.Z.E.~.).~.R.>.>.#.O.$.Z.A X 8 $ E.Z.R.R.!.E.R.=.R.W.$.} #.Z.~.: & t $.).oX[.>.J.R.<.*.>.[.{.[.",
"[.).[.!.E.Z.>.>.*.N.*.N.>.N.=.N.Z.E.!.E.E.Z.!.!.E.!.!.).).).~.E.>.>.Z.>.>.E.)..XXX X).).[.A % 1 O >.$.O.O.#.O. .*.E.~.=.}  .%.$.% O q ~.*.O.#.*.<.~.~.R.).XXXX).",
").[.).).R.=.&.$.O.#.*.*.>.Z.Z.>.$.$.:.Z.>.Z.E.!.aXXX{.[.(.Z.+. .=.=.>.*.%.*.>.E.R.R.E.!.~.D n B x ).!.~.[.[.).!.R.R.Z.=.=.=.#.O.n n B *.R.E.Z.*.$.=.>.*.=.>.>.$.",
"E.!.).!.R.Z.E.!.).).).).!.R.>.=.!.!.~.).[.[.[..X{.{.(.(.).[. X[.E.~.). X).E.R.>.!.e   @ O K w.7.9.. $   >.E.>.*.!.!.E.'.  $ . a Y w.I < . @ & E.!.).!.!.R.>.*.$.",
"O.#.$.$.$.$.Z.~.Z.<.E.E.W.E./.).[..X[.{..X.X.X.X{.[.(.).[.).[.[. X).!.).).[.).W.!.V 4 0 9 K 7.P 7.< 9 $ (.).!.>.{ { @.Z.& 8 9 n 2.5.I h 9 8 0 !.(.!.E.Z.$.} } o.",
":.A.].].(.F.).pX).,.>.>.>.>.>.<.*.>.!.!.Z.*.O.O.>.>.Z.$. . .$.>.,.A.1.>.=.#.o.} O.v % 1 < G 2.P Y > 9 O ;.E.E.1.E./.)./.O 1 < s U Y G 2 1 4 5 .X/.>.$.>.!.!.$.' ",
"(.(.).{.{.XXXXXXsX.X).Z.=.%.R.).!.!.E.Z.Z.Z.E.!.*.>.E.E.E.A.E.A.E.A.Z.:.*.=.N.J.~.m z x k 9.V.i.B.> 9 $ (.`.).A.,.E.).).k n n B i.B.0.9 6 4 5 >.;.E.E.!.!.!.).sX",
"*.>.Z.>.Z.>.>.:.O.O.O.O.O.O.#.*.Z.>.@.} ` _ ` ` Z.>.@.O.O.$.>.Z.A.E.E.).~.~.0 $ > K q.Y Y fXAXMXDX> 6 6 , > & & & @ O x 9.2.Y i.NXMXjXq 6 4 0 .X/.).).!.Z.*.+.+.",
"!.~.).~.<.*.=.>.Q.Z.R.!.~.!.=.O.$.=.Z.Z.E.!.Z.*.O.#.*.Z.Z.*.{ ` $.*.Z.~.~.>.r * 1 K 5.2.U jXVXlXZX@ 3 < 2 1 1 ; ; ; < n Y W P y.NXBXgXw 4 , 8 E.E.>.O.{ { O.:.A.",
"=.=.=.$.#.} { } *.*.*.*.N.N.N.*.O.+.Z.Z.!.).E.Z.!.>.#.*.Z.!.~.[.:.=.>.E.!.R.r * 1 I i.0.0.hXVXlXZXp z s z l l x x h a B i.y.9.B.MXBXhX0 4 * 6  .[  .>.Z.Z.Z.].aX",
"~.Z.=.>.!.!.<.$.{ =.~.!.>.*.Z.!.).!.E.*.>.!.D.>.O.O.*.~.XX[.!.Z.Z.>.Z.E.!.>.r * 6 dXNXMXMXMXmXnXAXI 2.Y p.-X-X-XV.Y I B.NXMXMXMXVXBXgX0 4 , 8 *.=.>.!.[.].!.Z.:.",
"R.Z.>.R.!.~.!.Z.#.E.).R.$. .|  .:.*.O.{ O.Z.!.Z.Z.O.O.*.*.*.=.Z.O.o.O.Z.>.#.r 4 6 gXVXMXvXvXvXlXNXU 5.W h.5X&X5Xx.! U B.MXvXlXlXnXBXhX0 , 4 4 *.).>. .{ N.!.!.D.",
" .*.E.Z.$.#.:.1.J.%. . .$.E.E.E.Z.Q.>.*.=.E.>.O.Q.*.N.!.!.Z.*.*.=.O.#.>.R.R.q 1 1 gXVXVXvXvXcXvXNXP 7.5.z.3X3X3Xx.6.P B.NXMXmXmXVXVXjXq 1 1 8 Z. .+.Z.S.!.D.Z.C.",
"!.>.O.*.!.).!.Z.>.*.$.+.*.>.].XX!.!.!.!.Z.C.Z.Z.E.Z.>.A.D.A.D.(.(.A.!.XX{.xXl f f dXNXbXcXbXbXbXbXR 6.6.x.8X3X8Xx.4.P p.NXbXcXcXbXNXzXl f f j *.:.:.:.:.:.A.:.O.",
"[.!.Z.>.Z.*.$.O.:.*.O.} { { *.E.E.*. .{ ` ` { O.Z.E.(.[..X{.{.}.>.O.w w q j V.@X@XqXwXqXqXqXqX#XyXR 6.4.z.8X3X8Xx.6.R r.yXqXqXqXqXwX#X@X@X#XV.l 8 0 E.!.!.(.(.).",
"{ O.*.Z.:.Z.E.!.R.Z.>.*.$.*.E.|.!.*.{ { +.Z.E.(.*.>.*.*.C.(.(.A.Z.:.4 4 * f @XtX1X1X1X-X&X$X&XU.9X4.6.4.x.0X3X8Xx.6.R e.9X%X%X%X&X-X&X1X%X-X=Xf 1 & $.*.$.O.#.*.",
"*.R.!.!.R.Z.!.).XX[.(.!.Z.:.Z.!.[.!.:.Z.E.!.A.Q.E.!.E.>.!.{.[.A. .>.4 , 1 p @X3X3X7X7X8X+X3X,X,X3XQ 6.T h.3X,X5Xz.6.W t.3X,X,X,X,X<X4X:X3X9X=Xz 1 & *.Z.R.$.O.$.",
"{ O.$.:.Z.E.!.[.!.!.E.!.).'.!.).!.Z.E.!.!.!.Z.Z.>.D.E.A.!. XE.O.*.R.4 , 3 p Y 8.8.8.8.8.E I.6X<X1XOX>XOX,X6X,X1X,XOXOX>X,X,X,X,X,X<X4Xt.e.8.( p 1 & #.>.!.Z.>.Z.",
"!.R.Z.Z.Z.*.O.} { ` ` O.>.Z.Z.Z.>.:.Z.!.(.).[.XX{.[.!.R.E.).[.E.E.!.4 , 3 2 U Q 6.4.6.3.T I.6X,X<X1X3X3X3X<X,X1X1X3X3X3X,X,X,X,X4X<XOXQ R 6.U k 1 & A.~.).[.[..X",
"Z.E.!.[..XXX[.!.).!.Z.!.!.!.E.Z.!.!.Z.Z.Z.Z.Z.E.(.E.*.O.O.$.=.=.} O.4 , 9 a U 6.6.4.6.4.R OX4X<XT.U.&X5X1X1X,X,X,X<X<X<X<X:X,X+X3X1XOXW 5.5.U a 1 , Z.:.:.>.:.Z.",
"Z.Z.!.[..X[.R.*.o.[ { O.*.Z.R.!.!.!.A.!.!.!.!.[.!.!.).[.).=.#. .} } 4 4 1 2 U Q Q T Q Q T I.<XU.,X&XyX-X5X%X<X<X<X<X<X,X,X,X4X4X3X-X*X! ! Y Y s 1 , [.(.!.!.(.(.",
"{ O.>.E.!.E.!.!.,.E.E.1.E.^.).).>.R.R.R.=.$.#. .{  .+.*.>.A.!.!.Z.+.4 4 6 i p.v.OXc.OXOXv.:X6X4X6Xb M b ) 9X<X,X<X<X<X<X<X4X6XL.N M S L.OXOXV.x 1 & :.Z.E.Z.:.[ ",
"R.>.:.=.:.E.!.). X{..X).).).A.>.$.O. . .=.Z.Z.>.E.(.[..X[.(.!.E.(.E.4 4 1 i $X0X6X4X6X4X4X:X<X+X5X+ 2 + L uX,X,X<X<X<X<X<X3X5XM.y + g #XuX5X=Xz 1 & O.O.>.E.{.!.",
"!.>. .{  .$.*.:. .O. .O.*.E.E.E.~.E.=.*.*.=.$.*.A.!.).E.A.>.>.Z.).).4 4 ; f L.3X<X,X,X4X4X,X,X<XuX# 7 % ~ iX1X,X,X<X<X<X<X3XtXM.- ; g @X1X&X@Xl 1 & E.(.[.A.Z. .",
"XX(.R.Z.A.!.E.Z.~.).[.).[..X.X{.!.[.[.!.>.$.*.>.>.>.Z.>.*.:.E.(.Z.Z.4 4 1 f $X0X0X8X0X8X3X6X3X,XyX# 7 # L uX1X,X,X<X<X<X<X1XtXM.- ; z =X5XuX=Xl 1 & >.Z.:.$.Z.>.",
"E.E.A.E.E.Z.>.*.{ $.R.>.*. .{ { E.!.~.E.*.O.$.:.Z.>.Z.:.:.>.!.).[.).4 , 1 a U W R R R T T P.3X,XyX= 1 O L yX%X,X<X,X<X<X,X,X%XM.- 2 s U 6.5.U a 1 & !.{.~.*.$.O.",
"!.!.~.!.!.E.!.E.*.!.!.D.>.Z.~.[.).Z.$.+.*.>.>.:.Z.A.E.A.Z.>.:.*.Z.E.4 8 8 a U 5.5.6.7.6.T I.0X,XuX= 7 = L uX1X,X,X<X<X<X,X,X5XM.y 2 z 2.6.6.Y a 1 & !.A.$.{ :.E.",
">.>.>.>.>.*.*.$.Z.>.=.O.` { *.Z.>.+. .$.!.{..X[.E.!.!.).(.!.Z.>.~.[.X X X > Y w.7.P P R T P.3X,XtXo ; o L uX5X1X1XuXuX6X1X,XtXu.- + u Y R R K s 1 & E.).[.A.!.E.",
"E.A.!.!.!.E.Z.=.Z.!.[.!.!.!.E.!.!.!.!.D.!.!.A.A.>.:.*.>.E.E.E.Z.=.=.} O.>.R.B B B r.z.x.z.>X3XU.1XJ ^ J p.0X%X5XK.L J ( %X<X1XK.L L L p.z.v.y.h 1 & $.A.!.A.E.Z.",
"{.A.$.+.O.' | C.>.!.*.` ] :.!.!.C.*.+.$.*.+.@.O.| +.Z.D.A.+.@.| [ | +.:.>.A.k < 2 L.uX3X4X6X2XT.1XyX9X5X3X1X,XuX~ - o b tX<X<X<X<XtXtX5X0X9X-Xj ; & >.>.>.E.!.E.",
">.>.(.[.).!.S.Z.!.R.Z.!.!.Z.*.!.~.!.Z.Z.Z.Z.>.Z.!.(.!.E.A.!.).(.!.(.(.!.!.A.r 1 1 K.6X,X<X<X<X<X,X3X4X3X<X1X,XuX~ f # S tX1X<X<X<XT.,XU.%X$X#Xj 1 8 )..X.X~.Z.>.",
"!.!.E.Z.C.!.).[.+.O. .>.Z.O.{ Z.Z.!.[.E.+.O.Z.[.).A.:.O.O.+.:.:.(.[..XXX{.E.1 O O L.6X4X4X<XT.,X<X,X3X3X<X1X<XuX~ # o b -X3X4X4X<XU.1XtXtXiXwXi .   ).E.Z.Z.>.Z.",
").[. X[.).[.!.!.R.(.[.!.[..X.X.XXX[.!.!.[.[.[.!.!.(.!.(.).{.XX.X[.).!.!.A.E.D D D z.I.c.I.:X<XT.,X1X3X3X<X1X+X3Xu.D S ~ yX3X4X4X<X1XU.( ( / / ^ R.>.:.$.$.$.R.!.",
"*.O.*.Z.:.O.O.$.O.!.!.=.Z.!.!.*.*.*.$.*.$.*.*.=.$.Z.).!.E.!.E.& 8 9 9 9 7 j @X1X<Xx.g.l.g.:X4X<X<X,X,X,X,X,X,X1X1X1X,X,X,X,X,X,X,X5XK.f 1 8 r Z.>.R.E.E.(.~.E.A.",
"[.Z.Z.E.Z.#.$.E.O.*.$.O.*.*.*.R.>.R.!.E.Z.=.>.!.>.!.).~.A.R.A.$ * 1 1 ; % i U.2X:Xl.j.g.f.:X4X4X6X<X3X3X3X3X6X3X<X4X6X6X6X1X3X6X6XyX@Xi # & , >.!.E.!.).[.^.E.;.",
"&.&.Z.!.E.*. . .Z.*.| O.$.O.*.[.XX*.{ } !.[.Z.] { $.*.*.>.E.).k n m M S M S U.<X,Xl.s.d.s.c.;XY.I.I.I.I.I.I.:X+X:X+X+XI.I.:XI.L.) y.) G Z.R.Z.Z.!.!.Z.>.>.<.>.1.",
"#.&.#.} O.4 & , & $ $ $ [.!.R.!.E.!.R.=.$.#.*.=.Z.!.R.  , $ k 2.2.q.5X5X0X5X<XT.T.h.g.g.g.g.g.g.g.f.f.f.g.f.g.g.g.g.f.f.f.a.f.( u = j *.*.*.O.O.>.>.R.Z.>.E.E.).",
":.:.A.].[.0 6 8 , 4 , 4 :.>.(.!.;.A.(.{.[.(.^.^.R.>.>.@ 8 1 n 7.6.8.>X4X:X,XT.T.<Xz.s.g.g.d.d.d.d.d.d.d.d.d.d.d.d.j.j.g.g.s.f./ 2 * c !.>.*.#.#.A.*.$.*.>.=.O.} ",
"E.*.| O.>.8 , 6 , * , X $.$.A.Z.,.:.$.!.|.sX{.E.:.R.!.X 6 1 x 5.3.8.>X4X4X4X<X<X2Xh.a.g.g.g.g.g.g.d.d.g.g.d.g.g.g.j.j.g.g.s.f./ 2 * c >.*.#. .X.A.>.*.$.#.$.=.<.",
"Z.:.A.!.!.0 4 8 5 V V V H.=.R.R.>.E.[.(.Z.*.;.:.E.E.).$ 6 1 x q.8.e.OXOXOXI.L.K.u.t.f.g.g.g.g.g.g.d.d.g.d.d.g.g.g.j.j.g.g.s.f./ 2 * c E.E.>.R.Z.$.>.*.{ [ O.=.>.",
"{ *.E.(.A.0 4 * 0 hXvXVXZ $ , , , , , , , , 4 4 4 6 6 6 6 % M 9X4X>XQ Q Q P u 2 i ( z.k.l.l.l.l.l.s.f.f.g.g.g.s.s.l.j.g.l.g.h.( u * c E.>.>.=.=.E.[.).>.=.Z.~.!.",
"[.E.Z.E.).4 $ & 4 hXBXVXV X , * * * * * * , ; 1 1 1 1 1 2 % M 5X2X>X6.4.3.U p < 1 q.x.l.l.l.l.l.l.k.f.f.f.f.f.f.f.s.l.f.a.a.f.Y - * c E.Z.>.*.%.=.Z.R.#.O.>.R.>.",
"E.Z.$.O.$.t t t V gXgXjXA 0 r q f g f f f f h h h g h h g p N 1XU.>X6.4.8.! d p h ( r.q.q.q.q.q.q.q.q.r.u.p.p.p.t.q.q.r.z.u.p./ 2 , c !.~.E.E.E.R.E.<.*.Z.).[.(.",
":.Z.R.>.:.>.:.*.E.t 5 4 H.BXkXcXeX@X$X$X$X$X-XL.e.r.r.t.t.t.t.f.f.j.j.j.k.k.t.t.t.z u p i i i i i i p + 0.DXcXAXB.f = D AXcXNXrX, , c >.>.R.>.>.=.*.*.=.>.Z.E.A.",
"R.*. . .$.Z.#.] ` t 5 : H.BXlXcXwX-X3X3X3X5X8Xc.t.f.s.f.f.f.f.g.j.j.j.j.j.j.s.f.f.z 2 1 1 6 6 6 1 1 2 $ n.DXlXZXm.q & F VXlXVXrX4 , c E.Z.=.$. .=.J.E.[. X).A.E.",
"=.).!.} { =.>.} _ t 5 : H.BXlXMXwX-X3X3X5X5X8Xc.t.f.f.f.f.f.f.g.l.j.d.d.d.d.f.f.f.z 1 1 6 6 6 6 1 1 2 $ n.ZXlXZXm.q $ F VXlXVXrX4 , c O.>.).).R.A.A.>.E.{.C. .:.",
").R.Z.E.E.=.>.!.(.t 5 5 rXBXkXcXeX#X$X$X$X$X-XL.r.r.r.r.t.t.t.f.f.j.d.d.d.f.t.r.y.j 1 7 6 6 6 6 6 1 9 $ n.ZXlXZXm.0 $ F VXlXVXrX4 , c E.).(.>.$.O.>.*.+.Z.>.O.O.",
"*.O.%.!.>.` } E.E.*.[ [ Z 0 v j j j j j j j j h h h h h h p M h.s.d.f.f.s.h.fXxXxXjXhXhXhXhXhXgXvX@ 9 @ b.SXlXZXm.8 $ F ZXvXVXrX4 * c E.Z.>.>.>.E.[.~.R.!.).Z.=.",
"$.>.Z.A.>.$.O.*.R.R.R.R.V @ , % % % * * * * , , , , < < < < x t.f.d.f.f.s.p.xXVXBXVXBXBXBXBXBXBXSX$ 8 @ b.DXlXZXm.8 $ F ZXvXVXrX4 , c >.*.$.A. X[.R.>.R.R.#.[ } ",
"[.(.E.E.[.{.E. .>.>.>.<.Z 4 7 9 9 9 9 9 9 8 8 8 8 9 9 9 9 2 M t.s.f.f.f.s.p.xXvXkXlXnXlXlXlXlXlXVX@ 6 X b.ZXkXVXm.6 @ F VXkXBXH., , c E.E.E.!.).!.=.=.R.Z.#.O.#.",
"[.).[.[.).!.Z.>..X!.<.>.;.J.%.=. .} } ]  .%.W.`.X.#. .O.>.Z.G.j x x x x x m C A Z Z Z Z Z Z Z C C , 6 , r Z C C v 8 , r Z A V H *.>.>.Z.E.E.E.>.=.>.!.E.Z. X.X>.",
"(.).{..X[.A.E.(.!.>.*.=.%.$.%.=.E.*.*.:.>.>.,.(.E.E.1.>.$. .[ X 6 1 < < 1 , * * % % % % % % % $ & 6 , 6 , & $ $ , 4 6 , * * X V $.>.>.$.*.E.E.:. .O.*.*.$.E.!.O.",
"!.:.| O.A.XXA.{ [ O.<.!.Z.%.*.<.!.*.*.E.(.>...X.,.E.).).>.=.#.& 0 9 9 6 6 6 7 7 6 6 6 6 6 6 6 6 8 6 , , 6 8 6 6 6 9 4 4 4 4 & Z  .Z.!.>.Z.).).>.(.:.E.{.!.A.A.@.",
"{.(.,.:.(.{.[.!.Z.:.Z.E.!.E.,.R.+...+.>.^.^.(.A.Z.R.E.!.A.Z.Z.. & $ $ & & & & & & & & $ $ $ $ & & & $ $ $ & & & & & $ $ $ & . V Z.[..XZ.$.>.*. .+.C.!.E.>.O. .#.",
"A.C.:.-.A.[.{.[.C.:.>.(.).).(.W.sX(.>.A.[.{.(.>. .{ { +.Z.(.(.!.).E.Z.A.Z.>.Z.[.[.Z.O.| ' { $.!.Z.:.A.[.(.C.*.C.$.[ { :.).!.Z.>.!.).E.*.*.A.[.[.).(.(.!.A.Z.E.[.",
"F.^.^.Z.:.:.Z.C.E.Z.:.Z.).).).`.C.Z.C.$.*.A.D.A.).[.).!.R.>.A.!.(.!.>.E.[..X).A.).).).).~.,.Z.E.A.*.@.+.+.+.Z.[.E.O.+.).XX).Z.Z.>.E.!.E.E.!.!.E.].(.(.).[.!.E.A.",
"(.{.{.[.D.Z.:.*.(.A.!.E.(.E.E.~.!.XXXX!.Z.A.[.!.!.).[.A.$.+.Z.).Z.>.*.:.).{.!.+.A.>.$. .O.$.Z.E.:.!.[.[.[.XXXX(.A.A.).XX.X!.E.(.[.).A.*.+.$.!..X[.).).[.).A.*.$.",
"1.E.(.).).].(.[.C.E.[.aX.X^.>.>.!.D.Z.Z.!.|.[.!.Z.>.$. .+.Z.E.!.Z.!.E.:.*.Z.).(.E.).).(.E.Z.E.E.[.|.{.A.Z.D.(.A.*.E.[.(.A.Z.>.A.E.(.).!.>.Z.(.aX{.).(.(.E.Z.>.E.",
"A.Z.>.>.Z.Z.D.].:.C.A.E.E.E.E.).!.!.!.(.[..X[.[.(.(.!.:.:.E.[.).!.).(.E.E.!.).!.(.[.].:.` ` +.|.{.[.[.XX{.Z.*.:.A.!.A.>.*.>.*.{  .A.XXaX{.!.A.>.>.Z.E.!.A.Z.A.(.",
">.>.>.Z.:.$.*.Z.(.Z.:.*.>.,.W.).E.<.A.R.$.{ [ $.:.!.(.Z.>.Z.). XZ.:.*.A.).[.>.| O.C.[.XXD.O.| Z.XXA.@.O.| | C.[..X).!.E.!.!.$.| Z.).[.A.>.Z.E.>.O.*.Z.E.A.:.Z.A.",
"X.$.R.(.).D.(.[.{.(.E.(..X).E.<.>. . .>.W.E.E.E.{.).(.Z.A.E.Z. .E.E.E.(.[.(.E.Z.S.N.S.[.|.D.'.|.]..X{.D.A.(.[.[.[.!.(..XXX).!.!.>.!.(.Z.R.(.E.*.).E.Z.>.*.*.A.).",
"[ {  .E.!.:.*.].{.(.(.(.,.;.:.A._.(.:.+.:.].XX|.].(.C.;.+.+.A.}.{.A.A.(.Z.*.C.E.D.A.E.].(.Z.A.(.E.E.E.,.>.>.,.E.F.(.(.]._.].(.F./.E.1.E.>.O.*.Z.>.,.,.:.,.,.^.(.",
" .$.*.!..X[.(.|.(.!.Z.$.:.,.(._.(.(.).].[.{.(.D.).(.(.(.].{.{.XXA.Z.D.>.| | A.(. .| { O.A.{.{.[.).).).!.E.Z.E.E.].Z.+.:.A.(.A.+. .:.E.>. .[ $.!.A.A.A.E.).(.(.(.",
"/.).E.>.A.:.O.O.!.].(.!.].aXaX).(.E.:.:.:.C.!.[.@.:.>.C.E.[.(.A.$.A.[.(.Z.>.A.Z.A.E.:.*.A..X|.E.(.[.(.!.>.C.Z.A..XD.:.:.(.{.[.(.).1.$.$.$.*.O. .!.E.Z.E.!.E.Z.$.",
">.E.>.*.:.!.!.].Z.S.!.!.[.).!.:.E.!.).{.[.E.A.].(.{.[.!.].aXXX(.XX!.A.>.*.!.{.).XXaXaX).A.Z.>.Z.!.!.Z.Z.Z.Z.A.!.!.E.A.Z.>.A.(..X$.*.>.A.E.E.).sX!.E.>.*.=.=.=.*.",
">.[.!.*.$.:.>.Z.S.Z.*.C.Z.*.>.A.{.{.{..X(.C.:.!.:.A.E.:.$.Z.A.*.A.$.Z..X[.E.Z.:.>.Z.!.(.>.O.+.>.].Z.C.>.D.[.[.[.!.[.[.!.:.*.Z.(. XE.E.[.).*.$.E.*.=.>.>.>.>.E.~.",
"_ $.:.>.Z.Z.!.[.!.Z.Z.!.).A.E.[.).E.>.$.O. .*.Z.$.E.(.A.>.Z.Z.>.(.=.>.Z.$. .Z.[.>.$.=.E.!.>.=.Z.E.N.$.*.Z.!.).[.{.{.).).!.A.E.!.>.{ { >.).E.>.>. .*.!.!.Z.Z.Z.!.",
"^.{.{.).E.Z.*.Z.*.*.>.Z.E.E.>.>.X.:.E.D.A.Z.*.*.+.>.A.!.E.Z.>.E.Z.>.[.[.>.*.>.E.[.E.:.Z.E.!.A.Z.>.:.>.>.Z.A.A.>.E.Z.:.>.Z.>.>.:.O.>.E.Z.$. .$.$.| >.].).D.:.:.A.",
"E.(.A.Z.Z.:.=.!.~.E.%. .$.<.>.$.>.E.>.*.$.Z.>.N.>.Z.R.E.Z.Z.R.(.~.!.!.R.$.Z.E.Z.=.>.#.{  .=.E.Z.E./.{._.).E.E.E.R.A.R.:.*.#.+.$.O.C.>.O.>.).).;.+.C.(.].A.C.!.]."
};
