/* XPM */
static char *bad22219ef6740dd93eb0eabb9f8cd66zvc3XKWOiR8X3QOl[] = {
/* columns rows colors chars-per-pixel */
"80 80 222 2 ",
"   c #010202",
".  c #090507",
"X  c #040807",
"o  c #02060A",
"O  c #030A0C",
"+  c #0A0B0C",
"@  c #110E0F",
"#  c #09100F",
"$  c #050C11",
"%  c #0B0E12",
"&  c #090E18",
"*  c #140F12",
"=  c #061112",
"-  c #0D1214",
";  c #0D141A",
":  c #0A1A19",
">  c #0B1A1B",
",  c #121315",
"<  c #181717",
"1  c #161816",
"2  c #13151A",
"3  c #13191C",
"4  c #1A1A1B",
"5  c #1D1F23",
"6  c #162325",
"7  c #1B2324",
"8  c #16292C",
"9  c #1B2B2B",
"0  c #192F2F",
"q  c #1C2D31",
"w  c #262929",
"e  c #242C2D",
"r  c #222E31",
"t  c #263736",
"y  c #2E3C3B",
"u  c #333637",
"i  c #333B3B",
"p  c #31423F",
"a  c #3A4544",
"s  c #3E4B4B",
"d  c #3D5654",
"f  c #404544",
"g  c #414B4D",
"h  c #4A4E4D",
"j  c #46524F",
"k  c #414D52",
"l  c #435353",
"z  c #4A5455",
"x  c #4A5458",
"c  c #475959",
"v  c #525454",
"b  c #535B5B",
"n  c #555A58",
"m  c #4B615D",
"M  c #59615F",
"N  c #4D6464",
"B  c #466965",
"V  c #4C6966",
"C  c #4D676A",
"Z  c #4C6B6A",
"A  c #536563",
"S  c #536966",
"D  c #536769",
"F  c #536D6C",
"G  c #5B6968",
"H  c #5A6D6C",
"J  c #4E706C",
"K  c #56716D",
"L  c #5B716D",
"P  c #526F71",
"I  c #5A6E71",
"U  c #577373",
"Y  c #5B7373",
"T  c #606362",
"R  c #636D6C",
"E  c #63716E",
"W  c #647776",
"Q  c #6C7474",
"!  c #6A757A",
"~  c #6B7978",
"^  c #737879",
"/  c #68817F",
"(  c #71837E",
")  c #9C865C",
"_  c #9C8664",
"`  c #9C8B69",
"'  c #A78964",
"]  c #A48C64",
"[  c #A48D6C",
"{  c #AC8E6C",
"}  c #A4926C",
"|  c #AC936C",
" . c #AC9A6C",
".. c #B4986C",
"X. c #AC8E74",
"o. c #B48E74",
"O. c #A69476",
"+. c #AC9574",
"@. c #AC9B74",
"#. c #AC9B7C",
"$. c #B49574",
"%. c #B49B74",
"&. c #BC9C74",
"*. c #B4967C",
"=. c #B49D7C",
"-. c #BC9D7C",
";. c #ACA27C",
":. c #B4A476",
">. c #BCA374",
",. c #B4A27C",
"<. c #BCA37C",
"1. c #BCAA7C",
"2. c #C4A47C",
"3. c #C4AA7C",
"4. c #707F86",
"5. c #817E81",
"6. c #6A8686",
"7. c #6D8486",
"8. c #738484",
"9. c #7A8383",
"0. c #768986",
"q. c #7A8986",
"w. c #738689",
"e. c #758B8C",
"r. c #798C8D",
"t. c #7B908E",
"y. c #778E92",
"u. c #7A8E91",
"i. c #769193",
"p. c #7B9193",
"a. c #868A8A",
"s. c #82918E",
"d. c #858E91",
"f. c #829493",
"g. c #859599",
"h. c #879898",
"j. c #8C9B9C",
"k. c #949997",
"l. c #959C9C",
"z. c #B49E84",
"x. c #BC9E84",
"c. c #97A29E",
"v. c #B4A484",
"b. c #B4A787",
"n. c #BCA584",
"m. c #BCAA84",
"M. c #BCA68C",
"N. c #BCAC8C",
"B. c #BCB288",
"V. c #8D9FA0",
"C. c #94A1A2",
"Z. c #9BA6A4",
"A. c #9EACAC",
"S. c #A2A9A6",
"D. c #AAACAB",
"F. c #ABB0AF",
"G. c #A7B2B1",
"H. c #ABB4B4",
"J. c #AEBCBC",
"K. c #B2B5B3",
"L. c #B4B7B9",
"P. c #B3BDBC",
"I. c #BABDBC",
"U. c #C49E84",
"Y. c #C4A684",
"T. c #C4AB84",
"R. c #CCAD84",
"E. c #C4A68C",
"W. c #C4AD8C",
"Q. c #CCAE8C",
"!. c #C4B284",
"~. c #CCB284",
"^. c #C4B28C",
"/. c #CCB38C",
"(. c #CABA8C",
"). c #D4B58C",
"_. c #D4BA8C",
"`. c #C9AE94",
"'. c #C4B494",
"]. c #CCB594",
"[. c #CCBB94",
"{. c #C8B898",
"}. c #CCBB9C",
"|. c #D4B694",
" X c #D4BB94",
".X c #D4BD9C",
"XX c #DCBE9C",
"oX c #BDC2BF",
"OX c #CCC29C",
"+X c #D4C29C",
"@X c #D9C499",
"#X c #C0C2BF",
"$X c #B8BEC1",
"%X c #B6C2C2",
"&X c #BDC4C2",
"*X c #BDCAC9",
"=X c #BFCFD1",
"-X c #C1C6C3",
";X c #C2CAC6",
":X c #C3CCCB",
">X c #CCCCCD",
",X c #C9D1CE",
"<X c #C5CED0",
"1X c #C5D5D2",
"2X c #CCD3D3",
"3X c #CDDBDA",
"4X c #D3D8D6",
"5X c #D5DCDB",
"6X c #DADDDA",
"7X c #CFE2DE",
"8X c #D6E1DF",
"9X c #DAE1DD",
"0X c #DDE5E3",
"qX c #DBE6E6",
"wX c #DCE9E5",
"eX c #E1E3E4",
"rX c #E2E9E4",
"tX c #E3EBEA",
"yX c #E9EDEC",
"uX c #EAF2EE",
"iX c #EDF3F2",
"pX c #F4F9F8",
/* pixels */
"+.-.n.-.+.| +.| n.T.n.,.<.m.=.| @.,.m.m.n.,.^.[.n.n.N.'.N.=.v.W.,.<.,.@.| +.%.n.^.T.| ] ,.1.,.T.=.@.,.T.<.+.| -...&.<.R././.3.<.3./.~.Y.<.<.3.<.T.2.<.T.)././.T.",
"-.=.%.=.<.<.=.{ +.%.+.| =.T.T.n.m.,.@.n.]. XW.,.,.=.n.W.W.<.n.'.<.T.W.Q.W.W.W././.[./.T.T.n.<.m.n.,.<.n.<.=.%.n.R.T.2.<.2.T./.[.2.n.<.>.%.%.<.<.Y.<.<.<.<.=.%.%.",
"<.n.<.$.$.<.W./.W./.W.T.T.^./.W.^./.'.^.^.^.N.T.n.n.n.T.n.=.%.<.W.n.-.@.%.<.T./.=.=.n.N.<.=.n.=.<.,.=.<.,.-.=.$.$.%.-.Y.<.-.n.<.Y.<.<.<.<.<.%.<.+.%.%.%.+.' | %.",
"=.<.Y.=.%.n./. Xn.Q./.W.n.n.-.%.%.n./.<.[ _ ] =.n.<.<.<.n.<.=.,.-.<.T.Q./.Q.n.=.`.=.=.Y.n.].].Y.,.T.W.T.W.W.Y.-.-.-.*.$.+.=.Y.].&.+.%.<.Y.%.$.%.<.n.Y.T.n.<.n.Q.",
"-.=.%.<.W./.W.-.[ $.=.-.-.<.<.=.^./.^.W.T.<.n.<.,.=.=.T.W./.].].n.%.[ [ +.<.W./.W.=.*.=.=.n.n.#.@.n.W.Y.<.Y.n.-.-.-.-.%.$.=.n.W.T.<.<.Y.T.n.<.Y.<.<.n.n.n.=.%.%.",
"Y.Y.=.$.%.-.<.=.2.n.Y.n.2.n.Q.].T.T.T.W./.].T.<.Q.T.T.T.T.T.n.2.n.Y.Q.).|.|./.W.$.+.@.=.| [ +.{ =.<.n.%.+.%.<.<.{ %.Y.W.Y.-.%.| ].T.<.=.-.n.T./.W.W.Y.W.T.Y.-.=.",
"W.W.Y.$.[ +.n.Q.Q.Y.Y.-.-.-.<.Y.T.^.].]./.^./.]././.Q.T.<.-.%.%.].R.n.%.*.-.Y.Y.T.Q.Q.Q./.Q.T./.W.^./.W.T.Y.T.E.R.R.T.3.T.T././.n.n.=.| | %.<.n.$.+.[ | +.+.| +.",
"T.Y.n.<.T.Q.T.<.=.&.=.-.-.2.n.Y.Y.n.%.+.$.=.=.<.<.2.T.2.Y.T.R./.Q.T.Y.Y.<.2.<.Y.R.T.<.&././.<.Y.T.W.^.].^.Y.=.$.&.&.T.Q.)./.T.3.Q.].|.W.Y.W.].W.`.W.Y.n.n.n.E.W.",
"| | $.n.W./.W.<.<.&.%...| | | | | | +.%.n.T.Q.W.%.+.{ [ [ $.%.&.| =.<.-.+.| +.%.n.<.-.=.%.$.%.-.+.$.&.-.-.Y.T.Q.m.<.3.^./.T.T./.T./.).^.<.$.%.<.<.n.W./.Q.-.%.-.",
"Y.n.<.n.T.W.T.<.W.T.Y.n.<.n.T.T.T.T.n.T.W.Q.^.T.n.T.W././.R.Y.-.n.Y.Y.<.<.Y.Q./.n.<.<.-.%.{ _ _ { $.=.-.-.=.$.| T.<.%.-.m.T.T.T.%.%.$.-.T./././.W.W.Q.W.T.Q.W.Q.",
"n.-.%.%.-.<.n.Y.[ [ { | *.<.W.Q.'.^.W.T.T.n.<.n.} +.%.-.W.Q.Q.Q.&.<.<.T.T.T.n.<.-.=.n.W./.  . w -.Y.T.Q.T.Y.<.-.<.-.+.| ..-.<.  .   <.<.%.%.-.<.$.$.+.{ | =.Y.<.",
"Y.<.n.-.n.Y.W.Q.|.].].`.].].}.|.|.].|./.W.T.T.T.[./.m.<.=.=.-.-.=.n.T.Q./.Q.Y.<.<.$.+.%.n.  , u Q.T.n.Y.Y.W.T.Y.-.Y.R.%.{ $.n.. 1   [ %./.XX].<.U.Y.2.=.<.].[.].",
"]./.].W.T.n.<.<.=.x.=.x.<.x.-.z.n.T.W.T.T.n.W.W.T.W.W./././.Q.T.<.<.n.<.<.T./. X.X|././.].  , u T.<.%.+.+.$.+.| =.T.Q.-.{ | &.  ,   /.Q.=.+.$.=.2.Q.Q.Y./..X.X/.",
"/.]././.Y.-.*.%.+.$.=.=.<.n.n.<.%.%.,.n.<.n.T.W.+X.X[.].^.n.@.| -.-.<.=.&.=.<.T.Y.Y.T.W.Q.- 6 i ]./.W.Q.].]./.W.Y.Y.n.-.-.-.$.- 7 # ^ =.Y.T.n.=.%.-.<.=.-.<.<.%.",
"T.W./.W.Y.n.T.W././././.W.Y.<.-.W.W.Q./.].].]. X[.[.^.^./.].|.].T.Q./.|./.T.Y.<.W.  , - 9 G D z - - + =.<.T.<.=.W.W.T.`.X , + H m H t o 1   -.T.W./.W.W.Y.<.=.%.",
"+.$.%.%.%.%.n.Q.n.2.T.T.R.T.~./.]. X].[. X X X X[.].^./.]./.].].|./.W././.]./.R.W.  , O 9 S S b % + . Y.^./.W.<.[ [ #.n.  - o S A H t o -   n.W.^.W.T.n.%.{ { o.",
",.m.'.'.^.B./.OX/.1.<.<.<.<.<.2.=.<.W.W.n.=.+.+.<.<.n.%.| | %.<.1.m.3.<.-.$.X.{ +.o 3 > 9 E L b - % o <.>.T.T.3.T.~./.~.O > = W H L p o ,   /. X~.<.%.<.W.W.%.` ",
"^.^./.[.[..X.X.X@X X/.n.-.&.Y./.W.W.T.n.n.n.T.W.=.<.T.T.T.m.T.m.T.m.n.,.=.-., 3 y D A c 9.3X1XH.- + % % 5 5 4 5 5 7 7 l M b l 7X1XqXR o 1   T.<.>.T.T.W.W.W./.@X",
"=.<.n.<.n.<.<.,.+.+.+.+.+.+.$.=.n.<.#.{ _ ) _ _ n.<.#.+.+.%.<.n.m.T.T./.Q.Q.    t K S m q.qX8X&X+ % - - % O % % % $ O l L L c tX5XiX^ o ,   n. X~././.W.n.=.@.@.",
"W.Q./.Q.2.=.-.<.E.n.Y.W.Q.W.-.+.%.-.n.n.T.W.n.=.+.$.=.n.n.=.[ _ %.=.n.Q.Q.<.  o q F N N q.tX5XP.% - - - - % - , - - = l H A m wX5XiXQ   -   -.T.T.<.+.[ [ +.,.m.",
"-.-.-.%.$.{ [ { =.=.=.=.x.x.x.=.+.@.n.n.W./.T.n.W.<.$.=.n.W.Q.].,.-.<.T.W.Y.    e R S b 9.wX0X%X- $ - - % - - - - = = l H S A tX5XiXQ   1   =.| ] | <.n.n.n.'.+X",
"Q.n.-.<.W.W.2.%.[ -.Q.W.<.=.n.W./.W.T.=.<.W.N.<.+.+.=.Q..X].W.n.n.<.n.T.W.<.    h I.J.H.&XqX8X2XQ ~ ~ ! ! ! ! ~ ~ ~ W A.oXH.H.0X6XyXQ   ,   <.=.-.<.W.].'.W.n.,.",
"Y.n.<.Y.W.Q.W.n.$.T./.Y.%.| } | ,.=.+.[ +.n.W.n.n.+.+.=.=.=.-.n.+.X.+.n.<.$.    z 2X-X&X:X0X0X1Xq.q.q.0.w.w.w.0.0.0.w.H.*X:XoX0X5XuXQ   1   =.=./.<.| [ z.W.W.N.",
"| =.T.n.%.$.,.3.U.&.| | %.T.T.T.n.E.<.=.-.T.<.+.E.=.z.W.W.n.=.=.-.+.$.<.Y.Y.    j 2X&X;X2XtXwX3Xf.r.q.q.q.q.e.r.r.r.w.J.=X:X*XrX0XiXQ   # o -.n.| @.n.M.W.N.n.v.",
"W.<.+.=.W./.W.n.<.=.%.@.=.<.'..XW.W.W.W.n.v.n.n.T.n.<.m.N.m.N.^.^.m.W..X[.n R G ~ l.j.C.j.A.C.C.r.q.t.r.w.w.w.e.e.r.r.h.h.V.h.c.c.A.9.M G R M =.,.,.,.,.,.m.,.+.",
"].W.n.<.n.=.%.+.,.=.+.{ [ [ =.T.T.=.| [ _ _ [ +.n.T.^.]. X[.[.{.<.+.  X   g j.t.t.7.8.w.w.w.w.w.r.w.r.e.w.w.w.r.r.r.e.w.e.e.e.8.8.w.p.f.f.h.z O   ^.T.W.W.^.^./.",
"[ +.=.n.,.n.T.W.Y.n.<.=.%.=.T.}.W.=.[ [ @.n.T.^.=.<.=.=.v.^.^.m.n.,.  , O g f.q.w.t.e.e.y.e.p.r.r.w.t.e.e.w.w.r.r.r.e.e.i.i.e.i.e.u.e.e.w.t.z 1   -.%.=.%.+.$.=.",
"=.Y.W.W.Y.n.W./..X].^.W.n.,.n.W.].W.,.n.T.W.m.E.T.W.T.<.W.[.].m.| <.  , o s f.w.e.e.r.r.r.r.r.r.r.r.e.e.e.e.r.r.r.r.r.e.e.r.r.r.u.r.r.r.r.f.z ,   <.=.n.Y.%.+.%.",
"[ +.%.,.n.T.W.].W.W.T.W./.`.W./.W.n.T.W.W.W.n.n.<.N.T.m.W.|.T.+.=.Y.  , o s f.w.e.e.r.r.r.r.r.r.r.r.e.e.e.e.e.r.r.r.r.r.r.r.r.r.r.r.r.r.r.f.z ,   =.$.<.W.n.<.n.",
"W.Y.n.n.n.=.+.{ [ _ _ +.<.n.n.n.<.,.n.W.^./.]..X[.].W.Y.T./.].T.T.W.  , o s f.w.e.e.r.r.r.r.r.r.r.e.e.e.e.e.e.r.r.r.r.r.e.e.e.e.e.e.e.e.r.f.z ,   ^.m.Q./.].]. X",
"n.T.W.]. X.X].W./.W.n.W.W.W.T.n.W.W.n.n.n.n.n.T.^.T.=.+.+.%.-.-.{ +.  , o s f.w.e.e.e.e.r.r.r.r.g.g.g.g.u.i.e.r.r.r.r.r.r.e.e.h.g.g.u.e.e.f.x ,   m.n.,.,.<.,.n.",
"n.n.W.]. X].Y.=.X.] [ +.=.n.Y.W.W.W.m.W.W.W.W.].W.W./.]./.-.$.| { {   , o s f.w.e.e.e.e.r.r.r.8.k k k x w.e.w.r.r.r.r.r.r.r.p.k x k I p.w.f.x ,   T.].^.W.W.^.^.",
"[ +.<.T.W.T.W.W.1.T.T.3.T.!././.<.Y.Y.Y.-.%.$.| [ | @.=.<.m.W.W.n.@.  , o s f.w.e.e.e.e.r.r.r.W $ o o & 8.r.e.r.r.r.r.r.r.r.p.o $   k f.8.f.x ,   /.,.n.T.n.,.] ",
"Y.<.,.-.,.T.W./.|.[. X/././.m.<.%.+.| | -.n.n.<.T.^.]. X].^.W.T.^.T.  , o s f.w.e.e.e.e.r.r.r.! ; ; & 3 9.u.u.r.r.r.r.r.r.r.f.O 2 o z f.e.f.x ,   m.+.+.<.T.[.W.",
"W.<.| [ | %.=.,.| +.| +.=.T.T.T.Q.T.-.=.=.-.%.=.m.W./.T.m.<.<.n././.  , o g f.w.e.e.e.e.e.w.e.! & % $ 3 ^ r.8.8.8.8.8.8.8.9.d.o % O l g.e.f.x ,   ].T.^.].m.n.| ",
".X^.Y.n.m.W.T.n.Q./.]./.]. X X[.W.].].W.<.%.=.<.<.<.n.<.=.,.T.^.n.n.  , o g f.w.e.e.e.e.e.w.e.! & % O 3 C.A.A.A.S.A.A.A.A.S.H.o - O k f.w.f.x ,   ^.<.n.,.%.n.<.",
"T.T.m.T.T.n.<.=.[ %.Y.<.=.| [ [ T.W.Q.T.=.+.%.,.n.<.n.,.,.<.W./.]./.  , o s f.e.e.e.e.e.e.w.e.! % % $ 7 5XtXwXwX0X0X0XwXwXwXpX  ; o g p.8.f.x ,   <.W.[.Q.=.%.+.",
"W.W.Q.W.W.T.W.T.=.W.W.N.<.n.Q.]./.n.%.@.=.<.<.,.n.m.T.m.n.<.,.=.n.T.  - o s f.e.e.e.e.e.e.w.e.! - % O 7 2XwX9X6X6X6X6X6X6X6XyX  3 o l f.w.f.x ,    XW.m.%.[ ,.T.",
"<.<.<.<.<.=.=.%.n.<.-.+._ [ =.n.<.@.| %.W.[. X].T.W.W./.^.W.n.<.Q.].Q.<.Y.b R D W w.7.7.7.u.u.8.a f i h 2X5X6XD.S.S.c.2XrX6XrXf h a E f.w.f.z ,   W.T./.].m.W.T.",
"T.m.W.W.W.T.n.-.n.W.].W.W.W.T.W.W.W.W.N.W.W.m.m.<.,.=.<.T.T.T.n.-.-.{ +.<.Y.o o q D F N Y e.w.f.<X1X:X>X-X-X-X4   .   K.yX9X6XtXtXiXP.( w.f.z ,   m.%.m.W.m.T.n.",
"[.m.%.@.+.` } v.<.W.=._ ' ,.W.W.v.=.@.%.=.@.#.+.} @.n.N.m.@.O.} ] } @.,.<.m.  $ t F N D Y i.e.f.&X&X&XoX#XoX-Xw + 1 X K.yXeX0X6X5X0XG.8.9.f.z ,   <.<.<.<.T.W.T.",
"<.<.^.]./.W.M.n.W.Y.n.W.W.n.=.W.Q.W.n.n.n.n.<.n.W.^.W.T.m.W./.^.W.^.^.W.W.m.  o q F D D Y y.e.f.;X&X-X-X-X;XoX7   +   D.yX0X6XeX0XtXJ.q.r.k.z .   !./. X XQ.n.<.",
"W.W.T.n.v.W./.].@.+.| <.n.+.[ n.n.W.].T.@.+.n.]./.m.,.+.+.@.,.,.^.]. X.X[.T.4 7 y F N D Y e.e.g.P.P.L.K.&X-X-Xa w e w L.tX0XwX2X2X4XZ.E ~ ^ n i w T./.T.n.n.<.n.",
"/.].|.]./.].W.W.Y.^.].W.]. X X X.X].W.W.].].].W.W.^.W.^./.[..X% . + + O   g h.q.~ N D D Y y.e.r.t.q.q.s.P.&X;X;X&X&X&X5X9X0XwXq.q.s.s O =   Q W.Y.<.,.%.%.%.Y.W.",
"=.+.=.n.,.+.+.%.+.W.W.-.n.W.W.=.=.=.%.=.%.=.=.-.%.n./.W.T.W.T.- + % % % o g f.r./ F F N Y e.e.e.e.e.w.s.&X;X-X;X&X-X&X4X9X0XwXw.0.s.a O -   <.n.<.Y.T.T.^.Q.T.m.",
"].n.n.T.n.$.%.T.+.=.%.+.=.=.=.Y.<.Y.W.T.n.-.<.W.<.W./.Q.m.Y.h > > 2 ; 3 ; k u.u.6.Z Z Z U e.6.e.w.w.w.r.P.%XP.P.%XP.P.1X3X3X5X~ 8.9.j 7 w - =.<.W.T.W./.].!.T.:.",
"*.*.n.W.T.+ 4 1 4 4 . +.%.+.=.]..X=.[ { W.].n.' [ %.=.@ 4 % R ( 9.8.8.0.4.w.r.e.6.Z Z Z B P P F F F F F Y H Y H Y I I Y Y I W = 3 o W.T.n.Y.n.n.W.W.n.<.<.2.<.3.",
"$.*.$.{ +.  , + + +   W.].W.Y.W.T.W.Y.-.%.$.=.-.n.W.Y.. , o G r.r.u.y.u.e.r.i.y.6.Z Z Z Z Z Z Z Z Z Z F Z V V Z F C C Z Z C D o -   +.=.=.=.+.+.<.<.Y.n.<.T.T./.",
",.,.m.'.].  , + + +   T.,.<.^.W.>.m.^.[.].^.!.!.Y.<.<.. , O H w.t.e.e.u.i.e.i.i.6.Z P Z Z Z Z F Z Z Z Z Z Z Z C C C Z Z Z Z H o ,   /.W.<.=.$.$.m.=.%.=.<.-.+.{ ",
"T.=.} +.<.  @ + , 1 . 1.%.%.m.n.1.,.%.W.}.@X[.T.,.Y.W.. - o G w.e.e.e.r.i.w.e.w.W C P Z Z Z Z Z Z Z Z Z Z Z Z C Z Z Z Z Z Z H o ,   T.<.=.$.| ..m.<.=.%.$.%.-.2.",
"n.,.m.W.W.  , v I.D.L.a.4 -.Y.Y.<.T.].^.n.=.:.,.T.T.% % O O G e.y.e.r.r.f.x 3 > y P V Z Z Z D Z Z Z Z Z Z Z Z C Z Z Z Z Z Z H X ,   W.T.T.<.Y.n.%.<.=.[ ] +.-.<.",
"[ =.T.^.m.  , M 4XoX4Xa.  +   . . . O O o o o O o o - - - O G e.u.e.r.r.d.g o o q F Z Z Z Z D Z Z Z Z Z Z Z Z C Z Z Z Z Z Z H X ,   T.T.<.<.-.-.T.]./.<.-.n.Q.W.",
"].T.n.T./.  , M >XI.>Xa.  , @ , , , - - - - - - - - - - % O G r.r.e.r.r.u.g o O t F V V Z Z Z Z Z C Z Z C C C Z Z D D Z Z Z Y O 2   ^.T.n.<.=.&.-.n.Y.$.+.<.Y.<.",
"T.n.%.+.%.n.Y.9.w i u T L.F.K.R R E E E L L L l c c c c d d C U U F P P Y N d c a 6 6 7 6 6 8 7 7 6 6 0 N Z C 0 6 8 9 c F Z Y O 2   ^.W.Q.T.T.T.Y.T.2.=.n./.].^.",
",.n.Y.<.,.<.,.=.  X   v pXrXuXd.s.s.t.t.t.t.t.L L L K K F Z C Z C V C Z Z Z F Y s o O $ O O O O O O O > N F C > o & $ c F Z Y O 2   <.<.<.Y.<.<.-.=.=.-.<.n.T.m.",
"Y.=.| | %.n.$.'   4   n tX4X0Xq.0.0.0.w.w.w.w.S S V V V V V J Z Z C C C V F V L s O , - - - - , - - = > N F V > = - O c Y V H O %   T.T.n.-.%.| -.U.T.].|./.m.T.",
"-./.W.{ [ -.<.{   .   v pXyXiXf.f.f.f.f.p.p.f.H H H K P K F B Z C C C Z V N m G i o .           % + o ; A N N > O $ O g N N S O -   | +.<././.Y.m.m.<.T.[.v.| ,.",
"/.Y.n.T.T.-.<.W.^.^.D.a.v v n i i y y y y y i e e e r r r 9 d Z Z C C C V w.S.Z.Z.k.k.l.l.l.l.5.* + + 4 l.Z.C.7 % + + d.%XJ.%Xo -   Y.T./.^.<.%.+.<.=.@.n.<.+.+.",
"=.+.&.W.<._ { T.T.=.] S..     o o o o o o o o o o o o o o o d J V C C V V h.2X:X4XiXtXiXiXiXiX>X+ . + 5 $X<X:Xw o % % L.pXwXpXo ,   T.T.n.<.<.<.T.].Q.Y.W./.n.-.",
"%.<.n.m.<.%.+.=.Y.Y.Y.Y.. < , , , , , , , , , , , , , - - - d V B J J V m s.*XoX;X9X9X5X5X5X5XI.. O O 4 H.&X%Xw o + o D.tX4XtXo 1   n.<.=.%.m.|.].Y.<.Y.Y.$.] { ",
"].^.T.T.].[.T.| <.<.<.2.  X                               o d L K Y Y K S c.5X,X9XiXiXuXpXiXpX,X, + X 4 &X5X2Xe O % o I.pXyXpX  .   Y.T.T.T.W./.W.-.-.Y.n.$.+.$.",
"]./.].]./.W.n.<. XW.2.<.>.U.&.-.| { { ' | &.R.)...$.| +.<.n.h O . o o O X o                     . + + +       . + + +     .   T.=.<.<.n.T.T.T.<.-.<.W.T.n.|. X<.",
"^./.[. X].m.T.^.W.<.=.-.&.%.&.-.T.=.=.,.<.<.1.^.T.T.3.<.%.| ] 4 < , , , , 1 , 1 < 1 < < < < 4 1 1 , , 1 1 1 1 , 1 , < 1 < 4 + -.%.<.<.%.=.T.T.,.| +.=.=.%.T.W.+.",
"W.,.} +.m..Xm.[ ] +.2.W.n.&.=.2.W.=.=.T.^.<. ...1.T././.<.-.$.                                                            .   =.| n.W.<.n././.<.^.,.T.[.W.m.m.#.",
"[.^.1.,.^.[.].W.n.,.n.T.W.T.1.Y.@. .@.<.!.!.^.m.n.Y.T.W.m.n.n.m.[.n.<.W.^.<.=.<.<.+.+.Y.Q.<.+.+.n.n.=.[ ` %.m.m.+.%.,.<.v.<.n.T.n.]. Xn.%.<.=.| @.v.W.T.<.+.| $.",
"m.v.,.;.m.].[.].v.,.<.^././.^.R.@X^.<.m.].[.^.<.| [ [ @.n.^.^.W./.T.n.m.n.<.n.].].n.+.} ` [ %.W.n.,.m.].^.v.=.v.%.] [ ,./.W.n.<.W./.T.=.=.m.].]./.^.^.W.m.n.T.].",
"B.!.!.n.,.,.n.v.T.n.,.n./././._.v.n.v.%.=.m.N.m./.]./.W.Y.<.m.W.^.W.<.T.]. X/.m././././.Q.1.n.T.m.=.O.@.@.@.n.].T.+.@./..X/.n.n.<.T.W.T.T.W.W.T.'.^.^./.].W.T.m.",
"^.[.[.].N.n.,.=.^.m.W.T.^.T.T.Q.W..X.XW.n.m.].W.W./.].m.%.@.n./.n.<.=.,./.[.W.@.m.<.%.| +.%.n.T.,.W.].].]..X.X^.m.m./..X XW.T.^.]./.m.=.@.%.W. X]././.]./.m.=.%.",
"3.T.^././.'.^.].v.T.].+X X!.<.<.W.N.n.n.W.}.].W.n.<.%.| @.n.T.W.n.W.T.,.=.n./.^.T././.^.T.n.T.T.].}.[.m.n.N.^.m.=.T.].^.m.n.<.m.T.^./.W.<.n.^.+X[./.^.^.T.n.<.T.",
"m.n.<.<.n.n.N.'.,.v.m.T.T.T.T./.W.W.W.^.]. X].].^.^.W.,.,.T.]./.W./.^.T.T.W./.W.^.].'.,._ _ @.}.[.].]..X[.n.=.,.m.W.m.<.=.<.=.[ | m..X+X[.W.m.<.<.n.T.W.m.n.m.^.",
"<.<.<.n.,.%.=.n.^.n.,.=.<.1.R./.T.2.m.Y.%.[ ] %.,.W.^.n.<.n./.|.n.,.=.m./.].<.} +.v.]..XN.+.O.n..Xm.#.+.} } v.]. X/.W.T.W.W.%.} n./.].m.<.n.T.<.+.=.n.T.m.,.n.m.",
"..%.Y.^./.N.^.].[.^.T.^. X/.T.2.<.| | <.R.T.T.T.[./.^.n.m.T.n.| T.T.T.^.].^.T.n.M.z.v.].}.N.`.}.'. X[.N.m.^.].].].W.^. X.X/.W.W.<.W.^.n.Y.^.T.=./.T.n.<.=.=.m./.",
"] [ | T.W.,.=.'.[.^.^.^.1.:.,.m.(.^.,.@.,.'..X}.'.^.v.:.@.@.m.{.[.m.m.^.n.=.v.T.N.m.T.'.^.n.m.^.T.T.T.1.<.<.1.T.B.^.^.'.(.'.^.B.~.T.3.T.<.+.=.n.<.1.1.,.1.1.!.^.",
"| %.=.W. X].^.}.^.W.n.%.,.1.^.(.^.^./.'.].[.^.N./.^.^.^.'.[.[..Xm.n.N.<.} } m.^.| } [ +.m.[.[.]./././.W.T.n.T.T.'.n.@.,.m.^.m.@.| ,.T.<.| ] %.W.m.m.m.T./.^.^.^.",
"~./.T.<.m.,.+.+.W.'.^.W.'.+X+X/.^.T.,.,.,.v.W.].#.,.<.v.T.].^.m.%.m.].^.n.<.m.n.m.T.,.=.m. X}.T.^.].^.W.<.v.n.m. XN.,.,.^.[.].^./.3.%.%.%.=.+.| W.T.n.T.W.T.n.%.",
"<.T.<.=.,.W.W.'.n.M.W.W.]./.W.,.T.W./.[.].T.m.'.^.[.].W.'.+X.X^..XW.m.<.=.W.[./..X+X+X/.m.n.<.n.W.W.n.n.n.n.m.W.W.T.m.n.<.m.^. X%.=.<.m.T.T./.@XW.T.<.=.-.-.-.=.",
"<.].W.=.%.,.<.n.M.n.=.v.n.=.<.m.[.[.[. X^.v.,.W.,.m.T.,.%.n.m.=.m.%.n. X].T.n.,.<.n.W.^.<.+.@.<.'.n.v.<.N.].].].W.].].W.,.=.n.^.|.T.T.]./.=.%.T.=.-.<.<.<.<.T.Q.",
") %.,.<.n.n.W.].W.n.n.W./.m.T.]./.T.<.%.+.| =.n.%.T.^.m.<.n.n.<.^.-.<.n.%.| n.].<.%.-.T.W.<.-.n.T.z.%.=.n.W./.].[.[././.W.m.T.W.<.[ [ <./.T.<.<.| =.W.W.n.n.n.W.",
"!.[.[./.T.n.=.n.=.=.<.n.T.T.<.<...,.T.N.m.n.=.=.@.<.m.W.T.n.<.T.n.<.].].<.=.<.T.].T.,.n.T.W.m.n.<.,.<.<.n.m.m.<.T.n.,.<.n.<.<.,.+.<.T.n.%.| %.%.O.<.'./.N.,.,.m.",
"T.^.m.n.n.,.-.W.Q.T.&.| %.2.<.%.<.T.<.=.%.n.<.z.<.n.Y.T.n.n.Y.^.Q.W.W.Y.%.n.T.n.-.<.$.[ | -.T.n.T.~.[.(./.T.T.T.Y.m.Y.,.=.$.@.%.+.v.<.+.<././.>.@.v.^.'.m.v.W.'."
};
