/* XPM */
static char *_ddbd67f3ccf43c3c09428a9380bcca0Aw6WtJgjvihh36NL[] = {
/* columns rows colors chars-per-pixel */
"80 80 240 2 ",
"   c #170A09",
".  c #15090C",
"X  c #1D1215",
"o  c #250C04",
"O  c #2C0B01",
"+  c #340B00",
"@  c #2D1305",
"#  c #25140C",
"$  c #2B140A",
"%  c #331102",
"&  c #3A1504",
"*  c #3A1A06",
"=  c #34160B",
"-  c #33190C",
";  c #241515",
":  c #2A1514",
">  c #2D1A14",
",  c #24161A",
"<  c #281718",
"1  c #24191C",
"2  c #2C1C1C",
"3  c #331712",
"4  c #341B13",
"5  c #391D14",
"6  c #331D1B",
"7  c #391F1B",
"8  c #352114",
"9  c #382112",
"0  c #3B2214",
"q  c #35221C",
"w  c #3A231D",
"e  c #3D291B",
"r  c #261A20",
"t  c #2C1D22",
"y  c #331E23",
"u  c #2D2223",
"i  c #2F2529",
"p  c #342323",
"a  c #392524",
"s  c #352429",
"d  c #382429",
"f  c #3B2A29",
"g  c #392C31",
"h  c #3C3132",
"j  c #441D00",
"k  c #451C06",
"l  c #541C00",
"z  c #4A2508",
"x  c #582A06",
"c  c #4D2B12",
"v  c #472A18",
"b  c #512B12",
"n  c #523210",
"m  c #59341A",
"M  c #5C3A1B",
"N  c #673809",
"B  c #733C04",
"V  c #633B17",
"C  c #62391A",
"Z  c #422C25",
"A  c #483226",
"S  c #573C2A",
"D  c #473534",
"F  c #593C31",
"G  c #73430E",
"H  c #694119",
"J  c #794818",
"K  c #5A402C",
"L  c #5B4436",
"P  c #6C4924",
"I  c #754A25",
"U  c #7E5327",
"Y  c #6F4D33",
"T  c #67534C",
"R  c #8F5317",
"E  c #895318",
"W  c #A45A1F",
"Q  c #88582B",
"!  c #945A24",
"~  c #8C5A35",
"^  c #946434",
"/  c #A46B2C",
"(  c #B9742A",
")  c #A66D3A",
"_  c #AB7138",
"`  c #B37233",
"'  c #BB7A36",
"]  c #B87738",
"[  c #C5751D",
"{  c #C9761A",
"}  c #CD791E",
"|  c #D1791E",
" . c #CD7721",
".. c #CD7923",
"X. c #C67828",
"o. c #CA7B2B",
"O. c #D17B22",
"+. c #C57C36",
"@. c #886948",
"#. c #9C704D",
"$. c #806652",
"%. c #AC7648",
"&. c #9A7D67",
"*. c #91766C",
"=. c #D58225",
"-. c #DB862A",
";. c #DD892A",
":. c #CA823B",
">. c #CA8439",
",. c #D68F34",
"<. c #D68B3A",
"1. c #E18D2C",
"2. c #E6922D",
"3. c #E48F33",
"4. c #E69332",
"5. c #E99534",
"6. c #ED9C35",
"7. c #E5973A",
"8. c #E59B3C",
"9. c #ED9C3A",
"0. c #F19C36",
"q. c #F19D3A",
"w. c #ECA03D",
"e. c #F3A03B",
"r. c #9C855C",
"t. c #B98142",
"y. c #BB8A56",
"u. c #9C8664",
"i. c #9C8B67",
"p. c #97847A",
"a. c #A88767",
"s. c #A48C64",
"d. c #A48D6C",
"f. c #AC8E6C",
"g. c #B68E6F",
"h. c #A4926C",
"j. c #AC936C",
"k. c #AC9A6C",
"l. c #B4946D",
"z. c #B6996C",
"x. c #AC8E74",
"c. c #AC9574",
"v. c #AC9B74",
"b. c #AA987A",
"n. c #B49574",
"m. c #BA9675",
"M. c #B49B74",
"N. c #BC9C74",
"B. c #B4967C",
"V. c #B49D7C",
"C. c #BC9D7C",
"Z. c #ACA27C",
"A. c #B8A375",
"S. c #B4A27C",
"D. c #BCA37C",
"F. c #BCAA7C",
"G. c #C88442",
"H. c #D08D44",
"J. c #DB9A49",
"K. c #C28B52",
"L. c #C18C58",
"P. c #CA9656",
"I. c #D89C57",
"U. c #DA9C56",
"Y. c #E49D44",
"T. c #EB9E43",
"R. c #EA9C47",
"E. c #E49E4B",
"W. c #F09D42",
"Q. c #E59E52",
"!. c #DEA34E",
"~. c #DEA258",
"^. c #E6A244",
"/. c #E5A24C",
"(. c #ECA44C",
"). c #F2A247",
"_. c #E4A355",
"`. c #ECA554",
"'. c #EDAA54",
"]. c #E5A959",
"[. c #F4A654",
"{. c #C79765",
"}. c #D8A96F",
"|. c #C4A47C",
" X c #C4AA7C",
".X c #EAAD66",
"XX c #F7BB6A",
"oX c #E9BA78",
"OX c #EDBC7B",
"+X c #F3BC73",
"@X c #FBBD74",
"#X c #F1BD79",
"$X c #ECC17D",
"%X c #F5C27A",
"&X c #B49E84",
"*X c #BC9E84",
"=X c #B19991",
"-X c #B4A484",
";X c #BCA584",
":X c #BCAA84",
">X c #B9A68A",
",X c #BCAC8C",
"<X c #BCB288",
"1X c #C49E84",
"2X c #C4A684",
"3X c #C4AB84",
"4X c #CCAD84",
"5X c #C4A68C",
"6X c #C4AD8C",
"7X c #CCAD8C",
"8X c #D2AF83",
"9X c #C4B284",
"0X c #CCB284",
"qX c #C4B28C",
"wX c #CCB38C",
"eX c #CABA8C",
"rX c #D6B589",
"tX c #C9AE94",
"yX c #C4B494",
"uX c #CCB594",
"iX c #CCBB94",
"pX c #C9B799",
"aX c #CCBB9C",
"sX c #D4B694",
"dX c #D4BB94",
"fX c #D7BA9C",
"gX c #D4BD9C",
"hX c #E5BB82",
"jX c #EBBD83",
"kX c #E6BC8A",
"lX c #E5BF97",
"zX c #CCC29C",
"xX c #D4C29C",
"cX c #D9C499",
"vX c #EDC389",
"bX c #F3C588",
"nX c #E8C396",
"mX c #F4C993",
"MX c #F2CA9A",
"NX c #E7C4A0",
/* pixels */
"c.C.;XC.c.j.c.j.;X3X;XS.D.:XV.j.v.S.:X:X;XS.qXiX;X;X,XyX,XV.-X6XS.D.S.v.j.c.M.;XqX3Xj.s.S.F.S.3XV.v.S.3XD.c.j.C.l.N.D.4XwXwX XD. XwX0X2XD.D. XD.3X|.D.3XrXwXwX3X",
"C.V.M.V.D.D.V.f.c.M.c.j.V.3X3X;X:XS.v.;XuXdX6XS.S.V.;X6X6XD.;XyXD.3X6X7X6X6X6XwXwXiXwX3X3X;XD.:X;XS.D.;XD.V.M.;X4X3X|.D.|.3XwXiX|.;XD.A.M.M.D.D.2XD.D.D.D.V.M.M.",
"D.;XD.n.n.D.6XwX6XwX6X3X3XqXwX6XqXwXyXqXqXqX,X3X;X;X;X3X;XV.M.D.6X;XC.v.M.D.3XwXV.V.;X,XD.V.;XV.D.S.V.D.S.C.V.n.n.M.C.2XD.C.;XD.2XD.D.D.D.D.M.D.c.M.M.M.c.f.j.M.",
"V.D.2XV.M.;XwXdX;X7XwX6X;X;XC.M.M.;XwXD.d.u.s.V.;XD.D.D.;XD.V.S.C.D.3X7XwX7X;XV.tXV.V.2X;XuXuX2XS.3X6X3X6X6X2XC.C.C.B.n.c.V.2XuXN.c.M.D.2XM.n.M.D.;X2X3X;XD.;X7X",
"C.V.M.D.6XwX6XC.d.n.V.C.C.D.D.V.qXwXqX6X3XD.;XD.S.V.V.3X6XwXuXuX;XM.d.d.c.D.6XwX6XV.B.V.V.;X;Xb.v.;X6X2XD.2X;XC.C.C.C.M.n.V.;X6X3XD.D.2X3X;XD.2XD.D.;X;X;XV.M.M.",
"2X2XV.n.M.C.D.V.|.;X2X;X|.;X7XuX3X3X3X6XwXuX3XD.7X3X3X3X3X3X;X|.;X2X7XrXsXsXwX6Xn.c.v.V.j.d.c.f.V.D.;XM.c.M.D.D.f.M.2X6X2XC.M.j.uX3XD.V.C.;X3XwX6X6X2X6X3X2XC.V.",
"6X6X2Xn.d.c.;X7X7X2X2XC.C.C.D.2X3XqXuXuXwXqXwXuXwXwX7X3XD.C.M.M.uX4X;XM.B.C.2X2X3X7X7X7XwX7X3XwX6XqXwX6X3X2X3X5X4X4X3X X3X3XwXwX;X;XV.j.j.M.D.;Xn.c.d.j.c.c.j.c.",
"3X2X;XD.3X7X3XD.V.N.V.C.C.|.;X2X2X;XM.c.n.V.V.D.D.|.3X|.2X3X4XwX7X3X2X2XD.|.D.2X4X3XD.N.wXwXD.2X3X6XqXuXqX2XV.n.N.N.3X7XrXwX3X X7XuXsX6X2X6XuX6XtX6X2X;X;X;X5X6X",
"j.j.n.;X6XwX6XD.D.N.M.z.j.j.j.j.j.j.c.M.;X3X7X6XM.c.f.d.d.n.M.N.j.V.D.C.c.j.c.M.;XD.C.V.M.n.M.C.c.n.N.C.C.2X3X7X:XD. XqXwX3X3XwX3XwXrXqXD.n.M.D.D.;X6XwX7XC.M.C.",
"2X;XD.;X3X6X3XD.6X3X2X;XD.;X3X3X3X3X;X3X6X7XqX3X;X3X6XwXwX4X2XC.;X2X2XD.D.2X7XwX;XD.D.C.M.f.u.u.f.n.V.C.C.V.n.j.3XD.M.C.:X3X3X3XM.M.n.C.3XwXwXwX6X6X7X6X3X7X6X7X",
";XC.M.M.C.D.;X2Xd.d.f.j.B.D.6X7XyXqX6X3X3X;XD.;Xh.c.M.C.6X7X7X7XN.D.D.3X3X3X;XD.C.V.;X6XwXwX3X2XC.2X3X7X3X2XD.C.D.C.c.j.l.C.D.D.c.M.D.D.M.M.C.D.n.n.c.f.j.V.2XD.",
"2XD.;XC.;X2X6X7XsXuXuXtXuXuXpXsXsXuXsXwX6X3X3X3XiXwX:XD.V.V.C.C.V.;X3X7XwX7X2XD.D.n.c.M.;XD.V.M.7X3X;X2X2X6X3X2XC.2X4XM.f.n.;X7XD.c.d.M.wXfXuXD.1X2X|.V.D.uXiXuX",
"uXwXuX6X3X;XD.D.V.*XV.*XD.*XC.&X;X3X6X3X3X;X6X6X3X6X6XwXwXwX7X3XD.D.;XD.D.3XwXdXgXsXwXwXuX6X3X;X3XD.M.c.c.n.c.j.V.3X7XC.f.j.N.M.V.3XwX7XV.c.n.V.|.7X7X2XwXgXgXwX",
"wXuXwXwX2XC.B.M.c.n.V.V.D.;X;XD.M.M.S.;XD.;X3X6XxXgXiXuXqX;Xv.j.C.C.D.V.N.V.D.3X2X2X3X6X. X . 3XuXwX6X7XuXuXwX6X2X2X;XC.C.C.. , . j.c.V.2X3X;XV.M.C.D.V.C.D.D.M.",
"3X6XwX6X2X;X3X6XwXwXwXwX6X2XD.C.6X6X7XwXuXuXuXdXiXiXqXqXwXuXsXuX3X7XwXsXwX3X2XD.6X6X7X3Xu s u ;Xv.c.j.V.D.3XD.V.6X6X3XtXuXqX, g , 6X7X3XV.B.C.3X6XwX6X6X2XD.V.M.",
"c.n.M.M.M.M.;X7X;X|.3X3X4X3X0XwXuXdXuXiXdXdXdXdXiXuXqXwXuXwXuXuXsXwX6XwXwXuXwX4X6X7X6X;X@ @ o 7XqX3X;X2XqXwX6XD.d.d.b.;X;XV.  4 o x.d.d.c.*X;X6XqX6X3X;XM.f.f.g.",
"S.:XyXyXqX<XwXzXwXF.D.D.D.D.D.|.V.D.6X6X;XV.c.c.D.D.;XM.j.j.M.D.F.:X XD.C.n.x.f.c.D.3X=XG J I b.3X0X9XD.A.3X3X X3X0XwX0X:X&.I I I $.wX3X3X3XwXdX0XD.M.D.6X6XM.i.",
"qXqXwXiXiXgXgXgXcXdXwX;XC.N.2XwX6X6X3X;X;X;X3X6XV.D.3X3X3X:X3X:X3X:X;XS.V.C.*X1Xg s p v R.Y.~.C > a 1 D.qXrXwX:XF.3XwXg 4 U ~.E._.%.a 1 dXwX3XD.A.3X3X6X6X6XwXcX",
"V.D.;XD.;XD.D.S.c.c.c.c.c.c.n.V.;XD.b.f.u.r.u.u.;XD.b.c.c.M.D.;X:X3X3XwX7X7X2XC.8 - @ & ^.8.~.M 4 p , V.M.M.d.r.N.M.N.5 % G ].J._.y.a 1 ;XV.;XdX0XwXwX6X;XV.v.v.",
"6X7XwX7X|.V.C.D.5X;X2X6X7X6XC.c.M.C.;X;X3X6X;XV.c.n.V.;X;XV.d.u.M.V.;X7X7XD.C.n.H N N G ]._.}.M 6 p , 6X>X6XuXuXwX7X&.H N ! .X_..Xa.a 2 ;XM.C.3X3XD.c.d.d.c.S.:X",
"C.C.C.M.n.f.d.f.V.V.V.V.*X*X*XV.c.v.;X;X6XwX3X;X6XD.n.V.;X6X7XuXS.C.D.3X6Xu < v {.~.~.].%X+XvXS 2 p i 1 < < < < 2 o ~ ~.~..X@X@XbXm.a < D.;XV.j.s.j.D.;X;X;XyXxX",
"7X;XC.D.6X6X|.M.d.C.7X6XD.V.;X6XwX6X3XV.D.6X,XD.c.c.V.7XfXuX6X;X;XD.;X3X6Xs q c I.^.^./.OX$XnXS < p t y d y y d s - Q E.J.].%XoXmXm.w < M.V.D.V.C.D.6XuXyX6X;XS.",
"2X;XD.2X6X7X6X;Xn.3XwX2XM.j.h.j.S.V.c.d.c.;X6X;X;Xc.c.V.V.V.C.;Xc.x.c.;XD.a q c I.8.8./.jXjXnXS @ 5 = - 3 3 5 5 5 % E Y.Y.].%XOXmXm.q 1 6XV.V.V.wXD.j.d.&X6X6X,X",
"j.V.3X;XM.n.S. X1XN.j.j.M.3X3X3X;X5XD.V.C.3XD.c.5XV.&X6X6X;XV.V.C.c.n.D.2Xa 6 c }.]./.].jXjXjXI x x x x N N N x x x / _._..X#XoXmXB.a 2 ;X;XC.;Xj.v.;X>X6X,X;X-X",
"6XD.c.V.6XwX6X;XD.V.M.v.V.D.yXgX6X6X6X6X;X-X;X;X3X;XD.:X,X:X,XqXqX:X6XgXiXp 6 A rX$XOX$XbXbX#X>.( X.X.<.T.R.<.o.o.( J.#XOXOXOX#XvXM.d t d.d.c.V.S.S.S.S.S.:XS.c.",
"uX6X;XD.;XV.M.c.S.V.c.f.d.d.V.3X3XV.j.d.u.u.d.c.;X3XqXuXdXiXiXyXD.c.h.D.:X8 @ c hXOXOXOX#X%X@X>.[  .[ 1.0.q.-. . .[ J.+X%X#X#X+XbXz.5 4 V.:X6XwXqXqX3X6X6XqXqXwX",
"d.c.V.;XS.;X3X6X2X;XD.V.M.V.3XaX6XV.d.d.v.;X3XqXV.D.V.V.-XqXqX:X;XS.;XqXwXz z N OX@X+X@XXXXXXX,. ...} 4.0.q.-. .} [ J.XXXXXXXXXX%XK.x z L 6X6X:X3XC.M.V.M.c.n.V.",
"V.2X6X6X2X;X6XwXfXuXqX6X;XS.;X6XuX6XS.;X3X6X:X5X3X6X3XD.6XiXuX:Xj.i Z w L P.P.P._.`.J./.E.E.(.o.[  .[ 3.0.q.-. .} [ ,.^././.(.Y.^._.P.{.a.v Z g 6XD.V.;X2XM.c.M.",
"d.c.M.S.;X3X6XuX6X6X3X6XwXtX6XwX6X;X3X6X6X6X;X;XD.,X3X:X6XsX3Xc.V.; s > M E.Y.Y.T.9.9.9.9.9.8...[ [ } 4.0.q.-.} O.{ ;.9.9.T.9.9.9.9.Y.].y.* q 2 3XV.n.D.6X;XD.;X",
"6X2X;X;X;XV.c.f.d.u.u.c.D.;X;X;XD.S.;X6XqXwXuXfXiXuX6X2X3XwXuX3X3X; s 4 C 9.9.6.9.9.q.q.q.0.9.=. .O...4.q.q.-.} O.{ ;.q.9.9.9.6.6.6.6.(.y.j 8 2 gXqX:X7XwXuXuXdX",
";X3X6XuXdXgXuX6XwX6X;X6X6X6X3X;X6X6X;X;X;X;X;X3XqX3XV.c.c.M.C.C.f.; a 4 C q.9.9.9.9.q.q.9.6.6.=.} | } 4.9.q.-.} O.{ ;.9.9.9.q.6.6.6.6.(.y.j 8 2 :X:X;XS.S.D.S.;X",
";X;X6XuXdXuX2XV.x.s.d.c.V.;X2X6X6X6X:X6X6X6X6XuX6X6XwXuXwXC.n.j.f.; s 4 C 9.q.q.9.9.q.q.q.6.e.4.5.9.4.6.q.q.;.} O.{ ;.q.0.0.0.6.6.6.6.(.K.j 8 2 S.3XuXqX6X6XqXqX",
"d.c.D.3X6X3X6X6XF.3X3X X3X9XwXwXD.2X2X2XC.M.n.j.d.j.v.V.D.:X6X6X;X; s 4 C 9.9.9.9.9.q.q.q.0.6.9.w.9.7.q.q.q.;.| O.{ ;.0.6.9.9.9.9.q.6.(.K.j 5 < qXwXS.;X3X;XS.s.",
"2XD.S.C.S.3X6XwXsXiXdXwXwXwX:XD.M.c.j.j.C.;X;XD.3XqXuXdXuXqX6X3XqX; s > C 9.9.9.9.9.q.q.0.9.8.Q._.Q.Q.8.0.q.-.} { { 1.4.9./._._.`.R.9.(.K.z 0 2 3X:Xc.c.D.3XiX6X",
"6XD.j.d.j.M.V.S.j.c.j.c.V.3X3X3X7X3XC.V.V.C.M.V.:X6XwX3X:XD.D.;XwX, d 3 C 9.9.9.6.9.q.q.0.q.Y.R B B B =.4.e.5.3.4.1.6.9.).' B G B R 9.(.K.j 5 2 3XuX3XqXuX:X;Xj.",
"gXqX2X;X:X6X3X;X7XwXuXwXuXdXdXiX6XuXuX6XD.M.V.D.D.D.;XD.V.S.3XqX;X; d 3 C 9.6.9.6.9.6.6.9.q.E.N & * j ] 9.6.9.9.9.9.9.9.`.) & * & B 8.(.K.j 5 2 6XqXD.;XS.M.;XD.",
"3X3X:X3X3X;XD.V.d.M.2XD.V.j.d.d.3X6X7X3XV.c.M.S.;XD.;XS.S.D.6XwXuX; d 3 C 9.6.6.6.6.6.6.9.9.Q.M - q * ] 9.6.9.9.6.9.6.6.`.#.& w - G 7.(.K.j 5 2 d.D.6XiX7XV.M.c.",
"6X6X7X6X6X3X6X3XV.6X6X,XD.;X7XuXwX;XM.v.V.D.D.S.;X:X3X:X;XD.S.V.;X, d 3 V 6.6.6.6.6.6.6.6.9.Q.M > p * ] 9.6.0.0.0.0.0.6.`.#.= q - G 7.(.K.j 5 2 gXdX6X:XM.d.S.3X",
"D.D.D.D.D.V.V.M.;XD.C.c.u.d.V.;XD.v.j.M.6XiXdXuX3X6X6XwXqX6X;XD.7X; s 4 V 6.6.6.6.6.6.6.6.9.~.M > p * ] 9.5.0.0.0.0.0.6.`.#.= 6 @ N 7.(.K.j 5 < :X6X3XwXuX:X6X3X",
"3X:X6X6X6X3X;XC.;X6XuX6X6X6X3X6X6X6X6X,X6X6X:X:XD.S.V.D.3X3X3X;XC., s 4 M w.9.6.6.6.6.6.6.6._.M 4 a & ] 9.6.6.5.0.e.e.6.`.#.% a - N 7.(.K.j 5 2 3X:XM.:X6X:X3X;X",
"iX:XM.v.c.i.h.-XD.6XV.u.a.S.6X6X-XV.v.M.V.v.b.c.h.v.;X,X:Xv.c.h.s.. 1   b [.[.[.W.W.).e.6.e.E.x % * + ` w.6.(.'.(.(.).5.[.) + * O N 8.(.K.j 5 2 D.D.D.D.D.3X6X3X",
"D.D.qXuXwX6X>X;X6X2X;X6X6X;XV.6X7X6X;X;X;X;XD.;X6XqX6X3X:X6XwXqX6XqXqX6X&.! W W <.,.;.1.0.6.R./ ~ ~ ! <.9.^.( R ! W ( 0.W.:.! ~ ~ / 8.(.K.j 5 2 3X9XwXdXdX7X;XD.",
"6X6X3X;X-X6XwXuXv.c.j.D.;Xc.d.;X;X6XuX3Xv.c.;XuXwX:XS.c.c.v.S.S.qXuXdXgXiX* + l (  . .| 0.6.9.(.`.'.(.T.q.`.E O & + R 6.0.).(.`.'.(.7./.K.j 4 < 3X3XwX3X;X;XD.;X",
"wXuXsXuXwXuX6X6X2XqXuX6XuXdXdXdXgXuX6X6XuXuXuX6X6XqX6XqXwXiXgXdXuXwX6X6X:Xa w b +... .O.0.0.9.e.e.q.6.6.5.`.Q 5 a & ! 9.6.0.q.5.9.9.7._.L.z 7 d 2XD.S.M.M.M.2X6X",
"V.c.V.;XS.c.c.M.c.6X6XC.;X6X6XV.V.V.M.V.M.V.V.C.M.;XwX6X3X6X3X:X3X6XwXiXdX: O j ] .. .O.0.9.9.6.6.6.6.6.6.'.U O - O E 9.6.9.e.q.9.T.(..X{.+ o X D.2X3X3XqX7X3X:X",
"uX;X;X3X;Xn.M.3Xc.V.M.c.V.V.V.2XD.2X6X3X;XC.D.6XD.6XwX7X:X2X:X;XD.;XwXuXuXY I ! +... .O.9.q.9.5.4.e.q.6.5.(./ J U J ` 9.6.9.9.9.).<./ ^ #.*.V.D.6X3X6XwXuX9X3XA.",
"B.B.;X6X3XV.j.j.;XV.h.c.M.c.V.uXfXV.d.f.6XuX;Xa.d.M.V.V.D.3X# X X X #   n ].].Q... .} | 0.6.6.6.6.6.6.0.6.9.(.'.'.`.R.9.q.0.6.5.(.t.& o D 2X;X;X6X6X;XD.D.|.D. X",
"n.B.n.f.c.D.7XwX3XuXuX6XuX6X2X6X3X6X2XC.M.n.V.C.;X6X2XC.V.;Xf a a a a - H 9.q.9.O.|  .O.6.6.6.6.6.6.6.6.0.6.6.6.6.9.9.6.6.6.4.5.`.%.Z t L V.c.c.D.D.2X;XD.3X3XwX",
"S.S.:XyXuXqXqXqX3XM.D.3XS.D.qX6XA.:XqXiXuXqX9X9X2XD.D.:X2X*.P P P P P V E 9.6.6.| } O.| 4.4.4.4.4.4.4.4.4.4.4.4.4.2.1.4.7.<.( ' %.#.wX6XD.V.n.n.:XV.M.V.D.C.c.f.",
"3XV.h.c.X 1 1 1 1 , g F.M.M.:X;XF.S.M.6XaXcXiX3XS.2X. u $ Y ~.!././._._./.6.e.4.| { } } } } } } } } | | } } } } } } }  .>.! j k @ T 3XD.V.n.j.l.:XD.V.M.n.M.C.|.",
";XS.:X6Xr s u s d t h 4XM.C.2X2XD.3XuXqX;XV.A.S.3X3XX f = U 9.6.6.6.9.9.9.9.q.5.O.} }  . .} } } } } O.O.} } } }  . . ...:.~ & w ; 3X6X3X3XD.2X;XM.D.V.d.s.c.C.D.",
"d.V.3XqX, u t p > < g 2XM.n.V.C.3X:X:X6X6X6X3X3XD.D., f $ U 9.9.9.9.9.9.9.).W.7.O. . . .O.} } } } } O.O. . .}  . . . ...+.~ & w ; 3X3X3XD.D.C.C.3XuXwXD.C.;X7X6X",
"uX3X;X3X1 p p a S S L 3X2Xn.n.*XA.;X;X;X&XS.;XF.sXwXX a @ U 9.9.9.9.9.9.7.+.:.:.X. ... . . . . . . .O.O. . . . . . . ...+.~ & w ; wXqX3X;XD.V.N.C.;X2Xn.c.D.2XD.",
"3X;XM.c., d > S lXNXfXe > 2 2 2 2 t t t t t t u u u p 6 = Q 6.6.6.6.6.).>.j j x ] o...} ........ . . . . . . . .O. . ...:.~ & w , 3XqX6X7X3X3X3X2X3X|.V.;XwXuXqX",
"S.;X2XD.1 d 5 S kXnXsXv w p p p d d d d d d d p p p p 7 % Q q.9.6.6.9.).G.8 4 b ] o...} ........ . . . . . . . . . . ...+.~ & a , M.D.D.D.2XD.D.C.V.V.C.D.;X3X:X",
"2XV.j.j.u D D L rX8X7XS v A c c c c c c c c c c c v c z l ! 4.q.9.9.8.Y.+.c z x _ ` ` ` ` ` ` ` ` ` ] +.>.+.' ` ` ' +.o.G.~ * a < :X3X3X;XC.M.j.C.1X3XuXsXwX:X3X",
"C.wX6Xf.d.C.D.f.e 0 c sXlXkXoXJ.J.I.I.I.I.I.] ' ] ' %.] +.+.| | | O.O...o.' ' ) z j z z k k k k k z & y.oXbX~ % z % ^ #XmXa.@ w ; V.j.c.D.wXwX2X:X:XD.3XiX-Xj.S.",
"wX2X;X3X3XC.D.6Xp 6 v sXkXOX+X8.w.9.T.T.T.R.[ ......o.o.o...} | | O.O. ...X.o._ z 8 6 6 6 6 6 y p p - l.oXMX$.: a @ @.jXmXa.@ w ; D.2X3XwXqXD.M.c.D.V.v.;XD.c.c.",
"V.c.N.6XD.u.f.3Xu 2 v sXlXjX+XY.9.T.T.T.T.R.[ ....X.X.X.....} | | | | | O.X.o._ z 8 6 q 6 6 6 p p p - l.hXMX$.: a $ @.jXMXa.@ q < 3X3X3X;XD.D.D.3XuX7X2X6XwX;XC.",
"M.D.;X:XD.M.c.V.i 2 Z pXnXkXhXI.I.I.I.I.I.I.` ' ' ' ' ' ' +.} } | | | } ..o.+.) z * 0 0 9 0 0 q p p - l.hXMX$.: a $ @.jXMXa.$ p < 3X;XD.V.M.:XsXuX2XD.2X2Xn.s.f.",
"uXqX3X3XuXiX3Xj.D.D.D.D Z A v n b b b b b b b b b b b b z E  .} } }  .X.>.+XoXoX}.}.rX8X8X8XsXF : d - g.oXMX$.: a $ @.jXMXa.@ a < :X2X3X3X3X6XwX6XC.C.2X;Xn.c.n.",
"uXwXuXuXwX6X;XD.dX6X|.f < 2 2 > > 4 > 6 6 6 6 6 6 6 6 4 * I .. . . ...X.H.OXbXbXbXbXbXbXvXvXnXF : d = g.hXMX$.> f $ @.hXMXd.$ q < D.D.;X3X3X3XD.C.D.6X3X;XsXdXD.",
"qXwXiXdXuX:X3XqX6XD.V.D p p d s a d d d d d d d s a a w 5 I o.o.o.....X.H.OXoXOXjXvXjXjXjXhXnXF : d - g.oXMXT : d # @.hXMXd.$ a < D.D.M.V.3X3XS.j.c.V.V.M.3X6Xc.",
"6XS.h.c.:XfX:Xd.s.c.|.6X;XN.V.|.6XV.V.3XqXD.k.z.F.3XwXwXD.p.m m m m m m S L S S K K S S K L S f p 6 > A S L Z < p 6 Z L F *.2XV.j.;X6XD.;XwXwXD.qXS.3XiX6X:X:Xb.",
"iXqXF.S.qXiXuX6X;XS.;X3X6X3XF.2Xv.k.v.D.9X9XqX:X;X2X3X6X:X;X6 6 6 6 6 > > > > > > > > > > < < 2 p p 2 y < > 2 p 2 p p 2   D.;X3X;XuXdX;XM.D.V.j.v.-X6X3XD.c.j.n.",
":X-XS.Z.:XuXiXuX-XS.D.qXwXwXqX4XcXqXD.:XuXiXqXD.j.d.d.v.;XqXf a a a a d s y p p d d p p p p p p d t t p u p u u t p p d ; 6X;XD.6XwX3XV.V.:XuXuXwXqXqX6X:X;X3XuX",
"<X9X9X;XS.S.;X-X3X;XS.;XwXwXwXrX-X;X-XM.V.:X,X:XwXuXwX6X2XD.t , , , 1 1 1 , , , 1 1 , , , 1 1 1 1 t X 1 1 1 1 1 1 2 , 1 . wX;X;XD.3X6X3X3X6X6X3XyXqXqXwXuX6X3X:X",
"qXiXiXuX,X;XS.V.qX:X6X3XqX3X3X7X6XfXfX6X;X:XuX6X6XwXuX:XM.v.;XwX;XD.V.S.wXiX6Xv.:XD.M.j.c.M.;X3XS.6XuXuXuXgXfXqX:X:XwXgXdX6X3XqXuXwX:XV.v.M.6XdXuXwXwXuXwX:XV.M.",
" X3XqXwXwXyXqXuX-X3XuXxXdX9XD.D.6X,X;X;X6XpXuX6X;XD.M.j.v.;X3X6X;X6X3XS.V.;XwXqX3XwXwXqX3X;X3X3XuXaXiX:X;X,XqX:XV.3XuXqX:X;XD.:X3XqXwX6XD.;XqXxXiXwXqXqX3X;XD.3X",
":X;XD.D.;X;X,XyXS.-X:X3X3X3X3XwX6X6X6XqXuXdXuXuXqXqX6XS.S.3XuXwX6XwXqX3X3X6XwX6XqXuXyXS.i.u.v.aXiXuXuXgXiX;XV.S.:X6X:XD.V.D.V.d.j.:XgXxXiX6X:XD.D.;X3X6X:X;X:XqX",
"D.D.D.;XS.M.V.;XqX;XS.V.D.F.4XwX3X|.:X2XM.d.s.M.S.6XqX;XD.;XwXsX;XS.V.:XwXuXD.h.c.-XuXgX,Xc.h.;XgX:Xb.c.h.h.-XuXdXwX6X3X6X6XM.h.;XwXuX:XD.;X3XD.c.V.;X3X:XS.;X:X",
"l.M.2XqXwX,XqXuXiXqX3XqXdXwX3X|.D.j.j.D.4X3X3X3XiXwXqX;X:X3X;Xj.3X3X3XqXuXqX3X;X>X&X>XuXaX,XtXaXyXdXiX,X:XqXuXuXuX6XqXdXgXwX6X6XD.6XqX;X2XqX3XV.wX3X;XD.V.V.:XwX",
"s.d.j.3X6XS.V.yXiXqXqXqXF.A.S.:XeXqXS.v.S.yXgXaXyXqX-XA.v.v.:XyXiX:X:XqX;XV.-X3X,X:X3XyXqX;X:XqX3X3X3XF.D.D.F.3X<XqXqXyXeXyXqX<X0X3X X3XD.c.V.;XD.F.F.S.F.F.9XqX",
"j.M.V.6XdXuXqXaXqX6X;XM.S.F.qXeXqXqXwXyXuXiXqX,XwXqXqXqXyXiXiXgX:X;X,XD.h.h.:XqXj.h.d.c.:XiXiXuXwXwXwX6X3X;X3X3XyX;Xv.S.:XqX:Xv.j.S.3XD.j.s.M.6X:X:X:X3XwXqXqXqX",
"0XwX3XD.:XS.c.c.6XyXqX6XyXxXxXwXqX3XS.S.S.-X6XuXb.S.D.-X3XuXqX:XM.:XuXqX;XD.:X;X:X3XS.V.:XdXaX3XqXuXqX6XD.-X;X:XdX,XS.S.qXiXuXqXwX XM.M.M.V.c.j.6X3X;X3X6X3X;XM.",
"D.3XD.V.S.6X6XyX;X>X6X6XuXwX6XS.3X6XwXiXuX3X:XyXqXiXuX6XyXxXgXqXgX6X:XD.V.6XiXwXfXxXxXwX:X;XD.;X6X6X;X;X;X;X:X6X6X3X:X;XD.:XqXdXM.V.D.:X3X3XwXcX6X3XD.V.C.C.C.V.",
"D.uX6XV.M.S.D.;X>X;XV.-X;XV.D.:XiXiXiXdXqX-XS.6XS.:X3XS.M.;X:XV.:XM.;XdXuX3X;XS.D.;X6XqXD.c.v.D.yX;X-XD.,XuXuXuX6XuXuX6XS.V.;XqXsX3X3XuXwXV.M.3XV.C.D.D.D.D.3X7X",
"r.M.S.D.;X;X6XuX6X;X;X6XwX:X3XuXwX3XD.M.c.j.V.;XM.3XqX:XD.;X;XD.qXC.D.;XM.j.;XuXD.M.C.3X6XD.C.;X3X&XM.V.;X6XwXuXiXiXwXwX6X:X3X6XD.d.d.D.wX3XD.D.j.V.6X6X;X;X;X6X",
"9XiXiXwX3X;XV.;XV.V.D.;X3X3XD.D.z.S.3X,X:X;XV.V.v.D.:X6X3X;XD.3X;XD.uXuXD.V.D.3XuX3XS.;X3X6X:X;XD.S.D.D.;X:X:XD.3X;XS.D.;XD.D.S.c.D.3X;XM.j.M.M.h.D.yXwX,XS.S.:X",
"3XqX:X;X;XS.C.6X7X3XN.j.M.|.D.M.D.3XD.V.M.;XD.&XD.;X2X3X;X;X2XqX7X6X6X2XM.;X3X;XC.D.n.d.j.C.3X;X3X0XiXeXwX3X3X3X2X:X2XS.V.n.v.M.c.-XD.c.D.wXwXA.v.-XqXyX:X-X6XyX"
};
