/* XPM */
static char *_52163fceb1c4a11dc680ab287c48e20xcILAEpqx3vEBcKn[] = {
/* columns rows colors chars-per-pixel */
"80 80 231 2 ",
"   c #1E170D",
".  c #1E1812",
"X  c #1E1A19",
"o  c #24160E",
"O  c #24190E",
"+  c #281B0D",
"@  c #261A11",
"#  c #251813",
"$  c #211A1A",
"%  c #28201C",
"&  c #3B2619",
"*  c #3C2819",
"=  c #4B3119",
"-  c #68390F",
";  c #693714",
":  c #663B13",
">  c #6A3C13",
",  c #633B18",
"<  c #6A3D19",
"1  c #723C12",
"2  c #453826",
"3  c #643F22",
"4  c #5F431F",
"5  c #65411C",
"6  c #6E421A",
"7  c #70431A",
"8  c #744619",
"9  c #5D4325",
"0  c #634121",
"q  c #6C4827",
"w  c #7D4B22",
"e  c #7F4E29",
"r  c #7F5427",
"t  c #674F33",
"y  c #694D35",
"u  c #68553E",
"i  c #71563A",
"p  c #73583B",
"a  c #5D5650",
"s  c #6C5645",
"d  c #775C45",
"f  c #7E634B",
"g  c #5D6473",
"h  c #5C667B",
"j  c #74706F",
"k  c #616678",
"l  c #7F7875",
"z  c #80501C",
"x  c #9C6A1D",
"c  c #824D23",
"v  c #855427",
"b  c #855429",
"n  c #895529",
"m  c #8F5A2D",
"M  c #91592C",
"N  c #945D31",
"B  c #9A6625",
"V  c #9D662B",
"C  c #9C682D",
"Z  c #8C6439",
"A  c #946133",
"S  c #956537",
"D  c #996636",
"F  c #9C6A32",
"G  c #996539",
"H  c #956A3D",
"J  c #9C6D3B",
"K  c #9E703D",
"L  c #A0652B",
"P  c #A1692F",
"I  c #A46A36",
"U  c #A46D35",
"Y  c #A56F3A",
"T  c #A27035",
"R  c #AB773C",
"E  c #B17E3F",
"W  c #826448",
"Q  c #966B41",
"!  c #986A41",
"~  c #9C7246",
"^  c #9A7954",
"/  c #A37345",
"(  c #A77648",
")  c #B17D42",
"_  c #BC7F4D",
"`  c #A67E51",
"'  c #A87D51",
"]  c #8A796E",
"[  c #827A77",
"{  c #837A79",
"}  c #B19034",
"|  c #98885C",
" . c #AD824A",
".. c #BA824C",
"X. c #AC8356",
"o. c #BD8251",
"O. c #BD8C55",
"+. c #B78658",
"@. c #BD8D5A",
"#. c #BE9157",
"$. c #BE915A",
"%. c #9C8664",
"&. c #9C8C68",
"*. c #A78964",
"=. c #A48C64",
"-. c #A48D6C",
";. c #AC8E6C",
":. c #A5936C",
">. c #AC936C",
",. c #B79467",
"<. c #AE8E74",
"1. c #AC9574",
"2. c #AC9B74",
"3. c #AA997A",
"4. c #B49574",
"5. c #B49B74",
"6. c #BC9C74",
"7. c #B4967C",
"8. c #B49D7C",
"9. c #BC9E7C",
"0. c #ACA27C",
"q. c #B8A375",
"w. c #B4A27C",
"e. c #BCA37C",
"r. c #BCAA7C",
"t. c #C39D46",
"y. c #C08C55",
"u. c #C28E5C",
"i. c #C09455",
"p. c #C2925D",
"a. c #CDA94D",
"s. c #C39461",
"d. c #C89562",
"f. c #C5996A",
"g. c #D2A46F",
"h. c #DFBE63",
"j. c #CDA375",
"k. c #C4A47C",
"l. c #C4AA7C",
"z. c #D4A671",
"x. c #D9AE7F",
"c. c #DDB37A",
"v. c #F3DA58",
"b. c #F6E248",
"n. c #EECD72",
"m. c #FFEC60",
"M. c #5D6B82",
"N. c #566888",
"B. c #5A6B8C",
"V. c #5D718A",
"C. c #5B6C94",
"Z. c #5E7092",
"A. c #626C82",
"S. c #64768F",
"D. c #7A7C88",
"F. c #697EA9",
"G. c #7E8182",
"H. c #7489AE",
"J. c #778BB7",
"K. c #758DB7",
"L. c #788DC1",
"P. c #7E95C3",
"I. c #7E94CA",
"U. c #AC9F8D",
"Y. c #B49E84",
"T. c #BC9E84",
"R. c #A89E9B",
"E. c #B4A484",
"W. c #BCA584",
"Q. c #BCAA84",
"!. c #B9A789",
"~. c #BBAF8D",
"^. c #BCAC8C",
"/. c #A8A09C",
"(. c #8296BB",
"). c #A7A0A0",
"_. c #C49E84",
"`. c #C4A684",
"'. c #C4AB84",
"]. c #CCAB84",
"[. c #C4A68C",
"{. c #C4AD8C",
"}. c #CCAE8C",
"|. c #DAAF80",
" X c #C8B486",
".X c #C4B38C",
"XX c #CCB28C",
"oX c #CCB48C",
"OX c #D9B487",
"+X c #CCAE94",
"@X c #C4B394",
"#X c #CCB494",
"$X c #CCBB94",
"%X c #CEB49A",
"&X c #C9BA99",
"*X c #D4B694",
"=X c #D4BA94",
"-X c #D4BD9C",
";X c #D9BA99",
":X c #E6BB87",
">X c #EDBF8B",
",X c #F0BF8E",
"<X c #E9BE91",
"1X c #CCC29C",
"2X c #D4C29C",
"3X c #D8C398",
"4X c #ECC184",
"5X c #EEC18D",
"6X c #F0C28D",
"7X c #E6C395",
"8X c #ECC393",
"9X c #E8C79F",
"0X c #F2C491",
"qX c #DCC5A8",
"wX c #DCC5AA",
"eX c #E7C6A2",
"rX c #E2C4AA",
"tX c #8398C7",
"yX c #839BCA",
"uX c #8EA5CD",
"iX c #8EA5D2",
"pX c #93A9D5",
"aX c #9DB3D8",
"sX c #A0B6DB",
"dX c #9DB4E2",
"fX c #A3BAE4",
"gX c #ABC4E8",
"hX c #ABC4EA",
"jX c #B2C8EB",
"kX c #AEC6F4",
"lX c #B3CAF3",
/* pixels */
"1.9.W.9.1.>.1.>.W.'.W.w.e.Q.8.>.2.w.Q.Q.W.w..X$XW.W.^.@X^.8.E.{.w.e.w.2.>.1.5.W..X'.>.=.w.r.w.'.8.2.w.'.e.1.>.9.,.6.e.].XXXXl.e.l.XX X`.e.e.l.e.'.k.e.'.OXoXXX'.",
"9.8.5.8.e.e.8.;.1.5.1.>.8.'.'.W.Q.w.2.W.#X=X{.w.w.8.W.{.{.e.W.@Xe.'.{.}.{.{.{.XXoX$XoX'.'.W.e.Q.W.w.e.W.e.8.5.W.].'.k.e.k.'.XX$Xk.W.e.q.5.5.e.e.`.e.e.e.e.8.5.5.",
"e.W.e.4.4.e.{.XX{.XX{.'.'..XXX{..XXX@X.X.X.X^.'.W.W.W.'.W.8.5.e.{.W.9.2.5.e.'.XX8.8.W.^.e.8.W.8.e.w.8.e.w.9.8.4.4.5.9.`.e.9.W.e.`.e.e.e.e.e.5.e.1.5.5.5.1.*.>.5.",
"8.e.`.8.5.W.XX=XW.}.XX{.W.W.9.5.5.W.XXe.-.%.=.8.W.e.e.e.W.e.8.w.9.e.'.}.XX}.W.8.+X8.8.`.W.#X#X`.w.'.{.'.{.{.`.9.9.9.7.4.1.8.`.#X6.1.5.e.`.5.4.5.e.W.`.'.W.e.W.}.",
"9.8.5.e.{.XX{.9.-.4.8.9.9.e.e.8..XXX.X$ $ @ + + + + + + + + + + + + + + + + + + + + + + + + + + + + + + + + + + + + @ @ % 8.W.{.'.e.e.`.'.W.e.`.e.e.W.W.W.8.5.5.",
"`.`.8.4.5.9.e.8.k.W.`.W.k.W.}.#X'.'.'.$ a f W W W W W W p p p W p i i i i i i i i i i i i i i i i i i i i i i i i i p s % 9.5.>.#X'.e.8.9.W.'.XX{.{.`.{.'.`.9.8.",
"{.{.`.4.-.1.W.}.}.`.`.9.9.9.e.`.'..X#X@ d ,.o.+.@.@.@.@.Y Y ( @. .J K K K K K K K K K K J J J J J J K K K K K K K J K ~ * $ XXoXW.W.8.>.>.5.e.W.4.1.-.>.1.1.>.1.",
"'.`.W.e.'.}.'.e.8.6.8.9.9.k.W.`.`.W.5.O d @..._ o.o.o.o.Y Y ) ..) U Y Y U Y Y Y Y Y Y Y Y Y Y Y Y Y Y Y Y Y Y U U U T H * $ '.l.}.#X*X{.`.{.#X{.+X{.`.W.W.W.[.{.",
">.>.4.W.{.XX{.e.e.6.5.,.>.>.>.>.>.>.1.+ d +.o.c n n b b c c c b c w w w w w w w w w w w w w w w w w w w w w w 8 8 z F Z * $ '.oX'.XXOX.Xe.4.5.e.e.W.{.XX}.9.5.9.",
"`.W.e.W.'.{.'.e.{.'.`.W.e.W.'.'.'.'.W.O d +.o.; > < 1 > : : - - : : : : : : : : ; ; ; ; ; ; ; ; ; : : : : : > < > 1 F ! * X '.'.5.5.4.9.'.oXoXXX{.{.}.{.'.}.{.}.",
"W.9.5.5.9.e.W.`.-.-.;.>.7.e.{.}.@X.X{.@ d +...; < w b v r r r r c b b b b b b b b b b b b b b b b b b b b b v 6 < 1 F H * $ e.e.1.5.e.e.5.5.9.e.4.4.1.;.>.8.`.e.",
"`.e.W.9.W.`.{.}.*X#X#X+X#X#X%X*X*X#X*X@ d +.o.; < b N N A A N N N A A N N N N N N N N N N N N N N N N N N N N 7 < 1 D H * X W.}.e.1.-.5.XX;X#Xe._.`.k.8.e.#X$X#X",
"#XoX#X{.'.W.e.e.8.T.8.T.e.T.9.Y.W.'.{.@ d +.o.; ; e N n m m m m m m m m m m M M M M M M M M M M m m m m M M M 6 < 1 D H * $ 6.5.8.'.XX}.8.1.4.8.k.}.}.`.XX-X-XoX",
"XX#XXXXX`.9.7.5.1.4.8.8.e.W.W.e.5.5.w.@ d +.o.; ; b G N ' ( / / / / / / / / / / / / / / / / / / / / ! / ! N N < < 1 D H * $ 4.1.4.>.1.8.`.'.W.8.5.9.e.8.9.e.e.5.",
"'.{.XX{.`.W.'.{.XXoXXXXX{.`.e.9.{.{.}.@ d +.o.: ; e N n X.X.' ' ' ` ` ` ` ` ' ' ' ' ' ' ' ' ' ' ` ` X.X.' Z N < > 1 D H * $ {.{.W.{.}.'.8.7.9.'.{.XX{.{.`.e.8.5.",
"1.4.5.5.5.5.W.}.W.k.'.'.].'. XXX#X=X#X@ d +...: > b A M @.,.,.j.j.j.j.j.j.j.j.j.j.j.j.j.j.j.j.j.j.j.,.,.X.S A 7 < > D H * $ W.#X1.<.-.-.1.T.W.{..X{.'.W.5.;.;.<.",
"w.Q.@X@X.X~.oX1XoXr.e.e.e.e.e.k.8.e.{.o f @...: > n Y F s.$.z.0X5X5X5X5X5X5X5X5X5X5X5X5X5X5X8X8X8X>X$.$.O.U D 6 > > D H * $ Q.E.'.oXoX'.'.'.oX=X Xe.5.e.{.{.5.&.",
".X.XoX$X$X-X-X-X3X=XXXW.9.6.`.XX{.{.'.o d @...- > b U C s.@.z.>X7X9X9XeXeXeXeXeXeXeXeX9X9XeXeX9X<X>X$.i.O.U P 6 > > D ! * X $X2X'.e.e..X=XoX'.e.q.'.'.{.{.{.oX3X",
"8.e.W.e.W.e.e.w.1.1.1.1.1.1.4.8.W.e.3.o y J U : > b U C s.@.z.6XU.a g h h h h h h h h h h h k ] qX7Xp.p.u.Y I 6 < < D ! * X 4.8.{.e.5.e.W.8.W.=X XXXXX{.W.8.2.2.",
"{.}.XX}.k.8.9.e.[.W.`.{.}.{.9.1.5.9.W.o y J U : : b U V d.$.z.6X/.k V.N.B.B.N.B.B.N.N.B.B.B.k [ qX7Xp.p.y.Y I 7 < < D ! * X 5.8.4.2.W.'.W.5.9.'.'.e.1.-.-.1.w.Q.",
"9.9.9.5.4.;.-.;.8.8.8.8.T.T.T.8.1.2.W.O y J U : : b U V d.@.z.6X).h V.F.(.J.F.H.H.(.J.H.F.F.M.[ qX7Xp.p.y.U I 7 < < G ! * X 9.`.5.5.5.8.e.W.8.>.=.>.e.W.W.W.@X2X",
"}.W.9.e.{.{.k.5.-.9.}.{.e.8.W.{.XX{.'.O y J U : : b U V d.$.g.6XR.h M.H.jXsXtXtXpXlXfXyXtXJ.M.l qX7Xp.p.O.U P 6 < > G ! & X `.XX{.{.W.1.5.8.e.8.9.e.{.#X@X{.W.w.",
"`.W.e.`.{.}.{.W.4.'.XX`.5.>.:.>.w.8.1.O y J U : : b U V d.$.g.6XR.k M.H.lXfXP.P.iXlXfXP.tXJ.A.l qX7Xs.s.O.U I 6 < < G ! * X 9.9.8.W.XX#X{.8.8.8.oXe.>.-.Y.{.{.^.",
">.8.'.W.5.4.w.l._.6.>.>.5.'.'.'.W.[.e.@ y J U : : b U V d.$.g.6X/.h B.H.yXpXkXkXdXP.I.P.tXJ.A.{ qX7Xp.s.u.Y I 7 < < G ! * X 8.5.W.1.1.W.W.W.9.W.>.2.W.!.{.^.W.E.",
"{.e.1.8.{.XX{.W.e.8.5.2.8.e.@X-X{.{.{.@ y J U : : b U V d.$.z.5X/.h C.F.tXuXlXlXdXP.P.tXtXJ.M.[ qX7Xp.s.@.U I 7 < < G ! * X @X{.{.{.`.8.-.-.1.8.w.w.w.w.w.Q.w.1.",
"#X{.W.e.W.8.5.1.w.8.1.;.-.-.8.'.'.8.>.@ y J U : : b U V d.@.z.5X/.h Z.H.pXpXdXdXiXP.yXpXpXtXM.[ qX7Xp.s.@.U I 7 < < G ! * X XXQ.{.{.{.w.8.Q.{.XX.X.X'.{.{..X.XoX",
"-.1.8.W.w.W.'.{.`.W.e.8.5.8.'.&X{.8.-.@ y J U : : b U V d.$.z.5X/.h N.H.lXdXL.I.I.tXpXhXjXaXM.[ qX7Xp.s.@.U I 7 < < G ! * $ w.8.{.'.W.8.W.{.{.Q.'.9.5.8.5.1.4.8.",
"8.`.{.{.`.W.{.XX-X#X.X{.W.w.W.{.#X{.w.@ y J U : : b U V d.@.z.5X/.h N.H.lXdXyXI.yXK.uXfXjXaXA.l qX7Xp.p.O.U I 7 < < D ! * $ {..XW.W.W.W.W.W.W.`.{.e.8.W.`.5.1.5.",
"-.1.5.w.W.'.{.#X{.{.'.{.XX+X{.XX{.W.'.@ y J U : : b U V d.u.z.5X/.h N.F.yXtXP.yXiXkXhXhXjXaXM.l qX7Xp.p.O.U P 6 < > D ! * $ ^.W.:.-.1.'.W.1.8.{.'.8.4.e.{.W.e.W.",
"{.`.W.W.W.8.1.;.-.%.%.1.e.W.W.W.e.w.W.@ y J U : : b U V d.u.z.5X/.h B.F.tXP.P.P.uXhXhXhXjXsXM.l qX7Xp.u.O.U P 6 < > D ! * $ e.E.4.1.8.{.Q.8.w.XX-X.XQ.}.oX#X#X=X",
"W.'.{.#X=X-X#X{.XX{.W.{.{.{.'.W.{.{.W.@ y J U : : b U V d.@.z.5X/.h B.F.yXyXiXiXpXhXfXfXfXpXM.l qX7Xu.u.O.U C 6 < > D ! * $ #X$X&X#X{.{.XX#X#X#XQ.Q.W.w.w.e.w.W.",
"W.W.{.#X=X#X`.8.<.=.-.1.8.W.`.{.{.{.Q.@ y J U : : b U V d.@.z.5X/.h B.H.tXpXfXhXhXhXaXP.yXJ.M.[ qX7Xp.s.@.T C 7 < > S H * $ 8.8.{.{.5.-.3.#X{.8.w.'.#X.X{.{..X.X",
"-.1.e.'.{.'.{.{.r.'.'.l.'. XXXXXe.`.`.@ y J U : : n U L d.$.z.0X/.h S.F.J.(.pXaXpXaXiXJ.J.F.A.{ rX8Xu.u.O.U P 6 < > D Q * X {.W.1.2.2.5.W..X$X&X.XXXw.W.'.W.w.=.",
"`.e.w.9.w.'.{.XX*X$X=XoXXXXXQ.e.5.1.>.@ y J U : : n U L d.$.z.5XR.g V.V.C.B.B.Z.B.Z.C.C.C.C.A.[ rX<Xp.p.O.U P 6 < > D Q * $ {.{.XX'.8.-.-.2.E.Q.'.Q.1.1.e.'.$X{.",
"{.e.>.-.>.5.8.w.>.1.>.1.8.'.'.'.}.'.9.@ y J U : : n U L d.$.z.6XR.g M.B.B.B.N.N.B.N.N.B.B.B.k [ rX<Xu.u.O.U P 6 < > D ! * $ +XW.W.'.{.'.{.XXoX#X'.#X'..X#XQ.W.>.",
"-X.X`.W.Q.{.'.W.}.XX#XXX#X=X=X$X{.#X#XO y J U : : n U L d.$.z.:X!.j G.D.D.D.D.D.D.D.D.D.D.D.l ] rX8Xu.u.O.U P 6 < > D ! * $ 8.1.-.5.`.}.'.8.;.%.{..Xe.W.w.5.W.e.",
"'.'.Q.'.'.W.e.8.-.5.`.e.8.>.-.-.'.{.}.O y J U > : n U V d.$.g.6X;X#X%X%X%X%X%X#X%X#X%X%X%X%X*X*X7X8Xu.u.O.U P 6 < > D ! * $ {.#X#XXX#X{.`.e.9.e.-.e.{.$X}.8.5.1.",
"{.{.}.{.{.'.{.'.8.{.{.^.e.W.}.#XXXW.5.O y J U > : n U V p.#.g.6X:X|.|.|.|.|.|.x.|.x.|.|.|.x.x.OX>X6Xp.p.O.U P 6 < > D ! * $ 8.{.{.Q.8.5.5.8.'.#X-X=X{.Q.5.-.w.'.",
"e.e.e.e.e.8.8.5.W.e.9.1.%.-.8.W.e.2.>.o y J U > : n U V p.#.g.6X0X>X8X>X>X>X>X>X>X>X>X>X>X>X>X>X5X5Xp.i.O.U P 7 < < D ! * $ 7.W..X'.E.e.w.8.e.W.Q.{.'.oX#XQ.{.'.",
"'.Q.{.{.{.'.W.9.W.{.#X{.{.{.'.{.{.{.{.o y J U > : n U V i...z.6X:X>X>X>X>X>X>X>X>X>X>X>X>X>X5X>X>X5Xp.p.y.U P 7 < < D ! * X 1.[.&X.XQ.^.{.Q.e.Q.'.Q.5.Q.{.Q.'.W.",
"$XQ.5.2.1.&.:.E.e.{.8.%.*.w.{.{.E.8.2.o y J U : : n U B a.t.h.n.n.4X5X>X>X>X>X>X>X>X>X>X>X>X>X>X>X5Xp.p.y.U P 7 < < D ! * X '.'.e.w.e. XoX'.e.e.e.e.e.e.e.'.{.'.",
"e.e..X#XXX{.!.W.{.`.W.{.{.W.8.{.}.{.W.o y J U > : b U x m.b.b.b.n.n.4X>X>X>X>X>X>X>X>X>X>X>X>X>X>X5Xp.p.O.U P 7 > < D ! * X w.1.1.>.5.{.oX{.k.W.'. XoX=X=X}.W.e.",
"{.{.'.W.E.{.XX#X2.1.>.e.W.1.-.W.W.{.#Xo y J U > > b U x v.v.v.v.n.n.4X>X>X>X>X>X>X>X>X>X>X>X>X>X>X5Xp.p.O.T P 7 > > D ! * X XXW.*.>.8.'.}.e.e.W.'.'.XX'.W.W.e.W.",
"XX#X*X#XoX#X{.{.`..X#X{.#X=X=X=X-X#X{.o y J U > > b U B } } t.h.c.:X>X5X>X>X>X>X>X>X>X>X>X>X>X>X>X5Xp.p.O.T P 7 > > D ! * X Q.'.{.{.XX$XXX{.'.{.`.e.w.5.5.5.`.{.",
"8.1.8.W.w.1.1.5.1.{.{.9.W.{.{.8.8.8.5.o y J U > : b U V O. .#.c.c.0X5X5X5X>X>X>X>X>X>X>X>X>X>X>X>X5Xp.p.O.T P 7 > > D H * X '.$X#X*XoX{.W.8.e.W.e.`.'.'..X}.'.Q.",
"#XW.W.'.W.4.5.'.1.8.5.1.8.8.8.`.e.`.{.o y J U > : b U C +.' f.|.:X5X>X5X>X>X>X>X>X>X>X>X>X>X>X>X>X5Xp.p.O.T P 7 > > D H * X 8.'.{.{.'.W.5.2.8.e.{.'.{.XX#X X'.q.",
"7.7.W.{.'.8.>.>.W.8.:.1.5.1.8.#X-X8.-.o y J U > : b U V s.@.z.5X5X5X5X5X5X5X5X5X5X5X5X5X5X5X5X>X>X>Xp.i.O.U P 7 > > D ! * X {..Xe.W.{.'.W.`.W.W.{.{.W.e.e.k.e.l.",
"4.7.4.;.1.e.}.XX'.#X#X{.#X{.`.{.'.{.`.o y J U > : b U V p.@.g.6X6X,X5X5X5X5X5X5X5X5X5X5X5X5X5X>X>X>Xp.i.O.U P 7 > > D ! * X 5.8.%.-.1.8.8.8.1.1.e.e.`.W.e.'.'.oX",
"w.w.Q.@X#X.X.X.X'.5.e.'.w.e..X{.q.Q..Xo y J U > : b U V p.@.g.6X,X,X5X5X5X5X5X5X5X5X5X5X5X5X5X>X>X>Xp.i.O.U P 7 > > D ! * X W.{.'.{.XX{.e.8.4.4.Q.8.5.8.e.9.1.;.",
"'.8.:.1.e.Q.{.Q.e.5.'.r.5.5.Q.W.r.w.5.o y J U > : b U V s.$.z.>X>X>X>X>X>X>X>X>X>X>X>X>X>X>X5X5X>X5Xp.p.O.T P 7 > > D ! * X `.{.w.e.'.e.8.4.>.,.Q.e.8.5.4.5.9.k.",
"W.w.Q.{.{.Q.{.{.k.'.XX].5.9.`.`.e.'.#Xo y J U > : b U V s.$.z.>X>X>X>X>X>X>X>X>X>X>X>X>X>X>X5X5X>X5Xp.p.O.T P 7 > > D ! * X :.>.Q.'.{.'.'.e.`.W.5.e.8.-.=.1.9.e.",
"-.8.'..XQ.e.w.e.k.k.`.`.5.4.8.9.'.Q.Q.o y J U > : b U V s.$.z.>X>X>X>X>X>X>X>X>X>X>X>X>X>X>X5X5X>X5Xp.p.O.U P 7 > < D ! * X '.#XQ.'.'.'.e.e.9.9.'.#XXXe.9.W.}.{.",
"#X'.W.'.XX$X$X#X}.`.e.'.`.4.4.T.q.W.W.o y J U > : b U V d.$.z.>X>X>X>X>X>X>X>X>X>X>X>X>X>X>X5X5X>X5Xp.p.O.U P 7 < < D ! * X e.{.oXXX.X'.W.e.8.6.9.W.`.4.1.e.`.e.",
"'.W.5.1.5.W.`.e.e.8.4.4.8.<.*.;.w.}.-XO y J U > : b U V s.$.z.>X>X>X>X>X>X>X>X>X>X>X>X>X>X>X5X5X>X5Xp.p.y.U P 7 < < D ! * X '.'.Q.'..X{.}.'.'.'.`.'.k.8.W.XX#X.X",
"w.W.`.e.w.e.w.8.'.=XXX{.#X#X{.#XoX{.W.O y J U > : b U V s.$.z.>X>X>X>X>X>X>X>X>X>X>X>X>X>X>X5X5X>X5Xp.p.y.U P 7 > < D ! * X {.XX8.5.e.e.e.`.e.e.9.8.8.9.e.W.'.Q.",
"`.8.>.>.5.W.4.*.%.'.Q.1.E.#X@X{.{.{.[.O y J U > : b U V s.$.z.>X>X>X>X>X>X>X>X>X>X>X>X>X>X>X5X5X>X5Xp.p.y.U P 7 > > D ! * X '.{.'.Q.'.'.W.9.5.>.9._.'.#X*XXXQ.'.",
"9.XX{.;.-.9.e.;.| 2..XoXr.w.e.e.'.'.r.O y J U > : b U V s.$.z.>X>X>X>X>X>X>X>X>X>X>X>X>X>X>X>X>X>X6Xp.p.y.U P 7 > > D ! * X 5.W.e.8.>.1.e.XXXX`.Q.Q.e.'.$XE.>.w.",
"XX`.W.'.'.9.e.{..X.X'.W.'.XXXX'.'.'.Q.O y J U > : b U V s.$.z.>X>X>X>X>X>X>X>X>X>X>X>X>X>X>X>X>X>X5Xp.p.O.U P 7 > > D H * X W.}.w.e.`.'.XX.Xe.5.1.e.8.2.W.e.1.1.",
"8.1.6.{.e.%.;.'.'.8.=.=.>.e.e.8.].'.e.O y J U > : b U V s.$.z.>X>X>X>X>X>X>X>X>X>X>X>X>X>X>X>X>X>X5Xp.p.O.U P 7 > > D H * X `.{.'.'.'.'.W.e.e.e.'.#X}.`.{.XXW.9.",
"5.e.W.Q.e.5.1.8.`.`.`.`.].}.}.].].}.].O y J U : : n U V s.$.z.>X>X>X>X>X>X>X>X>X>X>X>X>X>X>X>X>X>X,Xp.p.O.U P 7 > > D ! * X e.'.*X'.W.e.8.5.Q.*X#X`.e.`.`.4.=.;.",
"#X.X'.'.#X$X'.>.e.e.e.k.T._.6.9.4.6.6.O y J U > : n U V s.$.z.>X>X>X>X>X>X>X>X>X>X>X>X>X>X>X>X>X>X,Xp.p.O.U P 7 > > D ! * X W.{.'.Q.`.'.'.'.{.XX{.9.9.`.W.4.1.4.",
"#XXX#X#XoX{.W.e.=X{.k.e.q._.6.9.>.;.;.O y J U > : n U V s.$.z.>X>X>X>X>X>X>X>X>X>X>X>X>X>X>X>X>X>X,Xp.p.O.U P 7 > > D ! * X 9.'.8.e.e.W.'.'.'.e.9.e.{.'.W.*X=Xe.",
".XXX$X=X#XQ.'..X{.e.8.9.6.5.6.9.'.8.8.O y J U > : n U V s.$.z.>X>X>X>X>X>X>X>X>X>X>X>X>X>X>X>X>X>X5Xp.p.O.U P 7 > > D ! * X 8.9.5.e.e.5.8.'.'.w.>.1.8.8.5.'.{.1.",
"{.w.:.1.Q.-XQ.-.=.1.k.{.W.6.8.k.{.8.8.O y J U > : n U V s.$.z.>X>X>X>X>X>X>X>X>X>X>X>X>X>X>X>X>X>X5Xp.p.O.U P 7 > > D ! * X `.8.>.W.{.e.W.oXXXe..Xw.'.$X{.Q.Q.3.",
"$X.Xr.w..X$X#X{.W.w.W.'.{.'.r.`.2.>.2.O y J U > : n U V d.$.z.>X>X>X>X>X>X>X>X>X>X>X>X>X>X>X>X>X>X5Xp.p.O.T P 7 > > D ! * X W.'.W.#X=XW.5.e.8.>.2.E.{.'.e.1.>.4.",
"Q.E.w.0.Q.#X$X#XE.w.e..XoXoX.X].3X.Xe.O y J U > : n U V d.$.z.5X5X5X5X5X5X5X5X5X5X5X5X5X5X5X5X5X>X6Xp.p.#.U P 6 < > D ! * $ W.e.{.oX'.8.8.Q.#X#XoX.X.X{.Q.W.'.#X",
"Q. X XW.w.w.W.E.'.W.w.W.XXXXoX=XE.W.E.O y J U : : n U V s.$.z.>X>X>X>X>X>X>X>X>X>X>X>X>X>X>X>X>X>X5Xp.p.#.U P 6 > > G ! * $ W.W.e.'.{.'.'.{.{.'.@X.X.XXX#X{.'.Q.",
".X$X$X#X^.W.w.8..XQ.{.'..X'.'.}.{.-X-XO y J U : : n U V s.$.z.6X6X6X6X6X6X6X6X6X6X6X6X6X6X6X6X6X5X0Xp.p.$.U P 6 < > G ! * $ '..X#XXXQ.8.2.5.{.=X#XXXXX#XXXQ.8.5.",
"l.'..XoXoX@X.X#XE.'.#X2X=X Xe.e.{.^.W.O y J U : : n U V s.$.z.g.g.g.g.g.g.g.g.g.g.g.g.g.g.g.z.z.j.z.p.p.$.F P 7 < < D ! * $ e.Q.'..XXX{.e.W..X2X$XoX.X.X'.W.e.'.",
"Q.W.e.e.W.W.^.@Xw.E.Q.'.'.'.'.XX{.{.{.O y J U > : b U V p.p.$.@.@.@.O.O.O.@.@.@.@.@.@.@.@.@.@.@.O.@.@.$.$.F P 7 < < D H * $ 8.-.>.Q.-X2X$X{.Q.e.e.W.'.{.Q.W.Q..X",
"e.e.e.W.w.5.8.W..XW.w.8.e.r.].oX'.k.Q.O t J U > : v U V ) R ) ) ) ) ) ) E ) ) ) ) ) ) ) ) ) ) ) E ) E ) R V V 6 < > S H * $ 5.:.W.XX#XQ.e.W.'.e.1.8.W.'.Q.w.W.Q.",
",.5.`..XXX^..X#X$X.X'..X=XoX'.k.e.>.>.O t J Y > : b Y C F C F F C C C C C C C C C C C F F F C C C F B U C C F 6 , > S Q * $ {.{.e.{..XW.`..X'.8.XX'.W.e.8.8.Q.oX",
"=.-.>.'.{.w.8.@X$X.X.X.Xr.q.w.Q.oX.Xw.  u ^ ~ , 5 Z ~ ~ / / / / / / / / / / / / / / / / / / / / / / K / / / ( q 0 5 Q ^ * $ .X~. X'.l.'.e.1.8.W.e.r.r.w.r.r. X.X",
">.5.8.{.=X#X.X&X.X{.W.5.w.r..XoX.X.XoX% 2 9 0 = = = 9 0 0 9 9 0 0 0 5 5 5 0 0 0 0 0 0 0 3 0 0 0 3 0 , 0 5 5 4 = = = 9 9 & $ Q.2.>.w.'.e.>.=.5.{.Q.Q.Q.'.oX.X.X.X",
" XXX'.e.Q.w.1.1.{.@X.X{.@X2X2XoX.X'.w.$ @   o @ @ .   O             o o o o o o o o o o o o o o o o o o o     . @ @ O @ $ $ #X.XoXl.5.5.5.8.1.>.{.'.W.'.{.'.W.5.",
"e.'.e.8.w.{.{.@XW.!.{.{.#XXX{.w.'.{.oX$X#X'.Q.@X.X$X#X{.@X2X-X.X-X{.Q.e.8.{.$XoX-X2X2XXXQ.W.e.W.{.{.W.W.W.W.Q.{.{.'.Q.W.e.Q..X=X5.8.e.Q.'.'.XX3X{.'.e.8.9.9.9.8.",
"e.#X{.8.5.w.e.W.!.W.8.E.W.8.e.Q.$X$X$X=X.XE.w.{.w.Q.'.w.5.W.Q.8.Q.5.W.=X#X'.W.w.e.W.{..Xe.1.2.e.@XW.E.e.^.#X#X#X{.#X#X{.w.8.W..X*X'.'.#XXX8.5.'.8.9.e.e.e.e.'.}.",
"| 5.w.e.W.W.{.#X{.W.W.{.XXQ.'.#XoX'.e.5.1.>.8.W.5.'..XQ.e.W.W.e..X9.e.W.5.>.W.#Xe.5.9.'.{.e.9.W.'.Y.5.8.W.{.XX#X$X$XXXXX{.Q.'.{.e.-.-.e.oX'.e.e.>.8.{.{.W.W.W.{.",
" X$X$XXX'.W.8.W.8.8.e.W.'.'.e.e.,.w.'.^.Q.W.8.8.2.e.Q.{.'.W.e.'.W.e.#X#Xe.8.e.'.#X'.w.W.'.{.Q.W.e.w.e.e.W.Q.Q.e.'.W.w.e.W.e.e.w.1.e.'.W.5.>.5.5.:.e.@XXX^.w.w.Q.",
"'..XQ.W.W.w.9.{.}.'.6.>.5.k.e.5.e.'.e.8.5.W.e.Y.e.W.`.'.W.W.`..X}.{.{.`.5.W.'.W.9.e.4.-.>.9.'.W.'. X$XoXoX'.'.'.`.Q.`.w.8.4.2.5.1.E.e.1.e.oXoXq.2.E..X@XQ.E.{.@X"
};
