/* XPM */
static char *_b640f73654042a5a7a97e997a3c13d7nmSTBDFBVl7jyjKT[] = {
/* columns rows colors chars-per-pixel */
"80 80 227 2 ",
"   c #1E140A",
".  c #151716",
"X  c #1C1616",
"o  c #161817",
"O  c #1D1B17",
"+  c #171918",
"@  c #1B1C1B",
"#  c #251709",
"$  c #251A0C",
"%  c #291A0D",
"&  c #311B07",
"*  c #301E0D",
"=  c #231B15",
"-  c #291A14",
";  c #241C1A",
":  c #1E201F",
">  c #33210E",
",  c #22201F",
"<  c #2A2118",
"1  c #342312",
"2  c #362818",
"3  c #231F22",
"4  c #1E2121",
"5  c #212322",
"6  c #292828",
"7  c #2A2B2B",
"8  c #352C27",
"9  c #36302B",
"0  c #3C342E",
"q  c #2B2F35",
"w  c #343433",
"e  c #3C3731",
"r  c #3A3935",
"t  c #363A39",
"y  c #383838",
"u  c #393939",
"i  c #4A2B0C",
"p  c #422716",
"a  c #532F12",
"s  c #4B3219",
"d  c #573316",
"f  c #6B3709",
"g  c #653A16",
"h  c #6C3D13",
"j  c #663A1A",
"k  c #43362A",
"l  c #473729",
"z  c #4E3A29",
"x  c #553A26",
"c  c #5D3F24",
"v  c #523A29",
"b  c #413833",
"n  c #513F30",
"m  c #633D26",
"M  c #6E4216",
"N  c #6F411B",
"B  c #6E491F",
"V  c #714118",
"C  c #7B4A1C",
"Z  c #5E4125",
"A  c #5C462C",
"S  c #514135",
"D  c #664724",
"F  c #784923",
"G  c #705132",
"H  c #735635",
"J  c #71563B",
"K  c #755A3C",
"L  c #5A5351",
"P  c #6E5842",
"I  c #775C42",
"U  c #7F6449",
"Y  c #77716F",
"T  c #A1731C",
"R  c #875528",
"E  c #965C2B",
"W  c #925C2C",
"Q  c #8C5D35",
"!  c #945E34",
"~  c #93602F",
"^  c #9C662A",
"/  c #86623C",
"(  c #956135",
")  c #996636",
"_  c #976836",
"`  c #9C6A33",
"'  c #9A6739",
"]  c #9B6838",
"[  c #9E703E",
"{  c #A3682C",
"}  c #A16A2E",
"|  c #A5702B",
" . c #A46933",
".. c #A46C34",
"X. c #A36C3A",
"o. c #A8723B",
"O. c #855C41",
"+. c #866644",
"@. c #896443",
"#. c #876A46",
"$. c #82644A",
"%. c #9F7344",
"&. c #987148",
"*. c #947156",
"=. c #A16F43",
"-. c #A17342",
";. c #AD7646",
":. c #AC7C45",
">. c #A67A4A",
",. c #AA7A4A",
"<. c #B37D45",
"1. c #C5A43D",
"2. c #F7E73F",
"3. c #98885C",
"4. c #B7854A",
"5. c #B9834B",
"6. c #BD924B",
"7. c #B68250",
"8. c #B98352",
"9. c #BD8B55",
"0. c #BD8E5A",
"q. c #BF915B",
"w. c #9C8664",
"e. c #9C8C68",
"r. c #8D817C",
"t. c #A78964",
"y. c #A48C64",
"u. c #A48D6C",
"i. c #AC8E6C",
"p. c #B48D6D",
"a. c #A4926C",
"s. c #AC936C",
"d. c #AC9A6C",
"f. c #B4986C",
"g. c #AA8E75",
"h. c #AC9574",
"j. c #AC9B74",
"k. c #A9977A",
"l. c #B49574",
"z. c #BA9474",
"x. c #B49B74",
"c. c #BC9C74",
"v. c #B4967C",
"b. c #B49D7C",
"n. c #BC9D7C",
"m. c #ACA27C",
"M. c #B8A375",
"N. c #B4A27C",
"B. c #BCA37C",
"V. c #BCAA7C",
"C. c #C39946",
"Z. c #C18E58",
"A. c #C3935D",
"S. c #C8965A",
"D. c #CCAB40",
"F. c #C89863",
"G. c #C4A47C",
"H. c #C4AA7C",
"J. c #DAAC76",
"K. c #F0D349",
"L. c #F9DB56",
"P. c #FEE84A",
"I. c #EFCC65",
"U. c #EDC47C",
"Y. c #F2CA79",
"T. c #5B6D96",
"R. c #7C7D84",
"E. c #837D88",
"W. c #7187B6",
"Q. c #7D99CD",
"!. c #7E99D1",
"~. c #A39384",
"^. c #B49E84",
"/. c #BC9E84",
"(. c #B4A484",
"). c #BCA584",
"_. c #BCAA84",
"`. c #B9A68A",
"'. c #BCAC8C",
"]. c #BDB08D",
"[. c #9598A5",
"{. c #9B9DAE",
"}. c #9C9EB0",
"|. c #C49E84",
" X c #C4A684",
".X c #C4AB84",
"XX c #CCAC84",
"oX c #C4A68C",
"OX c #C4AD8C",
"+X c #CCAE8C",
"@X c #C4B284",
"#X c #CCB587",
"$X c #C4B38C",
"%X c #CCB38C",
"&X c #D3B58C",
"*X c #C8AD94",
"=X c #C4B394",
"-X c #CCB494",
";X c #CCBB94",
":X c #CAB89C",
">X c #D4B694",
",X c #D4BA94",
"<X c #D4BD9C",
"1X c #E8BC87",
"2X c #EDBF8B",
"3X c #EABF92",
"4X c #C9B5A5",
"5X c #D7BDAD",
"6X c #CCC29C",
"7X c #D7C397",
"8X c #D4C29C",
"9X c #EAC188",
"0X c #ECC18C",
"qX c #F1C28D",
"wX c #E5C194",
"eX c #EDC393",
"rX c #E6C19A",
"tX c #EAC49B",
"yX c #F2C592",
"uX c #F4C797",
"iX c #DDC2A5",
"pX c #DCC0A8",
"aX c #E4C3A3",
"sX c #E1C2A9",
"dX c #8198CB",
"fX c #8298CC",
"gX c #879CD0",
/* pixels */
"h.n.).n.h.s.h.s.)..X).N.B._.b.s.j.N._._.).N.$X;X).).'.=X'.b.(.OXN.B.N.j.s.h.x.).$X.Xs.y.N.V.N..Xb.j.N..XB.h.s.n.f.c.B.XX%X%XH.B.H.%X#X XB.B.H.B..XG.B..X&X%X%X.X",
"n.b.x.b.B.B.b.i.h.x.h.s.b..X.X)._.N.j.).-X,XOXN.N.b.).OXOXB.).=XB..XOX+XOXOXOX%X%X;X%X.X.X).B._.).N.B.).B.b.x.).XX.XG.B.G..X%X;XG.).B.M.x.x.B.B. XB.B.B.B.b.x.x.",
"B.).B.l.l.B.OX%XOX%XOX.X.X$X%XOX$X%X=X$X$X$X'..X).).)..X).b.x.B.OX).n.j.x.B..X%Xb.b.).'.B.b.).b.B.N.b.B.N.n.b.l.l.x.n. XB.n.).B. XB.B.B.B.B.x.B.h.x.x.x.h.t.s.x.",
"b.B. Xb.x.).%X,X).+X%XOX).).n.x.x.).%XB.u.w.y.b.).B.B.B.).B.b.N.n.B..X+X%X+X).b.*Xb.b. X).-X-X XN..XOX.XOXOX Xn.n.n.v.l.h.b. X-Xc.h.x.B. Xx.l.x.B.). X.X).B.).+X",
"n.b.x.B.OX%XOXn.u.l.b.n.n.B.B.b.$X%X$XOX.XB.).B.N.b.b..XOX%X-X-X).x.u.u.h.B.OX%XOXb.v.b.b.).).k.j.).OX XB. X).n.n.n.n.x.l.b.).OX.XB.B. X.X).B. XB.B.).).).b.x.x.",
" X Xb.l.x.n.B.b.G.). X).G.).+X-X.X.X.XOX%X-X.XB.+X.X.X.X.X.X).G.). X+X&X>X>X%XOXl.h.j.b.s.u.h.i.b.B.).x.h.x.B.B.i.x. XOX Xn.x.s.-X.XB.b.n.)..X%XOXOX XOX.X Xn.b.",
"OXOX Xl.u.h.).+X+X X Xn.n.n.B. X.X$X-X-X%X$X%X-X%X%X+X.XB.n.x.x.-XXX).x.v.n. X X.X+X+X+X%X+X.X%XOX$X%XOX.X X.XoXXXXX.XH..X.X%X%X).X = # $ $ # $ O h.u.s.h.h.s.h.",
".X X).B..X+X.XB.b.c.b.n.n.G.). X X).x.h.l.b.; ; ; = = = ; < < ; ; ; ; ; ; ; ; ; ; ; ; ; ; ; ; ; ; ; ; ; O  Xb.l.c.c..X+X&X; ; ; p %...X.o.o.` #.1 ;  X).).).oXOX",
"s.s.l.).OX%XOXB.B.c.x.f.s.s.s.s.s.s.h.x.).5 % % % $ $ $ % % % % % $ % % % % % % % % % % % % % % % $ $ % % - .X+X_.B.H.- % % % % i ] ^ ` ^ ^ { @.& ; OX%X+Xn.x.n.",
" X).B.)..XOX.XB.OX.X X).B.)..X.X.X.X)..XOX< $.$.$.$.$.$.I K J U U I J J J J J J J J J J J J J J J H H H K G x s..XB.P P G H H H H ` {  . .{ ^ / > ; +XOX.X+XOX+X",
").n.x.x.n.B.). Xu.u.i.s.v.B.OX+X=X$XOX.X@ 2 <.<.5.5.5.5.o.....5.4.o.o.o...................................W f a &   [ ..{ .. . .{ { ^ ^ ^ ^ { @.> ; h.i.s.b. XB.",
" XB.).n.). XOX+X>X-X-X*X-X-X:X>X>X-X>X%X@ 2 7.;.W R R R F C C R R F C C C C C C C C C C C C C C C C C C C R R F F j `  .{ { { { o.8.9.8.8.5...+.> ; G.b.B.-X;X-X",
"-X%X-XOX.X).B.B.b./.b./.B./.n.^.)..XOX.X@ 2 8.,.h g g g g g g g g g g g g g g g g g g g g g g g g g g g h C ( ( ) ! ` ` .... . .o.A.F.A.A.A...+.1 ; +X X%X<X<X%X",
"%X-X%X%X Xn.v.x.h.l.b.b.B.).).B.x.x.N.).@ 2 8.,.M m x v z z z v v v z z z z z z v v v v v v v v v z v x h C ~ W W W 7.9.7.5.5.4.9.J.J.A.0.Z...+.1 ; B.b.n.B.B.x.",
".XOX%XOX X)..XOX%X%X%X%XOX XB.n.OXOX+X%X@ 2 8.,.M c l k 0 e e 0 0 0 0 0 0 0 e e e e e e e e b b 0 e k l h C W W W W F.F.A.S.S.S.F.qXyXA.0.9...+.1 ; OXOX XB.b.x.",
"h.l.x.x.x.x.).+X).G..X.XXX.X#X%X-X,X-X;X@ 2 8.,.M c l e t t t u u u u r r r r u r r r r r r r r u u r k d V R W W W A.9.0.9.9.9.F.2XqXq.A.8...+.1 ; .X).x.i.i.l.",
"N._.=X=X$X].%X6X%XV.B.B.B.B.B.G.b.B.OXOX@ 2 8.,.h m l r t t t u u u t t t t t t t t t t t u t t u r 8 Y 5Xz.R ] ,.-.0XeXeXeXeXeXeX1X0XA.F.Z...+.1 ; x.B.OXOXx.e.",
"$X$X%X;X;X<X<X<X7X,X%X).n.c. X%XOXOX.X).@ 2 8.,.V m l r u r r u u u u u u t t t u u u u u u u u u r 6 Y 5Xp.R ) >.%.eXeXwXrXaXaXtX3XeXq.A.9. .+.* ; .XOXOXOX%X7X",
"b.B.).B.).B.B.N.h.h.h.h.h.h.l.b.).B.k.i.O 2 7.,.h m k r r r r 7 7 7 7 7 7 7 6 6 7 7 7 7 7 7 r u u r 9 L *.@.Q ] >.%.eXwX,X~.~.~.`.rX2X0.A.9.` +.* = %XOX).b.j.j.",
"OX+X%X+XG.b.n.B.oX). XOX+XOXn.h.x.n.).).@ 2 8.,.V c k r u r r 4 4 4 5 5 5 5 5 5 5 5 5 5 5 5 7 t t r r k a N ( ] >.%.eXtX].T.T.T.E.aXqXq.A.9...+.1 ; h.u.u.h.N._.",
"n.n.n.x.l.i.u.i.b.b.b.b./././.b.h.j.).).@ 2 ;.;.M c k r u r r 4 4 4 5 5 5 5 5 5 5 5 5 5 5 5 7 t t r r k d F ' ] ,.-.eXwX:XW.W.W.[.aXyXA.A.9...#.1 ; B.).).).=X8X",
"+X).n.B.OXOXG.x.u.n.+XOXB.b.).OX%XOX.Xb.@ 2 X.] h Z k r u r r 4 4 4 5 5 5 5 5 5 5 5 5 5 5 5 7 t t r e k a N ( ] ,.-.eXwX4XgXgXgX}.sX3Xq.A.9...+.1 ; OX-X=XOX).N.",
" X).B. XOX+XOX).l..X%X Xx.s.a.s.N.b.h.u.O 1 X.] V Z k r w 7 7 4 4 4 5 5 5 5 5 4 4 5 5 5 5 5 7 7 7 e 0 k a N ! ] ,.-.eXwX4XQ.Q.dX{.5XeXq.A.9. .+.> ; s.u.^.OXOX'.",
"s.b..X).x.l.N.H.|.c.s.s.x..X.X.X).oXB.b.X 1 X.) V c k r 5 ; 5 4 4 4 5 5 5 5 5 4 4 5 5 5 5 5 5 5 5 e 0 k a N ! ] ,.-.eXwX4XQ.Q.dX{.pXeXq.A.9. .+.> ; ).`.OX'.).(.",
"OXB.h.b.OX%XOX).B.b.x.j.b.B.=X<XOXOXOXOXO 1 X.' V c k r 5 @ 5 4 4 4 5 5 5 4 4 4 5 5 5 5 5 5 5 @ @ e 0 k a N ! ] ,.-.eXrX4XQ.Q.dX{.iXeXq.A.9. .+.> ; N.N.N._.N.h.",
"-XOX).B.).b.x.h.N.b.h.i.u.u.b..X.Xb.s.u.O 1 X.' V c k r 5 , 5 5 5 5 4 @ + . . . . . @ 5 5 5 5 5 5 r e k a N ! ] ,.%.eXwX4XQ.!.fX{.iX0Xq.A.9. .+.> ; .XOXOX$X$X%X",
"u.h.b.).N.)..XOX X).B.b.x.b..X:XOXb.u.u.O 1 X.' V c k r 5 , 5 5 5 5 : @ . + + + . o @ 5 5 5 4 5 5 r e k a N ! ] ,.%.eXwX4XQ.!.fX}.iX0Xq.A.9. .+.> ; x.b.x.h.l.b.",
"b. XOXOX X).OX%X<X-X$XOX).N.).OX-XOXN.).O 1 X.' V c k r 5 , 5 5 5 5 @ @ @ o o o . . @ 5 5 5 5 5 5 r e k a N ! ] ,.%.eXrX4X!.!.fX}.iX0Xq.A.9. .+.> ; b.). Xx.h.x.",
"u.h.x.N.)..XOX-XOXOX.XOX%X*XOX%XOX)..XOXO 1 X.' M c k r 5 , 5 4 5 @ . . . o o o o o o . @ 5 5 5 5 r r k a N ( ' ,.-.eXrX4XQ.!.dX{.iX0Xq.A.9. .+.> ; l.B.OX).B.).",
"OX X).).).b.h.i.u.w.w.h.B.).).).B.N.).OXO 1 X.' M c k r 5 , 5 4 5 @ . . . o o o o o o . @ 5 4 4 4 r r k a N ( ' ,.-.eXrX4XQ.!.dX{.iX0Xq.A.9. .+.> ; _.+X%X-X-X,X",
")..XOX-X,X<X-XOX%XOX).OXOXOX.X).OXOX).).O 1 X.' M c k r 5 , 5 4 5 @ . . . o o o o o o . @ 5 4 4 4 r r k a N ( ] ,.-.eXrX4XQ.Q.dX{.iX0Xq.A.9. .+.> ; ).N.N.B.N.).",
").).OX-X,X-X Xb.g.y.u.h.b.). XOXOXOX_.OXO 1 X.' M c k r 5 , 5 4 5 @ o o o o o o o o o . @ 5 5 5 5 r e k a N ( ` >.%.eXtX:XW.W.W.[.iX0Xq.A.9. .+.> ; -X$XOXOX$X$X",
"u.h.B..XOX.XOXOXV..X.XH..X@X%X%XB. X X XO 1 X._ M c k r 5 , 5 5 5 @ o o o o o o o o o . @ 5 4 4 4 r e k a M ( ` >.%.uXtX*XT.T.T.R.iXeXq.A.9. .+.> ; N.)..X).N.y.",
" XB.N.n.N..XOX%X>X;X,X%X%X%X_.B.x.h.s.s.O 1 X.] M c k r 5 ; 5 4 5 @ o o o o o o o o o . @ 5 5 5 5 r e k a M ! ` >.%.uXeX+Xr.r.r.g.rX9Xq.A.9...+.1 ; h.h.B..X;XOX",
"OXB.s.u.s.x.b.N.s.h.s.h.b..X.X.X+X.Xn.b.O 1 X.] M c k r 5 3 5 5 5 @ o o o o o o o o o . @ 5 5 5 5 r e k a M ! ] >.%.eXeX3XsXiXsXrXeX2Xq.A.9...+.1 ; .X$X-X_.).s.",
"<X$X X)._.OX.X).+X%X-X%X-X,X,X;XOX-X-XOXO 1 X.] M c k r 5 3 5 5 5 @ o o o o o o o o o . @ 5 5 5 5 r e k a M ! ] >.%.1X2XeXwXwXwXeX3XyXq.A.9...+.> ; B.).N.x.).B.",
".X.X_..X.X).B.b.u.x. XB.b.s.u.u..XOX+X.XO 1 X.` M c k r 5 5 5 4 5 @ o o o o o o o o o . @ 5 4 4 4 r e k a N ( ] ,.-.yX2X2X9X9X0XeXeXyXF.9.Z. .+.> ; OX;X+Xb.x.h.",
"OXOX+XOXOX.XOX.Xb.OXOX'.B.).+X-X%X).x.j.O 1 X.` M c k r 5 5 5 5 5 @ o o o o o o o o o . @ 5 4 4 4 r e k a N ( ] ,.-.yX2X2X9X9X0X9XU.U.6.6.6.{ +.> ; OX_.x.u.N..X",
"B.B.B.B.B.b.b.x.).B.n.h.w.u.b.).B.j.s.x.O 1 X.` M c k u 5 5 5 4 5 @ o o o o o o o o o . @ 5 4 4 4 r e k a M ( ] ,.-.yX2X2X9X9X9XU.I.I.D.D.1.| +.* ; .X%X-X_.OX.X",
".X_.OXOXOX.X).n.).OX-XOXOXOX.XOXOXOXOX'.O 1 X.) M c k u 5 5 5 4 5 @ o o o o o o o o o . @ 5 5 5 5 r e k a M ( ] ,.-.yX2X2X9X0X9XY.L.P.2.P.K.T +.* ; x._.OX_..X).",
";X_.x.j.h.e.a.(.B.OXb.w.t.N.OXOX(.b.j.x.O 1 X.) V c k u 5 5 5 4 5 @ o o o o o o o o o . @ 5 5 5 5 r e k a N ( ] ,.-.yX2X2X9X2X0XY.L.L.K.P.K.T +.* ; B.B.B..XOX.X",
"B.B.$X-X%XOX`.).OX X).OXOX).b.OX+XOX).).O 1 X.) V c k r 5 5 5 4 5 @ o o o o o o o o o . @ 5 4 4 4 r e k a N ( ] ,.-.yX2X2X2X2X2X9XY.Y.C.C.C.| +.* ; %X,X,X+X).B.",
"OXOX.X).(.OX%X-Xj.h.s.B.).h.u.).).OX-X.XO 1 X.) V c k r 5 5 5 4 5 @ o o o o o o o o o . @ 5 4 4 4 r e k a N ( ] ,.-.yX2X2X0X0X9X2X9X9Xq.A.9...+.* ; %X.X).).B.).",
"%X-X>X-X%X-XOXOX X$X-XOX-X,X,X,X<X-XOXOXO 1 X.) V c k r 5 , 5 4 5 @ o o o o o o o o o . @ 5 4 4 4 r e k a N ( ] ,.-.yX2X2X9X9X2X9X9X9Xq.A.9...+.* ; N.x.x.x. XOX",
"b.h.b.).N.h.h.x.h.OXOXn.).OXOXb.b.b.x.b.O 1 X.) V c k r 5 , 5 5 5 @ o o o o o o o o o . @ 5 4 4 4 r e k a N ( ] ,.-.yX2X2X0X0X0X9X9X9Xq.A.9...+.* ; .X.X$X+X.X_.",
"-X).)..X).l.x..Xh.b.x.h.b.b.b. XB. XOX.XO 1 X.' V c k r 5 , 5 4 5 @ o o o o o o o o o . @ 5 4 4 4 r e k a N ( ] ,.-.yX2X2X2X2X2X2X2X2Xq.A.9...+.* ; OX%X-X@X.XM.",
"v.v.).OX.Xb.s.s.).b.a.h.x.h.b.-X<Xb.u.i.O 1 X.' V c k r 5 , 5 5 5 @ o o o o o o o o o . @ 5 4 4 4 r e k a N ( ] ,.-.yX2X2X2X2X2X2X2X2XA.A.9...+.* ; ).B.B.G.B.H.",
"l.v.l.i.h.B.+X%X.X-X-XOX-XOX XOX.XOX Xn.O 1 X.' V c k r 5 , 5 4 5 @ o o o o o o o o o . @ 5 4 4 4 r e k a N ( ] ,.-.yX2X2X2X2X2X2X2X2Xq.A.9...+.* ;  X).B..X.X%X",
"N.N._.=X-X$X$X$X.Xx.B..XN.B.$XOXM._.$X;XO 1 X.' V c k r 5 , 5 4 5 @ o o o o o o o o o o @ 5 4 4 4 r 0 k a N ( ] ,.-.yX2X2X2X2X2X2X2X2Xq.A.9...+.* ; x.b.B.n.h.i.",
".Xb.a.h.B._.OX_.B.x..XV.x.x._.).V.N.x.OXO 1 X.' V c k r 5 , 5 4 5 @ o o o o o o o o o o @ 5 4 4 4 r 0 k a N ( ] ,.-.yX2X2X2X2X2X2X2X2Xq.A.9...+.* ; b.x.l.x.n.G.",
").N._.OXOX_.OXOXG..X%XXXx.n. X XB..X-X$XO 1 X.' V c k r 5 , 5 4 5 @ o o o o o o o o o o @ 4 4 4 4 r 0 k a N ( ] ,.-.yX2X2X2X2X2X2X2X2Xq.A.9...+.* ; b.u.y.h.n.B.",
"u.b..X$X_.B.N.B.G.G. X Xx.l.b.n..X_._.OXO 1 X.' V c k r 5 , 5 4 5 @ o o o o o o o o o . @ 5 5 5 5 r e k a N ( ] ,.-.yX2X2X2X2X2X2X2X2Xq.A.9...+.* ; %XB.n.).+XOX",
"-X.X)..X%X;X;X-X+X XB..X Xl.l./.M.).).).O 1 X.' V c k r 5 , 5 4 5 @ o o o o o o o o o . @ 5 5 5 5 r e k a N ( ] ,.-.yX2X2X2X2X2X2X2X2Xq.A.9.X.+.* ;  Xl.h.B. XB.",
".X).x.h.x.). XB.B.b.l.l.b.g.t.i.N.+X<XOXO 1 X.' V c k r 5 , 5 4 5 @ o o o o o o o o o o @ 4 4 4 4 r e k a N ( ] ,.-.yX2X2X2X2X2X2X2X2Xq.A.9.X.+.* ; G.b.).%X-X$X",
"N.). XB.N.B.N.b..X,X%XOX-X-XOX-X%XOX).).O 1 X.' V c k r 5 , 5 4 5 @ o o o o o o o o o o @ 4 4 4 4 r u k a N ( ] ,.-.yX2X2X2X2X2X2X2X2XA.A.9...+.* ; b.n.B.)..X_.",
" Xb.s.s.x.).l.t.w..X_.h.(.-X=XOXOXOXoXb.O 1 X.' V c k r 5 , 5 4 5 @ o o o o o o o o o o @ 4 4 4 4 r u k a N ( ] ,.-.yX2X2X2X2X2X2X2X2XA.A.9...+.* ; .X-X>X%X_..X",
"n.%XOXi.u.n.B.i.3.j.$X%XV.N.B.B..X.XV.).O 1 X.' V c k r 5 , 5 4 5 @ o o o o o o o o o o @ 4 4 4 5 r e k a M ( ] ,.-.yX2X2X9X9X9X9X9X9Xq.A.9...+.* ; B..X;X(.s.N.",
"%X X)..X.Xn.B.OX$X$X.X)..X%X%X.X.X.X_.B.O 1 X.' V c k r 5 , 5 4 5 @ o o o o o o o o o o @ 4 4 4 5 r e k a V ! ] ,.-.yX2X2X9X9X9X2X2X2Xq.A.9...+.* ; b.j.).B.h.h.",
"b.h.c.OXB.w.i..X.Xb.y.y.s.B.B.b.XX.XB.x.O 1 X.' V c k r 5 , 5 5 5 @ o o o o o o o o o o @ 4 4 4 4 r w 9 p g ! ] ,.-.yX2X2X9X9X9X2X2X2Xq.A.9...+.* ; +X XOX%X).n.",
"x.B.)._.B.x.h.b. X X X XXX+X+XXXXX+XXXn.O 1 X.' V c k r 5 , 5 4 5 @ o o o o o o o o o o @ 4 4 4 4 u u L k.*.R ] ,.-.yX2X2X9X9X9X2X2X2Xq.A.9...+.* ; B. X Xl.y.i.",
"-X$X.X.X-X;X.Xs.B.B.B.G./.|.c.n.l.c.c.l.O 1 X.' V c k r 5 , 5 4 5 @ o o o o o o o o o o @ 4 4 4 4 u q Y 5Xp.R ] ,.-.yX2X2X2X2X2X2X2X2Xq.A.9...+.* ; n. X).l.h.l.",
"-X%X-X-X%XOX).B.,XOXG.B.M.|.c.n.s.i.i.t.O 1 X.' V c k r 5 , 5 4 5 @ o o o o o o o o o o @ 4 4 4 4 u w L +.( ( ] ,.-.yX2X2X2X2X2X2X2X2Xq.A.9...+.* ; OX.X).>X,XB.",
"$X%X;X,X-X_..X$XOXB.b.n.c.x.c.n..Xb.b.N.O 1 X.' V c k r 5 , 5 4 5 @ o o o o o o o o o . @ 4 4 4 4 r r l d C ~ ] ,.-.yX2X2X2X2X2X2X2X2XA.A.9...+.* ; b.b.x..XOXh.",
"OXN.a.h._.<X_.u.y.h.G.OX).c.b.G.OXb.b..XO 2 X.) V Z k r 5 5 5 5 5 @ o o o o o o o o o . @ 4 4 4 4 b k v h C ~ ) ,.%.0X1X0XqXqX0X2X2X0XA.F.9...+.* ; .X;XOX_._.b.",
";X$XV.N.$X;X-XOX).N.)..XOX.XV. Xj.d.j.B.O 2 X.) V Z k r 5 5 5 5 4 @ o o o o o o o . . . @ 4 4 4 4 b k v h C ~ ) ,.-.yX2X0XqXqXqXqXqXqXq.A.9...+.% ; OX.XB.h.s.l.",
"_.(.N.m._.-X;X-X(.N.B.$X%X%X$XXX7X$XB._.O 2 X.) V Z k r 5 5 5 5 4 @ o o o o o o o o o . @ 4 4 4 4 b b v g F ( ] ,.-.uX0XyXqXqXqXqXqXqXq.A.9. .+.% ; $XOX_.)..X-X",
"_.@X@X).N.N.).(..X).N.).%X%X%X&X(.).(.x.O 1 ] _ M c l u 5 3 5 4 : @ . . . . . . . . . + @ @ 4 4 5 b 0 z j F W W W W A.0.0.9.9.9.A.1X9Xq.A.9...+.* ; $X%X-XOX.X_.",
"$X;X;X-X'.).N.b.$X_.OX.X$X.X.X+XOX<X<XOXO > ` _ M c l u 6 3 5 : : @ @ @ @ @ @ @ @ @ @ @ @ @ 5 5 5 u e S m F ( W W E A.A.A.A.A.A.F.qXqXA.A.Z...+.* ; %X-X%X_.b.x.",
"H..X$X%X%X=X$X-X(..X-X8X,X@XB.B.OX'.).).X 1 ..) h c 8 8 6 3 ; , , : @ @ @ @ @ @ ; ; @ @ 5 5 , , , 7 5 8 p j ! E E E <.<.<.:.:.:.7.J.J.A.A.9. .+.% ; $X$X.X).B..X",
"_.).B.B.).).'.=XN.(._..X.X.X.X%XOXOXOX$X-X> >.%.D S ; @ ; @ @ @ @ @ @ @ @ @ @ @ ; ; @ @ @ @ @ @ 4 @ @ @ = x &.! E E .. . .......o.A.S.A.A.S. ./ > ; .XOX_.)._.$X",
"B.B.B.).N.x.b.).$X).N.b.B.V.XX%X.XG._. Xx.< D Z s 8 $X).B.).%X>X).N.b._.%X-XB.a.h.(.-X<X'.h.g.).<X_.k.h.a.l A F ( E .. .{ ` ......<.<.:.:.:.{ / > ; )..X_.N.)._.",
"f.x. X$X%X'.$X-X;X$X.X$X,X%X.XG.B.s.s.B.XX.X$ # - ; $X)._..X).s..X.X.X$X-X$X.X).`.^.`.-X:X'.*X:X=X,X;X'._.$X# s ( R  .{ { { { { ^ { ..` ` ` { / > ; ).B.b.b._.%X",
"y.u.s..XOXN.b.=X;X$X$X$XV.M.N._.#X$XN.j.N.=X<X:X=X$X(.M.j.j._.=X;X_._.$X).b.(..X'._..X=X$X)._.$X.X.X.XV.B.B.V.b n A A A A D B [ ....{ {  . .{ @.* = V.N.V.V.@X$X",
"s.x.b.OX,X-X$X:X$XOX).x.N.V.$X#X$X$X%X=X-X;X$X'.%X$X$X$X=X;X;X<X_.).'.B.a.a._.$Xs.a.u.h._.;X;X-X%X%X%XOX.X)..X.X= = $ $ = # i &.......{ .... .O.& ; _..X%X$X$X$X",
"#X%X.XB._.N.h.h.OX=X$XOX=X8X8X%X$X.XN.N.N.(.OX-Xb.N.B.(..X-X$X_.x._.-X$X).B._.)._..XN.b._.,X:X.X$X-X$XOXB.(.)._.,X'.N.N.$X;Xs *.%.-.[ X.%.=.-.*.1 ; )..XOX.X).x.",
"B..XB.b.N.OXOX=X).`.OXOX-X%XOXN..XOX%X;X-X.X_.=X$X;X-XOX=X8X<X$X<XOX_.B.b.OX;X%X<X8X8X%X_.).B.).OXOX).).).)._.OXOX.X_.).B._.$XO   # # # % % % = ; .XB.b.n.n.n.b.",
"B.-XOXb.x.N.B.).`.).b.(.).b.B._.;X;X;X,X$X(.N.OXN._..XN.x.)._.b._.x.).,X-X.X).N.B.).OX$XB.h.j.B.=X).(.B.'.-X-X-XOX-X-XOXN.b.).$X>X.X.X-X%Xb.x..Xb.n.B.B.B.B..X+X",
"3.x.N.B.).).OX-XOX).).OX%X_..X-X%X.XB.x.h.s.b.).x..X$X_.B.).).B.$Xn.B.).x.s.).-XB.x.n..XOXB.n.)..X^.x.b.).OX%X-X;X;X%X%XOX_..XOXB.u.u.B.%X.XB.B.s.b.OXOX).).).OX",
"@X;X;X%X.X).b.).b.b.B.)..X.XB.B.f.N..X'._.).b.b.j.B._.OX.X).B..X).B.-X-XB.b.B..X-X.XN.)..XOX_.).B.N.B.B.)._._.B..X).N.B.).B.B.N.h.B..X).x.s.x.x.g.B.=X%X'.N.N._.",
".X$X_.).).N.n.OX+X.Xc.s.x.G.B.x.B..XB.b.x.).B.^.B.). X.X).). X$X+XOXOX Xx.)..X).n.B.l.u.s.n..X)..X#X;X#X%X.X.X.X X_. XN.b.l.j.x.h.(.B.h.B.%X%XM.j.(.$X=X_.(.OX=X"
};
