/* XPM */
static char *_0f77490657b46b1b6910d08abfe2aba[] = {
/* columns rows colors chars-per-pixel */
"80 80 232 2 ",
"   c #1E170D",
".  c #1E1812",
"X  c #1E1A19",
"o  c #24160E",
"O  c #24190E",
"+  c #281B0D",
"@  c #261A11",
"#  c #251813",
"$  c #211A1A",
"%  c #28201C",
"&  c #3B2619",
"*  c #3C2819",
"=  c #4B3119",
"-  c #68390F",
";  c #693714",
":  c #663B13",
">  c #6A3C13",
",  c #633B18",
"<  c #6A3D19",
"1  c #723C12",
"2  c #453826",
"3  c #643F22",
"4  c #5F431F",
"5  c #65411C",
"6  c #6E421A",
"7  c #70431A",
"8  c #744619",
"9  c #5D4325",
"0  c #634121",
"q  c #6C4827",
"w  c #7D4B22",
"e  c #7F4E29",
"r  c #7F5427",
"t  c #674F33",
"y  c #694D35",
"u  c #68553E",
"i  c #71563A",
"p  c #73583B",
"a  c #5D5650",
"s  c #6C5645",
"d  c #765D44",
"f  c #795C45",
"g  c #7E634B",
"h  c #5D6473",
"j  c #5C667B",
"k  c #74706F",
"l  c #616678",
"z  c #7F7875",
"x  c #80501C",
"c  c #9C6A1D",
"v  c #824D23",
"b  c #855427",
"n  c #855429",
"m  c #895529",
"M  c #8F5A2D",
"N  c #91592C",
"B  c #945D31",
"V  c #9A6625",
"C  c #9D662B",
"Z  c #9C682D",
"A  c #8C6439",
"S  c #946133",
"D  c #956537",
"F  c #996636",
"G  c #9C6A32",
"H  c #996539",
"J  c #956A3D",
"K  c #9C6D3B",
"L  c #9E703D",
"P  c #A0652B",
"I  c #A1692F",
"U  c #A46A36",
"Y  c #A46D35",
"T  c #A56F3A",
"R  c #A27035",
"E  c #AB773C",
"W  c #B17E3F",
"Q  c #826448",
"!  c #966B41",
"~  c #986A41",
"^  c #9C7246",
"/  c #9A7954",
"(  c #A37345",
")  c #A77648",
"_  c #B17D42",
"`  c #BC7F4D",
"'  c #A67E51",
"]  c #A87D51",
"[  c #8A796E",
"{  c #827A77",
"}  c #837A79",
"|  c #B19034",
" . c #98845C",
".. c #AD824A",
"X. c #BA824C",
"o. c #AC8356",
"O. c #BD8251",
"+. c #BD8C55",
"@. c #B78658",
"#. c #BD8D5A",
"$. c #BE9157",
"%. c #BE915A",
"&. c #9C8664",
"*. c #9C8A68",
"=. c #A68864",
"-. c #A48C64",
";. c #A48D6C",
":. c #AC8E6C",
">. c #B48E6C",
",. c #A4926C",
"<. c #AC936C",
"1. c #B79567",
"2. c #AC8E74",
"3. c #AC9574",
"4. c #AC9B74",
"5. c #AA987A",
"6. c #B49574",
"7. c #B49B74",
"8. c #BC9C74",
"9. c #B4967C",
"0. c #B49D7C",
"q. c #BC9E7C",
"w. c #ACA27C",
"e. c #B5A374",
"r. c #B4A27C",
"t. c #BCA37C",
"y. c #BCAA7C",
"u. c #C39D46",
"i. c #C08C55",
"p. c #C28E5C",
"a. c #C09455",
"s. c #C2925D",
"d. c #CDA94D",
"f. c #C39461",
"g. c #C89562",
"h. c #C5996A",
"j. c #D2A46F",
"k. c #DFBE63",
"l. c #CDA375",
"z. c #C4A57C",
"x. c #C4AA7C",
"c. c #D4A671",
"v. c #D9AE7F",
"b. c #DDB37A",
"n. c #F3DA58",
"m. c #F6E248",
"M. c #EECD72",
"N. c #FFEC60",
"B. c #5D6B82",
"V. c #566888",
"C. c #5A6B8C",
"Z. c #5D718A",
"A. c #5B6D93",
"S. c #5A6B98",
"D. c #5E7092",
"F. c #626C82",
"G. c #64768F",
"H. c #7A7C88",
"J. c #697EA9",
"K. c #7E8182",
"L. c #7489AE",
"P. c #778BB7",
"I. c #758DB7",
"U. c #788DC1",
"Y. c #7E95C3",
"T. c #7E94CA",
"R. c #B69E86",
"E. c #A89E9B",
"W. c #B4A484",
"Q. c #BCA584",
"!. c #BCAA84",
"~. c #B7A789",
"^. c #BBAF8F",
"/. c #BCAC8C",
"(. c #A8A09C",
"). c #8296BB",
"_. c #A7A0A0",
"`. c #C49E84",
"'. c #C4A684",
"]. c #C4AB84",
"[. c #CCAC84",
"{. c #C4A68C",
"}. c #C4AD8C",
"|. c #CCAE8C",
" X c #DAAF80",
".X c #C4B284",
"XX c #C4B28C",
"oX c #CAB789",
"OX c #CCB38C",
"+X c #D7B489",
"@X c #CAAE94",
"#X c #C4B494",
"$X c #CCB594",
"%X c #CCB694",
"&X c #CCBB94",
"*X c #CDB49A",
"=X c #C9BB99",
"-X c #D4B694",
";X c #D4BB94",
":X c #D6B899",
">X c #D4BC9C",
",X c #E6BB87",
"<X c #EDBF8B",
"1X c #F0BF8E",
"2X c #E9BE91",
"3X c #CCC29C",
"4X c #D5C39B",
"5X c #ECC184",
"6X c #EEC18D",
"7X c #F0C28D",
"8X c #E6C395",
"9X c #ECC393",
"0X c #E8C79F",
"qX c #F2C491",
"wX c #DCC5A8",
"eX c #DCC5AA",
"rX c #E7C6A2",
"tX c #E2C4AA",
"yX c #8398C7",
"uX c #839BCA",
"iX c #8EA5CD",
"pX c #8EA5D2",
"aX c #93A9D5",
"sX c #9DB3D8",
"dX c #A0B6DB",
"fX c #9DB4E2",
"gX c #A3BAE4",
"hX c #ABC4E8",
"jX c #ABC4EA",
"kX c #B2C8EB",
"lX c #AEC6F4",
"zX c #B3CAF3",
/* pixels */
"}.XX}.XXOX&X;X%XOX}.}.].}.OX}.t.Q.].}.].r.}.%X&XOXQ.q.3.Q.OX}.Q.!.}.}.OX&XOX].}.'.t.7.7.7.'.}.].].r.3.4.Q.%X}.}.3.;.0.#XOX-X%XOX%X}.'.XX%X}.;X;X;X>X}.}.%X%X%X}.",
"q.Q.OX}.].}.!.].}.OX&X&XOXXXOX}.].}.].%XXX!.!.].Q.t.t.Q.XXOXr.0.].%X-XOX}.Q.t.Q.t.'.].XX|.].!.t.t.].}.}.>X}./.Q.0.4.Q.:X0.0.Q.r.3.7.3.}.}.q.}.}.0.0.7.0.7.0.0.7.",
"}.}.OX|.!.'.Q.t.Q.OX%X}.Q.7.7.OX!.r.7.t.%X!.Q.XXt.0.t.XX].0.3.3.0.}.}.].Q.7.0.t.}.].OX%X.X].e.<.;.7.Q.t.;.3.}.%XXX%XOXQ.%XQ.].Q.6.].3.0.7.3.0.0.'.t.}.].Q.q.t.t.",
"=.7.0.0.t.].}.OXQ.7.3.0.t.}.Q.}.}.].!.}.!.!.XXOXt.0.6.%X}.OXXX].}.t.Q.}.].Q.Q.Q.}.}.t.t.z.t.x.].].].XX%X'.r.].].3.t.!.t.9.Q.}.].0.<.Q.0.,.3.3.0.%X>X;.:.}.%XQ.;.",
".Xt.t.!.'.t.OXQ.].].}.].Q.Q.t.t.t.].].$ $ @ + + + + + + + + + + + + + + + + + + + + + + + + + + + + + + + + + + + + @ @ % !.#X%XXXXX].7.t.].t.XX}.e.XX&X%XXX.X'.",
"].'.}.OX].t.Q.].XXOXQ.,.7.].|.'.t.Q.'.$ a g Q Q Q Q Q Q p p p Q p i i i i i i i i i i i i i i i i i i i i i i i i i p s % ,.3.t.!.!.t.7.].y.7.!.Q.y.7.}.=X4X&Xr.",
"r.].OX].Q.r.OX}.].t.t.q.t.Q.q.7.7.7.7.@ d 1.O.@.#.#.#.#.T T ) #...K L L L L L L L L L L K K K K K K L L L L L L L K L ^ * $ }.}.!.}.z.].OX[.q.'.'.t.%XXXQ.0.e.].",
"].t.7.<.;.-.Q.+X}.].].].t.7.7.'.].].|.O d #.X.` O.O.O.O.T T _ X._ Y T T Y T T T T T T T T T T T T T T T T T T Y Y Y R J * $ XX!.t.t.z.z.'.'.6.0.q.].!.}.}.}.].t.",
"].].Q.Q.].t.Q.<.7.t.].OX;X;X|.].t.t.t.+ d @.O.v m m n n v v v n v w w w w w w w w w w w w w w w w w w w w w w 8 8 x G A * $ 3.7.Q.t.t.0.6.6.2.=.:.r.>X}.2.=.3.].",
"|.}.].].].].OX;X%XOXOXXX].t.OX].'.'.t.O f @.O.; > < 1 > : : - - : : : : : : : : ; ; ; ; ; ; ; ; ; : : : : : > < > 1 G ~ * X t.r.t.0.].;XOX}.%X}.%XOXQ.Q.}.}.}.OX",
"7.].OX%X].0.3.t.OX>X;X].].OXQ.t.].}.|.@ f @.X.; < w n b r r r r v n n n n n n n n n n n n n n n n n n n n n b 6 < 1 G J * $ <.7.Q.=.&.].!.3.%X#X}.}.{.0.2.;.3.].",
"5.}.y.t.t.'.-X+XOX].0.3.q.t.Q.t.'.Q.Q.@ f @.O.; < n B B S S B B B S S B B B B B B B B B B B B B B B B B B B B 7 < 1 F J * X :.;.q.:. .4.XXOXr.t.t.].y.Q.7.<.3..X",
"OX].y.'.t.'.@X;.<.0.z.].|.OXOX3.7.].OX@ f @.O.; ; e B m M M M M M M M M M M N N N N N N N N N N M M M M N N N 6 < 1 F J * $ ].].q.}.XXXX].Q.OXOX].].!.t.t.Q.}.].",
"q.6.1.t.].%XXXXX].'.t.].|.].6.].}.q.<.@ f @.O.; ; n H B ] ) ( ( ( ( ( ( ( ( ( ( ( ( ( ( ( ( ( ( ( ( ~ ( ~ B B < < 1 F J * $ !.t.7.0.'.'.'.'.|.|.[.[.[.q.q.z.'.1.",
"|.[.'.[.OX%XW.].'.t.}.OX}.z.Q.t.q.0.q.@ f @.O.: ; e B m o.o.] ] ] ' ' ' ' ' ] ] ] ] ] ] ] ] ] ] ' ' o.o.] A B < > 1 G J * $ ].%X&X<.t.t.t.z.`.8.q.6.8.6.7.'.|.+X",
"+X6.<.3.t.Q.0.OX].'.t.t.t.0.}.}.}.Q.t.@ f @.X.: > n S N #.1.1.l.l.l.l.l.l.l.l.l.l.l.l.l.l.l.l.l.l.l.1.1.o.D S 7 < > F J * $ %XOX}.t.;X}.z.t.`.8.q.<.:.:.<.8.[.1.",
"XX].x.t.7.<.=.'.t.7.6.'.}.OX8.].|.t.7.o g #.X.: > m T G f.%.c.qX6X6X6X6X6X6X6X6X6X6X6X6X6X6X9X9X9X<X%.%.+.Y F 6 > > F J * $ ;X%X!.XX}.t.0.q.7.8.q.].0.r.t.t.y.].",
"!.'.].}.!.Q.!.&XQ.t.}.t.0.t.t.3.'.|.t.o d #.X.- > n Y Z f.#.c.<X8X0X0XrXrXrXrXrXrXrXrX0X0XrXrX0X2X<X%.a.+.Y I 6 > > F ~ * X r.XX&X}.Q.r.Q.].].y.'.4.4.t..X.XXXQ.",
"t.;.;.4.Q.XX}.OX].Q.!.t.Q.%X%X3.,.*.;.o y K Y : > n Y Z f.#.c.7XR.a h j j j j j j j j j j j l [ wX8Xs.s.p.T U 6 < < F ~ * X w.!.%X%XW.r.t.XXOXXX[.4Xt.!.%X&XXX<.",
"!.%XOX}.'.t.}.XX}.t.].;XOX!.OXOXOX|.y.o y K Y : : n Y C g.%.c.7X(.l Z.B.C.C.V.A.C.V.V.A.C.C.l { wX8Xs.s.i.T U 7 < < F ~ * X Q.r.r.W.].Q.r.Q.OXOX+XW.W.7.0.!./.OX",
"}.OX%X!.7.4.OXQ.t.0.r.&X}.4.!.7.<.3.7.O y K Y : : n Y C g.#.c.7X_.j Z.J.).P.J.L.L.).P.L.J.J.B.{ wX8Xs.s.i.Y U 7 < < H ~ * X %X/.Q.0.XX!.}.].].].|.}.>X}.Q.!.%X}.",
"}.t.7.<.4.Q.}.Q.}.].r.Q.OXXX].OXXX].Q.O y K Y : : n Y C g.%.j.7XE.j B.L.kXdXyXyXaXzXgXuXyXP.B.z wX8Xs.s.+.Y I 6 < > H ~ & X OXOX#X%XW.].%X4X.Xt.t.}.Q.Q.}.*X%XQ.",
"7.}.XXQ.t.Q.-XQ.r.0.!.%Xt.,.3.%X>X/.3.O y K Y : : n Y C g.%.j.7XE.l B.L.zXgXY.Y.pXzXgXY.yXP.F.z wX8Xf.f.+.Y U 6 < < H ~ * X Q.r.7.Q.XXQ.r.0.y.[.OX].!.'.7.;.-.r.",
"].OXXXQ.!.].<.].].].XXXX].Q.~.~.%X=X/.@ y K Y : : n Y C g.%.j.7X(.j A.L.uXaXlXlXfXY.Y.Y.yXP.F.} wX8Xs.f.p.T U 7 < < H ~ * X XXOX/.%X&XXX].XXOX].z.t.<.t.[.].].&X",
"=XXXW.e.4.4.#X&X!.!.XX0.W.]./.].#XXXQ.@ y K Y : : n Y C g.%.c.6X(.j A.J.yXiXzXzXfXY.Y.yXyXP.B.{ wX8Xs.f.#.Y U 7 < < H ~ * X ].}.r.#X&XXXXXXXe.r.!.oXr.4.r.#X>X#X",
"/.XXXXXX#X&X>X!.Q./.t.,.!.XX<.;.3.!.&X@ y K Y : : n Y C g.#.c.6X(.j D.L.aXaXfXfXpXY.uXaXaXyXB.{ wX8Xs.f.#.Y U 7 < < H ~ * X }.;X%X=XXX}.Q.7.y.XXoXXXOX#X%X&XXXOX",
"#X&X%X}.#X4XXX>X}.!.t.}.&XOX>X4XOX!.Q.@ y K Y : : n Y C g.%.c.6X(.j V.L.zXfXU.T.T.yXaXjXkXsXB.{ wX8Xs.f.#.Y U 7 < < H ~ * $ 0.r.}.#XQ.~.}.}.OX}.r.].OX&X%X].!.XX",
"}.!.].r.7.Q.0.!.7.Q.;X].Q.r.t.}.XXt.3.@ y K Y : : n Y C g.#.c.6X(.j B.L.zXfXuXT.uXI.iXgXkXsXF.z wX8Xs.s.+.Y U 7 < < F ~ * $ 0.7.r.Q.~.Q.0.W.0.t.!.&X&X;XXXW.r.r.",
"Q.].XX!.t.Q.t.XXq.t.Q.<.Q.%Xt.q.].}.t.@ y K Y : : n Y C g.p.c.6X(.j V.J.uXyXY.uXpXlXjXjXkXsXB.z wX8Xs.s.+.Y I 6 < > F ~ * $ t.Q.Q.%X}.Q.Q.}.!.].%XOXt.7.3.<.0.7.",
"0.t.!.}.].Q.].Q.t.%X%X0.t.].%Xr.Q.].}.@ y K Y : : n Y C g.p.c.6X(.j C.J.yXY.Y.Y.iXjXjXjXkXdXB.z wX8Xs.p.+.Y I 6 < > F ~ * $ OX].Q.Q.0.0.t.Q.].t.t.1.]./.!.Q.0.4.",
"R.Q.'.].Q.Q.XX|.}.}.'.Q.].Q.q.6.;.<.q.@ y K Y : : n Y C g.#.c.6X(.j C.J.uXuXpXpXaXjXgXgXgXaXB.z wX8Xp.p.+.Y Z 6 < > F ~ * $ Q.Q.r.}.|.].8.<.z.t.7.t.t.0.7.Q.t.t.",
"XX!.]..X}.].XX3.7.!.t.t.7.t.!.XX&X]./.@ y K Y : : n Y C g.#.c.6X(.j C.L.yXaXgXjXjXjXsXY.uXP.B.{ wX8Xs.f.#.R Z 7 < > D J * $ 0.3.6.'.Q.r.t.].Q.7.3.].0.Q.].Q.].].",
"}.t.t.t.Q.t.t.Q.Q.%XQ.}.Q.XXQ.}.}.].Q.@ y K Y : : m Y P g.%.c.qX(.j G.J.P.).aXsXaXsXpXP.P.J.F.} tX9Xp.p.+.Y I 6 < > F ! * X t.6.3.Q.].t.0.t.'.Q.t.t.<.t.Q.0.t.}.",
"].}.!.].XXOX}.0.0.Q.Q.}.Q.0.Q.t.Q.q.q.@ y K Y : : m Y P g.%.c.6XE.h Z.Z.A.C.C.D.C.A.A.S.S.A.F.{ tX2Xs.s.+.Y I 6 < > F ! * $ ].Q.t.r.].0.3.7.!.].].Q.}.].Q.'.!.;X",
"Q.7.3.4.t.!.t.3.5.}.#X>X0.3.q.Q.q.t.Q.@ y K Y : : m Y P g.%.c.7XE.h B.C.C.C.B.V.C.V.V.C.C.C.l { tX2Xp.p.+.Y I 6 < > F ~ * $ !.!.].0.Q.0.7.0.'.Q.t.Q.OX}.Q.t.Q.e.",
"}.OX].].].}.}.Q.}.;XOXXX}.}.<.t.t.!.].O y K Y : : m Y P g.%.c.,X^.k K.H.H.H.H.H.H.H.H.H.H.H.z [ tX9Xp.p.+.Y I 6 < > F ~ * $ r.].#XQ.t.'.].OXQ.0.t.].Q.].'.0.q.OX",
"0.OX].r.7.0.OX&X].!.e.OXr.<.W.%X!./.!.O y K Y > : m Y C g.%.j.7X:X%X*X*X*X*X*X%X*X*X*X*X*X*X-X+X8X9Xp.p.+.Y I 6 < > F ~ * $ }.].}.3.Q.].].Q.<.Q.;X].7.-.3.%X;X!.",
"!.Q.XX%XXX!./.t.XX+XOXy..XOXw.XXq.:.3.O y K Y > : m Y C s.$.j.7X,X X X X X X Xv. Xv. X X X Xv. X<X7Xs.s.+.Y I 6 < > F ~ * $ W.r.r.XXt.].].Q.t.!.OX0.OX!.t.XXOX4.",
"].!.Q.Q.!.!.3.].XXOXXXXXXXOX&Xr.-.;.t.o y K Y > : m Y C s.$.j.7XqX<X9X<X<X<X<X<X<X<X<X<X<X<X<X<X6X6Xs.a.+.Y I 7 < < F ~ * $ XX].Q.}.].].!.t.t.|.;Xr.}.t.t.].].XX",
"%X%XXX!.W.Q./.;X&X%X.X}.XXXX!.3.-.3.].o y K Y > : m Y C a.X.c.7X,X<X<X<X<X<X<X<X<X<X<X<X<X<X6X<X<X7Xs.s.i.Y I 7 < < F ~ * X !.0.4.XX].XXOXOXQ.t.t.}.OX}.].XXOXXX",
"XX4.;.,.Q.OXW.t.}.XXXXXX%X%X%X}./.].XXO y K Y > : m Y V d.u.k.M.M.5X6X<X<X<X<X<X<X<X<X<X<X<X<X<X<X6Xs.s.i.Y I 7 < < F ~ * X Q.].Q.].XXz.0.7.0.'.OX].t.t.t.t.].Q.",
"OXXXQ.r.W.r.;.!.XX%X%XXX}.!.|.7.r.!.^.o y K Y > : n Y c N.m.m.m.M.M.5X<X<X<X<X<X<X<X<X<X<X<X<X<X<X6Xs.s.+.Y I 7 > < F ~ * X Q.].].].OXt.0.7.7.7.t.}.!.].!.].}.>X",
"].r.Q.}.].}.;X#X%X%XXX}.!.0.7.0.!.&X&XO y K Y > > n Y c n.n.n.n.M.M.5X6X<X<X<X<X<X<X<X<X<X<X<X<X<X6Xs.s.+.R I 7 > > F ~ * X ].Q.Q.].4.<.7.].].}.OXy.t.r.t.!.!.3.",
".XXX/.!.!.W.4.#X}.}.}.&X}.W.>.t.W.W.W.O y K Y > > n Y V | | u.k.b.,X<X6X<X<X<X<X<X<X<X<X<X<X<X<X<X6Xs.s.+.R I 7 > > F ~ * X %XOX'.Q.OX].t.}.].].}.].].].!.OXOX#X",
"&XQ./.#X/.0.}.r.t.r.4.3.7.Q.XX<.-.r.y.o y K Y > : n Y C +...$.b.b.qX6X6X6X<X<X<X<X<X<X<X<X<X<X<X<X6Xs.s.+.R I 7 > > F J * X q.3.<.<.Q.].Q.r.!.0.<.4.!.!.Q.r.XXQ.",
"].Q.Q.].Q.0.t.}.Q.q.4.t.].OX0.Q./.t.0.o y K Y > : n Y Z @.] h. X,X6X<X6X<X<X<X<X<X<X<X<X<X<X<X<X<X6Xs.s.+.R I 7 > > F J * X 6.6.t.OX}.OX}.].XXOX}.XX#XXXXXXX/.Q.",
"0.t.t.t.Q.t.r.q.t.].|.|.Q.0.@X0.'.Q.%Xo y K Y > : n Y C f.#.c.6X6X6X6X6X6X6X6X6X6X6X6X6X6X6X6X<X<X<Xs.a.+.Y I 7 > > F ~ * X 0.7.Q.;XQ.|.OX}.Q.q.7.7.OXt.;.&.-.Q.",
"t.0.0.].}.OX%XQ.7.;.;.t.}.OX}.9.0.0.Q.o y K Y > : n Y C s.#.j.7X7X1X6X6X6X6X6X6X6X6X6X6X6X6X6X<X<X<Xs.a.+.Y I 7 > > F ~ * X t.}.OXq.;.6.0.q.t.t.0.XXXX}.].t.Q.r.",
"t.].].].].].z.Q.'.|.+X-XOX}.6.4.0.<.;.o y K Y > : n Y C s.#.j.7X1X1X6X6X6X6X6X6X6X6X6X6X6X6X6X<X<X<Xs.a.+.Y I 7 > > F ~ * X 6.7.q.0.z.Q.'.Q.Q.|.%X].].}.OX%X].|.",
"t.z.].z.'.].OX|.].'.'.z.t.'.[.t.8.OXOXo y K Y > : n Y C f.%.c.<X<X<X<X<X<X<X<X<X<X<X<X<X<X<X6X6X<X6Xs.s.+.R I 7 > > F ~ * X t.].|.t.0.8.0.q.z.Q.'.'.7.3.6.0.0.t.",
"}.3.:.;.;.6.8.<.0.t.q.<.3.7.Q.q.0.7.6.o y K Y > : n Y C f.%.c.<X<X<X<X<X<X<X<X<X<X<X<X<X<X<X6X6X<X6Xs.s.+.R I 7 > > F ~ * X Q.}.OXt.t.8.7.1.<.<.<.<.3.7.Q.].|.7.",
"].].}.OXOX[.q.Q.'.'.t.'.|.OXQ.t.q.7.:.o y K Y > : n Y C f.%.c.<X<X<X<X<X<X<X<X<X<X<X<X<X<X<X6X6X<X6Xs.s.+.Y I 7 > < F ~ * X Q.].}.t.}.].'.Q.Q.].].].Q.].}.|.XXQ.",
"Q.3.7.q.}.|.|.8.t.t.].].Q.t.q.Q.}.OXOXo y K Y > : n Y C g.%.c.<X<X<X<X<X<X<X<X<X<X<X<X<X<X<X6X6X<X6Xs.s.+.Y I 7 < < F ~ * X 7.q.t.'.;.;.:.<.t.}.|.#X}.].].Q.t.,.",
"].OX!.t.0.0.q.0.Q.].|.|.'.t.t.3.7.Q.t.O y K Y > : n Y C f.%.c.<X<X<X<X<X<X<X<X<X<X<X<X<X<X<X6X6X<X6Xs.s.i.Y I 7 < < F ~ * X q.Q.'.|.-X%X%X@X%X*X-X-X-XOX}.].].&X",
"}.>X&X%XXXQ.<.q.q.t.0.0.t.].'.].}.|.Q.O y K Y > : n Y C f.%.c.<X<X<X<X<X<X<X<X<X<X<X<X<X<X<X6X6X<X6Xs.s.i.Y I 7 > < F ~ * X OX'.q.7.3.6.0.0.Q.Q.t.7.r.Q.t.Q.].4X",
";X&XXXXXOX%X%X].|.OX-X].'.t.}.|.].0.<.O y K Y > : n Y C f.%.c.<X<X<X<X<X<X<X<X<X<X<X<X<X<X<X6X6X<X6Xs.s.i.Y I 7 > > F ~ * X }.'.Q.}.OXOXOXOX'.t.q.}.|.OX%X%X%X&X",
";X%XXXOX%XOX%X-XOX}.OX%XOX[.}.}.Q.<.:.O y K Y > : n Y C f.%.c.<X<X<X<X<X<X<X<X<X<X<X<X<X<X<X<X<X<X7Xs.s.i.Y I 7 > > F ~ * X 7.7.7.|.Q.z.].].].[.OX%X%X&X;X;X;X&X",
"3.t.Q.7.<.<.t.y.!.x.t.6.2.:.3.].[.OX&XO y K Y > : n Y C f.%.c.<X<X<X<X<X<X<X<X<X<X<X<X<X<X<X<X<X<X6Xs.s.+.Y I 7 > > F J * X #XXX^.3XOXy.t.t.t.t.z.0.}.}.Q.0.3.t.",
"&.t.5.3.3.7.Q.!.].].OX|.'.q.t.!.t.Q.t.O y K Y > : n Y C f.%.c.<X<X<X<X<X<X<X<X<X<X<X<X<X<X<X<X<X<X6Xs.s.+.Y I 7 > > F J * X t.Q.t.r.3.3.3.3.3.6.0.Q.5.:.&. .&.Q.",
"0.6.0.Q.Q.0.&.7.0.Q.|.t.q.6.r.'.|.}.].O y K Y : : m Y C f.%.c.<X<X<X<X<X<X<X<X<X<X<X<X<X<X<X<X<X<X1Xs.s.+.Y I 7 > > F ~ * X |.z.0.t.{.Q.'.}.}.q.3.7.Q.Q.].}.Q.3.",
"Q.t.6.0.Q.}.%Xr.q.t.].'.].|.}.3.<.3.7.O y K Y > : m Y C f.%.c.<X<X<X<X<X<X<X<X<X<X<X<X<X<X<X<X<X<X1Xs.s.+.Y I 7 > > F ~ * X 7.6.:.:.0.0.0.0.R.R.0.3.Q.Q.}.OX].}.",
"t.3.0.|.>X%XQ.Q.t.Q.].t.t.t.}.;.-.3.7.O y K Y > : m Y C f.%.c.<X<X<X<X<X<X<X<X<X<X<X<X<X<X<X<X<X<X1Xs.s.+.Y I 7 > > F ~ * X t.}.}.7.;.q.|.}.0.Q.}.OX].0.t.}./.3.",
"Q.3.3.0.0.0.Q.3.2.3.Q.6.<.<.Q.0.Q.}.%XO y K Y > : m Y C f.%.c.<X<X<X<X<X<X<X<X<X<X<X<X<X<X<X<X<X<X6Xs.s.+.Y I 7 > > F ~ * X '.}.|.Q.6.].OX'.<.,.<.r.3.;.3.Q.}.Q.",
"Q.Q.t.!./.!.XXXX!.}.>X!.r.OX^.r.3.4.Q.O y K Y > : m Y C f.%.c.<X<X<X<X<X<X<X<X<X<X<X<X<X<X<X<X<X<X6Xs.s.+.Y I 7 > > F ~ * X 0.}.OXQ.t.0.7.4.t.#X>X}.}.}.Q.W.Q.].",
"3.].XX%X;X&X#Xt.3.,.t.Q.Q.].XX=XXX].].O y K Y > : m Y C g.%.c.<X<X<X<X<X<X<X<X<X<X<X<X<X<X<X<X<X<X6Xs.s.+.R I 7 > > F ~ * X t.Q.0.3.r.0.3.:.;.0.].].<.;.&.&.;.Q.",
"XXt.0.0.W.XX!.Q.r.Q.XX}.].!.W.].Q.t.0.O y K Y > : m Y C g.%.c.6X6X6X6X6X6X6X6X6X6X6X6X6X6X6X6X6X<X7Xs.s.$.Y I 6 < > F ~ * $ Q.r.Q.}.'.Q.t.0.0.].=X}.;.;.4.Q.].0.",
"{.}.].t.}.&X!.<.t.].Q.<.4.0.].3.7.Q.t.O y K Y : : m Y C f.%.c.<X<X<X<X<X<X<X<X<X<X<X<X<X<X<X<X<X<X6Xs.s.$.Y I 6 < > H ~ * $ }.'.Q.OX>X%XXX}.r.Q.}.%Xr.Q.].}.!.].",
">X%X}.'.].OX].].}.OXOX+XOX}.0.}.].Q.t.O y K Y : : m Y C f.%.c.7X7X7X7X7X7X7X7X7X7X7X7X7X7X7X7X7X6XqXs.s.%.Y I 6 < > H ~ * $ Q.Q.0.:.;.&.&.3.Q.Q.Q.t.Q.}.XXOX%X&X",
"].].0.3.3.7.q.:.3.7.'.0.3.-.t.%X}.Q.!.O y K Y : : m Y C f.%.c.j.j.j.j.j.j.j.j.j.j.j.j.j.j.j.c.c.l.c.s.s.%.G I 7 < < F ~ * $ %X;X>X}.OX}.Q.}.}.].Q.}.Q.Q.Q.Q.Q.XX",
"%X}.OX%XOXq.<.:.:.6.6.:.6.'.OX}.r.r.!.O y K Y > : n Y C s.s.%.#.#.#.+.+.+.#.#.#.#.#.#.#.#.#.#.#.+.#.#.%.%.G I 7 < < F J * $ %X;X%X0.2.-.;.3.Q.'.}.}.!.}.}.}.}.}.",
"<.<.4.0.t.!.}.Q.4.&.3.Q.,.,.%X!.r.Q.XXO t K Y > : b Y C _ E _ _ _ _ _ _ W _ _ _ _ _ _ _ _ _ _ _ W _ W _ E C C 6 : > D J * $ ].}.].}.y.].].x..XOXOXt.'.'.q.7.6.;.",
"t.XX%X;X%XXX].XX].Q.].!.Q.OXQ.!.!.XX%XO t K T > : n T Z G Z G G Z Z Z Z Z Z Z Z Z Z Z G G G Z Z Z G V Y Z Z G 6 , > D ! * $ q.r.].OX-X&X;XOXOX!.t.7.<.<.q.Q.Q.].",
"t.t.Q.t.0.r.XXQ.Q.7.0.0.<.<.r.t.0.7.4.  u / ^ , 5 A ^ ^ ( ( ( ( ( ( ( ( ( ( ( ( ( ( ( ( ( ( ( ( ( ( L ( ( ( ) q 0 5 ! / * $ Q.!.}.Q.|.OX%XOX;X;X&X}.%X}.t.7.0.t.",
"r.t.Q.r.r.t.OX%XOX].}.Q.7.4.r.&X;X&X;X% 2 9 0 = = = 9 0 0 9 9 0 0 0 5 5 5 0 0 0 0 0 0 0 3 3 0 0 3 0 , 0 5 5 4 = = = 9 9 & $ ].].Q.0.;.7.'.t.<.;.;.].|.].0.3.7.Q.",
"r.!.].!.Q.t.0.Q.].Q.7.<.:.7.6.Q.Q.'.!.$ @   O @ @ .   O             O O O O o o o o o o o o o o O o o O o     . @ @ O @ $ $ }.}.].].0.}.}./.Q.|.%XOX7.4.0.t.t.Q.",
"%X}.}.OXXX}.t.|.%X|.t.Q.Q.OX}.t.0.7.Q.].Q.0.<.3.;X%X!.t.].}.t.3.9.oX].W.t.r.t.Q.!.}.OX%X!.}.].3.7.t.}.}.;X<.Q.!.Q.OX!.<.t.t.t.t.0.7.Q.t.q.3.;.0.Q.t.<.7.}.&X;X].",
"!.r.0.t.].].Q.q.q.:.3.'.q.0.t.t.q.Q.}.].!.%X%X}.}.}.Q.Q.'.0.;.&.3.#XXX!./.}.t.!.].!.!.}.!.].Q.!./.OXOX}.}.%X}.!.XXOX}.!.].}.}.}.].q.Q.}.%X}.}.].}.}.}./.}.}.!.t.",
"Q.XX}.].!.}.XX}.XXXX}.!.}.}.t.}.}.].!.].r.!.].Q.7.0.Q.0.7.0.Q.].r.3.<.7.}.OXz.Q.]..X;X;X|.Q.t.r.!.}.].Q.}.r.].].7.!.%X&Xt.XX%XOX}.Q.}.'.Q.}.Q.0.}.|.Q.Q.Q.Q.t.}.",
"%X!.r.3.3.4.r.XX%X;X>X].r.4.3.7.0.0.0.4.4.].&XXX}.].t.!.].XX;X;XOX:.<.0.].|.t.Q.].].].Q.Q.t.Q.;X&X!.r.0.,.3.}.>XQ.].}.].}.].Q.W.}.%X4.3.<.t.3.;.Q.Q.%X].4.3.Q.OX",
"}.XX}.XXOX&X;X%XOX}.}.].}.OX}.t.Q.].}.].r.}.%X&XOXQ.q.3.Q.OX}.Q.!.}.}.OX&XOX].}.'.t.7.7.7.'.}.].].r.3.4.Q.%X}.}.3.;.0.#XOX-X%XOX%X}.'.XX%X}.;X;X;X>X}.}.%X%X%X}."
};
