/* XPM */
static char *_4dc19bf420145559330539bcbd01d03VRXyukSgMRMlBvi9[] = {
/* columns rows colors chars-per-pixel */
"80 80 214 2 ",
"   c #000002",
".  c #0D0001",
"X  c #01010A",
"o  c #1E1B12",
"O  c #210D03",
"+  c #2A150C",
"@  c #38170C",
"#  c #5C1A0C",
"$  c #4B260A",
"%  c #58280D",
"&  c #4A291A",
"*  c #552B1F",
"=  c #5B3618",
"-  c #68300F",
";  c #682D1A",
":  c #702D13",
">  c #643419",
",  c #643818",
"<  c #7D3B18",
"1  c #593422",
"2  c #79442A",
"3  c #704131",
"4  c #833912",
"5  c #8F4021",
"6  c #83442B",
"7  c #984622",
"8  c #964C2B",
"9  c #9E4B2C",
"0  c #884630",
"q  c #994E39",
"w  c #9B5636",
"e  c #A14D28",
"r  c #AD5827",
"t  c #B45E2E",
"y  c #A34C31",
"u  c #A65939",
"i  c #BC5D33",
"p  c #B45A39",
"a  c #AE603C",
"s  c #B0603B",
"d  c #BA663A",
"f  c #CB5F29",
"g  c #C45C38",
"h  c #CA612D",
"j  c #DA6B2B",
"k  c #C76737",
"l  c #C06338",
"z  c #C96E3D",
"x  c #D96A32",
"c  c #DC7234",
"v  c #D3723A",
"b  c #D77339",
"n  c #E0672E",
"m  c #F76E28",
"M  c #E3742D",
"N  c #F57B2E",
"B  c #E76D35",
"V  c #EB6F35",
"C  c #E46D3A",
"Z  c #F76D39",
"A  c #E57436",
"S  c #EB7637",
"D  c #E9703B",
"F  c #EA7A3B",
"G  c #F67435",
"H  c #F67B36",
"J  c #FD7E36",
"K  c #FC753D",
"L  c #F67C3C",
"P  c #FC7D3C",
"I  c #BF684A",
"U  c #C0654A",
"Y  c #D26949",
"T  c #DB7846",
"R  c #E67B40",
"E  c #F67145",
"W  c #FF7645",
"Q  c #F57D43",
"!  c #FC7D43",
"~  c #F77E49",
"^  c #FC7C4A",
"/  c #ED7553",
"(  c #FA7D51",
")  c #D88029",
"_  c #F8812F",
"`  c #ED833B",
"'  c #F58635",
"]  c #FC8335",
"[  c #FC8A34",
"{  c #F6833C",
"}  c #FD833D",
"|  c #F58C3D",
" . c #FE8A3D",
".. c #FE9B3C",
"X. c #F9A33E",
"o. c #FABE39",
"O. c #F6C43D",
"+. c #F7D33D",
"@. c #FFD43F",
"#. c #FBDA3D",
"$. c #FAE53C",
"%. c #9C825C",
"&. c #9C8664",
"*. c #9C8D64",
"=. c #9C8A6C",
"-. c #A48664",
";. c #A48D64",
":. c #AC8E64",
">. c #A48D6C",
",. c #AC8E6C",
"<. c #B48E6C",
"1. c #A4926C",
"2. c #AC936C",
"3. c #AC9A6C",
"4. c #B4966C",
"5. c #B49A6C",
"6. c #AC8E74",
"7. c #A49474",
"8. c #AC9574",
"9. c #AC9B74",
"0. c #AC967C",
"q. c #AC9C7C",
"w. c #B49574",
"e. c #B49B74",
"r. c #BC9C74",
"t. c #B4967C",
"y. c #B49D7C",
"u. c #BC9E7C",
"i. c #ACA27C",
"p. c #B4A274",
"a. c #BCA474",
"s. c #B4A27C",
"d. c #BCA37C",
"f. c #B4AA7C",
"g. c #BCAA7C",
"h. c #EF8241",
"j. c #F58442",
"k. c #FE8341",
"l. c #F78F46",
"z. c #FE8B44",
"x. c #F4824C",
"c. c #FE834A",
"v. c #FE8B4B",
"b. c #FE9344",
"n. c #FD9942",
"m. c #FF924B",
"M. c #FD9B4B",
"N. c #FE8C53",
"B. c #FC8A56",
"V. c #FE9453",
"C. c #FE9A51",
"Z. c #F89A58",
"A. c #FFA244",
"S. c #FFAC42",
"D. c #FFA34C",
"F. c #FDA84A",
"G. c #FFB545",
"H. c #FCBC45",
"J. c #F9BE4A",
"K. c #FEA353",
"L. c #FCA755",
"P. c #FFAB5D",
"I. c #C4A57C",
"U. c #C4AA7C",
"Y. c #FFA564",
"T. c #FFAC63",
"R. c #FDBD69",
"E. c #FFC242",
"W. c #F2CB42",
"Q. c #FECC46",
"!. c #FFCC49",
"~. c #FED543",
"^. c #F6D944",
"/. c #FDDB43",
"(. c #FDD752",
"). c #FEE243",
"_. c #F7EC44",
"`. c #FDF04C",
"'. c #FFE350",
"]. c #B49E84",
"[. c #BC9E84",
"{. c #B4A484",
"}. c #BCA584",
"|. c #B4AA84",
" X c #BCAA84",
".X c #BCA68C",
"XX c #BCAC8C",
"oX c #BCB28C",
"OX c #C49E84",
"+X c #C4A684",
"@X c #C4AB84",
"#X c #CCAD84",
"$X c #C4A68C",
"%X c #C4AD8C",
"&X c #CCAE8C",
"*X c #C4B284",
"=X c #C4B28C",
"-X c #CCB688",
";X c #CCB38C",
":X c #D4B58C",
">X c #D4BA8C",
",X c #C4AE94",
"<X c #CCAE94",
"1X c #C4B394",
"2X c #CCB594",
"3X c #CCBA94",
"4X c #CCB69C",
"5X c #CCBA9C",
"6X c #D4B694",
"7X c #D4BB94",
"8X c #D4BD9C",
"9X c #C4B1A3",
"0X c #D4C29C",
"qX c #DCC59C",
/* pixels */
"}.s.%X2Xs.}.%X X@X%X@X%X3X X2.@X}.2.9.@Xu.e.}.e.w.y.+X}.w.8.s. X=X%X%X=X}.}.}.}.}.%Xd.}.+X8.e.+X}.u.w.$X X%X2X2X=X@X+X%X+X}.;X8X=X%Xs.}.%X%Xs.@X%X$X@X@Xd.3X2X2.",
"d.}.}.d.}.%X;X2X3X2X%X@X;X@X@X;X;X:X;Xy.}.@X}.}. Xy.%X;X%X;Xy.s.}. Xd.{.8.y. Xy.s.8X=X&X;X2X7X=X%X2X%X}.@X%X@X}.%X2X+X}.}.y.,.>.&.8.}.}.}.s.}.=X;X8X3X%X+X;X2X@X",
"%X%X}.%X}.}.}.}.=X@Xy.8.e.u.,.e.+Xy.8.d.;X%X}.oX=Xy.;X=Xd. X=X%X%X%X2X3X2X%X;X2X2X X Xf.s.s.}.1.>.y.}. Xy. X2X%X}.@X@X%X7X8X%X;X}.%X%X@X}.%X}.}.}.@X=Xy.8.e.u.,.",
"@X*X;Xd.+X+Xe.w.>.2.9.d. X%X}.*.8.}.1.2X=Xs.}.8X7X2X9.y.2X%X9.8.8.y.%X}.9.9.}.=X3X=X;X}.@Xs.;.d.%Xd.d.@Xy.;X@X X@Xe.8.d.%X@X%Xg.@XU.*X;X;X+X+Xu.e.2.>.9.y. X%X}.",
";X;Xd.e.2.2.}.}.@X=X2X2X=X@X=X}.@X X}.}. X X=X=X=Xy.y.y.8.e.@X}.8.}.%X%X@Xy.>.    @X X8.d.3X%X X=Xd.}.@X}.9.y.e.7.d.d.s.s.@X;X6X7X;X;X Xd.8.2.u.}.d.@X2X7X=X%X=X",
"2X7X3X%X2X%Xe.y.d.d.}.y.s.=X}.e.y.y.2.s.}.y.e.9.e.8.8.}.%X}.2.9.@X%Xy.8.e.+X  U M.    }.s.}.d.%X;X@Xs.&.e. X;X@X@X}.=X+X X%X}.&X2X;X7X7X3X2X2Xd.e.d.d.}.d.s.@X}.",
"y.2.>.@X&X@X8.e.}.d.}.s.d.;X2X@X%X}.e.s.@X7X3X2X=Xy.@X%X2X%X@X%X%X@X%X2X;X    F z.9 p   &Xe.8.y.}.;X;Xd.}.8. X}.y.;X@X X@X}.y.>.+Xd.2.>.>.%X&Xy.8.s.}.}.s.d.%X2X",
"&.>.}.d.2.e.3X7X@X%X%X=X%Xd.&X&Xd.}.}.%X@Xy.e.@X@X}.2.8.7X2Xd.@X%Xd.t.}.@X    p N.k.!   2X%X@X8.e.%X%X7X2.}.d.}. X2.d.d.d.y.e.}.u.8.>.y.}.9.2.%X3X2X@X%X;X%X}.&X",
"%X%X%X%X%XXX%X Xd.s.y.@X@X}.u.,.8.+Xu.d.d.u.}.@X+X X2X%X%X%X}.+Xy.>.8.$X=X    g l.L }   %X@X}. XXX;X%X%X2X%X@X=X%X X X%X%X@Xu.}.2X%X%X@X%X%X%X%X%X Xd.y.d.@X@Xu.",
"%X}.%X&X}.}.}.d.%X=X%X X%X=X%X=X%X X%Xd. X%X@X@X%Xs.@X}.e.y.y.e.y.}.s.8.2.e.  u C     7X7X}.d.s. X@X}.%Xs.@Xe.e.2X3Xd.=X;X%X}.%X}.%X}.y.%X%X}.}.}.}.%X%X@X%X;X%X",
"}.8.}.}.2X@X8.}.;X Xs.8.9.s.=X7X8X@Xs.8.8.y.y.9.8.9.3X=X%X@X X@X=X7X;X}.2.y.&X    @X@X@X}.d.}.7X3Xs.y.7.8.%X1X}.%X@X%X@X{.%X2X9.2.d.8.>.}.%X2X9.8.2X;Xs.8.9.s.=X",
"2X7X7X8X%X%X2X2X%X=X%X;X3X7X2X%X%X@X%X%X@X}.@X@X}.s.2X3X;X}.8.}.;X%X X@X%X;X;X%X@X+Xd.e.e.+X%X@X@X8.9.}.2X%Xd.8.y.1X2X6X;X2X%X+X2X%X7X7X7X2X%X2X2X%X%X%X=X3X8X2X",
"y.y.+Xd.%X@Xu.d.d.%X;X X+X}.d.;X2X%X}.e.}. Xs.d.=X2X}.=Xd.y.=X@Xy.8.y.@X%X@Xe.9.y.%X@X;X2X@Xp.2.>.}.d.>.8.%X2X=X;X}.}.}.}.w.@X8.e.8.y.y.+X+X%X}.u.%Xd.;X&X+X Xd.",
"e.8.2X8X>.,.2X}.>.e.y.d.@X%X;Xe.8.y.d.}. X%X@X%X;X X=X;Xd.y.2X%X;X=X%X=X}.%X}.+X}.%X%Xd.d.d.U.@X@X=X2X+Xs.@Xe.8. Xd.t.}.@Xy.2.}.1.8.8.y.2Xy.>.%X2X-.>.y.y.@X;X;X",
"s.d.%Xa.=X3X=X*X+Xd.d.+Xd.;X}.@X%X@X}.d.d.d.@X@Xd.}. X}.d.%X;X@X        %X;Xd.y.w. Xy.y.d.8.,.f.=X1.8.;X}.@X}.e.e.&Xs. X2X=X=X@Xd.@Xd.=X%X X=X2X=X*X+Xd. Xd.@X}.",
"e.e.}.g.e.%XqX3Xs.+X%X@Xd.}.@X;X}.1.e.&X@Xd.}.@X@Xe.d.@X3X;X    ) v.z.f   @Xy.w.2. Xd.e.w.u.I.{.%X@Xd.u.;Xd.d.}.d.d.y.1.d. X Xd.@Xg.e. X}.s.e.5XqX@Xs.%X;Xd.d.@X",
"e.w.u.@X X%X%X@Xd.d.e.>.;.}.:X@X@X@Xd.e.d.@X@X%X&X%X;X%X}.  6 w Q k.{ Q 9   d.d.u.@X2Xd.u.&X%X@X@Xd.y.;X7X;X@Xd.d.@Xy.@X Xd.d.I.+X+Xw.y.u. X X%X%X@Xd.e.2.;.4.:X",
"+Xw.[.p.}.}.s.}.6X;X;X%Xd.d.2.@X%X}.@X@X@X;X2X&X;Xe. X@Xd.        H c.~  .  }.d.y.u.}.w.8.+Xd.+X2X@X@Xd.8.2.e.2.e.d.@X}.;X3X2X&Xd.@Xw.w.[.}.}.].s.g.6X;X;Xd.}.2.",
"2X2X2X;X}.}.%X%X;X%X@X@X@X;X7X;X;X=X@X;X&X+X+Xd.d.@X7.8.%X;X;.    P v.P  .  d.+Xd.u.y.u.d.@X X@Xu.y.+X%X@X@X@X%Xe.e.}.+Xs.d.y.@X;X%X2X%X2X%X}.%X%X&X;X@X@X@X%X7X",
"{.2X%X%X$Xy.>.8.@X@X;X@Xy.8.d.8X7X@X@X}.d.@X%X@Xd.XX@X Xs.e.}.    j.} _ b   }.u.e.u.OX2X          e.8.7X}.d.d.e.e.d.y.2.e.}.-.&. X8.2X1X%X%X$X6.>.e.@X;X2Xy.5.d.",
"@X;X@X@X Xd.}.%X@X@Xg.d.+X<X>.y.I.@X&X;Xu.e.@X&X@X&X&X%Xd.}.+X  M  .k.j   ;X;X=Xd.8.d.    } L c.l e.d.y.&X9.e.;X%Xd.+X}.@Xu.%X=X@X}.;X;X@X@X Xd.}.;X@Xg.+X+X&X>.",
"2.d.y.#Xd.e.}.+XI.d.u.8.2.;.+Xd.+X@Xd.+Xd.}.+Xd.}.@Xd.+X@X@X X  V ! P x   +X}.d.d.@X2X     .k.L I   +Xd.2.8.%Xy.;.u.8.r.d.&.@X@X;.;.d.d.y.@Xd.e.}.d.I.u.e.2.;.+X",
"[.OXu.w.r.w.+X&X:X#X+X;X2X{.@Xd.%X;X%X}.}.u.y.}.&X@X@X@X+X X@X  C r 8     > &   d.d.  S z.P } { L z.  9.2X+X,.9.%X+X=X@X2X3X2.d.d.I.OXr.u.r.r.e.+X&X:X+X#X2X@X@X",
"a.OXu.2.,.:.r.#X5.w.2.d.}.y.;X+Xd.d.d.%X@X%X}.@X2Xe.e.d.;Xd.d.  S   X 2X  R.z   d.d.  x.V. .v.z.z.z.P.  ;X2X@X@X8X7X;X2X;X%Xd.7XI.d.OXr.u.,.,.2.r.:X5.2.8.}.d.;X",
"}.r.I.%Xy.@Xd.3.g.@X;Xd.u.u.e.u.d.@X@X}.2.&.w.u.y.d.d.d.d.d.}.@X  2Xd.2X  D.u   d.&Xd.X   b         Y.  2X=X@Xe.}.qXs.1. X8X>.;.I.%Xr.y.I.y.y.=Xd.5.g.;X;Xu.w.e.",
"%X@X+X9.9.d.*X=X}.+X@X X}. X3Xd.%Xd.y.d.8.+X&X8.8.}.y.>.e. X8.e.d.9X2X  6 z.v     9.{.@Xd.    %X2X=X    d.@X=X@X=X5X=Xf.=X3X%X}.}.@X@Xg.+X3.9.*X*X X}.@X%X}.}.3X",
";X;X>X{.{.e. XXX;X2X;X+Xd.%X=Xd.@X7X;X;X;X;X&X}.@X X7.9.9.}.@X8.;X    w G z.z     1X=X;X2Xd.d. X%X3X7X9.%X+X}.%X2X2X*X*Xs.s.{.@Xs.}.;X;X>X}.{.y. X X;X;X%Xd. X=X",
"=X@X&X%X8X%X X2X%X;X2Xe.9.;X}.y.s.3X%X Xd.2.8.}.@Xs.2X2X8X8X X X8X    v.[ v.a   }.2X;X2X;X}.}.3X=X>.e.;Xe.s. X%X;X=X3X3XXX}.y.=X%X@X@X@X&X8X8X}. X%X%X2X X9.}.}.",
"@X@X;X%X%X=X7X2X=X=X%Xs.@X;X%X=X@X%X;X=X2Xs.*.9.5X3X2X8X}.y. X%Xd.X   } z.Z.s   d.  X            Xy.}.@X1X=X X@X@X;X}.d.}.}.1Xs. X@X@X@X;X%X%X2X7X2X=X%Xs.@X2X%X",
"d.g.;X@X X+X>.;.s.%X=Xd.}.6X}.y. X2Xd.8.{.8XXX7.}.8Xq.8.1.{.7X;X@X%Xe.      v.v.  f d t l i h 2   =X@X;.}.XX}.e.@X;Xd.d.s.e.}.=Xs.y.g.#X;XI. Xe.>.e.s.=X}.}.;X}.",
"7X;XI.d.2.d.@X@X3X;X=X X@X2.@X@X=X=X@X.X].2X5X,X5X1X3XXX=X2X2X%X7X8X%X%X%X=X  d z.k.! Q J { c.Q g   %X2X5X%X}. Xa.e.e.+X;XXX2X3X@X=X;X@XI.2.2.#X@X@X3X=X}.@X}.@X",
"s.g.-X=X;X1X3X=X;X=X=X1X3X8X XXXd.1. X2.1.8. X3X2X;X;X%X}.@X1X}.s. X X9.s.@X  k V.v.V.z.~ } } k.d   u.e.d.u.r.d.@X8.e.y.7X2X5X=X}.e.g.=X-X=X;X2X3XXX;X=X=X3X3X X",
"1X0X;X=Xf.s.{.%Xq.s.d.@X2X Xe.2X=Xd. X X@Xy.            {.}.7XXXs.=X2X=XU.e.  q h     u i } c.' L v.    d.2.}.@Xd.d.;X@X Xs.8.%X=X%X0X0X;X@Xf.s.{.2Xq.d.{.2X=Xe.",
"}.y. X3X3X7X{.s.s. X@Xe.}.y. X}.7X@X}.d.}.=X  V.F.x     2X2X%X2X%Xs.}.=X@X@X;X    1X2X    L k.P k.! F.    @X}.9.s.8.2X%Xe.s.}..Xy.{.y.d. X3X3X=X{.%Xs.@Xs.}. X X",
";X X2X;Xd.e.2.y.e.@X=Xd.}.d.=Xd.}.2.}.d.  X [ c.z.d ; A.    3X3X;X%X@X%X>.>.;X2X2X.X.X    L k.k.} P j.N.    %X%XXX9.e.f.}.}.2X%X}.%X X@X2X@Xd.8.2.}.e.=X X}.}.=X",
"e.I.e.d.d.y.}.d.d.}.+X}.}.=X&X%X+X}.@X  3 7 z.{  .A l | <      Xs.y.9.e.{.d.d.2X2X    0 e { k.k.z.} J z.y 4   s.8X1X=X X}.s.%X&Xr.2.I.d.e.@Xd.e.}.].d.+X@X}.+X&X",
"%X}.e.}.@Xd.%X@Xd. X@X@Xd.d.d.a.e.;X  2 x x.L k.* q k.Q N.7     @XU.a.e.p.        < 2 / c.k.} k.} k.k.z.F M.  =X=X*X=X@X+X+XI.}.}.%X}.y.e.%X@Xd.%Xu.d.@X=Xd.s.d.",
" X+Xd.d.2.d.y.d.%Xd.d.}.d.d.}.2X}.%X  Z.K.n.C.L.  + c.P ! b.$   1Xr.9.@X=X        Y.m. .] } c.c.k.k.L  .! K.  @X;X@Xd.}.w.8.}.@Xy.d.+X}.d.8.2.}.y.%X%Xd.d.d.d.}.",
"}. X@X}.%X@X+X X7X%X X=X;X%Xy.}.}.%X}.            @ z.P j.] &   *.%X1X    m.z.k.c.! c.! c.! } } } k.k.} Q ..  }.d.e.s.@X}.d.s.@X8.e. X@X@X X%X}.+X@X7X X@X;X;Xy.",
"%X}.d.@X}.@Xy.u.;X;X@X@X%X%X}.7X;X=X%X2.}.d. Xd.    9 V.P z.%   *.      r  .J J L } } k.k.k.k.k.k.} k.k.} L.    8X%X{.d.@X1X}.d.@X;X}.y.d.}.}.+Xy.%X;X@X@X%X#X}.",
"@Xd.%X2X+X X;X;X;X2X=Xy.p.}.;X Xe.d.d.9.;X%X;X}. X2.= S Z T 1   %X      N c.] k.k.k.k.} } } } } k.k.k.k.b v.  O    X=XXX X2Xd.}.2X;Xd.d.%X%X+X%X;X2X;X=Xd.p.d.;X",
"y.d.;Xy.;X X=X;X9.}.=X=X XXXd.>X;Xg.*Xi.=Xu.,. X1X+X2.        *.   .b.[ c.J c.} k.} k.k.} } } k.k.k.} z.+     M.  @X{.f.s.s.=Xd.@X}.d. X;X;X;Xd.=X X9.=X2X X%Xd.",
"e.d.7Xs.%Xd.@X@X=X X}. X X8.@X;X=X=X=X3X;X;.>.3X0X      2.2X X%X  P c.} } k.k.} k.} } k.k.k.} k.k.k.} k.o   z.z.  e.}.@X@X}.%X@X Xd.d.&X7X@X%Xd.@X@X=X}.}. Xy.@X",
";X@X%X@X@X X}.@X3X2X1Xs.q.%X2X=X%X=X;X}. X@X%X=X  & V.T.   X%X@X  L z.k.c.P } ! ] } k.} } } c.k.} } v.z.C.K.! z.  2X%X X9.8.%Xy.@X;X@X@X%X@X@X@X}.;X3X1X Xq.}.2X",
"y.y.;X@Xd.d.d.@X}.9.>.}.;X{.d.=X=X=X2X2X;XXX@X X  @ ! z.  &.1.2.  k.z.| _ v.k.] c.k.k.} k.m.! k.} } L S m ~ ` k.  y.y.d.@X}.@X=Xy.e.y.+X;X}.d.d.d.=X}.>.1.;X%Xd.",
"=X@X;Xg.d.s. X X8.s.}.@X%X7X1X2X=X%X Xe.w. X3X=X    t c.C.  *.+X  ! v.k.k.k.k.k.k.k.k.F.G.Q.z.P } z.v.= j v.L >   @X@X X}.}.@X9.e.@X@X%X;X}.d.d. X@X8.}.%X%X2X1X",
";X@X%X@X@X@X;X;X1X=XXX X{.9.1X%X%X3X%X<.w.|.|. X=X  : K.P.$ 2.*.  h.z.k.k.k.k.k.k.! c.Q.).^.z.! } c.v., c z.z.  }.s.}.&X;X+X}.;Xd.%X@X@X%X%X@X X;X*X1XXX X{.s.1X",
"y.@X}. X9.}.7X%Xs.y.}.%Xd.1Xd.%X&X%X%X;X3X@X@Xd. X}.          . F [ } k.k.k.k.k.k. .k.(.Q.J P ! } c.v., R R.  ;X2X;Xy.e.d.d.,.8.8.2.@X@X}.s.9.2X7Xs.s.}.%Xd.}.d.",
"@X=X%X=X1X=X=XXX}.}.}.}.y.d.%Xu.9.d.@Xy.y.XXd.}.y.d.y.d.u.y.w.  c { P } k.k.k.k.k.k.k.^.).c.k.k.} Q v.,     8.y.%X=X}.d.w.d.;X%X%X@X=X;X%X;X1X=X=X@X}.}.@Xy.e.%X",
"}.}.e.e.;Xd.&.;.}.d.d.}.d.s.u.@X&X&X}.<Xy.+X}.2X+Xs.%X@X%X+Xu.  S k.] } k.k.k.k.k.P k.M... .} c.} Q v.>   %Xy.e.d.d.d.+Xe.}.7X}.;X%X}.u.e.}.;X>.&.y.}.d.d.d.y.u.",
"I.}.2X@X@X%X2X@X&X@X@X@X@XI.}.&X:X6X;Xw.8.y.2.8.,.y.}.e.e.d.,.  D } k.} k.k.k.k.k.k.k.P L k.c.k.z.P m.- d.u.d.+X%X%X+Xy.e.u.y.I.+X}.}.&X2X@X@X;X2Xd.&X@X@X@X}.}.",
"u.u.+X@X2X2X=X;X;X;X&Xd.u.e.2X}.e.u.+X@X&X&X;X@X;X%X;X%X+X@X#X  D { k.k.k.k.k.} k.k.} k.k.} k.k.k.Q B.% ;X%X X@X}.u.%X+X>.8.&X&X+Xu.u.d.+X=X2X;X=X2X;X&X@Xu.e.2X",
"2.2.2.2.8.e.@X&Xe.8.,.>.w.r.2.d.u.2.8.}.d.y.e.e.u.8.r.u.+X@X X  C { } k.k.k.k.} k.k.k.k.k.} } } k.Q z., }.2.8.9.9.y.2.w.%X;Xd.d.e.5.2.2.2.2.8.}.@X%Xe.,.>.w.e.2.",
"d.}.@X@X}.@X&X=X}.@X%X;X#Xu.}.+Xd.+X&X}.d.u.e.&.&.,.y.u.y.w.@X  D { z.k.} } k.} k.k.k.k.} k.c.k.] ! l.* d.%X@X%X&Xd.}.d.@X%Xd.%X+X}.}.@X@X@X}.%X&X@X}.%X;X#X+X}.",
"2X2X6X6X6X;X@X@X3X;X Xy.y.u.y.@X&X&X+Xd.w.e.}.y.e.&X}.+X%X@Xu.  B { k.k.k.k.k.k.k.} k.k.k.k.k.k.} P N.5 &X%X7X&X}.@Xd.}.}.+X&X6X2X<X2X4X6X2X6X%X@X@X3X Xd.y.u.y.",
"d.[.].}.%X@X}.%X@X%X%X;X;X@Xd.}.d.@X;X8X6X;X2X@X}.@Xe.8.w.      V P } k.k.k.k.k.k.k.k.L  . .! k.} k.} z.    %X@Xy.@X;X2X@X}.d.y.y.[.[.u.].@X%X@X}.%X@X%X;X;X&Xd.",
"%X+Xu.%X&X;X2X2X3X3X=X;X2X2X@X;X6X@X+X%X%X@Xy.e.}.9.2.y.  S #   C } c.k.k.k.k.k.k.} } v.W K ! k.} k.} z.  X u.u.+Xu.%X;X+X}.%X;X;X;X+Xd.u.%X&X2X2X7X3X=X=X2X6X@X",
"#X@X;X2X2X3X7X7X3X2X=X2X;X2X6X%X;X2X;X%X&X}.2.y.&X=X}.+X  Y v.V. .} k.k.k.k.k.k.k.c.c.L  .^.c.k.k.} k.k.v.P.  w.w.u.w.e.e.e.&X}.@X@X@X#X;X7X2X7X7X7X3X=X;X;X2X6X",
"u.r.;X%X@X}.}.@Xy.d.@X@X X X@X}.s.u.[.&X%Xd.d.@Xg.e.I.d.  v ` ! { k.} k.k.k.k.k.k.z.c.! P W.z.k.k.} k.} P [ d   g.d.=X;X3X8X8XqX;X}.r.+X;X%X@X}.}.%Xy.@X@X X@X@X",
"8.8.y.}.q.,.%.&.}.d.q.8.e.}. X@X;X&X+Xd.}.d.}.e.e.e.d.y.  C k.] ] k.] k.k.k.k.k.k.} } c.z.Q.c.P k.k.k.} c.{ B.  @X@Xd.}.}.d.s.8.8.8.8.w.y.d.q.&.%.&.}.q.8.e.d. X",
"[.[.y.8.}.}.;X@X%Xd.w.}.%X2Xs.d.@X+X@X%X}.2.8.y.d.t.y.t.    9 F j.c.} k.k.} } } k.k.] P  .!.z.k.} } } k.} k.R   }.e.u.u.w.,.,.y.y.y.[.[.y.9.}.%X;X}.%Xw.y.%X&Xs.",
"d.y.%X;X@Xy.%XXX8.8.y.8X2X}.}.}.@Xd.d.%Xy.;.8.+X=X2X[.y.}.0.    T } c.k.c. .] k.] c.! W [ /./.S.k.} c.k.P k.! V   %X}.u.%X%Xe.>.&X%Xy.}.%X%X@Xd.%Xd.8.y.&X2X%X}.",
"e.@X@X}.d.y.@Xd.$Xy.].%X}.y.u.w.d.+X@X].8.q.d.d.}.%X;X%Xy.d.q.{.  x.l.} k.} L ! W ^.j.W ! ~.#.H.P c.} { k.} } z.  2.y.@Xe.w.U.OX2.2.@X@X@X$Xd.u.@X8.$X].%X}.y.u.",
"y.d.8X%X%X%X{.}.@X}.d.XX X=X=X%X8X Xf.oX*X8.9.@Xs.1.XX;X@X Xq.8.  k c } P  .} z. ./.n. .n.#./.H. .! c.k.} } { z.  9.d.8.%X;X}.d.e.9.d.1X8X%X%X}.{.}.@Xd. X XXX=X",
"e.y.5X%X>.>.}.@Xy.d.y.{.=X X}.}.=X%X@X{.}.}.d.e.e.@X7X;X2.;.7.y.%X  O L } k.c.O.$.~.~.@.@./.^.#.E.G k.c.P z. . .  }.8.y.s.}.%X+Xd.y.y.@X5Xy.>.9.}.=Xy.y.y.=X=X}.",
"}.s.%X2Xs.}.%X X@X%X@X%X3X X2.@X}.2.9.@Xu.e.}.e.w.y.+X}.w.8.s. X=X    ^ } [ k.E.).~./././.(.~.~.H.E  .! } k.} z.  @X+X%X+X}.;X8X=X%Xs.}.%X%Xs.@X%X$X@X@Xd.3X2X2.",
"d.}.}.d.}.%X;X2X3X2X%X@X;X@X@X;X;X:X;Xy.}.@X}.}. Xy.%X;X%X;Xy.s.}.    ^  .P W E.`.~./.~.~././.~.J.E P } } ] j.V.  2X+X}.}.y.,.>.&.8.}.}.}.s.}.=X;X8X3X%X+X;X2X@X",
"%X%X}.%X}.}.}.}.=X@Xy.8.e.u.,.e.+Xy.8.d.;X%X}.oX=Xy.;X=Xd. X=X%X    ; H ] } c.S.H.'.+././.~.~./.o.Z c.z. .J x.8   @X@X%X7X8X%X;X}.%X%X@X}.%X}.}.}.@X=Xy.8.e.u.,.",
"y.}.%X%X X%X%X%X%X%X;X;Xu.2.,.w.w.,.w.;X;Xs.s.=XoX@X*.8.1Xf.>.  i L P } P k.} k.^ X.!.~.~././.G.b.! } c.] z.(   y.y.}.%X7X2Xy.6.>.8.}.+X%X%X X%X%X2X%X;X2Xu.w.,.",
";X;Xd.e.2.2.}.}.@X=X2X2X=X@X=X}.@X X}.}. X X=X=X=Xy.y.y.8.e.@X  B c.c.k.} k.} }  . .!.$.)./._.G.K P ] c.! P Q   7.d.d.s.s.@X;X6X7X;X;X Xd.8.2.u.}.d.@X2X7X=X%X=X",
"y.@X@X&Xu.y.u.e. X%X;X Xd.}.;X%X%X@X X%X=X%X X%X X%X}.@X1X;X@X  x [ z. .} k.c.k.] k.L K W P K P }  . . .j.k.n   @X=Xd.2.2.e.s.2.2.8.@X@X@X@Xu.y.u.y. X;X@Xd.d.;X",
"y.2.>.@X&X@X8.e.}.d.}.s.d.;X2X@X%X}.e.s.@X7X3X2X=Xy.@X%X2X%X@X    Q } ! ! ! P ! ! Q W } ! ^ ^ ! ! Q ! P Q b.  }.y.;X@X X@X}.y.>.+Xd.2.>.>.%X&Xy.8.s.}.}.s.d.%X2X",
"d.}.2X;Xe.9.d.d.}. X@X}.d.y.}.}.e.2.,.w.y.}.+X@X}.y.8.8.%X;Xd.d.d.                                          %X=X@X=X%X&X%X@X@Xy.%XXX}.&X2X}.e.y.d.s.}.@X Xd.s.}.",
"%X%X%X%X%XXX%X Xd.s.y.@X@X}.u.,.8.+Xu.d.d.u.}.@X+X X2X%X%X%X}.+Xy.>.8.$X=X X%X Xd.@X X X%X@X}. XXX;X%X%X2X%X@X=X%X X X%X%X@Xu.}.2X%X%X@X%X%X%X%X%X Xd.y.d.@X@Xu.",
"-.s.%X{.9.e.9.q.1.9.}. X9.1.;.9.s. X=X X}.e.e.@X%Xs. X;X2.>.d.=X;X%X@X@Xs.d.;X@Xd.d.d.d.d.%X@X X;X X7.1X;XU. Xd.d.@X Xe.8.=.{.d.y.&.s.%X%Xy.9.y.9.8.1.}.XX9.7.;.",
"}.8.}.}.2X@X8.}.;X Xs.8.9.s.=X7X8X@Xs.8.8.y.y.9.8.9.3X=X%X@X X@X=X7X;X}.2.y.&Xd.d.@X@X@X}.d.}.7X3Xs.y.7.8.%X1X}.%X@X%X@X{.%X2X9.2.d.8.>.}.%X2X9.8.2X;Xs.8.9.s.=X",
"2X7X7X8X%X%X2X2X%X=X%X;X3X7X2X%X%X@X%X%X@X}.@X@X}.s.2X3X;X}.8.}.;X%X X@X%X;X;X%X@X+Xd.e.e.+X%X@X@X8.9.}.2X%Xd.8.y.1X2X6X;X2X%X+X2X%X7X7X7X2X%X2X2X%X%X%X=X3X8X2X",
"y.y.+Xd.%X@Xu.d.d.%X;X X+X}.d.;X2X%X}.e.}. Xs.d.=X2X}.=Xd.y.=X@Xy.8.y.@X%X@Xe.9.y.%X@X;X2X@Xp.2.>.}.d.>.8.%X2X=X;X}.}.}.}.w.@X8.e.8.y.y.+X+X%X}.u.%Xd.;X&X+X Xd.",
"e.8.2X8X>.,.2X}.>.e.y.d.@X%X;Xe.8.y.d.}. X%X@X%X;X X=X;Xd.y.2X%X;X=X%X=X}.%X}.+X}.%X%Xd.d.d.U.@X@X=X2X+Xs.@Xe.8. Xd.t.}.@Xy.2.}.1.8.8.y.2Xy.>.%X2X-.>.y.y.@X;X;X",
"s.d.%Xa.=X3X=X*X+Xd.d.+Xd.;X}.@X%X@X}.d.d.d.@X@Xd.}. X}.d.%X;X@X}.d.}.%X%X;Xd.y.w. Xy.y.d.8.,.f.=X1.8.;X}.@X}.e.e.&Xs. X2X=X=X@Xd.@Xd.=X%X X=X2X=X*X+Xd. Xd.@X}."
};
