/* XPM */
static char *_17ada96833846b7ad50c7382cff53ffz9Dz6GXLRxCasqn2[] = {
/* columns rows colors chars-per-pixel */
"80 80 229 2 ",
"   c #030001",
".  c #0A0003",
"X  c #02020A",
"o  c #09040A",
"O  c #050A0C",
"+  c #1A0E07",
"@  c #1D130A",
"#  c #090913",
"$  c #0B121A",
"%  c #161011",
"&  c #260A05",
"*  c #281309",
"=  c #391C00",
"-  c #3F1D0A",
";  c #220F14",
":  c #3E2C14",
">  c #19252B",
",  c #26272B",
"<  c #461E01",
"1  c #421C0B",
"2  c #48240A",
"3  c #462214",
"4  c #4A2A1C",
"5  c #572811",
"6  c #582A16",
"7  c #532A1A",
"8  c #5C331D",
"9  c #712E14",
"0  c #763D17",
"q  c #7B3D1B",
"w  c #562A22",
"e  c #502F25",
"r  c #783B23",
"t  c #723930",
"y  c #79431A",
"u  c #58473F",
"i  c #764126",
"p  c #6B4538",
"a  c #7B4736",
"s  c #5D4E49",
"d  c #644845",
"f  c #873818",
"g  c #963914",
"h  c #973B22",
"j  c #85421E",
"k  c #8B451E",
"l  c #964917",
"z  c #A24818",
"x  c #B2451E",
"c  c #894824",
"v  c #924B22",
"b  c #9A4F2E",
"n  c #945439",
"m  c #A5482E",
"M  c #B64F29",
"N  c #A75928",
"B  c #B55A2A",
"V  c #BC5E2E",
"C  c #AA5633",
"Z  c #B66335",
"A  c #BD6437",
"S  c #C85F26",
"D  c #C45A2E",
"F  c #C1682E",
"G  c #D86A2C",
"H  c #D6742F",
"J  c #C56631",
"K  c #CE6A33",
"L  c #CA6638",
"P  c #D86B35",
"I  c #D16C3D",
"U  c #DA713B",
"Y  c #F76934",
"T  c #EA7235",
"R  c #E47439",
"E  c #E97A3A",
"W  c #FC7436",
"Q  c #F57C35",
"!  c #FA7D34",
"~  c #F4763C",
"^  c #FE753E",
"/  c #F47B3C",
"(  c #FC7D3C",
")  c #CD6741",
"_  c #DC6D42",
"`  c #E06D43",
"'  c #E97847",
"]  c #FE7543",
"[  c #FA7445",
"{  c #F57B41",
"}  c #FD7C43",
"|  c #FE7E4B",
" . c #E98B39",
".. c #F58334",
"X. c #FE8436",
"o. c #FE8B36",
"O. c #F5833C",
"+. c #FD823D",
"@. c #F58B3B",
"#. c #FD8A3C",
"$. c #FC943C",
"%. c #FD993B",
"&. c #EFAF33",
"*. c #FCA63E",
"=. c #FBBC3B",
"-. c #FDC93C",
";. c #F7DA36",
":. c #FED63E",
">. c #FDDA3E",
",. c #FDE33E",
"<. c #F7E83B",
"1. c #9A855C",
"2. c #8F8269",
"3. c #9C8664",
"4. c #9B8967",
"5. c #A48664",
"6. c #A48C64",
"7. c #AC8E64",
"8. c #A48D6C",
"9. c #AC8E6C",
"0. c #A4926C",
"q. c #AC936C",
"w. c #AC9A6C",
"e. c #B4966C",
"r. c #B49A6C",
"t. c #AC8E74",
"y. c #B48E74",
"u. c #A49474",
"i. c #AC9574",
"p. c #AC9B74",
"a. c #A0907A",
"s. c #AC967C",
"d. c #AC9B7C",
"f. c #B49574",
"g. c #B49B74",
"h. c #BC9C74",
"j. c #B4967C",
"k. c #B49D7C",
"l. c #BC9D7C",
"z. c #ACA27C",
"x. c #B4A274",
"c. c #BCA374",
"v. c #B4A27C",
"b. c #BCA37C",
"n. c #B4AA7C",
"m. c #BCAA7C",
"M. c #EC894B",
"N. c #F58243",
"B. c #FE8341",
"V. c #F78946",
"C. c #FD8A43",
"Z. c #FD844A",
"A. c #FE8B4B",
"S. c #F39244",
"D. c #FE9344",
"F. c #FC9945",
"G. c #FE944C",
"H. c #FE994D",
"J. c #FD8B52",
"K. c #FE9355",
"L. c #FF9B52",
"P. c #FC9458",
"I. c #FC9C5C",
"U. c #FAA545",
"Y. c #FEA444",
"T. c #FDA64B",
"R. c #FFAA4D",
"E. c #FDB646",
"W. c #FEA557",
"Q. c #F9B456",
"!. c #FA9567",
"~. c #C4A47C",
"^. c #C4AA7C",
"/. c #FFB46C",
"(. c #FBC945",
"). c #FFC54A",
"_. c #FED444",
"`. c #FCD547",
"'. c #F5DB43",
"]. c #FEDA43",
"[. c #FDDA4A",
"{. c #FCC551",
"}. c #FCD553",
"|. c #FCE344",
" X c #F7E845",
".X c #FCEA45",
"XX c #FDE44B",
"oX c #FEEB4A",
"OX c #F8F548",
"+X c #F5EC52",
"@X c #FFD366",
"#X c #B49E84",
"$X c #BC9E84",
"%X c #B4A484",
"&X c #BCA584",
"*X c #B4AA84",
"=X c #BCAA84",
"-X c #BCA68C",
";X c #BCAC8C",
":X c #BCB28A",
">X c #B5AA98",
",X c #C49E84",
"<X c #C4A684",
"1X c #C4AB84",
"2X c #CCAC84",
"3X c #C4A68C",
"4X c #C4AD8C",
"5X c #CCAE8C",
"6X c #C4B284",
"7X c #CCB284",
"8X c #C4B38C",
"9X c #CCB38C",
"0X c #C9BA8C",
"qX c #D4B58C",
"wX c #D4BA8C",
"eX c #C4AE94",
"rX c #CCAE94",
"tX c #C4B494",
"yX c #CCB594",
"uX c #C7B897",
"iX c #CCBB94",
"pX c #CCBC9C",
"aX c #D4B694",
"sX c #D4BB94",
"dX c #D4BD9C",
"fX c #DCBE9C",
"gX c #CCC29C",
"hX c #D4C29C",
"jX c #D9C499",
/* pixels */
"i.l.&Xl.i.q.i.q.&X1X&Xv.b.=Xk.q.p.v.=X=X&Xv.8XiX&X&X;XtX;Xk.%X4Xv.b.v.p.q.i.g.&X8X1Xq.6.v.m.v.1Xk.p.v.1Xb.i.q.l.e.h.b.2X9X9X^.b.^.9X7X<Xb.b.^.b.1X~.b.1XqX9X9X1X",
"l.k.g.k.b.b.k.9.i.g.i.q.k.1X1X&X=Xv.p.&XyXsX4Xv.v.k.&X4X4Xb.&XtXb.1X4X5X4X4X4X9X9XiX9X1X1X&Xb.=X&Xv.b.&Xb.k.g.&X2X1X~.b.~.1X9XiX~.&Xb.c.g.g.b.b.<Xb.b.b.b.k.g.g.",
"b.&Xb.f.f.b.4X9X4X9X4X1X1X8X9X4X8X9XtX8X8X8X;X1X&X&X&X1X&Xk.g.b.4X&Xl.p.g.b.1X9Xk.k.&X;Xb.k.&Xk.b.v.k.b.v.l.k.f.f.g.l.<Xb.l.&Xb.<Xb.b.b.b.b.g.b.i.g.g.g.i.7.q.g.",
"k.b.<Xk.g.&X9XsX&X5X9X4X&X&Xl.g.g.&X9Xb.8.3.6.k.&Xb.b.b.&Xb.k.v.l.b.1X5X      k.rXk.k.<X&XyXyX<Xv.1X4X1X4X4X<Xl.l.l.j.f.i.k.<XyXh.i.g.b.<Xg.f.g.b.&X<X1X&Xb.&X5X",
"l.k.g.b.4X9X4Xl.8.f.k.l.l.b.b.k.8X9X8X4X1Xb.&Xb.v.k.k.1X4X9XyXyX&X      I _ c   4Xk.j.k.k.&X&Xs.p.&X4X<Xb.<X&Xl.l.l.l.g.f.k.&X4X1Xb.b.<X1X&Xb.<Xb.b.&X&X&Xk.g.g.",
"<X<Xk.f.g.l.b.k.~.&X<X&X~.&X5XyX1X1X1X4X9XyX1Xb.5X1X1X1X1X1X&X~.  Z.G.U v T.f   f.i.p.k.q.8.i.9.k.b.&Xg.i.g.b.b.9.g.<X4X<Xl.g.q.yX1Xb.k.l.&X1X9X4X4X<X4X1X<Xl.k.",
"4X4X<Xf.8.i.&X5X5X<X<Xl.l.l.b.<X1X8XyXyX9X8X9XyX9X9X5X1Xb.l.g.g.  A.P._ b W.y   1X5X5X5X9X5X1X9X4X8X9X4X1X<X1X3X2X2X1X^.1X1X9X9X&X&Xk.q.q.g.b.&Xf.i.8.q.i.i.q.i.",
"1X<X&Xb.1X5X1Xb.k.h.k.l.l.~.&X<X<X&Xg.i.f.k.k.b.b.~.1X~.<X1X2X9X  N           <X2X1Xb.h.9X9Xb.<X1X      8X<Xk.f.h.h.1X5XqX9X1X^.5XyXaX4X<X4XyX4XrX4X<X&X&X&X3X4X",
"q.q.f.&X4X9X4Xb.b.h.g.r.q.q.q.q.q.q.i.g.&X1X5X4Xg.i.9.8.8.f.g.h.q.  b.l.i.q.i.g.&Xb.l.k.g.f.g.l.  f R./.  <X1X5X=Xb.^.8X9X1X1X9X1X9XqX8Xb.f.g.b.b.&X4X9X5Xl.g.l.",
"<X&Xb.&X1X4X1Xb.4X1X<X&Xb.&X1X1X1X1X&X1X4X5X8X1X&X1X4X9X9X2X<Xl.&X<X<Xb.b.<X5X9X&Xb.b.l.g.9.3.3.  r B.x   k.f.q.1Xb.g.l.=X1X1X1Xg.g.f.l.1X9X9X9X4X4X5X4X1X5X4X5X",
"&Xl.g.g.l.b.&X<X8.8.9.q.j.b.4X5XtX8X4X1X1X&Xb.&X0.i.g.l.4X5X5X5Xh.b.b.1X1X1X&XX   k.&X4X9X9X1X<X  f #.X 1X<Xb.l.b.l.i.q.e.l.b.b.i.g.b.b.g.g.l.b.f.f.i.9.q.k.<Xb.",
"<Xb.&Xl.&X<X4X5XaXyXyXrXyXyXpXaXaXyXaX9X4X1X1X1XiX9X=Xb.k.k.l.l.k.&X1X5X9X5X  P @X  i.g.&Xb.k.g.5X  X <X<X4X1X<Xl.<X2Xg.9.f.&X5Xb.i.8.g.9XfXyXb.,X<X~.k.b.yXiXyX",
"yX9XyX4X1X&Xb.b.k.$Xk.$Xb.$Xl.#X&X1X4X1X1X&X4X4X1X4X4X9X9X9X5X1Xb.b.&Xb.b.1X  t r % 9X9XyX4X1X&X1Xb.g.i.i.f.i.q.k.1X5Xl.9.q.h.g.k.1X9X5Xk.i.f.k.~.5X5X<X9XdXdX9X",
"9XyX9X9X<Xl.j.g.i.f.k.k.b.&X&Xb.g.g.v.&Xb.&X1X4XhXdXiXyX8X&Xp.q.l.l.b.k.h.k.b.$     1X4X5X&X<X1XyX9X4X5XyXyX9X4X<X<X&Xl.l.l.f.i.f.q.i.k.<X1X&Xk.g.l.b.k.l.b.b.g.",
"1X4X9X4X<X&X1X4X9X9X9X9X4X<Xb.l.4X4X5X9XyXyXyXsXiXiX8X8X9XyXaXyX1X5X9XaX9X1X<Xb.4X4X5X1Xk.q.g.&Xp.i.q.k.b.1Xb.k.4X4X1XeXyX8X4X4X&X4X5X1Xk.j.l.1X4X9X4X4X<Xb.k.g.",
"i.f.g.g.g.g.&X5X&X~.1X1X2X1X7X9XyXsXyXiXsXsXsXsXiXyX8X9XyX9XyXyXaX9X4X9X9XyX9X2X4X5X4X&Xq.9.k.5X8X1X&X<X8X9X4Xb.8.8.d.&X&Xk.&XyXi.t.8.8.i.$X&X4X8X4X1X&Xg.9.9.y.",
"v.=XtXtX8X:X9XgX9Xm.b.b.b.b.b.~.k.b.4X4X&Xk.i.i.b.b.&Xg.q.q.g.b.m.=X^.b.l.f.t.9.i.b.1X7X9XiX7X1X1X7X6Xb.c.1X1X^.1X7X9X7X=X=X=X*X1X9X9X1X1X1X9XsX7Xb.g.b.4X4Xg.4.",
"8X8X9XiXiXdXdXdXjXsX9X&Xl.h.<X9X4X4X1X&X&X&X1X4Xk.b.1X1X1X=X1X=X1X=X&Xv.k.l.$X,X5X4X4Xb.b.1X1Xm.g.v.~.b.8XwX9X=Xm.1X9X9XyXiXiXhX1Xb.b.8XsX9X1Xb.c.1X1X4X4X4X9XjX",
"k.b.&Xb.&Xb.b.v.i.i.i.i.i.i.f.k.&Xb.d.9.3.1.3.3.&Xb.d.i.i.g.b.&X=X1X1X9X5X5X<Xl.b.&X=Xb.&X.           k.g.g.8.1.h.g.h.g.i.q.f.k.4Xb.g.b.&Xk.&XsX7X9X9X4X&Xk.p.p.",
"4X5X9X5X~.k.l.b.3X&X<X4X5X4Xl.i.g.l.&X&X1X4X&Xk.i.f.k.&X&Xk.8.3.g.k.&X5X5Xb.l.f.v.&X<X5X  4 7 7 6 6 7   -X4XyXyX9X5X1Xl.f.f.g.k.f.p.&X1X&Xg.l.1X1Xb.i.8.8.i.v.=X",
"l.l.l.g.f.9.8.9.k.k.k.k.$X$X$Xk.i.p.&X&X4X9X1X&X4Xb.f.k.&X4X5XyXv.l.b.1X4X<X1X5X4X&Xi.q.  M M C.{ Q } 3   k.&X4Xk.f.i.9.9.i.l.<Xg.g.g.k.b.&Xk.q.6.q.b.&X&X&XtXhX",
"5X&Xl.b.4X4X~.g.8.l.5X4Xb.k.&X4X9X4X1Xk.b.4X;Xb.i.i.k.5XdXyX4X&X&Xb.&X1X4Xb.b.b.4Xk.8.6.      F.A.+.B.D.<   s.8.4X&X&Xl.k.l.<X9X4X4X&Xi.g.k.b.k.l.b.4XyXtX4X&Xv.",
"<X&Xb.<X4X5X4X&Xf.1X9X<Xg.q.0.q.v.k.i.8.i.&X      i.i.k.k.k.l.&Xi.t.i.&Xb.f.q.q.&X#Xk.&X4X2.k.  #.B.N.T.=   b.k.4XeX4X&Xb.k.l.l.k.&X9XyX4Xk.k.k.9Xb.q.8.#X4X4X;X",
"q.k.1X&Xg.f.v.^.,Xh.q.q.g.1X1X1X&X3Xb.k.l.  v f a   #X4X4X&Xk.k.l.i.f.b.<X<X1XsX#Xi.t.d.b.g.g.  G.{ B.I.-   b.1Xd.%X%X&X#Xg.k.g.&Xi.i.&X&X&Xl.&Xq.p.&X-X4X;X&X%X",
"4Xb.i.k.4X9X4X&Xb.k.g.p.k.b.tXdX4X4X4X4X  5 D.G.' 5 b.=X;X=X;X8X8X=X4XdXiX=Xv.9X:X6Xv.i.p.  X X F.( ( P.1   =X=Xd.i.u.k.=XyXtX4X4X4X<Xk.8.8.i.k.v.v.v.v.v.=Xv.i.",
"yX4X&Xb.&Xk.g.i.v.k.i.9.8.8.k.1X1Xk.q.8.  5 B.B.+.L j   sXiXiXuXb.i.0.b.=X&X&X1X8XiXX X X N.{ ' +.O.B.L.-   d.0.k.b.4XiXdXpX9X=X4X4X4Xv.k.=X4X9X8X8X1X4X4X8X8X9X",
"8.i.k.&Xv.&X1X4X<X&Xb.k.g.k.1XpX4Xk.8.8.p.  V K R P j   %X8X8X=X&Xv.&X8X9X4X1X=X%X  L S Z B.+.Z.+.B.C.T.-   6.8.u.k.=X4X=X&Xv.k.4X1X&Xk.&X4X4X=X1Xl.g.k.g.i.f.k.",
"k.<X4X4X<X&X4X9XdXyX8X4X&Xv.&X4XyX4Xv.&X1X4X  q N N q   &X&X  =Xq.b.1X&Xi.q.p.k.1X  K.C.A.X.+.B.B.N.+.T     i.q.v.=X4X8X4X=X4X8X&X&X&X&X&X&X&X<X4Xb.k.&X<Xg.i.g.",
"8.i.g.v.&X1X4XyX4X4X1X4X9XrX4X9X4X&X1X4X4X4X&X      1X=X4X  P   k.<X1Xk.q.i.b.    ) ~ N.} +.+.+.N.A.+.  1X9X<Xb.d.&X;X    4X;X&X0.8.i.1X&Xi.k.4X1Xk.f.b.4X&Xb.&X",
"4X<X&X&X&Xk.i.9.8.3.3.i.b.&X&X&Xb.v.&X4X8X9XyXdXiXyX4X<X1XX R     4X9X9XyXqX  J P.| @.B.#.Z.+.B.C.f   9X4X4X9XyXk.v.    v   b.%Xf.i.k.4X=Xk.v.9XdX8X=X5X9XyXyXsX",
"&X1X4XyXsXdXyX4X9X4X&X4X4X4X1X&X4X4X&X&X&X&X&X1X8X1Xk.i.i.  C     i.g.<X&X  s I B...X.} +.B.B.B.A.j   8X&Xb.=X8X8X  & b g   yXiXpXyX4X4X9XyXyXyX=X=X&Xv.v.b.v.&X",
"&X&X4XyXsXyX<Xk.t.6.8.i.k.&X<X4X4X4X=X4X4X4X4XyX4X4X9XyX9Xl.# q.9.9.f.f.    y +.} #.Z.B.+.B.X.+.$.l   i.1XtXv.8.8.. Q.J.z   k.k.4X4Xg.8.d.yX4Xk.v.1XyX8X4X4X8X8X",
"8.i.b.1X4X1X4X4Xm.1X1X^.1X6X9X9Xb.<X<X<Xl.g.f.q.8.q.p.k.b.=X4X4X&Xp.4.i.    i ( ( +.B.+.[ B./ L.    p.k.4XyX4X4Xp.  R.q   4X4X&Xi.p.p.g.&X8XiXuX8X9Xv.&X1X&Xv.6.",
"<Xb.v.l.v.1X4X9XaXiXsX9X9X9X=Xb.g.i.q.q.l.&X&Xb.1X8XyXsXyX8X4X1X8X1X&X  a h D B.Z.B.N.| E.} N.F.    k.k.i.i.g.&X1X  9   &X4X4X4X9X1Xk.8.8.p.%X=X1X=Xi.i.b.1XiX4X",
"4Xb.q.8.q.g.k.v.q.i.q.i.k.1X1X1X5X1Xl.k.k.l.g.k.=X4X9X1X=Xb.b.&X9X9X4X  n L.#.( B.+.} B.<.( / H.    &X1X8XtX9XtX1X5X  yXyXyXrX&X&X1X4X1X4X9X9XyX1XyX1X8XyX=X&Xq.",
"dX8X<X&X=X4X1X&X5X9XyX9XyXsXsXiX4XyXyX4Xb.g.k.b.b.b.&Xb.k.v.1X8X&X&X  + C.Z.Z.Z.( X.+.! [ } / F.    i.&X4X4X&Xk.q.p.b.1X4X&Xk.i.8.g.<X5X1Xk.9.3.4X8Xb.&Xv.g.&Xb.",
"1X1X=X1X1X&Xb.k.8.g.<Xb.k.q.8.8.1X4X5X1Xk.i.g.v.&Xb.&Xv.v.b.4X9XyX9X  * Q X.( B.B.O.+.B.B.Z.Z.X.'     4X9XyX4X4X1X4X4X4X1X4X4XyXyX9XyX4X<Xb.l.b.8.b.4XiX5Xk.g.i.",
"4X4X5X4X4X1X4X1Xk.4X4X;Xb.&X5XyX9X&Xg.p.k.b.b.v.&X=X1X=X&Xb.v.k.&X1X. 3 } B.B.X.+.B.Z.+.X...+.N.D.h   i.&X4X9X4Xb.b.&Xb.k.s.k.4X4X=Xk.g.g.k.1XyXdXsX4X=Xg.8.v.1X",
"b.b.b.b.b.k.k.g.&Xb.l.i.3.8.k.&Xb.p.q.g.4XiXsXyX1X4X4X9X8X4X&Xb.5XyX. k N.B.B.B.B.B.B.B.B.+.B.B.A.m   i.;XsXyX      4X4Xb.i.j.&X0X1X%Xb.v.k.b.&X=X4X1X9XyX=X4X1X",
"1X=X4X4X4X1X&Xl.&X4XyX4X4X4X1X4X4X4X4X;X4X4X=X=Xb.v.k.b.1X1X1X&Xl.l.  B B.B.B.B.B.B.B.B.B.+.B.B.B.( E   g.&X  P } T   k.8.3.i.3XuX8X=X;X4X=Xb.=X1X=Xg.=X4X=X1X&X",
"iX=Xg.p.i.4.0.%Xb.4Xk.3.5.v.4X4X%Xk.p.g.k.p.d.i.0.p.&X;X=Xp.u.    g.X J B.B.B.B.B.B.B.+.B.+.+.B.+.C.J.  g.&X  H D.o.  9X4X4X1X1Xb.v.b.7X9X1Xb.b.b.b.b.b.b.1X4X1X",
"b.b.8XyX9X4X-X&X4X<X&X4X4X&Xk.4X5X4X&X&X&X&Xb.&X4X8X4X1X=X  e - 1   X K B.B.B.B.B.B.+.+.+.+.B.B.+.B.+.      +.C.V X k.k.&X1Xv.i.i.q.g.4X9X4X~.&X1X6X9XsXsX5X&Xb.",
"4X4X1X&X%X4X9XyXp.i.q.b.&Xi.8.&X&X4XyX1Xp.i.&XyX9X=Xv.i.i.  ' Q.A.  X V B.B.B.+.B.B.+.+.+.+.+.+.+.B.B.X I I.N.o.D O 4X8XsXsX9X&X7.q.k.1X5Xb.b.&X1X1X9X1X&X&Xb.&X",
"9XyXaXyX9XyX4X4X<X8XyX4XyXsXsXsXdXyX4X4XyXyXyX4X4X8X4X  u   ` N B , > v E B.B.B.B.B.B.B.+.B.+.+.+.Z.X.o F #.} D.V X 9X9X4X&X=X1X4X4X9XiX9X4X1X4X<Xb.v.g.g.g.<X4X",
"k.i.k.&Xv.i.i.g.i.4X4Xl.&X4X4Xk.k.k.g.k.g.k.k.l.g.&X  d ' C.N.X $ k.a.o K +.B.B.B.B.B.+.B.+.+.X.+.B.B.B.B.B.+.S.V O iX9Xv.k.1XiXyXaX9X4X&Xk.b.&Xb.<X1X1X8X5X1X=X",
"yX&X&X1X&Xf.g.1Xi.k.g.i.k.k.k.<Xb.<X4X1X&Xl.b.4Xb.    0 B./ G.  o b.2.X q / B.B.+.B.B.+.Z.B.B.B.X.B.B.B.B.B.+.C.D   b.k.i.i.k.1X4X4X1X&Xg.p.k.b.4X1X4X9XyX6X1Xx.",
"j.j.&X4X1Xk.q.q.&Xk.0.i.g.i.k.yXdXk.8.9.4XyX&X5.  p 9 Z } D.m 4XiX>X8.% 6 R B.B.+.B.B.B.Z.B.B.Z.C.+.+.B.+.B.( C.A # 4X9X8X1X4X8Xb.&X4X1X&X<X&X&X4X4X&Xb.b.~.b.^.",
"f.j.f.9.i.b.5X9X1XyXyX4XyX4X<X4X1X4X<Xl.g.f.k.l.  C A.{ ( W.@ k.b.8.$ ; 0 K / B.B.+.B.+.+.} Z.Z.+.B.B.B.+.B.+.B./ Z X 8X4Xb.g.k.3.8.i.k.k.k.i.i.b.b.<X&Xb.1X1X9X",
"v.v.=XtXyX8X8X8X1Xg.b.1Xv.b.8X4Xc.=X8XiXyX8X6X6X  N H.....L.& k.b.8X  * N.B.+.+.B.+.B.O.( +.+.[ X.B.+.B.+.+.+.( B.M.  &Xb.b.&X4X1X4X9X4Xb.k.f.f.=Xk.g.k.b.l.i.9.",
"1Xk.0.i.b.=X4X=Xb.g.1Xm.g.g.=X&Xm.v.g.4XpXjXiX1X  C H.O.( !.1 b.iX8Xo : N.B.B.B.B.B.B.Z.~ .X`.^ B.Z.+.B.+.( B.+.B.B.L.  4X&X<X4Xv.b.1Xb.k.f.q.e.=Xb.k.g.f.g.l.~.",
"&Xv.=X4X4X=X4X4X~.1X9X2Xg.l.<X<Xb.1XyX8X&Xk.x.v.  N G.} ! C.~ X % 8 Q / +.B.B.B.B.B.B.X.^ <.`.^ N.} +.B.B.B.B.B.( Q F.  f.q.0.q.=X1X4X1X1Xb.<X&Xg.b.k.8.6.i.l.b.",
"8.k.1X8X=Xb.v.b.~.~.<X<Xg.f.k.l.1X=X=X4X4X4X1X1X  N D.! +.B.J.X   < B.A.Z.B.B.B.B.B.B.B.] |.).Q +.+.B.+.B.B.+.+.B.N.G.    &X1XyX=X1X1X1Xb.b.l.l.1XyX9Xb.l.&X5X4X",
"yX1X&X1X9XiXiXyX5X<Xb.1X<Xf.f.$Xx.&X&X&X#Xv.&Xm.  C H.Q +.+.B.A.X.A.} B.B.B.+.B.B.+.+.+.] '.;.XXo.$.} +.B.+.B.+.( B.B.B.z   b.4X9X9X8X1X&Xb.k.h.l.&X<Xf.i.b.<Xb.",
"1X&Xg.i.g.&X<Xb.b.k.f.f.k.t.5.9.v.5XdX4Xt.5.i.1X  C G.} Z.B.Z.N.+.V.( X.B.B.+.B.+.+.+.+.[ oX,.'.OXR.Z.+.Z.+.+.+.B.X.( +.v   1X1X=X1X8X4X5X1X1X1X<X1X~.k.&X9XyX8X",
"v.&X<Xb.v.b.v.k.1XsX9X4XyXyX4XyX9X4X&X&X4X4X4X5X  N D.( B.B.( +.Z.( A.B.B.B.B.B.B.B.B.X.] (.-.|.+XE.[ X.Z.B.B.B.+.B.X.{ l   4X9Xk.g.b.b.b.<Xb.b.l.k.k.l.b.&X1X=X",
"<Xk.q.q.g.&Xf.5.3.1X=Xi.%XyXtX4X4X4X3Xk.t.8.i.g.  a q J ( #.} B.B.B.B.B.B.B.#.Z.B.+.B.X.Z.] @.XX].{.&.} O.B.+.B.B.+.B.B.G 9   4X1X=X1X1X&Xl.g.q.l.,X1XyXaX9X=X1X",
"l.9X4X9.8.l.b.9.1.p.8X9Xm.v.b.b.1X1Xm.&Xg.q.i.d.6X    y B.N.B.B.B.B.+.+.B.Z.+.A.} +.B.+.B.] S.XX[.,.,.] +.N.+.+.+.B.+.+.N.$.2   b.k.q.i.b.9X9X<X=X=Xb.1XiX%Xq.v.",
"9X<X&X1X1Xl.b.4X8X8X1X&X1X9X9X1X1X1X=Xb.b.&X4X9X1X1X  v X.Z.Z.B.B.B.B.B.B.N.X.C.+.B.X.( B.(  .oX'.'.|.] +.O.B.B.+.B.+.+.B.( w   v.b.<X1X9X8Xb.g.i.b.k.p.&Xb.i.i.",
"k.i.h.4Xb.3.9.1X1Xk.6.6.q.b.b.k.2X1Xb.g.g.&X<Xb.~.b.l.  P B.+.B.B.B.B.B.B.+.] E.[.D.O.+.( ).(.|.`.:.[.}.H.( B.+.B.+.+.B.B.X.4   1X1X1X1X&Xb.b.b.1XyX5X<X4X9X&Xl.",
"g.b.&X=Xb.g.i.k.<X<X<X<X2X5X5X2X2X5X2Xl.l.~.<Xl.e.f.e.  A Z./ B.B.B.B.B.B.O.] '.OXo.| | [ |.<.>.].].].oXF.W Z.B.B.B.+.B.B.+.e   aX1X&Xb.k.g.=XaXyX<Xb.<X<Xf.6.9.",
"yX8X1X1XyXiX1Xq.b.b.b.~.$X,Xh.l.f.h.h.f.g.<X5X5XqX2X<X  H $.O.B.B.B.B.B.B.+.| ).|.-.=.=.=.].`.`.`.].]..XS.~ +.+.+.B.B.B.B.+.4   1X=X<X1X1X1X4X9X4Xl.l.<X&Xf.i.f.",
"yX9XyXyX9X4X&Xb.sX4X~.b.c.,Xh.l.q.9.9.7.q.h.2XqXr.f.q.i.    U N.B.+.B.B.+.! Y.`.>.`.].].].].].].].`.].oX$.} +.B.+.B.B.+.Z.X.w   k.b.b.&X1X1X1Xb.l.b.4X1X&XaXsXb.",
"8X9XiXsXyX=X1X8X4Xb.k.l.h.g.h.l.1Xk.k.v.b.b.m.8X1X1X^.b.g.  _ B.B.+.B.B.+.} Y.[.[.:.].].].].].].].>.].oXD.] C.B.B.B.B.B.Z.+.4   g.b.b.g.k.1X1Xv.q.i.k.k.g.1X4Xi.",
"4Xv.0.i.=XdX=X8.6.i.~.4X&Xh.k.~.4Xk.k.1X8Xb.w.r.m.1X9X9Xb.l.  A.N.+.B.B.+.} *.`.[.].`.].].].].].].].].XXF.} B.B.Z.+.B.+.D.X.7   q.&X4Xb.&X9X9Xb.8Xv.1XiX4X=X=Xd.",
"iX8Xn.v.8XiXyX4X&Xv.&X1X4X1Xm.<Xp.w.p.b.6X6X8X=X&X<X1X4X=X&X  K.N.B.+.B.+.} *.].].`.].].].].].].].].`.|.%.^ Z.B.Z.X.B.B.h     1X&XyXsX&Xg.b.k.q.p.%X4X1Xb.i.q.f.",
"=X*Xv.z.=XyXiXyX%Xv.b.8X9X9X8X2XjX8Xb.=XyXiX8Xb.q.8.8.p.&X8X  K.N.+.+.B.B.[ Y.[.[.].].].].].].].].].`. X%.W } O.Z.+.Z.Q g X   b.4X9X1Xk.k.=XyXyX9X8X8X4X=X&X1XyX",
":X6X6X&Xv.v.&X%X1X&Xv.&X9X9X9XwX%X&X%Xg.k.=X;X=X9XyX9X4X<Xb.  K.N.+.+.B.B.] T.[.`.>.].].].].].].].>.[.+XT.( B.+.+.Z.Z.C.l   &X&Xb.1X4X1X1X4X4X1XtX8X8X9XyX4X1X=X",
"8XiXiXyX;X&Xv.k.8X=X4X1X8X1X1X5X4XdXdX4X&X=XyX4X4X9XyX=Xg.p.  G.Z.+.+.B.N.N.[ {.,.].].:.].].].>.`.|.|.] ^ B.Z.+.B.! G.i   4X1X8XyX9X=Xk.p.g.4XsXyX9X9XyX9X=Xk.g.",
"^.1X8X9X9XtX8XyX%X1XyXhXsX6Xb.b.4X;X&X&X4XpXyX4X&Xb.g.q.p.&X  I.] B.N.B.Z.+.} Q.=.:.}.].:.].`.[.'.(.E.[ O.B.B.+.B.~ G.c   &Xb.=X1X8X9X4Xb.&X8XhXiX9X8X8X1X&Xb.1X",
"=X&Xb.b.&X&X;XtXv.%X=X1X1X1X1X9X4X4X4X8XyXsXyXyX8X8X4Xv.v.    $.! ( B.+.Z.+.B.} Y ).|.[.].[.`.].oXE.Y } Z.B.X.| B.#./.c   b.k.8.q.=XdXhXiX4X=Xb.b.&X1X4X=X&X=X8X",
"b.b.b.&Xv.g.k.&X8X&Xv.k.b.m.2X9X1X~.=X<Xg.8.6.g.v.4X8X&Xb.  M.+.V.Z.N.N.{ N.Z...+.] [.|.|.].<..X[ ( Z.Z.} Q ..C.A.( X   4X4Xg.0.&X9XyX=Xb.&X1Xb.i.k.&X1X=Xv.&X=X",
"e.g.<X8X9X;X8XyXiX8X1X8XsX9X1X~.b.q.q.b.2X1X1X1XiX9X8X&X=X  8 e 9 @.+.C.Z.B.+.Z...{ T.U.Y.Y.*.*.| @.^ V.B.Z.N.q 5 8   sXdX9X4X4Xb.4X8X&X<X8X1Xk.9X1X&Xb.k.k.=X9X",
"6.8.q.1X4Xv.k.tXiX8X8X8Xm.x.v.=X0X8Xv.p.v.tXdXpXtX8X*Xx.p.p.      ! ' E O.N.Z.B.#.B.] ( ^ ] ] ^ O.X.A. . .T G       8XtX0XtX8X:X7X1X^.1Xb.i.k.&Xb.m.m.v.m.m.6X8X",
"q.g.k.4XsXyX8XpX8X4X&Xg.v.m.8X0X8X8X9XtXyXiX8X;X9X8X8X8XtXiXiXdX=X    X n W.H.L.L.H.L.H.H.H.H.H.H.H.P.        1XtX&Xp.v.=X8X=Xp.q.v.1Xb.q.6.g.4X=X=X=X1X9X8X8X8X",
"7X9X1Xb.=Xv.i.i.4XtX8X4XtXhXhX9X8X1Xv.v.v.%X4XyXd.v.b.%X1XyX8X=Xg.=XyX8X                            . 4Xb.%X&X=XsX;Xv.v.8XiXyX8X9X^.g.g.g.k.i.q.4X1X&X1X4X1X&Xg.",
"b.1Xb.k.v.4X4XtX&X-X4X4XyX9X4Xv.1X4X9XiXyX1X=XtX8XiXyX4XtXhXdX8XdX4X=Xb.k.4XiX9XdXhXhX9X=X&Xb.&X4X4X&X&X&X&X=X4X4X1X=X&Xb.=X8XsXg.k.b.=X1X1X9XjX4X1Xb.k.l.l.l.k.",
"b.yX4Xk.g.v.b.&X-X&Xk.%X&Xk.b.=XiXiXiXsX8X%Xv.4Xv.=X1Xv.g.&X=Xk.=Xg.&XsXyX1X&Xv.b.&X4X8Xb.i.p.b.tX&X%Xb.;XyXyXyX4XyXyX4Xv.k.&X8XaX1X1XyX9Xk.g.1Xk.l.b.b.b.b.1X5X",
"1.g.v.b.&X&X4XyX4X&X&X4X9X=X1XyX9X1Xb.g.i.q.k.&Xg.1X8X=Xb.&X&Xb.8Xl.b.&Xg.q.&XyXb.g.l.1X4Xb.l.&X1X#Xg.k.&X4X9XyXiXiX9X9X4X=X1X4Xb.8.8.b.9X1Xb.b.q.k.4X4X&X&X&X4X",
"6XiXiX9X1X&Xk.&Xk.k.b.&X1X1Xb.b.r.v.1X;X=X&Xk.k.p.b.=X4X1X&Xb.1X&Xb.yXyXb.k.b.1XyX1Xv.&X1X4X=X&Xb.v.b.b.&X=X=Xb.1X&Xv.b.&Xb.b.v.i.b.1X&Xg.q.g.g.u.b.tX9X;Xv.v.=X",
"1X8X=X&X&Xv.l.4X5X1Xh.q.g.~.b.g.b.1Xb.k.g.&Xb.#Xb.&X<X1X&X&X<X8X5X4X4X<Xg.&X1X&Xl.b.f.8.q.l.1X&X1X7XiX0X9X1X1X1X<X=X<Xv.k.f.p.g.i.%Xb.i.b.9X9Xc.p.%X8XtX=X%X4XtX"
};
