/* XPM */
static char *_916e02b33964dd7bf109aa14f61ba5eOAho6DM5eYA7v57J[] = {
/* columns rows colors chars-per-pixel */
"80 80 221 2 ",
"   c #030003",
".  c #0C0301",
"X  c #01010B",
"o  c #040D08",
"O  c #120201",
"+  c #130A01",
"@  c #180807",
"#  c #101103",
"$  c #001010",
"%  c #3C1C0E",
"&  c #281418",
"*  c #3D2114",
"=  c #461909",
"-  c #531B0A",
";  c #4A1D14",
":  c #54260C",
">  c #562A0F",
",  c #482516",
"<  c #5B2B12",
"1  c #622D0D",
"2  c #622F16",
"3  c #693319",
"4  c #723A1C",
"5  c #7B3C1A",
"6  c #442628",
"7  c #773C26",
"8  c #723C2A",
"9  c #6D4428",
"0  c #784422",
"q  c #87380D",
"w  c #8F3E21",
"e  c #84400F",
"r  c #BC591E",
"t  c #874424",
"y  c #884727",
"u  c #8D492F",
"i  c #934422",
"p  c #984924",
"a  c #964C29",
"s  c #914B2C",
"d  c #9E562E",
"f  c #8E4D31",
"g  c #A04727",
"h  c #A95629",
"j  c #B75829",
"k  c #A24F31",
"l  c #AA5937",
"z  c #B55B34",
"x  c #BF6229",
"c  c #BB6435",
"v  c #C54B1C",
"b  c #C75B29",
"n  c #FB5F37",
"m  c #C5622A",
"M  c #C7682B",
"N  c #D96B2A",
"B  c #CB6935",
"V  c #D46B35",
"C  c #D47134",
"Z  c #DC7433",
"A  c #D5703A",
"S  c #DE7439",
"D  c #FA632A",
"F  c #FD7D2E",
"G  c #E56C34",
"H  c #E86B32",
"J  c #FD6C3D",
"K  c #EC7C32",
"L  c #E87738",
"P  c #F47B34",
"I  c #FB7C34",
"U  c #F3773C",
"Y  c #FB773E",
"T  c #F57C3C",
"R  c #FC7D3C",
"E  c #C56941",
"W  c #CF7543",
"Q  c #D27242",
"!  c #FE6C47",
"~  c #E97845",
"^  c #F77546",
"/  c #FD7643",
"(  c #F47C42",
")  c #FD7C43",
"_  c #FD7C49",
"`  c #FD7B50",
"'  c #F9852D",
"]  c #FD8236",
"[  c #F68934",
"{  c #F5823C",
"}  c #FD833D",
"|  c #FD8A3D",
" . c #FC9538",
".. c #FCA83C",
"X. c #FFB03A",
"o. c #FDD33E",
"O. c #F5D83D",
"+. c #FDDA3D",
"@. c #F8E73E",
"#. c #9A855C",
"$. c #9C8664",
"%. c #9C8D67",
"&. c #A48664",
"*. c #A48C64",
"=. c #AC8E64",
"-. c #A48D6C",
";. c #AC8E6C",
":. c #A4926C",
">. c #AC936C",
",. c #AC9A6C",
"<. c #B4966C",
"1. c #B49A6C",
"2. c #AC8E74",
"3. c #B48E74",
"4. c #A49474",
"5. c #AC9574",
"6. c #AC9B74",
"7. c #AC967C",
"8. c #AC9B7C",
"9. c #B49574",
"0. c #B49B74",
"q. c #BC9C74",
"w. c #B4967C",
"e. c #B49D7C",
"r. c #BC9E7C",
"t. c #ACA27C",
"y. c #B4A274",
"u. c #BCA374",
"i. c #B4A27C",
"p. c #BCA37C",
"a. c #B4AA7C",
"s. c #BCAA7C",
"d. c #EB8241",
"f. c #F58343",
"g. c #FE8342",
"h. c #F68942",
"j. c #FD8B44",
"k. c #F68349",
"l. c #FE844A",
"z. c #FD8C4A",
"x. c #FF9344",
"c. c #FD9C44",
"v. c #F5974D",
"b. c #FE934B",
"n. c #FE9B4C",
"m. c #EF8752",
"M. c #FD8D54",
"N. c #FD9252",
"B. c #FE9B53",
"V. c #FF945B",
"C. c #FF9A58",
"Z. c #FBA547",
"A. c #FFA94C",
"S. c #FFB647",
"D. c #FEBE46",
"F. c #FEA455",
"G. c #FDAC53",
"H. c #FAAB56",
"J. c #FEA45A",
"K. c #FFBA52",
"L. c #FF9761",
"P. c #C4A47C",
"I. c #C4AA7C",
"U. c #FFAA60",
"Y. c #FEC342",
"T. c #FED543",
"R. c #F6D940",
"E. c #FED944",
"W. c #F8D949",
"Q. c #FEDD49",
"!. c #FFDD57",
"~. c #F3E444",
"^. c #FDE244",
"/. c #F6E649",
"(. c #FEE24D",
"). c #FEEB49",
"_. c #F7FA49",
"`. c #FFE354",
"'. c #FFE954",
"]. c #FFF952",
"[. c #B49E84",
"{. c #BC9E84",
"}. c #B4A484",
"|. c #BCA584",
" X c #B4AA84",
".X c #BCAA84",
"XX c #BCA68C",
"oX c #BCAC8C",
"OX c #BCB284",
"+X c #BCB28C",
"@X c #B3AFBD",
"#X c #C49E84",
"$X c #C4A684",
"%X c #C4AB84",
"&X c #CCAC84",
"*X c #C4A68C",
"=X c #C4AD8C",
"-X c #CCAE8C",
";X c #C4B284",
":X c #CCB284",
">X c #C4B28C",
",X c #CCB38C",
"<X c #C4BA8C",
"1X c #CCBA8C",
"2X c #D4B68C",
"3X c #D4BA8C",
"4X c #C4AE94",
"5X c #CCAE94",
"6X c #C4B494",
"7X c #CCB594",
"8X c #CCBB94",
"9X c #C8B898",
"0X c #CCBC9C",
"qX c #D4B694",
"wX c #D4BB94",
"eX c #D4BD9C",
"rX c #DCBE9C",
"tX c #CCC29C",
"yX c #D4C294",
"uX c #D4C29C",
"iX c #DCC59C",
/* pixels */
"5.r.|.r.5.>.5.>.|.%X|.i.p..Xe.>.6.i..X.X|.i.>X8X|.|.oX6XoXe.}.=Xi.p.i.6.>.5.0.|.>X%X>.*.i.s.i.%Xe.6.i.%Xp.5.>.r.<.q.p.&X,X,XI.p.I.,X:X$Xp.p.I.p.%XP.p.%X2X,X,X%X",
"r.e.0.e.p.p.e.;.5.0.5.>.e.%X%X|..Xi.6.|.7XwX=Xi.i.e.|.=X=Xp.|.6Xp.%X=X-X=X=X=X,X,X8X,X%X%X|.p..X|.i.p.|.p.e.0.|.&X%XP.p.P.%X,X8XP.|.p.u.0.0.p.p.$Xp.p.p.p.e.0.0.",
"p.|.p.9.9.p.=X,X=X,X=X%X%X>X,X=X>X,X6X>X>X>XoX%X|.|.|.%X|.e.0.p.=X|.r.6.0.p.%X,Xe.e.|.oXp.e.|.e.p.i.e.p.i.r.e.9.9.0.r.$Xp.r.|.p.$Xp.p.p.p.p.0.p.5.0.0.0.5.=.>.0.",
"e.p.$Xe.0.|.,XwX|.-X,X=X|.|.r.0.0.|.,Xp.-.$.*.e.|.p.p.p.|.p.e.i.r.p.%X-X,X-X|.e.5Xe.e.$X|.7X7X$Xi.%X=X%X=X=X$Xr.r.r.w.9.5.e.$X7Xq.5.0.p.$X0.9.0.p.|.$X%X|.p.|.-X",
"r.e.0.p.=X,X=Xr.-.9.e.r.r.p.p.e.>X,X>X=X%Xp.|.p.i.e.e.%X=X,X7X7X|.0.-.-.5.p.=X,X=Xe.w.e.e.|.|.7.6.|.=X$Xp.$X|.r.r.r.r.0.9.e.|.=X%Xp.p.$X%X|.p.$Xp.p.|.|.|.e.0.0.",
"$X$Xe.9.0.r.p.e.P.|.$X|.P.|.-X7X%X%X%X=X,X7X%Xp.-X%X%X%X%X%X|.P.|.$X-X        =X9.5.6.e.>.-.5.;.e.p.|.0.5.0.p.p.;.0.$X=X$Xr.0.>.7X%Xp.e.r.|.%X,X=X=X$X=X%X$Xr.e.",
"=X=X$X9.-.5.|.-X-X$X$Xr.r.r.p.$X%X>X7X7X,X>X,X7X,X,X-X%Xp.r.0.0.7X&X  x | g.j.  %X-X-X-X,X-X%X,X=X>X,X=X%X$X%X*X&X&X%XI.%X%X,X,X|.|.e.>.>.0.p.|.9.5.-.>.5.5.>.5.",
"%X$X|.p.%X-X%Xp.e.q.e.r.r.P.|.$X$X|.0.5.9.e.e.p.p.P.%XP.$X%X&X,X-X%X  b | g.h.  .         ,Xp.$X%X=X>X7X>X$Xe.9.q.q.%X-X2X,X%XI.-X7XqX=X$X=X7X=X5X=X$X|.|.|.*X=X",
">.>.9.|.=X,X=Xp.p.q.0.1.>.>.>.>.>.>.5.0.|.%X-X=X0.5.;.-.-.9.0.q.>.e.  u S } y K j.T z.B i   0.r.5.9.q.r.r.$X%X-X.Xp.I.>X,X%X%X,X%X,X2X>Xp.9.0.p.p.|.=X,X-Xr.0.r.",
"$X|.p.|.%X=X%Xp.=X%X$X|.p.|.%X%X%X%X|.%X=X-X>X%X|.%X=X,X,X&X$Xr.|.$X$X  c G.  b j.f.b.5     $.$.;.9.e.r.r.e.9.>.%Xp.0.r..X%X%X%X0.0.9.r.%X,X,X,X=X=X-X=X%X-X=X-X",
"|.r.0.0.r.p.|.$X-.-.;.>.w.p.=X-X6X>X=X%X%X|.p.|.:.5.0.r.=X-X-X-Xq.p.p.  g b   H x.g.n.t   ,X%X$Xr.$X%X-X%X$Xp.r.p.r.5.>.<.r.p.p.5.0.p.p.0.0.r.p.9.9.5.;.>.e.$Xp.",
"$Xp.|.r.|.$X=X-XqX7X7X5X7X7X9XqXqX7XqX,X=X%X%X%X8X,X.Xp.e.e.r.r.e.|.%X-X      9 3 2 >     p.e.0.-X%X|.$X$X=X%X$Xr.$X&X0.;.9.|.-Xp.5.-.0.,XrX7Xp.#X$XP.e.p.7X8X7X",
"@X,X7X=X%X|.p.p.e.{.e.{.p.{.r.[.|.%X=X%X%X|.=X=X%X=X=X,X,X,X-X%Xp.p.|.p.p.%X,X        ,X7X=X%X|.%Xp.0.5.5.9.5.>.e.%X-Xr.;.>.q.0.e.%X,X-Xe.5.9.e.P.-X-X$X,XeXeX,X",
",X7X,X,X$Xr.w.0.5.9.e.e.p.|.|.p.0.0.i.|.p.|.%X=XuXeX8X7X>X        r.p.e.q.e.p.%X$X$X%X=X-X|.$X%X7X,X=X-X7X7X,X=X$X$X|.r.r.r.9.5.9.>.5.e.$X%X|.e.0.r.p.e.r.p.p.0.",
"%X=X,X=X$X|.%X=X,X,X,X,X=X$Xp.r.=X=X-X,X7X7X7XwX8X8X>X>X  : z._ l.    qX,X%X$Xp.=X=X-X%Xe.>.0.|.6.5.>.e.p.%Xp.e.=X=X%X4X7X>X=X=X|.=X-X%Xe.w.r.%X=X,X=X=X$Xp.e.0.",
"5.9.0.0.0.0.|.-X|.P.%X%X&X%X:X,X7XwX7X8XwXwXwXwX8X7X>X,X  = N.z.l.e   ,X,X7X,X&X=X-X=X|.>.;.e.-X>X%X|.$X>X,X=Xp.-.-.8.|.|.e.|.7X5.2.-.-.5.{.|.=X>X=X%X|.0.;.;.3.",
"i..X6X6X>X+X,XtX,Xs.p.p.p.p.p.P.e.p.=X=X|.e.5.5.p.p.|.0.>.>.. B.T z.'   r.9.2.;.5.p.%X:X,X8X:X%X%X:X;Xp.u.%X%XI.%X:X,X:X.X.X.X X%X,X,X%X%X%X,XwX:Xp.0.p.=X=X0.%.",
">X>X,X8X8XeXeXeXiXwX,X|.r.q.$X,X=X=X%X|.|.|.%X=Xe.p.%X%X%X.X+ n.R R }   e.r.{.#X-X=X=Xp.p.%X%Xs.0.i.P.p.>X3X,X.Xs.%X,X,X7X8X8XuX%Xp.p.>XwX,X%Xp.u.%X%X=X=X=X,XyX",
"e.p.|.p.|.p.p.i.5.5.5.5.5.5.9.e.|.p.8.;.$.#.$.$.|.p.8.5.5.0.+ n._ } ]   -X-X$Xr.p.|..Xp.|.p.0.0.0.e.p.e.0.0.-.#.q.0.q.0.5.>.9.e.=Xp.0.p.|.e.|.wX:X,X,X=X|.e.6.6.",
"=X-X,X-XP.e.r.p.*X|.$X=X-X=Xr.5.0.r.|.|.%X=X|.e.5.9.e.|.|.  | | g.A d   -Xp.r.9.i.|.$X-X=X%Xu.0.|.7X7X=XXX=X7X7X,X-X%Xr.9.9.0.e.9.6.|.%X|.0.r.%X%Xp.5.-.-.5.i..X",
"r.r.r.0.9.;.-.;.e.e.e.e.{.{.{.e.5.6.|.|.=X,X%X|.=Xp.9.e.|.  } g.l.q   0.=X$X%X-X=X|.5.>.5.0.e.p.w.e.e.w.9.e.|.=Xe.9.5.;.;.5.r.$X0.0.0.e.p.|.e.>.*.>.p.|.|.|.6XuX",
"-X|.r.p.=X=XP.0.-.r.-X=Xp.e.|.=X,X=X%Xe.p.=XoXp.5.5.e.-X  0 } j.V u   0.=Xp.p.p.=Xe.-.*.5.0.$X>X7X=X{.e.|.|.7.-.=X|.|.r.e.r.$X,X=X=X|.5.0.e.p.e.r.p.=X7X6X=X|.i.",
"$X|.p.$X=X-X=X|.9.%X,X$X0.>.:.>.i.e.5.-.5.|.=X|.|.5.5.@ U z.P B.7   0.0.      >.|.[.e.|.=X7X8XwX=X|.p.|.|.|.p.e.=X4X=X|.p.e.r.r.e.|.,X7X=Xe.e.e.,Xp.>.-.[.=X=XoX",
">.e.%X|.0.9.i.I.#Xq.>.>.0.%X%X%X|.*Xp.e.r.%Xp.5.*Xe.[.o H j.U b.5   0.  M J.  wX[.5.2.8.p.        ,X,X=Xp.e.p.%X8.}.}.|.[.0.e.0.|.5.5.|.|.|.r.|.>.6.|.XX=XoX|.}.",
"=Xp.5.e.=X,X=X|.p.e.0.6.e.p.6XeX=X=X=X=X|.}.|.|.%X|.p.+ H j.T B.5   0.  c n.  ,X+X;Xi.5.  i t y i     ,X6X%X.X.X8.5.4.e..X7X6X=X=X=X$Xe.-.-.5.e.i.i.i.i.i..Xi.5.",
"7X=X|.p.|.e.0.5.i.e.5.;.-.-.e.%X%Xe.>.-.$.$.-.5.|.%X>XO L j.{ b.4   $ c T M.  %X>X8X0X  g.f.( / ] m.~   >X.X8.:.e.p.=X8XeX0X,X.X=X=X=Xi.e..X=X,X>X>X%X=X=X>X>X,X",
"-.5.e.|.i.|.%X=X$X|.p.e.0.e.%X0X=Xe.-.-.6.|.%X>Xe.p.e.@ S | T n.4     c g.l.X .X}.|.    B.g.T } | l.R   |.>.*.-.4.e..X=X.X|.i.e.=X%X|.e.|.=X=X.X%Xr.0.e.0.5.9.e.",
"e.$X=X=X$X|.=X,XeX7X>X=X|.i.|.=X7X=Xi.|.%X=X.X*X%X=X%XO f.Q < B.C m c L f. .j       z H f.g.F A.O b.j.  e.9.5.>.i..X=X>X=X.X=X>X|.|.|.|.|.|.|.$X=Xp.e.|.$X0.5.0.",
"-.5.0.i.|.%X=X7X=X=X%X=X,X5X=X,X=X|.%X=X=X=X|.|.p.oX%X.X      n.K f.{ R ) R g.T k.T g.[ T | <   0.    p.%X,X$Xp.8.|.oX7X6X=XoX|.:.-.5.%X|.5.e.=X%Xe.9.p.=X|.p.|.",
"=X$X|.|.|.e.5.;.-.$.$.5.p.|.|.|.p.i.|.=X>X,X7XeX8X7X=X$X%X,X  b.( { } g.g.g.) | } g.g.( ) g.,   e.|.=X,X=X=X,X7Xe.i.i.|..X.Xp.}.9.5.e.=X.Xe.i.,XeX>X.X-X,X7X7XwX",
"|.%X=X7XwXeX7X=X,X=X|.=X=X=X%X|.=X=X|.|.|.|.|.%X>X%Xe.5.5.0.  G.b.j.) g.} ] | z.| | } } z.  +X>Xe..X,X>X|.p..X>X>X=X=X=X=X6X7X8X0X7X=X=X,X7X7X7X.X.X|.i.i.p.i.|.",
"|.|.=X7XwX7X$Xe.2.*.-.5.e.|.$X=X=X=X.X=X=X=X=X7X=X=X,X7X,Xr.9.    : j.x.| z.b.h { | | g.x.  >X+X%X6.%.5.%X6Xi.-.-.:.e.i.i.i.e.e.=X=X0.-.8.7X=Xe.i.%X7X>X=X=X>X>X",
"-.5.p.%X=X%X=X=Xs.%X%XI.%X;X,X,Xp.$X$X$Xr.0.9.>.-.>.6.e.p..X=X=X    j j j z b t C | | T M   eXwX7X|.6.e.=X7X=X=X6.5.>.5.e.=X=X|.5.6.6.0.|.>X8X9X>X,Xi.|.%X|.i.*.",
"$Xp.i.r.i.%X=X,XqX8XwX,X,X,X.Xp.0.5.              >X7XwX7X>X=X%X>X              h Z { Z > 0.>X>Xe.e.e.e.5.5.0.|.%X|.0.5.|.=X=X=X,X%Xe.-.-.6.}..X%X.X5.5.p.%X8X=X",
"=Xp.>.-.>.0.e.i.>.5.>.5.e.%X%X%X-X  H.J.M.| b.b.J.    %X.Xp.p.|.,X,X=X=X,X%X  N B.| | j.Z.  =X.X=X|.|.%X>X6X,X6X%X-X,X7X7X7X5X|.|.%X=X%X=X,X,X7X%X7X%X>X7X.X|.>.",
"eX>X$X|..X=X%X|.-X,X7X,X7XwXwX8X=X7X    | g.I T l.s 4   e.i.%X>X|.|.0.e..Xe.  S ` T } _ g.7     5.:.5.|.=X=X|.e.>.6.p.%X=X|.e.5.-.0.$X-X%Xe.;.$.=X>Xp.|.i.0.|.p.",
"%X%X.X%X%X|.p.e.-.0.$Xp.e.>.-.-.%X=X-X%X  b.{ g.g.} R W   p.=X,X7X,X%X=X,X|.O   1 T ) | h.| L M.  |.%X=X,X7X=X=X%X=X=X=X%X=X=X7X7X,X7X=X$Xp.r.p.-.p.=X8X-Xe.0.5.",
"=X=X-X=X=X%X=X%Xe.=X=XoXp.|.-X7X,X|.0.6.  b.{ { { g.f.P   p.i.e.|.%X|.0.5.>.    * g.} } g.) j.H.  5.5.5.|.=X,X=Xp.p.|.p.e.7.e.=X=X.Xe.0.0.e.%X7XeXwX=X.X0.-.i.%X",
"p.p.p.p.p.e.e.0.|.p.r.5.$.-.e.|.p.6.>.0.  A.( g.} g.R ~   =X|.p.-X7X-Xp.$X|.  s V R } g.g.} / j.j   >.5.oXwX7X.Xp.%X=X=Xp.5.w.|.<X%X}.p.i.e.p.|..X=X%X,X7X.X=X%X",
"%X.X=X=X=X%X|.r.|.=X7X=X=X=X%X=X=X=X=XoX=X  u x.g.k.U U   %X%X|.r.r.;.5.p.  ` I g.k.g.| h.h.} ) x.  7X=X%X=X=X|.|.$X|.e.-.$.5.*X9X>X.XoX=X.Xp..X%X.X0..X=X.X%X|.",
"8X.X0.6.5.%.:.}.p.=Xe.$.&.i.=X=X}.e.6.0.,X  4 g.g.g.) ~   6.4.:.*.:.6.i.p.  J.} g.h.g.} } g.l.) z.    ,X|.>.-.>.p.>XwX,X=X=X%X%Xp.i.p.:X,X%Xp.p.p.p.p.p.p.%X=X%X",
"p.p.>X7X,X=XXX|.=X$X|.=X=X|.e.=X-X=X|.|.  c.g.} ] { } g.  =X,X>X=X>X>X=X    z.k.h.{ g.} g.g.] } | | R   e.0.e.|.e.0.e.e.|.%Xi.5.5.>.0.=X,X=XP.|.%X;X,XwXwX-X|.p.",
"=X=X%X|.}.=X,X7X6.5.>.p.|.5.-.|.|.=X7X%X  n.T R g.z.V.  5.6.i.i.>X7X    b J.[ } g.g.{ } g.g.) g.k.g.(     =X%Xp..X%X=X>XwXwX,X|.=.>.e.%X-Xp.p.|.%X%X,X%X|.|.p.|.",
",X7XqX7X,X7X=X=X$X>X7X=X7XwXwXwXeX7X=X=X  B.( l.| N v   ,X8XeXwX7X,X  6 B } Y g.g.g.g.g.} } h.} I g.(   , ,X|.r.5.|.,X,X=X|..X%X=X=X,X8X,X=X%X=X$Xp.i.0.0.0.$X=X",
"e.5.e.|.i.5.5.0.5.=X=Xr.|.=X=Xe.e.e.0.e.  c.] j.B.&   0.%X=X%X.X%X  x.] R h.g.] g.R { g.g.h.g.{ _ j.) & |     p.|.>X8X,Xi.e.%X8X7XqX,X=X|.e.p.|.p.$X%X%X>X-X%X.X",
"7X|.|.%X|.9.0.%X5.e.0.5.e.e.e.$Xp.$X=X%X|.      z.j.b.  ,X,X        j.{ ) g.k.{ R g.) R } T } g.{ j.^ @ g.F.a X >X%Xp.e.5.5.e.%X=X=X%X|.0.6.e.p.=X%X=X,X7X;X%Xy.",
"w.w.|.=X%Xe.>.>.|.e.:.5.0.5.e.7XeXe.-.;.=XX ; 7 g.g._   0.0.  2 * , h.) g.g.T g.] ) S.b./ g.g.g.g.{ / w | b.a   7X=X=X,X>X%X=X>Xp.|.=X%X|.$X|.|.=X=X|.p.p.P.p.I.",
"9.w.9.;.5.p.-X,X%X7X7X=X7X=X$X=X%X=X$Xr.0.  f C.[ / l.' O   F.U.8 , l._ R } g.) h.T ].Z.D _ f.g.} { g.b.g.B.s   $.:.p.>X=Xp.0.e.$.-.5.e.e.e.5.5.p.p.$X|.p.%X%X,X",
"i.i..X6X7X>X>X>X%X0.p.%Xi.p.>X=Xu..X>X8X7X  t b.] { { G     / g.l.g.] } { } ] g.} / '.Q.@.R ] | } l.l.} [ V.k   ,X%X|.|.p.p.|.=X%X=X,X=Xp.e.9.9..Xe.0.e.p.r.5.;.",
"%Xe.:.5.p..X=X.Xp.0.%Xs.0.0..X|.s.i.0.=X0XiX  - | / _ F l m g.{ g.} } { g.} h.{ | ) ^.T.~._ g.g.[ ] g.g.g.B.p   |.p.|.%X=X|.$X=Xi.p.%Xp.e.9.>.<..Xp.e.0.9.0.r.P.",
"|.i..X=X=X.X=X=XP.%X,X&X0.r.$X$Xp.%X7X>X|.e.y.  b.( ) `  .[ L g.} g.g.g.g.g.} g.[ ) (.+./.) g.g.g.g.g.} g.P y   p.e.r.0.9.>.:.>..X%X=X%X%Xp.$X|.0.p.e.-.*.5.r.p.",
"-.e.%X>X.Xp.i.p.P.P.$X$X0.9.e.r.%X.X.X=X=X=X%X  L._ { ( | j + B.P g.g.g.g.g.} g.| ) !.Q.^.) g.} g.g.} { |     -X=X%X|.p.e.|.%X7X.X%X%X%Xp.p.r.r.%X7X,Xp.r.|.-X=X",
"7X%X|.%X,X8X8X7X-X$Xp.%X$X9.9.{.y.|.|.|.[.i.|.s.  E n.j.n.j # n.T g.g.g.g.g.g.h.f.l.I X._.) g.} g.g.} g.b.  i.p.>X=Xp.0.>.5.p.=X,X,X>X%X|.p.e.q.r.|.$X9.5.p.$Xp.",
"%X|.0.5.0.|.$Xp.p.e.9.9.e.2.&.;.i.-XeX=X2.&.5.%X  l G V Z p * b.R g.g.g.g.g.g.g.R g./ n.W.) g.} g.} { T V   =X.X,X,X7X|.i.p.%X%X.X%X>X=X-X%X%X%X$X%XP.e.|.,X7X>X",
"i.|.$Xp.i.p.i.e.%XwX,X=X7X7X=X7X,X=X|.|.=X=X=X-X,X        ; f.R l.} g.g.g.g.g.g.} ) Z.| g.g.g.g.g.} { m   =X,X=X*.5.e.e.r.|.=X,Xe.0.p.p.p.$Xp.p.r.e.e.r.p.|.%X.X",
"$Xe.>.>.0.|.9.&.$.%X.X5.}.7X6X=X=X=X*Xe.2.-.5.0.%X%X,X7X  ; z.] | g.g.g.g.g.g.g.h.R '.X./ } } g.g.g.h.b   i.0.e.|.,X,X%Xp.|.%X=X%X.X%X%X|.r.0.>.r.#X%X7XqX,X.X%X",
"r.,X=X;.-.r.p.;.#.6.>X,Xs.i.p.p.%X%Xs.|.0.>.5.8.;X=Xs.p.  = | k.} h.g.g.} { g.f.} R ]...n _ { } R l.m.  5.*.0.%X0.|.%X|.9.>.0.|.p.e.>.5.p.,X,X$X.X.Xp.%X8X}.>.i.",
",X$X|.%X%Xr.p.=X>X>X%X|.%X,X,X%X%X%X.Xp.p.|.=X,X%X%Xs.$X  % { } g.h.) g.g.| g.l.| R ).Y. .) j.R k.R g.  %Xp.|.|.$X$X|.$X|.|.|.-Xi.p.$X%X,X>Xp.0.5.p.e.6.|.p.5.5.",
"e.5.q.=Xp.$.;.%X%Xe.*.*.>.p.p.e.&X%Xp.0.0.|.$Xp.P.p.r.0.  = B.| { g.g.} } h.) } R R ^.^._.R { ) h.] R   %X%X%X%X.X0.5.r.|.P.$X=X%X%X%X%X|.p.p.p.%X7X-X$X=X,X|.r.",
"0.p.|..Xp.0.5.e.$X$X$X$X&X-X-X&X&X-X&Xr.r.P.$Xr.<.9.<.p.%X7X  c.} { } g.) ) { ) ) I Q.T.~./ R R ) g.)   p.p.%X,X|.9.>.e.$Xe.p.%XqX%X|.p.e.0..XqX7X$Xp.$X$X9.*.;.",
"7X>X%X%X7X8X%X>.p.p.p.P.{.#Xq.r.9.q.q.9.0.$X-X-X2X&X$X&X,X7X  H.) | } g.) ] K._ g.D.^.E.~.K.x.) T | g.  .X$X.X|.%Xp.%X,X=Xp.|.=X%X.X$X%X%X%X=X,X=Xr.r.$X|.9.5.9.",
"7X,X7X7X,X=X|.p.wX=XP.p.u.#Xq.r.>.;.;.=.>.q.&X2X1.9.>.5.p.|.  } ( g.g.g.R ' `.v.c.@.+.T.E.^.c.) _ l.f.  ,X,Xp.0.p.=X7X7X%Xe.r.%Xe.p.p.|.%X%X%Xp.r.p.=X%X|.qXwXp.",
">X,X8XwX7X.X%X>X=Xp.e.r.q.0.q.r.%Xe.e.i.p.p.s.>X%X%XI.p.0.>.    s T } g.R R Q.T.E.E.E.E.E.E.x.J / | d.  %X=Xp.5.r.$X-X$Xp.r.e.r.0.p.p.0.e.%X%Xi.>.5.e.e.0.%X=X5.",
"=Xi.:.5..XeX.X-.*.5.P.=X|.q.e.P.=Xe.e.%X>Xp.,.1.s.%X,X,Xp.  L   0 T } g.R R Q.E.E.E.E.E.E.+.+.(.) g.g.r   p.p.p.|.%X%X|.p.%X$Xe.>.|.=Xp.|.,X,Xp.>Xi.%X8X=X.X.X8.",
"8X>Xa.i.>X8X7X=X|.i.|.%X=X%Xs.$X6.,.6.p.;X;X>X.X|.$X%X=X.X  (   k R } g.R R Q.E.E.E.E.E.E.+.T.)./ g.{ B   0..X.X5.0.i.p.}.p.|.%X|.7XwX|.0.p.e.>.6.}.=X%Xp.5.>.9.",
".X Xi.t..X7X8X7X}.i.p.>X,X,X>X&XyX>Xp..X7X8X>Xp.>.-.-.6.|.  V | T g.} } R R Q.E.E.E.E.E.E.Q.O.)./ g.R B   }.e.}.0.*.-.i.,X=X|.p.=X,X%Xe.e..X7X7X,X>X>X=X.X|.%X7X",
"OX;X;X|.i.i.|.}.%X|.i.|.,X,X,X3X}.|.}.0.e..XoX.X,X7X,X=X$Xp.  c.g.g.} } R R Q.E.E.E.E.E.E.T.Q.)./ g.} ` )   |.7X%X5.6.,XeX,X|.|.p.%X=X%X%X=X=X%X6X>X>X,X7X=X%X.X",
">X8X8X7XoX|.i.e.>X.X=X%X>X%X%X-X=XeXeX=X|..X7X=X=X,X7X.X0.6.  c.R g.} } R R Q.E.E.E.E.E.E.+.o.(./ g.} R j.  eX>X.X.X,XeXwX=X%X>X7X,X.Xe.6.0.=XwX7X,X,X7X,X.Xe.0.",
"I.%X>X,X,X6X>X7X}.%X7XuXwX;Xp.p.=XoX|.|.=X9X7X=X|.p.0.>.6.|.  x.] | g.g.R R E.+.O.Q.T.Q.R.E.Y.D./ g.g.) j.  >X.Xe.%X7X>X.X|.p..X%X>X,X=Xp.|.>XuX8X,X>X>X%X|.p.%X",
".X|.p.p.|.|.oX6Xi.}..X%X%X%X%X,X=X=X=X>X7XwX7X7X>X>X=Xi.    N.{ g.f.} g.} h.!.^.T.T.R.T.E.^.j.! [ j.) ] |     i..X=X.Xp.e.p.e.-.>..XeXuX8X=X.Xp.p.|.%X=X.X|..X>X",
"p.p.p.|.i.0.e.|.>X|.i.e.p.s.&X,X%XP..X$X0.-.*.0.i.=X>X  k C d.| R l.} g.] Y c.T.^.o.W.R.(.j.g.| ) g.g.g.R c y   wX,X=X%X=X=X0.:.|.,X7X.Xp.|.%Xp.5.e.|.%X.Xi.|..X",
"<.0.$X>X,XoX>X7X8X>X%X>XwX,X%XP.p.>.>.p.&X%X%X%X8X,X>X  U j.g.g.R } | h.{ g.{ ..A.c.c.c.A.R g.g.{ g.g.F j.C.a X 7X=X>XwXeX,X=X=Xp.=X>X|.$X>X%Xe.,X%X|.p.e.e..X,X",
"*.-.>.%X=Xi.e.6X8X>X>X>Xs.y.i..X1X>Xi.6.i.6XeX0X6X>X X  M T ~ j.} } g.g.g.} R / / / / / / ) | g.g.g.] _ ~ ] i %XOX>X>X6X<X6X>X+X:X%XI.%Xp.5.e.|.p.s.s.i.s.s.;X>X",
">.0.e.=XwX7X>X0X>X=X|.0.i.s.>X1X>X>X,X6X7X8X>XoX,X>X>X>X      N.P R ) R { P ) _ ) { f.R ) / { R T g.I E       %X6X|.6.i..X>X.X6.>.i.%Xp.>.*.0.=X.X.X.X%X,X>X>X>X",
":X,X%Xp..Xi.5.5.=X6X>X=X6XuXuX,X>X%Xi.i.i.}.=X7X8.i.p.}.%X7X>X                                          p.}.|..XwXoXi.i.>X8X7X>X,XI.0.0.0.e.5.>.=X%X|.%X=X%X|.0.",
"p.%Xp.e.i.=X=X6X|.XX=X=X7X,X=Xi.%X=X,X8X7X%X.X6X>X8X7X=X6XuXeX>XeX=X.Xp.e.=X8X,XeXuXuX,X.X|.p.|.=X=X|.|.|.|..X=X=X%X.X|.p..X>XwX0.e.p..X%X%X,XiX=X%Xp.e.r.r.r.e.",
"p.7X=Xe.0.i.p.|.XX|.e.}.|.e.p..X8X8X8XwX>X}.i.=Xi..X%Xi.0.|..Xe..X0.|.wX7X%X|.i.p.|.=X>Xp.5.6.p.6X|.}.p.oX7X7X7X=X7X7X=Xi.e.|.>XqX%X%X7X,Xe.0.%Xe.r.p.p.p.p.%X-X",
"#.0.i.p.|.|.=X7X=X|.|.=X,X.X%X7X,X%Xp.0.5.>.e.|.0.%X>X.Xp.|.|.p.>Xr.p.|.0.>.|.7Xp.0.r.%X=Xp.r.|.%X[.0.e.|.=X,X7X8X8X,X,X=X.X%X=Xp.-.-.p.,X%Xp.p.>.e.=X=X|.|.|.=X",
";X8X8X,X%X|.e.|.e.e.p.|.%X%Xp.p.1.i.%XoX.X|.e.e.6.p..X=X%X|.p.%X|.p.7X7Xp.e.p.%X7X%Xi.|.%X=X.X|.p.i.p.p.|..X.Xp.%X|.i.p.|.p.p.i.5.p.%X|.0.>.0.0.4.p.6X,XoXi.i..X",
"%X>X.X|.|.i.r.=X-X%Xq.>.0.P.p.0.p.%Xp.e.0.|.p.[.p.|.$X%X|.|.$X>X-X=X=X$X0.|.%X|.r.p.9.-.>.r.%X|.%X:X8X1X,X%X%X%X$X.X$Xi.e.9.6.0.5.}.p.5.p.,X,Xu.6.}.>X6X.X}.=X6X"
};
