/* XPM */
static char *_3be37c9407743dccd5a701790230f8b0IWNaSU28fxLvXML[] = {
/* columns rows colors chars-per-pixel */
"80 80 212 2 ",
"   c #030101",
".  c #0A0201",
"X  c #0C0B04",
"o  c #01040A",
"O  c #05090E",
"+  c #160A03",
"@  c #141300",
"#  c #060A16",
"$  c #161414",
"%  c #3F1B01",
"&  c #3A1B19",
"*  c #1B221B",
"=  c #3C2716",
"-  c #451F12",
";  c #46240B",
":  c #5B2A0A",
">  c #572C1D",
",  c #5B371B",
"<  c #622601",
"1  c #662D1A",
"2  c #623419",
"3  c #6B3319",
"4  c #773A16",
"5  c #622E20",
"6  c #6B3D29",
"7  c #773C25",
"8  c #68421E",
"9  c #7E4625",
"0  c #853E1C",
"q  c #8B3F1D",
"w  c #823322",
"e  c #86471C",
"r  c #8C471F",
"t  c #AB561D",
"y  c #B95719",
"u  c #874727",
"i  c #934C2F",
"p  c #9A5728",
"a  c #824530",
"s  c #9E4D32",
"d  c #995530",
"f  c #B24E2E",
"g  c #A8572A",
"h  c #B5552B",
"j  c #BE5F2C",
"k  c #A75B34",
"l  c #A75A35",
"z  c #B95A37",
"x  c #B86839",
"c  c #C45D28",
"v  c #C05E31",
"b  c #C26428",
"n  c #D26B2B",
"m  c #D4722B",
"M  c #C26334",
"N  c #C6653D",
"B  c #D96937",
"V  c #D7733C",
"C  c #E26D2B",
"Z  c #E4742A",
"A  c #F77829",
"S  c #E36B33",
"D  c #FF6F3C",
"F  c #E67637",
"G  c #F47A36",
"H  c #FE7D35",
"J  c #FC753D",
"K  c #F57B3B",
"L  c #FC7D3C",
"P  c #C96042",
"I  c #DD7547",
"U  c #EC6D47",
"Y  c #EB7345",
"T  c #E77941",
"R  c #FF7444",
"E  c #F67C43",
"W  c #FD7C43",
"Q  c #FE764A",
"!  c #FC7B4B",
"~  c #FB7D53",
"^  c #ED863B",
"/  c #F48732",
"(  c #FC8236",
")  c #FE8A35",
"_  c #F5823C",
"`  c #FD823D",
"'  c #FD8A3D",
"]  c #FE943E",
"[  c #F99A38",
"{  c #FFAA3F",
"}  c #FDB83B",
"|  c #FFC739",
" . c #FDD33F",
".. c #F7DC3D",
"X. c #FDDA3F",
"o. c #F4E33B",
"O. c #98885C",
"+. c #9C8664",
"@. c #9C8B64",
"#. c #9C8A6C",
"$. c #A48664",
"%. c #A48C64",
"&. c #AC8E64",
"*. c #A48D6C",
"=. c #AC8E6C",
"-. c #A4936C",
";. c #AC936C",
":. c #AC9A6C",
">. c #B4966C",
",. c #B49A6C",
"<. c #AC8E74",
"1. c #B48E74",
"2. c #A49474",
"3. c #AC9574",
"4. c #AC9B74",
"5. c #AC967C",
"6. c #AC9C7C",
"7. c #B49674",
"8. c #B49C74",
"9. c #BC9C74",
"0. c #B4967C",
"q. c #B49D7C",
"w. c #BC9E7C",
"e. c #ACA27C",
"r. c #B4A274",
"t. c #BCA374",
"y. c #B4A27C",
"u. c #BCA37C",
"i. c #B4AA7C",
"p. c #BCAA7C",
"a. c #ED8747",
"s. c #F58243",
"d. c #FE8341",
"f. c #F68843",
"g. c #FE8C44",
"h. c #F7854C",
"j. c #FE844A",
"k. c #F68948",
"l. c #FD8B4A",
"z. c #FE9343",
"x. c #F69A46",
"c. c #FE9C46",
"v. c #FE924B",
"b. c #FE9B4D",
"n. c #FF8653",
"m. c #FE8B53",
"M. c #FB8459",
"N. c #FE9453",
"B. c #FE9A53",
"V. c #FC945B",
"C. c #FE9D5A",
"Z. c #FBA443",
"A. c #FBA742",
"S. c #FDA24D",
"D. c #FAB943",
"F. c #FDA555",
"G. c #FEA15C",
"H. c #FFAA5B",
"J. c #C4A47C",
"K. c #C4AA7C",
"L. c #FFAE62",
"P. c #FCCA43",
"I. c #F8C945",
"U. c #FDD642",
"Y. c #F6DB41",
"T. c #FEDA44",
"R. c #FED64B",
"E. c #FFD94A",
"W. c #FFC952",
"Q. c #FBD651",
"!. c #F5E344",
"~. c #FEE444",
"^. c #FEEB46",
"/. c #FFE54A",
"(. c #FDEC4B",
"). c #FEFB4A",
"_. c #B49E84",
"`. c #BC9E84",
"'. c #B4A484",
"]. c #BCA584",
"[. c #BCAA84",
"{. c #BCA68C",
"}. c #BCAC8C",
"|. c #BCB288",
" X c #C49E84",
".X c #C4A684",
"XX c #C4AC84",
"oX c #CCAB84",
"OX c #C4A68C",
"+X c #C4AD8C",
"@X c #CCAE8C",
"#X c #C4B284",
"$X c #CCB284",
"%X c #C4B38C",
"&X c #CCB38C",
"*X c #C4BA8C",
"=X c #CCBA8C",
"-X c #D4B58C",
";X c #CCAE94",
":X c #C4B494",
">X c #CCB594",
",X c #C4BA94",
"<X c #CCBB94",
"1X c #CCBC9C",
"2X c #D4B694",
"3X c #D4BA94",
"4X c #D4BE94",
"5X c #D4BD9C",
"6X c #D4BE9C",
"7X c #DCBE9C",
"8X c #D4C29C",
"9X c #DCC29C",
/* pixels */
"u.y.u.].[.XX&X>X[.XX8.3.u.+X+X4X;.].[.].&X[.u.u.u.u.q.q.].u.w.3.*.q.].4.;.8.<X3X>XXX+X&X%X].u.@X@Xu..X].&X+XXXq.8.].XX].q.;.}.3X>Xu.XX+Xu.3.0.*XXX'.u.q.u.].+XXX",
"$X&Xu.u.u.u.u.u.XXXXy.[.<X[.2.:X&XK.u.u.u.u.<X[.8.3.#.-.u.+Xq.+.y.+X+Xq.4.8.4.6.3.-.].}.[.2.-.%.4.y.u.[.>X[.].8.8.y.+Xy.y.[.].;.*.u.%X3X+X+XXXu.y.u.$XXXu.u.u.u.",
"+X&XJ.].XX&X3X3X@Xu.8.y.+XXX].+Xy.XXXX8.[.>Xu.u.%X&X+X{.+X.X].+X].q.+X+X].].].u.].+X+XXX[.&X%X+X%X+X+X[.+Xu.[.+XXX[.+Xy.[.XXq.8.q.q.8.q.].XXy.3.;.8.+X+XJ.].#X&X",
"XX@Xu.].XX&XXX].].].&X4X[.y.q.2.3.+X5X].XX+X+X+XXX'.+X&X4.3.;.u.3.*.].+X>XXX3.].>X&Xy.3.3.y.y.%X4X5X<XXX4.3.3.q.q.q.3.4.XX<XXX+XXX[.XX+X3X4X&X&.;.q.XXu.u.].XX&X",
"<X&XXX+X.Xy.8.8.8.+X[.XXy.3.4.].>X+X+X3.*.q.&X>X2X&X>X+X.X%X>X+X3X3X3X>X+X+X>X>X              >X+X+X[.XX&X+XXX].XX+X].y.+X>X>X&X].3.].&X+X].[.+X+X&X<X+XXX+Xu.y.",
"].8.q.u.+X+X&X>X#Xr.u.;.8.].u.*.3.+X>X%X>X&X>X].].].7.8.3.q.8.3.q.q..X.X+XXX    < 2 3 2 1 1 3   &X>X>X+X8.8.].[.y.8.%X>X[.].+Xu.q.%XXXu.3.3.q.+X+XXX].4.q.u.XX+X",
"XX].].].+X].u.u.J.K.[.XXXX%X>X.Xy.XXXX3.u.[.0.0.].XXq.;.].q.-.3.3.q.>Xq.*.=.  & L.c.b.b.x.F.c.  8.3.;.q.+X].[.+XXX[.&X[.[.%X+Xu.q.>X+X+X%XXX+Xu.].+XXX.X].].+X].",
"q.q.3.3.u..X].u.XX&Xu.3X].;.7.].XXXX&XXXu.y.7.0.7.3.u.@XXX>X>X+X+X.X+X+X.X  g.g.L ` k.g.l.g.g.O u.XX@X+Xu.].;.@.8.].-.[.&X%X;.3.4.+.-.u.+Xu.8.+.*.3.q.q.3.3.u..X",
"u.q.;.>.[.q.8.7.8.J.y.'.+XXXu.w.&Xu.w.].u.u.XXq.-.u.[.+Xu.8.XXp.8.[.].y.8.. B.W ! ` d ; ; F d.o &X].;.-.XX@XXXu.]..XXX8.q.u.&X<X&X].u.].+X]..Xy.u.XXu.7.;.>.u.q.",
"XXXX.X].8.q.*.%.3.u.>X[.+XXXq.[.].8.-.].XX[.].y.[.+X[.+XJ.XX&XoXw..X.XXX>X  k.A s.l.>     a.H.O u.u.8.w.].w.8.8.8.8.u.[.].q.u.y.4.u.q.w.7.;.-.[.XX+XXXu..X].u.q.",
"XXu.w.w.XX&Xu.w.].+XXXXX+Xu.q.&X3X&XXXu.u.u.*.q.XX[.u.y.J.J..X.X7.q.w.[.  q l.f.h.l.6   w.7 4 $ XXXX+XXX8.8.u.XXXX@X@X+X%X&X[.].XX+XXX].q.].XX[.XXXXXXu.w.w.>X&X",
"+X@XXXXX.XJ.q.].&X%X.XXX]..X%X8.7.4.w.3X<X2XXX].8.8.]..Xu.q.7.7.<.$.=.@X  l.          ].XXu.].;.u.XX+X&X4X@X+Xu.u.u.8.5X&XXX&X>X+X&X&X>Xy.u.XX[.XX%X+XXXXXXXXXJ.",
"u.u.u.u.w.q.w.u.].[.@XXX7.q..X+XXXXX[.+Xu.8.y.]..Xy.u.y.XX3X&X+X>X+X>X+X  ]   +X@X&XXXXXXX+X&X3X&X&X&X%Xu.&X@X.X.Xu.u.XXq.2.y.+X&X%.3.q.w.].+Xq.8.u.u..Xu.u.q.q.",
"XX].8.;.w.XX>X2X&XXX X X.X8.3.3X].u.u.8.3.8..Xq.;.8.].7.+.XX[.3.>X:X+X+X    w.3.8.XX&X>XXX,.3.u.5X3X&XXX&X].u.XX+X@Xu.}.XXXXu.y.8.].&X&Xu.].XXXX[.XXXXw.8.;. XXX",
"3.u.&X.X[.u.XX<X'.y.u.[..X+X&X=.%.u.+X;.3.u.w.&X+X*.w.u.O.4.%X&Xy.u.u.XXy.  o 3.6.#Xp.u.u.@X2X-XXXq.7.3.u.].u..X].].].8..X%X3.%.8.8.].XX7.;.8.u.q.;.3.&X&X.X[.u.",
"XX].u.u.XX@X.X+X&Xw.3.u.+X[..Xu.;.3.].q.%.%.q.3.9.u.+.=.XXq.%.%.u.u.q.XXy.          w.8.3.%.%..Xu..X].XX]..Xu.]..X].].XX].u.XXXXXX[.8.3.].J..XXXXXXXXXu.u.u.>X@X",
"u.q.[.2X>Xu..X.X7.=.y.].3.;.8.&X+X+X&X].3.7.8.u.].u.8.3..X.X.X.X@X@X      [ l.v.H.  >.u.XX>X%X%X.Xu.XXXXXX7.u.+Xw.;.q.u.J.].u.u.XX].7.;..Xq.u.2XXX].u.8.[.2X.Xu.",
"XXXX+X&X+Xw..X].7.7.8.].&X+X[.4.>X.X3.4.u.+X>X%XXX>X<XXXu.u.u.J. X  F.C.v.Q ' k   -X.XoX&XXX'.XXu.+X@X&XJ.].].w.q.w.@XXX+XXX[..X[.XXu.XX+Xu.].XX[..XXXXX+X&Xw.w.",
"8.q.XXy.;.q.q.8.XX3.%.;.u.].XX+X&XXXXX+X+X].%X&X<X>X[.XX+Xu.q.w.    H _ G ( N.N   XXK.u.8.%.$..X8.7.8..X&X9.].@Xu.8..X;.*.-.XX+Xu.w..X@Xu.w.q.8.u.u.8.XXXXy.3.q.",
"u.].&Xu.%XXX<X+X[.6.J.`.u.q.].<X>X%X+X8.;.].+Xy.-.[.5X[.%.3.J.    ] h.d.( J C.c   p.&X&Xu.7.w.8.w.u..XXX.X].;.+.7.q.q.u.u.u.y.u.u.].XXXXu.XX.X;.].+Xu.&X&Xu.y.XX",
"].8.q.;.4.+XXXu.3.7.[.+X<X%X+X3Xu.XX&XXX[.%X<X%Xi.%X<X>X].y.].    B.L ` d.W : 6       7.[.].[.<Xu.+X%Xu.u.u.3..X@Xu.3.].].q.#.8.[.3.8.y.'.u.].].>X3X].u.q.;.'.+X",
"XXXX+XXX:X%X&X>X+X[.y.[.%X<X3X4.+X.Xu.+X%X>X|.#X#Xy.y.].XX].    N l.( j.H l.  7.  p -   .X[.+X%Xu.XX>X4X[.&X&X&X@Xp.XX[.q.2.4.4.].XX3.4.5X&X].u.XX+XXX+X+XXX%X%X",
"q.4.+X3X>X&X>X&X[.8.:X<X8.*.8.&X8.y.u.+X+X&X%X<X<X}.].y.%X[.  S.g.` d.d.j.f.      c.u . 8.].&X]..         o u.;.3.8.XXy.+X>X>X5X5X[.[.&X4X+XXX>X&X[.q.8.+X3X&X&X",
"+Xu.%X8X<X%X%XXX].XX6.&X:Xu.y.q.XX].q.+X&X[.K.XX%X&X:X%X'.XX  ( ! ( d.` s.d.T s.M.g.6   4.XX+X$ I m.s.m.P   &X%XXX].XX>X1X<X].}.%Xq.XX>X[.].u.XX%X&X+X].%X8X&X%X",
"8X<X[.u.u.XX+X[.].%X[.%Xq.q.].XX:X%X[.XXXXXX[.].u.].].}.y.'.  ] s.` d.d.d.` d.` ` l.8 o q.7.  b E ~ z.    %X>Xy.@.+.1X<X>X>X<X].q.[.+X[.q.u.q.;.[.5X8X+X[.u.].XX",
"]..XXXq.&X].u.q.q.&X,X%X%X%X+X>X1X+X].[.].t.>.8..X&X}.%X<X%X  ' s.` d.` d.` ` ` ` j.8   q.    ] d.` C   ].{._.>X1X}.1X:X3X<X[.%X>X>X+X%X5X&X+Xu.+X%X].%XXXq.XX].",
"XXu.q.].u.p.y.p.p.%XJ.XXXXJ.J.9.u.%.&.9.;.8.%.*.;.+Xy.q.<X%X  g.s.` d.` d.d.d.d.` g.2     C ( d.s.m.  q.XX}.[.:X%X].%XXXXXXXu.u.p.|.%X%X*X:X%X$XXXK.XX3.q.].p.p.",
"u.;.8.+X[.[.XX&X%X%Xu..Xu.r.w.8.u.w.8.u.&XXX;.8.q.3X>X%X%X+X  g.s.` d.d.d.d.d.` ` d.,     F g.' s.l.  -.%X;.-.3.[.<X>X&X&X&XXX].XX:X].4.[.%X[.;.y.XXu.%.8.+X[.[.",
"[.XX&X9X+Xu.q.w.w.q.8.q.u.+X&X].w.=.8.w.-.8.u.XXu.y.+X+X].{.  g.s.` d.` d.d.d.d.` l.u     T g.d.L N.  +X&X5X8X&X[.].].+X+X].].].[.+XXX[.u.[.%X8.q.u.[.XX&X9XXXu.",
">X&X8.XXq.u.u.u.u.@X&X+Xu.w.q.;.q.XX@X4.q.y.u.>X+X8.y.u.{.].  g.s.` d.` d.` d.` ` ` z.c.S.l.` ` j.V.  XXy.u.].%Xu.3.u.:X].'.}.>X>X+X>X>Xy.q.].2XXXXX>Xq.8.XXw.u.",
"u.&Xu.u.;.+X+X].].+X%X+X3.4.8.y.].q.].+X&X}.O.8.y.].].+X+X].  ' h.W ` ( d.` d.d.` ` ` K L ` ` ^ z j * ;.>Xu.8.XX+Xu.].XX_.8.].+X&X<X<X&X+X[.XXu.*.*.u.XXu.u.q.+X",
"].8.8.8.2.:X&X}.y.[.].XXu.].+X&XXX3.3.>X%X%X#X<X<XXX].q.q.q.  1 M ) j.d.s.d.` ` j.d.d.d.d.d.` S .   u.q.XX>XXX].XX+X].u.y.u.].[.[.XX].y.].u.u.3.u.XX].;.8.8.u.:X",
"#X#Xy.[.6.:X%X+X[.u.6.+X].-.3.<X%X#X#X%X&X  o         q.XXXXq.  9 B.L ` ` s.d.` E d.d.d.d.` L I X 8.u.&Xu.4.2.8.-.4.[.-.q.[.XX.Xw.%.t.$XK.u.t.8.r.XX#Xu.y.[.[.:X",
"%X&XXX#X-.%X%XXX[.3.<X&Xy.].+X%X<XXX+X<Xp.  e 4 7 u 9   =.=.XX  r v.d.j._ L ` d.d.d.d.` d.` L S + u.q.u.u.[.].<XXX}.+X[.q.q.w.7.q.#XK.u.=X&Xt.:.4.y.%X%XXX#Xe.%X",
":X[.3.3.|.<X<X:X%X%X3.*.-.y.%XXXu.[.XXXX&X&X    W K j.I   q.XX=.    j.l.B . V.` ^ d.d.d.d.d.` Z X ].y.+X%X].u.+XXX].3.+XXXXX[.XXXXu.q.u.9.;.4.}.%X>X:X6.3.3.<X<X",
"'.*.q.+X%XXX[.u.q.u.@.;.XX+XXXu.].8.q.&X].8.;.  ' W j.]     XXq.    ) l.n   m.H g.` d.d.` d.` m #   >X5X3.w.u.w.u.].q.u.&X+X;.+X&X+X+X].>X>X].*.'.+X'.#.q.+X%XXX",
"+X[.+X%X<X+X}.XX[.>X&X+XXX.X8.*.4.].u.q.3X5Xu.  z.` J N.    XXXX=.4.  V G   & 7 V.d.d.d.d.d.d.K j h       ;.].u.[.XXq.<X&X%X[.].].+X<X<Xy.[.+X1X5X>X+X[.+X%X%X+X",
"8.y.+X[.[.u.].u.].&Xq.8.[.XX[.XX%X5X:X-.+X>X%X  g.L ` l.A f o XX=.XX=.  + d.  = B.` d.d.d.d.d.( E ` Y ) j   &X+X&X%X[.%X[.}.XXq.8.5X}.3.].>X>X[.p.y.8.XX+X[.[.u.",
"&X%XXX%X%Xu.,.8.p.-.*.3.{.&X+X3.[.+X&Xy.q.y.    ' ! ` ` b.h   XXXXXXXXX   N.. & c.` d.d.d.d.d._ M.K j.' h   %Xw.=.3.:XXX1X>X+XXX6.-.*.6.%X].6.y.[.%X&X[.XX%X#Xu.",
"%XXXu.XX%Xu.XX&X%X#X+X].3.y.].+X8.XX>X>XXX  d.g.' s.( ( g.k   =.XX=.XXq.  g.L ` ` d.d.d.d.d.d.d.` ' ` ` d.v.  %.*.u.8X<X&Xq.[.<X>X[.+X%X[.XX+X<X%X%X%Xu.u.XXXXu.",
"<X>X8.3.y.q..XXX+X<X%X&X+X2X&X[.;.4.q.[.XX  g.' ` d.d.` g.b % q.4.XXXXq.  g.d.j.n.d.d.d.d.d.d.` d.d.` ` d.'     3.XX%X%X[.3.q.q.-.q.+X<X+X%X+X%X%X&X<X[.8.3.4.q.",
"4.3.+X3X<X+X+X].w.'.=X3XXX%XXXXXXX].q.XX%X  d.g.` ` d.d.` ` H o q.=.4.    d.d.` j.d.d.d.d.d.d.d.` ` d.j.L s.z.z + >X%Xy.XX%X<XXX[.+XXX].q.XX1X8X%Xu.4.9.+X3X>X+X",
"w.;.u.XX4.w.;.7.+X%X4.].%X&X+X].XX+XXXXX  v.L d.d.d.d.d.d.( v.o   .   y l.` ` d.d.d.d.` d.d.L d.` f.d.( g.l.d._ ) o 4.y.].u.+X+XXX5X[.u.+XXXXXp.XX].w.8.u.XXu.w.",
"[.u.w.8.3X&XJ.J.oXXX>X%X8.].XX>X>X%XXXXX  v.d.d.d.d.d.d.d.d.j.a 0 0 u V l.d.` d.d.d.` ` d.` ` ` W L d.` n , j.~ G.  [.u.%X:X%X+Xy.;.3.q..Xq.3.4.u.XX[.u.w.8.3X&X",
"8.w.&X&X$XXX.XoXoX$X+X+Xq.+X+Xq.%XXX].[.  N.E d.d.d.d.d.d.j.` ` _ ` ` j.` d.s.d.d.d.j.` ` d.s.j.d.` ` ) M   i g z.    6.&X<Xq.q.u.w.XX&X@X&X>X&X%X].8.XX&X&XXXXX",
"t.8.u.u..Xu.u.u.q.8.4.u.XX[.[.y.XX].[.&X  N.E d.` ` d.d.d.d.d.L j.j.d.L ` d.d.d.d.d.d.d.j.j.` ( d.d.L n.k   o 5 b.F.  ].y.u.u.q.8.oXXXJ.J.XX&XJ.].u.t.8.u.u.u.u.",
"u.u.8.u.3.8.8.3.&.8.6.y.%X>X%Xu.8.4.;.q.  N.W d.` d.d.d.d.` d.( ` ` d.` j.` d.` ` d._ d.W ` ` d.W d.` ` s.U   3 c.`   u.y.q.y.w.q.7.8.w.u.w.]..Xu.u.u.u.8.u.8.8.",
"u..X7.8.u..XXX].u.@X].[.[.XX+X%X>X+X].8.  B.W d.` d.d.d.d.` ` j.` d.` ` d.` d.d.` ` j.L W.d.R L ` d.d.d.` H e B g.z.  y.XX+X+X+X.Xw.w.0.3.q..X9.3.8.u.8.7.8.]..X",
"q.w.XX&X+X.X+XXX.Xq.].XXq.3.8.+Xu.w.w..X  N.s.d.` d.` d.d.d.d.d.d.d.d.d.` d.d.d.d._ ` R ).[ j.W d.( d.` ` d.l.l.j.g.  q.u.].3.8.u.=.8..X.Xw.8.>XXXu.q.].XX&X+X.X",
";.;.u.].7.*.;.3.3.3.u.].].u.].[.&X+X.XXX  ] K d.d.j.` ` L d.d.d.d.d.d.d.d.d.` ` d.s.j.D (. .U.W d.` d.` ` d._ s.` g.  +X%X&XXX.XXXoXoXXXXXXX&X].].q.;.8.u.].3.*.",
"+X.X>X+X;X.X].].].+Xq.u.]..XXXu.q.7.7..X  H.` ` ` j.s.` j.d.d.d.d.d.d.d.d.d.` d.d.d.` A /.T.!.W d.` d.` d.d.d.d.d.g.  XX+X%X%X.Xq.9.9.XX-X&XXX@X>X2X+X+X>X+X+X.X",
"%Xu.8.u.u.+X&X@Xw.w.y.q.*.4.XX%X].;.@.4.8.  j.d.d.` d.j.` d.d.d.d.d.d.d.d.` d.d.` ! ] ' /.U.Y.W d.` d.` ` d.` d.` g.  3.7.9.w..XXX[.u.K.&XXXXXXX&X-X%X7.8.u.].+X",
"u.8.w.u.7.3.=.;.q.u.2.8.y.8.8.;.3.XX&X].[.  m.g.` g.` ` W d.d.d.d.d.d.` d.` d.d.L U I.^.U.T.^.W d.` ` ` d.d.d.d.` g.  w..XXXXX.Xu.u.w.3.>.w.u.3.8.u.u.8.w.u.7.3.",
"8.&X>Xu. XJ.q.u.>X>X7.q.].].].+X@X+X&X@Xu.# c x ` _ d.` d.d.d.d.d.d.d.` ` ` d.` _ g.} U.T.U.P.W ` ` d.` d.d.` d.s.g.  @XXX]..X+XXXw..XoX=.7.].u.3.*.8.7X>Xu..XJ.",
"@Xq.7.q.J.@X.X&X5X&X>X&X&X&X&X&X@X.X].XXw.q.    g A a.L d.d.d.` d.d.` ( d.` j.d.E !.T.U.^.' J d.d.` d.d.d.d.j.` d.g.  XXu.8.3.7.3.q.XX@X=.;.9.q.XX&X@X3.7.q.@X@X",
"XXq.w.XX+X+X+X.Xu.8.=.;.u.].w.XX8..X].w.XX.XXX+X. f.C.W ` d.d.d.d.d.` ~ R k.W ` W !.U.U.^.' W d.d.d.d.d.d.d.s.` ` l.  4.3.;.u.XXu.+X+XXX>X%X+X].+X@XXX0.w.XX&X+X",
"*.3.].+X%XXX].8.=.1.w.u..Xw.3..X.X7.7.7.;.7.3.7.  s i ( d.d.d.d.d.d.` x.[ H ` ( W !.U.U.^.' W d.d.d.d.d.d.d.d.j.d.g.  %XXX].%X&X+X*.*.6.].q.].3.<.*.*.`.].+X+XXX",
"XXXX&X3X$X8.u.+X+X@.y.].>XXXw.7.'.8.y.XX[.XXy.[.:X    v.( ` d.d.d.d.L P.R.L _ z.I.T.U.U.^.g.W d.d.d.d.d.d.d.` L v.  XXXX$X#Xt.XXXXXX$X&X[.[.[.XX&X&XXXXX&X3Xu.8.",
"u.].].3X$X&X+X].q.4.y.q.q.8.3.J.`.q.].w.u.XXq.u.].].  l.d.` d.d.d.d.L I.U.! R c.(.T.U.U.^.' J ` d.d.d.d.d.d.d.G x.o 8.8.q.u.8.8.*.9.8.9.3.;.7.+Xu.8.u.q.].3X&X&X",
"XX].w.XXXX3.*.*.3.[.>X&XXX].u.w.q.0.w.u.]..X+X@X&XJ.  m._ d.d.d.d.d.L I.~.} } | T.U.U.U.^.` W ` ` d.d.d.d.d.j.E B.  8.].>X>X{.+X>X&X@XXX7.7.8.7.4.].XX8.w.XXu.3.",
"q.u.q.;.%.u.].].].8X%X%X&X&X+X7.q.<.3.q.J.].w.w.w.7.  l.d.` d.s.d.s.` L z.T.U.U.U.T.U.T.R.U.U.W ` d.` d.` d.z.p   8.u.0.q.q.7.q.].q.7.3.=.3.w.8.8.8.q.].q.;.;.u.",
"3.8.u.q.w.+X>X:X+Xy.XX+XXX+X+X;.0.=.*.w.+X>X@X].w.+X. b.` ` j.( ` L g.J g.T.U.T.E.U.U.T.E.~./.K ' ` ` d.L j.S.p   8.%X>X+X`.].].5.+X].].q.w..X+X+X].3.q.u.q.u.+X",
"].].w.].;.].{.+X}.'.y.u.*.%.7..X+X}.>X:X+Xy.;.q.XX8.7.  G.n.d.d.f.d.` J g.T.U.T.T.U.T.T.U.Y.T.R ` E j.d.` '     u.].].+X&X&Xu.q.u.6.'.'._.8.q.].3.3.].].w.].4.].",
"q.*.3.q.y.y.y.y.[.3.%X}.4.6.].[.3.4.q.u.y.q.+Xu.3.+X&X# Y V L W ( d.j.W g.T.U.U.T.T.U.U.T.T.T.` d.s.s.d.L j.  3.4.].y.-.4.}.:XXX[.6.3.2.[.>X:X+X+X.Xq.*.3.q.y.y.",
"y.q.+X&X%XXX+X+X%X&X'.].>X<X>X+X+XXX].q.q.q.>X+X].].q.8.  > V v F g.` J g.T.U.U.T.T.U.X.T.U.U.U.` W d.( K S o %XXXXX+X[.+X%X%X[.6.q.u.+X5X1X&X+X+X+Xy.[.+X&X%XXX",
"].].]..X+Xq.]..X8.8.>X.X].w.7.OX[.+X+X>X>X%Xq..X+X.X].+X  o   o u z.` W g.T.U.U.T.Y.U.U.E.U.U.I.W W ` g.x   w.8.].u.7.q.]..Xq.7.3.y.[.+X+X[.+X].].].].].]..Xu.q.",
"XX].q.+XXX7.u.+X].].>X].+X+Xq.q.>X+XXX].XX+X*.3.8.].XX+X+X  w   e b.d.W g.T.U.U.T.U.R.X.T.Y.U. .j.L j.d.x   u.u.XX.Xu.w.8.3.XX&X.X6.].}.:X+X}.-.*.3.XX3.q.+Xq.7.",
"+X[.y.&X5X[.@X&X>X3X3X%X>X>X+X].XX+X}.].].+X+X.X].].q.3.*.  t & k v.' W ' D.U.Q.Q.Y.E.U.R.U...| d.Q ` z.M   ].XX].u.[.q.].+X+X+X&Xq.y.y.[.[.u.7.3.q.+Xq.y.&X%X[.",
"*.6.+Xq.y.>X%X+X+X%X%X:X].'.].2.].+X>Xq.3.q.].].+X3X>X.X<.%.  C.l.d._ ` Q E ~.X...U.T.U.R.U.o.R.m._ ` ~ z     y.y.[.|.XX4.@.XX:Xy.*.-.q.y.y.q.+X+X8.*.>X+Xq.XX>X",
"8.].<X,X%Xy.].XX].%.-.u.[.u.u.XXq.&X<X[.+XXX*.3.u.+XXX+Xp.XX  j.L ( j.` k.W z.{ ~.T.U.U.U.X.T.] d._ d.l.F N   y.].%X4X>X].4.+X>X+X4.3.;.q.+X+X3.4.4.8.%X<X,X&Xy.",
"*.*.'.[.XX3.3.u.XX+Xq.[.XXu.].XX].4.8.8.%.2..Xu.y.y.XX+X2X<X3X  x ] ' d.( L Q g.A.A.A.A.S.A.A.Q _ ( ' j.I     [.%X>X%Xq.q.q.3.3.8.XX].8.].+X+X&XXXq.*.4.'.[.[.3.",
"XX+X&X>XXXXX%X>X[.;.-.8.XX+X+X+XXX>X3X>X+XXX+Xu.;.;.8.q.;.3.;.    j.F d./ W d.W R W R J R J J W d.W F ` g   %X+X[.XX[.+X].].%X:X&XXX@X&X>X>X;X].XX+XXX&X&X>X>XXX",
"+X.Xw.u.*.+X<X@Xq.3.4.q.+X&X&Xu.].3.3.].;.q.XXXX[.XX].u.*.8..Xu.;.    z j.! W L L W W _ L s.! E ( m.@ +     XX4X<X3X%Xq.].XX&X>X+XXX+X+XXX+X+X>X&X>X+Xu.w.u.u.+X",
"8.8.XX>X5X+X[.8.*.XX+X].].[.[.].[.u.u.%X[.XX+X+X@X+XXX+Xq.+X+X}.].@X  y G.B.b.B.B.b.b.b.b.b.b.v.C.V.  ;.8.7.q.]..X[.].q.3.3.].+X&Xu.u.].q.5.q.+X[.q.8.q.XX>X4X+X",
"u.y.u.].[.XX&X>X[.XX8.3.u.+X+X4X;.].[.].&X[.u.u.u.u.q.q.].u.w.3.*.q.].    o o o o o o o o o o o o   .X].&X+XXXq.8.].XX].q.;.}.3X>Xu.XX+Xu.3.0.*XXX'.u.q.u.].+XXX",
"$X&Xu.u.u.u.u.u.XXXXy.[.<X[.2.:X&XK.u.u.u.u.<X[.8.3.#.-.u.+Xq.+.y.+X+Xq.4.8.4.6.3.-.].}.[.2.-.%.4.y.u.[.>X[.].8.8.y.+Xy.y.[.].;.*.u.%X3X+X+XXXu.y.u.$XXXu.u.u.u.",
"+X&XJ.].XX&X3X3X@Xu.8.y.+XXX].+Xy.XXXX8.[.>Xu.u.%X&X+X{.+X.X].+X].q.+X+X].].].u.].+X+XXX[.&X%X+X%X+X+X[.+Xu.[.+XXX[.+Xy.[.XXq.8.q.q.8.q.].XXy.3.;.8.+X+XJ.].#X&X",
"XX@Xu.].XX&XXX].].].&X4X[.y.q.2.3.+X5X].XX+X+X+XXX'.+X&X4.3.;.u.3.*.].+X>XXX3.].>X&Xy.3.3.y.y.%X4X5X<XXX4.3.3.q.q.q.3.4.XX<XXX+XXX[.XX+X3X4X&X&.;.q.XXu.u.].XX&X",
"+X].u.].u.XXXX%X@X[.XXu.XX+X+X5X+X}.].q.4.].q.3.q.y.3.3.3.+X+Xw.+X+Xq.q.8.q.q.q.w.8.&X+XXXXX[.XX&X<X3X<X%X&X%XXX+XXX>X%X[.[.XX].u.].%X<Xy.q.XX>X2X&X+Xq.u.]..XXX",
"].8.q.u.+X+X&X>X#Xr.u.;.8.].u.*.3.+X>X%X>X&X>X].].].7.8.3.q.8.3.q.q..X.X+XXXw.u.+Xu.&X@X[.[.].u.&X>X>X+X8.8.].[.y.8.%X>X[.].+Xu.q.%XXXu.3.3.q.+X+XXX].4.q.u.XX+X"
};
