/* XPM */
static char *_418fac23364410681b676c1b88ce205DWKdEHDM8iruqBfK[] = {
/* columns rows colors chars-per-pixel */
"80 80 213 2 ",
"   c #030101",
".  c #0A0201",
"X  c #090C03",
"o  c #01020A",
"O  c #130300",
"+  c #1C0A03",
"@  c #16130C",
"#  c #070914",
"$  c #0C1115",
"%  c #1C141F",
"&  c #270309",
"*  c #271715",
"=  c #301A1D",
"-  c #3D291E",
";  c #3C2F36",
":  c #421D0A",
">  c #431D14",
",  c #5E280E",
"<  c #4E2B18",
"1  c #4C301B",
"2  c #5D331D",
"3  c #69310C",
"4  c #6A361B",
"5  c #45282D",
"6  c #522C23",
"7  c #712F21",
"8  c #683A28",
"9  c #7A4117",
"0  c #754A31",
"q  c #863E0C",
"w  c #823F15",
"e  c #864117",
"r  c #944C16",
"t  c #AF551C",
"y  c #854326",
"u  c #8E4C2C",
"i  c #924821",
"p  c #9E4D26",
"a  c #9C4B2A",
"s  c #93532D",
"d  c #995229",
"f  c #A54A2B",
"g  c #A85429",
"h  c #B6552B",
"j  c #BC5D2D",
"k  c #AA5530",
"l  c #A35F32",
"z  c #B65D32",
"x  c #BA5D34",
"c  c #B8593B",
"v  c #A8623E",
"b  c #C45A30",
"n  c #C36527",
"m  c #D0652D",
"M  c #C66538",
"N  c #D96935",
"B  c #D87535",
"V  c #EC7429",
"C  c #F6782E",
"Z  c #F76F35",
"A  c #FE6E3B",
"S  c #E57839",
"D  c #EB7B39",
"F  c #F47433",
"G  c #FB7636",
"H  c #F37C34",
"J  c #FA7B36",
"K  c #F6733F",
"L  c #FC733C",
"P  c #F47D3B",
"I  c #FC7D3C",
"U  c #917A55",
"Y  c #BF6A43",
"T  c #CA6748",
"R  c #D76A43",
"E  c #FF6247",
"W  c #E47C40",
"Q  c #EC7E46",
"!  c #E87A4B",
"~  c #FD7442",
"^  c #F57E44",
"/  c #FD7D43",
"(  c #F47848",
")  c #FD7D4A",
"_  c #FF7B57",
"`  c #F48434",
"'  c #FD8336",
"]  c #FF8832",
"[  c #F5833C",
"{  c #FD833E",
"}  c #FC8A3D",
"|  c #F7973D",
" . c #F5A63B",
".. c #F8BD3D",
"X. c #F9C83C",
"o. c #FDD63D",
"O. c #FCDB3C",
"+. c #FCE53B",
"@. c #FCE43E",
"#. c #9A855C",
"$. c #9C8664",
"%. c #9D8C6A",
"&. c #A48664",
"*. c #A48C64",
"=. c #AC8E64",
"-. c #A48D6C",
";. c #AC8E6C",
":. c #A4926C",
">. c #AC936C",
",. c #AC9A6C",
"<. c #B4966C",
"1. c #B49A6C",
"2. c #AC8E74",
"3. c #B48E74",
"4. c #A49374",
"5. c #AC9574",
"6. c #AC9B74",
"7. c #AC967C",
"8. c #AC9C7C",
"9. c #B49574",
"0. c #B49B74",
"q. c #BC9C74",
"w. c #B4967C",
"e. c #B49D7C",
"r. c #BC9D7C",
"t. c #ACA27C",
"y. c #B4A274",
"u. c #BCA374",
"i. c #B4A27C",
"p. c #BCA37C",
"a. c #B4AA7C",
"s. c #BCAA7C",
"d. c #ED8141",
"f. c #F58243",
"g. c #FE8341",
"h. c #FE8A44",
"j. c #F7824B",
"k. c #FE844A",
"l. c #F68E48",
"z. c #FE8C4A",
"x. c #FE9344",
"c. c #F79E44",
"v. c #FF9B44",
"b. c #FD934C",
"n. c #FE9B4C",
"m. c #FE8551",
"M. c #FE8A53",
"N. c #FF9253",
"B. c #FF9A54",
"V. c #F9965D",
"C. c #FE9B5C",
"Z. c #FAA243",
"A. c #FCAF41",
"S. c #FDA349",
"D. c #FCB446",
"F. c #FCBD43",
"G. c #FDBD4A",
"H. c #FBA756",
"J. c #FDAB50",
"K. c #FFA45F",
"L. c #FFBE53",
"P. c #C4A47C",
"I. c #C4AA7C",
"U. c #FEA464",
"Y. c #FDC445",
"T. c #FBC749",
"R. c #F7D646",
"E. c #FED543",
"W. c #FEDA44",
"Q. c #FFD54B",
"!. c #FDDA4B",
"~. c #FFE041",
"^. c #FBE14A",
"/. c #FEE854",
"(. c #B49E84",
"). c #BC9E84",
"_. c #B4A484",
"`. c #BCA584",
"'. c #B4AA84",
"]. c #BCAA84",
"[. c #BCA68C",
"{. c #BCAC8C",
"}. c #BCB288",
"|. c #C49E84",
" X c #C4A684",
".X c #C4AB84",
"XX c #CCAC84",
"oX c #C4A68C",
"OX c #C4AD8C",
"+X c #CCAE8C",
"@X c #C4B284",
"#X c #CCB284",
"$X c #C4B28C",
"%X c #CCB38C",
"&X c #C4BA8C",
"*X c #CCBA8C",
"=X c #D4B58C",
"-X c #D4BA8C",
";X c #C4AE94",
":X c #CCAE94",
">X c #C4B494",
",X c #CCB594",
"<X c #C4BA94",
"1X c #CCBB94",
"2X c #CCB69C",
"3X c #CCBC9C",
"4X c #D4B694",
"5X c #D4BB94",
"6X c #D4BC9C",
"7X c #DCBE9C",
"8X c #CCC29C",
"9X c #D4C29C",
"0X c #D8C398",
/* pixels */
"5.r.`.r.5.>.5.>.`..X`.i.p.].e.>.6.i.].].`.i.$X1X`.`.{.>X{.e._.OXi.p.i.6.>.5.0.`.$X.X>.*.i.s.i..Xe.6.i..Xp.5.>.r.<.q.p.XX%X%XI.p.I.%X#X Xp.p.I.p..XP.p..X=X%X%X.X",
"r.e.0.e.p.p.e.;.5.0.5.>.e..X.X`.].i.6.`.,X5XOXi.i.e.`.OXOXp.`.o   .XOX+XOXOXOX%X%X1X%X.X.X`.p.].`.i.p.`.p.e.0.`.XX.XP.p.P..X%X1XP.`.p.u.0.0.p.p. Xp.p.p.p.e.0.0.",
"p.`.p.9.9.p.OX%XOX%XOX.X.X$X%XOX$X%X>X$X$X$X{..X`.`.`..X`.e.0.  M ; r.6.0.p..X%Xe.e.`.{.p.e.`.e.p.i.e.p.i.r.e.9.9.0.r. Xp.r.`.p. Xp.p.p.p.p.0.p.5.0.0.0.5.=.>.0.",
"e.p. Xe.0.`.%X5X`.+X%XOX`.`.r.0.0.`.%Xp.-.$.*.e.`.p.p.p.`.p.e.  H.  .X+X%X+X`.e.:Xe.e. X`.,X,X Xi..XOX.XOXOX Xr.r.r.w.9.5.e. X,Xq.5.0.p. X0.9.0.p.`. X.X`.p.`.+X",
"r.e.0.p.OX%XOXr.-.9.e.r.r.p.p.e.$X%X$XOX.Xp.`.p.i.e.e..XOX%X,X  U.. -.-.5.p.OX%XOXe.w.e.e.`.`.7.6.`.OX Xp. X`.r.r.r.r.0.9.e.`.OX.Xp.p. X.X`.p. Xp.p.`.`.`.e.0.0.",
" X Xe.9.0.r.p.e.P.`. X`.P.`.+X,X.X.X.XOX%X,X.Xp.+X.X.X.X.X.X`.P.o   +X=X4X4X%XOX9.5.6.e.>.-.5.;.e.p.`.0.5.0.p.p.;.0. XOX Xr.0.>.,X.Xp.e.r.`..X%XOXOX XOX.X Xr.e.",
"OXOX X9.-.5.`.+X+X X Xr.r.r.p. X.X$X,X,X%X$X%X,X%X%X+X.Xp.r.0.0.,XXX`.0.w.r. X X.X+X+X+X%X+X.X%XOX$X%XOX.X X.XoXXXXX.XI..X.X%X%X`.`.e.>.>.0.p.`.9.5.-.>.5.5.>.5.",
".X X`.p..X+X.Xp.e.q.e.r.r.P.`. X X`.0.5.9.e.e.p.p.P..XP. X.XXX%X+X.X X Xp.P.p. XXX.Xp.q.%X%Xp. X.XOX$X,X$X Xe.9.q.q..X+X=X%X.XI.+X,X4XOX XOX,XOX:XOX X`.`.`.oXOX",
">.>.9.`.OX%XOXp.p.q.0.1.>.>.>.>.>.>.5.0.`..X+XOX0.5.;.-.-.9.0.q.>.e.p.r.5.>.5.0.`.p.r.e.0.9.0.r.5.9.q.r.r. X.X+X].p.I.$X%X.X.X%X.X%X=X$Xp.9.0.p.p.`.OX%X+Xr.0.r.",
" X`.p.`..XOX.Xp.OX.X X`.p.`..X.X.X.X`..XOX+X$X.X`..XOX%X%XXX Xr.`. X Xp.p. X+X%X`.p.p.r.0.;.$.$.;.9.e.r.r.e.9.>..Xp.0.r.]..X.X.X0.0.9.r..X%X%X%XOXOX+XOX.X+XOX+X",
"`.r.0.0.r.p.`. X-.-.;.>.w.p.OX+X>X$XOX.X.X`.p.`.:.5.0.r.OX+X+X+Xq.p.p..X.X.X`.p.r.e.`.OX%X%X.X Xr. X.X+X.X Xp.r.p.r.5.>.<.r.p.p.5.0.p.p.0.0.r.p.9.9.5.;.>.e. Xp.",
" Xp.`.r.`. XOX+X4X,X,X:X,X,X2X4X4X,X4X%XOX.X.X.X1X%X].p.e.e.r.r.e.`..X+X%X+X Xp.p.9.5.0.`.p.e.0.+X.X`. X XOX.X Xr. XXX0.;.9.`.+Xp.5.-.0.%X7X,Xp.|. XP.e.p.,X1X,X",
",X%X,XOX.X`.p.p.e.).e.).p.).r.(.`..XOX.X.X`.OXOX.XOXOX%X%X%X+X.Xp.p.`.p.p..X%X5X6X4X%X    o     .Xp.0.5.5.9.5.>.e..X+Xr.;.>.q.0.e..X%X+Xe.5.9.e.P.+X+X X%X6X6X%X",
"%X,X%X%X Xr.w.0.5.9.e.e.p.`.`.p.0.0.i.`.p.`..XOX9X6X1X,X$X`.6.>.r.r.p.e.q.e.p..X X X  u p u e o ,X%XOX+X,X,X%XOX X X`.r.r.r.9.5.9.>.5.e. X.X`.e.0.r.p.e.r.p.p.0.",
".XOX%XOX X`..XOX%X%X%X%XOX Xp.r.OXOX+X%X,X,X,X5X1X1X$X$X%X,X4X,X.X+X%X4X%X.X Xp.OX    m h.b.`   6.5.>.e.p..Xp.e.OXOX.X;X,X$XOXOX`.OX+X.Xe.w.r..XOX%XOXOX Xp.e.0.",
"5.9.0.0.0.0.`.+X`.P..X.XXX.X#X%X,X5X,X1X5X5X5X5X1X,X$X%X,X%X,X,X4X%XOX%X%X,X%XXX  q U.g.N.^ o +X$X.X`. X$X%XOXp.-.-.8.`.`.e.`.,X5.2.-.-.5.).`.OX$XOX.X`.0.;.;.3.",
"i.].>X>X$X}.%X8X%Xs.p.p.p.p.p.P.e.p.OXOX`.e.5.5.p.p.`.0.>.>.0.p.s.].I.p.r.9.2.  v J { I & . #X.X.X#X@Xp.u..X.XI..X#X%X#X].].].'..X%X%X.X.X.X%X5X#Xp.0.p.OXOX0.%.",
"$X$X%X1X1X6X6X6X0X5X%X`.r.q. X%XOXOX.X`.`.`..XOXe.p..X.X.X]..X]..X].`.i.e.r.).  k I } P . . .Xs.0.i.P.p.$X-X%X].s..X%X%X,X1X1X9X.Xp.p.$X5X%X.Xp.u..X.XOXOXOX%X0X",
"e.p.`.p.`.p.p.i.5.5.5.5.5.5.9.e.`.p.8.;.$.#.$.$.`.p.8.5.5.0.p.`.]..X.X%X+X+X X  x [ g.D : * 0.0.0.e.p.e.0.0.-.#.q.0.q.0.5.>.9.e.OXp.0.p.`.e.`.5X#X%X%XOX`.e.6.6.",
"OX+X%X+XP.e.r.p.oX`. XOX+XOXr.5.0.r.`.`..XOX`.e.5.9.e.`.`.e.-.$.0.e.`.+X+Xp.r.o z ^ g.j./ S % 0.`.,X,XOX[.OX,X,X%X+X.Xr.9.9.0.e.9.6.`..X`.0.r..X.Xp.5.-.-.5.i.].",
"r.r.r.0.9.;.-.;.e.e.e.e.).).).e.5.6.o     %X.X`.OXp.9.e.`.OX+X,Xi.r.p..XOX X  C.} { } g.n.b.$ p.w.e.e.w.9.e.`.OXe.9.5.;.;.5.r. X0.0.0.e.p.`.e.>.*.>.p.`.`.`.>X9X",
"+X`.r.p.OXOXP.0.-.r.+XOXp.e.`.OX%XOX  > 8 OX{.p.5.5.e.+X6X,XOX`.`.p.`..XOXp.  B.J g.g.P h p   $X,XOX).e.`.`.7.-.OX`.`.r.e.r. X%XOXOX`.5.0.e.p.e.r.p.OX,X>XOX`.i.",
" X`.p. XOX+XOX`.9..X%X X0.>.:.>.i.e.  T h.  OX`.`.5.5.e.e.e.r.`.5.2.5.`.p.9.  B.H / k.I   o 1X5XOX`.p.`.`.`.p.e.OX;XOX`.p.e.r.r.e.`.%X,XOXe.e.e.%Xp.>.-.(.OXOX{.",
">.e..X`.0.9.i.I.|.q.>.>.0..X.X.X`.oX  t z.  p.5.oXe.(.OXOX`.e.e.r.5.9.p.#   ~ I h.[ M.g.O   p.`.OX%X%XOXp.e.p..X8._._.`.(.0.e.0.`.5.5.`.`.`.r.`.>.6.`.[.OX{.`._.",
"OXp.5.e.OX%XOX`.p.e.0.6.e.p.>X6XOXOXOX0 4   `.`..X`.p.].{.].{.$X$X].OX  w M x.[ ) t 1 N O   .Xi.:.6.{.%X>X.X].].8.5.4.e.].,X>XOXOXOX Xe.-.-.5.e.i.i.i.i.i.].i.5.",
",XOX`.p.`.e.0.5.i.e.5.;.-.-.e..X.Xe.>.-.$.$.-.5.`..X$X,X5X1X1X<Xp.5.  s K f.g.] g.8   4 O .XOXOX].OX$X,X$X].8.:.e.p.OX1X6X3X%X].OXOXOXi.e.].OX%X$X$X.XOXOX$X$X%X",
"-.5.e.`.i.`..XOX X`.p.e.0.e..X3XOXe.-.-.6.`..X$Xe.p.e.e._.$X$X].`.o   z.' ` ' g.g.4 o   U e.0.0..X%X5X%X`.>.*.-.4.e.].OX].`.i.e.OX.X`.e.`.OXOX]..Xr.0.e.0.5.9.e.",
"e. XOXOX X`.OX%X6X,X$XOX`.i.`.OX,XOXi.`..XOX].oX.XOX.Xp.OX1X,X].  N _ g.{ ) h.g.I 4   X `.p.0.9.e.`. X`.e.9.5.>.o o OX$XOX].OX$X`.`.`.`.`.`.`. XOXp.e.`. X0.5.0.",
"-.5.0.i.`..XOX,XOXOX.XOX%X:XOX%XOX`..XOXOXOX`.`.p.{..X].OX4X.X  b / [ h.{ ' g./ g.<   r 5  X`.p.r.0.5.p..X%X Xo   !   ,X>XOX{.`.:.-.5..X`.5.e.OX.Xe.9.p.OX`.p.`.",
"OX X`.`.`.e.5.;.-.$.$.5.p.`.`.`.p.i.`.OX$X%X,X6X1X,XOX X.X%X,Xo | / k.{ g.{ { { { y = W     `.].e.& O . + +   $ - ^ . `.].].p._.9.5.e.OX].e.i.%X6X$X].+X%X,X,X5X",
"`..XOX,X5X6X,XOX%XOX`.OXOXOX.X`.OXOX`.`.`.`.`..X$X.Xe.5.5.0.    k.f.' g.g.f.' g.k.J S J O o `.# 6 H { I / I   i.>.o o OXOX>X,X1X3X,XOXOX%X,X,X,X].].`.i.i.p.i.`.",
"`.`.OX,X5X,X Xe.2.*.-.5.e.`. XOXOXOX].OXOXOXOX,XOXOX%X,X%X  d b.) k.k.h.g.{ g.{ I Q g./ h.P O W x.g.I g.3   i.-.-.:.e.i.i.i.e.e.OXOX0.-.8.,XOXe.i..X,X$XOXOX$X$X",
"-.5.p..XOX.XOXOXs..X.XI..X@X%X%Xp. X X Xr.0.9.>.-.>.6.e.p.  g n./ ' ' ' f.g.f.h.' k.k.I h.I 2 ( ' / l.N   ,XOXOX6.5.>.5.e.OXOX`.5.6.6.0.`.$X1X<X$X%Xi.`..X`.i.*.",
" Xp.i.r.i..XOX%X4X1X5X%X%X%X].p.0.5.>.>.r.`.`.p..X$X,X5X,X  p h.k.[ g.{ } { g.{ g.{ { g.{ g.v.g.k.H K.  5.5.0.`..X`.0.5.`.OXOXOX%X.Xe.-.-.6._.]..X].5.5.p..X1XOX",
"OXp.>.-.>.0.e.i.>.5.>.5.e..X.X.X+X.Xr.e.e.r.0.e.].OX%X.X].  p h.{ g.{ { g.g.g.g.g.g.g.g.g.{ g.g.' T   .X$X>X%X>X.X+X%X,X,X,X:X`.`..XOX.XOX%X%X,X.X,X.X$X,X].`.>.",
"6X$X X`.].OX.X`.+X%X,X%X,X5X5X1XOX,X,XOXp.0.e.p.p.p.`.p.e.  p z.{ g.{ { g.g.g.g.g.g.g.g.g.g.g.g.f.M   `.OXOX`.e.>.6.p..XOX`.e.5.-.0. X+X.Xe.;.$.OX$Xp.`.i.0.`.p.",
".X.X]..X.X`.p.e.-.0. Xp.e.>.-.-..XOX+X.Xe.5.0.i.`.p.`.i.i.  p z.{ g.{ { g.g.g.g.g.g.g.{ g.g.{ h.n 0   OX%X,XOXOX.XOXOXOX.XOXOX,X,X%X,XOX Xp.r.p.-.p.OX1X+Xe.0.5.",
"OXOX+XOXOX.XOX.Xe.OXOX{.p.`.+X,X%X`.0.6.e.p.p.i.`.  . .Xi.  p z.{ g.{ { g.g.g.g.g.g.g.{ g.g.{ z.i   5.5.`.OX%XOXp.p.`.p.e.7.e.OXOX].e.0.0.e..X,X6X5XOX].0.-.i..X",
"p.p.p.p.p.e.e.0.`.p.r.5.$.-.e.`.p.6.>.0.OX1X5X,X  L   .Xi.  p z.{ g.{ { g.g.g.g.g.g.g.{ { g.{ z.g   >.5.{.5X,X].p..XOXOXp.5.w.`.&X.X_.p.i.e.p.`.].OX.X%X,X].OX.X",
".X].OXOXOX.X`.r.`.OX,XOXOXOX.XOXOXOXOX{.OXOX].  n z.  .Xi.  g v.g.{ / / g.g.g.g.g.g.g.{ { g.{ z.g   ,XOX.XOXOX`.`. X`.e.-.$.5.oX<X$X].{.OX].p.]..X].0.].OX]..X`.",
"1X].0.6.5.%.:._.p.OXe.$.&.i.OXOX_.e.6.0.e.6.o O k.x.  %.i.  a D ) g.h.{ g.g.g.g.g.g.g.{ { g.{ z.f   ].%X`.>.-.>.p.$X5X%XOXOX.X.Xp.i.p.#X%X.Xp.p.p.p.p.p.p..XOX.X",
"p.p.$X,X%XOX[.`.OX X`.OXOX`.e.OX+XOX`.`.`.`.  O P }   6.i..X  . M.f.' f.g.g.g.g.g.g.g.{ { g.{ h.k   .X`.e.0.e.`.e.0.e.e.`..Xi.5.5.>.0.OX%XOXP.`..X@X%X5X5X+X`.p.",
"OXOX.X`._.OX%X,X6.5.>.p.`.5.-.`.`.OX,X.X6.  / } g.b.  p.6X.X    N.g.g.} g.g.g.g.g.{ g.g.g.g.{ h.k.N . $X.XOX.Xp.]..XOX$X5X5X%X`.=.>.e..X+Xp.p.`..X.X%X.X`.`.p.`.",
"%X,X4X,X%X,XOXOX X$X,XOX,X5X5X5X6X,XOXOX,X  m.M.[ h.9   i..X6X  z [ } / g.g.g.g.g.g.g.g.g.g.{ } { R   1X,X%X`.r.5.`.%X%XOX`.]..XOXOX%X1X%XOX.XOX Xp.i.0.0.0. XOX",
"e.5.e.`.i.5.5.0.5.OXOXr.`.OXOXe.e.e.0.e.0.  ) M.g.{ k.c   6X.Xi.  P h.h.g.g.g.g.g.g.g.g.g.g.g.} [ M o .X.X`.p.p.`.$X1X%Xi.e..X1X,X4X%XOX`.e.p.`.p. X.X.X$X+X.X].",
",X`.`..X`.9.0..X5.e.0.5.e.e.e. Xp. XOX.X`.  Q g.' } f.L z.  i.6Xo ^ } g.{ g.g.g.g.{ g.g.g.g.{ { g.( z.  OXp.e.p.$X.Xp.e.5.5.e..XOXOX.X`.0.6.e.p.OX.XOX%X,X@X.Xy.",
"w.w.`.OX.Xe.>.>.`.e.:.5.0.5.e.,X6Xe.-.;.OX  j.g.k.g.) h.x.d   6Xo P } k.{ g.{ { g.g.{ g.g.g.{ I j.{ b.g   p.e.9.,XOXOX%X$X.XOX$Xp.`.OX.X`. X`.`.OXOX`.p.p.P.p.I.",
"9.w.9.;.5.p.+X%X.X,X,XOX,XOX XOX.XOX Xr.  g.k.g.g.' g.' g.[ l     I z.' g.{ g.g.{ g.{ { { g.{ g.' f.} ` z   6.0.$.:.p.$XOXp.0.e.$.-.5.e.e.e.5.5.p.p. X`.p..X.X%X",
"i.i.].>X,X$X$X$X.X0.p..Xi.p.$XOXu.].$X1X  z.P { g.} g.{ ) ` z.B.V.g.{ g.g.g.g.{ { h.g.h.g.g.{ g.g.} / [ h.h.  ,X%X.X`.`.p.p.`.OX.XOX%XOXp.e.9.9.].e.0.e.p.r.5.;.",
".Xe.:.5.p.].OX].p.0..Xs.0.0.].`.s.i.0.OX  } { g.g.h.{ h./ { ( P d.[ { g.{ g.{ g.h.I I / f.{ g.g.I / / / { f.B   `.p.`..XOX`. XOXi.p..Xp.e.9.>.<.].p.e.0.9.0.r.P.",
"`.i.].OXOX].OXOXP..X%XXX0.r. X Xp..X,X$X  N.{ / g./ } g.] g.} [ { ' g.' } g./ g.P b.L.| / g.{ g.g.g.' I { { ~   p.e.r.0.9.>.:.>.]..XOX.X.Xp. X`.0.p.e.-.*.5.r.p.",
"-.e..X$X].p.i.p.P.P. X X0.9.e.r..X].].OX* V k.} g.g.g.g.g.g.g.g.g.g.g.g.[ } ) I } Y.^.x.{ g.[ g.g.{ { g.g.{ [     .X`.p.e.`..X,X]..X.X.Xp.p.r.r..X,X%Xp.r.`.+XOX",
",X.X`..X%X1X1X,X+X Xp..X X9.9.).y.`.`.`.(.. Q g.g.g.g.g.g.g.{ g.g.g.g.g.g.' g.J G.W.O.z.g.{ { g.g.{ g.I { g.) F S o p.0.>.5.p.OX%X%X$X.X`.p.e.q.r.`. X9.5.p. Xp.",
".X`.0.5.0.`. Xp.p.e.9.9.e.2.&.;.i.+X6XOX2.  ) m.g.g.g.g.g.g.g.g.g.g.g.g.g.g.I ~ F.!.o.k./ ` / } g.{ g.( 7   j k.)   ,X`.i.p..X.X]..X$XOX+X.X.X.X X.XP.e.`.%X,X$X",
"i.`. Xp.i.p.i.e..X5X%XOX,X,XOX,X%XOX`.`.OXo / k.g.g.g.g.g.g.g.g.g.g.g.g.f.{ g.K G.R.E.| g.g.{ g.{ { g.) y @ N m./ X e.e.r.`.OX%Xe.0.p.p.p. Xp.p.r.e.e.r.p.`..X].",
" Xe.>.>.0.`.9.&.$..X].5._.,X>XOXOXOXoXe.2.  [ k.g.g.g.g.{ g.{ g.g.g.g.g.h.{ g.Z F.o.!.@.x.~ } I g.g.{ { b.v.h.f.} n.  .Xp.`..XOX.X]..X.X`.r.0.>.r.|..X,X4X%X]..X",
"r.%XOX;.-.r.p.;.#.6.$X%Xs.i.p.p..X.Xs.`.0.  g.N.g.g.g.g.g.g.g.g.g.g.g.g.g.{ g.K F.E.W.O.} I I h.g.' { f.k.{ g.{ { h.. `.9.>.0.`.p.e.>.5.p.%X%X X].].p..X1X_.>.i.",
"%X X`..X.Xr.p.OX$X$X.X`..X%X%X.X.X.X].p.p.`.  r I / f.g.g.{ g.g.g.g.g.{ g.' { A G.O.Q.E.| ) k.I g.g./ g.{ { g.g.{ h.   X`.`.`.+Xi.p. X.X%X$Xp.0.5.p.e.6.`.p.5.5.",
"e.5.q.OXp.$.;..X.Xe.*.*.>.p.p.e.XX.Xp.0.0.`. X  P } { g.' } g.g.g.g.g.{ k.k.[ ~ F.W.!.Q. . .} h.{ { } [ g.g.g.g.{ h.  r.`.P. XOX.X.X.X.X`.p.p.p..X,X+X XOX%X`.r.",
"0.p.`.].p.0.5.e. X X X XXX+X+XXXXX+XXXr.r.P. X  b.I k.g.g.{ g.{ { g.{ g.L / { G ..E.O.R./.Q./ ~ / [ { { g.{ g.{ { h.  e. Xe.p..X4X.X`.p.e.0.].4X,X Xp. X X9.*.;.",
",X$X.X.X,X1X.X>.p.p.p.P.).|.q.r.9.q.q.9.0. X+X+X  ~ g./ ) { g.g.{ g.g.h.X.A.k.A ..E.E.W.W.o.F.' / { I g.{ } g.} { h.  %XOXp.`.OX.X]. X.X.X.XOX%XOXr.r. X`.9.5.9.",
",X%X,X,X%XOX`.p.5XOXP.p.u.|.q.r.>.;.;.=.>.q.XX=X1.  f f.[ g.g.{ { g.g.h.E.R.X.D.E.W.E.O.O.o.W...c.k.g.g.{ g.g.} { h.  ,X.Xe.r..Xe.p.p.`..X.X.Xp.r.p.OX.X`.4X5Xp.",
"$X%X1X5X,X]..X$XOXp.e.r.q.0.q.r..Xe.e.i.p.p.s.$X.X.X  L } ^ g.g.{ g.g.h.o.^.O.!.~.Q.W.E.W.!.W.@.L./ f.g.g.g.g.} { h.   Xp.r.e.r.0.p.p.0.e..X.Xi.>.5.e.e.0..XOX5.",
"OXi.:.5.].6X].-.*.5.P.OX`.q.e.P.OXe.e..X$Xp.,.1.s..X%X  n.P g.g.g.g.g.h.E.W.E.W.W.W.W.W.W.W.W.W.F.g.{ { [ { h.g.I h.  `.p..X Xe.>.`.OXp.`.%X%Xp.$Xi..X1XOX].].8.",
"1X$Xa.i.$X1X,XOX`.i.`..XOX.Xs. X6.,.6.p.@X@X$X].`. X.X  n.I g.g.g.g.g.h.E.W.W.W.W.W.W.W.W.W.W.W.O.T.G } f./ ' { g.h.  p._.p.`..X`.,X5X`.0.p.e.>.6._.OX.Xp.5.>.9.",
"].'.i.t.].,X1X,X_.i.p.$X%X%X$XXX0X$Xp.].,X1X$Xp.>.-.-.  n.[ g.g.g.g.g.h.E.W.W.W.W.W.W.W.W.W.W.W.o.T.L } g.{ { g.P z.  i.%XOX`.p.OX%X.Xe.e.].,X,X%X$X$XOX].`..X,X",
"}.@X@X`.i.i.`._..X`.i.`.%X%X%X-X_.`._.0.e.].{.].%X,X%X  B.P g.g.g.g.g.h.E.W.W.W.W.W.W.W.W.W.W.W.!.Y./ k.k.g.f.} { z.  %X6X%X`.`.p..XOX.X.XOXOX.X>X$X$X%X,XOX.X].",
"$X1X1X,X{.`.i.e.$X].OX.X$X.X.X+XOX6X6XOX`.].,XOXOX%X,X  B.I g.g.g.g.g.h.o.W.E.W.W.W.W.W.W.W.W.W.O.Y.L h.g.g.I k.k.z.  6X5XOX.X$X,X%X].e.6.0.OX5X,X%X%X,X%X].e.0.",
"I..X$X%X%X>X$X,X_..X,X9X5X@Xp.p.OX{.`.`.OX2X,XOX`.p.0.  b.P g.g.g.g.g.h.o.W.E.W.W.W.W.W.W.W.W.W.E.Y.L h.g.g.g.J g.  ,X$X].`.p.]..X$X%XOXp.`.$X9X1X%X$X$X.X`.p..X",
"].`.p.p.`.`.{.>Xi._.]..X.X.X.X%XOXOXOX$X,X5X,X,X$X$XOX  k S j.I { } g.l.D.X.W.Q.!.O.E.Q.W.Q.W.@.T.J.~ { ^ g.} { )   ].p.e.p.e.-.>.].6X9X1XOX].p.p.`..XOX].`.].$X",
"p.p.p.`.i.0.e.`.$X`.i.e.p.s.XX%X.XP.]. X0.-.*.0.i.OX$X`.  Y z.} k.g.{ ' E S.^.+.!.W.W.E.W.E.@.^.D.L J g.h.h.k.H.C.  OX.XOXOX0.:.`.%X,X].p.`..Xp.5.e.`..X].i.`.].",
"<.0. X$X%X{.$X,X1X$X.X$X5X%X.XP.p.>.>.p.XX.X.X.X1X%X$X`.].  j } / I h.g.{ } J.!.W.E.W.O.W.E.o.n.h.} / g./ { {     OX$X5X6X%XOXOXp.OX$X`. X$X.Xe.%X.X`.p.e.e.].%X",
"*.-.>..XOXi.e.>X1X$X$X$Xs.y.i.].*X$Xi.6.i.>X6X3X>X$X'.y.6.6.  , z.k.} k.k.h.g.A.K.Z.S.S. .Z.v./ ' ' g./ x.g.  .X}.$X$X>X&X>X$X}.#X.XI..Xp.5.e.`.p.s.s.i.s.s.@X$X",
">.0.e.OX5X,X$X3X$XOX`.0.i.s.$X*X$X$X%X>X,X1X$X{.%X$X$X$X>X1X1Xo P S V g.g.{ I / ~ I / ~ I / L / h.{ } H ^ B   .X>X`.6.i.].$X].6.>.i..Xp.>.*.0.OX].].]..X%X$X$X$X",
"#X%X.Xp.].i.5.5.OX>X$XOX>X9X9X%X$X.Xi.i.i._.OX,X8.i.p._..X,X$X].  .   C f.I ^ ~ I I / / ) ^ / ^ I ^ N.      `.].5X{.i.i.$X1X,X$X%XI.0.0.0.e.5.>.OX.X`..XOX.X`.0.",
"p..Xp.e.i.OXOX>X`.[.OXOX,X%XOXi..XOX%X1X,X.X].>X$X1X,XOX>X9X6X$X6XOX].                          o   . `.`.`.].OXOX.X].`.p.].$X5X0.e.p.]..X.X%X0XOX.Xp.e.r.r.r.e.",
"p.,XOXe.0.i.p.`.[.`.e._.`.e.p.].1X1X1X5X$X_.i.OXi.]..Xi.0.`.].e.].0.`.5X,X.X`.i.p.`.OX$Xp.5.6.p.>X`._.p.{.,X,X,XOX,X,XOXi.e.`.$X4X.X.X,X%Xe.0..Xe.r.p.p.p.p..X+X",
"#.0.i.p.`.`.OX,XOX`.`.OX%X]..X,X%X.Xp.0.5.>.e.`.0..X$X].p.`.`.p.$Xr.p.`.0.>.`.,Xp.0.r..XOXp.r.`..X(.0.e.`.OX%X,X1X1X%X%XOX]..XOXp.-.-.p.%X.Xp.p.>.e.OXOX`.`.`.OX",
"@X1X1X%X.X`.e.`.e.e.p.`..X.Xp.p.1.i..X{.].`.e.e.6.p.].OX.X`.p..X`.p.,X,Xp.e.p..X,X.Xi.`..XOX].`.p.i.p.p.`.].].p..X`.i.p.`.p.p.i.5.p..X`.0.>.0.0.4.p.>X%X{.i.i.].",
".X$X].`.`.i.r.OX+X.Xq.>.0.P.p.0.p..Xp.e.0.`.p.(.p.`. X.X`.`. X$X+XOXOX X0.`..X`.r.p.9.-.>.r..X`..X#X1X*X%X.X.X.X X]. Xi.e.9.6.0.5._.p.5.p.%X%Xu.6._.$X>X]._.OX>X"
};
