/* XPM */
static char *d2d8d5a0a6ca4b1bb821da0908a39dc4afcZOScPFf5hV4Ow[] = {
/* columns rows colors chars-per-pixel */
"80 80 226 2 ",
"   c #030001",
".  c #0A0003",
"X  c #02020A",
"o  c #09040A",
"O  c #050A0C",
"+  c #1A0E07",
"@  c #1D130A",
"#  c #090913",
"$  c #0B121A",
"%  c #161011",
"&  c #260A05",
"*  c #281309",
"=  c #391C00",
"-  c #3F1D0A",
";  c #220F14",
":  c #3E2C14",
">  c #19252B",
",  c #26272B",
"<  c #461E01",
"1  c #421C0B",
"2  c #48240A",
"3  c #462214",
"4  c #4A2A1C",
"5  c #572811",
"6  c #582A16",
"7  c #532A1A",
"8  c #5C331D",
"9  c #712E14",
"0  c #763D17",
"q  c #7B3D1B",
"w  c #562A22",
"e  c #502F25",
"r  c #783B23",
"t  c #723930",
"y  c #79431A",
"u  c #58473F",
"i  c #764126",
"p  c #6B4538",
"a  c #7B4736",
"s  c #5D4E49",
"d  c #644845",
"f  c #873818",
"g  c #963914",
"h  c #973B22",
"j  c #85421E",
"k  c #8B451E",
"l  c #964917",
"z  c #A24818",
"x  c #B2451E",
"c  c #894824",
"v  c #924B22",
"b  c #9A4F2E",
"n  c #945439",
"m  c #A5482E",
"M  c #B64F29",
"N  c #A75928",
"B  c #B55A2A",
"V  c #BC5E2E",
"C  c #AA5633",
"Z  c #B66335",
"A  c #BD6437",
"S  c #C55C2C",
"D  c #C1682E",
"F  c #D86A2C",
"G  c #D6742F",
"H  c #C56631",
"J  c #CE6A33",
"K  c #CA6638",
"L  c #D86B35",
"P  c #D16C3D",
"I  c #DA713B",
"U  c #F76934",
"Y  c #EA7235",
"T  c #E47439",
"R  c #E97A3A",
"E  c #FC7436",
"W  c #F57C35",
"Q  c #FA7D34",
"!  c #F4763C",
"~  c #FE753E",
"^  c #F47B3C",
"/  c #FC7D3C",
"(  c #CD6741",
")  c #DC6D42",
"_  c #E06D43",
"`  c #E97847",
"'  c #FE7543",
"]  c #FA7445",
"[  c #F57B41",
"{  c #FD7C43",
"}  c #FE7E4B",
"|  c #E98B39",
" . c #F58334",
".. c #FE8436",
"X. c #FE8B36",
"o. c #F5833C",
"O. c #FD823D",
"+. c #F58B3B",
"@. c #FD8A3C",
"#. c #FC943C",
"$. c #FD993B",
"%. c #EFAF33",
"&. c #FCA63E",
"*. c #FBBC3B",
"=. c #FDC93C",
"-. c #F7DA36",
";. c #FED63E",
":. c #FDDA3E",
">. c #FDE33E",
",. c #F7E83B",
"<. c #98845C",
"1. c #8F8269",
"2. c #968367",
"3. c #9C8664",
"4. c #9C8B64",
"5. c #9C8A6C",
"6. c #A48C64",
"7. c #AC8E64",
"8. c #A48D6C",
"9. c #AC8E6C",
"0. c #B48E6C",
"q. c #A4926C",
"w. c #AC936C",
"e. c #AC9A6C",
"r. c #B4966C",
"t. c #AC8E74",
"y. c #A49474",
"u. c #AC9574",
"i. c #AC9B74",
"p. c #A9957C",
"a. c #AC9B7C",
"s. c #B49674",
"d. c #B49C74",
"f. c #BC9D74",
"g. c #B4967C",
"h. c #B49D7C",
"j. c #BC9E7C",
"k. c #B4A274",
"l. c #BCA474",
"z. c #B4A27C",
"x. c #BCA37C",
"c. c #B4AA7C",
"v. c #BCAA7C",
"b. c #EC894B",
"n. c #F58243",
"m. c #FE8341",
"M. c #F78946",
"N. c #FD8A43",
"B. c #FD844A",
"V. c #FE8B4B",
"C. c #F39244",
"Z. c #FE9344",
"A. c #FC9945",
"S. c #FE944C",
"D. c #FE994D",
"F. c #FD8B52",
"G. c #FE9355",
"H. c #FF9B52",
"J. c #FC9458",
"K. c #FC9C5C",
"L. c #FAA545",
"P. c #FEA444",
"I. c #FDA64B",
"U. c #FFAA4D",
"Y. c #FDB646",
"T. c #FEA557",
"R. c #F9B456",
"E. c #FA9567",
"W. c #C4A57C",
"Q. c #C4AA7C",
"!. c #FFB46C",
"~. c #FBC945",
"^. c #FFC54A",
"/. c #FED444",
"(. c #FCD547",
"). c #F5DB43",
"_. c #FEDA43",
"`. c #FDDA4A",
"'. c #FCC551",
"]. c #FCD553",
"[. c #FCE344",
"{. c #F7E845",
"}. c #FCEA45",
"|. c #FDE44B",
" X c #FEEB4A",
".X c #F8F548",
"XX c #F5EC52",
"oX c #FFD366",
"OX c #B49E84",
"+X c #BC9E84",
"@X c #B4A484",
"#X c #BCA584",
"$X c #B4AA84",
"%X c #BCAA84",
"&X c #BCA68C",
"*X c #BCAB8C",
"=X c #BCB28A",
"-X c #B5AA98",
";X c #C49E84",
":X c #C4A684",
">X c #C4AC84",
",X c #CCAC84",
"<X c #C4A68C",
"1X c #C4AD8C",
"2X c #CCAE8C",
"3X c #C4B284",
"4X c #CCB384",
"5X c #C4B38C",
"6X c #CCB38C",
"7X c #C4BA8C",
"8X c #CCBA8C",
"9X c #D4B58C",
"0X c #C8AE94",
"qX c #C4B494",
"wX c #CCB594",
"eX c #C4BB94",
"rX c #CCBB94",
"tX c #CCB69C",
"yX c #CCBC9C",
"uX c #D4B694",
"iX c #D4BB94",
"pX c #D4BD9C",
"aX c #DCBE9C",
"sX c #D4C29C",
"dX c #DCC29C",
"fX c #D4C2A4",
/* pixels */
"h.8.d.:X>Xh.9.1X5Xx.z.d.#X>X1X6X>Xz.q.d.%XwX>X1X>XpX5X:X%X1X>X2X6XwXwXiXiX1XwXwXx.d.h.x.x.#Xh.z.5X#X#Xh.%Xh.w.z.#Xh.d.i.d.u.q.#X1X1Xh.w.i.>X1X#Xu.8.d.2X>Xh.3.1X",
"1XwX6XwX:Xx.j.8.x.1X2Xh.d.i.h.#X6X6X%X#Xu.u.#Xw.h.>X>X%X>X#Xx.8.d.:Xh.w.8.>X1X2Xh.u.d.#Xx.#Xz.x.6XwX6X1X6X#Xi.z.>XiXrXiX5Xh.#X1X6XwX1X>X1X1X>X1XwXwX6X1X:Xx.x.8.",
"g.7X>X@Xz.h.x.%X1X>XwX%X1Xd.u.d.1X1X6Xw.#X%X#X6X%Xx.x.x.x.h.h.#Xx.j.3.8.h.x.i.w.1XrXiX>X1X1X5X1Xx.2XwXx.:X#X6X1X>Xh.d.#X>X#Xh.u.*XiX%Xx.>X1Xx.u.#X7X>Xx.z.h.#X%X",
"u.eX5X%X1X%Xx.>X%Xd.1X%X>X%X%X*X6X1X>XwX1X%X5X6X1X>X%X1X1X>X#X#X1XwX1X1X      1X1X1X%Xx.z.h.>X>X#Xj.j.u.x.:Xh.x.x.j.#X1X:X%XwX1X>X1X#X#X:Xh.8.3.<XeX5X*X1X%X%X>X",
">Xx.z.x.6X>Xx.x.x.x.x.>X1Xc.%X6X%Xy.i.6XQ.x.x.x.x.rX%Xd.u.5.q.x.1X      P ) c   h.i.a.q.i.#X%Xi.q.6.q.z.x.%XwX%X#Xd.d.z.1Xz.z.6X#Xw.w.x.5X6X1X1X>Xx.z.4X6X>Xx.x.",
"6X7.w.h.2Xx.x.>X>X6X#X#Xx.6XiXrXz.h.a.u.1XpX#X>X1X1X1X>X@X1X6Xi.  B.S.I v I.f   i.u.#X6X%Xz.u.i.z.5XwXpXrX>Xi.u.u.h.h.h.u.i.>X5X>X1Xx.%X>X5XiXiX#X7.w.>X2Xx.#X>X",
"%X1X1X6X6X1X>X:Xx.z.d.d.:X%X>X>Xu.i.x.wX1X1Xu.8.h.6XwXuX6XwX1X:X  V.J.) b T.y   wXwXwX1X5X1X6XrXiXwX6X1X%X>X6X1X>X#X>X1X#Xz.1XrXwX6Xj.u.#X6X1X#X>X1X1XrX6X1X1X:X",
">XwXuX6X#Xh.x.x.:X>X5X2X>X>Xx.x.1X1XwX1X*X#Xh.i.#Xh.u.h.z.u.u.u.  N           d.d.h.h.d.#X6X>X1X%X      iXrX5X6X5X>X1X>XwX5X%X>X>X#Xx.#X5X6Xc.h.rXwXuX1X#Xh.#Xx.",
"1Xx.#X1X#X:X#X1X1X#Xx.W.x.%X>X>X5XwX1Xz.>X>Xu.x.%Xg.g.#X>Xh.w.#Xh.  d.u.h.pXh.8.1XwX#X8.d.h.x.>X  f U.!.  h.1X#X%X1X>X%X6X%X%X6X1Xx.s.wX1X6X5X>X5Xx.#X>X#X:X#X1X",
"d.3.8.u.h.h.u.x.x.:Xx.>X>Xx.iXiXw.s.#X>X>X6X>Xx.z.s.g.s.u.x.2X>XwXwXwX1X:X>X1X:Xd.s.h.#X1X:Xh.#X  r m.x   1Xx.#Xw.4.d.#Xq.%X6Xh.w.u.d.3.q.5X1Xx.h.3.8.h.h.h.u.x.",
"#X>X1X6Xx.h.s.%Xh.d.x.j.u.4.c.5Xq.u.x.#X>X1Xd.w.d.z.z.%XwX5X5X>Xd.x.z.x.5Xl.%XX   5X3X:Xx.x.:Xx.  f @.X >X>X#Xx.x.x.>X>Xx.#X%X#Xh.x.wX6X>X#Xx.x.1X>X1X1Xx.h.s.%X",
"q.%X>X1X>Xx.:Xd.x.h.6.u.j.wX%X%X>Xh.x.#Xd.q.#X>X%X#Xz.%X1X%X1XW.>X6Xd.j.:Xx.  L oX  k.>X>X6X#Xz.6X  X x.d.j.#Xj.d.d.d.d.x.%X#Xz.x.z.q.x.h.d.s.w.w.%X>X>X>Xx.#Xd.",
">X%X>X>Xx.x.j.>XwX6Xj.#X2X>X>X>Xx.h.#XiX6X>Xx.x.x.8.h.>X%Xx.z.W.W.:Xd.s.h.>X  t r % >Xx.x.d.8.6.#X9X1X>X1X>Xd.d.x.>X>X2X2X1X5X1X%X#X2X1X>Xx.h.#XwX%X>X>Xx.x.j.>X",
"x.6X6X5X#Xx.h.j.#X:Xu.x.:Xu.:XwX>X>X#Xu.w.i.w.u.d.wX>X#X6XrXrX2X:Xx.:Xs.s.k.#X$     #XuX6X6X1Xx.x.w.x.1X>X#X1X>X>X6XwX6X6Xd.#X>X#Xx.x.5X1Xd.w.u.1X6X6X>X#Xx.f.j.",
"1Xh.d.x.x.:Xx.j.h.h.x.#X>X2X>Xj.h.:X>X>X>X%X1Xx.d.z.#X:Xz.x.z.>XiX6XwXwX1X6X1X#X1X1X1X6X1X>X>X>X6XiXwX6X6X5Xx.6X2X:X:Xx.x.>Xh.u.z.1X1X6.u.h.j.#X6Xh.d.x.x.:Xx.j.",
">X>X%X>X#Xj.d.j.;X>XuX6X%X;X;Xj.d.u.#X#Xx.x.d.u.d.:Xh.w.d.#Xs.3.>X%X@XwXqX1X1X<Xt.8.u.>X>X6X>Xh.u.x.6XiX6X>X6X#Xx.>X1X2Xx.*X>X%Xx.z.h.#X6X>Xx.#X1X>X%X>X#Xj.w.j.",
"d.x.h.w.x.6X6X%X%Xx.rX@Xw.x.%X%X1X6Xx.6.x.1Xw.u.x.j.6X1X8.j.x.<.i.5Xv.z.x.>X>Xv.d.w.u.3X1Xv.x.:XuX9X6Xh.s.u.x.#Xx.:X#X#X#Xd.:Xx.u.6.>Xd.#X#Xs.w.#Xx.h.u.x.6X:X%X",
":X>X>X>X#Xx.x.>XwX2X1X6X#Xu.x.1X%X:X#Xw.u.#Xh.6.6.h.u.f.x.3.9.>Xh.6.w.x.x.,X>Xx.d.#X:XW.x.j.u.w.6.:X:X:X#X>X#X:Xx.#X:X#X#X>X#X:X>X>X>X%Xd.j.#XW.1X>X>X>X#Xx.x.>X",
"x.uX>X#Xh.d.%XwX:Xx.:Xs.6.z.#Xx.w.d.#X1X1X6X#Xu.s.d.x.#Xx.d.u.:X:X:X,X2X2X,X2X,Xj.W.:Xr.s..           x.>X>X>Xs.x.1Xj.w.h.x.W.x.x.x.6X#Xs.h.:Xh.>XuX>Xx.h.d.uXwX",
"#X>X%X:X>X>X1X1Xj.j.#Xs.u.d.#X6X1X%Xj.wX:Xu.i.x.1XwX5X>XwXrX>Xx.x.x.+X;Xf.s.f.f.d.:X2X9X  4 7 7 6 6 7   2X6XW.#X#Xj.h.j.2X>X1X>X%X:X#X>Xx.6X1Xx.1X>X%X>X>X>X6X1X",
"h.d.x.x.h.>X>Xw.u.h.d.>X1X6.w.h.#X>X%X6X>X>X1X1X#X5X6XrXwX%X>X1Xx.h.f.d.f.>Xh.h.x.x.v.>X  M M N.[ W { 3   :X6Xf.#X2Xx.d.:Xw.8.d.>X1Xu.j.:X:Xx.j.j.d.x.d.h.>Xz.w.",
":Xw.#X1X#X6X6X5Xz.>X1X%X%XW.+Xx.h.#X5XwX5X1Xd.w.#X1Xz.q.%XpX%X6.u.W.#Xf.h.1Xh.h.5Xx.e.v.      A.V.O.m.Z.<   :X#Xw.3.s.h.h.x.x.x.z.x.x.#X>X#Xx.>Xh.w.#Xx.#X6Xx.5X",
"#X#XwXiXd.x.h.i.@X1Xx.u.w.%X1XwX5X1X6Xx.>X6X      rX5Xc.5XrXwX#Xc.#X1X>Xv.i.e.i.3X3X5X#X:X1.h.  @.m.n.I.=   x.x.u.:X2Xx.u.#X#X8.5.d.%Xu.d.x.@Xx.>X#XwX#Xd.x.w.i.",
"#Xx.>X1X>X1X1XqX5X5XwX1X>Xz.%X1XrXiX>X1X:X  v f a   3X3Xz.z.#X>X#Xz.6X6X6X@X#X@Xh.%X*X6XwXd.d.  S.[ m.K.-   %X6X6X6X2Xv.>X%Xh.i.i.i.wX>Xu.6XpX6X#Xx.>X>X>X1X>XqX",
">XwX6X%Xi.d.1XwX6X6X6X%Xh.qXrX5X8.d.*Xd.  5 Z.S.` 5 rXrX*X#Xz.5X%X1X5X>X>X1XpXpX#X%XwX1X6X  X X A./ / J.1   i.%Xx.w.u.d.>Xz.1XwXwXpX5X%X%XpXiX1X5XwX6Xh.i.d.iXwX",
"x.>X5X6Xx.#X5XrX6X5X>X#Xx.a.6XsXx.z.x.>X  5 m.m.O.K j   6XqX5X@X>XwXiX3Xx.1X*X#X1XtXX X X n.[ ` O.o.m.H.-   5X>X6X5X>X#X>XwXyX%X#X*X%Xh.>X5X%X#X%X>X5X1Xx.#XsXrX",
"d.#X6XwXx.#X>Xu.h.#X%Xz.#X5X5X5X5X>Xi.#X*X  V J T L j   z.d.h.5X#Xz.x.v.,X>XW.%Xd.  K S Z m.O.B.O.m.N.I.-   q.u.@XpX*Xu.#XpX%Xu.q.q.wXiX6X>X1X1Xq.#X6X%Xx.#Xx.u.",
"1Xx.1X5X:X5X>X6X>X#Xh.h.%XeX5X5X5X1X6XyX1X#X  q N N q   #X#X  rX5X>XiX6X>Xx.w.w.,X  G.N.V...O.m.m.n.O.Y     #X&XOXwXyX*XyXqXiX*X%X5XwXwX1XiXpX6X1Xx.1X#X:X5Xh.6X",
"5X4X>XQ.x.u.h.x.v.v.v.v.3XW.>X,XW.W.x.x.6.7.f.      8.w.1X  L   5X5Xv.k.z.8X5X    ( ! n.{ O.O.O.n.V.O.  #Xh.>X*X%XqX5X    >X>Xv.x.x.>X=X5XqX7XqX=X4X>X>Xx.u.#Xx.",
"wX6XQ.d.d.h.u.1X>X#X1X>X#Xr.d.f.:X>X>Xx.w.w.>X#Xx.4X6X>X%XX T     5XqXsXsX5X  H J.} +.m.@.B.O.m.N.f   5X#Xx.#X%X>Xh.    v   wX1Xx.@X%XiX*Xz.5XrX5X6XQ.d.d.h.w.1X",
"5Xd.h.x.>X>X6X1X>Xx.j.j.j.d.h.x.1X6X>Xj.9.d.j.q.d.x.>Xx.z.  C     1XwX6X1X  s P m. ...{ O.m.m.m.V.j   x.h.1X6XpXsX  & b g   1X#X#X#X1X1X>X#Xx.%XiXd.h.%X>X>XdX1X",
"#XuX>X>X6Xh.d.h.j.x.x.x.>X6X1Xx.j.h.d.h.>X2Xi.h.z.x.wX1Xd.z.% &X#Xh.#Xh.    y O.{ @.B.m.O.m...O.#.l   iXwX>Xz.x.#X. R.F.z   #Xx.*XwXwX1XwX1Xz.h.5XuX>XwX6Xh.>Xh.",
"x.u.x.>Xd.w.d.y.x.qX*Xz.z.#X>X#X#X1X5X>Xu.u.wX5X5X3XrXrX>X#Xh.h.h.x.>X>X    i / / O.m.O.] m.^ H.    x.wXx.h.>XwX>X  U.q   x.z.x.#X%Xx.>X#Xx.#Xx.z.u.x.#Xd.w.d.y.",
"i.u.@Xx.x.6X6Xi.@X5X%X@X1X>XqXrXwX5X%X1X1X1Xz.qXpX>X5X%X#Xz.j.2X>Xf.d.  a h S m.B.m.n.} Y.{ n.A.    1X:Xd.#X#Xj.x.  9   #X>X4X8X6X>X>X:X%Xz.h.s.d.u.@Xu.x.6Xl.i.",
"l.d.k.>X3Xx.z.a.%XqX1X%X%Xa.1X5Xq.u.%X5X3X3X5X6X5XrX5X>X:X:X:X#Xx.#X1X  n H.@./ m.O.{ m.,./ ^ D.    d.d.x.6Xx.i.y.d.  i.%Xq.h.2X>X:X0.6.l.>XQ.x.d.d.k.3X3Xx.%Xa.",
"i.*X5XwX%Xa.u.=XrXrXqX5X1Xu.8.4.z.5X5Xx.%X>X>X6X6Xh.x.#Xs.u.d.>Xx.h.  + N.B.B.B./ ..O.Q ] { ^ A.    #X#Xz.1X5X#Xx.1X>X#Xu.1X>X>X%X>XwXx.h.#Xf.w.>X*X5XqX%Xa.u.=X",
"h.z.wXfXh.q.a.sXrXqXz.x.>X%X1X6XwXwX>X>X2X>X#X:Xx.u.z.>X#Xx.z.>Xh.u.  * W ../ m.m.o.O.m.m.B.B...`     #X#X1Xh.#X#X#Xj.j.w.d.1Xh.h.5X%X#Xs.u.z.#Xh.z.wXrXh.q.1XsX",
"#X8.@X1X8.5.h.5X5X>Xx.h.h.4.w.z.1X>X#X#Xd.h.6X#Xd.w.h.#X%X>X#X#Xh.d.. 3 { m.m...O.m.B.O... .O.n.Z.h   0XwXpXu.j.x.j.x.#Xh.x.6Xu.w.1X%X1X1X>XwXwX9.8.@X@X8.5.1X5X",
"wX%Xv.z.z.>X1X%X%Xx.x.#X1Xh.d.h.>X%X:X5XpXqXq.1XwX5X5X*X%XwX6X#X1XwX. k n.m.m.m.m.m.m.m.m.O.m.m.V.m   d.i.x.>X      6X5X%X5X%X5X>Xh.x.pX*Xu.#XwX1X%Xv.d.z.>X%X%X",
"3X5X6X5X>X5X5Xd.h.#X2X#Xj.w.j.>X1X#X>X1Xa.@XwXq.y.eXrX7X>X1Xx.#X>X>X  B m.m.m.m.m.m.m.m.m.O.m.m.m./ R   d.#X  L { Y   %Xz.eXrX#Xz.%XwX>Xv.6X5X%X8X5X6X3X>X5X3Xd.",
"a.c.%X5X5X%X>X5X3Xx.d.v.x.8.u.h.6X1Xa.%X1X6Xz.h.z.%X@Xc.z.z.%X    d.X H m.m.m.m.m.m.m.O.m.O.O.m.O.N.F.  d.#X  G Z.X.  u.qX>XyX%X1X>X6.q.8.>X5X#Xh.c.%X6X5X%X5X5X",
"1X5X5X6XwX%Xd.z.i.h.>X1X5X5X6X%XuX6X%Xw.i.h.%X>X#X1X5X5Xh.  e - 1   X J m.m.m.m.m.m.O.O.O.O.m.m.O.m.O.      O.N.V X u.>X5X5X%Xw.h.h.q.h.1X6X1X5Xx.5X5XrXwX%Xu.z.",
"yXsX5Xx.u.f.1XrXwX1X#Xj.h.8XiX3X5X>Xv.>X#Xh.>X5X6X6X1X%Xi.  ` R.V.  X V m.m.m.O.m.m.O.O.O.O.O.O.O.m.m.X P K.n.X.S O 1XwX5Xz.>XwXrX>X1X1X>Xi.h.>XdXsX5Xi.u.f.iXrX",
"x.d.%X3X>X%X:X1X6X1Xd.x.#Xx.>X>X>Xv.x.6X5X6X1X1Xx.z.h.  u   _ N B , > v R m.m.m.m.m.m.m.O.m.O.O.O.B...o D @.{ Z.V X >X5X#X1X5X#Xi.8.w.q.w.>X1X%Xh.d.%X5X>X%X>X1X",
"u.i.x.>Xx.x.j.iXiX6XW.,X6XwX5Xh.#X>X1XwX5X>X>X%X>X6X  d ` N.n.X $ h.y.o J O.m.m.m.m.m.O.m.O.O...O.m.m.m.m.m.O.C.V O rXrX%Xx.5X>X5X1Xz.w.u.#X:Xh.6.i.x.%Xx.x.d.iX",
"wX6X5X#Xj.>X6X4X>X>X,X,X5X1X1Xh.1X1X#X5X>X#X%X>X#X    0 m.^ D.  o x.2.X q ^ m.m.O.m.m.O.B.m.m.m...m.m.m.m.m.O.N.S   $X@X5Xa.6X#Xh.h.*Xj.>X1X2X6X>X6X5Xd.j.>X6X4X",
"Q.Q.6X4Xx.x.Q.>XW.x.9X6X6X%X1X%Xi.h.%Xz.h.z.qXwX  p 9 Z { Z.m 1XrX-X8.% 6 I m.m.O.m.m.m.B.m.m.B.N.O.O.m.O.m./ N.A # z.v.>Xh.i.>Xx.u.j.r.f.,X6X6Xx.Q.6X:Xx.x.x.>X",
"#X:Xx.x.x.x.d.u.d.d.u.7.w.a.z.>XwX5X1Xd.i.w.h.#X  C V.[ / T.@ h.x.8.$ ; 0 J ^ m.m.O.m.O.O.{ B.B.O.m.m.m.O.m.O.m.^ Z X h.h.x.z.x.z.j.s.s.d.:Xx.j.x.:Xx.x.x.x.x.u.",
":Xf.u.d.:Xd.s.x.#X:X#Xx.#X#X%X>X>X1X5XwX1X#Xd.d.  N D.W  .H.& h.x.5X  * n.m.O.O.m.O.m.o./ O.O.] ..m.O.m.O.O.O./ m.b.  wX:Xz.>X>X1X1Xj.j.j.s.u.h.wXf.u.x.:Xd.d.x.",
"#X>Xx.x.>X#Xx.x.x.#X#Xh.d.#X>X#Xu.d.>XwX6X>X#X#X  C S.o./ E.1 x.rX5Xo : n.m.m.m.m.m.m.B.! }.(.~ m.B.O.m.O./ m.O.m.m.H.  p.i.#X:Xx.:Xj.j.j.d.s.h.1X>Xx.:X>X#X:Xx.",
"6X#X#Xh.w.d.x.s.u.8.u.u.w.x.#X1Xx.#X#X6X1X:X>X>X  N S.{ Q N.! X % 8 W ^ O.m.m.m.m.m.m...~ ,.(.~ n.{ O.m.m.m.m.m./ W A.  6X1X5X1X>X:X<X,X,XQ.>X>X6X#X#Xw.w.d.#Xs.",
">X2XwXuX:X1XwX0X1X:X#X#X<Xh.x.x.:X>X:Xh.s.s.:X2X  N Z.Q O.m.F.X   < m.V.B.m.m.m.m.m.m.m.' [.^.W O.O.m.O.m.m.O.O.m.n.S.    >X1XwX5X:Xs.f.f.2X9X6XQ.2XwX1X:X1X1X0X",
">X>X6X9Xx.s.d.x.#X1X2Xj.d.z.h.q.i.>XwX#Xw.4.i.d.  C D.W O.O.m.V...V.{ m.m.m.O.m.m.O.O.O.' ).-.|.X.#.{ O.m.O.m.O./ m.m.m.z   s.j.j.:X2X%Xx.5X6X>X6X>X6X5Xx.s.x.x.",
"x.u.d.x.d.d.j.s.s.u.w.h.:Xy.d.z.d.d.i.u.>X6X#X%X  C D.{ B.m.B.n.O.M./ ..m.m.O.m.O.O.O.O.]  X>.)..XU.B.O.B.O.O.O.m.../ O.v   :X2X>X:Xj.x.j.w.r.j.x.u.d.x.d.d.x.s.",
"#Xx.u.8.6XaXwX;X:XW.x.wXrXs.h.x.#X#X>X2X1X6X2Xx.  N Z./ m.m./ ..B./ V.m.m.m.m.m.m.m.m...' ~.=.[.XXY.] ..B.m.m.m.O.m...[ l   >X:X:X1X:Xj.:Xd.9.s.2Xx.u.d.6XaXx.;X",
"f.h.>X6Xh.u.s.W.2X2X6XpXpXwX6XwX6X6X6X2X:X#X>Xj.  a q H / @.{ m.m.m.m.m.m.m.@.B.m.O.m...B.' +.|._.'.%.{ o.m.O.m.m.O.m.m.F 9   u.u.s.w.h.>Xj.9.w.d.h.>X2Xh.u.h.W.",
"1X#X1X2Xh.g.j.1X6X1X:Xx.h.9.w.h.#Xj.#Xd.:X#Xj.>X:X    y m.n.m.m.m.m.O.O.m.B.O.V.{ O.m.O.m.' C.|.`.>.>.' O.n.O.O.O.m.O.O.n.#.2   x.>Xh.1X1X0XwX5X1X#X1X>Xh.g.>X1X",
"#Xu.t.8.u.+X#X5X1X>Xd.9.9.j.x.:Xj.u.d.:Xs.s.s.w.s.u.  v ..B.B.m.m.m.m.m.m.n...N.O.m.../ m./ |  X).).[.' O.o.m.m.O.m.O.O.m./ w   5X6Xx.8.8.#X#Xh.wXu.t.8.u.+X1X5X",
"%X>X6X6X>X>X6X4Xx.d.1X1Xd.z.#X>X>Xj.s.@Xd.c.>X%X>Xz.%X  L m.O.m.m.m.m.m.m.O.' Y.`.Z.o.O./ ^.~.[.(.;.`.].D./ m.O.m.O.O.m.m...4   l.>XQ.>X4X4X%X%X$X>X6X>X>X>XiX4X",
"s.1Xx.d.#Xh.#X4X6X6X#Xh.i.z.h.h.d.u.h.+Xh.#Xj.x.>Xh.x.  A B.^ m.m.m.m.m.m.o.' )..XX.} } ] [.,.:._._._. XA.E B.m.m.m.O.m.m.O.e   d.d.<.f.d.d.u.w.h.1Xx.x.#Xh.iX4X",
"d.s.i.#X#Xd.j.>Xx.u.8.u.c.wX6X5X#Xx.h.h.g.j.x.#X:X1X2X  G #.o.m.m.m.m.m.m.O.} ^.[.=.*.*.*._.(.(.(._._.}.C.! O.O.O.m.m.m.m.O.4   &X1XwX6X2Xj.s.s.h.s.i.>X#Xd.>X>X",
":X1X1X#Xd.h.x.j.x.1XqX1X#X>X1X>X1X1Xj.g.9.8.j.1XwX2X#Xj.    I n.m.O.m.m.O.Q P.(.:.(._._._._._._._.(._. X#.{ O.m.O.m.m.O.B...w   #X#X8.1X#Xj.h.j.6X1X1Xu.d.h.h.j.",
"j.h.#X6X1Xh.h.6Xx.w.OX1X1X5XwX1X:X>X>XOXp.h.1XwXwX:X#Xx.1X  ) m.m.O.m.m.O.{ P.`.`.;._._._._._._._.:._. XZ.' N.m.m.m.m.m.B.O.4   #X#Xh.1X0X#Xx.h.j.h.#XwX1Xh.h.6X",
"h.#Xu.u.#X#Xj.w.i.#X1X*X#Xz.x.d.6.s.#X1X*XwXqX1Xz.w.h.>Xd.s.  V.n.O.m.m.O.{ &.(.`._.(._._._._._._._._.|.A.{ m.m.B.O.m.O.Z...7   x.h.>Xa.@X#XOXd.d.#Xu.#X#X#X#Xw.",
"6X1X1X1Xh.%X1X5X5X>X1X5X5X@X#X5XrXwX1X1X>X#Xh.h.h.wX1X#X#Xh.  G.n.m.O.m.O.{ &._._.(._._._._._._._._.(.[.$.~ B.m.B...m.m.h     wX5X%Xq.h.x.rXpXyX%X1X1Xz.h.%X6X5X",
"z.1X>X#X#X1X1X>Xj.d.d.u.s.x.#X#Xh.q.8.1X1X1XwX1X#X8.u.h.z.#X  G.n.O.O.m.m.] P.`.`._._._._._._._._._.(.{.$.E { o.B.O.B.W g X   6X#Xw.8.y.h.1X%X#Xh.1X>Xh.#X1X%X>X",
"1X#X#X#X#X#X#X1Xx.h.:Xd.u.wX:X#Xj.s.h.%X1X1XwXwX5Xh.:X1X:X#X  G.n.O.O.m.m.' I.`.(.:._._._._._._._.:.`.XXI./ m.O.O.B.B.N.l   #X#Xh.s.w.z.%X5X1X%X5X#X#X#X#X#X:X1X",
"x.s.u.h.%Xh.z.pX5X%X6XwXwXiX5X1XwX1X#X>X1X*X#X#X1X1X:X#X#Xh.  S.B.O.O.m.n.n.] '.>._._.;._._._.:.(.[.[.' ~ m.B.O.m.Q S.i   h.#X6X1X1XwXh.z.#X%X%X@Xs.u.1X%Xh.6XpX",
"wXyXwX1X6XwXwX%X%X#Xz.x.z.u.q.8.h.#X1Xh.%X6X1X1X#X#X>X1XiXpX  K.' m.n.m.B.O.{ R.*.;.]._.;._.(.`.).~.Y.] o.m.m.O.m.! S.c   h.%X5X#Xx.5X5X1X1X1XqXrXyXwX1X6XwXwX%X",
"h.1X1Xd.a.wX1Xz.>XwX1X1X5X5XqX%X@X#Xz.#X1XwXh.u.h.#X#X1XiX    #.Q / m.O.B.O.m.{ U ^.[.`._.`.(._. XY.U { B.m...} m.@.!.c   >Xi.u.>XqX8.8.q.z.z.z.h.1X1X8.a.wXh.z.",
"1X6X>Xh.8.i.@X>X%Xu.x.>XrXh.%X5Xx.#X>X#Xi.d.d.6.y.:Xx.z.z.  b.O.M.B.n.n.[ n.}  .O.' `.[.[._.,.}.] / B.B.{ W  .N.V./ X   5Xh.h.h.u.u.#X>X#Xu.#X1X1X6X>X8.8.i.%X>X",
"0X#X>X1X1X6X6X>XwX>XwX%X#Xq.d.#X1X1X1X>XwXiXwX1X>X1Xx.w.w.  8 e 9 +.O.N.B.m.O.B. .[ I.L.P.P.&.&.} +.~ M.m.B.n.q 5 8   >X%X1X#X>X5XqXqX>X2XwXwXwX#X#X>X>X1X6XwX>X",
"h.8.d.:X>Xh.9.1X5Xx.z.d.#X>X1X6X>Xz.q.d.%XwX>X1X>XpX5X:X%X1X      Q ` R o.n.B.m.@.m.' / ~ ' ' ~ o...V.| | Y F       d.i.d.u.q.#X1X1Xh.w.i.>X1X#Xu.8.d.2X>Xh.3.1X",
"h.1X%Xh.d.h.>XpXiX1Xd.8.z.1X#Xx.%X%X#X%Xx.x.5X%X>X1X1X2X1X>X1Xh.1X    X n T.D.H.H.D.H.D.D.D.D.D.D.D.J.        s.h.#X:X%X#Xh.u.u.#X1X1Xx.x.x.h.p.1X1X%Xd.d.h.wXpX",
"g.7X>X@Xz.h.x.%X1X>XwX%X1Xd.u.d.1X1X6Xw.#X%X#X6X%Xx.x.x.x.h.h.#Xx.j.3.8.                            . x.:X#X6X1X>Xh.d.#X>X#Xh.u.*XiX%Xx.>X1Xx.u.#X7X>Xx.z.h.#X%X",
"u.eX5X%X1X%Xx.>X%Xd.1X%X>X%X%X*X6X1X>XwX1X%X5X6X1X>X%X1X1X>X#X#X1XwX1X1X>X1X1X1X1X1X%Xx.z.h.>X>X#Xj.j.u.x.:Xh.x.x.j.#X1X:X%XwX1X>X1X#X#X:Xh.8.3.<XeX5X*X1X%X%X>X",
"z.u.w.d.6X1XW.>X3X6XiX2X#Xd.z.%X>X#X#Xz.>X>Xd.%XwXx.x.5X6X1X&X1X:X#X1X#Xh.2X1X#X#X#Xx.1X5X1X%X1X5X1X5X1X1X%X1Xx.%X1X>X%X1Xz.%X#Xh.d.#Xh.d.h.#X>Xu.u.w.1X6X1X#X>X",
"6X7.w.h.2Xx.x.>X>X6X#X#Xx.6XiXrXz.h.a.u.1XpX#X>X1X1X1X>X@X1X6Xi.u.w.#Xu.8.#X1XwXi.u.#X6X%Xz.u.i.z.5XwXpXrX>Xi.u.u.h.h.h.u.i.>X5X>X1Xx.%X>X5XiXiX#X7.w.>X2Xx.#X>X",
"%X1X1X6X6X1X>X:Xx.z.d.d.:X%X>X>Xu.i.x.wX1X1Xu.8.h.6XwXuX6XwX1X:X5XwXwXiXiXpXwX1XwXwXwX1X5X1X6XrXiXwX6X1X%X>X6X1X>X#X>X1X#Xz.1XrXwX6Xj.u.#X6X1X#X>X1X1XrX6X1X1X:X",
"h.1X1X>Xd.i.h.1X>X1XwX3X>Xx.w.8.#Xx.u.u.1XwX5XwX6XwX#X#X#Xs.d.u.h.d.h.h.h.x.:X1X#Xj.x.x.1X6X%X:X#Xx.#XwXwX1Xd.d.#X%Xz.d.5XwX%X5X1Xx.x.5X>Xh.u.u.>X1X1X#Xd.i.x.1X"
};
