/* XPM */
static char *_9071e6259684b2ff8d00e206e82650clTGJqzHORuERkGYc[] = {
/* columns rows colors chars-per-pixel */
"80 80 210 2 ",
"   c #030101",
".  c #0A0201",
"X  c #090C03",
"o  c #01020A",
"O  c #130300",
"+  c #1C0A03",
"@  c #16130C",
"#  c #070914",
"$  c #0C1115",
"%  c #1C141F",
"&  c #270309",
"*  c #271715",
"=  c #301A1D",
"-  c #3D291E",
";  c #3C2F36",
":  c #421D0A",
">  c #431D14",
",  c #5E280E",
"<  c #4E2B18",
"1  c #4C301B",
"2  c #5D331D",
"3  c #69310C",
"4  c #6A361B",
"5  c #45282D",
"6  c #522C23",
"7  c #712F21",
"8  c #683A28",
"9  c #7A4117",
"0  c #754A31",
"q  c #863E0C",
"w  c #823F15",
"e  c #864117",
"r  c #944C16",
"t  c #AF551C",
"y  c #854326",
"u  c #8E4C2C",
"i  c #924821",
"p  c #9E4D26",
"a  c #9C4B2A",
"s  c #93532D",
"d  c #995229",
"f  c #A54A2B",
"g  c #A85429",
"h  c #B6552B",
"j  c #BC5D2D",
"k  c #AA5530",
"l  c #A35F32",
"z  c #B65D32",
"x  c #BA5D34",
"c  c #B8593B",
"v  c #A8623E",
"b  c #C45A30",
"n  c #C36527",
"m  c #D0652D",
"M  c #C66538",
"N  c #D96935",
"B  c #D87535",
"V  c #EC7429",
"C  c #F6782E",
"Z  c #F76F35",
"A  c #FE6E3B",
"S  c #E57839",
"D  c #EB7B39",
"F  c #F47433",
"G  c #FB7636",
"H  c #F37C34",
"J  c #FA7B36",
"K  c #F6733F",
"L  c #FC733C",
"P  c #F47D3B",
"I  c #FC7D3C",
"U  c #917A55",
"Y  c #BF6A43",
"T  c #CA6748",
"R  c #D76A43",
"E  c #FF6247",
"W  c #E47C40",
"Q  c #EC7E46",
"!  c #E87A4B",
"~  c #FD7442",
"^  c #F57E44",
"/  c #FD7D43",
"(  c #F47848",
")  c #FD7D4A",
"_  c #FF7B57",
"`  c #F48434",
"'  c #FD8336",
"]  c #FF8832",
"[  c #F5833C",
"{  c #FD833E",
"}  c #FC8A3D",
"|  c #F7973D",
" . c #F5A63B",
".. c #F7BD3F",
"X. c #F9BE3D",
"o. c #F9C83C",
"O. c #FDD63D",
"+. c #FCDB3C",
"@. c #FCE53B",
"#. c #FCE43E",
"$. c #9C825C",
"%. c #9C8664",
"&. c #9C8C64",
"*. c #9C8B6D",
"=. c #A48C64",
"-. c #A88A64",
";. c #A48D6C",
":. c #AC8E6C",
">. c #B48E6C",
",. c #A4926C",
"<. c #AC936C",
"1. c #AC9A6C",
"2. c #B4966C",
"3. c #B49A6C",
"4. c #AC8E74",
"5. c #A49474",
"6. c #AC9574",
"7. c #AC9B74",
"8. c #AC967C",
"9. c #AC9B7C",
"0. c #B49674",
"q. c #B49B74",
"w. c #BC9D74",
"e. c #B4967C",
"r. c #B49D7C",
"t. c #BC9E7C",
"y. c #ACA27C",
"u. c #B4A274",
"i. c #BCA274",
"p. c #B4A27C",
"a. c #BCA37C",
"s. c #BCAA7C",
"d. c #ED8141",
"f. c #F58243",
"g. c #FE8341",
"h. c #FE8A44",
"j. c #F7824B",
"k. c #FE844A",
"l. c #F68E48",
"z. c #FE8C4A",
"x. c #FE9344",
"c. c #F79E44",
"v. c #FF9B44",
"b. c #FD934C",
"n. c #FE9B4C",
"m. c #FE8551",
"M. c #FE8A53",
"N. c #FF9253",
"B. c #FF9A54",
"V. c #F9965D",
"C. c #FE9B5C",
"Z. c #FAA243",
"A. c #FCAF41",
"S. c #FDA349",
"D. c #FCB446",
"F. c #FCBD43",
"G. c #FDBD4A",
"H. c #FBA756",
"J. c #FDAB50",
"K. c #FFA45F",
"L. c #FFBE53",
"P. c #C4A57C",
"I. c #C4AA7C",
"U. c #FEA464",
"Y. c #FDC445",
"T. c #FBC749",
"R. c #F7D646",
"E. c #FED543",
"W. c #FEDA44",
"Q. c #FFD54B",
"!. c #FDDA4B",
"~. c #FFE041",
"^. c #FBE14A",
"/. c #FEE854",
"(. c #B49E84",
"). c #BC9E84",
"_. c #B4A384",
"`. c #BCA584",
"'. c #B4AA84",
"]. c #BCAA84",
"[. c #B4A28C",
"{. c #BCA68C",
"}. c #BCAC8C",
"|. c #BCB28C",
" X c #C49E84",
".X c #C4A684",
"XX c #C4AC84",
"oX c #CCAC84",
"OX c #C4A68C",
"+X c #C4AD8C",
"@X c #CCAE8C",
"#X c #C4B284",
"$X c #CCB284",
"%X c #C4B38C",
"&X c #CCB38C",
"*X c #C8BA8C",
"=X c #D4B48C",
"-X c #D4BA8C",
";X c #C8AE94",
":X c #C4B494",
">X c #CCB594",
",X c #C4BA94",
"<X c #CCBA94",
"1X c #CCBB9C",
"2X c #D4B694",
"3X c #D4BB94",
"4X c #D4B69C",
"5X c #D4BC9C",
"6X c #D4C39C",
"7X c #DCC29C",
/* pixels */
">X%X].`.%X5X>X`.7.+X>X+X7.6.<.r.+X`.6.7.q.`.%X,X%X&X`.XX`.=.,.+X].a.].XXr.<XXX].XXq.;.a.XXXX+X+XXXXXI.#X&X&X.X.X.Xq.0.;.<.7.a.].+X`.7.&.].`.,.>X%X].`.%X3X>X`.r.",
"`.].].%X>X%Xr.r.r.6.6.q.XX`.q.`.+X+X&XXX;.;.7.].XX].6.a.XX+Xr.o   a.XXXX`.q.r.q.5.a..Xp.t.XX+X&X<X3X&X&X].a.6.<.<.`.`.XX%X>X>X%X+X%XXX`.%X].`.`.].].%X>X%Xr.r.r.",
"p.`.a.q.7.7.6.,.6.+X+X`.<.7.a.+X`.6.;.q.@XXXr.%.+X%X`.p.q.a.XX  M ; ,.%.q.>X&XXXXX`.5X.X`.+XXX`.&X>X&X3X3X<X>X>X+Xq.r.a.a.`.r.p.XX`.`.q.].r.<.p.`.a.q.7.q.6.,.`.",
"p.XX<X<X3X>Xr.`.XX&X>X+XXX+X+XXX+X>X>X&X+X.Xa.a.;.a.<X@Xr.6.7.  H.  ].a.`.6.].`.r.&XXX].XX`.a.r.q..Xa.<.;.;.+X@XXX6.q.`.a.`.p.a.+X>X&XXX&X`.q.p.XX<X<X3X%Xr.`.+X",
"0.r.`..X].XXr.6.6.`.+X&Xa.a.`.r.8.+X+X].q.q.r.>X5X3X].q.;.XX+X  U.. `.`.].a.+X%XXX%X+X@X+XXX+XXX+X+X}.`.@X>X`.q.7.a.a.`.].XX`.a.p.`.XX`.6.<.:.0.r.`..X].`.r.6.6.",
"a.a.a.`.+XXX].>X>XXX+X+X`..X`.;.%.OX,X%X}.+X].].XX].].+X].`.].}.o   XX+X>X].XX%X+X].XX+X+XXX`.t.+X>X+X+XXX+X+X+X}.+X].a.p.r.XXXXXXt.t.:.a..Xt.a.a.a.`.+X.X].>X+X",
"].`.r.q.p.XXp.p.].`.<.;.a.%X3X+X+XXXa.p.$X&XXXa.a.a.a.a.XXXXp.&X<X].7.:X&Xa.].a.a.XX<Xq.7.*.,._.+Xr.%.p.+X+Xr.7.q.7.9.,.7.`.].7.5.=.,.7.a.].%X].`.r.q.p.+Xp.p.&X",
"a.].+XXX].XXp.].XXr.q.r.r.q.r.`.XX6.6.<.+X&X+X`.XX#X3X3X@Xa.q.].+XXX`.+Xp.XXq.q.>X<Xa.%X>X+X{.`..X`.+X`.r.+X+X`.`.`.a.+X%X+X].+X&X+X%X%X+X].+Xa.].+XXX].+Xp.].`.",
"+XXXa.XX+XXXp.+X>X>X&X`.6.`.&X+X`.XX+X+X<X&X+X+X.Xa.q.q.q.+X].XXp.6.a.`.>X+Xa.6.r.:X&X2X>X>X+X+X%X>X+X3X3X3X>X+X+X>X>X+X%X+X&X<X5X>X&X+X].XX+X+XXXa.XX+X`.p.+X<X",
"&X%X+X+XXX>X%X].].XX`.a.`.%X<Xp.r.<X>X2X+X`.r.`.a..XXX%X@X].XXa.XX+X>X5X+X`._.r.`.4Xr.r.`.6.6.q.+X+Xt.+X+Xr.r.q.r.r.r.q.`.&XXX+XXXXX+X&X3X<X&X&X%X+X+XXX>X%X].XX",
"q.`.&Xp.q.a.>X].`.+Xa.r.%XXXa.6.6.XX+X+X`.q.7.a.+XXX&X>X#Xu.a.;.q.`.6.;.6.>X>X%X&X`.>X`.XX0.q.XXr.q.6.r.r..X.X+XXXt.a.a.+X&X]..X].a.`.&X>X+X`.q.`.&Xp.q.%X>X].%X",
"`.<.%.q.`.r.].&X%X<.6.7.%.,.a.+Xa.r.%.;.r.r.r.6.a.a.`.a.XX&Xa.3X`.<.`.`.XX&X&XXXp.XX0.0.:.a.@X&X>X>X+X+X.X+X+X.Xt.0.r.`.+X.Xr.`.`.q.r.a.@X+X.X`.<.%.q.`.,.].&Xr.",
"a.a.a.XXXXXX`.].].r.a.+X&XXX`.a.a.+XXX+X+Xa.r.0.].r.r.a.t.:.&.%Xp.,.a.&X`.+X`.q.q.@Xp.    o     q.a.XXa.%X+X].%X<X%X#X.Xa.a..Xa.XX`.XXXXXXXX`.a.a.a.XXXXa.`.].`.",
"t.q.q.q.q.a.].`.r.a.p.7.a.r.t.0.<.<.].XXXXXXa.`.q.a.;.=.6.a.>X].+XXXa.].`.,.2.`.].a.  u p u e o XX&XoXt..X.XXX>X%Xr.u.XXXX&X`.p.XX+XXXa.q.t.a.t.q.q.q.q.a.].`.p.",
"q.a..XXX@X+X+X%X&X].`.XX+XXX`.r.`.>X].XXXXa.a.t.XX>Xa.t.`.+XXXXX+Xa.`.&X3XXXXXa.a.    m h.b.`   P..X.X0.r.t.].].+X+XXXa.a.q.;.=.2.=X+XXX+XXXa.q.a..XXX@X@X+X%X+X",
"XXXX&X>X&X@Xq.`.].`.a.p.%X+Xa.<.6.+X&X&XXX`.a.w.t.`.0.6.a.a.6.>X%XXX`.a.6.7.q.<.  q U.g.N.^ o >X.Xa.XX0.0.).`.`.`.p.`.2X&X&X+Xa.`.<.a.XXXX`.XXXXXX&X>X&X&Xq.`.XX",
"&X@XXX.Xa.a.XXr.5.p.+X&X=.6.r.t.`.&Xr.q.a.a..Xa.t.r.t.a.`.].@Xt.0.r.XX+XXX].XX  v J { I & . p.r.3X&X+X>X+X>X+X`.`.+X+X&X+XXXXXXX+X3X>X&X&X%XXX&X@XXX.Xa.a.XXr.6.",
"`.a.a.+X@XXX}.XXXXa.p.q.`.&X&Xa.`.+XXX].XX`.t.<.t. X>X2X&XXX Xt..Xq.`.3X`.a.a.  k I } P . . 0.-.XX].6.>X:X+X+XOXr.;.6.XXXX&XXXr.3.a.&X5X&XXXXX`.a.a.+X@Xa.}.XX].",
"`.a.a.`.`.a.q..X%X6.=.q.q.`.XX0.<.`.a.r.6.a.&X.X].].XX<X_.p.a.]..X+Xa.:.=.+X`.  x [ g.D : * a.:.7.%X&Xp.a.a.XXs.`.<.6.#X+Xs.a..X@X=X&XXX0.6.t.`.a.a.`.`.`.q..Xa.",
".Xa.`..X`.a.XX`.a.XXXXXX].q.6.`.P.+XXXXXXX`.a.a.XX>X.X+X&Xt.6.+X+X].`.a.<.`.+Xo z ^ g.j./ S % XXr.=.=.a.a.r.XXa.q.`..XP.a.t.6.<.=..X.Xa.`.XXa..Xa.`..X`.`.XX`..X",
"0.a.XXt.<.6.a.P.`.a.a.XX`.0.<..Xr.XXo     r.q.2X>X.X.X.X0.:.p.a.6.<.`.&X+X&X  C.} { } g.n.b.$ r..X.X.X@X@XoX@XoXt.P..X2.0.2.XX>X>X%XXX.XXXXX@X0.a.XXt.<.r.a.P.a.",
"`.`.a.r.t.`.XX+XXX]..X].XXa.XX+Xa.+X  > 8 XXXX&X+Xt..X`.0.0.q.&X&X+Xt.7.>X6.  B.J g.g.P h p   <.a.a.P. Xw.t.w.w.0..X@X=XoX.X&X>XXXXX.Xa.@X&X+X`.`.a.r.t.@XXX+XXX",
"w.`.XXa.q.r.<.;.,.XX+Xa.t..X@Xa.t.t.  T h.  XXp.<.6.r.q.XX6.=.r.a.`.].+X&XXX  B.H / k.I   o XX%Xa.r.t.q.w.t.r.r.p.a.s.XXXXI.q.<.=..Xa.q.q..X+Xw.`.XXa.q..X<.;.q.",
"`.<.$.0.r.t.a.a.a.p.a.a.`.XXXXa.XXr.  t z.  &Xa.%Xp.<X+X].9.P.a.a.r.%X<X#   ~ I h.[ M.g.O   ].;.6.P.+Xw.r.P.r.r.XXa.1.s.XX&Xa.t.0.q.r.t..XXXXX`.<.$.0.r.r.a.a.a.",
">X`.6.*.;.q.`.p.].%X_.r.q.=.;.&X+Xa.+X0 4   ].>X&X%X+X].`.>X6X%X%X%X`.  w M x.[ ) t 1 N O   <X>Xp.a.%X&X%XoX%Xa.].<X%X<.;.;.`.%X%X&XXX`.`.a.`.>X`.6.*.;.+X`.p.>X",
"&X&X&X@Xs.`.].r.5.7.7.`.XX6.7.5X&X`.a.XXXXXX+XXX:X%X&X>X+X].p.+X%X<X  s K f.g.] g.8   4 O p.`._.`.p.`.&X&X-X`._.q.].}.&X>X&X.Xa.].%X+Xa.>X3X&X&X&X&X@Xs.XX].r.7.",
"].a.q.6.q.`.p.+X>X>X5X5X].].&X3X+X%X>X&Xr.7.q.3X>X&X>X&X].q.:X%Xq.o   z.' ` ' g.g.4 o   U `.p.r.].+XXXXXXX@X5X5X+X].>X+X&X>Xq.7.`.`.a.r.&X<X+X].a.q.6.q.XXp.+X>X",
"%X>X:X&.%.7.<X>X>X<X`.r.].+X].r.a.;.<.].6X<X+Xa.a.`.+X].`.%X].].  N _ g.{ ) h.g.I 4   X `.`.}.:X_.].XXXXXX&X+X+Xo o >X%X%X+Xp.XX>X+X&X%XXX+X&X%X>X:X&.%.1X<X>X5X",
"6._.>X}.6.5.5X].9.,.,._.3X&X+X+X+X,.`.&X].a.`.a.6.r.XX].p.].%X  b / [ h.{ ' g./ g.<   r 5 q.r.`.`.p.r.s.oX&XP.o   !   p.+X%Xa.`.&X`.p.r.&X>Xa.6._.>X}.6.`.5X].6.",
"{.(.[.1X}.;X:X3X<X].%X>X>X+X%X5X&X+Xa.+X`..X%Xr.&XXXa.r.r.&X,Xo | / k.{ g.{ { { { y = W     %X>X%X& O . + +   $ - ^ . <X&X%X].XX`.XXXXXX>X%XXX{.(.[.1X}.1X:X3X}.",
"<.,.;.].<X<X&X&X&XXX`.XX:X`.7.].%X7.<.p.a.<.=.+X].].XX&X%X%X    k.f.' g.g.f.' g.z.J S J O o `.# 6 H { I / I   p.<.o o &X%X%X:X<X<X].`.}.,.,.].<.,.;.].<X>X&X&X+X",
"].XXp.].3X1X%X>X%Xa._.`.3X}.p.%X<X%X&XI.q.q.r.<.+XXXXX+XXX  d b.) k.k.h.g.{ g.{ I Q g./ h.P O W x.g.I g.3   XXp.p._.+X9.p.a.XX>X%Xq.].>X`.a.].].XXp.].3XXX%X>X+X",
"5X6X6X].`.a.+X+X`.`.`.].+XXX].a.].3Xq.r.].XXXX7X+XXXr.t.t.  g n./ ' ' ' f.g.f.h.' k.k.I h.I 2 ( ' / l.N   p.+X&X<XXX].%X<X>X:X6X5X5X+X].r.+X<X5X6X6X].`.`.+X+X`.",
"a.q.t.+Xa.t.XX(.q.`.+X&X<X<X&X+X].+Xa.;.a.&XXXa.<.r.+X`.`.  p h.k.[ g.{ } { g.{ g.{ { g.{ g.v.g.k.H K.  XX>XXXa.q.<.r.q.XX%Xa.`.`.%Xt.a.q.<.`.a.q.t.+Xa.`.XX(.r.",
">XXXp.XX+X].a.p.a.`.].].XX`.p.`.a.p.6.a.`.q.<.q.5.a.&X}.p.  p h.{ g.{ { g.g.g.g.g.g.g.g.g.{ g.g.' T   XXa.a.p.XX}.`.r.7.a.].XX`.a.`.a.>Xa.r.a.>XXXp.XX+X`.a.p.a.",
"7.5.7.,.7.].,.r.].XX.Xt.=.i.$XI.a.q.q.u.#X#Xa.].9.].%X+X].  p z.{ g.{ { g.g.g.g.g.g.g.g.g.g.g.g.f.M   `.r.q.+XXXa.+XXXa.].XXXXa.p.a.q.i.a.&Xa.7.5.7.,.7.].,.r.@X",
"].`.%XXX}.&X].r.r.t.0.r.#XI.a.*X&X<.1.7.%X&X%X#X,.y.%XXX].  p z.{ g.{ { g.g.g.g.g.g.g.{ g.g.{ h.n 0   `.q.6.q.r.`.`.XXXX].XX+XXXXX6.q.].r.a.q.].`.%XXX}.+X].r.p.",
"`.a.+XXX`.a.+XXXXX].XXXXa.r.a.w.<.XX}.%X:X].9.6.|.  . XXp.  p z.{ g.{ { g.g.g.g.g.g.g.{ g.g.{ z.i   a..X`.a.6.<.a.r.a.+Xa.a.`.a.a.`.`.>Xp.+X`.`.a.+XXX`.6.+XXXXX",
"t.a.`.a.`.t.a.&X+X<.+X&X+X+X`.>X>X:.;._._.;.*.+X  L   XXp.  p z.{ g.{ { g.g.g.g.g.g.g.{ { g.{ z.g   r..X`.a.XX&X+Xa.`.u.q.6.a.].].6.9.+X>X5Xr.t.a.`.a.`.r.a.&X6.",
"<.`.a.].XXa.<X&X%X].`.`.+X<X<Xp.].].1X5X+X].].  n z.  XXp.  g v.g.{ / / g.g.g.g.g.g.g.{ { g.{ z.g   &X`.r.a.`.`.XXr.t.&X&XXXXX+X$X`.+X3X+X%X+X<.`.a.].XXr.<X&X%X",
"7.&X:X&X%X`.%X].}.XXr.q.5X}.6.`.>X+X].s.q.p.o O k.x.  *.p.  a D ) g.h.{ g.g.g.g.g.g.g.{ { g.{ z.f   &Xa.a.+X+X.X].&X&X&X>X%Xr.u.a.&XXX].7.a.a.7.&X:X&X%X].%X].%X",
"y.%X%X:.6.].XX1X>X+XXX9.,.;.9.%X`.r.p.].&X%X  O P }   7.p.XX  . M.f.' f.g.g.g.g.g.g.g.{ { g.{ h.k   `.a.].&X&X&X].%X&X7.`.%X%X].+Xa.%X-X].s.#Xy.%X%X:.6.:XXX1X].",
"<X&Xp.;.a.<X<X&Xr.].<X>X].+X%X].XX%X<X%X%X  / } g.b.  a.5XXX    N.g.g.} g.g.g.g.g.{ g.g.g.g.{ h.k.N . a.@X3XXX+Xa.XXXX%X].`.].].r.XX%X&X].%X%X<X&Xp.;.a.6X<X&X7.",
"].p.6.6.XX:X%X].6.r.r.,.r.+X<X+X%Xa.%X%X<X  m.M.[ h.9   p.XX5X  z [ } / g.g.g.g.g.g.g.g.g.g.{ } { R   `.a.a.&X&X+X%X&X%X>X%X_.`.].3X<X>XXX+X%X].p.6.6.XX%X%X].<.",
">X&X+XXX%X].+X%X+X7.;.%.,.<.q.+X].r.q.].%X  ) M.g.{ k.c   5XXXp.  P h.h.g.g.g.g.g.g.g.g.g.g.g.} [ M o r..X&X`.a.a.a.XX`.7.;.`.&X+Xa.+X%X%X%X>X>X&X+XXX%X`.+X%X`.",
"@Xa.q.].|.].p.`.a.+X+XXX5X].a.+XXX%Xs.XXt.  Q g.' } f.L z.  p.5Xo ^ } g.{ g.g.g.g.{ g.g.g.g.{ { g.( z.  q.a.XX].XXXX+X5X%X`._.p.5.].%X>X%X%X+X@Xa.q.].|.7.p.`.p.",
">.0.a.'._.].9.&X<Xr.r.a.t.XX&X@X&XXX&X%Xq.  j.g.k.g.) h.x.d   5Xo P } k.{ g.{ { g.g.{ g.g.g.{ I j.{ b.g   +X+XXXXX&X&X:X%X}.]._.p.:X+X+X>X<X+X>.0.a.'._.%X9.&X`.",
"%XXX<.p.s.p.r.7.p.a.6.<.2.w.a.&X&Xa.I.&X  g.k.g.g.' g.' g.[ l     I z.' g.{ g.g.{ g.{ { { g.{ g.' f.} ` z   p.].].p.%X`.`.}.}.r._.p.a.p.<.6.q.%XXX<.p.s.XXr.7.XX",
"&X<X&XXX`.a.`.p.a.a.r.q.oXXXP.P.XX<XP.`.  z.P { g.} g.{ ) ` z.B.V.g.{ g.g.g.g.{ { h.g.h.g.g.{ g.g.} / [ h.h.  7.`.3X+Xp.r.`.+Xa.`.a.XX+X+X+X+X&X<X&XXX`.].`.p.`.",
";Xr.r.`.>X>Xp.XX+X+X+X.Xt.t.e.6.r.>Xw.6.  } { g.g.h.{ h./ { ( P d.[ { g.{ g.{ g.h.I I / f.{ g.g.I / / / { f.B   a.%.=.`.a.a.`.a.r.t.a.XX&X@X`.;Xr.r.`.>X.Xp.XXXX",
"+Xr.e.r.`.`.7.`.+Xa..X`.t.t.t.0.r.+XXXa.  N.{ / g./ } g.] g.} [ { ' g.' } g./ g.P b.L.| / g.{ g.g.g.' I { { ~   +Xa.`.p.r.r.+X&X>X`.q.;.6.a.+X+Xr.e.r.`.8.7.`..X",
"0.6.7.<.;.6.r.a.`.6.q.a.:.q..X.Xt.<.>XXX* V k.{ g.g.g.g.{ g.g.g.g.g.g.g.[ } ) I } Y.^.x.{ g.[ g.g.{ { g.g.{ [     >XXX@XXXXXXXXX`.`..X@X2X2X&X0.6.7.<.;.:.r.a.q.",
"oXXXa.&X&Xa.XX+X%X%X.Xr.w.w.XX=X&XI.@X>X+X. Q g.g.g.g.g.g.g.{ g.g.g.g.g.g.' g.J G.W.+.z.g.{ { g.g.{ g.I { g.) F S o r.a.P.XX.XXXoX@XXX.Xa.P.a.oXXXa.&X&X.XXX+X>X",
"`.a.t.q.0.q.6.0.w.t..XXX].a.I.&XXX&XXX&X%X  ) m.g.g.g.g.g.g.g.{ g.g.g.g.g.g.I ~ F.!.O.k./ ` / } g.{ g.( 7   j k.)   @Xq.6.:.;.0.q.<.r.a.6.<.6.`.a.t.q.0.t.6.0.t.",
"`.a.a.q.:.%.:.0.r.t.r.0.XXa.q.].XXXXq.q.t.o / k.g.g.g.g.{ g.g.g.g.g.g.g.f.{ g.K G.R.E.| g.g.{ g.{ { g.) y @ N m./ X %X`.XX+X&XoX.X`..X.Xa..X@X`.a.a.q.:.%.:.0.t.",
"a.0.6.`.a.r.@XXX`..X+XXXt..XoX:.0.@Xa.6.q.  [ k.g.g.g.g.g.g.g.g.g.g.g.g.h.{ g.Z F.O.!.#.x.~ } I g.g.{ { b.v.h.f.} n.  <X&X].r.r.t.r.`.XX&X@X.Xa.0.6.`.a.q.@XXX.X",
"5X2X&X>X+XXXXXa.q.6.0.6.r.XX@X:.<.q.r.XX@X  g.N.g.g.g.g.g.g.g.g.g.g.g.g.g.{ g.K F.E.W.+.} I I h.g.' { f.k.{ g.{ { h.. XX+X+X&X&X@Xa.a.`.a.XX&X5X2X&X>X+X`.XXa.6.",
"+X+X@Xr.<.q.7.6.<.a.XXa.+X+XXX>X%X+X`.+XXXr.  r I / f.g.g.{ g.g.g.g.g.{ g.' { A G.+.Q.E.| ) z.I g.g./ g.{ { g.g.{ h.  <X<X%X&X>X2XXX@X&X&XXX.X+X+X@Xr.<.`.7.6.r.",
"+X@X+X<.:.r.%XXX`.%X&X+X;.;.9.`.r.>X6.4.;.6.).  P } { g.' } g.g.g.g.g.{ k.k.[ ~ F.W.!.Q. . .} h.{ { } [ g.g.g.g.{ h.  <X>X%X>X&X>X2X&X+X&X>X&X+X@X+X<.:.@X%XXX.X",
"6.a.XX&X<X$XXX$X#Xi.XXXXXX$X&X].].'.XX&XXXXXXX  b.I k.g.g.{ g.{ { g.{ g.L / { G X.E.+.R./.Q./ ~ / [ { { g.{ g.{ { h.  a.a.`.<.<.q.s.].I.t.0.4.6.a.XX&X<XXXXX$Xa.",
"a.`.].`.a.q.q.r.a.q.q.;.w.q.w.6.<.r.+Xa.a.`.r.3X  ~ g./ ) { g.g.{ g.g.h.o.A.k.A ..E.E.W.W.O.F.' / { I g.{ } g.} { h.  `.a.9.6.q.a.].XXXX@X@X.Xa.`.].`.a.q.q.r.r.",
"p.`..X+XXXi.`.>X>X{.+X>X&X@XXX0.0.r.0.7.XX`.q.XXXX  f f.[ g.g.{ { g.g.h.E.R.o.D.E.W.E.+.+.O.W.X.c.k.g.g.{ g.g.} { h.  6.0.r.`.r.;.q.r.`.@Xa.t.p.`..X+XXXq.`.>X+X",
"+X`.6.6.q.r.e.r.r.0.r.`.r.0.6.:.6..Xq.q.r.a.`.<.=.<.  L } ^ g.g.{ g.g.h.O.^.+.!.~.Q.W.E.W.!.W.#.L./ f.g.g.g.g.} { h.  +Xa.0.`.+X@Xp.t.a.+X.XXX+X`.6.6.q.a.e.r.e.",
"`.(.r.+X>X<X+X`.a.`.`.a.+X;X+Xa.r.t.r.`.>X+Xr.r.&Xa.;.  n.P g.g.g.g.g.h.E.W.E.W.W.W.W.W.W.W.W.W.F.g.{ { [ { h.g.I h.  `.6.6.r.r.t.6.4.6.a.0.<.`.(.r.+X>X3X+X`.`.",
"(.6.4.a.`.a.+X&X&Xa.r.a.9._._.(.q.q.`.6.`.`.`.`.<.7.{.  n.I g.g.g.g.g.h.E.W.W.W.W.W.W.W.W.W.W.W.+.T.G } f./ ' { g.h.  OXr.(.+X`.r.t.6.0..X.XXX(.6.4.a.`.`.+X&X+X",
"|.#Xp.7.`.XX,.7.}.:XXX].9.6.5.].>X+X+X+Xr.;.;.r.p.p.p.  n.[ g.g.g.g.g.h.E.W.W.W.W.W.W.W.W.W.W.W.O.T.L } g.{ { g.P z.  XX`.a.}.].}.%X].+X<X].p.|.#Xp.7.`.p.,.7.&X",
"_.`.XXa.r.q.XX&X3X`.<.=.5.r.].].`.r.+XXXr.`.+X].XXt.r.  B.P g.g.g.g.g.h.E.W.W.W.W.W.W.W.W.W.W.W.!.Y./ k.k.g.f.} { z.  r.a.r._.%X%X`.p.`.&X+XXX_.`.XXa.r.q.XX&X&X",
"XXt.6.`.a.q.r.`..Xr.0.6.p.].+X+X].%X`.`.`.`.`..X+Xa.`.  B.I g.g.g.g.g.h.O.W.E.W.W.W.W.W.W.W.W.W.+.Y.L h.g.g.I k.k.z.  XX+XXX+X<X>X<.a.XX6.<.7.XXt.6.`.a.0.r.`.`.",
"r.`.+X`.a.`.r.`.+X+X+X&Xr.p.p.].]._.0.6.+X].r.&X5X%X@X  b.P g.g.g.g.g.h.O.W.E.W.W.W.W.W.W.W.W.W.E.Y.L h.g.g.g.J g.  >X<X>X+XXX&X>XXX+X&X>X=X&Xr.`.+X`.a.].r.`.&X",
"a.&X>X`.].|.r.].&X`.a.].%X+X+X+X:X<X1X>X+X&X>X>X].].p.  k S j.I { } g.l.D.o.W.Q.!.+.E.Q.W.Q.W.#.T.J.~ { ^ g.} { )   `.%XXXr.6.q.t.:.6.q.`.r.6.a.&X>X`.].%Xr.].%X",
"&X&X+Xp.].%XXX7.&.XX:Xp.;.,.r.p.p.r.+X+X;.9.>Xr.p.XX%X+X  Y z.} k.g.{ ' E S.^.@.!.W.W.E.W.E.#.^.D.L J g.h.h.k.H.C.  +X+X+X&X&Xt.0.:.:.0.<.:.0.&X&X+Xp.].|.XX7.6.",
"`.].].%X>X%Xr.r.r.6.6.q.XX`.q.`.+X+X&XXX;.;.7.].XX].6.a.XX  j } / I h.g.{ } J.!.W.E.W.+.W.E.O.n.h.} / g./ { {     `.`.XX%X>X>X%X+X%XXX`.%X].`.`.].].%X>X%Xr.r.r.",
"+X%X&X].XX+X+X`.`.%X:X&XXX@X&X>X>X`.`.XXXX+X&X>XXX>X%X>X].<.  , z.z.} k.k.h.g.A.K.Z.S.S. .Z.v./ ' ' g./ x.g.  t.r.t.q.].+X&X].a.a.&X&X+X&XXX].+X%X&X].XX].+X`.XX",
"p.`.a.q.7.7.6.,.6.+X+X`.<.7.a.+X`.6.;.q.@XXXr.%.+X%X`.p.q.a.XXo P S V g.g.{ I / ~ I / ~ I / L / h.{ } H ^ B   >X+Xq.r.a.a.`.r.p.XX`.`.q.].r.<.p.`.a.q.7.q.6.,.`.",
"0.r.`..X].XXr.6.6.`.+X&Xa.a.`.r.8.+X+X].q.q.r.>X5X3X].q.;.XX+Xa.  .   C f.I ^ ~ I I / / ) ^ / ^ I ^ N.      `.q.7.a.a.`.].XX`.a.p.`.XX`.6.<.:.0.r.`..X].`.r.6.6.",
"+XXXa.q.`.XX`.r.<.}.3X>Xa.XX+Xa.6.`.*XXXa.p.r.`.].+X&X>X].XXq.q.a.+X&X                          o   . ;.r.`.7.<.q.<X3XXX+X+X%X+X`.@X>X@X.X`.`.+XXXa.q.`.XX`.r.6.",
"a.a.a.`.+XXX].>X>XXX+X+X`..X`.;.%.OX,X%X}.+X].].XX].].+X].`.].}.&X&XXX+X>X].XX%X+X].XX+X+XXX`.t.+X>X+X+XXX+X+X+X}.+X].a.p.r.XXXXXXt.t.:.a..Xt.a.a.a.`.+X.X].>X+X",
"a.].+XXX].XXp.].XXr.q.r.r.q.r.`.XX6.6.<.+X&X+X`.XX#X3X3X@Xa.q.].+XXX`.+Xp.XXq.q.>X<Xa.%X>X+X{.`..X`.+X`.r.+X+X`.`.`.a.+X%X+X].+X&X+X%X%X+X].+Xa.].+XXX].+Xp.].`.",
"6.6.q.r.r.7.7.XX<XXX+XXX].XX+X3X3X`.-.<.XX@Xa.`.XXXXXX`.`.`.&X<X].p.9.5.6.5X:X`.+XXX+XXX`.+X&X>X6.<.a.6.;.`.+X>XXX6.`.&X].p.6.7.p.%X>X3X<XXXp.6.6.q.r.r.6.7.XX%X",
"&X%X+X+XXX>X%X].].XX`.a.`.%X<Xp.r.<X>X2X+X`.r.`.a..XXX%X@X].XXa.XX+X>X5X+X`._.r.`.4Xr.r.`.6.6.q.+X+Xt.+X+Xr.r.q.r.r.r.q.`.&XXX+XXXXX+X&X3X<X&X&X%X+X+XXX>X%X].XX"
};
