/* XPM */
static char *_e37e0c7052b4036d928a3acea3f9a0fjRIdnW5ghqQKZPvX[] = {
/* columns rows colors chars-per-pixel */
"80 80 217 2 ",
"   c #010102",
".  c #0A0004",
"X  c #000009",
"o  c #080008",
"O  c #110A02",
"+  c #020410",
"@  c #000A12",
"#  c #3C1D0B",
"$  c #311811",
"%  c #471E01",
"&  c #4B120A",
"*  c #4F2208",
"=  c #5B2308",
"-  c #4F241B",
";  c #592718",
":  c #652F0D",
">  c #643F12",
",  c #7A3917",
"<  c #54392E",
"1  c #6E3421",
"2  c #703C26",
"3  c #7B3C22",
"4  c #6F432A",
"5  c #7E462D",
"6  c #7C4A2C",
"7  c #803D23",
"8  c #903C24",
"9  c #9D4D06",
"0  c #85421B",
"q  c #8F441A",
"w  c #9D4A1B",
"e  c #A74B1E",
"r  c #AA581D",
"t  c #81432A",
"y  c #894629",
"u  c #8C492E",
"i  c #984726",
"p  c #935622",
"a  c #9F5421",
"s  c #884735",
"d  c #A14F2C",
"f  c #AD5127",
"g  c #B7592B",
"h  c #B45A2B",
"j  c #A85835",
"k  c #B35C34",
"l  c #BC5A32",
"z  c #BC5D3C",
"x  c #BB6626",
"c  c #BC6132",
"v  c #B4623C",
"b  c #C05B2F",
"n  c #C5672B",
"m  c #DA6424",
"M  c #D36A2A",
"N  c #C26234",
"B  c #CC6733",
"V  c #D66E3B",
"C  c #DC6D3D",
"Z  c #DD7238",
"A  c #E06C2F",
"S  c #E46D39",
"D  c #F56D39",
"F  c #FC6F3C",
"G  c #E7753A",
"H  c #F67735",
"J  c #FF7C36",
"K  c #F3753B",
"L  c #FD743D",
"P  c #F57C3D",
"I  c #FC7D3D",
"U  c #BC6545",
"Y  c #C56940",
"T  c #DB7644",
"R  c #E06A42",
"E  c #FA6C46",
"W  c #E67946",
"Q  c #FE7443",
"!  c #F57D43",
"~  c #FD7D43",
"^  c #F9784A",
"/  c #FF7D4A",
"(  c #FF7B51",
")  c #FD842A",
"_  c #FF882C",
"`  c #EC813A",
"'  c #F48534",
"]  c #FD8235",
"[  c #FD8934",
"{  c #F6843C",
"}  c #FD833D",
"|  c #FD8A3C",
" . c #FB9538",
".. c #FC9B3E",
"X. c #F4A13E",
"o. c #F9A93F",
"O. c #F8B83B",
"+. c #FBCA3F",
"@. c #FBD73E",
"#. c #FCE53F",
"$. c #9A855C",
"%. c #9C8664",
"&. c #9C8B67",
"*. c #A48664",
"=. c #A48C64",
"-. c #AC8E64",
";. c #A48D6C",
":. c #AC8E6C",
">. c #A4926C",
",. c #AC936C",
"<. c #AC9A6C",
"1. c #B4966C",
"2. c #B49A6C",
"3. c #AC8E74",
"4. c #B48E74",
"5. c #A49374",
"6. c #AC9574",
"7. c #AC9B74",
"8. c #AC967C",
"9. c #AC9B7C",
"0. c #B49574",
"q. c #B49B74",
"w. c #BC9C74",
"e. c #B4967C",
"r. c #B49D7C",
"t. c #BC9D7C",
"y. c #ACA27C",
"u. c #B4A274",
"i. c #BCA374",
"p. c #B4A27C",
"a. c #BCA37C",
"s. c #B4AA7C",
"d. c #BCAA7C",
"f. c #ED844D",
"g. c #F68341",
"h. c #FE8342",
"j. c #FE8A44",
"k. c #F78449",
"l. c #FE844A",
"z. c #FD8C4A",
"x. c #FC9343",
"c. c #FD9C44",
"v. c #FE954B",
"b. c #FF9B4D",
"n. c #EE8359",
"m. c #FD8354",
"M. c #FC8D50",
"N. c #FF8B58",
"B. c #FD9553",
"V. c #FD9955",
"C. c #FF935C",
"Z. c #FF9A5C",
"A. c #FBA543",
"S. c #FBAC44",
"D. c #FDA64D",
"F. c #F7BD43",
"G. c #FAB844",
"H. c #FBA654",
"J. c #FFAE5D",
"K. c #FFB85C",
"L. c #C4A47C",
"P. c #C4AA7C",
"I. c #FFA166",
"U. c #EFC241",
"Y. c #FCC645",
"T. c #FFD643",
"R. c #F5DA47",
"E. c #F7DC44",
"W. c #FED943",
"Q. c #FED54A",
"!. c #FEDA4A",
"~. c #FCE244",
"^. c #FFE34B",
"/. c #FEEC4F",
"(. c #FCF448",
"). c #FFE050",
"_. c #FFFC56",
"`. c #B49E84",
"'. c #BC9E84",
"]. c #B4A484",
"[. c #BCA584",
"{. c #B4AA84",
"}. c #BCAA84",
"|. c #BCA68C",
" X c #BCAC8C",
".X c #BCB288",
"XX c #C49E84",
"oX c #C4A684",
"OX c #C4AB84",
"+X c #CCAC84",
"@X c #C4A68C",
"#X c #C4AD8C",
"$X c #CCAD8C",
"%X c #C4B284",
"&X c #CCB284",
"*X c #C4B28C",
"=X c #CCB38C",
"-X c #C4BA8C",
";X c #CCBA8C",
":X c #D4B58C",
">X c #D4BA8C",
",X c #C3AE96",
"<X c #CCAE94",
"1X c #C4B494",
"2X c #CCB594",
"3X c #C4BA94",
"4X c #CCBB94",
"5X c #CCB69C",
"6X c #CCBC9C",
"7X c #D4B694",
"8X c #D4BB94",
"9X c #D4BD9C",
"0X c #DCBE9C",
"qX c #CCC29C",
"wX c #D4C294",
"eX c #D4C29C",
"rX c #DCC59C",
/* pixels */
"6.t.[.t.6.,.6.,.[.OX[.p.a.}.r.,.7.p.}.}.[.p.*X4X[.[. X1X Xr.].#Xp.a.p.7.,.6.q.    OX,.=.p.d.p.OXr.7.p.OXa.6.,.t.1.w.a.+X=X=XP.a.P.=X&XoXa.a.P.a.OXL.a.OX:X=X=XOX",
"t.r.q.r.a.a.r.:.6.q.6.,.r.OXOX[.}.p.7.[.2X8X#Xp.p.r.[.#X#Xa.[.1Xa.OX#X$X#X#X  $ 4   =XOXOX[.a.}.[.p.a.[.a.r.q.[.+XOXL.a.L.OX=X4XL.[.a.i.q.q.a.a.oXa.a.a.a.r.q.q.",
"a.[.a.0.0.a.#X=X#X=X#XOXOX*X=X#X*X=X1X-X*X*X XOX[.[.[.OX[.r.q.a.#X[.t.7.q.a.  ; p   [. Xa.r.[.r.a.p.r.a.p.t.r.0.0.q.t.oXa.t.[.a.oXa.a.a.a.a.q.a.6.q.q.q.6.-.,.q.",
"r.a.oXr.q.[.=X8X[.$X=X#X[.[.t.q.q.[.=Xa.;.%.=.r.[.a.a.a.[.a.r.p.t.a.OX$X=X$X  ; )  .  oX[.2X2XoXp.OX#XOX#X#XoXt.t.t.e.0.6.r.oX2Xw.6.q.a.oXq.0.q.a.[.oXOX[.a.[.$X",
"t.r.q.a.#X=X#Xt.;.0.r.t.t.a.a.r.*X=X*X#XOXa.[.a.p.r.r.OX#X=X2X2X[.q.;.;.6.a.#X=X    e.r.r.[.[.8.7.[.#XoXa.oX[.t.t.t.t.q.0.r.[.#XOXa.a.oXOX[.a.oXa.a.[.[.[.r.q.q.",
"oXoXr.0.q.t.a.r.L.[.oX[.L.[.$X2XOXOXOX#X=X2XOXa.$XOXOXOXOXOX[.L.[.oX$X:X7X7X=X#X0.6.7.r.,.;.6.:.r.a.[.q.6.q.a.a.:.q.oX#XoXt.q.,.2XOXa.r.t.[.OX=X#X#XoX#XOXoXt.r.",
"#X#XoX0.;.6.[.$X$XoXoXt.t.t.a.oXOX*X2X2X=X*X=X2X=X=X$XOXa.t.q.q.2X+X[.q.e.t.oXoXOX$X$X$X=X$XOX=X#X*X=X#XOXoXOX@X+X+XOXP.OXOX=X=X[.[.r.,.,.q.a.[.0.6.;.,.6.6.,.6.",
"OXoX[.a.OX$XOXa.r.w.r.t.t.L.[.oXoX[.q.6.0.r.r.a.a.L.OXL.oXOX+X=X$XOXoXoXa.L.a.oX+XOXa.w.=X=Xa.oXOX#X*X2X*XoXr.0.w.w.OX$X:X=XOXP.$X2X7X#XoX#X2X#X<X#XoX[.[.[.@X#X",
",.,.0.[.#X=X#Xa.a.w.q.2.,.,.,.,.,.,.6.q.[.OX$X#Xq.6.:.;.;.0.q.w.,.r.a.t.6.,.6.q.[.a.t.r.q.0.q.t.6.0.w.t.t.oXOX$X}.a.P.*X=XOXOX=XOX=X:X*Xa.0.q.a.a.[.#X=X$Xt.q.t.",
"oX[.a.[.OX#XOXa.#XOXoX[.a.[.OXOXOXOX[.OX#X$X*XOX[.OX#X=X=X+XoXt.[.oXoXa.a.oX$X=X[.a.a.t.q.:.%.%.:.0.r.t.t.r.0.,.OXa.q.t.}.OXOXOXq.q.0.t.OX=X=X=X#X#X$X#XOX$X#X$X",
"[.t.q.q.t.a.[.oX;.;.:.,.e.a.#X$X1X*X#XOXOX[.a.[.>.6.q.t.#X$X$X$Xw.a.a.OXOXOX[.a.t.r.[.#X=X=XOXoXt.oXOX$XOXoXa.t.a.t.6.,.1.t.a.a.6.q.a.a.q.q.t.a.0.0.6.:.,.r.oXa.",
"oXa.[.t.[.oX#X$X7X2X2X<X2X2X5X7X7X2X7X=X#XOXOXOX4X=X}.a.r.r.t.X X     $X=X$XoXa.a.0.6.q.[.a.r.q.$XOX[.oXoX#XOXoXt.oX+Xq.:.0.[.$Xa.6.;.q.=X0X2Xa.XXoXL.r.a.2X4X2X",
"2X=X2X#XOX[.a.a.r.'.r.'.a.'.t.`.[.OX#XOXOX[.#X#XOX#X#X=X=X=X  w H.c.b.X + OX=X8X9X7X=X=X2X#XOX[.OXa.q.6.6.0.6.,.r.OX$Xt.:.,.w.q.r.OX=X$Xr.6.0.r.L.$X$XoX=X9X9X=X",
"=X2X=X=XoXt.e.q.6.0.r.r.a.[.[.a.q.q.p.[.a.[.OX#XeX9X4X2X*XX - v l.! { 7 X X a.OXoXoXOX#X$X[.oXOX2X=X#X$X2X2X=X#XoXoX[.t.t.t.0.6.0.,.6.r.oXOX[.r.q.t.a.r.t.a.a.q.",
"OX#X=X#XoX[.OX#X=X=X=X=X#XoXa.t.#X#X$X=X2X2X2X8X4X4X*X*X=XX v.| l.z.} h.m   oXa.#X#X$XOXr.,.X X X 6.,.r.a.OXa.r.#X#XOX,X2X*X#X#X[.#X$XOXr.e.t.OX#X=X#X#XoXa.r.q.",
"6.0.q.q.q.q.[.$X[.L.OXOX+XOX&X=X2X8X2X4X8X8X8X8X4X2X*X=X2XX ..X X X ` V.S   =X+X#X$X#X[.,.X r } Z.X [.oX*X=X#Xa.;.;.9.[.[.r.[.2X6.3.;.;.6.'.[.#X*X#XOX[.q.:.:.4.",
"p.}.1X1X*X.X=XqX=Xd.a.a.a.a.a.L.r.a.#X#X[.r.6.6.a.a.[.q.,.,.q.a.d.X j.0 X 0.3.:.6.a.OX&XX u S I N.X X a.i.OXOXP.OX&X=X&X}.}.}.{.OX=X=XOXOXOX=X8X&Xa.q.a.#X#Xq.&.",
"*X*X=X4X4X9X9X9XrX8X=X[.t.w.oX=X#X#XOX[.[.[.OX#Xr.a.OXOXOX}.OX}.OX}.X X OXt.'.XX$X#X#Xa.a.X z J z.U X a.*X>X=X}.d.OX=X=X2X4X4XeXOXa.a.*X8X=XOXa.i.OXOX#X#X#X=XwX",
"r.a.[.a.[.a.a.p.6.6.6.6.6.6.0.r.[.a.9.:.%.$.%.%.[.a.9.6.6.q.a.[.}.OXOX=XOX$XoXt.a.[.}.a.[.X k l./ N X r.q.q.;.$.w.q.w.q.6.,.0.r.#Xa.q.a.[.r.[.8X&X=X=X#X[.r.7.7.",
"#X$X=X$XL.r.t.a.@X[.oX#X$X#Xt.6.q.t.[.[.OX#X[.r.6.0.r.[.[.r.;.%.q.r.[.$XOXX t.0.p.[.oX$X#XOXX X X X 2X#X|.#X2X2X=X$XOXt.0.0.q.r.0.7.[.OX[.q.t.OXOXa.6.;.;.6.p.}.",
"t.t.t.q.0.:.;.:.r.r.r.r.'.'.'.r.6.7.[.[.#X=XOX[.#Xa.0.r.[.#X$X2Xp.t.a.OXX m.  $X#X[.6.,.6.q.r.a.e.r.r.e.0.r.[.#Xr.0.6.:.:.6.t.oXq.q.q.r.a.[.r.,.=.,.a.[.[.[.1XeX",
"$X[.t.a.#X#XL.q.;.t.$X#Xa.r.[.#X=X#XOXr.a.#X Xa.6.6.r.$X9X2X#X[.[.a.[.X X V.  X #Xr.;.=.6.q.oX*X2X#X'.r.[.[.8.;.#X[.[.t.r.t.oX=X#X#X[.6.q.r.a.r.t.a.#X2X1X#X[.p.",
"oX[.a.oX#X$X#X[.0.OX=XoXq.,.>.,.p.r.6.;.6.[.#X[.[.6.6.r.r.r.t.[.6.3.X < , z.d s X `.r.[.#X2X4X8X#X[.a.[.[.[.a.r.#X,X#X[.a.r.t.t.r.[.=X2X#Xr.r.r.=Xa.,.;.`.#X#X X",
",.r.OX[.q.0.p.P.XXw.,.,.q.OXOXOX[.@Xa.r.t.OXa.6.@Xr.`.#X#X[.r.r.t.6.X x I.l.X X OX6.3.9.a.[.a.[.#X=X=X#Xa.r.a.OX9.].].[.`.q.r.q.[.6.6.[.[.[.t.[.,.7.[.|.#X X[.].",
"#Xa.6.r.#X=X#X[.a.r.q.7.r.a.1X9X#X#X#X#X[.].[.[.OX[.a.}. X}. X-X*X}.#XX X B.  t.OXOX    o     p.>.7. X=X1XOX}.}.9.6.5.r.}.2X1X#X#X#XoXr.;.;.6.r.p.p.p.p.p.}.p.6.",
"2X#X[.a.[.r.q.6.p.r.6.:.;.;.r.OXOXr.,.;.%.%.;.6.[.OX*X2X8X4X4X3Xa.6.>.a.X X t.t.*X  w d i p i     #X*X2X*X}.9.>.r.a.#X4X9X6X=X}.#X#X#Xp.r.}.#X=X*X*XOX#X#X*X-X=X",
";.6.r.[.p.[.OX#XoX[.a.r.q.r.OX6X#Xr.;.;.7.[.OX*Xr.a.r.r.].*X*X}.[.p.[.*X=X#XOX}.*X  } P ! I h.u ;   8X=X[.,.=.;.5.r.}.#X}.[.p.r.#XOX[.r.[.#X#X}.OXt.q.r.q.6.0.r.",
"r.oX#X#XoX[.#X=X9X2X*X#X[.p.[.#X2X#Xp.[.OX#X}.@XOX#XOXa.#X4X2X}.,.a.OX[.6.,.7.r.  c.j.j.j.} ] B.N.v     r.0.6.,.p.}.#X*X#X}.#X*X[.[.[.[.[.[.[.oX#Xa.r.[.oXq.6.q.",
";.6.q.p.[.OX#X2X#X#XOX#X=X<X#X=X#X[.OX#X#X#XX X X  XOX}.#X7XOX6.r.oXOXr.,.6.a.=X  _   i j.} { P ' P / f   =XoXa.9.[. X2X1X#X X[.>.;.6.OX[.6.r.#XOXr.0.a.#X[.a.[.",
"#XoX[.[.[.r.6.:.;.%.%.6.a.[.[.[.a.p.[.#X*XX 6 N N X #XoXOX=X2XOXOX#X=X=X2X:X=X#Xr.    0 B.{ } ~ } ! j.h   #X=X2Xr.p.p.[.}.}.a.].0.6.r.#X}.r.p.=X9X*X}.$X=X2X2X8X",
"[.OX#X2X8X9X2X#X=X#X[.#X#X#XOX[.#X#X[.[.X X h j.| X r.6.6.q.t.t.:.6.q.oX[.r.6.=.a.    y B.h.} h.} I | B   a.}.*X*X#X#X#X#X1X2X4X6X2X#X#X=X2X2X2X}.}.[.p.p.a.p.[.",
"[.[.#X2X8X2XoXr.3.=.;.6.r.[.oX#X#X#X}.X M.h.h.~ l.X =X2X=Xt.0.,.:.:.0.0.,.:.0.oX=X;.  3 b.} h.h.} h.] j.2 X p.;.;.>.r.p.p.p.r.r.#X#Xq.;.9.2X#Xr.p.OX2X-X#X#X*X*X",
";.6.a.OX#XOX#X#Xd.OXOXP.OX%X=X=Xa.oXoXX X j.I X X y.7.r.a.}.#X#X[.7.&.6.}.[.>.>.2X  B.k.} h.} h.} h.} ] ,   #X#X7.6.,.6.r.#X#X[.6.7.7.q.[.-X4X3X*X=Xp.[.OX[.p.=.",
"oXa.p.t.p.OX#X=X7X4X8X=X=X=X}.a.q.6.,.,.X j.^ X OX*X2XX X *X#XOX*XOX[.OX*X}.      $ | l.h.} } h.} h.l.] 3   q.[.OX[.q.6.[.#X#X#X=XOXr.;.;.7.].}.OX}.6.6.a.OX4X#X",
"#Xa.,.;.,.q.r.p.,.6.,.6.r.OXOXOX$XOXt.r.X b l X }.#X=XX l X a.[.=X=X#X#X=X  ( Q P I } h.h.} } } h.} l.} 3 X =X1XOX$X=X2X2X2X<X[.[.OX#XOX#X=X=X2XOX2XOX*X2X}.[.,.",
"9X*XoX[.}.#XOX[.$X=X2X=X2X8X8X4X#X2X2X#Xa.  X a.a.a.[.X ^ x.  *X[.[.q.    l.j.h.h.h.h.h.h.h.l.} h.J } j.,   q.X   7.a.OX#X[.r.6.;.q.oX$XOXr.:.%.#X*Xa.[.p.q.[.a.",
"OXOX}.OXOX[.a.r.;.q.oXa.r.,.;.;.OX#X$XOXr.6.q.p.[.a.[.X [ v.  =X2X=XX h v.h.h.~ h.h.h.h.} } l.} ] K j.j   q.  n.* @ #X#XOX#X#X2X2X=X2X#XoXa.t.a.;.a.#X4X$Xr.q.6.",
"#X#X$X#X#XOX#XOXr.#X#X Xa.[.$X2X=X[.q.7.r.a.a.p.[.}.OXX j c.  ;.;.  t R l.} { l.} } h.h.h.} J P Z V W c     : W % @ [.a.r.8.r.#X#X}.r.q.q.r.OX2X9X8X#X}.q.;.p.OX",
"a.a.a.a.a.r.r.q.[.a.t.6.%.;.r.[.a.7.,.q.#X4X8X2XOX#X#XoXX .     # ` ] } z.] h.~ } } I I I h.! h.C z 3   q.  z.g.% X #X#Xa.6.e.[.-XOX].a.p.r.a.[.}.#XOX=X2X}.#XOX",
"OX}.#X#X#XOX[.t.[.#X2X#X#X#XOX#X#X#X#X X#X#X}.}.a.X OX,X;.;.;.  0 x.I } h.l.} h.} } h.I I } } { S z 1   ;.X B.} * @ [.r.;.%.6.@X3X*X}. X#X}.a.}.OX}.q.}.#X}.OX[.",
"4X}.q.7.6.&.>.].a.#Xr.%.*.p.#X#X].r.7.q.r.7.9.6.X h X X OXOX[.  0 ] { } h.} } } ] h.J A.E.~ } ~ { v X p.q.X K.*   *X8X=X#X#XOXOXa.p.a.&X=XOXa.a.a.a.a.a.a.OX#XOX",
"a.a.*X2X=X#X|.[.#XoX[.#X#X[.r.#X$X#X[.[.[.[.a.[.X M Q K   OX  a P } } } h.h.} } ~ { L o.(.I h.h.N.  OX[.r.  X   r.q.r.r.[.OXp.6.6.,.q.#X=X#XL.[.OX%X=X8X8X$X[.a.",
"#X#XOX[.].#X=X2X7.6.,.a.[.6.;.[.[.#X2XOX7.6.[.2XX M C.z.  OX  e x.} h.h.h.h.h.h.} } H G._.I h.{ C.  4X*XOXX   a.}.OX#X*X8X8X=X[.-.,.r.OX$Xa.a.[.OXOX=XOX[.[.a.[.",
"=X2X7X2X=X2X#X#XoX*X2X#X2X8X8X8X9X2X#X#X2X2X2X#X#XX X X r.*X  k j.{ h.h.h.h.h.h.] h.{ l.h.h.h.l.M.  2X4X2X=X[.t.6.[.=X=X#X[.}.OX#X#X=X4X=X#XOX#XoXa.p.q.q.q.oX#X",
"r.6.r.[.p.6.6.q.6.#X#Xt.[.#X#Xr.r.r.q.r.q.r.r.t.q.[.=X#XOXX b.v.~ h.h.h.h.h.h.h.j.h.h.h.~ I } ~ z.  }.OXOX[.a.a.[.*X4X=Xp.r.OX4X2X7X=X#X[.r.a.[.a.oXOXOX*X$XOX}.",
"2X[.[.OX[.0.q.OX6.r.q.6.r.r.r.oXa.oX#XOX[.t.a.#Xa.#X=X$X}.  j.} h.h.h.h.h.h.h.h.h.h.h.h.} } ~ } j.  [.*X#Xa.r.a.*XOXa.r.6.6.r.OX#X#XOX[.q.7.r.a.#XOX#X=X2X%XOXu.",
"e.e.[.#XOXr.,.,.[.r.>.6.q.6.r.2X9Xr.;.:.#X2X[.*.;.q.r.r.a.  j.h.h.h.h.h.h.} } h.h.h.h.h.} h.| / z.  *X=X#Xa.r.0.2X#X#X=X*XOX#X*Xa.[.#XOX[.oX[.[.#X#X[.a.a.L.a.P.",
"0.e.0.:.6.a.$X=XOX2X2X#X2X#XoX#XOX#XoXt.q.0.r.t.[.#XoXt.r.  j.h.h.h.h.h.h.h.} } h.h.h.h.h.h.} h.m.  *Xr.,.6.7.q.%.>.a.*X#Xa.q.r.%.;.6.r.r.r.6.6.a.a.oX[.a.OXOX=X",
"p.p.}.1X2X*X*X*XOXq.a.OXp.a.*X#Xi.}.*X4X2X-X%X%XoXa.X   *X  j.h.h.h.h.h.h.h.h.h.} h.h.h.h.} k.~ z.Y o   q.p.        [.[.a.a.[.#XOX#X=X#Xa.r.0.0.}.r.q.r.a.t.6.:.",
"OXr.>.6.a.}.#X}.a.q.OXd.q.q.}.[.d.p.q.#X6XrX4XOXp.X T T X   j.} h.h.h.h.h.h.h.h.} h.h.h.} } } ~ ^ U X     X Q C #   [.OX#X[.oX#Xp.a.OXa.r.0.,.1.}.a.r.q.0.q.t.L.",
"[.p.}.#X#X}.#X#XL.OX=X+Xq.t.oXoXa.OX2X*X[.r.u.p.OXX k.[ >   j.h.h.h.} h.h.h.h.h.h.h.~ I I h.} h.~ W e y 6 f v.;   r.t.q.0.,.>.,.}.OX#XOXOXa.oX[.q.a.r.;.=.6.t.a.",
";.r.OX*X}.a.p.a.L.L.oXoXq.0.r.t.OX}.}.#X#X#XOXOXa.X / ) k   h.] { h.| } } h.h.h.h.} I ] x.} } / l.h.Z.h i x.b.  p.OX[.a.r.[.OX2X}.OXOXOXa.a.t.t.OX2X=Xa.t.[.$X#X",
"2XOX[.OX=X4X4X2X$XoXa.OXoX0.0.'.u.[.[.[.`.p.[.d.7XX g.h.| j.h.h.} } h.h.h.} } h.h.} F S.(.K ! } I h.h.| h.} B.  p.#Xa.q.,.6.a.#X=X=X*XOX[.a.r.w.t.[.oX0.6.a.oXa.",
"OX[.q.6.q.[.oXa.a.r.0.0.r.3.*.:.p.$X9X#X3.*.6.OXOXX h.I } g.} h.h.h.~ h.h.} } } h.I H G./.!. .} h.j.h.} l.} | I   =X2X[.p.a.OXOX}.OX*X#X$XOXOXOXoXOXL.r.[.=X2X*X",
"p.[.oXa.p.a.p.r.OX8X=X#X2X2X#X2X=X#X[.[.#X#X#X$X=XX k.l.} I ] } h.h.} h.} } h.h.l.} L S.W.#.c.} g.} I h.h.} h.k.  6.r.r.t.[.#X=Xr.q.a.a.a.oXa.a.t.r.r.t.a.[.OX}.",
"oXr.,.,.q.[.0.*.%.OX}.6.].2X1X#X#X#X@Xr.3.;.6.q.OXX n n ] } h.] } h.h.h.h.h.h.h.h.h.! A.T.!.A.h.h.h.} } ] l.} l.  =X=XOXa.[.OX#XOX}.OXOX[.t.q.,.t.XXOX2X7X=X}.OX",
"t.=X#X:.;.t.a.:.$.7.-X=Xd.p.a.a.OXOXd.[.q.,.6.9.%X#XX   l.} h.] ] h.} h.h.h.h.h.h.} ~ h.L ~.~.l.E h.} h.h.h.~ }   [.OX[.0.,.q.[.a.r.,.6.a.=X=XoX}.}.a.OX4X].,.p.",
"=XoX[.OXOXt.a.#X-X*XOX[.OX=X=XOXOXOX}.a.a.[.#X=XOXOXd.oXX J.j.f.} } h.h.h.} { { l.h.h.| Q ^.Q.~.^.h.h.l.h.h.I }   oX[.oX[.[.[.$Xp.a.oXOX=X*Xa.q.6.a.r.7.[.a.6.6.",
"r.6.w.#Xa.%.:.OXOXr.=.=.,.a.a.r.+XOXa.q.q.[.oXa.L.a.t.q.X j ) } } h.h.} h.] j.l.} } / ] Q ~.Q.E.!.} ] h.} l.} h.q   6.t.[.L.oX#XOXOXOXOX[.a.a.a.OX2X$XoX#X=X[.t.",
"q.a.[.}.a.q.6.r.oXoXoXoX+X$X$X+X+X$X+Xt.t.L.oXt.1.0.1.a.OX  v.x.L h.] } h.I I ~ P Q h.' L W.@.~.!.I I } } l.} l.Z.W   r.oXr.a.OX7XOX[.a.r.q.}.7X2XoXa.oXoX0.=.:.",
"2X*XOXOX2X4XOX,.a.a.a.L.'.XXw.t.0.w.w.0.q.oX$X$X:X+XoX+X=X2XX 9 v.h.~ h.} l.Q c.F.^ Q ( Q ~.E.!.!.+.P l.h.h.} h.| Z   =X#Xa.[.#XOX}.oXOXOXOX#X=X#Xt.t.oX[.0.6.0.",
"2X=X2X2X=X#X[.a.8X#XL.a.i.XXw.t.,.:.:.-.,.w.+X:X2.0.,.6.a.[.a.X & x.I } ] l.Q c.+.O.F.G.G.W.W.W.Q.G.E l.h.h.h.h.j.Z   2XOXr.t.OXr.a.a.[.OXOXOXa.t.a.#XOX[.7X8Xa.",
"*X=X4X8X2X}.OX*X#Xa.r.t.w.q.w.t.OXr.r.p.a.a.d.*XOXOXP.a.q.,.=.*.  b.P { l.I L ..T.T.W.T.T.W.!.T.Q.U.F h.h.} { ] l.A   oXa.t.r.t.q.a.a.q.r.OXOXp.,.6.r.r.q.OX#X6.",
"#Xp.>.6.}.9X}.;.=.6.L.#X[.w.r.L.#Xr.r.OX*Xa.<.2.d.OX=X=Xa.t.0.t.  v.P h.h.h.K X.T.T.W.W.W.W.W.W.T.G.D ^ h.] l.} j.S   [.a.OXoXr.,.[.#Xa.[.=X=Xa.*Xp.OX4X#X}.}.9.",
"4X-Xs.p.*X4X2X#X[.p.[.OX#XOXd.oX7.<.7.a.%X%X*X}.[.oXOX#X}.[.[.}.X c.~ l.l.~ | S.T.W.W.W.W.W.!.W.W.T.W.Y.} h.~ h.} V   a.].a.[.OX[.2X8X[.q.a.r.,.7.].#XOXa.6.,.0.",
"}.{.p.y.}.2X4X2X].p.a.*X=X=X*X+XwX-Xa.}.2X4X*Xa.,.;.;.7.[.*X*X#X  c.P } I | ).^.T.W.W.W.W.W.Q.W.W.W.~.Y.h.h.} } j.G   p.=X#X[.a.#X=XOXr.r.}.2X2X=X*X*X#X}.[.OX2X",
".X%X%X[.p.p.[.].OX[.p.[.=X=X=X>X].[.].q.r.}. X}.=X2X=X#XoXa.}.X   v.P h.h.P ~.~.W.W.W.W.W.W.W.W.Q.@.R.O.h.h.} } K l   =X9X=X[.[.a.OX#XOXOX#X#XOX1X*X*X=X2X#XOX}.",
"-X4X4X2X X[.p.r.*X}.#XOX*XOXOX$X#X9X9X#X[.}.2X#X#X=X2X}.q.7.X 5 = x.~ h.{ P !.!.W.W.W.W.W.W.!.W.Q.U.F } h.} } } h   =X9X8X#XOX*X2X=X}.r.7.q.#X8X2X=X=X2X=X}.r.q.",
"P.OX*X=X=X1X*X2X].OX2XeX8X%Xa.a.#X X[.[.#X5X2X#X[.a.q.,.7.[.  r B.{ h.} } ' ^.#.Q.Q.Q.!.@.W.Q.T.~.Y.F h.I h.} h.,   2X*X}.[.a.}.OX*X=X#Xa.[.*XeX4X=X*X*XOX[.a.OX",
"}.[.a.a.[.[. X1Xp.].}.OXOXOXOX=X#X#X#X*X2X8X2X2X*X*X#Xp.p.OX  8 z.~ h.} l.I F x.R.~.!.E.W.E.T./.~.L / ~ } } I Z.  #X}.a.r.a.r.;.,.}.9XeX4X#X}.a.a.[.OX#X}.[.}.*X",
"a.a.a.[.p.q.r.[.*X[.p.r.a.d.+X=XOXL.}.oXq.;.=.q.p.#X-X[.a.X l T I g.} h.~ ] h.j.D.~.Q.W.T.W.@.....l.h.] ' l.l.X 8X=X#XOX#X#Xq.>.[.=X2X}.a.[.OXa.6.r.[.OX}.p.[.}.",
"1.q.oX*X=X X*X2X4X*XOX*X8X=XOXL.a.,.,.a.+XOXOXOX4X=X*X[.}.X j.} I } h.h.} h.~ h.| S.D.X.A.c.o.| ~ ~ h.h.l.} H.X 2X#X*X8X9X=X#X#Xa.#X*X[.oX*XOXr.=XOX[.a.r.r.}.=X",
"=.;.,.OX#Xp.r.1X4X-X*X-Xd.u.p.}.;X-Xp.7.p.1X9X6X1X*X{.u.7.X S ] j.l.' h.l.l.~ h.~ Q Q Q L Q L h.l.} } h.g.[ ] X .X*X*X1X-X1X*X.X&XOXP.OXa.6.r.[.a.d.d.p.d.d.%X*X",
",.q.r.#X8X2X*X6X*X#X[.q.p.d.*X;X*X-X=X1X2X4X-X X=X*X*X*X1X4XO a l.Q ] P I { J h.! / ~ l.{ g.l.l.Q ' I ~ K x.  OX1X[.7.p.}.*X}.7.,.p.OXa.,.=.q.#X}.}.}.OX=X-X*X*X",
"&X=XOXa.}.p.6.6.#X1X*X#X1XeXeX=X-XOXp.p.p.].#X2X9.p.a.].OX2X*XX X X X X X X X X X X X X X X X X X X X X X X [.}.8X Xp.p.*X4X2X*X=XP.q.q.q.r.6.,.#XOX[.OX#XOX[.q.",
"a.OXa.r.p.#X#X1X[.|.#X#X2X=X#Xp.OX#X=X4X2XOX}.1X*X4X2X#X1XeX9X*X9X#X}.a.r.#X4X=X9XeXeX=X}.[.a.[.#X#X[.[.[.[.}.#X#XOX}.[.a.}.*X8Xq.r.a.}.OXOX=XrX#XOXa.r.t.t.t.r.",
"a.2X#Xr.q.p.a.[.|.[.r.].[.r.a.}.4X4X4X8X*X].p.#Xp.}.OXp.q.[.}.r.}.q.[.8X2XOX[.p.a.[.#X*Xa.6.7.a.1X[.].a. X2X2X2X#X2X2X#Xp.r.[.*X7XOXOX2X=Xr.q.OXr.t.a.a.a.a.OX$X",
"$.q.p.a.[.[.#X2X#X[.[.#X=X}.OX2X=XOXa.q.6.,.r.[.q.OX*X}.a.[.[.a.*Xt.a.[.q.,.[.2Xa.q.t.OX#Xa.t.[.OX`.q.r.[.#X=X2X4X4X=X=X#X}.OX#Xa.;.;.a.=XOXa.a.,.r.#X#X[.[.[.#X",
"%X4X4X=XOX[.r.[.r.r.a.[.OXOXa.a.2.p.OX X}.[.r.r.7.a.}.#XOX[.a.OX[.a.2X2Xa.r.a.OX2XOXp.[.OX#X}.[.a.p.a.a.[.}.}.a.OX[.p.a.[.a.a.p.6.a.OX[.q.,.q.q.5.a.1X=X Xp.p.}.",
"OX*X}.[.[.p.t.#X$XOXw.,.q.L.a.q.a.OXa.r.q.[.a.`.a.[.oXOX[.[.oX*X$X#X#XoXq.[.OX[.t.a.0.;.,.t.OX[.OX&X4X;X=XOXOXOXoX}.oXp.r.0.7.q.6.].a.6.a.=X=Xi.7.].*X1X}.].#X1X"
};
