/* XPM */
static char *_3766bf823154c77e6c681a983c2d564tY74TzEcUkuALoP2[] = {
/* columns rows colors chars-per-pixel */
"80 80 211 2 ",
"   c #010102",
".  c #0A0004",
"X  c #000009",
"o  c #080008",
"O  c #110A02",
"+  c #020410",
"@  c #000A12",
"#  c #3C1D0B",
"$  c #311811",
"%  c #471E01",
"&  c #4B120A",
"*  c #4F2208",
"=  c #5B2308",
"-  c #4F241B",
";  c #592718",
":  c #652F0D",
">  c #643F12",
",  c #7A3917",
"<  c #54392E",
"1  c #6E3421",
"2  c #703C26",
"3  c #7B3C22",
"4  c #6F432A",
"5  c #7E462D",
"6  c #7C4A2C",
"7  c #803D23",
"8  c #903C24",
"9  c #9D4D06",
"0  c #85421B",
"q  c #8F441A",
"w  c #9D4A1B",
"e  c #A74B1E",
"r  c #AA581D",
"t  c #81432A",
"y  c #894629",
"u  c #8C492E",
"i  c #984726",
"p  c #935622",
"a  c #9F5421",
"s  c #884735",
"d  c #A14F2C",
"f  c #AD5127",
"g  c #B7592B",
"h  c #B45A2B",
"j  c #A85835",
"k  c #B85B33",
"l  c #BC5D3C",
"z  c #BB6626",
"x  c #BC6132",
"c  c #B4623C",
"v  c #C05B2F",
"b  c #C5672B",
"n  c #DA6424",
"m  c #D36A2A",
"M  c #C26234",
"N  c #CC6733",
"B  c #D66E3B",
"V  c #DC6D3D",
"C  c #DD7238",
"Z  c #E06C2F",
"A  c #E46D39",
"S  c #F56D39",
"D  c #FC6F3C",
"F  c #E7753A",
"G  c #F67735",
"H  c #FF7C36",
"J  c #F3753B",
"K  c #FD743D",
"L  c #F57C3D",
"P  c #FC7D3D",
"I  c #BC6545",
"U  c #C56940",
"Y  c #DB7644",
"T  c #E06A42",
"R  c #FA6C46",
"E  c #E67946",
"W  c #FE7443",
"Q  c #F57D43",
"!  c #FD7D43",
"~  c #F9784A",
"^  c #FF7D4A",
"/  c #FF7B51",
"(  c #FD842A",
")  c #FF882C",
"_  c #EC813A",
"`  c #F48534",
"'  c #FD8235",
"]  c #FD8934",
"[  c #F6843C",
"{  c #FD833D",
"}  c #FD8A3C",
"|  c #FB9538",
" . c #FC9B3E",
".. c #F4A13E",
"X. c #F9A93F",
"o. c #F8B83B",
"O. c #FBCA3F",
"+. c #FBD73E",
"@. c #FCE53F",
"#. c #9C825C",
"$. c #9C8664",
"%. c #9C8C64",
"&. c #9C8A6C",
"*. c #A48C64",
"=. c #A88A64",
"-. c #A48D6C",
";. c #AC8E6C",
":. c #B48E6C",
">. c #A4936C",
",. c #AC936C",
"<. c #AC9A6C",
"1. c #B4986C",
"2. c #AC8E74",
"3. c #A49474",
"4. c #AC9574",
"5. c #AC9B74",
"6. c #AC967C",
"7. c #AC9B7C",
"8. c #B49674",
"9. c #B49B74",
"0. c #BC9C74",
"q. c #B4967C",
"w. c #B49D7C",
"e. c #BC9E7C",
"r. c #ACA27C",
"t. c #B4A274",
"y. c #BCA374",
"u. c #B4A27C",
"i. c #BCA37C",
"p. c #BCAA7C",
"a. c #ED844D",
"s. c #F68341",
"d. c #FE8342",
"f. c #FE8A44",
"g. c #F78449",
"h. c #FE844A",
"j. c #FD8C4A",
"k. c #FC9343",
"l. c #FD9C44",
"z. c #FE954B",
"x. c #FF9B4D",
"c. c #EE8359",
"v. c #FD8354",
"b. c #FC8D50",
"n. c #FF8B58",
"m. c #FD9553",
"M. c #FD9955",
"N. c #FF935C",
"B. c #FF9A5C",
"V. c #FBA543",
"C. c #FBAC44",
"Z. c #FDA64D",
"A. c #F7BD43",
"S. c #FAB844",
"D. c #FBA654",
"F. c #FFAE5D",
"G. c #FFB85C",
"H. c #C4A57C",
"J. c #C4AA7C",
"K. c #FFA166",
"L. c #EFC241",
"P. c #FCC645",
"I. c #FFD643",
"U. c #F5DA47",
"Y. c #F7DC44",
"T. c #FED943",
"R. c #FED54A",
"E. c #FEDA4A",
"W. c #FCE244",
"Q. c #FFE34B",
"!. c #FEEC4F",
"~. c #FCF448",
"^. c #FFE050",
"/. c #FFFC56",
"(. c #B49E84",
"). c #BC9E84",
"_. c #B4A484",
"`. c #BCA584",
"'. c #B4AA84",
"]. c #BCAA84",
"[. c #B4A28C",
"{. c #BCA68C",
"}. c #BCAC8C",
"|. c #BCB28C",
" X c #C49E84",
".X c #C4A684",
"XX c #C4AB84",
"oX c #CCAC84",
"OX c #C4A68C",
"+X c #C4AD8C",
"@X c #CCAE8C",
"#X c #C4B284",
"$X c #CCB284",
"%X c #C4B38C",
"&X c #CCB38C",
"*X c #C8BA8C",
"=X c #D4B58C",
"-X c #C4AE94",
";X c #C7AE97",
":X c #C4B494",
">X c #CCB594",
",X c #C4BB94",
"<X c #CCBB94",
"1X c #CCB69C",
"2X c #CCBC9C",
"3X c #D4B694",
"4X c #D4BB94",
"5X c #D4B69C",
"6X c #D4BD9C",
"7X c #D4C39C",
"8X c #D8C298",
/* pixels */
"5.XXe.9.`.i.8.w..X`.8.4.,.].+X+X].%X`.`.`.`.`..Xi.w.`.9.4.>X.X`.e.8.OX].+X>X>X`.`..X+X.X`.+X6X>X+X`.`.+X>Xu.`.+X].XX+XXX+X<X].,.i.`.4.5.w.e.4.9.i.9.w.`.`.w.8.,.",
"i.@Xi.i.XX.Xi.e.4.i.&X.Xi.`.}.:X+X`.>.-.XX`.w.+Xw.8.i.`.i.>X`..X+Xw.w.>XXX`.`.    4.9.`.XX+X+X+X+X&X+X&X+XXX+X+X`.i.}.XX+X3X4.w..Xw.,.i.&Xi.w.i..X`.e.9.i.XX&Xi.",
"4.i.&X+X`.].%Xw.&X%Xi.].%X+X+X+X:X<X2X>X+X&X>X>X].`.u.i.u.4.>.-.w.`.].w.&X>X  $ 4   +X4X6X>X&X+X+X+XXX`.+X`.`.`.`.%XXXw.4.9.e.;.4..X`.4.*.&X>X+X].|.w.].%X`.i.%X",
"8.&X&Xu.u.].|.XX%.4.:Xu.-.>.w.u.u.w.+X+X-.7.+Xw.XX>X%X+X%X%X:X]._.`.3.`.>X+X  ; p   +X4X>X.X2.*.4.w..X+X+X].+X+X+X+X+X&X&Xe.,.;.;.8.,.8..X&X+Xu.].%XXX5.4.XX:X-.",
"`.`.].].%X>X%Xw.w.w.4.9.`.`.9.`.+X+X&XXX-.-._.].].4.4.XX<Xw.].%Xi.`.XX`.9.w.  ; ( |   u.XX+X3X<X&X&X].i.9.,.,.`.`.XX%X>X>X%XXX%XXXXX%X`.&X].].].>X%Xw.w.w.4.4.`.",
"].+X%X+X].XX].+X`.XX:X&X:X@X&X>X>X`.`.XXXX+X&X>X>XXX%X].`.>.9.`.+X+X+XXX4X<X>XXX    ,.,.9.w.,.4.4.w.XXXX@Xe.w.e.9.].+X&X].i.`.&X&X+X&X].>X%X&X+XXX+X+X`.XX%X:X:X",
",.u.`.w.9.5.9.4.4.`.+X`.w.5.i.+X`.4.-.9.@XXX;.$.%Xi.`.9.`.XX+X&XXXu.$.9.>X&XXXXX`.%X.X].+XXX@X&X&X>X4X<X+X>X+X9.w.i.i.`.w.u.%X`.`.w.].,.,.`.i.w.5.5.4.>.`.+X+Xw.",
";.8.w.`..X].`.w.4.4.+X&X+Xi.`.w.6.+X+X].9.9.XX>X4X+X].-.u.+X`.i.].].`.].i.+X%XXX%X+X@X+XXX+Xw.+X}.i.@X>X&X9.5.i.i.`.].XX`.i.w.`.XX9.4.;.9.w.`.`.].XXw.4.4.`.+X+X",
"`.+XXXw.9.`.XX`.,.4.4X>X].XX+Xi.4.`.*XXXi.u.i.`.+XXX&X].+X9.4.9.+X+X4X,.].i.`.].,.i.i.i.w.w.`.i.4.$.w.`.i.,.9.<X4XXX+X+X%X+Xi.@X>Xi..X`.&XXXi.w.`.XX`.w.4.}.4X].",
"%X].`.9.9.u.+Xu.].&X,.-.,.%X4X+X+XXXi.u.$X&Xi.i.i.i.i.XX+Xu.].&X].3.:X&Xi.].i.i.XX].9.4.&.>.i.+X$.=.+X+X_.5.9.5.7.>.5.`.].5.>.*.>.u.i.%X>X`.w.9.u.XXu.u.&X`.,.,.",
"+Xi.].+XXX].+Xu.XX`.9.w.`.9.w.`.XX4.4.,.+X&XH.`.#X&X4X@X`.9.u.].XX`.+Xu.XX9.9.>X<Xi.%X&X+X{.+X.X+X+Xw.+X@X`.`.`.i.+X%X+X].+X%X+X%X+X+X+X+X].+X+X].XXu.].`.w.9.`.",
"+X+XXX`.XX+X`.u.>X<X&X`.e.`.&X+X`.XX+X+X<X&XXX+Xi.u.9.9..X].XXXX4.5.`.>X+Xi.4.w.:X>X3X&X>X+X.X%X+X>X4X4X6X+X+X>X>X+X%X+X&X<X4X>X&X+X].+X&XXXi.`.+XXXu.+X<X>X&Xe.",
"&X&X%XXX+XXX>X%X].XX`.i.i.%X<Xu.w.<X>X3X+X`.i.`..XXXXX@XXXXXi.X X     +X`._.w.`.5X4.w.u.4.4.4.+Xe.`.+Xw.w.9.w.w.w.9.`.&XXX+X].XX+X<X4X&X%X%X+XXXXX>X%X].XXXX`.i.",
"`.9.`.].u.9.%X>X`.%Xi.w.i.XXi.4.4.XX+X+X`.9.w.i.XX+X&X#XXXi.  w D.l.x.X + >X%X&X`.`.`.`.8.9.4.w.4.w.w..Xi.+XXXe.i.i.+X&X]..X`.i.`.>X>X`.9.`.&X].9.i.>X].%X+Xi.i.",
".X`.,.%.9.`.>.].%Xw.4.5.9.>.i.+Xi.w.$.-.w.w.4.4.i..X`.XXXXX - c h.Q [ 7 X X XXu.XXq.8.4.i.@XXX>X+X>X.X+XXX.Xe.8.w.`.+X.Xw.`.9.9.w.XX@X.Xi.,.$.%.`.w.].&Xw.,.4.9.",
"`.i.i.i.XXXXi.`.].`.i.+X>XXX`.i.i.+XXX+X+Xi.8.8.w.9.w.e.4.X z.} h.j.{ d.n   9.9.@Xu.].>X%X%XX X X u.%X+Xy.%X<X%X#X.Xi.i..Xi.&X`.XX+XXX`.`.i.i.i.XXXX`.].`.w.i.>X",
"i.e.9.9.9.9.i.].w.u.u.5.>.w.e.8.,.,.].XXXXXX.X`.i.w.-.4.e.X  .X X X _ M.A   `.].i.u.].+X].X r { B.X .X.Xi.>X%Xw.t.XXXX&X`.u.&X+XXXi.9.i.`.9.9.9.9.i.].`.u.i.u.>.",
"i.9.i.XXXX@X@X+X&X+X`.XX@XXX`.w.`.>X].XXXXi.e.e.>X&Xi.`.@XXXXXXXi.X f.0 X XXi.i.XXw.XX].X u A P n.X X e.XX].+X+XXXi.i.9.-.*.`.=X+XXX+Xi.9.i..XXX@X+X+X%X+X].`.@X",
"4X@X+Xi.i.i.9.6XXXXX>X+X].&X>Xu.i.XX].XX+X@XXXXXXXH.w.&X>X.XXX.X.X%XX X XXXX4X3X<X`.9.9.`.X l H j.I X ;.u.6X+X=.4.XXXX`.XXi.`.,.9.XX+X4X4X+XXXi.i.e.6X&XXX&X>X].",
"XX&X@X.X.Xi.i.XX3.4.+X&X+X4.w.e.`.&Xw.9.i.i.i.i.w.w.e.`.XX@XXXe.w..X+XXXXXXX+X9.9.`..Xu.i.X k h.^ M X >X&X`.`.+X+X&X+XXXXXXX&X4X>X&X&XXXi.@XXX.Xi.i.XXw.4.u.+X+X",
"XX`.i.XX+X@Xi.}.XX].u.9.w.&X&Xi.`.+XXX].XX`.9.,. XXX>X&X]. X Xe.9.4.4X`.XXX 9.9.i.w.,.9.`.8.X X X X :X+X+XOXw.-.4.XXXX&XXXw.4.i.&X4X&XXX&Xi.i.XX@XXX}.XX].i.u.w.",
"@X&Xe.9.XX&XXX@X@X+Xi.`.`..X`.`.`.@Xu.i.XX&Xi.9.i.w.5.i.4.].XX`.9.i.w.@XX v.  +Xi..X`.XXe.i.%X%X`.XX&XXXXX].i.`.+XXXXXp.i..X;X-.,.H.XX@X&Xe.4.9.&X@X@X#X+XXXi.`.",
"i..Xi.`..X`.`.XXi..XXXXXXX9.4.`.H.+XXXXXXX`.i.i.>X@X.X&X`.4.i.+X]..Xi.X X M.  X e.4.0.i.$.;.XXw.*.,.i.w.oXi.9.`..XH.i.e.4.,.*..X.X.X`.i.`.i.`.`.`.i.XX`..XXXXXXX",
"+X`.`.e.w.e.@XXXXXXX.X].`.i.XX+Xi.+XXX].XXXX+X&Xe.e..X8.4.9.`.&X+X].X < , j.d s X %XXX>X<XXXi.i.H.).0.e.8.0.8..X@X=XoX.X&X>X_.XX.X+X@X+XH.`.i.e.e.`.XX+XXX]..X`.",
"i.+XXX+X`.i.>X9.9.i.&Xi.9.+X>XXXw.XXw.i.`.XXXXi.i.+XXX3X4X@X+X`.`.XXX z K.h.X X XX&X>X&X+X`.4X+Xi.y.0.e.,.;.=.0.oX1.8.,.i.`.w.&XXXi..Xi.w.XX+X+Xi.XX9.9.i.&X&X9.",
"XX`.,.$.8.w.w.i.i.i.i.i.i.XXXXi.XXw.,.`.i.`.&Xi.u.XX<X].].H.).i.w.`.<XX X m.  e.XXXX    o     4.+X`.w.H.+Xw.XXi.<.p.XX&Xi.e.e.9.w.i..XXX.X,.#.$.w.e.i.i.i.u.i.i.",
"w.i.4..X@Xi.4.`.w.-.9.].].9.u._.i.XX`.>X`.9.w.,._.+XXX4.,.].+X>X%X+X4Xi.X X e.e.%X  w d i p i     +Xp..X5.5.i.#X%X`..XXX].`.].<X`.+X%Xw.i.4.4..Xi.4.`.`.-.&.9.].",
"`.>X`.>.&.-.+X`.].>X_.w._.*.-.&X+Xi.+X&Xw.w.>X>X%X%X+X`.XX7X<X%X%X+Xi.&X9.5.i.}.%X  { L s.P d.u ;   %XoX8Xi.].<X%X,.-.-.`.%X+X&XXX].`.`.>X`.4.>.-.9.`.u.>X%X_._.",
"+X].i.,.4.9.XXu.>X>X6X6X%X].&X4X+X%X>X&Xw.5.+X4X&X&X>X].w.:X<X%X-.9.&X9.i.].+X&X  l.f.f.f.P { m.n.c     +X6X+X].>X+X&X>X9.5.&X`.i.u.&X+X5.i.9.,.9.`.u.+X>X>X6X%X",
"&XXX&X%XXX`.XX>X<X].}.%X].XX>X].`.].XX%X+Xi.X X X %X%X`.i.7.&X7Xi.u.w.XXw.i.+X].  )   i f.{ [ L ` L ^ f   `.`.1X>X`.i.9.5.`.+X`.+Xu.w.&X%X&X&X%X`.XX>X2X].`.}.].",
"i.4._.6X}.4.`.6X7.4.>._.>X&X+X+X+X>.`.&X].X 6 M M X XXu.`.%X%X%X%XXX*.`.+X`.9.XX&X    0 m.[ { ! { Q f.h   ]..X-.*.u.+X%Xi.`.3X`.u.].&Xi.>._.>X6X4.3.6X].4.>.>.>X",
"XX{.(.>X2X}.2X:X<X}.%X>X>X+X%X6X&X+Xi.+XX X h f.} X i.w.].,X%X%X%X+X>X2X`.`.].y.9.    y m.d.{ d.{ P } N   ,.i.XXXX<X&X%X].XX,.XXXX%X>XXX`.(.[.>X}.;X:X4X}.].%X>X",
"].,.>.4.].<X>X&X&X+X`.XXXX`.5.].%X5.,.X b.d.h.! h.X XX%X%Xi..Xi.t.e.9.i.9.0.i.XX4.-.  3 x.{ d.h.{ d.{ f.2 X :X<X%X&X%X%X:X<X6X].`.i.>.].%X>.-.4.<X<X&X&X+XXX`.XX",
"].].XXw.].4XXX%X%X+X_.`.].}.u.%X<X%X&XX X f.P X X r.XXXX`.1.9.0..XXXH.i.,.`.XXi.i.  m.g.{ d.{ d.{ d.{ [ ,   u._.+X7.u.i.XX>X].9.].%X`.].`.XXu.w.4X2X%X>X+Xi._.].",
"<X6X7X&X].`.`.+X`.`.`.].+XXX].i.].4X9.w.X f.~ X XXi.w.X X 9.w.i.+X&X`.e.9.XX      $ } h.d.{ { d.{ d.h.{ 3   <XXX].%X<X>X:X7X%X6X+Xi.w.<X&X7X7X&X`.i.+X+X`.`.`.+X",
"`.i.9.XX+Xi.`.XX9.w.+X&X>X<X&X+X].+Xi.-.X v k X w.+X+XX h X +Xi.5.9.u.`.`.  / W L P { d.d.{ { { h.{ h.{ 3 X 9.,.w.9.XX%Xi.`.i.%Xe.`.9.`.>X9.e.XXi.e.XX(.w.`.+X>X",
"i.>XXX`.XX+X`.i.i.i.].].i.`.u.`.i.u.4.i.`.  X 9.i.:X&XX ! k.  `.`.+X&X    h.f.d.d.d.d.d.d.d.h.{ d.H { f.,   9.X   5.i.].XX`.XX`.i.>Xi.i.XXXXu.`.+X].i.u.i.`.].i.",
"i.5.3.9.>.5.].>.].@X.Xe.:.y.$XJ.i.9.9.t.#X#Xu.].].:X%XX ] z.  %X>.4.X h z.d.d.! d.d.d.d.{ { h.{ ' J f.j   9.  c.* @ ].XXXXi.i.i.9.9.i.i.i.3.5.9.5.].>.w.@XXX.X:.",
"9.].`.<XXX}.+X].w.u.8.w..XJ.i.*X&X,.<.5.%X&XXX#Xr.%X%XX j l.  -.-.  t T h.{ s.h.{ { d.d.d.{ H L C B F x     : E % @ ].XX+XXX%X4.9.i.w.9.i.`.%X<X}.&X].w.u.e.8..X",
"`.`.`.`.e.e.,.9.+Xw.%X>X].8.-.u.`.w.u.>X<Xw.7.+X<X:X+X.XX .     # _ ' { f.' h.! { { P P P d.Q d.V l 3   9.  j.d.% X +X].%X&X+Xw.w.`.`.`.w.`.i.`.e.w.9.+Xw.w.%X].",
"w.e.i.e.i.`.w.i.+X4.+X&X].+X`.>X>X;.-._._.-.w.+X%XX XX;X-.-.-.  0 k.P { d.h.{ d.{ { d.P P { { [ F l 1   -.X M.{ * @ 9.4.i.].i.4.7.;X>Xw.4.i.`.e.`.e.i.&X4.,.+X].",
"+X,.`.i.].XXw.<X%X%X`.`.].<X<Xu.].].2X6X+X].+X%XX h X X XXXX`.  0 [ [ { d.d.{ { { d.H V.Y.! { ^ [ c X u.9.X G.*   &X&XXXXX+X+X`.+X&X+X+X+X`.i.i.XXi.<X&X%X].`.].",
"u._.<X].}.].u.,X%X`.].&X>Xp.].%X].*X%X&X#XXX%X#XX m W J   XX  a L { { { d.d.d.d.^ [ K X.~.P h.{ n.  `.4XXX  X   4X].&XXX9.w.&X<XXXt.XXu.,.<X>X].].5.,X<X`.u.].>X",
"#Xr.%Xe.;.4.:XXX>X].XX7.*.-.7.%X`.w.u.].&X%XXX%XX m N.j.  XX  e k.{ d.d.d.d.d.d.{ { G S./.H d.[ N.  ].&Xw.X   %X&X5.`.%X%X].}.i.%X&X].#X&X%X%Xe.4.].XX2X].+XXX*.",
"%X].u.*.4.XX%X%X4.,.w.>.>.+X<X+X%Xi.%X%X<X>X9.4.5.X X X w.%X  h f.[ d.d.d.d.d.d.' d.` d.d.d.d.h.b.  i.i.+X&X+X%X&X%X>X%X_.`.}.4X<X#XXX%X%Xu.4.*.XX:X%X].,.w.w.>.",
"&X`.].XX+X>X%Xu.%X>XXX].+XXX`.w.XX8X7X%X5.4.+X4X>X+X+Xe.w.X x.z.! d.d.d.d.d.d.d.f.h.d.h.! P { ^ j.  XX+XXXXX].`.XX<X>X:Xu.7.+X>X>X+X+X&X%X].XXXX>X%Xu.XX>X<XXX+X",
"+X@Xi.u.].|.5.u.i.u.+XXX%X].i.+XXX%Xp.XXe.,.i.XXi.e.,.+X3X  f.{ d.d.d.d.d.{ { d.d.d.d.d.d.d.! { f.  9.i.+X].XXXX+X6X%X`._.u.-.].%X>X%X+X].i.9.u.|.].u.`.u.+X+X%X",
"].9.8.].<X<X].i.:XXX+Xu.u.4.w..Xw.*.5.i.].i.e.9.4X&XH.oX&X  f.d.d.d.d.d.d.d.{ { d.d.d.d.d.d.} ^ j.  +X&Xp.i.u.].].4.u.`.XX+X4X:X>X%X:X].w.8.w.].<X%Xi.%XXX%X+Xu.",
"+X:.8.'.'._.%X7.<X`.w.i.}.XX&X@X&XXX&X%X9.e.&X&XXXXX.XoX%X  f.d.d.d.d.d.d.d.d.d.d.d.d.{ d.d.{ h.v.  XX+XXXXXXX&X&X:X%X}.]._.5.:X+X+X>X+X_.8.i.'._.].7.&X`.w.w.}.",
"+X&X<XXXXX`.].`.i.`.w.9.`.XXH.H.XX<XH.`.y.9.i.i.i.i.X   %X  f.d.d.d.d.d.d.d.d.d.{ d.d.d.d.{ g.! j.U o   9.u.        w.`.+Xi.:Xi.XX@X+X+X&X<X&XXX`.i.`.u.`.i.w.`.",
"XXw.w.}.i.w.w.i.w.i.e.w.8.9.e.i.e.i..Xi.i.i.9.i.9.X Y Y X   f.{ d.d.d.d.d.d.d.d.{ d.d.d.{ { { ^ ~ I X     X W V #   `.`.`.w.i.+X`.5.9.XX&Xw.`.}.w.`.i.u.i.u.e.8.",
"+X+Xw.w.w.`.6.5.+X.X.X`.e.e.e.8.w.+XXXi..XXXi..Xi.X g.] >   f.d.d.d.{ { d.d.d.d.d.d.! P P d.{ d.! E e y 6 f z.;   u.w.w.+X&X>X`.9.-.4.+X&Xw.q.w.`.`.5.`..Xi..Xe.",
"&X8.4.w.,.-.;.w.`.9.9.i.i.9..X.Xe.,.>XXXw.e.XX&X+XX ^ ( h   h.' [ d.} d.{ { { { d.{ P ' k.{ { ^ h.d.B.h q k.x.  u.@XXXXXXXXXH.`..X=X3X&X+X4.5.w.-.4.w.i.9.4.9.i.",
".XXX@X@X&X@X&X+X&X+X.XXXOXoXXXXXXX&X`.`.,.,.i.`.4.X s.d.} f.d.d.{ { d.d.{ { { { d.{ D C.~.J Q { P d.d.} h.{ m.  u.&X&X@Xi.e.9.>XoX9.q..X.X@X@X@X@XXX+X%X+XXX.XOX",
"4.`.i.w.9.8.e.4.0.e..XXX@Xi.J.&XXX&XXX&X%Xi.9.i.`.X h.P { s.{ d.d.d.! d.d.{ d.d.h.P G S.!.E.| { h.f.d.{ h.{ } P   9.4.;.-.8.0.,.w.e.4.4.9.i.e.w.8.9.4.8.e.e..X@X",
"@X`.i.e.9.;.$.;.w.e.w.8.,.i.9.].XXXX9.9.e.XX&X&X+XX g.h.{ P { { d.d.{ d.d.d.d.d.h.{ K C.T.@.l.{ s.{ P h.d.{ h.g.  `.XX+X&XoXe.`..Xi.i.@X&Xi.i.e.;.$.;.8.e.e.w.,.",
".Xi.8.9.`.i.9.@X`..X+XXX.X.XoX;.8.@Xi.4.9.&X>Xi..XX b b { { d.{ { h.h.d.{ d.d.d.d.d.Q V.I.E.V.h.h.{ { { { h.{ h.  <X&X].w.w.e.w.`.@X&X.Xi.8.4.9.i.w.@XXX.X.X+X.X",
"&X6X3X&X>X+X`.XX9.4.8.4.,.XX@X;.,.9.w.XX@Xw.8.w.@X@XX   h.{ d.{ { h.{ d.{ { d.d.d.{ ! d.K W.W.h.R d.{ d.h.d.! {   XX+X+X&X&XXXi.i.i.i.&X4X3X&X&X+XXXXXi.4.4.8.,.",
".X+X+XXXw.,.`.5.,.w.XXi.w.+XXX>X%X+X`.+XXXw.e.XX&X+X+Xi.X F.f.a.{ { d.{ h.{ [ [ h.d.d.} W Q.R.W.Q.{ d.h.d.d.P {   <X<X%X&X>X>XXX@X3X&X.Xi.+X@XXX,.9.5.4.w.i.XXw.",
"&X+X@X`.,.;.@X%X`..X&X+Xi.-.7.`.w.>X4.2.-.4.`.+X+XXX`.;.X j ( { { h.d.[ d.{ f.h.{ { ^ [ W W.R.Y.E.{ { d.{ h.{ d.q   >X%X>X&X>X3X&X&X&X&XoX@X+X`.;.w.%XXX.X%X&Xi.",
"2.4.i.$X&X<XXXXX#Xi.XXXXJ.$X&X].].'.XX&XXXXX&X4Xi.9.i.+X9.  z.k.K d.[ { d.P P ! L W d.` K T.+.W.E.P P { { h.{ h.B.E   `.,.,.i.p.].i.e.2.;.i.XX$X<X$XXX$Xi.y.XXJ.",
".Xi.`.i.`.i.9.9.i.w.9.-.#.9.0.4.,.w.+Xi.i.`.`.4X&X&X+Xw.5.u.X 9 z.d.! d.{ h.W l.A.! W / W W.Y.E.E.O.L h.d.d.{ d.} C   7.4.9.`.].XX&X@X.Xe.`.].i.i.9.9.w.w.9.9.#.",
"e.u.`.@X+XXX9.`.>X+X+X>X>X@XXX8.8.w.8.5.XX`.e.XXi.4.-.4.u.>X&XX & k.P { { h.W l.O.o.A.S.S.I.I.T.R.S.R h.d.d.d.h.f.C   w.`.w.$.9.w.@X@Xe.8.`..X@XXXy.`.>X+X{.+X>X",
"i.+Xw.*.4.9.%X>X).w.`.6.-.`.`.w.e.&X+X+X4.9.i.w.i.+X>X+X`.XX+XXX  x.L [ h.P K  .I.I.T.I.I.T.E.T.R.L.D d.h.{ [ ' h.Z   w.6X>X`.`.i.XX+Xi.i.w.-.*.9..X>X+Xw.`.`.-.",
",.`.(.`.+X>X4X+Xi.`.`.i.w.;X+Xi.w.e.w.`.>X+Xw.w.i.,.-.+X+X%X>X+X  z.L d.d.d.J ..I.I.T.T.T.T.T.T.I.A.S ! h.{ h.{ f.A   4.w.w.`.4.2.`.i.,.,.(.w.`.>X<X+X`.`.`.`.w.",
"u.|.#X4.5.`.u.>.}.&XXX].].4.3.].>X+X+X+Xw.-.4.w.u.u.u.].u.%X}.w.X l.! h.h.! } C.I.T.T.T.T.T.E.I.T.I.T.P.{ d.! d.{ B   i.}.].%X%X].6X<Xu.&X#Xu.4.`.XX>.5.&X:XXX].",
"`.%X<X%XXXXX+X].%X>X].7.>.i.+X6X2X].+X+Xu.w.+X&X%XXX+X%X%X_.`.%X  l.L { P } ^.Q.I.T.T.T.T.T.E.I.T.I.W.P.d.d.{ { f.F   %X4X<X,Xi.4.i.].`.XX<X2X%XXX+X].+X>X%X].>.",
"XX_.`.`.i.w.9.XX4X&X,.*.-.w.].].`.w.+XXXw.`.+X].e.9.w.4.8.i.`.X   z.[ d.h.L W.W.T.T.T.T.T.T.I.I.R.+.U.o.d.d.{ { J k   w.'.%X].`.u.%X&XXX].`.XX`.w.9.XX&X&X`.,.-.",
"i.@Xi.i.XX.Xi.e.4.i.&X.Xi.`.}.:X+X`.>.-.XX`.w.+Xw.8.i.`.i.>XX 5 = k.! h.[ L E.E.T.T.T.T.T.T.E.T.R.L.D { d.{ { { h   }.XX+X3X4.w..Xw.,.i.&Xi.w.i..X`.e.9.i.XX&Xi.",
"&Xw.`.XX`.i.].w.+X&X+X&X>Xu.u.].]._.8.4.+X].u.&X%X].@X>X>X4X  r m.[ d.{ { ` Q.@.R.R.R.E.+.I.R.I.W.P.D d.P d.{ d.,   >X+XXX&XXXXX+X&X>X&X+X`.+XXXi.`.w.`.&X+X+X>X",
"8.&X&Xu.u.].|.XX%.4.:Xu.-.>.w.u.u.w.+X+X-.7.+Xw.XX>X%X+X%X%X  8 j.! d.{ d.P D k.U.W.E.Y.T.+.I.!.W.K ^ ! { { P B.  +X+X&X&Xe.,.;.;.8.,.8..X&X+Xu.].%XXX5.4.XX:X-.",
">.>X%Xu.`.%X4X>X5.w.>X+X+X4.,.w.+X`.4.5.9.`.<X,X&Xu.`.`.u.X k Y P s.{ d.^ [ d.f.Z.W.R.T.I.I.+. . .h.d.[ ` h.h.X 8.-.,.5.i.].+X`.5.4.].>.>.%X].u.%X6X>X`.w.+X>X+X",
"].+X%X+X].XX].+X`.XX:X&X:X@X&X>X>X`.`.XXXX+X&X>X>XXX%X].`.X f.{ P { d.d.' h.^ h.} C.Z...V.l.X.} ! Q d.d.h.{ D.X 9.].+X&X].i.`.&X&X+X&X].>X%X&X+XXX+X+X`.XX%X:X:X",
",.u.`.w.9.5.9.4.4.`.+X`.w.5.i.+X`.4.-.9.@XXX;.$.%Xi.`.9.`.X A ' f.h.` d.h.h.! f.! W W W K W K d.h.{ { d.s.] ' X w.i.i.`.w.u.%X`.`.w.].,.,.`.i.w.5.5.4.>.`.+X+Xw.",
"9.u.XX4X<X4X%Xw.XX+X>X+X+X+X+XXX+X>X>X&X+X.Xe.i.i.+X<Xw.9.5.O a h.W { L P [ H d.Q ^ ! h.[ s.h.Q W ` P ! J k.  4.9.`.i.`.u.i.&X>X&X+X&X9.5.XX<X4X4X>Xw.`.+X&X>X+X",
"`.+XXXw.9.`.XX`.,.4.4X>X].XX+Xi.4.`.*XXXi.u.i.`.+XXX&X].+X9.4.X X X X X X X X X X X X X X X X X X X X X X X 9.<X4XXX+X+X%X+Xi.@X>Xi..X`.&XXXi.w.`.XX`.w.4.}.4X].",
"e.i.i.e.`.+X.X].>X+X+X+X`..X`.-.$.OX,X%X}.+Xi.].].9.].].XX].].}.&X+X+X>X].XX%X+X].].+X+XXX`.`.+X+X+XXX+X+X+X}.+X].i.u.w.XXXX`.e.e.4.i.e.w.i.i.e.+XXX].>X+XXX+X`.",
"+Xi.].+XXX].+Xu.XX`.9.w.`.9.w.`.XX4.4.,.+X&XH.`.#X&X4X@X`.9.u.].XX`.+Xu.XX9.9.>X<Xi.%X&X+X{.+X.X+X+Xw.+X@X`.`.`.i.+X%X+X].+X%X+X%X+X+X+X+X].+X+X].XXu.].`.w.9.`.",
"u.4.4.w.w.w.4.5.<X%X+XXXi.XX+X4X4X`.=.,.XX@Xi.`.XX&XXX`.i.&X4X<Xu.w.3.4.6X:X`.+XXX+XXX_.+X&X5.4.i.`.-.`.`.>XXX4.`.&X].u.4.5.u.%X>X6X<Xu.5.4.9.w.w.5.5.XX%XXX+Xi.",
"&X&X%XXX+XXX>X%X].XX`.i.i.%X<Xu.w.<X>X3X+X`.i.`..XXXXX@XXXXXi.i.+X+X6X+X`._.w.`.5X4.w.u.4.4.4.+Xe.`.+Xw.w.9.w.w.w.9.`.&XXX+X].XX+X<X4X&X%X%X+XXXXX>X%X].XXXX`.i."
};
