/* XPM */
static char *d4d37f6bc662415cdd1a611952a82d71yXhtPtQZd42IggjA[] = {
/* columns rows colors chars-per-pixel */
"80 80 214 2 ",
"   c #030101",
".  c #0A0201",
"X  c #0C0B04",
"o  c #01040A",
"O  c #05090E",
"+  c #160A03",
"@  c #141300",
"#  c #060A16",
"$  c #161414",
"%  c #3F1B01",
"&  c #3A1B19",
"*  c #1B221B",
"=  c #3C2716",
"-  c #451F12",
";  c #46240B",
":  c #5B2A0A",
">  c #572C1D",
",  c #5B371B",
"<  c #622601",
"1  c #662D1A",
"2  c #623419",
"3  c #6B3319",
"4  c #773A16",
"5  c #622E20",
"6  c #6B3D29",
"7  c #773C25",
"8  c #68421E",
"9  c #7E4625",
"0  c #853E1C",
"q  c #8B3F1D",
"w  c #823322",
"e  c #86471C",
"r  c #8C471F",
"t  c #AB561D",
"y  c #B95719",
"u  c #874727",
"i  c #934C2F",
"p  c #9A5728",
"a  c #824530",
"s  c #9E4D32",
"d  c #995530",
"f  c #B24E2E",
"g  c #A8572A",
"h  c #B5552B",
"j  c #BE5F2C",
"k  c #A75B34",
"l  c #A75A35",
"z  c #B95A37",
"x  c #B86839",
"c  c #C45D28",
"v  c #C05E31",
"b  c #C26428",
"n  c #D26B2B",
"m  c #D4722B",
"M  c #C26334",
"N  c #C6653D",
"B  c #D96937",
"V  c #D7733C",
"C  c #E26D2B",
"Z  c #E4742A",
"A  c #F77829",
"S  c #E36B33",
"D  c #FF6F3C",
"F  c #E67637",
"G  c #F47A36",
"H  c #FE7D35",
"J  c #FC753D",
"K  c #F57B3B",
"L  c #FC7D3C",
"P  c #C96042",
"I  c #DD7547",
"U  c #EC6D47",
"Y  c #EB7345",
"T  c #E77941",
"R  c #FF7444",
"E  c #F67C43",
"W  c #FD7C43",
"Q  c #FE764A",
"!  c #FC7B4B",
"~  c #FB7D53",
"^  c #ED863B",
"/  c #F48732",
"(  c #FC8236",
")  c #FE8A35",
"_  c #F5823C",
"`  c #FD823D",
"'  c #FD8A3D",
"]  c #FE943E",
"[  c #F99A38",
"{  c #FFAA3F",
"}  c #FDB83B",
"|  c #FFC739",
" . c #FDD33F",
".. c #F7DC3D",
"X. c #FDDA3F",
"o. c #F4E33B",
"O. c #9A855C",
"+. c #9C8664",
"@. c #9C8D67",
"#. c #A48664",
"$. c #A48C64",
"%. c #AC8E64",
"&. c #A48D6C",
"*. c #AC8E6C",
"=. c #A4926C",
"-. c #AC936C",
";. c #AC9A6C",
":. c #B4966C",
">. c #B49A6C",
",. c #AC8E74",
"<. c #B48E74",
"1. c #A49374",
"2. c #AC9574",
"3. c #AC9B74",
"4. c #AC967C",
"5. c #AC9B7C",
"6. c #B49574",
"7. c #B49B74",
"8. c #BC9C74",
"9. c #B4967C",
"0. c #B49D7C",
"q. c #BC9E7C",
"w. c #ACA27C",
"e. c #B4A274",
"r. c #BCA374",
"t. c #B4A27C",
"y. c #BCA37C",
"u. c #B4AA7C",
"i. c #BCAA7C",
"p. c #ED8747",
"a. c #F58243",
"s. c #FE8341",
"d. c #F68843",
"f. c #FE8C44",
"g. c #F7854C",
"h. c #FE844A",
"j. c #F68948",
"k. c #FD8B4A",
"l. c #FE9343",
"z. c #F69A46",
"x. c #FE9C46",
"c. c #FE924B",
"v. c #FE9B4D",
"b. c #FF8653",
"n. c #FE8B53",
"m. c #FB8459",
"M. c #FE9453",
"N. c #FE9A53",
"B. c #FC945B",
"V. c #FE9D5A",
"C. c #FBA443",
"Z. c #FBA742",
"A. c #FDA24D",
"S. c #FAB943",
"D. c #FDA555",
"F. c #FEA15C",
"G. c #FFAA5B",
"H. c #C4A47C",
"J. c #C4AA7C",
"K. c #FFAE62",
"L. c #FCCA43",
"P. c #F8C945",
"I. c #FDD642",
"U. c #F6DB41",
"Y. c #FEDA44",
"T. c #FED64B",
"R. c #FFD94A",
"E. c #FFC952",
"W. c #FBD651",
"Q. c #F5E344",
"!. c #FEE444",
"~. c #FEEB46",
"^. c #FFE54A",
"/. c #FDEC4B",
"(. c #FEFB4A",
"). c #B49E84",
"_. c #BC9E84",
"`. c #B4A484",
"'. c #BCA584",
"]. c #B4AA84",
"[. c #BCAA84",
"{. c #BCA68C",
"}. c #BCAC8C",
"|. c #BCB288",
" X c #C49E84",
".X c #C4A684",
"XX c #C4AB84",
"oX c #CCAC84",
"OX c #C4A68C",
"+X c #C4AD8C",
"@X c #CCAE8C",
"#X c #C4B284",
"$X c #CCB284",
"%X c #C4B28C",
"&X c #CCB38C",
"*X c #C4BA8C",
"=X c #CCBA8C",
"-X c #D4B58C",
";X c #D4BA8C",
":X c #C4AE94",
">X c #CCAE94",
",X c #C4B494",
"<X c #CCB594",
"1X c #C4BA94",
"2X c #CCBB94",
"3X c #CCB69C",
"4X c #CCBC9C",
"5X c #D4B694",
"6X c #D4BB94",
"7X c #D4BD9C",
"8X c #DCBE9C",
"9X c #CCC29C",
"0X c #D4C29C",
"qX c #D8C398",
/* pixels */
"2.q.'.q.2.-.2.-.'.XX'.t.y.[.0.-.3.t.[.[.'.t.%X2X'.'.}.,X}.0.`.+Xt.y.t.3.-.2.7.'.%XXX-.$.t.i.t.XX0.3.t.XXy.2.-.q.:.8.y.oX&X&XJ.y.J.&X$X.Xy.y.J.y.XXH.y.XX-X&X&XXX",
"q.0.7.0.y.y.0.*.2.7.2.-.0.XXXX'.[.t.3.'.<X6X+Xt.t.0.'.+X+Xy.'.,Xy.XX+X@X+X+X+X&X&X2X&XXXXX'.y.[.'.t.y.'.y.0.7.'.oXXXH.y.H.XX&X2XH.'.y.r.7.7.y.y..Xy.y.y.y.0.7.7.",
"y.'.y.6.6.y.+X&X+X&X+XXXXX%X&X+X%X&X,X%X%X%X}.XX'.'.'.XX'.0.7.y.+X'.q.3.7.y.XX&X0.0.'.}.y.0.'.0.y.t.0.y.t.q.0.6.6.7.q..Xy.q.'.y..Xy.y.y.y.y.7.y.2.7.7.7.2.%.-.7.",
"0.y..X0.7.'.&X6X'.@X&X+X'.'.q.7.7.'.&Xy.&.+.$.0.'.y.y.y.'.y.0.t.q.y.XX@X&X@X'.0.>X0.0..X'.<X<X.Xt.XX+XXX+X+X.Xq.q.q.9.6.2.0..X<X8.2.7.y..X7.6.7.y.'..XXX'.y.'.@X",
"q.0.7.y.+X&X+Xq.&.6.0.q.q.y.y.0.%X&X%X+XXXy.'.y.t.0.0.XX+X&X<X<X'.7.&.&.2.y.+X&X              4.3.'.+X.Xy..X'.q.q.q.q.7.6.0.'.+XXXy.y..XXX'.y..Xy.y.'.'.'.0.7.7.",
".X.X0.6.7.q.y.0.H.'..X'.H.'.@X<XXXXXXX+X&X<XXXy.@XXXXXXXXXXX'.H.'..X@X-X5X5X    < 2 3 2 1 1 3   0.y.'.7.2.7.y.y.*.7..X+X.Xq.7.-.<XXXy.0.q.'.XX&X+X+X.X+XXX.Xq.0.",
"+X+X.X6.&.2.'.@X@X.X.Xq.q.q.y..XXX%X<X<X&X%X&X<X&X&X@XXXy.q.7.7.<XoX'.7.9.q.  & K.x.v.v.z.D.x.  +X%X&X+XXX.XXXOXoXoXXXJ.XXXX&X&X'.'.0.-.-.7.y.'.6.2.&.-.2.2.-.2.",
"XX.X'.y.XX@XXXy.0.8.0.q.q.H.'..X.X'.7.2.6.0.0.y.y.H.XXH..XXXoX&X@XXX.X.Xy.  f.f.L ` j.f.k.f.f.O XX+X%X<X%X.X0.6.8.8.XX@X-X&XXXJ.@X<X5X+X.X+X<X+X>X+X.X'.'.'.OX+X",
"-.-.6.'.+X&X+Xy.y.8.7.>.-.-.-.-.-.-.2.7.'.XX@X+X7.2.*.&.&.6.7.8.-.0.y.q.2.. N.W ! ` d ; ; F s.o 2.6.8.q.q..XXX@X[.y.J.%X&XXXXX&XXX&X-X%Xy.6.7.y.y.'.+X&X@Xq.7.q.",
".X'.y.'.XX+XXXy.+XXX.X'.y.'.XXXXXXXX'.XX+X@X%XXX'.XX+X&X&XoX.Xq.'..X.Xy.y.  j.A a.k.>     p.G.O *.6.0.q.q.0.6.-.XXy.7.q.[.XXXXXX7.7.6.q.XX&X&X&X+X+X@X+XXX@X+X@X",
"'.q.7.7.q.y.'..X&.&.*.-.9.y.+X@X,X%X+XXXXX'.y.'.=.2.7.q.+X@X@X@X8.y.y.XX  q k.d.g.k.6   q.7 4 $ q..XXX@XXX.Xy.q.y.q.2.-.:.q.y.y.2.7.y.y.7.7.q.y.6.6.2.*.-.0..Xy.",
".Xy.'.q.'..X+X@X5X<X<X>X<X<X3X5X5X<X5X&X+XXXXXXX2X&X[.y.0.0.q.q.0.'.XX@X  k.          7.'.y.0.7.@XXX'..X.X+XXX.Xq..XoX7.*.6.'.@Xy.2.&.7.&X8X<Xy. X.XH.0.y.<X2X<X",
"<X&X<X+XXX'.y.y.0._.0._.y._.q.).'.XX+XXXXX'.+X+XXX+X+X&X&X&X@XXXy.y.'.y.  ]   6X7X5X&X&X<X+XXX'.XXy.7.2.2.6.2.-.0.XX@Xq.*.-.8.7.0.XX&X@X0.2.6.0.H.@X@X.X&X7X7X&X",
"&X<X&X&X.Xq.9.7.2.6.0.0.y.'.'.y.7.7.t.'.y.'.XX+X0X7X2X<X%X'.3.-.q.q.y.0.    q.XX.X.XXX+X@X'..XXX<X&X+X@X<X<X&X+X.X.X'.q.q.q.6.2.6.-.2.0..XXX'.0.7.q.y.0.q.y.y.7.",
"XX+X&X+X.X'.XX+X&X&X&X&X+X.Xy.q.+X+X@X&X<X<X<X6X2X2X%X%X&X<X5X<XXX@X&X5Xt.  o y.+X+X@XXX0.-.7.'.3.2.-.0.y.XXy.0.+X+XXX:X<X%X+X+X'.+X@XXX0.9.q.XX+X&X+X+X.Xy.0.7.",
"2.6.7.7.7.7.'.@X'.H.XXXXoXXX$X&X<X6X<X2X6X6X6X6X2X<X%X&X<X&X<X<X5X&X+X&Xt.          +X'.-.*.0.@X%XXX'..X%X&X+Xy.&.&.5.'.'.0.'.<X2.,.&.&.2._.'.+X%X+XXX'.7.*.*.<.",
"t.[.,X,X%X|.&X9X&Xi.y.y.y.y.y.H.0.y.+X+X'.0.2.2.y.y.'.7.-.-.7.y.i.[.      [ k.c.G.  XX$X&X2X$XXXXX$X#Xy.r.XXXXJ.XX$X&X$X[.[.[.].XX&X&XXXXXXX&X6X$Xy.7.y.+X+X7.@.",
"%X%X&X2X2X7X7X7XqX6X&X'.q.8..X&X+X+XXX'.'.'.XX+X0.y.XXXXXX[.XX[.XX  D.V.c.Q ' k   +X+Xy.y.XXXXi.7.t.H.y.%X;X&X[.i.XX&X&X<X2X2X0XXXy.y.%X6X&XXXy.r.XXXX+X+X+X&XqX",
"0.y.'.y.'.y.y.t.2.2.2.2.2.2.6.0.'.y.5.*.+.O.+.+.'.y.5.2.2.7.y.'.    H _ G ( M.N   '.[.y.'.y.7.7.7.0.y.0.7.7.&.O.8.7.8.7.2.-.6.0.+Xy.7.y.'.0.'.6X$X&X&X+X'.0.3.3.",
"+X@X&X@XH.0.q.y.OX'..X+X@X+Xq.2.7.q.'.'.XX+X'.0.2.6.0.'.'.0.&.    ] g.s.( J V.c   '..X@X+XXXr.7.'.<X<X+X{.+X<X<X&X@XXXq.6.6.7.0.6.3.'.XX'.7.q.XXXXy.2.&.&.2.t.[.",
"q.q.q.7.6.*.&.*.0.0.0.0._._._.0.2.3.'.'.+X&XXX'.+Xy.6.0.'.+X@X    N.L ` s.W : 6       6.2.7.0.y.9.0.0.9.6.0.'.+X0.6.2.*.*.2.q..X7.7.7.0.y.'.0.-.$.-.y.'.'.'.,X0X",
"@X'.q.y.+X+XH.7.&.q.@X+Xy.0.'.+X&X+XXX0.y.+X}.y.2.2.0.@X7X<X    N k.( h.H k.  6.  p -   2.7..X%X<X+X_.0.'.'.4.&.+X'.'.q.0.q..X&X+X+X'.2.7.0.y.0.q.y.+X<X,X+X'.t.",
".X'.y..X+X@X+X'.6.XX&X.X7.-.=.-.t.0.2.&.2.'.+X'.'.2.2.0.0.0.  A.f.` s.s.h.d.      x.u . +X<X2X6X.         o y.0.+X:X+X'.y.0.q.q.0.'.&X<X+X0.0.0.&Xy.-.&.).+X+X}.",
"-.0.XX'.7.6.t.J. X8.-.-.7.XXXXXX'.OXy.0.q.XXy.2.OX0.).+X+X'.  ( ! ( s.` a.s.T a.m.f.6   y.'.y.$ I n.a.n.P   y.XX5.`.`.'.).7.0.7.'.2.2.'.'.'.q.'.-.3.'.{.+X}.'.`.",
"+Xy.2.0.+X&X+X'.y.0.7.3.0.y.,X7X+X+X+X+X'.`.'.'.XX'.y.[.}.[.  ] a.` s.s.s.` s.` ` k.8 o 0.6.  b E ~ l.    XX[.[.5.2.1.0.[.<X,X+X+X+X.X0.&.&.2.0.t.t.t.t.t.[.t.2.",
"<X+X'.y.'.0.7.2.t.0.2.*.&.&.0.XXXX0.-.&.+.+.&.2.'.XX%X<X6X2X  ] a.` s.` s.` ` ` ` h.8   0.    ] s.` C   %X[.5.=.0.y.+X2X7X4X&X[.+X+X+Xt.0.[.+X&X%X%XXX+X+X%X%X&X",
"&.2.0.'.t.'.XX+X.X'.y.0.7.0.XX4X+X0.&.&.3.'.XX%X0.y.0.0.`.%X  f.a.` s.` s.s.s.s.` f.2     C ( s.a.n.  &X'.-.$.&.1.0.[.+X[.'.t.0.+XXX'.0.'.+X+X[.XXq.7.0.7.2.6.0.",
"0..X+X+X.X'.+X&X7X<X%X+X'.t.'.+X<X+Xt.'.XX+X[.OXXX+XXXy.+X2X  f.a.` s.s.s.s.s.` ` s.,     F f.' a.k.  '.0.6.2.-.t.[.+X%X+X[.+X%X'.'.'.'.'.'.'..X+Xy.0.'..X7.2.7.",
"&.2.7.t.'.XX+X<X+X+XXX+X&X>X+X&X+X'.XX+X+X+X'.'.y.}.XX[.+X5X  f.a.` s.` s.s.s.s.` k.u     T f.s.L M.  y.XX&X.Xy.5.'.}.<X,X+X}.'.=.&.2.XX'.2.0.+XXX0.6.y.+X'.y.'.",
"+X.X'.'.'.0.2.*.&.+.+.2.y.'.'.'.y.t.'.+X%X&X<X7X2X<X+X.XXX&X  f.a.` s.` s.` s.` ` ` l.x.A.k.` ` h.B.  &X+X+X&X<X0.t.t.'.[.[.y.`.6.2.0.+X[.0.t.&X7X%X[.@X&X<X<X6X",
"'.XX+X<X6X7X<X+X&X+X'.+X+X+XXX'.+X+X'.'.'.'.'.XX%XXX0.2.2.7.  ' g.W ` ( s.` s.s.` ` ` K L ` ` ^ z j * %X'.y.[.%X%X+X+X+X+X,X<X2X4X<X+X+X&X<X<X<X[.[.'.t.t.y.t.'.",
"'.'.+X<X6X<X.X0.,.$.&.2.0.'..X+X+X+X[.+X+X+X+X<X+X+X&X<X&Xq.  1 M ) h.s.a.s.` ` h.s.s.s.s.s.` S .   @.2.XX,Xt.&.&.=.0.t.t.t.0.0.+X+X7.&.5.<X+X0.t.XX<X%X+X+X%X%X",
"&.2.y.XX+XXX+X+Xi.XXXXJ.XX#X&X&Xy..X.X.Xq.  o         0.XXXX0.  9 N.L ` ` a.s.` E s.s.s.s.` L I X '.3.0.+X<X+X+X3.2.-.2.0.+X+X'.2.3.3.7.'.%X2X1X%X&Xt.'.XX'.t.$.",
".Xy.t.q.t.XX+X&X5X2X6X&X&X&X[.y.7.2.-.-.q.  e 4 7 u 9   *.*.XX  r c.s.h._ L ` s.s.s.s.` s.` L S + 0.0.0.2.2.7.'.XX'.7.2.'.+X+X+X&XXX0.&.&.3.`.[.XX[.2.2.y.XX2X+X",
"+Xy.-.&.-.7.0.t.-.2.-.2.0.XXXXXX@XXXq.0.0.q.    W K h.I   0.XX*.    h.k.B . B.` ^ s.s.s.s.s.` Z X '.'.XX%X,X&X,XXX@X&X<X<X<X>X'.'.XX+XXX+X&X&X<XXX<XXX%X<X[.'.-.",
"7X%X.X'.[.+XXX'.@X&X<X&X<X6X6X2X+X<X<X+Xy.7.0.  ' W h.]     XX0.    ) k.n   n.H f.` s.s.` s.` m #   2.'.+X+X'.0.-.3.y.XX+X'.0.2.&.7..X@XXX0.*.+.+X%Xy.'.t.7.'.y.",
"XXXX[.XXXX'.y.0.&.7..Xy.0.-.&.&.XX+X@XXX0.2.7.  l.` J M.    XXXX*.3.  V G   & 7 B.s.s.s.s.s.s.K j h       <X+X+XXX+X+X+XXX+X+X<X<X&X<X+X.Xy.q.y.&.y.+X2X@X0.7.2.",
"+X+X@X+X+XXX+XXX0.+X+X}.y.'.@X<X&X'.7.3.0.y.y.  f.L ` k.A f o XX*.XX*.  + s.  = N.` s.s.s.s.s.( E ` Y ) j   &X+Xy.y.'.y.0.4.0.+X+X[.0.7.7.0.XX<X7X6X+X[.7.&.t.XX",
"y.y.y.y.y.0.0.7.'.y.q.2.+.&.0.'.y.3.-.7.+X2X    ' ! ` ` v.h   XXXXXXXXX   M.. & x.` s.s.s.s.s._ m.K h.' h   <X[.y.XX+X+Xy.2.9.'.*XXX`.y.t.0.y.'.[.+XXX&X<X[.+XXX",
"XX[.+X+X+XXX'.q.'.+X<X+X+X+XXX+X+X+X+X}.+X  s.f.' a.( ( f.k   *.XX*.XX0.  f.L ` ` s.s.s.s.s.s.s.` ' ` ` s.c.  '.'..X'.0.&.+.2.OX1X%X[.}.+X[.y.[.XX[.7.[.+X[.XX'.",
"2X[.7.3.2.@.=.`.y.+X0.+.#.t.+X+X`.0.3.7.0.  f.' ` s.s.` f.b % 0.3.XXXX0.  f.s.h.b.s.s.s.s.s.s.` s.s.` ` s.'     y.%X6X&X+X+XXXXXy.t.y.$X&XXXy.y.y.y.y.y.y.XX+XXX",
"y.y.%X<X&X+X{.'.+X.X'.+X+X'.0.+X@X+X'.'.'.  s.f.` ` s.s.` ` H o 0.*.3.    s.s.` h.s.s.s.s.s.s.s.` ` s.h.L a.l.z + 7.0.0.'.XXt.2.2.-.7.+X&X+XH.'.XX#X&X6X6X@X'.y.",
"+X+XXX'.`.+X&X<X3.2.-.y.'.2.&.'.'.+X<XXX  c.L s.s.s.s.s.s.( c.o   .   y k.` ` s.s.s.s.` s.s.L s.` d.s.( f.k.s._ ) o +X%X6X6X&X'.%.-.0.XX@Xy.y.'.XXXX&XXX'.'.y.'.",
"&X<X5X<X&X<X+X+X.X%X<X+X<X6X6X6X7X<X+X+X  c.s.s.s.s.s.s.s.s.h.a 0 0 u V k.s.` s.s.s.` ` s.` ` ` W L s.` n , h.~ F.  &X&X+X'.[.XX+X+X&X2X&X+XXX+X.Xy.t.7.7.7..X+X",
"0.2.0.'.t.2.2.7.2.+X+Xq.'.+X+X0.0.0.7.0.  M.E s.s.s.s.s.s.h.` ` _ ` ` h.` s.a.s.s.s.h.` ` s.a.h.s.` ` ) M   i g l.    &Xt.0.XX2X<X5X&X+X'.0.y.'.y..XXXXX%X@XXX[.",
"<X'.'.XX'.6.7.XX2.0.7.2.0.0.0..Xy..X+XXX  M.E s.` ` s.s.s.s.s.L h.h.s.L ` s.s.s.s.s.s.s.h.h.` ( s.s.L b.k   o 5 v.D.  0.2.2.0.XX+X+XXX'.7.3.0.y.+XXX+X&X<X#XXXe.",
"9.9.'.+XXX0.-.-.'.0.=.2.7.2.0.<X7X0.&.*.  M.W s.` s.s.s.s.` s.( ` ` s.` h.` s.` ` s._ s.W ` ` s.W s.` ` a.U   3 x.`   &X%XXX+X%Xy.'.+XXX'..X'.'.+X+X'.y.y.H.y.J.",
"6.9.6.*.2.y.@X&XXX<X<X+X<X+X.X+XXX+X.Xq.  N.W s.` s.s.s.s.` ` h.` s.` ` s.` s.s.` ` h.L E.s.R L ` s.s.s.` H e B f.l.  %X+Xy.7.0.+.&.2.0.0.0.2.2.y.y..X'.y.XXXX&X",
"t.t.[.,X<X%X%X%XXX7.y.XXt.y.%X+Xr.[.%X2X  M.a.s.` s.` s.s.s.s.s.s.s.s.s.` s.s.s.s._ ` R (.[ h.W s.( s.` ` s.k.k.h.f.  '.y.y.'.+XXX+X&X+Xy.0.6.6.[.0.7.0.y.q.2.*.",
"XX0.=.2.y.[.+X[.y.7.XXi.7.7.[.'.i.t.7.+X  ] K s.s.h.` ` L s.s.s.s.s.s.s.s.s.` ` s.a.h.D /. .I.W s.` s.` ` s._ a.` f.  XX+X'..X+Xt.y.XXy.0.6.-.:.[.y.0.7.6.7.q.H.",
"'.t.[.+X+X[.+X+XH.XX&XoX7.q..X.Xy.XX<X%X  G.` ` ` h.a.` h.s.s.s.s.s.s.s.s.s.` s.s.s.` A ^.Y.Q.W s.` s.` s.s.s.s.s.f.  7.6.-.=.-.[.XX+XXXXXy..X'.7.y.0.&.$.2.q.y.",
"&.0.XX%X[.y.t.y.H.H..X.X7.6.0.q.XX[.[.+X+X  h.s.s.` s.h.` s.s.s.s.s.s.s.s.` s.s.` ! ] ' ^.I.U.W s.` s.` ` s.` s.` f.  y.0.'.XX<X[.XXXXXXy.y.q.q.XX<X&Xy.q.'.@X+X",
"<XXX'.XX&X2X2X<X@X.Xy.XX.X6.6._.e.'.'.'.).  n.f.` f.` ` W s.s.s.s.s.s.` s.` s.s.L U P.~.I.Y.~.W s.` ` ` s.s.s.s.` f.  7.-.2.y.+X&X&X%XXX'.y.0.8.q.'..X6.2.y..Xy.",
"XX'.7.2.7.'..Xy.y.0.6.6.0.,.#.*.t.@X7X+X,.# c x ` _ s.` s.s.s.s.s.s.s.` ` ` s.` _ f.} I.Y.I.L.W ` ` s.` s.s.` s.a.f.  '.t.y.XXXX[.XX%X+X@XXXXXXX.XXXH.0.'.&X<X%X",
"t.'..Xy.t.y.t.0.XX6X&X+X<X<X+X<X&X+X'.'.+X+X    g A p.L s.s.s.` s.s.` ( s.` h.s.E Q.Y.I.~.' J s.s.` s.s.s.s.h.` s.f.  0.q.'.+X&X0.7.y.y.y..Xy.y.q.0.0.q.y.'.XX[.",
".X0.-.-.7.'.6.#.+.XX[.2.`.<X,X+X+X+XOX0.,.&.2.7.. d.V.W ` s.s.s.s.s.` ~ R j.W ` W Q.I.I.~.' W s.s.s.s.s.s.s.a.` ` k.  XXy.'.XX+XXX[.XXXX'.q.7.-.q. XXX<X5X&X[.XX",
"q.&X+X*.&.q.y.*.O.3.%X&Xi.t.y.y.XXXXi.'.7.-.2.5.  s i ( s.s.s.s.s.s.` z.[ H ` ( W Q.I.I.~.' W s.s.s.s.s.s.s.s.h.s.f.  '.6.-.7.'.y.0.-.2.y.&X&X.X[.[.y.XX2X`.-.t.",
"&X.X'.XXXXq.y.+X%X%XXX'.XX&X&XXXXXXX[.y.y.'.+X&XXX    c.( ` s.s.s.s.L L.T.L _ l.P.Y.I.I.~.f.W s.s.s.s.s.s.s.` L c.  '..X'.'.'.@Xt.y..XXX&X%Xy.7.2.y.0.3.'.y.2.2.",
"0.2.8.+Xy.+.*.XXXX0.$.$.-.y.y.0.oXXXy.7.7.'..Xy.H.y.  k.s.` s.s.s.s.L P.I.! R x./.Y.I.I.~.' J ` s.s.s.s.s.s.s.G z.o 2.q.'.H..X+XXXXXXXXX'.y.y.y.XX<X@X.X+X&X'.q.",
"7.y.'.[.y.7.2.0..X.X.X.XoX@X@XoXoX@XoXq.q.H..Xq.:.6.  n._ s.s.s.s.s.L P.!.} } | Y.I.I.I.~.` W ` ` s.s.s.s.s.h.E N.  -.0..X0.y.XX5XXX'.y.0.7.[.5X<X.Xy..X.X6.$.*.",
"<X%XXXXX<X2XXX-.y.y.y.H._. X8.q.6.8.8.6.7..X@X@X-XoX  k.s.` s.a.s.a.` L l.Y.I.I.I.Y.I.Y.T.I.I.W ` s.` s.` s.l.p   y.XX&X+Xy.'.+XXX[..XXXXXXX+X&X+Xq.q..X'.6.2.6.",
"<X&X<X<X&X+X'.y.6X+XH.y.r. X8.q.-.*.*.%.-.8.oX-X>.6.. v.` ` h.( ` L f.J f.Y.I.Y.R.I.I.Y.R.!.^.K ' ` ` s.L h.A.p   +X<X<XXX0.q.XX0.y.y.'.XXXXXXy.q.y.+XXX'.5X6Xy.",
"%X&X2X6X<X[.XX%X+Xy.0.q.8.7.8.q.XX0.0.t.y.y.i.%XXXXXJ.  F.b.s.s.d.s.` J f.Y.I.Y.Y.I.Y.Y.I.U.Y.R ` E h.s.` '     q..X@X.Xy.q.0.q.7.y.y.7.0.XXXXt.-.2.0.0.7.XX+X2.",
"+Xt.=.2.[.7X[.&.$.2.H.+X'.8.0.H.+X0.0.XX%Xy.;.>.i.XX&X# Y V L W ( s.h.W f.Y.I.I.Y.Y.I.I.Y.Y.Y.` s.a.a.s.L h.  y.'.XXXX'.y.XX.X0.-.'.+Xy.'.&X&Xy.%Xt.XX2X+X[.[.5.",
"2X%Xu.t.%X2X<X+X'.t.'.XX+XXXi..X3.;.3.y.#X#X%X[.'..XXX+X  > V v F f.` J f.Y.I.I.Y.Y.I.X.Y.I.I.I.` W s.( K S o [.2.7.t.y.`.y.'.XX'.<X6X'.7.y.0.-.3.`.+XXXy.2.-.6.",
"[.].t.w.[.<X2X<X`.t.y.%X&X&X%XoXqX%Xy.[.<X2X%Xy.-.&.&.3.  o   o u l.` W f.Y.I.I.Y.U.I.I.R.I.I.P.W W ` f.x   0.`.7.$.&.t.&X+X'.y.+X&XXX0.0.[.<X<X&X%X%X+X[.'.XX<X",
"|.#X#X'.t.t.'.`.XX'.t.'.&X&X&X;X`.'.`.7.0.[.}.[.&X<X&X+X.X  w   e v.s.W f.Y.I.I.Y.I.T.X.Y.U.I. .h.L h.s.x   '.<XXX2.3.&X7X&X'.'.y.XX+XXXXX+X+XXX,X%X%X&X<X+XXX[.",
"%X2X2X<X}.'.t.0.%X[.+XXX%XXXXX@X+X7X7X+X'.[.<X+X+X&X<X[.7.  t & k c.' W ' S.I.W.W.U.R.I.T.I...| s.Q ` l.M   7X%X[.[.&X7X6X+XXX%X<X&X[.0.3.7.+X6X<X&X&X<X&X[.0.7.",
"J.XX%X&X&X,X%X<X`.XX<X0X6X#Xy.y.+X}.'.'.+X3X<X+X'.y.7.-.3.'.  V.k.s._ ` Q E !.X...I.Y.I.T.I.o.T.n._ ` ~ z     [.0.XX<X%X[.'.y.[.XX%X&X+Xy.'.%X0X2X&X%X%XXX'.y.XX",
"[.'.y.y.'.'.}.,Xt.`.[.XXXXXXXX&X+X+X+X%X<X6X<X<X%X%X+Xt.t.XX  h.L ( h.` j.W l.{ !.Y.I.I.I.X.Y.] s._ s.k.F N   t.[.+X[.y.0.y.0.&.-.[.7X0X2X+X[.y.y.'.XX+X[.'.[.%X",
"y.y.y.'.t.7.0.'.%X'.t.0.y.i.oX&XXXH.[..X7.&.$.7.t.+X%X'.y.'.&X  x ] ' s.( L Q f.Z.Z.Z.Z.A.Z.Z.Q _ ( ' h.I     <X6X&X+XXX+X+X7.=.'.&X<X[.y.'.XXy.2.0.'.XX[.t.'.[.",
":.7..X%X&X}.%X<X2X%XXX%X6X&XXXH.y.-.-.y.oXXXXXXX2X&X%X'.[.XX'.    h.F s./ W s.W R W R J R J J W s.W F ` g   <X<X<X+X%X6X7X&X+X+Xy.+X%X'..X%XXX0.&XXX'.y.0.0.[.&X",
"$.&.-.XX+Xt.0.,X2X%X%X%Xi.e.t.[.=X%Xt.3.t.,X7X4X,X%X].e.3.3.[.1X2X    z h.! W L L W W _ L a.! E ( n.@ +     i.XX|.%X%X,X*X,X%X|.$XXXJ.XXy.2.0.'.y.i.i.t.i.i.#X%X",
"-.7.0.+X6X<X%X4X%X+X'.7.t.i.%X=X%X%X&X,X<X2X%X}.&X%X%X%X,X2X2X7X[.'.  y F.N.v.N.N.v.v.v.v.v.v.c.V.B.  +XXX'.XXXX,X'.3.t.[.%X[.3.-.t.XXy.-.$.7.+X[.[.[.XX&X%X%X%X",
"$X&XXXy.[.t.2.2.+X,X%X+X,X0X0X&X%XXXt.t.t.`.+X<X5.t.y.`.XX<X%X[.7.[.<X    o o o o o o o o o o o o   %X+Xy.`.'.[.6X}.t.t.%X2X<X%X&XJ.7.7.7.0.2.-.+XXX'.XX+XXX'.7.",
"y.XXy.0.t.+X+X,X'.{.+X+X<X&X+Xt.XX+X&X2X<XXX[.,X%X2X<X+X,X0X7X%X7X+X[.y.0.+X2X&X7X0X0X&X[.'.y.'.+X+X'.'.'.'.[.+X+XXX[.'.y.[.%X6X7.0.y.[.XXXX&XqX+XXXy.0.q.q.q.0.",
"y.<X+X0.7.t.y.'.{.'.0.`.'.0.y.[.2X2X2X6X%X`.t.+Xt.[.XXt.7.'.[.0.[.7.'.6X<XXX'.t.y.'.+X%Xy.2.3.y.,X'.`.y.}.<X<X<X+X<X<X+Xt.0.'.%X5XXXXX<X&X0.7.XX0.q.y.y.y.y.XX@X",
"O.7.t.y.'.'.+X<X+X'.'.+X&X[.XX<X&XXXy.7.2.-.0.'.7.XX%X[.y.'.'.y.%Xq.y.'.7.-.'.<Xy.7.q.XX+Xy.q.'.XX).7.0.'.+X&X<X2X2X&X&X+X[.XX+Xy.&.&.y.&XXXy.y.-.0.+X+X'.'.'.+X",
"#X2X2X&XXX'.0.'.0.0.y.'.XXXXy.y.>.t.XX}.[.'.0.0.3.y.[.+XXX'.y.XX'.y.<X<Xy.0.y.XX<XXXt.'.XX+X[.'.y.t.y.y.'.[.[.y.XX'.t.y.'.y.y.t.2.y.XX'.7.-.7.7.1.y.,X&X}.t.t.[.",
"XX%X[.'.'.t.q.+X@XXX8.-.7.H.y.7.y.XXy.0.7.'.y.).y.'..XXX'.'..X%X@X+X+X.X7.'.XX'.q.y.6.&.-.q.XX'.XX$X2X=X&XXXXXXX.X[..Xt.0.6.3.7.2.`.y.2.y.&X&Xr.3.`.%X,X[.`.+X,X"
};
