/* XPM */
static char *e52b24f66ad44891c1be9c269f2c7a07qTh6U6rABUI13pVs[] = {
/* columns rows colors chars-per-pixel */
"80 80 215 2 ",
"   c #000002",
".  c #0D0001",
"X  c #01010A",
"o  c #1E1B12",
"O  c #210D03",
"+  c #2A150C",
"@  c #38170C",
"#  c #5C1A0C",
"$  c #4B260A",
"%  c #58280D",
"&  c #4A291A",
"*  c #552B1F",
"=  c #5B3618",
"-  c #68300F",
";  c #682D1A",
":  c #702D13",
">  c #643419",
",  c #643818",
"<  c #7D3B18",
"1  c #593422",
"2  c #79442A",
"3  c #704131",
"4  c #833912",
"5  c #874227",
"6  c #984622",
"7  c #964C2B",
"8  c #9E4B2C",
"9  c #884630",
"0  c #994E39",
"q  c #9B5636",
"w  c #A14D28",
"e  c #AD5827",
"r  c #B45E2E",
"t  c #A34C31",
"y  c #A65939",
"u  c #BC5D33",
"i  c #B45A39",
"p  c #AE603C",
"a  c #B0603B",
"s  c #BA663A",
"d  c #CB5F29",
"f  c #C45C38",
"g  c #CA612D",
"h  c #DA6B2B",
"j  c #C06338",
"k  c #C86A39",
"l  c #D96A32",
"z  c #D97237",
"x  c #D3723A",
"c  c #E0672E",
"v  c #F0742C",
"b  c #E76D35",
"n  c #EB6F35",
"m  c #E46D3A",
"M  c #F76D39",
"N  c #E57436",
"B  c #EB7637",
"V  c #E9703B",
"C  c #EA7A3B",
"Z  c #F67435",
"A  c #F67B36",
"S  c #FD7E36",
"D  c #FC753D",
"F  c #F67C3C",
"G  c #FC7D3C",
"H  c #BF684A",
"J  c #C0654A",
"K  c #D26949",
"L  c #DB7846",
"P  c #E67B40",
"I  c #F67145",
"U  c #FF7645",
"Y  c #F57D43",
"T  c #FC7D43",
"R  c #F77E49",
"E  c #FC7C4A",
"W  c #ED7553",
"Q  c #FA7D51",
"!  c #D88029",
"~  c #F8812F",
"^  c #ED833B",
"/  c #F58635",
"(  c #FC8335",
")  c #FC8A34",
"_  c #F6833C",
"`  c #FD833D",
"'  c #F58C3D",
"]  c #FE8A3D",
"[  c #FE9B3C",
"{  c #F9A33E",
"}  c #FABE39",
"|  c #F6C43D",
" . c #F7D33D",
".. c #FFD43F",
"X. c #FBDA3D",
"o. c #FAE53C",
"O. c #9A855C",
"+. c #9C8664",
"@. c #9C8E64",
"#. c #9C8A6C",
"$. c #A48664",
"%. c #A48C64",
"&. c #AC8E64",
"*. c #A48D6C",
"=. c #AC8E6C",
"-. c #A4926C",
";. c #AC936C",
":. c #AC9A6C",
">. c #B4966C",
",. c #B49A6C",
"<. c #AC8E74",
"1. c #B48E74",
"2. c #A49374",
"3. c #AC9574",
"4. c #AC9B74",
"5. c #AC967C",
"6. c #AC9B7C",
"7. c #B49574",
"8. c #B49B74",
"9. c #BC9C74",
"0. c #B4967C",
"q. c #B49D7C",
"w. c #BC9D7C",
"e. c #ACA27C",
"r. c #B4A274",
"t. c #BCA374",
"y. c #B4A27C",
"u. c #BCA37C",
"i. c #B4AA7C",
"p. c #BCAA7C",
"a. c #EF8241",
"s. c #F58442",
"d. c #FE8341",
"f. c #F78F46",
"g. c #FE8B44",
"h. c #F4824C",
"j. c #FE834A",
"k. c #FE8B4B",
"l. c #FE9344",
"z. c #FD9942",
"x. c #FF924B",
"c. c #FD9B4B",
"v. c #FE8C53",
"b. c #FC8A56",
"n. c #FE9453",
"m. c #FE9A51",
"M. c #F89A58",
"N. c #FFA244",
"B. c #FFAC42",
"V. c #FFA34C",
"C. c #FDA84A",
"Z. c #FFB545",
"A. c #FCBC45",
"S. c #F9BE4A",
"D. c #FEA353",
"F. c #FCA755",
"G. c #FFAB5D",
"H. c #C4A47C",
"J. c #C4AA7C",
"K. c #FFA564",
"L. c #FFAC63",
"P. c #FDBD69",
"I. c #FFC242",
"U. c #F2CB42",
"Y. c #FECC46",
"T. c #FFCC49",
"R. c #FED543",
"E. c #F6D944",
"W. c #FDDB43",
"Q. c #FDD752",
"!. c #FEE243",
"~. c #F7EC44",
"^. c #FDF04C",
"/. c #FFE350",
"(. c #B49E84",
"). c #BC9E84",
"_. c #B4A484",
"`. c #BCA584",
"'. c #B4AA84",
"]. c #BCAA84",
"[. c #BCA68C",
"{. c #BCAC8C",
"}. c #BCB288",
"|. c #C49E84",
" X c #C4A684",
".X c #C4AB84",
"XX c #CCAC84",
"oX c #C4A68C",
"OX c #C4AD8C",
"+X c #CCAE8C",
"@X c #C4B284",
"#X c #CCB284",
"$X c #C4B28C",
"%X c #CCB38C",
"&X c #C4BA8C",
"*X c #CCBA8C",
"=X c #D4B58C",
"-X c #D4BA8C",
";X c #C4AE94",
":X c #CCAE94",
">X c #C4B494",
",X c #CCB494",
"<X c #C4BA94",
"1X c #CCBB94",
"2X c #CCB69C",
"3X c #CCBC9C",
"4X c #D4B694",
"5X c #D4BB94",
"6X c #D4BD9C",
"7X c #DCBE9C",
"8X c #C4B1A3",
"9X c #CCC29C",
"0X c #D4C294",
"qX c #D4C29C",
"wX c #DCC59C",
/* pixels */
"3.w.`.w.3.;.3.;.`..X`.y.u.].q.;.4.y.].].`.y.$X1X`.`.{.>X{.q._.OXy.u.y.4.;.3.8.`.$X.X;.%.y.p.y..Xq.4.y..Xu.3.;.w.>.9.u.XX%X%XJ.u.J.%X#X Xu.u.J.u..XH.u..X=X%X%X.X",
"w.q.8.q.u.u.q.=.3.8.3.;.q..X.X`.].y.4.`.,X5XOXy.y.q.`.OXOXu.`.>Xu..XOX+XOXOXOX%X%X1X%X.X.X`.u.].`.y.u.`.u.q.8.`.XX.XH.u.H..X%X1XH.`.u.t.8.8.u.u. Xu.u.u.u.q.8.8.",
"u.`.u.7.7.u.OX%XOX%XOX.X.X$X%XOX$X%X>X$X$X$X{..X`.`.`..X`.q.8.u.OX`.w.4.8.u..X%Xq.q.`.{.u.q.`.q.u.y.q.u.y.w.q.7.7.8.w. Xu.w.`.u. Xu.u.u.u.u.8.u.3.8.8.8.3.&.;.8.",
"q.u. Xq.8.`.%X5X`.+X%XOX`.`.w.8.8.`.%Xu.*.+.%.q.`.u.u.u.`.u.q.y.w.u..X+X%X+X`.q.:Xq.q. X`.,X,X Xy..XOX.XOXOX Xw.w.w.0.7.3.q. X,X9.3.8.u. X8.7.8.u.`. X.X`.u.`.+X",
"w.q.8.u.OX%XOXw.*.7.q.w.w.u.u.q.$X%X$XOX.Xu.`.u.y.q.q..XOX%X,X,X`.8.*.*.3.u.OX%XOXq.0.q.q.`.`.5.4.`.OX Xu. X`.w.w.w.w.8.7.q.`.OX.Xu.u. X.X`.u. Xu.u.`.`.`.q.8.8.",
" X Xq.7.8.w.u.q.H.`. X`.H.`.+X,X.X.X.XOX%X,X.Xu.+X.X.X.X.X.X`.H.`. X+X=X4X4X%X    3.4.q.;.*.3.=.q.u.`.8.3.8.u.u.=.8. XOX Xw.8.;.,X.Xu.q.w.`..X%XOXOX XOX.X Xw.q.",
"OXOX X7.*.3.`.+X+X X Xw.w.w.u. X.X$X,X,X%X$X%X,X%X%X+X.Xu.w.8.8.,XXX`.8.0.w.  J c.    +X%X+X.X%XOX$X%XOX.X X.XoXXXXX.XJ..X.X%X%X`.`.q.;.;.8.u.`.7.3.*.;.3.3.;.3.",
".X X`.u..X+X.Xu.q.9.q.w.w.H.`. X X`.8.3.7.q.q.u.u.H..XH. X.XXX%X+X.X X Xu.    C g.8 i   %X%Xu. X.XOX$X,X$X Xq.7.9.9..X+X=X%X.XJ.+X,X4XOX XOX,XOX:XOX X`.`.`.oXOX",
";.;.7.`.OX%XOXu.u.9.8.,.;.;.;.;.;.;.3.8.`..X+XOX8.3.=.*.*.7.8.9.;.q.u.w.3.    i v.d.T   8.7.8.w.3.7.9.w.w. X.X+X].u.J.$X%X.X.X%X.X%X=X$Xu.7.8.u.u.`.OX%X+Xw.8.w.",
" X`.u.`..XOX.Xu.OX.X X`.u.`..X.X.X.X`..XOX+X$X.X`..XOX%X%XXX Xw.`. X Xu.u.    f f.F `   8.=.+.+.=.7.q.w.w.q.7.;..Xu.8.w.]..X.X.X8.8.7.w..X%X%X%XOXOX+XOX.X+XOX+X",
"`.w.8.8.w.u.`. X*.*.=.;.0.u.OX+X>X$XOX.X.X`.u.`.-.3.8.w.OX+X+X+X9.u.u..X.X.X  y m     OX%X%X.X Xw. X.X+X.X Xu.w.u.w.3.;.>.w.u.u.3.8.u.u.8.8.w.u.7.7.3.=.;.q. Xu.",
" Xu.`.w.`. XOX+X4X,X,X:X,X,X2X4X4X,X4X%XOX.X.X.X1X%X].u.q.q.w.w.q.`..X+X%X+X X    7.3.8.`.u.q.8.+X.X`. X XOX.X Xw. XXX8.=.7.`.+Xu.3.*.8.%X7X,Xu.|. XH.q.u.,X1X,X",
",X%X,XOX.X`.u.u.q.).q.).u.).w.(.`..XOX.X.X`.OXOX.XOXOX%X%X%X+X.Xu.u.`.u.u..X%X5X6X4X%X%X,XOX.X`..Xu.8.3.3.7.3.;.q..X+Xw.=.;.9.8.q..X%X+Xq.3.7.q.H.+X+X X%X6X6X%X",
"%X,X%X%X Xw.0.8.3.7.q.q.u.`.`.u.8.8.y.`.u.`..XOXqX6X1X,X$X`.4.;.w.w.u.q.9.q.u..X X X.XOX+X`. X.X,X%XOX+X,X,X%XOX X X`.w.w.w.7.3.7.;.3.q. X.X`.q.8.w.u.q.w.u.u.8.",
".XOX%XOX X`..XOX%X%X%X%XOX Xu.w.OXOX+X%X,X,X,X5X1X1X$X$X%X,X4X,X.X+X%X4X%X.X Xu.OXOX+X.Xq.;.8.`.4.3.;.q.u..Xu.q.OXOX.X;X,X$XOXOX`.OX+X.Xq.0.w..XOX%XOXOX Xu.q.8.",
"3.7.8.8.8.8.`.+X`.H..X.XXX.X#X%X,X5X,X1X5X5X5X5X1X,X$X%X,X%X,X,X        %X,X%XXXOX+XOX`.;.=.q.+X$X.X`. X$X%XOXu.*.*.6.`.`.q.`.,X3.<.*.*.3.).`.OX$XOX.X`.8.=.=.1.",
"y.].>X>X$X}.%X9X%Xp.u.u.u.u.u.H.q.u.OXOX`.q.3.3.u.u.`.8.;.;.    ! k.g.d   7.<.=.3.u..X#X%X1X#X.X.X#X@Xu.t..X.XJ..X#X%X#X].].].'..X%X%X.X.X.X%X5X#Xu.8.u.OXOX8.@.",
"$X$X%X1X1X6X6X6XwX5X%X`.w.9. X%XOXOX.X`.`.`..XOXq.u..X.X.X  5 q Y d._ Y 8   ).|.+XOXOXu.u..X.Xp.8.y.H.u.$X-X%X].p..X%X%X,X1X1XqX.Xu.u.$X5X%X.Xu.t..X.XOXOXOX%X0X",
"q.u.`.u.`.u.u.y.3.3.3.3.3.3.7.q.`.u.6.=.+.O.+.+.`.u.6.3.3.        A j.R ]    Xw.u.`.].u.`.u.8.8.8.q.u.q.8.8.*.O.9.8.9.8.3.;.7.q.OXu.8.u.`.q.`.5X#X%X%XOX`.q.4.4.",
"OX+X%X+XH.q.w.u.oX`. XOX+XOXw.3.8.w.`.`..XOX`.q.3.7.q.`.`.q.*.    G k.G `   w.7.y.`. X+XOX.Xt.8.`.,X,XOX[.OX,X,X%X+X.Xw.7.7.8.q.7.4.`..X`.8.w..X.Xu.3.*.*.3.y.].",
"w.w.w.8.7.=.*.=.q.q.q.q.).).).q.3.4.`.`.OX%X.X`.OXu.7.q.`.OX+X    s.` ~ x   .X+XOX`.3.;.          q.q.0.7.q.`.OXq.7.3.=.=.3.w. X8.8.8.q.u.`.q.;.%.;.u.`.`.`.>XqX",
"+X`.w.u.OXOXH.8.*.w.+XOXu.q.`.OX%XOX.Xq.u.OX{.u.3.3.q.+X6X,XOX  N ` d.h   %Xu.u.OXq.*.    ` F j.j OX).q.`.`.5.*.OX`.`.w.q.w. X%XOXOX`.3.8.q.u.q.w.u.OX,X>XOX`.y.",
" X`.u. XOX+XOX`.7..X%X X8.;.-.;.y.q.3.*.3.`.OX`.`.3.3.q.q.q.w.  n T G l    X;.;.`.(.q.    ] d.F H   u.`.`.`.u.q.OX;XOX`.u.q.w.w.q.`.%X,XOXq.q.q.%Xu.;.*.(.OXOX{.",
";.q..X`.8.7.y.J.|.9.;.;.8..X.X.X`.oXu.q.w..Xu.3.oXq.(.OXOX`.q.  m e 7     > &   u.u.  C g.G ` _ F g.  OXu.q.u..X6._._.`.(.8.q.8.`.3.3.`.`.`.w.`.;.4.`.[.OX{.`._.",
"OXu.3.q.OX%XOX`.u.q.8.4.q.u.>X6XOXOXOXOX`._.`.`..X`.u.].{.].{.  B   X ,X  P.k   u.u.  h.n.] k.g.g.g.G.  >X.X].].6.3.2.q.].,X>XOXOXOX Xq.*.*.3.q.y.y.y.y.y.].y.3.",
",XOX`.u.`.q.8.3.y.q.3.=.*.*.q..X.Xq.;.*.+.+.*.3.`..X$X,X5X1X1X<X  ,Xu.,X  V.y   u.+Xu.X   z         K.  $X].6.-.q.u.OX1X6X3X%X].OXOXOXy.q.].OX%X$X$X.XOXOX$X$X%X",
"*.3.q.`.y.`..XOX X`.u.q.8.q..X3XOXq.*.*.4.`..X$Xq.u.q.q._.$X$X].`.8X,X  5 g.x     `..X`.u.    8..X%X    `.;.%.*.2.q.].OX].`.y.q.OX.X`.q.`.OXOX]..Xw.8.q.8.3.7.q.",
"q. XOXOX X`.OX%X6X,X$XOX`.y.`.OX,XOXy.`..XOX].oX.XOX.Xu.OX1X,X].;.    q Z g.k     w.3.8.`.u.u.7.q.`. X`.q.7.3.;.y.].OX$XOX].OX$X`.`.`.`.`.`.`. XOXu.q.`. X8.3.8.",
"*.3.8.y.`..XOX,XOXOX.XOX%X:XOX%XOX`..XOXOXOX`.`.u.{..X].OX4X.X3.q.    k.) k.p   `.u.q.u..X`.`.u.w.8.3.u..X%X Xu.6.`.{.,X>XOX{.`.-.*.3..X`.3.q.OX.Xq.7.u.OX`.u.`.",
"OX X`.`.`.q.3.=.*.+.+.3.u.`.`.`.u.y.`.OX$X%X,X6X1X,XOX X.X%X,X.X.XX   ` g.M.a   u.  X           q.`.OX%XOXOX%X,Xq.y.y.`.].].u._.7.3.q.OX].q.y.%X6X$X].+X%X,X,X5X",
"`..XOX,X5X6X,XOX%XOX`.OXOXOX.X`.OXOX`.`.`.`.`..X$X.Xq.3.3.8.w.w.=.3.8.      k.k.  d s r j u g 2   ].%X$X`.u.].$X$XOXOXOXOX>X,X1X3X,XOXOX%X,X,X,X].].`.y.y.u.y.`.",
"`.`.OX,X5X,X Xq.<.%.*.3.q.`. XOXOXOX].OXOXOXOX,XOXOX%X,X%Xw.7.;.=.=.7.7.;.=.  s g.d.T Y S _ j.Y f   @.3..X>Xy.*.*.-.q.y.y.y.q.q.OXOX8.*.6.,XOXq.y..X,X$XOXOX$X$X",
"*.3.u..XOX.XOXOXp..X.XJ..X@X%X%Xu. X X Xw.8.7.;.*.;.4.q.u.].OXOX`.4.@.3.].`.  k n.k.n.g.R ` _ d.s   4.q.OX,XOXOX4.3.;.3.q.OXOX`.3.4.4.8.`.$X1X<X$X%Xy.`..X`.y.%.",
" Xu.y.w.y..XOX%X4X1X5X%X%X%X].u.8.3.;.;.w.`.            ,X$XOX.X$X.X`..X$X].  0 g     y u ` j./ F k.    3.3.8.`..X`.8.3.`.OXOXOX%X.Xq.*.*.4._.]..X].3.3.u..X1XOX",
"OXu.;.*.;.8.q.y.;.3.;.3.q..X.X.X+X.Xw.q.q.w.  n.C.l     ].u.u.`.%X%XOXOX%X.X].    >X,X    F d.G ` T C.    >X%X>X.X+X%X,X,X,X:X`.`..XOX.XOX%X%X,X.X,X.X$X,X].`.;.",
"6X$X X`.].OX.X`.+X%X,X%X,X5X5X1XOX,X,XOX  X ) j.g.s ; N.    .X$X`.`.8.q.].q.;.,X,X[.[.    F d.d.` G s.v.    `.q.;.4.u..XOX`.q.3.*.8. X+X.Xq.=.+.OX$Xu.`.y.8.`.u.",
".X.X]..X.X`.u.q.*.8. Xu.q.;.*.*..XOX+X  3 6 g._ ` N j ' <     %X,X%X.XOX%X`.8.,X,X    9 w _ d.d.g.` S g.t 4   OX.XOXOXOX.XOXOX,X,X%X,XOX Xu.w.u.*.u.OX1X+Xq.8.3.",
"OXOX+XOXOX.XOX.Xq.OXOX{.u.`.+X,X%X`.  2 l h.S d.* 0 d.Y v.6     `..X`.8.3.        < 2 W j.d.` d.` d.d.g.C c.  OXu.u.`.u.q.5.q.OXOX].q.8.8.q..X,X6X5XOX].8.*.y..X",
"u.u.u.u.u.q.q.8.`.u.w.3.+.*.q.`.u.4.  M.D.z.m.F.  + j.G T l.$   >X,X+Xu. X        K.x.] ( _ j.j.d.d.F ] T D.  ].u..XOXOXu.3.0.`.&X.X_.u.y.q.u.`.].OX.X%X,X].OX.X",
".X].OXOXOX.X`.w.`.OX,XOXOXOX.XOXOXOXOX            @ g.G s.( &   @.OX>X    x.g.g.j.T j.T j.T ` ` ` d.d.` Y [   `.`. X`.q.*.+.3.oX<X$X].{.OX].u.]..X].8.].OX]..X`.",
"1X].8.4.3.#.-._.u.OXq.+.$.y.OXOX_.q.4.8.q.4.6.3.    8 n.G g.%   @.      e ] S S F d.d.d.d.d.d.d.d.` d.d.` F.    u.$X5X%XOXOX.X.Xu.y.u.#X%X.Xu.u.u.u.u.u.u..XOX.X",
"u.u.$X,X%XOX[.`.OX X`.OXOX`.q.OX+XOX`.`.`.`.u.`.OX;.= C M L 1   OX      A j.( d.d.` d.` ` ` ` ` d.d.d.d.z k.  O   8.q.q.`..Xy.3.3.;.8.OX%XOXH.`..X@X%X5X5X+X`.u.",
"OXOX.X`._.OX%X,X4.3.;.u.`.3.*.`.`.OX,X.X4.3.`.,X%X X;.        @.  ] l.) j.S j.` d.` d.` ` ` ` d.d.d.` g.+     c.  .XOX$X5X5X%X`.&.;.q..X+Xu.u.`..X.X%X.X`.`.u.`.",
"%X,X4X,X%X,XOXOX X$X,XOX,X5X5X5X6X,XOXOX,X,X,XOXOX      ;.1X6X5X  G j.` ` d.d.` d.` ` d.d.d.` d.d.d.` d.o   g.g.  `.%X%XOX`.]..XOXOX%X1X%XOX.XOX Xu.y.8.8.8. XOX",
"q.3.q.`.y.3.3.8.3.OXOXw.`.OXOXq.q.q.8.q.8.q.q.w.  & n.L.  OX.X].  F g.d.j.G ` T ( ` d.` ` _ j.d.` ` g.g.m.D.T g.  $X1X%Xy.q..X1X,X4X%XOX`.q.u.`.u. X.X.X$X+X.X].",
",X`.`..X`.7.8..X3.q.8.3.q.q.q. Xu. XOX.X`.w.u.OX  @ T f.   X].`.  d.g.' ~ k.d.( j.d.d.` d.x.T d.` ` F B v R ^ d.  .Xu.q.3.3.q..XOXOX.X`.8.4.q.u.OX.XOX%X,X@X.Xr.",
"0.0.`.OX.Xq.;.;.`.q.-.3.8.3.q.,X6Xq.*.=.OX,X`.$.    r j.m.  @. X  T k.d.d.d.d.d.d.d.d.C.Z.Y.g.G ` j.k.= h k.F >   OXOX%X$X.XOX$Xu.`.OX.X`. X`.`.OXOX`.u.u.H.u.J.",
"7.0.7.=.3.u.+X%X.X,X,XOX,XOX XOX.XOX Xw.8.7.q.w.`.  : D.G.$ ;.@.  a.g.d.d.d.d.d.d.T j.Y.!.E.g.T ( d.k., z g.g.  +.-.u.$XOXu.8.q.+.*.3.q.q.q.3.3.u.u. X`.u..X.X%X",
"y.y.].>X,X$X$X$X.X8.u..Xy.u.$XOXt.].$X1X,X$X@X@X Xu.          . C ) ` d.d.d.d.d.d.] d.Q.Y.S G T ` j.k., P P.  ,X%X.X`.`.u.u.`.OX.XOX%XOXu.q.7.7.].q.8.q.u.w.3.=.",
".Xq.-.3.u.].OX].u.8..Xp.8.8.].`.p.y.8.OX3XwX1X.Xy. XOX%X.Xu.u.  z _ G ` d.d.d.d.d.d.d.E.!.j.d.d.` Y k.,     %X.X`.u.`..XOX`. XOXy.u..Xu.q.7.;.>.].u.q.8.7.8.w.H.",
"`.y.].OXOX].OXOXH..X%XXX8.w. X Xu..X,X$X`.q.r.y..X.X%X.X`.y..X  B d.( ` d.d.` d.d.G d.c.[ ] ` g.` Y k.>   y.4.-.u.q.w.8.7.;.-.;.]..XOX.X.Xu. X`.8.u.q.*.%.3.w.u.",
"*.q..X$X].u.y.u.H.H. X X8.7.q.w..X].].OXOXOX.X.Xu.u.8.;.*.%.>.  V ` d.d.d.d.` ` d.d.d.G G d.j.d.g.G x.- ].`..X+XOX.X`.u.q.`..X,X]..X.X.Xu.u.w.w..X,X%Xu.w.`.+XOX",
",X.X`..X%X1X1X,X+X Xu..X X7.7.).r.`.`.`.(.y.`.p.4X%X%X%XOXu.`.  V _ d.d.d.d.d.` d.d.d.d.d.` d.d.d.Y b.% `.u.y.u.$XOXu.8.;.3.u.OX%X%X$X.X`.u.q.9.w.`. X7.3.u. Xu.",
".X`.8.3.8.`. Xu.u.q.7.7.q.<.$.=.y.+X6XOX<.$.3..X.X.X`.`..Xu.u.  m _ ` d.d.d.` ` d.d.d.d.d.` ` ` d.Y g.- %X,XOX].%X%X,X`.y.u..X.X]..X$XOX+X.X.X.X X.XH.q.`.%X,X$X",
"y.`. Xu.y.u.y.q..X5X%XOX,X,XOX,X%XOX`.`.OXOXOX+X%XOX.X.X.X.XOX  V _ g.d.d.d.d.d.d.d.d.d.d.d.j.d.( T f.* y.OX%XOX%.3.q.q.w.`.OX%Xq.8.u.u.u. Xu.u.w.q.q.w.u.`..X].",
" Xq.;.;.8.`.7.$.+..X].3._.,X>XOXOXOXoXq.<.*.3.8..X.X%X,X.Xq.,.  b _ d.d.d.d.d.d.d.` d.d.d.d.d.d.` G v.5 u.y.8.q.`.%X%X.Xu.`..XOX.X]..X.X`.w.8.;.w.|..X,X4X%X]..X",
"w.%XOX=.*.w.u.=.O.4.$X%Xp.y.u.u..X.Xp.`.8.;.3.6.@XOXp.u.u.      n G ` d.d.d.d.d.d.d.d.F ` ] T d.` d.` g.    8..X8.`..X`.7.;.8.`.u.q.;.3.u.%X%X X].].u..X1X_.;.y.",
"%X X`..X.Xw.u.OX$X$X.X`..X%X%X.X.X.X].u.u.`.OX%X.X.Xp. X  B #   m ` j.d.d.d.d.d.d.` ` j.U D T d.` d.` g.  X `.`. X X`. X`.`.`.+Xy.u. X.X%X$Xu.8.3.u.q.4.`.u.3.3.",
"q.3.9.OXu.+.=..X.Xq.%.%.;.u.u.q.XX.Xu.8.8.`. Xu.H.u.w.8.  K k.n.] ` d.d.d.d.d.d.d.j.j.F ] E.j.d.d.` d.d.k.G.  .X].8.3.w.`.H. XOX.X.X.X.X`.u.u.u..X,X+X XOX%X`.w.",
"8.u.`.].u.8.3.q. X X X XXX+X+XXXXX+XXXw.w.H. Xw.>.7.>.u.  x ^ T _ d.` d.d.d.d.d.d.g.j.T G U.g.d.d.` d.` G ) s   `.7.;.q. Xq.u..X4X.X`.u.q.8.].4X,X Xu. X X7.%.=.",
",X$X.X.X,X1X.X;.u.u.u.H.).|.9.w.7.9.9.7.8. X+X+X=XXX XXX  m d.( ( d.( d.d.` ` ` d.` ` j.g.Y.j.G d.d.d.` j._ b.  .Xu..X%XOXu.`.OX.X]. X.X.X.XOX%XOXw.w. X`.7.3.7.",
",X%X,X,X%XOX`.u.5XOXH.u.t.|.9.w.;.=.=.&.;.9.XX=X,.7.;.3.    8 C s.j.` d.d.` ` ` d.d.( G ] T.g.d.` ` ` d.` d.P   u.OX,X,X.Xq.w..Xq.u.u.`..X.X.Xu.w.u.OX.X`.4X5Xu.",
"$X%X1X5X,X]..X$XOXu.q.w.9.8.9.w..Xq.q.y.u.u.p.$X.X.XJ.u.8.;.    L _ j.d.j.] ( d.( j.T U ) E.W.B.d.` j.d.G d.T n    X+X Xu.w.q.w.8.u.u.8.q..X.Xy.;.3.q.q.8..XOX3.",
"OXy.-.3.].6X].*.%.3.H.OX`.9.q.H.OXq.q..X$Xu.:.,.p..X%X%Xu.w.7.w.  h.f.` d.` F T U E.s.U T R.X.A.G j.` _ d.` ` g.  .X.X`.u..X Xq.;.`.OXu.`.%X%Xu.$Xy..X1XOX].].6.",
"1X$Xi.y.$X1X,XOX`.y.`..XOX.Xp. X4.:.4.u.@X@X$X].`. X.XOX].`.`.].  k l ` G ] ` g.] E.z.] z.X.W.A.] T j.d.` ` _ g.  8.y.u._.u.`..X`.,X5X`.8.u.q.;.4._.OX.Xu.3.;.7.",
"].'.y.e.].,X1X,X_.y.u.$X%X%X$XXX0X$Xu.].,X1X$Xu.;.*.*.4.`.$X$XOX%X  O F ` d.j.| o.R.R.....W.E.X.I.Z d.j.G d.] ]   %.*.y.%XOX`.u.OX%X.Xq.q.].,X,X%X$X$XOX].`..X,X",
"}.@X@X`.y.y.`._..X`.y.`.%X%X%X-X_.`._.8.q.].{.].%X,X%XOX Xu.].OX$X    E ` ) d.I.!.R.W.W.W.Q.R.R.A.I ] T ` d.` g.  3.4.%X6X%X`.`.u..XOX.X.XOXOX.X>X$X$X%X,XOX.X].",
"$X1X1X,X{.`.y.q.$X].OX.X$X.X.X+XOX6X6XOX`.].,XOXOX%X,X].8.4.`.%X`.    E ` G T I.^.R.W.R.R.W.W.R.S.I G ` ` ( s.m.  ].%X6X5XOX.X$X,X%X].q.4.8.OX5X,X%X%X,X%X].q.8.",
"J..X$X%X%X>X$X,X_..X,XqX5X@Xu.u.OX{.`.`.OX2X,XOX`.u.8.;.4.`..XOX    ; A / ` j.B.A./. .W.W.R.R.W.} M j.g.` S h.7   .X,X$X].`.u.]..X$X%XOXu.`.$XqX1X%X$X$X.X`.u..X",
"].`.u.u.`.`.{.>Xy._.]..X.X.X.X%XOXOXOX$X,X5X,X,X$X$XOXy.y..X,X  u F G ` G d.` d.E { T.R.R.W.W.Z.l.T ` j.( g.Q   ].OX].u.q.u.q.*.;.].6XqX1XOX].u.u.`..XOX].`.].$X",
"u.u.u.`.y.8.q.`.$X`.y.q.u.p.XX%X.XH.]. X8.*.%.8.y.OX$X`.u.`.%X  b j.j.d.` d.` ` ] ` T.o.!.W.~.Z.D G ( j.T ( Y   5X%XOX.XOXOX8.-.`.%X,X].u.`..Xu.3.q.`..X].y.`.].",
">.8. X$X%X{.$X,X1X$X.X$X5X%X.XH.u.;.;.u.XX.X.X.X1X%X$X`.]..X`.  l ) g.] ` d.j.d.( d.F D U G D G ` ] ] ` s.d.c   ,XOX$X5X6X%XOXOXu.OX$X`. X$X.Xq.%X.X`.u.q.q.].%X",
"%.*.;..XOXy.q.>X1X$X$X$Xp.r.y.].*X$Xy.4.y.>X6X3X>X$X'.r.4.4.].    Y ` T T T G T T Y U ` T E E T T Y T G Y l.  .X}.$X$X>X&X>X$X}.#X.XJ..Xu.3.q.`.u.p.p.y.p.p.@X$X",
";.8.q.OX5X,X$X3X$XOX`.8.y.p.$X*X$X$X%X>X,X1X$X{.%X$X$X$X>X1X1X6X].                                          .X.X>X`.4.y.].$X].4.;.y..Xu.;.%.8.OX].].]..X%X$X$X$X",
"#X%X.Xu.].y.3.3.OX>X$XOX>XqXqX%X$X.Xy.y.y._.OX,X6.y.u._..X,X$X].8.].,X$X`.u.].`.]..Xy.q.].5X3X.X$X,X$XOXu._.`.].5X{.y.y.$X1X,X$X%XJ.8.8.8.q.3.;.OX.X`..XOX.X`.8.",
"u..Xu.q.y.OXOX>X`.[.OXOX,X%XOXy..XOX%X1X,X.X].>X$X1X,XOX>XqX6X$X6XOX].u.q.OX1X%X6XqXqX%X].`.u.`.OXOX`.`.`.`.].OXOX.X].`.u.].$X5X8.q.u.]..X.X%XwXOX.Xu.q.w.w.w.q.",
"u.,XOXq.8.y.u.`.[.`.q._.`.q.u.].1X1X1X5X$X_.y.OXy.]..Xy.8.`.].q.].8.`.5X,X.X`.y.u.`.OX$Xu.3.4.u.>X`._.u.{.,X,X,XOX,X,XOXy.q.`.$X4X.X.X,X%Xq.8..Xq.w.u.u.u.u..X+X",
"O.8.y.u.`.`.OX,XOX`.`.OX%X]..X,X%X.Xu.8.3.;.q.`.8..X$X].u.`.`.u.$Xw.u.`.8.;.`.,Xu.8.w..XOXu.w.`..X(.8.q.`.OX%X,X1X1X%X%XOX]..XOXu.*.*.u.%X.Xu.u.;.q.OXOX`.`.`.OX",
"@X1X1X%X.X`.q.`.q.q.u.`..X.Xu.u.,.y..X{.].`.q.q.4.u.].OX.X`.u..X`.u.,X,Xu.q.u..X,X.Xy.`..XOX].`.u.y.u.u.`.].].u..X`.y.u.`.u.u.y.3.u..X`.8.;.8.8.2.u.>X%X{.y.y.].",
".X$X].`.`.y.w.OX+X.X9.;.8.H.u.8.u..Xu.q.8.`.u.(.u.`. X.X`.`. X$X+XOXOX X8.`..X`.w.u.7.*.;.w..X`..X#X1X*X%X.X.X.X X]. Xy.q.7.4.8.3._.u.3.u.%X%Xt.4._.$X>X]._.OX>X"
};
