/* XPM */
static char *b779d8e220e54f26d3b533d9ccd49f82Ek5vCIowhlOCLOp6[] = {
/* columns rows colors chars-per-pixel */
"80 80 220 2 ",
"   c #030003",
".  c #0C0301",
"X  c #01010B",
"o  c #040D08",
"O  c #120201",
"+  c #130A01",
"@  c #180807",
"#  c #101103",
"$  c #001010",
"%  c #3C1C0E",
"&  c #281418",
"*  c #3D2114",
"=  c #461909",
"-  c #531B0A",
";  c #4A1D14",
":  c #54260C",
">  c #562A0F",
",  c #482516",
"<  c #5B2B12",
"1  c #622D0D",
"2  c #622F16",
"3  c #693319",
"4  c #723A1C",
"5  c #7B3C1A",
"6  c #442628",
"7  c #773C26",
"8  c #723C2A",
"9  c #6D4428",
"0  c #784422",
"q  c #87380D",
"w  c #8F3E21",
"e  c #84400F",
"r  c #BC591E",
"t  c #874424",
"y  c #884727",
"u  c #8D492F",
"i  c #934422",
"p  c #964B28",
"a  c #914B2C",
"s  c #9E562E",
"d  c #8E4D31",
"f  c #A04727",
"g  c #A95629",
"h  c #B75829",
"j  c #A24F31",
"k  c #AA5937",
"l  c #B55B34",
"z  c #BF6229",
"x  c #BB6435",
"c  c #C54B1C",
"v  c #C75B29",
"b  c #FB5F37",
"n  c #C5622A",
"m  c #C7682B",
"M  c #D96B2A",
"N  c #CB6935",
"B  c #D46B35",
"V  c #D47134",
"C  c #DC7433",
"Z  c #D5703A",
"A  c #DE7439",
"S  c #FD7D2E",
"D  c #E56C34",
"F  c #E86B32",
"G  c #FC6834",
"H  c #EC7C32",
"J  c #E87738",
"K  c #F47B34",
"L  c #FB7C34",
"P  c #F3773C",
"I  c #FB773E",
"U  c #F57C3C",
"Y  c #FC7D3C",
"T  c #C56941",
"R  c #CF7543",
"E  c #D27242",
"W  c #FE6C47",
"Q  c #E97845",
"!  c #F77546",
"~  c #FD7643",
"^  c #F47C42",
"/  c #FD7C43",
"(  c #FD7C49",
")  c #FD7B50",
"_  c #F9852D",
"`  c #FD8236",
"'  c #F68934",
"]  c #F5823C",
"[  c #FD833D",
"{  c #FD8A3D",
"}  c #FC9538",
"|  c #FCA83C",
" . c #FFB03A",
".. c #FDD33E",
"X. c #F5D83D",
"o. c #FDDA3D",
"O. c #F8E73E",
"+. c #98845C",
"@. c #9C8664",
"#. c #9C8A64",
"$. c #9C8A6C",
"%. c #A48664",
"&. c #A48C64",
"*. c #AC8E64",
"=. c #A48D6C",
"-. c #AC8E6C",
";. c #A4936C",
":. c #AC936C",
">. c #AC9A6C",
",. c #B4966C",
"<. c #B49A6C",
"1. c #AC8E74",
"2. c #B48E74",
"3. c #A49374",
"4. c #AC9574",
"5. c #AC9B74",
"6. c #AC967C",
"7. c #AC9B7C",
"8. c #B49674",
"9. c #B49B74",
"0. c #BC9D74",
"q. c #B4967C",
"w. c #B49D7C",
"e. c #BC9E7C",
"r. c #ACA27C",
"t. c #B4A274",
"y. c #BCA374",
"u. c #B4A27C",
"i. c #BCA37C",
"p. c #B4AA7C",
"a. c #BCAA7C",
"s. c #EB8241",
"d. c #F58343",
"f. c #FE8342",
"g. c #F68942",
"h. c #FD8B44",
"j. c #F68349",
"k. c #FE844A",
"l. c #FD8C4A",
"z. c #FF9344",
"x. c #FD9C44",
"c. c #F5974D",
"v. c #FE934B",
"b. c #FE9B4C",
"n. c #EF8752",
"m. c #FD8D54",
"M. c #FD9252",
"N. c #FE9B53",
"B. c #FF945B",
"V. c #FF9A58",
"C. c #FBA547",
"Z. c #FFA94C",
"A. c #FEBB46",
"S. c #FEA455",
"D. c #FDAC53",
"F. c #FAAB56",
"G. c #FEA45A",
"H. c #FFBA52",
"J. c #FF9761",
"K. c #C4A57C",
"L. c #C4AA7C",
"P. c #FFAA60",
"I. c #FEC342",
"U. c #FED543",
"Y. c #F6D940",
"T. c #FED944",
"R. c #F8D949",
"E. c #FEDD49",
"W. c #FFDD57",
"Q. c #F3E444",
"!. c #FDE244",
"~. c #F6E649",
"^. c #FEE24D",
"/. c #FEEB49",
"(. c #F7FA49",
"). c #FFE354",
"_. c #FFE954",
"`. c #FFF952",
"'. c #B49E84",
"]. c #BC9E84",
"[. c #B4A484",
"{. c #BCA584",
"}. c #B4AA84",
"|. c #BCAA84",
" X c #BCA68C",
".X c #BCAB8C",
"XX c #BCB287",
"oX c #B3AFBD",
"OX c #C49E84",
"+X c #C4A684",
"@X c #C4AB84",
"#X c #CCAD84",
"$X c #C4A68C",
"%X c #C4AD8C",
"&X c #CCAE8C",
"*X c #C4B284",
"=X c #CCB284",
"-X c #C4B28C",
";X c #CCB38C",
":X c #C4BA8C",
">X c #CCBA8C",
",X c #D4B58C",
"<X c #D4BA8C",
"1X c #C4AE94",
"2X c #CCAE94",
"3X c #C4B394",
"4X c #CCB594",
"5X c #C4BA94",
"6X c #CCBB94",
"7X c #CCB69C",
"8X c #CCBB9C",
"9X c #D4B694",
"0X c #D4BB94",
"qX c #D4B69C",
"wX c #D4BD9C",
"eX c #DCBE9C",
"rX c #D4C294",
"tX c #D4C29C",
"yX c #DCC49C",
"uX c #D4C2A4",
/* pixels */
"6X4X%X-X%Xi.=.:.9.u.:.4.4.w.@X@X&X@Xw.w.e.w.|.%X@X|.i.{.;X%X%X;X|.4X%X;X%X|.%X|.%X{.@X-X;X3X@X;X4X4X2X{.{.%X@X%X;X4X4X@X-X|.{.:.9.{.@X%X%X%X4X0X6X%X@X-Xi.:.=.9.",
"|.{.:.;X@X@X@X@X{.w.=.9.i.w.:.=.@X%X@Xw.4.u.{.i.u.u.i.;X4X@X%X;X9.5.u.6X0X6X4X-Xw.@X%X;X%X%X@X%X%X@X%X4X4X4X%X+Xe.i.i.%X6Xw.9.4.w.{.%X;X|.i.4.4.|.:.w.;X@X|.@X{.",
"%X-X|.-X%X%X%X%X@X@Xw.%X.Xi.{.4X;X{.5.w.i.u.{.|.|.{.i.w.{.{.9.4.-.9.8.{.{.+X@X{.w.4.4.{.;X%Xi.{.i.w.w.%X%Xw.9.9.@X4X0X%X|.=.u.@X{.i.{.|.{.{.i.i.%X|.@X-X%X&X%X@X",
"i.{.;X:.i.i.i.i.w.9.{.i.4.@.=.{.i.5.9.%X6X4X@X%X;X-X%Xi.&X&Xi.+X{.;X%Xi.w.9.@X@X{.:.4..X4X|.i.%X%Xi.q.{.:X[.i.u.i.{.%X@X;X|.%X@X4.9.i.%X;X0X{.|.i.;X|.:.i.i.i.w.",
"|.i.i.@X6X|.5.4.$.[.i.%X@.%.u.%X[.w.9.w.5.4.;.5..X|.5.;.&.5.u.i.-X4X|.w.9.9.@X%Xu.|.;X{.=.:.i.0X;X%X@X@Xi.i.=X;Xi.i.i.i.i.@X%X@X|.;X6X3.5.3XL.i.|.i.i.@X|.9.5.$.",
"9.9.|.6Xi.i.4X;X%X{.%X+X%X%X{.%X&X%X{.{.{.{.%X-X@X|.%X-X%X-X%X%X%X%Xi.        %Xu.@X{.w.w.{.w.w.w.{.u.4.4.9.%X;XK.{.*X;X0X&X{.i.u.|.%X{.{.%X@X@X9.|.4X6Xi.-X4X%X",
"3X{.@X@X%X%X{.[.%X4X5.4.i.{.4.{.{.%X@X5.4.4X;X|.4.4.5.u.-X0XwX6Xu.5.  z { h.h.  5.6X-X@X@Xi.|.%X-X0X;X{.*.w.@X&Xi.{.@X;X@X{.i.{.0X6X|.w.7.3.%XwX3X@X%X@X%X@X{.%X",
"[.w.5.qXw.4.{.u.4.9.4.%Xe.{.%Xw.w.w.w.9.w.e.9.{.%X@X%X|.@X;X6X0X;X-X  v { f.g.  .         i.{.6X;Xp.@X6X4X;X%X{.i.{.+X@X@X&X@X|.i.i.@X%X4XwX.X{.[.5.{.qX4.w.{.4.",
"4X-X4X{.4X{.@X{.8.@X4.w.4.w.w.+Xi.+X@X{.e.%Xi.%X&X|.+X{.i.;X4X4X{.9.  u A [ y H h.U l.N i   -Xi.w.4.w.@X%X@X{.9.w.i.@X%X;X*X@Xt.:.=.9.i.4.=.%X4X4X4X;X{.{.{.@X8.",
";X@Xi.@X8.q.-.4.i.;X@X4X%X4X%X%X@X%Xe.9.8.e.{.%Xe.w.{.9.9.i.@X&X+Xi.{.  x D.  v h.d.v.5     @.i.-X%X9.w.@.4.w.w.4.4.i.+X{.@X@X;X0X0X{.8.{.{.@X;X;Xi.u.@Xq.8.-.i.",
"{.9.:.&Xu.u.3X4X-X-X@X9.@Xu.i.%Xy.|.6X4X-X*X+Xi.|.+Xi.;X{.@X%X@X{.{.i.  f v   F z.f.b.t   4X;X{.{.i.{.%X@X;X%Xi.8.8.w.9.w.e.4.-.p.-Xu.4.i.;X@X%X{.:.9.&Xu.|.3X-X",
"i.{.i.i.@Xw.4.i.|.|.i.9.a.9.9.{.a.u.%X8XyX@Xu.+X;X@Xi.{.@X;X{.:.9.@X&X+X      9 3 2 >     @X{.{.@X%X+X%Xp.@Xi.w.:.,.i.w.9.9.e.K.[.%X%Xi.w.e.i.e.i.i.i.i.w.;.4.|.",
"oXi.i.@X=.w.-X|.i.i.K.K.+X9.8.e.@X|.%X%X%X@Xi.i.:.=.&.{.,X@X@X%Xi.9.9.+X@X@X%X        |.@X&X%X{.i.w.@X4X|.@X@Xi.e.e.4X;Xi.{.&X%X@X@X%Xw.{.;X;X@X@Xi.i.@Xw.@X-Xi.",
"9.:.4.i.4X@X@X;X6X4X&X+X@X+X8.].t.{.{.'.u.a.9X;X;X%Xi.i.:.        %X@X;X;X4X&X;X9.|.@X{.u.i.-Xi.9.:.i.%X;X-X@X{.w.0.{.+X8.i.+Xi.+X4X-X@X{.i.:.5.9.4.9.i.@X{.@X6X",
"@X0X6X6X@X{.4.9.{.i.i.w.8.w.1.-.u.&X%X1.%.@X@X@X{.@Xi.{.  : l.( k.    @Xi.i.e.9.wX@X@X;X%X|.;X4X{.u.@X@X|.-X%X&X@X@X@XK.w.;X4X-X@X+X{.-X%X9.5.e.@X6X9X6X{.9.4.{.",
"i.9.4.i.+Xw.:.9.{.%.@.@X4.[.4X%X%X%Xw.1.=.9.@X@X4X@Xw.4.  = M.l.k.e   i.@X%X@Xi..X@X|.i.9.w.{.;X@Xi.@X%X@X@X@X{.9.:.OX@X4X;X|.@XOXe.+X4.{.0Xi.i.i.4.9.i.w.:.:.{.",
"{.:.4.%Xe.;X-.=.e.-.+.5.;Xa.u.i.@X@X{.9.:.7.*X%Xi.i.+X9X,X@X. N.U l._   +X{.i.{.9.-Xi.4.9.@X9.@X{.8.9.{.i.:.4.i.;X+X|.i.@X[.:.p.|.|.+X;Xi.-.i.%X{.4.i.%X;X%X-.e.",
"9.;X4Xi.;X+X@X@Xe.%X-X-X{.@X;X@X@X@Xi.i.{.;X@X@X+Xi.+X2X=.w.+ b.Y Y [   9.@X&X@X&X&X%X@X{.{.+X{.+X{.{.&Xu.+X@X;Xi.9.i.w.5.i.4.4.@X{.9.i.+Xw.5.&.9.4X%Xi.+X{.@Xe.",
";X{.4.|.9.i.|.i.9.w.+X+X+X#X&X#X#X&Xe.e.K.e.,.8.i.@X4X-X-X+X+ b.( [ `   %Xe.4.w.i.{.i.i.@X;X{.:.w.+Xi.@X9X{.i.w.|.9X+Xi.+X8.&.-.{.i.4.9.{.;X%X;X;X4.8.|.i.{.|.9.",
"-.5.i.+X4X-X@X4X6X:.i.i.K.].OXe.8.0.8.9.+X&X,X#X#X;X4X[.@X  { { f.Z s   e.w.{.&X@X@X@X|.|.{.@X@X;X%X{.%X@X+X@X@X%X;Xe.e.+X8.4.8.{.;X;X|.e.5.+X4.-.i.%X+X-X@X@X6X",
"@X@X;X0X4X;X4X;X%Xi.0X%Xi.y.OXe.:.-.*.:.0.,X<.8.4.i.{.w.;X  [ f.k.q   9.%X{.@X4X9.9.i.;Xi.9.i.4X4X@Xe.@Xw.i.{.@X@Xi.i.%X@X9X0Xi.%X{.i.@X4X0X4X4X@X;XwX0X;X4X4X%X",
"@X9.:.yX%Xu.4.|.wX=.&.4.%X{.0.K.%Xw.@X-Xi.<.a.@X;Xi.e.e.  0 [ h.B u   9.@.8.e.w.i.i.i.u.i.i.{.@X{.i.+Xw.:.%Xi.{.;Xi.u.@X6X|.|.7.].i.i.{.-X6X-X%X@X:.{.yXu.;.4.wX",
"-X@X|.8X6X-Xu.-X6X%X{.p.@X%X@X+X5.>.i.*X*X|.{.+X%X|.{.@ P l.K N.7   9.9.      4.{.w.=.$.|.|.4.u.i.[.{.@X{.0X{.9.w.:.[.%X@X4.:.8.%X4X6X%X;X0X@X;X-X|.-X8X-Xp.u.6X",
"5.i..X[.|.}.r.|.4X4X[.u.-X;X;X#XrX-X|.4X6Xi.:.=.5.{.-Xo F h.P v.5   9.  m G.  %X{.|.4X-Xw.        ;X{.i.%X@Xw.w.4X4X-X-X%X{.@X4X6X-X-X%X{.i.i.9.5..X.X[.}.u.r.4X",
"|.%X%X-X-X6X4X.X{.w.-X|.@X-X@X&X%XwX%X{.|.%X%X;X|.9.5.+ F h.U N.5   9.  x b.  @Xu.4X4X4X  i t y i     -X4X|.w.5.%X0X;X;X4X|.w.9.6X-X9.9..X;Xu.i.|.%X;X-X6X6X4X{.",
"i.%X;Xw.L.@X;X;X3X4X[.@XtX0X*Xi.%X.X{.%X7X%X{.i.:.5.{.O J h.] v.4   $ x U m.  @X4X6X|.  h.d.^ ~ ` n.Q   @X;X%Xi.-XtX;X-X-X{.i.@X;XtX3Xu.i.w.{.w.i.;X|.w.@X-X;X3X",
"|.@X@X;X|.{.i.{.{.3Xu.[.@X@X@X;X%X%X-X4X0X4X-X-Xu.u.@X@ A { U b.4     x f.k.X 8X6X4X    N.f.U [ { k.Y   :.wXtX6X|.i.{.@X%X{.|.-X-X|.w.{.%X@X-X|.|.@X@X;X{.i.i.{.",
"{.|.{.9.,.9.-X;X.X4X6X-X-X0X;XK.i.:.i.#X@X@X6X;X{.|.@XO d.E < N.V n x J d.} h       l F d.f.S Z.O v.h.  i.-X{.+X@Xw.@X{.i.w.|.;X-X-X-X%X;X4X%X{.{.{.y.9.9.+X-X.X",
"i.0.:.@X&.=.@X%Xu.3X6X-X-Xa.t.|.>X-X5.p.3X8X3X-Xt.5.5.5X      b.H d.] Y / Y f.U j.U f.' U { <   9.    XX=XL.@Xi.w.{.a.a.p.a.*X-X@X#X@XK.i.0.&.*.i.:.9.@X=.:.@Xu.",
"{.@X{.i.=X;Xi.|.u.4.%X3X%X3XtX;X-X@Xu.u.[.4X7.u.[.@X4X|.9.4X  v.^ ] [ f.f.f./ { [ f.f.^ / f.,   u.-X4X-X;X9.9.9.4.:.@X{.@X@X{.9.9.0.i.@X@XK.:.:.{.{.i.i.;X@Xi.u.",
"@Xe.;.@Xi.@Xw.u.%X3X{. X%X4X;Xu.@X%X6X4X@X3X-X6X%X3XtX-XwX|.  D.v.h./ f.[ ` { l.{ { [ [ l.  %X|.{.i.-X0X9.i.|.@X;XyX@Xi.w.e.e.w.w.i.i.;X@X{.-.9.@X;.9.@X@Xi.w.%X",
"{.5.w.4.i.4Xw.9.u.{. X{.[.{.w.|.6X6X0X-X[.%Xu.|.u.9.{.w.|.{.0X    : h.z.{ l.v.g ] { { f.z.  %X4X%Xu.{.-X9X@X4X;X9.@Xe.i.i.i.@X&X%Xi.i.w.9.:.@X&X{.w.u.4.4X%Xw.u.",
"%X4X-X%X*X6X;X@X{.{.w.w.{.@X@Xi.<.u..X|.{.w.5.i.%X@X{.@X{.4X4Xi.    h h h l v t V { { U m   @Xu.i.{.i.u.4.@X{.9.9.9.i.3X;Xu.u.|.@X{.i.%X-X;X4.4.%X-X-X%X6X6X;X{.",
"{.u.3X3X@X-X{.{.u.%X&X@X:.9.K.9.i.@X              {.{.-X&X%X+X9.@X              g C ] C > 9.+X+Xu.w.5.9.4.i.4.i.;Xy.[.-X3X[.%X3X3X6X4X-X|.u.%X%X{.3XwX3X-X|.{.u.",
"XX-X;X*X6X-X|.+X+XK.{.i.%X%X{.9.{.  F.G.m.{ v.v.G.    i.i.y.9.i.i.i.5.5.9.;.  M N.{ { h.C.  &.=X@XL.y.9.9.@X*X*Xu.|.|.3X-X|.|.i.%X-X{.4.|.6X*X*XXX;X-X*X-X@X|.+X",
"|.@X;X@Xw.i.i.8.4.{.@Xi.i.|.+Xi.i.4.    { f.L U k.a 4   {.4X{.u.{.-X{.%X%X@X  A ) U [ ( f.7     {.0.5.@X.X4X3X|.4.4.6X6X6X-X%X-X=.#.;.-X-X@X|.@X|.;X;X@Xi.{.i.4.",
"+X{.+X9.4.u.@X{.i.u.@Xw.9.{.|.@X{.|.@X{.  v.] f.f.[ Y R   {.{.{.{.w.{.i.{.e.O   1 U / { g.{ J m.  u.w.w.u.uX6Xw.7.%X6X3X%Xi.@X@X%X;X4X4X@X{.&X@X+X+Xi.9.u.@X@Xi.",
"%X;X{.4.:.w.|.|.@Xw.{.w.w.i.+Xi.{.@X%X{.  v.] ] ] h.d.K   %X1X4Xw.4.e.{.e.i.    * f.[ [ f./ h.F.  4X{.-.=.%X[.=.w.%X-X@X|.w.w.i.:.u.@X@X{.i.9.w.%X{.9.4.w.{.|.@X",
"4.;.%X|.-X-X|.|.4Xi.{.%X;X@Xi.%X4X%X|.%X  Z.^ f.[ f.Y Q   |.9.5.i.@X5.3X%X;X  a B Y [ f.f.[ ~ g.h   4X%X|.u.9.u.%X|.|.i.{.{.%X;X9.w.|.|.+X@XwX3X4.%X4X|.-X.X|.4X",
"wX4X;.3X5X6X%X@X%X4.{.@X{.4.:.0X@X%X&.4.%X  u z.f.j.P P   |.t.@Xu.:.[.4X|.  ) L f.j.f.{ g.g.[ / z.  *X>X-X-X*X@X-X*Xw.{.-X{.e.i.e.@X;X{.@X4X7.[.wX;.3.3X6X:X%X%X",
"%Xu.w.@X|.[.[.u.u.-Xi.@X{.w.i.;Xw.;X|.i.;X  4 f.f.f./ Q   <X;X|.*X;Xr.-Xe.  G.[ f.g.f.[ [ f.k./ l.    w.p.-X;X-X@X-X*Xi.<.a.i.;.4.w. X%X7.4.%X;X%Xw.u.@X[.p.[.u.",
"i.|.@Xi.%X-X|.w.5.-X@X-X;X@X{.i.%X;X%X@X  x.f.[ ` ] [ f.  4X*X@X-X-X|.4.    l.j.g.] f.[ f.f.` [ { { Y   -X;X6X4X9.4.5.w.+X%X-X6X;X|.%X;X|.|.5.w.i.@X{.i.-X-X|.5.",
"u.@X-X4X;X%Xi.5.4.%Xw.i.;X;X@X%X@X@X|.@X  b.] Y f.l.B.  4X-X%X%X;X-X    v G.' [ f./ ] [ h.f./ f.j.f.^     i.5.4.%X0X4X%X%Xe.w.[.0X*X@X@Xa.@X{.w.u.-X;X4X%X|.i.4.",
"-X%X%Xw.u.w.{.@X{.@X-XK.9.w.w.;X@X{.i.i.  N.^ k.[ M c   i.-X-X-X4X4X  6 N [ I f.f.f.f.f.[ [ f.[ L f.^   , *X-X@X+X@X;X%Xe.i.{.i.@X@X@Xa.i.|.-X;X-X%Xi.w.w.i.{.{.",
"|.@X|.@X;X@X@X{.{.@X5.:.@X-X@X;Xa.{.u.i.  x.` h.N.&   9.3X4X-X3X|.  z.` Y g.f.` f.Y ] f.h.g.f.] ! h./ & {     i.e.9.0X;XK.#X;X@X-Xw.9.@X%X4X-X@X|.|.@X@X@X|.@X{.",
"{.|.@Xu.w.{.4X;X+X{.;X@X%X;X@X%X@X%X@X|.;X      l.h.v.  ;X;X        h.] / f.j.] Y f./ Y [ U [ h.] h.! @ f.S.p X ;X;X@X@X+X#X-X=X%Xw.w.%X{.w.@X{.{.@X{.u.{.&X4X+X",
"@X3X4X|.4.e.e.4.:.:.{.@Xu.i.|.:.5.u.|.{.p.X ; 7 f.h.(   9.9.  2 * , g./ f.h.U f.` / A.v.~ f.f.f.f.] ~ w { v.p   L.i.K.i.@X;X;X@X%X|.u.w.|.|.w.u.@X4X-X|.e.{.e.:.",
"4.w.{.-Xi.{.8.8.i.;X%X;X@X@X-X%X-X;X-X-X-X  d V.' ~ k._ O   S.P.8 , k.( Y [ f./ g.U `.C.G ! d.f.[ ] f.v.f.N.a   9.i.9.9.9.*.:.9.u.@X-X-X%Xi.5.:.4.{.%X-X{.i.8.i.",
"w.9.9.i.w.i.w.9.{.0X{.&X%X{.{.9.9.{.i.=.@.  t v.` ] ] D     ~ f.k.f.` [ ] [ ` f.[ ~ _.E.O.Y ` { [ k.k.[ ' B.j   8.9.{.+X@Xi.{.&X|.@X|.%X-X-X%X{.w.9.i.i.i.+Xw.{.",
"{.{.{.@Xe.w.i.%X;Xe.=.8.e.e.i.w.-X;X%X@Xi.i.  - { ~ ( S k n f.] f.[ [ ] f.[ g.] { / !.U.Q.( f.f.' ` f.f.f.N.p   i.+Xi.{.{.w.9.9.@X{.9.9.@X;X;X@X{.{.@X@Xw.9.i.;X",
"|.@X@Xe.%X%X8.=.4.&X&X+Xe.e.e.+X@X-X4X;X-X4X;X  v.^ ~ ) } ' J f.[ f.f.f.f.f.[ f.' / ^.o.~./ f.f.f.f.f.[ f.K y   i.{.4.=.:.4.:.4.{.%X{.{.{.|.%X+X|.@X{.e.%X+X8.4.",
"e.+X&X+X@X+Xi.@X&Xi.w.0.e.e.K.+X+X{.4.8.w.i.i.  J.( ] ^ { h + N.K f.f.f.f.f.[ f.{ / W.E.!./ f.[ f.f.[ ] [     +X4X%X%X+X{.{.$X%Xi.i.{.@X+Xi.8.8.e.&X%X+X+X{.i.&X",
"@X%X;Xi.+X{.{.@X%Xi.%X@X{.i.{.@X@X@X@X%X&X@X{.@X  T b.h.b.h # b.U f.f.f.f.f.f.g.d.k.L  .(./ f.[ f.f.[ h.v.  e.@X;X;X%X&X%X&X%X&X;X%X@X|.{.w.%X%X@X;X&Xi.{.i.{.%X",
"%X{.|.w.{.e.9.e.i.+X=.=.:.q.i.&X3X-X@X@X{.{.;.4.  k D B C p * v.Y f.f.f.f.f.f.f.Y f.~ b.R./ f.[ f.[ ] U B   i.9.e.i.8.4.-.w.+Xi.9.u.u.9.5.:.@X;X%X|.i.w.e.9.9.i.",
"0X&Xi.@X+Xi.e.{.+X&X9X4X2X4X4X9X9X4X;X%X@X@X6X;Xi.        ; d.Y k.[ f.f.f.f.f.f.[ / C.{ f.f.f.f.f.[ ] n   =.9.;X4Xi.+XK.w.4X6X4Xw.i.{.{.@X%X%X;X0Xi.{.@Xi.{.e.+X",
";X4XeX&X;X4X;X+Xe.9.4.8.w.i.{.i.9.9.{.i.{.%XtXwX4X-X{.:.  ; l.` { f.f.f.f.f.f.f.g.Y _. .~ [ [ f.f.f.g.v   4.w.+X{.w.e.i.w.i.i.9.e.{.@X{.i.{.0X9X;XeXeX&X4X;X;Xe.",
"e.e.@Xe.@X%X%X+X{.%X;X;X;X%X+Xe.%X%X;X4X4X0X6X6X-X;X4X4X  = { j.[ g.f.f.Y ] f.d.[ Y `.| b ( ] [ Y k.n.  {.&X@Xw.e.@X;X%X%Xi.w.9.:.w.i.e.{.@X+X{.e.@X+Xe.%X;X%X{.",
"9.8.:.e.4.8.9.9.9.&X{.K.@X#X@X;X4X0X6X0X0X0X6X4X;X4X;X4X  % ] Y f.g./ f.f.{ f.k.{ Y /.I.} / h.Y j.Y f.  4.=.=.4.{.%X%X@X{.-.-.2.i.+X+X4.9.+X8.8.9.:.8.e.8.9.9.9.",
"{.w.i.i.-X-X6X6XwXwXyX0X{.e.0.;X%X%X{.{.{.%Xw.i.@X@X|.|.  = N.{ ] h.f.[ [ g./ [ Y Y !.!.(.Y ] / g.` Y   @Xi.-X0X@Xi.@X@X%X%X;XrXw.i.@Xi.{.@Xw.i.{.i.a.i.-X;X6XwX",
"i.e.i.@Xw.i.i.{.i.u.4.4.4.4.4.w.{.i.-.@.+.@.{.i.4.4.9.{.|.@X  x.[ ] [ f./ / ] ~ / L E.U.Q.~ Y Y / f./   %X9.i.{.{.0X;X;X%Xw.5.5.w.w.w.4.w.K.w.{.i.i.@X@Xi.{.i.i.",
"+Xi.{.i.%X&X&XK.w.i.$X{.%X&X%X4.9.e.{.@X%Xw.4.8.{.{.w.@.9.{.  F./ { [ f./ ` H.( f.A.!.T.Q.H.z./ U { f.  8.{.@X{.e.@Xi.4.=.4.p.|.;X-X@Xi.w.e.q.e.+X{.+Xi.&X;X&Xw.",
"4.e.%X%X&X{.i.%X%X9.=.e.%Xi.w.%X;X%Xw.i.%Xi.4.4.&XwX4X{.{.{.  [ ^ f.f.f.Y _ ).c.x.O.o.U.T.!.x./ ( k.d.  %X{.4.9.i.w.i.%X4X%X{.u.%X@X@X%Xe.:.-.=.4.%X4X%X{.e.i.%X",
" X%X4X%X+X{.+X%X&X{.8.@X+X9.:.:.u.w.=.4.{.{.{.4.w.w.w.{.4.4.    a U [ f.Y Y E.E.T.T.T.T.T.T.z.G ~ { s.  w.;X4X%Xw.w.i.:.=.%X%X.X4X%X|.@X@X{.6.w. X4X4X%X{.i.+X&X",
"6X3X%X:.:.w.{.9.8.L.OX0.:.9.@X@X{.$Xw.e.@X4.$Xw.%X%X{.w.e.  J   0 U [ f.Y Y E.T.T.T.T.T.T.o.o.^.~ h.f.r   4.{.{.e.{.5.{. X.X{.[.i.9.=.8.{.+X.X4X6X%Xu.:.w.@X{.8.",
"[.w.w.w.4X%Xi.{.w.4.u.w.-.=.=.@X@Xw.=.@.@.4.{.@X4X0X6X5Xi.  ^   j Y [ f.Y Y E.T.T.T.T.T.T.o.U./.~ f.] N   %Xu.w.%X;X-X@X%X-X-X;X{.-X4X4X%X%X@X{.[.w.w.w.%X{.i.w.",
";X4X%X{.=.4.{.u.{.%X+X{.w.9.w.8X%Xw.=.5.{.-Xw.i.w.[.-X|.{.  B { U f.[ [ Y Y E.T.T.T.T.T.T.E.X./.~ f.Y N   {.w.{.%X|.e.9.w.4.8.w.{.{.@X;.=.:.%X%X;X%X{.{.4.w.{.{.",
"4X4X4X@Xw.+X%X+X{.;XwX4X%X{.u.%X4X%X{.@X%X$X@X%Xi.%X6X|.:.@X  x.f.f.[ [ Y Y E.T.T.T.T.T.T.U.E./.~ f.[ ) /   {.{.{.+Xi.w.{.9.4.9.+X{.{.8.w.$X%X%X4X4X-X@X+X%X%X{.",
"@X{.{.4X%X+X{.{.w.-.=.@.4.i.{.{.i.u.%X-X;XwX6X4X+X@X;X@X@X;X  x.Y f.[ [ Y Y E.T.T.T.T.T.T.o...^.~ f.[ Y h.  %X|.u.;X-X|.&X4X4X0X-X%X4X%X{.{.%X.X@X{.%X4X+X{.{.w.",
"4X%X%X@X{.@X4X0XwX%X;X%X%X%X%X{.%X%X{.{.{.@X-X@X4.4.9.e.-.9.  z.` { f.f.Y Y T.o.X.E.U.E.Y.T.I.A.~ h.f./ h.  %X;X4X4X|.{.p.i.u.{.;.=.;.{.%X|.|.;X4X%X{.@X@X%X4XwX",
"%Xw.4.w.{.{.4X0X4Xw.1.&.4.w.{.%X%X%X%X%X%X4X%X%X4X;Xe.:.    M.U h.d.[ f.[ g.W.!.U.U.Y.U.T.!.h.W ' h./ ` {     7.%Xw.@X4X-X%X-X-X3X|.{.{.u.3.%X4X%X4.w.w.{.%X4X4X",
"w.9.&.i.+Xi.e.u.@X;X9X6X;X;X;Xi.9.4.:.e.{.i.@X-X0X4X-X  j V s.{ Y k.[ f.` I x.U.!...R.Y.^.h.f.{ / f.f.f.Y x y   [.|.|.4.4.@X6X%X|.-X@X{.@X@X5.9.w.&.3.i.i.u.e.@X",
"6X4X%X-X%Xi.=.:.9.u.:.4.4.w.@X@X&X@Xw.w.e.w.|.%X@X|.i.  P h.f.f.Y [ { g.] f.] | Z.x.x.x.Z.Y f.f.` f.f.S h.V.p X ;X4X4X@X-X|.{.:.9.{.@X%X%X%X4X0X6X%X@X-Xi.:.=.9.",
"|.{.:.;X@X@X@X@X{.w.=.9.i.w.:.=.@X%X@Xw.4.u.{.i.u.u.i.  n U Q h.[ [ f.f.f.[ Y ~ ~ ~ ~ ~ ~ / { f.f.h.` ( Q ` i +Xe.i.i.%X6Xw.9.4.w.{.%X;X|.i.4.4.|.:.w.;X@X|.@X{.",
"%X-X|.-X%X%X%X%X@X@Xw.%X.Xi.{.4X;X{.5.w.i.u.{.|.|.{.i.w.      M.K Y / Y ] K / ( / ] d.Y / ~ ] Y U / L T       9.@X4X0X%X|.=.u.@X{.i.{.|.{.{.i.i.%X|.@X-X%X&X%X@X",
"i.{.;X:.i.i.i.i.w.9.{.i.4.@.=.{.i.5.9.%X6X4X@X%X;X-X%Xi.&X&Xi.                                          :X[.i.u.i.{.%X@X;X|.%X@X4.9.i.%X;X0X{.|.i.;X|.:.i.i.i.w.",
"|.i.i.@X6X|.5.4.$.[.i.%X@.%.u.%X[.w.9.w.5.4.;.5..X|.5.;.&.5.u.i.-X4X|.w.9.9.@X%Xu.|.;X{.=.:.i.0X;X%X@X@Xi.i.=X;Xi.i.i.i.i.@X%X@X|.;X6X3.5.3XL.i.|.i.i.@X|.9.5.$.",
"9.9.|.6Xi.i.4X;X%X{.%X+X%X%X{.%X&X%X{.{.{.{.%X-X@X|.%X-X%X-X%X%X%X%Xi.%X%X@X@X%Xu.@X{.w.w.{.w.w.w.{.u.4.4.9.%X;XK.{.*X;X0X&X{.i.u.|.%X{.{.%X@X@X9.|.4X6Xi.-X4X%X",
"3X{.@X@X%X%X{.[.%X4X5.4.i.{.4.{.{.%X@X5.4.4X;X|.4.4.5.u.-X0XwX6Xu.5.4.9.w.w.5.4.5.6X-X@X@Xi.|.%X-X0X;X{.*.w.@X&Xi.{.@X;X@X{.i.{.0X6X|.w.7.3.%XwX3X@X%X@X%X@X{.%X",
"[.w.5.qXw.4.{.u.4.9.4.%Xe.{.%Xw.w.w.w.9.w.e.9.{.%X@X%X|.@X;X6X0X;X-X;X%X@X%X4X4X-X|.@X@Xi.i.{.6X;Xp.@X6X4X;X%X{.i.{.+X@X@X&X@X|.i.i.@X%X4XwX.X{.[.5.{.qX4.w.{.4.",
"4X-X4X{.4X{.@X{.8.@X4.w.4.w.w.+Xi.+X@X{.e.%Xi.%X&X|.+X{.i.;X4X4X{.9.9.;X|.u.i.-X4X{.-X%Xw.i.-Xi.w.4.w.@X%X@X{.9.w.i.@X%X;X*X@Xt.:.=.9.i.4.=.%X4X4X4X;X{.{.{.@X8."
};
