/* XPM */
static char *c888fb9538bf485ab3a0bc1b0b766184sFGtb2NdoRsy0PSQ[] = {
/* columns rows colors chars-per-pixel */
"80 80 119 2 ",
"   c #94865C",
".  c #9C825C",
"X  c #9C8A5C",
"o  c #9C8664",
"O  c #9C8A64",
"+  c #9C8E64",
"@  c #9C8A6C",
"#  c #A48664",
"$  c #A48A64",
"%  c #A48E64",
"&  c #AC8E64",
"*  c #A48A6C",
"=  c #A48E6C",
"-  c #AC8A6C",
";  c #AC8E6C",
":  c #A4926C",
">  c #A4966C",
",  c #AC926C",
"<  c #AC966C",
"1  c #AC9A6C",
"2  c #B4966C",
"3  c #B49A6C",
"4  c #AC8E74",
"5  c #B48E74",
"6  c #A49274",
"7  c #A49674",
"8  c #AC9274",
"9  c #AC9674",
"0  c #AC9A74",
"q  c #AC9E74",
"w  c #AC967C",
"e  c #AC9A7C",
"r  c #AC9E7C",
"t  c #B49274",
"y  c #B49674",
"u  c #B49A74",
"i  c #B49E74",
"p  c #BC9A74",
"a  c #BC9E74",
"s  c #B4967C",
"d  c #B49A7C",
"f  c #B49E7C",
"g  c #BC9A7C",
"h  c #BC9E7C",
"j  c #ACA27C",
"k  c #B4A274",
"l  c #BCA274",
"z  c #BCA674",
"x  c #B4A27C",
"c  c #B4A67C",
"v  c #BCA27C",
"b  c #BCA67C",
"n  c #B4AA7C",
"m  c #BCAA7C",
"M  c #C4A27C",
"N  c #C4A67C",
"B  c #C4AA7C",
"V  c #B49E84",
"C  c #BC9E84",
"Z  c #B4A284",
"A  c #B4A684",
"S  c #BCA284",
"D  c #BCA684",
"F  c #B4AA84",
"G  c #BCAA84",
"H  c #BCAE84",
"J  c #B4A28C",
"K  c #BCA68C",
"L  c #BCAA8C",
"P  c #BCAE8C",
"I  c #BCB284",
"U  c #BCB28C",
"Y  c #C49E84",
"T  c #C4A284",
"R  c #C4A684",
"E  c #C4AA84",
"W  c #C4AE84",
"Q  c #CCAA84",
"!  c #CCAE84",
"~  c #C4A68C",
"^  c #C4AA8C",
"/  c #C4AE8C",
"(  c #CCAA8C",
")  c #CCAE8C",
"_  c #C4B284",
"`  c #CCB284",
"'  c #CCB684",
"]  c #C4B28C",
"[  c #C4B68C",
"{  c #CCB28C",
"}  c #CCB68C",
"|  c #C4BA8C",
" . c #CCBA8C",
".. c #D4B28C",
"X. c #D4B68C",
"o. c #D4BA8C",
"O. c #C4AE94",
"+. c #CCAE94",
"@. c #C4B294",
"#. c #C4B694",
"$. c #CCB294",
"%. c #CCB694",
"&. c #C4BA94",
"*. c #CCBA94",
"=. c #CCBE94",
"-. c #CCB69C",
";. c #CCBA9C",
":. c #CCBE9C",
">. c #D4B694",
",. c #D4BA94",
"<. c #D4BE94",
"1. c #D4BA9C",
"2. c #D4BE9C",
"3. c #DCBE9C",
"4. c #CCC29C",
"5. c #D4C294",
"6. c #D4C29C",
"7. c #DCC29C",
"8. c #DCC69C",
/* pixels */
"9 h D h 9 , 8 < D E D x v G f , 0 x G G D c ] *.D D P @.L f Z / x v x 0 , 9 i D [ W < % x m x W f 0 x E v 8 , h 2 p b ! { { B b B { ` R v b B v W N b W X.} { W ",
"h f u d v v d ; 9 u 9 < d E E S G x q D %.,./ x x f D / ^ v D @.v E / ) / / / { } *.} W W D b G D x v S b d u S Q E M v N W { *.N D b l i i v v R v v v v d u u ",
"v S v y y v ^ { / { / E E ] { / ] { @.[ ] ] P E D S D E D f u v / D h 0 u v E { f f D L v f S f v x f v x h d y t u h T v h S b R v v v v v i v 9 u u u 8 & , u ",
"f v R f u S { ,.D ) { / D S h u u D { b = o % f S v v v D v f x h v E ) { ) D f +.d f R D $.%.R x E / W / / R h g g s y 8 d R $.a 9 u v R i y u v S R E D v D ) ",
"h f u v ^ { ^ h = y f h h v v f ] { ] / E b S b x f f E / { $.%.S u = = 9 v ^ { / d s d d S D w 0 D / R v R D h g h g u y d S / E v v R W D v R v v S D S d u u ",
"R R f y u h v f M S R S M D ( $.E E E / } $.E v ) E E E E E D N D R ( ..>.>.{ ^ y 8 0 d , = 8 ; f b D i 9 u v v ; u T ^ R h u < $.E v f h S E { / ^ R ^ E R h f ",
"/ / R y = 9 D ) ) R R h h h v T E ] %.%.{ ] { %.{ { ) E v h u u $.Q S u s h T R E ) ) ) { ) W { / ] { / E R E ~ ! Q E B E W { } D S f , , u v D y 8 = , 8 8 , 8 ",
"E R S v E ) E v d p d h h M S R R S u 9 y d f v v N E N R E ! { ( E R T v M v R ! W v a { { b R W / ] $.] R f y p a E ) X.} W B ( %.>.^ R / $./ +.^ R S S S ~ / ",
", , y S / { ^ v v a u 3 , , , , < , 8 u D W ) ^ i 9 ; = = t u p < d v h 9 , 8 u S v h f u y u h 8 y p h h R E ) G b B ] { E W } W { X.] v y u v b D / { ) h u g ",
"R D v D E ^ E v / E R D b D E E E E D E / ) ] E D E / { { ! T h D R R b b R ) } D v v h u ; o o ; y f h h d t , W v u h G W E E u u y h E } } { / / ) / W ( ^ ) ",
"S h u u h v D R = = ; , s v / ) @.] / E E D b S : 9 u h ^ ) ) ) a v v E E E D v h f S / { { E R h T E ( W R v g v h 9 , 2 h v v 9 i v v u u h b y y 9 ; , f R v ",
"R v S h D R / ) >.$.$.+.$.$.-.>.>.%.>.{ / E E E *.{ G v f f h h f D E ) { ) R b v y 9 u S v d u ) E D R R ^ E R h R Q u ; y S ( v 8 * u { 3.$.v Y R M d v %.=.%.",
"$.} $./ E D v v d C f C v C h V D E / W E D ^ / W ^ / { { { ) E b v D v v E { ,.2.>.{ { $.^ E D E v u 9 9 y 9 , d E ( g ; , p u d E { ) f 8 y f M ) ( R { 2.2.} ",
"{ $.{ { R h s u 8 y d f v S S v u i x S v D E / 6.2.=.%.] S 0 , h h v f a f v E R R E / ) D R E %.{ / ) %.%.{ / R R D h h g y 8 y , 8 d R W D d u h v f h b v u ",
"E ^ { / R D E / { } { { / R v h / / ) { $.%.%.,.*.*.] ] { %.>.%.W ) { >.{ W R v ^ / ) E f , u S 0 8 < f b E v d / ^ E O.$.] ^ ^ D ^ ) E d s h E / { / / R v d u ",
"9 y u u u i D ) D N E E ! W ` { %.,.%.*.,.,.,.,.*.%.] } %.} %.%.>.{ / { { %.{ ! / ) / S , ; d ) ] E D R ] } / b * = e D S f S $.8 4 * * 9 C D ^ ] / E D u ; ; 5 ",
"x G #.#.] U } 4.} m v b b v v M d v ^ / D f 9 8 b b D u , , u v m H B v h t 4 - 9 v E ` } *.` E W ` _ b l E W B W ` } ` H G G F W } } W E W } ,.' b i v / / i + ",
"] ] } *.*.2.2.2.8.,.{ D h p R { / / E D D S E / d v E E E G E H W G D x d h C Y ) / ^ v b E W m i x N b ] o.} G m E { } %.*.*.6.E v v ] ,.} E v l E W / / / } 5.",
"f v S b S b v x 9 9 9 9 8 8 t d D v e ; o . o o D v e 9 9 u v D G W W { ) ( T h v D G b D b i u u f v f u u = . p i a u 9 < y f / v i v D f D ,.` { { / D f 0 0 ",
"^ ) { ) M f g v ~ D T ^ ) ^ h 8 u h D D E ^ D f 9 y f D D f = o u f D ) ) b g y x S R ) / E l u D $.%./ K ^ $.$.{ ) E h y y u f y 0 S W D i h W W b 9 = = 9 c G ",
"h h h u t ; * - d d d f C C C f 8 0 S D / { E S / v y f D ^ ) $.x h v E ^ R E ( ^ S 9 , 9 u f v s f d s y f D ^ d y 8 ; ; 8 h R i u u f v D f , % < v D S D @.6.",
") D g v ^ / M u * g ( ^ v f D / { / E f v ^ L v 8 8 d ) 1.$.^ D S v S E / v v b ^ d = $ 8 i R ] $.^ C f S S w * ^ D S h d h R { / ^ D 9 u f v f h b / $.@./ D x ",
"R D v R / ) ^ D y E { R u , : , x f 8 = 9 D / D S 9 8 d f f h S 8 4 9 S v y , , D V d S / $.*.,./ D v D D D v d / O./ D v f h h d D { %.^ f d f } v , = V ^ / P ",
", f E D i y x B Y a < , u E W W D ~ v d h E v 9 ~ f V ^ ^ S d f g 9 y v R R W <.V 8 4 e v D v D / { { / v f v E r Z A D V i d i D 9 8 S D S h D , 0 S K ^ L D A ",
"/ v 9 f ^ { / D v f u 0 f v @.2./ / / / D Z S D E D b G P G P [ ] G / 2.*.G c { U _ c 9 0 D E x : q P } #.W G G r 9 6 f G %.#./ / / R f = * 8 f x x x x c G x 9 ",
"$./ D v S f u 8 x d 9 ; * = d E E f , * o o = 9 D W ] %.<.=.*.&.v 9 : v G D D E ] =.:.] W W / / G / ] %.] G e : f b / *.2.:.{ G ^ / ^ x f G / { ] ] W / / ] [ } ",
"= 9 f S x S E / R D v f u d E ;.^ d = = 0 S E ] f v f f A ] ] G D x D ] } / E G Z D E D v d u u E { ,.{ S , % * 7 f G ^ G S x f ^ E D f S / / G E h u f u 9 y f ",
"f R ^ / R D ^ { 1.%.] ^ D x D / %./ x S E ^ G ~ W / W b / *.%.G , v E D 9 , 0 d W h 9 u S v u y f S R D f y 8 , x G / ] / G / ] D D D D D D D R / v f D R u 9 u ",
"= 9 u x S E / %./ ^ E / { +./ { / D E / / ^ D D v L W G / >.E 9 f R E f , 9 b { ) v f v E R D v h u 9 v E { R v e S P %.#./ L D : = 9 E S 9 d ^ E d y v / D v D ",
"/ R D S S f 9 ; = o o 8 v D D S v x D ^ ] { %.1.*.%./ R W { $.E E / { { $...{ / d D ^ E D v S G f D / { / / { %.f x x D G G b Z y 9 f ^ G f x { 2.] G ) } $.%.,.",
"D E ^ %.,.2.%./ { ^ D ^ / / E D / ^ D D D S D W ] E f 9 9 u h h ; 8 i R D f 8 $ v { %./ D G U ] f G { ] D b G ] ] / / / / @.%.*.;.$./ / { %.%.$.G G D c x v x D ",
"D D / %.,.%.R f 4 $ = 9 f S R / / ^ G ^ / / / $./ / { %.{ h y , ; ; y y , ; y R { } / x x H [ U W 0 + 9 W #.c = * : d x x x f f / ^ u * e $./ d x W %.[ / / ] ] ",
"= 9 v E ^ E / / m E W B E _ { { v R R R h u t , = < 0 f v G ^ / D 0 O 9 G S > : %.] G x D [ 2.<.%.S 0 f / $./ ^ 0 9 , 8 f / / S 9 0 0 i D [ =.&.] { x D E D x $ ",
"R v x h x E / { >.*.,.} { { G v u 8 , , h S D v E ] %.,.%.] / W ] W D E ] G D { D G G G ] %.[ ] f f d d 9 9 u D W D i 9 S ^ / ^ { W f = = q A G E G 9 9 b W *./ ",
"/ v , = , u f x < 9 < 9 f E E E ) E h f f h i d G / { W G v b D { { / / { E G %./ ] { / G E / G ^ D D E ] @.{ @.W ) { $.%.%.+.S D E ^ W / { } %.W $.W ] $.G D , ",
"2.] R D G ^ E D ) { %.{ %.,.,.*./ %.%./ v u f v v b D v f x E ] D S i f G f , , x D b f u 0 0 u 9 : 9 S / / D d , 0 v E ^ D d 9 * u R ) E f ; o / ] v D x i D b ",
"E E G E E D v f = i R v d < = = E / ) E f 9 u x S b D x x v / } %.{ E ^ { D u 0 x W *.<.*.,.%.] f S E / { $./ / E / / ^ E ^ / $.$.{ $./ R v h v = b / *.) f u 9 ",
"/ / ) / / W ^ E f ^ / L v D ) %.{ D u 0 f b v x D G E G D v x f D E D u 9 , ; u y f S D R G E D d 9 9 9 D / { / v v D v d w f ^ / G f u u f E %.2.<./ G u = x E ",
"v v v v v f f i S b h 8 o = d D b 0 < u / *.,.%.W / / { ] / D v ) %.) v R S D { / E v f i S E E D f , 9 L ,.%.G v E / / v 9 s S | W A b x f v S G / E } %.G / E ",
"E G / / / E D h S ^ $./ ^ ^ E ^ / / / P / / G G v x f b E W E D h h ; 8 v R h d v v v h S ^ E R G $.%./ E ^ ^ D D R D f = o 8 ~ &.] H P / G b G E G u G / G W D ",
"*.G u 0 8 @ : Z v / f o # x / / A f q u f q e 9 : 0 D P G q 7 > % : 0 x b G ] %.G S f i i x E / x x G { D , = , v ] ,.{ / / W E b x v ` } W b b b v v v b E ^ E ",
"v b ] $.{ / K D ^ R D / / S d / ) / D D S S v S / ] / W G / { ] / ] ] / / G / / b G / / E G W / x G E D f i f S f i f f D E x 9 9 , i / } ^ N D E _ } ,.,.) D v ",
"/ / W D Z ^ { $.0 8 , v D 8 = D D / %.E 0 9 S %.} H x 9 9 0 x x ] %.<.2.*.W x 0 9 9 i f f f 0 9 0 W *.] E / E b G E / ] ,.<.{ D & , f W ) b b D W W { W D S b D ",
"{ %.>.%.} $./ / R ] $./ %.,.,.,.2.$./ ^ $.%.%./ / ] / ] { *.2.,.%.} / / G E / { / E b D W / W D x / %.*.%.{ D h 9 D { } / D G W / / { *.{ ^ E / R b x u u i R / ",
"f 9 d S x 8 8 u 8 ^ / h D / ^ f f f i d u d f h i D { / W / E G E / } *.,.*.{ ] } ] / W ^ W $.%.[ G G E E D v v D ] *.{ c f E *.%.>.} / D f v D b R E W ] ) W G ",
"$.D S E S y u E 9 f u 9 d f f R v R ^ E S h b ^ v / } ) G R G S v D { %.%./ S u u D { G x u b ] %.G D ] / b f v ] W b f 9 9 f E / / E S u 0 d v / W / { %._ E k ",
"s s S ^ E f , , S d : 8 u 9 f $.1.f * ; ^ %.S # = u f f v E { / { D u 8 < f b ^ D G / / E G / { G G ] { / v f y %./ / { ] W / ] v D ^ E D R D D / ^ D b v N b B ",
"y s y ; 8 v ) { W %.$./ $./ R ^ E ^ R h u y d h D ^ R h f D S u u d v E ) / R v D < o O i D f : H { ] f < 8 0 u o : v ] / v i f o * 9 d f d 9 8 v v R D b E W } ",
"x x G #.%.] ] ] W i b W x v ] / z H ] *.%.[ _ _ R b b G R b W { D E E / E E D D b v v v E E E v D G G D f v / %.{ E D D v v D ^ E / { / v f y y G f u f v g 8 ; ",
"W f : 9 b G / G b i E m u u G S m x i / :.8.*.W x R / { W v v D E ] { D < : u E ) E R v D R E E u f v E } *.{ W D v D E / D R / c b E b f y < 2 G v f u y u h M ",
"D x G / / G / / N E { Q u g R R b W %.] D f k c W W { W S x E } / E b v i h b D h i u u u i v v G D f x v x 0 : v f h i y , : , G W / W E b R D u v d = $ 8 g v ",
"= f E ] G v x b N M R T u t d h E G G / / / W E v v u < = % 2 D X./ E E / E v u i v R E E ) / ) / ] { / G D E ) / E D v f S E %.G W W E b v h h E %.{ v h D ) / ",
"%.W D E { *.*.$.) R v E T y t C k D D D V x D m >.} { { / b S b < v W / W D W / E E { { $.{ ) { i D G E D b x v ] / v u , 9 v ^ } { ] E D v f a h D R y 9 v R v ",
"E S u 9 u D R b v f t y d 4 # ; x ) 1.^ 4 # 9 E W E D D E b v D , u b E / { ,.<.) / E b v v h i 2.{ E W { %./ G { } $.D x v E E H W ] / ) E E E R E M f S { %.] ",
"x D R v x v x f E ,.{ ^ $.$.^ $.} / D S ^ / / ) } / E W E E / { ,.%.{ { { ] E v } ) E R R b v v W f 7 9 x / { / $ 9 f f h D / { f i v b b R v v g d d h b D E G ",
"R f , , u S y # o E G 9 Z $.@./ ^ ^ ~ d 4 * 8 u E W { %.E f 3 9 b { 2.,.{ E W { D v v E / ) E v L W E G v x i f D { { E v D E ^ W H E E D h u < h Y E %.>.{ G E ",
"g { ^ ; * h v ;   q [ } m x v b E W m D i , 9 e _ / m v v R ) >...{ E f y 9 h b S v v R D D v S i R ] b 9 % u E u S E D y , u D v f < 9 b { { R H G v W *.Z , c ",
"{ R D E E h v ^ [ ] W D E { { W W W G v v D / { E E m R b R ( +.= < f N E W ) { { h 8 u E { ) E ) _ ) / E b D D R R D R D S D ) x v R E { ] b u 9 v f 0 D b 9 9 ",
"f 9 p ^ v o ; E W f % $ < v v f Q E v u u S R v N v h u 9 , $ $ R R b R D E b D R v S D R S v S E D b R E W W E G u 8 h D N R / W E W E D v v b E %.) R / { S h ",
"u v D G v u 9 f R R R R Q ) ) Q Q ) Q h h N R h 2 t 2 v W %.%.] ] E R b E W ) E y v E / h , 9 f b N D b v v E { S y , f R f v E >.W D v f i G >.$.R v R R y $ ; ",
"%.] E E $.*.E , v v v N C Y a h y a p y u T ) ) X.! R Q { %.W Z E R b ^ ) { ^ N D S v h f h D ) E / W E G R G D E b E { / v S / E G R E W E / { ^ h h R S y 8 t ",
"%.{ %.%.} / D b ,./ M v l Y p g , ; ; & , a Q X.3 t , 9 v D v d { W R v R b v f ^ E / ^ D v E $.i u u b { { b u v ^ %.$.E f h E f v b D E W E v h b ^ E D >.,.v ",
"] { *.,.%.G E ] / v f h a u p h E f d x v v m ] W W B v u , $ # R v u y i R / { a S E ) v u f R , = : u E / b 9 h R ) R v h f h u b v i f E E x , 9 f f u W / 9 ",
"/ x : 9 H 1.H = % 9 N / D a f N ^ f f W ] v 1 3 m W } { v g y g u f h b R E E R S , . o y f h f v b v v x v v b S E E S v E R f < D / b D } { v ] x W *./ G G r ",
"=.[ n x ] *.%.^ D c D W / E m R q 1 q b _ _ ] H S R E / G D D H *.D v / ] b f b v 8 9 R ) v 8 9 S D f = @ u G G 9 i x v A b D E D %.,.D i v f , 0 A / W v 9 , y ",
"H F x j G $.*.%.Z x b ] } } ] ! 5.[ b G %.=.] v , = = 0 D ] ] / { W D G D v D %.%.S 8 : @ * u / D x G %.] Z f Z u % * x { / D b / } W f f G %.%.} ] ] / G D E $.",
"I _ _ D x x D Z W D x D { { } o.A D Z i f G L G { %.} / R b G / [ ^ b W %.<.{ G { { { } ) m D W G d 7 0 0 0 D %.W 9 0 { 2.{ D D b E / W E / / W #.] ] { %./ E G ",
"[ *.=.%.P D x f ] H / W ] W W ) / 1.1./ S G $./ / } %.G u 0 D } D v f x { *./ 0 G b u < 9 i D E x / %.%.%.2.1.] G G { 2.<./ E ] %.{ G f 0 i / ,.$.{ { %.{ G f u ",
"B E ] } } @.] %.Z E %.6.,._ b b ^ L D S / -.$.^ D v u , 0 D W / D / W x f D { ] E { } ] W D E W %.:.*.G D L ] G f E %.] G D b G E ] { / v D ] 6.*.} ] ] E D b E ",
"G D v b D D L @.x A G W W E W { / ^ / ] $.,.%.%.] ] ^ x x E %.} / { ] E E / { / ] %.@.x O o 0 ;.*.%.%.2.*.D f x G / G v f b f = , G 2.6.*./ G v v D E / G D G ] ",
"b v v S x i f D ] D x f b m ! } E N G R i = % u x / [ D v D { >.D x f G } %.b : 9 Z $.2.L 8 6 S 2.G e 9 : : Z %.,.} / E / / i : D { %.G v D E v 9 d D E G x D G ",
"2 u R ] { P ] %.*.] E ] ,.} W N b , , v ! E E W *.} ] D G W S , E E E ] %.] W D K V J $.;.L O.;.#.,.*.L G ] %.%.%./ ] ,.2.} / / v / ] D R ] W f { E D v f f G } ",
"$ = < E / x f @.=.[ ] [ m k x H  .[ c q c #.2.:.#.] F k 0 0 G &.*.G G ] D f A W P G W #.] D G [ E W E m b v m E I ] ] #.| #.] U ` E B W b 9 d S b m m c m m _ ] ",
", u f / ,.%.] ;.] / D i x m ]  .] [ } #.%.*.[ P } ] ] ] #.*.=.2.H D P v : : G ] < : = 9 G *.*.%.{ } } / E D E W #.D q x G ] G 0 < x W v , $ u / G G G W } [ ] ] ",
"` { E b G x 9 9 / @.] / @.6.6.} [ W c x x A / %.r x b A W %.] G u G %.[ D b G D G W x f G <.;.W ] $.] ^ b Z S G <.P x x ] *.%.] } B i u u f 9 , / E D E / W D i ",
"b W b f x ^ ^ @.S K ^ ^ $.{ / x W / } *.%.E G @.] *.%./ #.6.2.] 2./ G v f / *.} 1.6.6.{ G D b S / ^ D S S D G ^ / W G D b G ] <.i f v G W E { 7./ E v f h h h f ",
"b %./ f i x v D K S f Z S f v G =.*.*.<.] Z x ^ x G E x i D G f G i D ,.%.W D x v D / ] b 9 0 v @.D Z v L $.%.%./ %.%./ x f D ] >.E W %.{ f i E f h v v v v E ) ",
"X i c v D D ^ $.^ S S / { G E %.} W b u 9 , f D u E ] G b D D b ] h b D u , D %.v u h E / b h D E V u d D / { $.*.*.} { / G W ^ b = * v } W b v , f / / D S D / ",
"_ =.=.{ W S f S f f v D W E b v 3 x E L G S f d 0 v G / E D b E S v $.%.b d v E %.E x S E ^ G D v x v v D G G b E D x v D b v x 9 v W D u < u i 6 v @.{ L x x G ",
"W ] G D D x h ^ ) E a , u N b i b E b f u S v V b S R E D D R ] ) / / R u S E D h v y * , h E D W ` *. .} W E W R G R x f y 0 u 8 Z v 9 v } } l 0 A ] @.G A ^ @."
};
