/* XPM */
static char *de82796838c147da9fac079cbde4d963X4SyzhRuU2UTnvKf[] = {
/* columns rows colors chars-per-pixel */
"80 80 255 2 ",
"   c #040303",
".  c #090707",
"X  c #0C0C0B",
"o  c #120D0B",
"O  c #13110E",
"+  c #1A120E",
"@  c #0F0F11",
"#  c #141314",
"$  c #1A1616",
"%  c #1B1A1A",
"&  c #2F160D",
"*  c #261C17",
"=  c #2B211C",
"-  c #38251B",
";  c #1E1E21",
":  c #241F23",
">  c #2C2424",
",  c #292728",
"<  c #352926",
"1  c #3C2C24",
"2  c #3B322C",
"3  c #2E2C31",
"4  c #3A3433",
"5  c #491810",
"6  c #482918",
"7  c #542D19",
"8  c #692C1D",
"9  c #472B26",
"0  c #592A26",
"q  c #483429",
"w  c #573828",
"e  c #483A36",
"r  c #583C34",
"t  c #643928",
"y  c #77372E",
"u  c #673A32",
"i  c #5A432E",
"p  c #4D4139",
"a  c #594539",
"s  c #6A472C",
"d  c #654838",
"f  c #774B3B",
"g  c #69533B",
"h  c #76563C",
"j  c #666633",
"k  c #3E3C4C",
"l  c #373950",
"z  c #3B3B50",
"x  c #483C4C",
"c  c #423D50",
"v  c #4D3C50",
"b  c #773D49",
"n  c #4C424A",
"m  c #584845",
"M  c #585348",
"N  c #45465E",
"B  c #4B485B",
"V  c #564D59",
"C  c #5B5357",
"Z  c #5D555A",
"A  c #6C4942",
"S  c #664C48",
"D  c #724B4A",
"F  c #695548",
"G  c #785747",
"H  c #74544B",
"J  c #685A57",
"K  c #775A54",
"L  c #7B6249",
"P  c #796355",
"I  c #7D635A",
"U  c #635C64",
"Y  c #725D62",
"T  c #6D6265",
"R  c #786969",
"E  c #97311E",
"W  c #D73D3B",
"Q  c #E33F39",
"!  c #89513B",
"~  c #B3503B",
"^  c #AA6436",
"/  c #CF5D3B",
"(  c #E55636",
")  c #972E43",
"_  c #A72D41",
"`  c #865947",
"'  c #91564C",
"]  c #845C55",
"[  c #AA5745",
"{  c #87684C",
"}  c #976D4E",
"|  c #876657",
" . c #8B6B5C",
".. c #976858",
"X. c #946B5C",
"o. c #8C725B",
"O. c #98765B",
"+. c #AA6F59",
"@. c #A7765C",
"#. c #A25C69",
"$. c #896A65",
"%. c #976B64",
"&. c #877368",
"*. c #977567",
"=. c #9B7564",
"-. c #8D7475",
";. c #AC686B",
":. c #A37564",
">. c #A47A64",
",. c #AA7966",
"<. c #A37A6B",
"1. c #AB7C6C",
"2. c #B57D66",
"3. c #A67B73",
"4. c #B47C74",
"5. c #C36351",
"6. c #C77A79",
"7. c #ED931E",
"8. c #DA882C",
"9. c #D48C32",
"0. c #E28C25",
"q. c #EB9422",
"w. c #DCA239",
"e. c #EAA92D",
"r. c #EFB02C",
"t. c #F2B22B",
"y. c #E8A930",
"u. c #97855A",
"i. c #A9835E",
"p. c #9C8665",
"a. c #A68766",
"s. c #A48D6C",
"d. c #AC8E6C",
"f. c #B78469",
"g. c #BC8A6B",
"h. c #A4926C",
"j. c #AC936C",
"k. c #B4976C",
"l. c #AC8775",
"z. c #B78877",
"x. c #AC9574",
"c. c #AC9B74",
"v. c #A99779",
"b. c #B49574",
"n. c #B49B74",
"m. c #BC9C74",
"M. c #B6957B",
"N. c #B49D7C",
"B. c #BC9D7C",
"V. c #ACA27C",
"C. c #B4A27C",
"Z. c #BCA37C",
"A. c #BBA879",
"S. c #D19C42",
"D. c #C58A69",
"F. c #C38C6D",
"G. c #CB8F6F",
"H. c #C38C73",
"J. c #C68979",
"K. c #C3937C",
"L. c #CA9578",
"P. c #D49B78",
"I. c #C4A47C",
"U. c #C4AA7C",
"Y. c #DBA37A",
"T. c #E1A87B",
"R. c #B17D83",
"E. c #CA7D85",
"W. c #948284",
"Q. c #B88B85",
"!. c #B18E8C",
"~. c #B99B85",
"^. c #BC9695",
"/. c #B4A384",
"(. c #BCA584",
"). c #BCAA84",
"_. c #B9A789",
"`. c #BAAC8C",
"'. c #BCAC8C",
"]. c #AEACB1",
"[. c #C98A86",
"{. c #C89886",
"}. c #D59A86",
"|. c #C88E92",
" X c #C69A96",
".X c #D99895",
"XX c #E49991",
"oX c #C4A684",
"OX c #C4AB84",
"+X c #CAA987",
"@X c #C4AD8C",
"#X c #CCAD8C",
"$X c #D8A588",
"%X c #DCA58B",
"&X c #C8B486",
"*X c #C4B38C",
"=X c #CCB38C",
"-X c #D4B78C",
";X c #CCA897",
":X c #D9A796",
">X c #DCAA94",
",X c #C4B494",
"<X c #CCB494",
"1X c #CCBB94",
"2X c #CAB99B",
"3X c #D4B694",
"4X c #D4BB94",
"5X c #DBB699",
"6X c #D4BD9C",
"7X c #E3AB84",
"8X c #E5A58C",
"9X c #E2AC8C",
"0X c #E7B18B",
"qX c #E3AC94",
"wX c #E8A998",
"eX c #E4B39B",
"rX c #EAB699",
"tX c #F2B69B",
"yX c #D09AA1",
"uX c #E99FAA",
"iX c #CCADAF",
"pX c #D4A8A4",
"aX c #DAB3A6",
"sX c #DDB9B6",
"dX c #E7AAAA",
"fX c #E7B6A7",
"gX c #EBBCAA",
"hX c #F4B9A7",
"jX c #E8B9B4",
"kX c #F5BBB6",
"lX c #CCC29C",
"zX c #D5C29B",
"xX c #EDC09F",
"cX c #EFC1AA",
"vX c #F5C4A7",
"bX c #F4C3AC",
"nX c #ECC3B8",
"mX c #F3C5B4",
"MX c #F7C6B9",
"NX c #F5CBBD",
"BX c #FBCCBD",
"VX c #FBD2BE",
"CX c #B3BBD0",
"ZX c #D5CECE",
"AX c #EACCCA",
"SX c #F3CAC4",
"DX c #FBCDC3",
"FX c #F8CAC9",
"GX c #FBD2C4",
"HX c #FAD6CB",
"JX c #FBD3CC",
"KX c #FCD4D1",
"LX c #FEDAD3",
"PX c #FFDBD9",
"IX c #DCD6E0",
/* pixels */
"x.B.(.B.x.j.x.j.(.OX(.C.Z.).N.j.c.C.).).(.C.*X1X(.(.'.,X'.N./.@XC.Z.C.c.j.x.n.(.*XOXj.a.C.A.C.OXN.c.C.OXZ.x.j.B.k.m.Z.+X=X=XU.Z.U.=X&XoXZ.Z.U.Z.OXI.Z.OX-X=X=XOX",
"B.N.n.N.Z.Z.N.d.x.n.x.j.N.OXOX(.).C.c.(.<X4X@XC.C.N.(.@X@XZ.(.,XZ.OX@X#X@X@X*.O.X.h L  .K (.A.).(.C.Z.(.Z.N.n.(.+XOXI.Z.I.OX=X1XI.(.Z.A.n.n.Z.Z.oXZ.Z.Z.Z.N.n.n.",
"Z.(.Z.b.b.Z.@X=X@X=X@XOXOX*X=X@X*X=X,X*X*X*X'.OX(.(.(.OX(.N.n.Z.@X(.u.{ O.{ L h h h  .P L i q g m C.N.Z.C.B.N.b.b.n.B.oXZ.B.(.Z.oXZ.Z.Z.Z.Z.n.Z.x.n.n.n.x.d.j.n.",
"N.Z.oXN.n.(.=X4X(.#X=X@X(.(.B.n.n.(.=XZ.s.p.a.N.(.Z.Z.Z.(.Z.N.C.*.O.p.a.O.p.{ o.O.L | P K P P e q a @XOX@X@XoXB.B.B.M.b.x.N.oX<Xm.x.n.Z.oXn.b.n.Z.(.oXOX(.Z.(.#X",
"B.N.n.Z.@X=X@XB.s.b.N.B.B.Z.Z.N.*X=X*X@XOXZ.(.Z.C.N.N.OX@X=X<Xs.n.i.} { O.L L h g g L a m 2 p m e 9 9 9 Z.oX(.B.B.B.B.n.b.N.(.@XOXZ.Z.oXOX(.Z.oXZ.Z.(.(.(.N.n.n.",
"oXoXN.b.n.B.Z.N.I.(.oX(.I.(.#X<XOXOXOX@X=X<XOXZ.#XOXOXOXOXa.a.a.O.s ` s L h i G i M 9 a J J 2 e < - - q F n.Z.Z.d.n.oX@XoXB.n.j.<XOXZ.N.B.(.OX=X@X@XoX@XOXoXB.N.",
"@X@XoXb.s.x.(.#X#XoXoXB.B.B.Z.oXOX*X<X<X=X*X=X<X=X=X#XOXa.a.h h h O.L i d i e = m m m m n n n e 4 2 q 1 - P OX@X+X+XOXU.OXOX=X=X(.(.N.j.j.n.Z.(.b.x.s.j.x.x.j.x.",
"OXoX(.Z.OX#XOXZ.N.m.N.B.B.I.(.oXoX(.n.x.b.N.N.Z.Z.I.OX{ G L o.s G h i q - e 2 4 n e 4 n % V 4 n M > * q - q g b.m.m.OX#X-X=XOXU.#X<X3X@XoX@X<X@X;X@XoX(.(.(.@X@X",
"j.j.b.(.@X=X@XZ.Z.m.n.k.j.j.j.j.j.j.x.n.(.OX#X@Xn.x.{ L h F { h g w F p q q n 4 m e e e - - 1 < < > 2 & - = - M ).Z.U.*X=XOXOX=XOX=X-X*XZ.b.n.Z.Z.(.@X=X#XB.n.B.",
"oX(.Z.(.OX@XOXZ.@XOXoX(.Z.(.OXOXOXOX(.OX@X#X*XOX(.a.L i g G >.7 h d h *.K F S K K I $.H $.-.r e > 2 = = * = q q OXZ.n.B.).OXOXOXn.n.b.B.OX=X=X=X@X@X#X@XOX#X@X#X",
"(.B.n.n.B.Z.(.oXs.s.d.j.M.Z.@X#X,X*X@XOXOX(.Z.(.p.F g w ` g.+.` f.+X5X+XM.}.;X;XaXsXsXsXjXaX X!.3.J F J e 1 = < F B.x.j.k.B.Z.Z.x.n.Z.Z.n.n.B.Z.b.b.x.d.j.N.oXZ.",
"oXZ.(.B.(.oX@X#X3X<X<X;X<X<X2X3X3X<X3X=X@XOXOXp.{ F d { f.G.P.L.9XhXbXcXmXNXGXNXSXMXmXmXgXfXfX>X%X{.z.l.*.I < < a j +Xn.d.b.(.#XZ.x.s.n.=X6X<XZ.{.oXI.N.Z.<X1X<X",
"<X=X<X@XOX(.Z.Z.N.~.N.~.Z.~.B.~.(.OX@XOXOX(.@Xp.F L >.Y.7X7X0X0X9XtXvXmXmXmXVXJXSXBXMXbXmXfXhXqX9X}.P.L.z.1.%.1 < p #XB.d.j.m.n.N.OX=X#XN.x.b.N.I.#X#XoX=X6X6X=X",
"=X<X=X=XoXB.M.n.x.b.N.N.Z.(.(.Z.n.n.C.(.Z.(.O.F I ~.T.T.T.T.0X0X0XvXvXvXbXmXGXNXgXSXGXmXcXgXeXqXP.$XG.G.g.H.f.%.> + &.R.B.B.b.x.b.j.x.N.oXOX(.N.n.B.Z.N.B.Z.Z.n.",
"OX@X=X@XoX(.OX@X=X=X=X=X@XoXZ.B.@X@X#X=X<Xo.F S a.T.T.Y.Y.7X7X0XtXvXbXmXbXmXDXNXNXGXMXBXmXbXrXrX%X%XP.F.g.f.2.1.H * e { <X*X@X@X(.@X#XOXN.M.B.OX@X=X@X@XoXZ.N.n.",
"x.b.n.n.n.n.(.#X(.I.OXOX+XOX&X=X<X4X<X1X4Xo.a H 0XT.Y.P.T.7X0XtXvXbXVXGXHXLXLXGXnXDXGXGXNXNXgXfXeXqX$XL.F.g.2.2.1.K e P ] N.(.<Xx.x.s.s.x.~.(.@X*X@XOX(.n.d.d.b.",
"C.).,X,X*X'.=XlX=XA.Z.Z.Z.Z.Z.I.N.Z.@X@XO.L a +XT.T.T.Y.Y.7X0XtXbXVXHXHXHXLXKXHXGXLXFXHXJXHXmXgXfXeX%X}.H.g.2.2.f.=.1 = g ).)./.OX=X=XOXOXOX=X4X&XZ.n.Z.@X@Xn.p.",
"*X*X=X1X1X6X6X6XzX4X=X(.B.m.oX=X@X@XOX(.O.F o.$XT.T.7XT.7X$X9XtXvXmXBXVXHXKXKXKXKXHXJXJXJXLXJXMXqXqX%X}.F.f.2.f.f.,.H * a 1X1XzXOXZ.Z.*X4X=XOXZ.A.OXOX@X@X@X=XzX",
"N.Z.(.Z.(.Z.Z.C.x.x.x.x.x.x.b.N.(.Z./.d.P F =.P.Y.P.Y.7X7X$X7XrXqXrXmXNXGXHXNXjXSXBXNXNXmXnXfXaX>X}.}.L.H.g.f.2.2.,.X.- * C b.N.@XZ.n.Z.(.N.(.4X&X=X=X@X(.N.c.c.",
"@X#X=X#XI.N.B.Z.@X(.oX@X#X@XB.x.n.~.@X{ P P f.G.G.P.Y.7X7XY.9X9X9XrXtXbXmXHXJXFXHXHXSXSXJXSXgX%X$X$XP.L.H.g.g.2.@.@.:.w * d n.N.b.c.(.OX(.n.B.OXOXZ.x.s.s.x.C.).",
"B.B.B.n.b.d.s.d.N.N.N.N.~.~.~.N.x.c.(.O.F *.f.F.D.Y.P.P.Y.$XqXqXrXrXhXbXrXBXHXJXLXJXKXFXSXnXfXfX%XP.G.G.F.g.2.g.@.>...F * g B.oXn.n.n.N.Z.(.N.j.a.j.Z.(.(.(.,XzX",
"#X(.B.Z.@X@XI.n.s.B.#X@XZ.N.(.@X=X@XOX{ J o.1.g.D.L.Y.Y.$X0XrXxXbXbXtXBXVXHXDXBXNXDXNXNXfXfXeXqX%X$X}.G.H.F.H.g.O.>.X.H 2 F oX=X@X@X(.x.n.N.Z.N.B.Z.@X<X,X@X(.C.",
"oX(.Z.oX@X#X@X(.b.OX=XoXn.j.h.j.C.N.x.o.K  ...g.F.G.P.Y.9XrXcXbXbXBXBXmXBXDXBXGXLXHXLXDXBXmXrXqXrXeX}.$XL.G.F.H.>...=.I m g B.B.N.(.=X<X@XN.N.N.=XZ.j.s.~.@X@X'.",
"j.N.OX(.n.b.C.U.{.m.j.j.n.OXOXOX(.oXn.P I | } f.D.G.Y.9X9XrXmXmXVXVXGXGXDXBXGXNXLXHXFXLXJXgXgXfXmXcXfX:X}.G.H.g.@...=.I S a N.n.(.x.x.(.(.(.B.(.j.c.(._.@X'.(./.",
"@XZ.x.N.@X=X@X(.Z.N.n.c.N.Z.,X6X@X@X@XF P | >.@.D.F.$X%XqXeXfXNXmXGXJXKXLXJXLXLXLXLXPXJXLXFXFXMXSXjXfX:X:XK.K.g.:.=.*.I S a ,X@X@X@XoXN.s.s.x.N.C.C.C.C.C.).C.x.",
"<X@X(.Z.(.N.n.x.C.N.x.d.s.s.N.OXOXN.j.S I  .@.2.g.H.L.$XeXeX5XaXaXjXSXFXJXSXKXKXLXPXKXJXJXJXSXSXjXjX:X{.{.K.K.f.:.O.X.I F a =X).@X@X@XC.N.).@X=X*X*XOX@X@X*X*X=X",
"s.x.N.(.C.(.OX@XoX(.Z.N.n.N.OX2X@XN.s.a P  .f.f.g.L.$X@.>.a.l.<.|  .Q.;XnXjXNXFXJXJXSXnXSXSXAXsXpX;X X X;X{.M.z.=.>.$.P S e C.N.@XOX(.N.(.@X@X).OXB.n.N.n.x.b.N.",
"N.oX@X@XoX(.@X=X6X<X*X@X(.C.(.@X<X@XC.g P =.g.F.H.{.f.,.X.K H S a d r G Q. XjXnXnXNXfXnXaXaXQ.] S S H |  .=.Q.M.O.=.*.P S p @X*X(.(.(.(.(.(.(.oX@XZ.N.(.oXn.x.n.",
"s.x.n.C.(.OX@X<X@X@XOX@X=X;X@X=X@X(.OXK | a.H.F.L.@.<.l.l.%.| f t w w w ` <.M.fXgXfX:X;XQ.3.D r 9 r a m S d G  .=.:.*. .F e '.(.h.s.x.OX(.x.N.@XOXN.b.Z.@X(.Z.(.",
"@XoX(.(.(.N.x.d.s.p.p.x.Z.(.(.(.Z.C.(.&.| a.H.F.g.>.z.3.` f t $.t 5 7 f G ` ,.>XnXnX%Xl...` s 0 9 s d $.K H A K *.:.*.$.P m Z./.b.x.N.@X).N.C.=X6X*X).#X=X<X<X4X",
"(.OX@X<X4X6X<X@X=X@X(.@X@X@XOX(.@X@X(.&.*.d.H.g.d.z.>.! 6 X.u - 9 a d 7 u f +.:XGXNX{.=.f s u & 9 Y -.u  .*.%.*.*.<.<.&.F F <X1X2X<X@X@X=X<X<X<X).).(.C.C.Z.C.(.",
"(.(.@X<X4X<XoXN.x.a.s.x.N.(.oX@X@XVX_. .o.,.g.H.f.,.! 7 t Y e + * m ] ` ! ` l.eXBXmX$X] u t 0 r & CX+ w  .7 X.X.| =.<.*.H R N.N.@X@Xn.s.N.<X@XN.C.OX<X*X@X@X*X*X",
"s.x.Z.OX@XOX@X@XA.OXOXU.OX&X=X=X8X}.hXO.| f.g.g.2.} ` ..` !.&.g h W.!.` z.$X;X$XbXhXL.*.$.f u R.a = w R r w s ..=.<.<. .P &.@X(.x.c.c.n.(.*X1X,X*X=XC.(.OX(.C.a.",
"oXZ.C.B.C.OX@X=X3X1X4X=X=X=X).Z.[ ~ 2.g. .f.F.P.$X$X%XP.K. X^.sXiXpX XaXjX;X>X$XhXhX}.Q.^. X!.!.iX-.Y W.%.r ] ` ..:.,.| P W.@X@X=XOXN.s.s.c./.).OX).x.x.Z.OX1X@X",
"@XZ.j.s.j.n.N.C.j.x.j.x.N.OXOXOX5.E ..' %.g.}.9X%X9XrX>X$X{.[.:X{.J.4.iXpXeX%X$XhXhX}.z.Q.^.Q.1.Q.^.^.Q.Q.=.:.,.' <.,.| I  X{.J.^.OX@XOX@X=X=X<XOX<XOX*X<X).(.j.",
"6X*XoX(.).@XOX(.#X=X<X=X<X4X4X1XJ.5.}.+.G f.K.%X8XwXtXqX$XL.K.{.;XiXiXfXeXqX9X%XhXkX}.1.{.^.;X^...+.,.;...1.z.{.K.,.=.| | pX[.6.6.n.oX#XOXN.d.p.@X*XZ.(.C.n.(.Z.",
"OXOX).OXOX(.Z.N.s.n.oXZ.N.j.s.s.wX}.fX%X{ 2.P.8XwXwXhXhXgXgXnXAXAXnXmXgX8X9X%X%XhXBX}.4.f.[.aXsXsXsXsXaX;X:X}.L.[.f.=.| =.! ! E [ =X<X@XoXZ.B.Z.s.Z.@X1X#XN.n.x.",
"@X@X#X@X@XOX@XOXN.@X@X'.Z.(.#X<XhXfX.XG.@.2.L.7XwXhXhXhXhXbXhXkXmXMXMXwX$XqX$XqXhXGX:Xz.f.J.jXjXjXjXnXfXgXeX}.8X}.z.<.| ' ' 4.E E.).N.n.n.N.OX<X6X4X@X).n.s.C.OX",
"Z.Z.Z.Z.Z.N.N.n.(.Z.B.x.p.s.N.(.fX:X.X+.` @.L.P.wXwXhXhXMXDXDXFXDXgXhX8X$XqX>X9XhXLXwXz.4.J.fXjXkXMXgXhXwXwXwX.X}.z.<.%... XpX;.|.OX/.Z.C.N.Z.(.).@XOX=X<X).@XOX",
"OX).@X@X@XOX(.B.(.@X<X@X@X@XOX@X:XjXdX` G @.K.}.8XwXhXMXDXFXFXKXJXDXtX9X}.>XqXrXmXPXdX4.1.K.eXjXFXJXFXkXhXtXXX}.[.4.1.K ]  XpX4.E.*X).'.@X).Z.).OX).n.).@X).OX(.",
"1X).n.c.x.p.h./.Z.@XN.p.a.C.@X@X}.kXwXl.s >.z.L.9XwXhXkXMXDXFXKXKXDXhX$X}.>XfXqXDXKXfXQ.Q.M.fXNXFXFXKXMXkXwXXX}.J.z.<.K ] Q. X|.Q.C.Z.&X=XOXZ.Z.Z.Z.Z.Z.Z.OX@XOX",
"Z.Z.*X<X=X@X_.(.@XoX(.@X@X(.N.@X{.fX XX.| @.,.L.8XwXwXhXhXMXDXFXSXMXfXL.eX%X8X8XMXnXdXQ.z.1.pXjXFXFXFXkXkXwXXX[.J.4.:.d K  XyX|.!.j.n.@X=X@XI.(.OX&X=X4X4X#X(.Z.",
"@X@XOX(./.@X=X<Xc.x.j.Z.(.x.s.(.aXJ.kXw G O.2.H.}.>XqXwXfXfXkXSXMXgX>XH.H.....H.:X;X4.:...:.pXjXjXFXjXfXdX.X.X[.J.4.=.S H yXyXR.d.j.N.OX#XZ.Z.(.OXOX=XOX(.(.Z.(.",
"=X<X3X<X=X<X@X@XoX*X<X@X<X4X4X4X`.pX:Xw i ..,.f.H.}.}.XXwXwXgXkXgXeXrXG.f 5 7 0 ` K f 5 y ..Q. XfXdXjXgXwX}.[.[.4.<. .w A !..X[.@X@X=X1X=X@XOX@XoXZ.C.n.n.n.oX@X",
"N.x.N.(.C.x.x.n.x.@X@XB.(.@X@XN.,XwXJ.r w { f.2.z.K.L.}.:XeXfX>X:XeXrXP.+.y G d r r u 8 t :.Q.Q.{.:X.X}.4.[.z.4.4.=.| q q  X' Q.<X3X=X@X(.N.Z.(.Z.oXOXOX*X#XOX).",
"<X(.(.OX(.b.n.OXx.N.n.x.N.N.N.oXZ.:X:Xe r | 1.z.z.H.%X:X>XeX>X$X%XrXrXqXz.| | s - & - 6 ] 1.~. Xz.{.{.|.z.z.4...%.| | 1 9 yX X!.@X@XOX(.n.c.N.Z.@XOX@X=X<X&XOXC.",
"M.M.(.@XOXN.j.j.(.N.h.x.n.x.N.<X6X[.4.i P G X.M.,.K.}.$X$XP.$X%XrX>X%XK.<.d r w & * * 2 r X.Q.^.{.1.4.4.z.z.1.=.X.] ] e A  X|.*XZ.(.@XOX(.oX(.(.@X@X(.Z.Z.I.Z.U.",
"b.M.b.d.x.Z.#X=XOX<X<X@X<X@XoX@XOX%.' d 1 d | 2.M.{.$X>X$X$X$XK.b.,.1.{ d F S 9 7 r < < w a  .3.l.l.:.1.z.l.1.....G H q q |.4.N.p.s.x.N.N.N.x.x.Z.Z.oX(.Z.OXOX=X",
"C.C.).,X<X*X*X*XOXn.Z.OXC.Z.*X@XA.D G a 9 w h X.M.K.{.{.#X$X` f f f K h p 7 6 ] %.<.6 * 1 q S K H =.l.z.l.l.1.3...H m e - 4.W.@XOX@X=X@XZ.N.b.b.).N.n.N.Z.B.x.d.",
"OXN.h.x.Z.).@X).Z.n.OXA.n.n.).(.A.C.n.i 6 i d f G l.$X$X5Xa.w i w A f t 0 u y #.4.#.` t 0 6 r w 9 d H Q.M.z.<.X.] d e = S (.oX@XC.Z.OXZ.N.b.j.k.).Z.N.n.b.n.B.I.",
"(.C.).@X@X).@X@XI.OX=X+Xn.B.oXoXZ.OX<Xr & + 7 G f >.{.+X#Xt 9 6 = 5 8 8 8 y ^ ' y ! 8 8 0 5 9 9 - 1 g ~.l. X| K K w r < n j.h.j.).OX@XOXOXZ.oX(.n.Z.N.s.a.x.B.Z.",
"s.N.OX*X).Z.C.Z.I.I.oXoXn.b.N.B.OX).).@X- < 1 i A | l.+XM.w 9 0 & + t X.,XsXZXZXiXZX^.!.` 6 . o 6 q w Q.<.*.d I d w = 2 N.(.OX<X).OXOXOXZ.Z.B.B.OX<X=XZ.B.(.#X@X",
"<XOX(.OX=X1X1X<X#XoXZ.OXoXb.b.~.C.(.(.(.1 * = e r d =.l.O.d d 3.{.6.E.3.AXIXIXZXIXIXZX].$.u %.3.H 1 q =.*.H d d i - + p j.x.Z.@X=X=X*XOX(.Z.N.m.B.(.oXb.x.Z.oXZ.",
"OX(.n.x.n.(.oXZ.Z.N.b.b.N.x.a.d.C.#X6X@Xp * * - - a | M.G w K {.$X}..XXXuXXXXX5.6..X.XE.E.;.4.Q.$.p a H K e 9 1 q = * a C.Z.OXOX).OX*X@X#XOXOXOXoXOXI.N.(.=X<X*X",
"C.(.oXZ.C.Z.C.N.OX4X=X@X<X<X@X<X=X@X(.(.w > * > < 2 a a q a d z.$X{.}.qXXX.XuXkXuXuX[.6.[.z.<.3.F 2 < p e e * < * * 1 F B.(.@X=XN.n.Z.Z.Z.oXZ.Z.B.N.N.B.Z.(.OX).",
"oXN.j.j.n.(.b.a.p.OX).x./.<X,X@X@X@X@XN.9 1 p $ , , > e q n q l.H.{.g.+X X{.{.[.|.|.|.Q.l.*.<.$.e 4 e > > $ * > , , 2 d Z.(.OX@XOX).OXOX(.B.n.j.B.{.OX<X3X=X).OX",
"B.=X@Xd.s.B.Z.d.u.c.*X=XA.C.Z.Z.OXOXA.(.h.r o X O % = + = 3 m *.f.K.>.X.| K %.$.| | | $. .=.*.K 1 > = % % * $ + , > S (.b.j.n.(.Z.N.j.x.Z.=X=XoX).).Z.OX1X/.j.C.",
"=XoX(.OXOXB.Z.@X*X*XOX(.OX=X=XOXOXOX).Z.Z.(.* # # % > $ # = >  .l.z.@.{ G w K H A K G | *.] I e = % % % % $ % # % # C oX(.(.(.#XC.Z.oXOX=X*XZ.n.x.Z.N.c.(.Z.x.x.",
"N.x.m.@XZ.p.d.OXOXN.a.a.j.Z.Z.N.+XOXZ.n.n.(.O O X   % # @ 3 3 m I <.X.| d t a ] d K G %.*.I S * > = 3 @ : % O X > $ x.B.(.I.oX@XOXOXOXOX(.Z.Z.Z.OX<X#XoX@X=X(.B.",
"n.Z.(.).Z.n.x.N.oXoXoXoX+X#X#X+X+X#X+XB.B.I.oX% @ @ # @ $ ; , e F I  .d G A H $.] H H K m p 1 % % $ O $ X # o % $ % j.N.oXN.Z.OX3XOX(.Z.N.n.).3X<XoXZ.oXoXb.a.d.",
"<X*XOXOX<X1XOXj.Z.Z.Z.I.~.{.m.B.b.m.b.x.s.H ` # @ k X # # % > n m a P A G H ] | K K m a 2 2 * , 3 % % # 4 % O X * K K &.(.N.(.@XOX).oXOXOXOX@X=X@XB.B.oX(.b.x.b.",
"<X=X<X<X=X@X(.Z.4X@XI.Z.A.{.m.B.j.p.V B | e.w.m % # , # $ # % 2 C 1 d I *.$.] K K &.q m < 3 , ; 3 % $ $ $ $ + O | y.r.w.V T B.OXN.Z.Z.(.OXOXOXZ.B.Z.@XOX(.3X4XZ.",
"*X=X1X4X<X).OX*X@XZ.N.B.m.n.m.B.OXv.B N | r.w.H S + @ O 3 # > + 2 4 J &.A S d H a $.e x 3 4 , # % $ X   X % X . } r.t.w.B T N.B.n.Z.Z.n.N.OXOXC.j.x.N.N.n.OX@Xx.",
"@XC.h.x.).6X).s.a.x.I.@X(.m.N.I.@Xv.B N | r.r.q.q.8.% O X # @ % < 2 3 S q a r a d e e 4 3 ; % $ B X %   # # X 0.q.t.t.w.B T oXN.j.(.@XZ.(.=X=XZ.*XC.OX1X@X).).N.",
"1X*XA.C.*X1X<X@X(.C.(.OX@XOXA.oXc.p.B N | t.r.7.7.8.+ X X $ . $ # # * 3 < = e q < 4 , % % X X ; # % X X X O 7.7.q.t.t.w.B T (.OX(.<X4X(.n.Z.N.j.c./.@XOXZ.x.j.b.",
")./.C.V.).<X1X<X/.C.Z.*X=X=X*X+XzX/.U U &.w.w.8.8.9.c X ;   X . X O @ % o $ > , > % * , # . # % , , % . $ H 8.8.8.y.y.S.T &.(.Z.@X=XOXN.N.).<X<X=X*X*X@X).(.OX<X",
").&X&X(.C.C.(./.OX(.C.(.=X=X=X-X/.(./.n.v.Z V n n n z z % X   # , # @ % # @ # X , # $ # O % # @ $ X X * z z n n n V V R 2X=X(.(.Z.OX@XOXOX@X@XOX,X*X*X=X<X@XOX).",
"*X1X1X<X'.(.C.N.*X).@XOX*XOXOX#X@X6X6X@Xv.B N z z z z z x X X k @     X ,   . $   # $ X . X @ % X . * z z z z z z N N R 4X@XOX*X<X=X).N.c.n.@X4X<X=X=X<X=X).N.n.",
"U.OX*X=X=X,X*X<X/.OX<XzX4X&XZ.Z.@X'.(.(./.T U Z Z V z z v ) + X O X $ X   X X . #   # X X X # @ O * b z z N Z Z C U T &.).(.Z.).OX*X=X@XZ.(.*XzX1X=X*X*XOX(.Z.OX",
").(.Z.Z.(.(.'.,XC./.).OXOXOXOX=X@X@X@X*X<X3X,X,X@X/.c z b Q Q X # %   X # @ X #   . X X   o . O Q Q W c z J N.N.(.@X(.Z.N.Z.N.s.j.).6XzX1X@X).Z.Z.(.OX@X).(.).*X",
"Z.Z.Z.(.C.n.N.(.*X(.C.N.Z.A.+X=XOXI.).oXn.s.a.n.C.~.c l b Q Q W _ _     X X X     X o .   ) _ _ Q Q W c z C /.<X4X=X@XOX@X@Xn.h.(.=X<X).Z.(.OXZ.x.N.(.OX).C.(.).",
"k.n.oX*X=X'.*X<X1X*XOX*X4X=XOXI.Z.j.j.Z.+XOXOXOX1X(.c l D ( ( ( ~ ~ [ b b z z z z z v b ` [ ~ ~ ( ( / c z T <X<X<X@X*X4X6X=X@X@XZ.@X*X(.oX*XOXN.=XOX(.Z.N.N.).=X",
"a.s.j.OX@XC.N.,X1X*X*X*XA.C.C.).=X*XC.c.C.,X6X2X,X/.z l L r.r.r.q.q.0.^ [ B N N N N J [ ^ e.r.r.q.7.8.c z J A.OX).*X*X,X*X,X*X'.&XOXU.OXZ.x.N.(.Z.A.A.C.A.A.&X*X",
"j.n.N.@X4X<X*X2X*X@X(.n.C.A.*X=X*X*X=X,X<X1X*X'.=X/.c l L r.t.r.7.7.0.~ [ B N N N N J [ / r.t.r.7.7.8.x z J OXOX,X(.c.C.).*X).c.j.C.OXZ.j.a.n.@X).).).OX=X*X*X*X",
"&X=XOXZ.).C.x.x.@X,X*X@X,XzXzX=X*XOXC.C.C./.@X<Xv.v.z l G y.y.y.0.0.8.[ [ U U U U U K [ ^ w.y.y.0.0.9.c z J (.).4X'.C.C.*X1X<X*X=XU.n.n.n.N.x.j.@XOX(.OX@XOX(.n.",
"Z.OXZ.N.C.@X@X,X(._.@X@X<X=X@XC.OX@X=X1X<XOX).,X*X_.z z n G h h G f A x J '.<X*X2X6X'.v n G h h f f A z z J ).@X@XOX).(.Z.).*X4Xn.N.Z.).OXOX=XzX@XOXZ.N.B.B.B.N.",
"Z.<X@XN.n.C.Z.(._.(.N./.(.N.Z.).1X1X1X4X*X/.C.@XC.N.J C C A A A A A S J &.OX(.C.Z.(./.J C A A A A A S C Z &.<X<X@X<X<X@XC.N.(.*X3XOXOX<X=XN.n.OXN.B.Z.Z.Z.Z.OX#X",
"u.n.C.Z.(.(.@X<X@X(.(.@X=X).OX<X=XOXZ.n.x.j.N.(.n.OX@X(.x.c k k k k J /.b.j.(.<XZ.n.B.oX~.B z k k k J M.(.@X=X<X1X1X=X=X@X).OX@XZ.s.s.Z.=XOXZ.Z.j.N.@X@X(.(.(.@X",
"&X1X1X=XOX(.N.(.N.N.Z.(.OXOXZ.Z.k.C.OX'.).(.N.N.c.Z.).@XN.z z z z z T <XZ.N.Z.OX<XOXC.(.N.B z z z z J Z.(.).).Z.OX(.C.Z.(.Z.Z.C.x.Z.OX(.n.j.n.n.v.Z.,X=X'.C.C.).",
"OX*X).(.(.C.B.@X#XOXm.j.n.I.Z.n.Z.OXZ.N.n.(.Z.~.Z.(.oXOXN.Z Z J J Z R oXn.(.OX(.B.Z.b.s.s.U Z Z Z Z &.=X=XOXOXOXoX).oXC.N.b.c.n.x./.Z.x.Z.=X=XA.c./.*X,X)./.@X,X"
};
