/* XPM */
static char *b1a6b48dd0e141d7ca3c49c6255a74521A53aNDygOJt7aim[] = {
/* columns rows colors chars-per-pixel */
"80 80 255 2 ",
"   c #040303",
".  c #090707",
"X  c #0C0C0B",
"o  c #100E0B",
"O  c #1A090C",
"+  c #13110E",
"@  c #1A120E",
"#  c #0E0E11",
"$  c #100F10",
"%  c #141314",
"&  c #1A1616",
"*  c #1B1A1A",
"=  c #291107",
"-  c #271C16",
";  c #221D1A",
":  c #361E16",
">  c #28201B",
",  c #2D221D",
"<  c #38251B",
"1  c #1E1E21",
"2  c #241F23",
"3  c #262525",
"4  c #2C2424",
"5  c #2D2A2B",
"6  c #342925",
"7  c #352927",
"8  c #3C2C24",
"9  c #3B322C",
"0  c #2E2C31",
"q  c #3A3433",
"w  c #491810",
"e  c #482918",
"r  c #582918",
"t  c #4D361C",
"y  c #692C1D",
"u  c #472B26",
"i  c #592A26",
"p  c #483429",
"a  c #573828",
"s  c #463A37",
"d  c #4B3A32",
"f  c #583C34",
"g  c #643928",
"h  c #77372E",
"j  c #673A32",
"k  c #5A432E",
"l  c #4D4139",
"z  c #53423B",
"x  c #5B4538",
"c  c #67452B",
"v  c #724B2E",
"b  c #664737",
"n  c #644B3C",
"m  c #764A3A",
"M  c #69533B",
"N  c #74573B",
"B  c #666633",
"V  c #3D3D40",
"C  c #483D41",
"Z  c #4B4446",
"A  c #584844",
"S  c #565150",
"D  c #674C46",
"F  c #794E43",
"G  c #695548",
"H  c #785747",
"J  c #73544B",
"K  c #6A5953",
"L  c #745853",
"P  c #7C5C53",
"I  c #7A6349",
"U  c #766455",
"Y  c #7B6255",
"T  c #7D635A",
"R  c #725D62",
"E  c #796768",
"W  c #97311E",
"Q  c #89513B",
"!  c #A6572E",
"~  c #865947",
"^  c #8D534F",
"/  c #955B4A",
"(  c #855956",
")  c #835D54",
"_  c #A85B5C",
"`  c #87684C",
"'  c #976D4E",
"]  c #886657",
"[  c #8B6B5C",
"{  c #976858",
"}  c #946B5C",
"|  c #8C725B",
" . c #98765B",
".. c #AA6F59",
"X. c #A7765C",
"o. c #896A65",
"O. c #976B64",
"+. c #8C7265",
"@. c #977567",
"#. c #9B7564",
"$. c #8D7475",
"%. c #AC686B",
"&. c #A37564",
"*. c #A47A64",
"=. c #AA7966",
"-. c #A37A6B",
";. c #AB7C6C",
":. c #B57E65",
">. c #B47B6A",
",. c #A67B73",
"<. c #B37D73",
"1. c #B77A76",
"2. c #C36351",
"3. c #C77A79",
"4. c #97855A",
"5. c #A9835E",
"6. c #9C8564",
"7. c #9C8C68",
"8. c #A88567",
"9. c #A48C64",
"0. c #A48D6C",
"q. c #AC8E6C",
"w. c #B58368",
"e. c #BB856C",
"r. c #BC8A6B",
"t. c #A5936C",
"y. c #AC936C",
"u. c #B4976C",
"i. c #AC8776",
"p. c #B38274",
"a. c #B98977",
"s. c #AC9574",
"d. c #AC9B74",
"f. c #AB997B",
"g. c #B49574",
"h. c #B49B74",
"j. c #BC9C74",
"k. c #B6957B",
"l. c #B49D7C",
"z. c #BC9D7C",
"x. c #ACA27C",
"c. c #B8A375",
"v. c #B4A27C",
"b. c #BCA37C",
"n. c #BCAA7C",
"m. c #C58A69",
"M. c #C38C6D",
"N. c #CB8F6F",
"B. c #C38C73",
"V. c #C68979",
"C. c #C99576",
"Z. c #C3937C",
"A. c #CB947C",
"S. c #D49B78",
"D. c #C4A47C",
"F. c #C4AA7C",
"G. c #DBA37A",
"H. c #E1A87B",
"J. c #9C7D83",
"K. c #BC7D83",
"L. c #CA7D85",
"P. c #948284",
"I. c #B88B85",
"U. c #B18C8E",
"Y. c #BA9A85",
"T. c #BC9695",
"R. c #B4A484",
"E. c #BCA584",
"W. c #BCAA84",
"Q. c #B8A789",
"!. c #BCAC8C",
"~. c #BCAE8E",
"^. c #AEACB1",
"/. c #C98A86",
"(. c #C49485",
"). c #C99A87",
"_. c #D39C83",
"`. c #D69A87",
"'. c #C88E92",
"]. c #C69A96",
"[. c #D99895",
"{. c #E49991",
"}. c #C4A684",
"|. c #C4AB84",
" X c #CCAC84",
".X c #C8A58B",
"XX c #C4AD8C",
"oX c #CCAD8C",
"OX c #D3A285",
"+X c #DCA484",
"@X c #DCA58B",
"#X c #D8A88B",
"$X c #C8B486",
"%X c #C4B38C",
"&X c #CCB38C",
"*X c #D4B68C",
"=X c #CBA996",
"-X c #D9A796",
";X c #DCAA94",
":X c #C4B494",
">X c #CCB494",
",X c #CCBB94",
"<X c #CAB99B",
"1X c #D4B694",
"2X c #D4BB94",
"3X c #DDB699",
"4X c #D4BD9C",
"5X c #E3AB84",
"6X c #E5A58C",
"7X c #E2AC8C",
"8X c #E7B18B",
"9X c #E3AC94",
"0X c #E8A998",
"qX c #E4B39B",
"wX c #EAB699",
"eX c #F2B69B",
"rX c #D09AA1",
"tX c #E99FAA",
"yX c #CCADAF",
"uX c #D4A8A4",
"iX c #DAB3A6",
"pX c #DDB9B6",
"aX c #E3ADA5",
"sX c #E7B6A7",
"dX c #EBBCAA",
"fX c #F4B9A7",
"gX c #ECA8B0",
"hX c #E8B9B4",
"jX c #F5BBB6",
"kX c #CCC29C",
"lX c #D5C29B",
"zX c #EDC09F",
"xX c #EFC1AA",
"cX c #F5C4A7",
"vX c #F4C3AC",
"bX c #ECC3B8",
"nX c #F3C5B4",
"mX c #F9C7B7",
"MX c #F3C5BD",
"NX c #F5CBBD",
"BX c #FBCCBD",
"VX c #FBD2BE",
"CX c #B3BBD0",
"ZX c #D5CECE",
"AX c #EACCCA",
"SX c #F3CAC4",
"DX c #FBCDC3",
"FX c #F8CAC9",
"GX c #FBD2C4",
"HX c #FAD6CB",
"JX c #FBD3CC",
"KX c #FCD4D1",
"LX c #FEDAD3",
"PX c #FFDBD9",
"IX c #DCD6E0",
/* pixels */
"s.z.E.z.s.y.s.y.E.|.E.v.b.W.l.y.d.v.W.W.E.v.%X,XE.E.!.:X~.l.R.XXv.b.v.d.y.s.h.E.%X|.y.9.v.n.v.|.l.d.v.|.b.s.y.z.u.j.b. X&X&XF.b.F.&X$X}.b.b.F.b.|.D.b.|.*X&X&X|.",
"z.l.h.l.b.b.l.q.s.h.s.y.l.|.|.E.W.v.d.E.>X2XXXv.v.l.E.XXXXb.E.:Xb.|.XXoXXXXXXX&X&X,X&X|.|.E.b.W.E.v.b.E.b.l.h.E. X|.D.b.D.|.&X,XD.E.b.c.h.h.b.b.}.b.b.b.b.l.h.h.",
"b.E.b.g.g.b.XX&XXX&XXX|.|.%X&XXX%X&X:X%X%X%X~.|.E.E.E.|.E.l.h.b.XXE.z.d.h.b.|.&Xl.l.E.~.b.l.E.l.b.v.l.b.v.z.l.g.g.h.z.}.b.z.E.b.}.b.b.b.b.b.h.b.s.h.h.h.s.q.y.h.",
"l.b.}.l.h.E.&X2XE.oX&XXXE.E.z.h.h.E.&Xb.0.6.9.l.E.b.b.b.E.b.l.v.z.b.|.oX&XoXE.l.=Xl.l.}.E.>X>X}.v.|.XX|.XXXX}.z.z.z.k.g.s.l.}.>Xj.s.h.b.}.h.g.h.b.E.}.|.E.b.E.oX",
"z.l.h.b.XX&XXXz.0.g.l.z.z.b.b.l.%X&X%XXX|.b.E.b.v.l.l.|.XX&X>X>XE.h.0.0.s.b.XX&XXXl.k.l.l.E.E.f.d.E.XX}.b.}.E.z.z.z.z.h.g.l.E.XX|.b.b.}.|.E.b.}.b.b.E.E.E.l.h.h.",
"}.}.l.g.h.z.b.l.D.E.}.E.D.E.oX>X|.|.|.XX&X>X|.b.oX|.|.|.|.|.E.D.E.}.oX*X1X@. .} N I [ ( y.0.s.q.l.b.E.h.s.h.b.b.q.h.}.XX}.z.h.y.>X|.b.l.z.E.|.&XXXXX}.XX|.}.z.l.",
"XXXX}.g.0.s.E.oXoX}.}.z.z.z.b.}.|.%X>X>X&X%X&X>X&X&XoX|.b.z.h.h.>X4.`  .` I N N N [ Y I k t M A XX%X&XXX|.}.|..X X X|.F.|.|.&X&XE.E.l.y.y.h.b.E.g.s.0.y.s.s.y.s.",
"|.}.E.b.|.oX|.b.l.j.l.z.z.D.E.}.}.E.h.s.g.l.l.b.b.D.|.D.}.|. X@. .6.9. .6.` |  .I ] U L U U d p x XX%X>X%X}.l.g.j.j.|.oX*X&X|.F.oX>X1XXX}.XX>XXX=XXX}.E.E.E..XXX",
"y.y.g.E.XX&XXXb.b.j.h.u.y.y.y.y.y.y.s.h.E.|.oXXXh.s.q.0.0.g.0.h.5.' `  .I H N M M I n A 9 l A d u u u z.z.}.|.oXW.b.F.%X&X|.|.&X|.&X*X%Xb.g.h.b.b.E.XX&XoXz.h.z.",
"}.E.b.E.|.XX|.b.XX|.}.E.b.E.|.|.|.|.E.|.XXoX%X|.E.|.XX&X8.8.9. .v ~ v I N k H x A u x K K 9 s 6 < < p G z.l.g.y.|.b.h.z.W.|.|.|.h.h.g.z.|.&X&X&XXXXXoXXX|.oXXXoX",
"E.z.h.h.z.b.E.}.0.0.q.y.k.b.XXoX:X%XXX|.|.E.b.E.t.s.h.8.8.N N N  .I c b d d , A A A S Z Z Z s q 9 p 8 < U }.b.z.b.z.s.y.u.z.b.b.s.h.b.b.h.h.z.b.g.g.s.q.y.l.}.b.",
"}.b.E.z.E.}.XXoX1X>X>X=X>X>X<X1X1X>X1X&XXX|.|.|.,X&X` H I | v H N k p < s 9 q Z s q Z ; S q Z S 4 - p < p M |.}.z.}. Xh.q.g.E.oXb.s.0.h.&X4X>Xb.).}.D.l.b.>X,X>X",
">X&X>XXX|.E.b.b.l.Y.l.Y.b.Y.z.Y.E.|.XX|.|.E.XXXX|.` I G G ` N M a K z p p Z q A s s s , , 8 6 6 4 9 - < , < A y.l.|.oXz.q.y.j.h.l.|.&XoXl.s.g.l.D.oXoX}.&X4X4X&X",
"&X>X&X&X}.z.k.h.s.g.l.l.b.E.E.b.h.h.v.E.b.E.|.XX9.I k n H *.t N b N @.Y G G L K T o.J E $.f d 4 9 , , - , p p XX}.}.E.z.z.z.g.s.g.y.s.l.}.|.E.l.h.z.b.l.z.b.b.h.",
"|.XX&XXX}.E.|.XX&X&X&X&XXX}.b.z.XXXXoX&X>X>X>X6.K x a ~ r...~ w..X3X.XY.`.=X=XiXpXpXpXhXiX].U.,.K K K s 8 , 6 K XXXX|.:X>X%XXXXXE.XXoX|.l.k.z.|.XX&XXXXX}.b.l.h.",
"s.g.h.h.h.h.E.oXE.D.|.|. X|.$X&X>X2X>X,X2X2X6.| G n ` w.N.S.A.9XfXvXxXnXNXGXNXSXMXnXnXdXsXsX;X@X).a.i.@.P 6 6 x B 0.f.E.E.l.E.>Xs.s.0.0.s.Y.E.XX%XXX|.E.h.q.q.g.",
"v.W.:X:X%X~.&XkX&Xn.b.b.b.b.b.D.l.b.XXXXE.l.6.K I *.H.5X5X8X8X7XwXcXnXnXNXVXJXSXBXmXvXnXsXfX9X7X_.S.A.a.;.O.8 6 l $X&X$XW.W.W.R.|.&X&X|.|.|.&X2X$Xb.h.b.XXXXh.7.",
"%X%X&X,X,X4X4X4XlX2X&XE.z.j.}.&XXXXX|.E.E.| D T (.H.H.H.H.8X8X8XzXcXcXvXnXGXNXdXNXGXnXxXdXqX9XS.+XN.C.e.B.w.+.4 @ +.P.&X>X,X,XlX|.b.b.%X2X&X|.b.c.|.|.XXXXXX&XlX",
"l.b.E.b.E.b.b.v.s.s.s.s.s.s.g.l.E.b.f.q.| G D 8.H.H.G.G.5X5X8XeXcXvXmXvXnXDXNXMXGXMXBXnXvXwXwX@X+XS.M.r.e.:.>.J - s ` h.s.y.g.l.XXb.h.b.E.l.E.2X$X&X&XXXE.l.d.d.",
"XXoX&XoXD.l.z.b..XE.}.XXoXXXz.s.h.z.E.E.| x J 8XH.G.S.G.5X8XwXcXvXVXGXHXLXLXGXbXDXGXGXNXNXdXsX9X9X+XA.M.r.:.:.;.L s U ( g.g.h.l.g.d.E.|.E.h.z.|.|.b.s.0.0.s.v.W.",
"z.z.z.h.g.q.0.q.l.l.l.l.Y.Y.Y.l.s.d.E. .I x .XH.H.H.G.G.5X8XeXvXVXHXHXLXLXHXJXGXLXJXJXJXJXnXdXsXqX@X_.B.e.:.:.w.#.8 , M q.s.z.}.h.h.h.l.b.E.l.y.9.y.b.E.E.E.:XlX",
"oXE.z.b.XXXXD.h.0.z.oXXXb.l.E.XX&XXX|. .G | +XH.H.5XH.5X+X7XeXcXnXBXVXHXKXLXHXKXJXJXJXJXLXJXMX9X9X@X_.M.w.:.w.w.=.J - x l.z.}.&XXXXXE.s.h.l.b.l.z.b.XX>X:XXXE.v.",
"}.E.b.}.XXoXXXE.g.|.&X}.h.y.t.y.v.l.s.Y M  .G.G.S.G.5X5X+X5XwX8XeXnXNXGXHXNXhXSXBXNXNXnXbXsXiX;X`.`.A.B.r.w.:.:.=.} < - S l.z.z.l.E.&X>XXXl.l.l.&Xb.y.0.Y.XXXX~.",
"y.l.|.E.h.g.v.F.).j.y.y.h.|.|.|.E..XI Y Y w.N.N.S.G.5X5XG.8X7X7XwXeXvXnXHXHXSXJXJXFXFXJXSXdX@XOXOXS.A.B.e.r.:.X.X.&.d - b h.l.h.E.s.s.E.E.E.z.E.y.d.E.Q.XX~.E.R.",
"XXb.s.l.XX&XXXE.b.l.h.d.l.b.:X4XXXXX .K @.8.M.m.S.S.G.G.+X8X8XwXwXfXxXwXBXJXJXLXJXKXFXSXbXsXaX#XS.N.N.M.r.:.e.X.*.{ G - M >X:XXXXXXX}.l.0.0.s.l.v.v.v.v.v.W.v.s.",
">XXXE.b.E.l.h.s.v.l.s.q.0.0.l.|.|.l.` K | ;.r.m.C.G.G.5X8XwXzXvXvXeXmXVXHXDXmXNXDXNXNXsXsXqX9X@X+X_.C.B.M.C.r. .*.} J 9 G <X&XW.XXXXXXv.l.W.XX&X%X%X|.XXXX%X%X&X",
"0.s.l.E.v.E.|.XX}.E.b.l.h.l.|.<XXXl.| K [ { r.M.C.S.G.7X9XxXvXnXmXBXnXBXDXVXGXLXHXLXFXBXnXwX9XwXqX_.OXA.C.M.B.*. .#.Y A n E.v.l.XX|.E.l.E.XXXXW.|.z.h.l.h.s.g.l.",
"l.}.XXXX}.E.XX&X4X>X%XXXE.v.E.XX>XXXP T ] ' :.m.N.G.7X7XwXnXnXVXBXGXGXDXBXGXNXLXJXFXLXJXdXdXsXnXxXqX-X_.C.B.r.&.{ #.Y D x W.XX%XE.E.E.E.E.E.E.}.XXb.l.E.}.h.s.h.",
"0.s.h.v.E.|.XX>XXXXX|.XX&X=XXX&XXXE.G P ] *.X.m.M.OX+X9XqXsXNXnXDXJXKXLXJXLXLXLXLXPXJXKXFXFXMXSXhXsX-X-XZ.Z.e.&.#.@.T D x XX~.E.t.0.s.|.E.s.l.XX|.l.g.b.XXE.b.E.",
"XX}.E.E.E.l.s.q.0.6.6.s.b.E.E.E.b.v.D T [ X.:.r.C.C.OXqX3X3XiXiXhXbXJXHXSXJXKXLXPXKXJXJXJXSXSXbXhX-X).).Z.Z.e.&. .} T G x W.b.R.g.s.l.XXW.l.v.&X4X%XW.oX&X>X>X2X",
"E.|.XX>X2X4X>XXX&XXXE.XXXXXX|.E.XXXXx U [ e.w.r.A.#XX.*.8.i.-.] [ I.=XbXhXMXJXJXJXSXbXSXSXAXpXuX=X].].=X).k.a.#.*.o.U G d :X>X,X<X>XXXXX&X>X>X>XW.W.E.v.v.b.v.E.",
"E.E.XX>X2X>X}.l.s.9.0.s.l.E.}.XXXXXXM Y #.e.M.B._.w.=.} P J D x b f H I.].hXbXbXNXaXbXiXiXI.) D D J ] o.#.I.k. .#.@.Y D z v.l.l.XXXXh.0.f.>XXXl.v.|.>X%XXXXX%X%X",
"0.s.b.|.XX|.XXXXn.|.|.F.|.$X&X&Xb.}.L Y 8.M.M.C.X.&.i.i.O.] m g a a g ~ ,.a.sXdXsX-X-XI.,.J f u d z A D n H ] #.&.@.[ G d XXXXE.s.d.d.h.E.%X,X:X%X&Xv.E.|.E.v.9.",
"}.b.v.z.v.|.XX&X1X,X2X&X&X&XW.b.h.s.+.] 8.C.M.r.&.a.,.~ m g o.g w e m ~ ~ =.-XbXbX#Xp.{ ~ b i u c n ] L J F P @.&.@.o.U A XXXXXX&X|.l.0.0.d.R.W.|.W.s.s.b.|.,XXX",
"XXb.y.0.y.h.l.v.y.s.y.s.l.|.|.|.oX|.+.@.q.B.r.p.a.*.Q e } j < u x b r c m ..;XGXMX(.#.m v j : u R $.j ] @.O.@.O.-.-.+.G K >X=XE.E.|.XX|.XX&X&X>X|.>X|.%X>XW.E.y.",
"4X%X}.E.W.XX|.E.oX&X>X&X>X2X2X,XVXQ.[ | =.r.B.e.=.Q r g R d @ - A ) ~ Q ~ p.qXBXnXOX( j g i f = CXO a ] r } } ] *.-.@.K E E.l.s.0.h.}.oX|.l.q.6.XX%Xb.E.v.h.E.b.",
"|.|.W.|.|.E.b.l.0.h.}.b.l.y.0.6X`.fX .[ w.r.r.5.' ~ { ~ U.o.M N P.U.^ a.OX=X#XvXfXA.@.o.m j J.x , a E f a v { #.-.-.[ T +.XXXX>X>X&X>XXX}.b.z.b.0.b.XX,XoXl.h.s.",
"XXXXoXXXXX|.XX|.l.XXXX~.b.E.oX2.! >.a.[ w.M.S.#X#X;XS.V.].T.pXyXuX].iXhXoX;XOXfXfX_.I.T.].U.U.yX$.E U.O.f ) ~ { &.=.] T P.f.l.XXXXW.l.h.h.l.|.>X4X2XXXW.h.0.v.|.",
"b.b.b.b.b.l.l.h.E.b.z.s.6.0.l.2.! _ / O.r._.7X5X7XeX;XOX(.(.-X).V.<.uXuXqX@X+XfXfX_.a.I.T.I.<.I.T.T.I.I.O.&.&./ -.=.] T ].(.V.T.%X|.R.b.v.l.b.E.W.XX|.&X>XW.XX|.",
"|.W.XXXXXX|.E.z.E.XX>XXXXXXX|.V.2.`...H w.Z.+X6X0XwX9X#XA.Z.(.=XyXyXsXqX9X7X@XfXjX`.;.(.T.].T.{ ..=.%.{ ;.a.(.Z.=.#.] ] uX/.3.3.:X%XW.~.XXW.b.W.|.W.h.W.XXW.|.E.",
",XW.h.d.s.7.t.R.b.XXl.6.8.v.XX0X`.fX@X` =.A.@X0X0XfXfXfXdXMXAXAXbXnXsX6X7X@X@XfXBX`.<.w.(.iXpXpXpXpXiX-X;X`.A.Z.p.#.] #.Q ! W _ b.v.b.$X&X|.b.b.b.b.b.b.b.|.XX|.",
"b.b.%X>X&XXXQ.E.XX}.E.XXXXE.l.dXfX[.N.X.X.C.+X0XfXfXfXfXvXjXjXnXmXnX0X+X9X+X9XfXJX@Xa.w.V.hXhXhXhXMXsXdXqX+X6X`.a.-.] / / <.W L.s.y.h.XX&XXXD.E.|.$X&X2X2XoXE.b.",
"XXXX|.E.R.XX&X>Xd.s.y.b.E.s.0.aX-X[...~ X.A.S.0X0XfXjXmXDXDXDXDXdXfX6X+X9X;X7XfXLX0Xa.<.V.aXhXjXBXjXfX0X0X0X`.`.a.-.o.{ ].uX%./.q.y.l.|.oXb.b.E.|.|.&X|.E.E.b.E.",
"&X>X1X>X&X>XXXXX}.%X>XXX>X2X2X-XhXgX~ m X.V._.6X0XfXjXDXFXFXKXDXDXfX7X_.9X9XwXnXPXaXp.;.(.aXhXFXFXFXjXfXeX{.`./.<.;.P ( ].uX1.K.XXXX&X,X&XXX|.XX}.b.v.h.h.h.}.XX",
"l.s.l.E.v.s.s.h.s.XXXXz.E.XXXX`.jX0Xp.c X.r.A.6X0XfXjXjXDXFXKXKXDXfX+X`.;XsXqXGXKXsXI.I.a.aXMXFXFXKXMXjX0X[.`.V.a.,.P ( I.].'.I.>X1X&XXXE.l.b.E.b.}.|.|.%XoX|.W.",
">XE.E.|.E.g.h.|.s.l.h.s.l.l.l.).sX).} ` X.=.A.6X0X0XfXfXmXDXFXSXMXsXA.aX@X;X9XMXMXaXI.I.<.uXhXFXFXFXjXjX0X{./.V.1.&.b P ].rX'.U.XXXX|.E.h.d.l.b.XX|.XX&X>X$X|.c.",
"k.k.E.XX|.l.y.y.E.l.t.s.h.s.l.iXV.jXa H  .:.B._.;X9X0XfXsXjXMXMXdX;XB.B.{ { B.-X[.<.&.{ &.=XhXhXFXhXaXaX[.[./.V.<.#.D J rXrXK.%Xb.E.XX|.E.}.E.E.XXXXE.b.b.D.b.F.",
"g.k.g.q.s.b.oX&X|.>X>XXX>XXX}.~.uX-Xa k { =.e.B._._.{.0X0XdXbXdXqXwXN.m w r i ~ P F w h { I.].sXaXhXsX-X`././.1.-.} d D U.[./.l.6.0.s.l.l.l.s.s.b.b.}.E.b.|.|.&X",
"v.v.W.:X>X%X%X%X|.h.b.|.v.b.%X:X-XV.f a ` 8.:.e.V.A.`.@XqXaX;X;XqXwXS...h F b f f j y g &.I.I.).-X[.`.1./.a.<.<.#.] p d ].^ I.XX|.XX&XXXb.l.g.g.W.l.h.l.b.z.s.q.",
"|.l.t.s.b.W.XXW.b.h.|.n.h.h.W.E.-X-Xd k ] ;.p.B.B.@X;X9X;X;XOX#XwXwX9Xa.] ] c < : : < ) <.Y.(.a.(.).'.a.a.<./ O.( ] 8 p rX].U.XXv.b.|.b.l.g.y.u.W.b.l.h.g.h.z.D.",
"E.v.W.XXXXW.XXXXD.|.&X Xh.z.}.}./.1.k U H } a.=.Z._.#X-XS.OX@XwX;X#XZ.-.n f a - - - 9 f O.I.T.(.<.<.<.a.a.;.#.} ) ) s D ].'.t.y.W.|.XX|.|.b.}.E.h.b.l.0.9.s.z.b.",
"0.l.|.%XW.b.v.b.D.D.}.}.h.g.l.z.O./ b 8 b ] >.a.).OX;X#XOXOXZ.g.=.;.` b G D u t f 6 6 a x [ ,.i.i.&.<.p.p.;.{ { H J p p '.1.|.>XW.|.|.|.b.b.z.z.|.>X&Xb.z.E.oXXX",
">X|.E.|.&X,X,X>XoX}.b.|.}.g.g.Y.D N x u a N } a.Z._.).#X#X~ m m m P N z u e ) O.&.e - < p D K J #.i.p.p.p.;.,.} J A s : 1.P.b.XX&X&X%X|.E.b.l.j.z.E.}.g.s.b.}.b.",
"|.E.h.s.h.E.}.b.b.l.g.g.l.s.8.q.v.oXk e k b m H i.#X#X3X8.a k a F m g i j h %.1._ ^ g i e f d u b J I.k.p.-.} ) n s , D v.b.|.|.W.|.%XXXoX|.|.|.}.|.D.l.E.&X>X%X",
"v.E.}.b.v.b.v.l.|.2X&XXX>X>XXX>X&XXXf : = t H m -.).OX#Xg u e , : y y y h ' / h Q h y r w u u : 8 n Y.i.].] P Y a f 6 Z z.E.XX&Xl.h.b.b.b.}.b.b.z.l.l.z.b.E.|.W.",
"}.l.y.y.h.E.g.8.6.|.W.s.R.>X:XXXXXXX.X4 6 8 k n ] i..Xk.a u i = O g } :XiXZXZXyXZXT.U.~ e . O e p a k.-.@.n T n a , 9 |.b.E.|.XX|.W.|.|.E.z.h.y.z.).|.>X1X&XW.|.",
"z.&XXXq.0.z.b.q.4.d.%X&Xn.v.b.b.|.|.n.8 - , d f n @.i. .b n ,./.3.L.,.AXZXIXZXZXIXZX^.o.j O.,.J 8 p #.@.J n n x < @ z E.g.y.h.E.b.l.y.s.b.&X&X}.W.W.b.|.,XR.y.v.",
"&X}.E.|.|.z.b.XX%X%X|.E.|.&X&X|.|.|.W.l - - < < z ] k.H a L ).OX_.[.{.tX{.{.2.3.[.[.L.L.%.<.I.o.f z J L d u 8 p , - x }.E.E.E.oXv.b.}.|.&X%Xb.h.s.b.l.d.E.b.s.s.",
"l.s.j.XXb.6.q.|.|.l.9.9.y.b.b.l. X|.b.a 4 - 3 6 9 z x p z n a.OX_._.0X{.[.tXgXgXgX/.3./.p.-.,.G 9 6 z s s , 6 ; ; 8 D z.E.D.}.XX|.|.|.|.E.b.b.b.|.>XoX}.XX&XE.z.",
"h.b.E.W.b.h.s.l.}.}.}.}. XoXoX X XoX Xt 8 l & 4 4 4 s p A p i.B._.a..X.X(.(./.'.'.'.I.i.@.,.o.d q s 4 4 & ; 4 4 5 9 n l.}.l.b.|.1X|.E.b.l.h.W.1X>X}.b.}.}.g.9.q.",
">X%X|.|.>X,X|.y.b.b.b.D.Y.).j.z.g.j.j.g.d o X + * > @ > 0 A @.8.C.*.} ] P O.o.] ] ] o.] #.@.L 8 4 > * & ; & @ 4 4 D |.&XXXb.E.XX|.W.}.|.|.|.XX&XXXz.z.}.E.g.s.g.",
">X&X>X>X&XXXE.b.2XXXD.b.c.).j.z.y.q.q.q.y.; % % * 3 & % > 6 [ i.a.X.] H a L L D P P ] @.) T s , * * & & & * % * % S >X>X|.l.z.|.l.b.b.E.|.|.|.b.z.b.XX|.E.1X2Xb.",
"%X&X,X2X>XW.|.%XXXb.l.z.j.h.j.z.|.l.l.v.b.+ + X   * % $ 5 0 A Y ,.} ] m j f ) b P H +.@.Y G ; 4 , 5 $ 2 * + X > & }.oX}.b.z.l.z.h.b.b.h.l.|.|.v.y.s.l.l.h.|.XXs.",
"XXv.t.s.W.4XW.0.9.s.D.XXE.j.l.D.XXl.l.|.%Xb.* o # % o & 1 5 q G T [ b F D J o.) J J L A z 8 * * & + & X % o * & * |.|.E.b.|.}.l.y.E.XXb.E.&X&Xb.%Xv.|.,XXXW.W.f.",
",X%Xn.v.%X,X>XXXE.v.E.|.XX|.n.}.d.y.d.b.$X$X% o V X % % * 3 Z x z Y m H J ) ] P P A x 9 q ; 5 5 * * % q * % X ; s.h.v.b.R.b.E.|.E.>X2XE.h.b.l.y.d.R.XX|.b.s.y.g.",
"W.R.v.x.W.>X,X>XR.v.b.%X&X&X%X XlX%Xb.W.>X,X%X* % 5 % & % * 9 S 8 b T @.o.) P P +.p A 6 5 3 1 0 * & & % & % + R.h.9.0.v.&XXXE.b.XX&X|.l.l.W.>X>X&X%X%XXXW.E.|.>X",
"W.$X$XE.v.v.E.R.|.E.v.E.&X&X&X*XR.E.R.h.l.W.~.W.@ o + 0 % 3 @ 9 q K o.D D b G x o.d C 5 q 3 % & & X   X & X . >X|.s.d.&X4X&XE.E.b.|.XX|.|.XXXX|.:X%X%X&X>XXX|.W.",
"%X,X,X>X~.E.v.l.%XW.XX|.%X|.|.oXXX4X4XXXE.W.>XXXXX* + X % % * 5 9 6 D d z f x n s s q 0 1 * & S X *   % % X 4X%XW.W.&X4X2XXX|.%X>X&XW.l.d.h.XX2X>X&X&X>X&XW.l.h.",
"F.|.%X&X&X:X%X>XR.|.>XlX2X$Xb.b.XX~.E.E.XX<X>XXXE.@ X X & . & % % ; 0 6 , s p 6 q 5 * * X X 1 % * X X X + ~.%XW.l.|.>X%XW.E.b.W.|.%X&XXXb.E.%XlX,X&X%X%X|.E.b.|.",
"W.E.b.b.E.E.!.:Xv.R.W.|.|.|.|.&XXXXXXX%X>X2X>X>X%X%XX 1   X . X + $ * X & 3 4 3 * 1 3 % . & & 3 3 * . @ ,XE.l.v.W.XXW.b.l.b.l.0.y.W.4XlX,XXXW.b.b.E.|.XXW.E.W.%X",
"b.b.b.E.v.h.l.E.%XE.v.l.b.n. X&X|.D.W.}.h.0.9.h.v.XX%X* X   % 3 & % & % # % X 5 % % % + * % # & X X ; s.t.t.R.>X2X&XXX|.XXXXh.t.E.&X>XW.b.E.|.b.s.l.E.|.W.v.E.W.",
"u.h.}.%X&X!.%X>X,X%X|.%X2X&X|.D.b.y.y.b. X|.|.|.,X&X%XE.X X V +     X 3   . &   % & X X X + & X . ; ,X!.W.%X>X>X>XXX%X2X4X&XXXXXb.XX%XE.}.%X|.l.&X|.E.b.l.l.W.&X",
"9.0.y.|.XXv.l.:X,X%X%X%Xn.c.v.W.&X%Xv.d.v.:X4X<X:X%XR.c.d.& X + X & X   X X . %   % X X X & % + ; |.|.n.b.b.n.|.W.%X%X:X%X:X%X~.$X|.F.|.b.s.l.E.b.n.n.v.n.n.$X%X",
"y.h.l.XX2X>X%X<X%XXXE.h.v.n.%X&X%X%X&X:X>X,X%X~.&X%X%X%X:X,XX % *   X % # X %   . X X   o . + >X&X&X&XXX|.E.|.|.:XE.d.v.W.%XW.d.y.v.|.b.y.9.h.XXW.W.W.|.&X%X%X%X",
"$X&X|.b.W.v.s.s.XX:X%XXX:XlXlX&X%X|.v.v.v.R.XX>Xf.v.b.R.|.>X%XW.h.    X X X     X o .   W.2X<X|.%X>X%XXXb.R.E.W.2X~.v.v.%X,X>X%X&XF.h.h.h.l.s.y.XX|.E.|.XX|.E.h.",
"b.|.b.l.v.XXXX:XE.Q.XXXX>X&XXXv.|.XX&X,X>X|.W.:X%X,X>XXX:XlX4X%X4XXXW.b.l.XX,X&X4XlXlX&XW.E.b.E.XXXXE.E.E.E.W.XXXX|.W.E.b.W.%X2Xh.l.b.W.|.|.&XlXXX|.b.l.z.z.z.l.",
"b.>XXXl.h.v.b.E.Q.E.l.R.E.l.b.W.,X,X,X2X%XR.v.XXv.W.|.v.h.E.W.l.W.h.E.2X>X|.E.v.b.E.XX%Xb.s.d.b.:XE.R.b.~.>X>X>XXX>X>XXXv.l.E.%X1X|.|.>X&Xl.h.|.l.z.b.b.b.b.|.oX",
"4.h.v.b.E.E.XX>XXXE.E.XX&XW.|.>X&X|.b.h.s.y.l.E.h.|.%XW.b.E.E.b.%Xz.b.E.h.y.E.>Xb.h.z.|.XXb.z.E.|.Y.h.l.E.XX&X>X,X,X&X&XXXW.|.XXb.0.0.b.&X|.b.b.y.l.XXXXE.E.E.XX",
"$X,X,X&X|.E.l.E.l.l.b.E.|.|.b.b.u.v.|.~.W.E.l.l.d.b.W.XX|.E.b.|.E.b.>X>Xb.l.b.|.>X|.v.E.|.XXW.E.b.v.b.b.E.W.W.b.|.E.v.b.E.b.b.v.s.b.|.E.h.y.h.h.t.b.:X&X~.v.v.W.",
"|.%XW.E.E.v.z.XXoX|.j.y.h.D.b.h.b.|.b.l.h.E.b.Y.b.E.}.|.E.E.}.%XoXXXXX}.h.E.|.E.z.b.g.0.y.z.|.E.|.$X,X&X&X|.|.|.}.W.}.v.l.g.d.h.s.R.b.s.b.&X&Xc.d.R.%X:XW.R.XX:X"
};
