/* XPM */
static char * gab_x_men_xpm[] = {
"80 80 419 2",
"  	c #AC9574",
". 	c #BC9D7C",
"+ 	c #BCA584",
"@ 	c #AC936C",
"# 	c #C4AB84",
"$ 	c #B4A27C",
"% 	c #BCA37C",
"& 	c #BCAA84",
"* 	c #B49D7C",
"= 	c #AC9B74",
"- 	c #C4B38C",
"; 	c #CCBB94",
"> 	c #BCAC8C",
", 	c #C4B494",
"' 	c #BCAE8E",
") 	c #B4A484",
"! 	c #C4AD8C",
"~ 	c #B49B74",
"{ 	c #A48C64",
"] 	c #BCAA7C",
"^ 	c #B4976C",
"/ 	c #BC9C74",
"( 	c #CCAC84",
"_ 	c #CCB38C",
": 	c #C4AA7C",
"< 	c #C8B486",
"[ 	c #C4A684",
"} 	c #C4A47C",
"| 	c #D4B68C",
"1 	c #AC8E6C",
"2 	c #CCB494",
"3 	c #D4BB94",
"4 	c #CCAD8C",
"5 	c #B8A375",
"6 	c #B49574",
"7 	c #A48D6C",
"8 	c #9C8564",
"9 	c #CBA996",
"0 	c #B6957B",
"a 	c #AB997B",
"b 	c #D4B694",
"c 	c #977567",
"d 	c #98765B",
"e 	c #946B5C",
"f 	c #74573B",
"g 	c #7A6349",
"h 	c #8B6B5C",
"i 	c #855956",
"j 	c #97855A",
"k 	c #87684C",
"l 	c #7B6255",
"m 	c #5A432E",
"n 	c #4D361C",
"o 	c #69533B",
"p 	c #584844",
"q 	c #C8A58B",
"r 	c #8C725B",
"s 	c #886657",
"t 	c #766455",
"u 	c #745853",
"v 	c #4B3A32",
"w 	c #483429",
"x 	c #5B4538",
"y 	c #A9835E",
"z 	c #976D4E",
"A 	c #785747",
"B 	c #644B3C",
"C 	c #3B322C",
"D 	c #4D4139",
"E 	c #472B26",
"F 	c #A88567",
"G 	c #724B2E",
"H 	c #865947",
"I 	c #6A5953",
"J 	c #463A37",
"K 	c #342925",
"L 	c #38251B",
"M 	c #695548",
"N 	c #A5936C",
"O 	c #67452B",
"P 	c #664737",
"Q 	c #2D221D",
"R 	c #565150",
"S 	c #4B4446",
"T 	c #3A3433",
"U 	c #3C2C24",
"V 	c #CAB99B",
"W 	c #221D1A",
"X 	c #2C2424",
"Y 	c #271C16",
"Z 	c #D4BD9C",
"` 	c #C99A87",
" .	c #BA9A85",
"..	c #573828",
"+.	c #53423B",
"@.	c #A47A64",
"#.	c #7D635A",
"$.	c #896A65",
"%.	c #73544B",
"&.	c #796768",
"*.	c #8D7475",
"=.	c #583C34",
"-.	c #BC8A6B",
";.	c #AA6F59",
">.	c #B58368",
",.	c #DDB699",
"'.	c #D69A87",
").	c #DAB3A6",
"!.	c #DDB9B6",
"~.	c #E8B9B4",
"{.	c #C69A96",
"].	c #B18C8E",
"^.	c #A67B73",
"/.	c #CB8F6F",
"(.	c #D49B78",
"_.	c #CB947C",
":.	c #E3AC94",
"<.	c #F4B9A7",
"[.	c #F4C3AC",
"}.	c #EFC1AA",
"|.	c #F3C5B4",
"1.	c #F5CBBD",
"2.	c #FBD2C4",
"3.	c #F3CAC4",
"4.	c #F3C5BD",
"5.	c #EBBCAA",
"6.	c #E7B6A7",
"7.	c #DCAA94",
"8.	c #DCA58B",
"9.	c #B98977",
"0.	c #AC8776",
"a.	c #7C5C53",
"b.	c #666633",
"c.	c #CCC29C",
"d.	c #E1A87B",
"e.	c #E3AB84",
"f.	c #E7B18B",
"g.	c #E2AC8C",
"h.	c #EAB699",
"i.	c #F5C4A7",
"j.	c #FBD2BE",
"k.	c #FBD3CC",
"l.	c #FBCCBD",
"m.	c #F9C7B7",
"n.	c #D39C83",
"o.	c #AB7C6C",
"p.	c #976B64",
"q.	c #9C8C68",
"r.	c #D5C29B",
"s.	c #674C46",
"t.	c #C49485",
"u.	c #EDC09F",
"v.	c #E4B39B",
"w.	c #DCA484",
"x.	c #C99576",
"y.	c #BB856C",
"z.	c #C38C73",
"A.	c #8C7265",
"B.	c #1A120E",
"C.	c #948284",
"D.	c #DBA37A",
"E.	c #F2B69B",
"F.	c #FBCDC3",
"G.	c #C38C6D",
"H.	c #B57E65",
"I.	c #B47B6A",
"J.	c #FAD6CB",
"K.	c #FEDAD3",
"L.	c #ECC3B8",
"M.	c #9B7564",
"N.	c #FCD4D1",
"O.	c #AA7966",
"P.	c #F8CAC9",
"Q.	c #D3A285",
"R.	c #A7765C",
"S.	c #A37564",
"T.	c #B8A789",
"U.	c #C58A69",
"V.	c #E3ADA5",
"W.	c #D8A88B",
"X.	c #976858",
"Y.	c #D9A796",
"Z.	c #FFDBD9",
"`.	c #C3937C",
" +	c #A98567",
".+	c #AE8675",
"++	c #A6796A",
"@+	c #8D6556",
"#+	c #8D6A5C",
"$+	c #B88B85",
"%+	c #EACCCA",
"&+	c #D4A8A4",
"*+	c #966A5B",
"=+	c #8C5951",
"-+	c #994C44",
";+	c #9F423D",
">+	c #973D31",
",+	c #8C4133",
"'+	c #673B33",
")+	c #795747",
"!+	c #855D54",
"~+	c #744B45",
"{+	c #794943",
"]+	c #835148",
"^+	c #8F6455",
"/+	c #8B6A65",
"(+	c #AD8776",
"_+	c #B78071",
":+	c #C35752",
"<+	c #D5453A",
"[+	c #DF291F",
"}+	c #D92015",
"|+	c #C6261A",
"1+	c #9E2F21",
"2+	c #753727",
"3+	c #79534A",
"4+	c #7F3830",
"5+	c #9E231F",
"6+	c #B12D26",
"7+	c #B2332D",
"8+	c #A03D3A",
"9+	c #854842",
"0+	c #6A4B3C",
"a+	c #AB7971",
"b+	c #B54B3C",
"c+	c #E0281E",
"d+	c #F50D07",
"e+	c #FC1110",
"f+	c #FA0603",
"g+	c #F10402",
"h+	c #D3170B",
"i+	c #A54032",
"j+	c #8A5847",
"k+	c #B38274",
"l+	c #895947",
"m+	c #8D4132",
"n+	c #C21C19",
"o+	c #DF1410",
"p+	c #EE1A0D",
"q+	c #ED1D16",
"r+	c #E4372F",
"s+	c #C3423D",
"t+	c #904E45",
"u+	c #7B4E43",
"v+	c #9E4C37",
"w+	c #BC1C10",
"x+	c #F5261F",
"y+	c #FE0201",
"z+	c #FF0000",
"A+	c #FD0402",
"B+	c #EE1A13",
"C+	c #B91D10",
"D+	c #804229",
"E+	c #764A3A",
"F+	c #82482C",
"G+	c #B72C26",
"H+	c #E80805",
"I+	c #FB0303",
"J+	c #FE0303",
"K+	c #FE0506",
"L+	c #FA0705",
"M+	c #EA3129",
"N+	c #C45F53",
"O+	c #9F6862",
"P+	c #A37A6B",
"Q+	c #89513B",
"R+	c #862615",
"S+	c #CF2418",
"T+	c #F91517",
"U+	c #FF0100",
"V+	c #F71815",
"W+	c #D13E30",
"X+	c #A14B37",
"Y+	c #683A32",
"Z+	c #8D3424",
"`+	c #C81B18",
" @	c #F60C0A",
".@	c #F6201A",
"+@	c #C31B0E",
"@@	c #A76456",
"#@	c #E5A58C",
"$@	c #AB6151",
"%@	c #D03D30",
"&@	c #F92A2B",
"*@	c #FF0202",
"=@	c #FF0203",
"-@	c #F92C2D",
";@	c #D23A37",
">@	c #C58070",
",@	c #974435",
"'@	c #D2231E",
")@	c #FB1C1D",
"!@	c #FF0101",
"~@	c #F70B08",
"{@	c #C92419",
"]@	c #90462A",
"^@	c #C36351",
"/@	c #A6572E",
"(@	c #D79674",
"_@	c #DE6D61",
":@	c #F54A47",
"<@	c #FD1C1B",
"[@	c #FF0A0A",
"}@	c #FF0808",
"|@	c #FE1E1E",
"1@	c #F54947",
"2@	c #E99086",
"3@	c #EAB2AD",
"4@	c #BC9695",
"5@	c #CF908C",
"6@	c #DB6769",
"7@	c #F73132",
"8@	c #FF0C0C",
"9@	c #FE0A0B",
"0@	c #F32926",
"a@	c #BB2C26",
"b@	c #98584F",
"c@	c #A85B5C",
"d@	c #955B4A",
"e@	c #DCA993",
"f@	c #DB957A",
"g@	c #E56A5F",
"h@	c #F24B44",
"i@	c #FA4039",
"j@	c #F93931",
"k@	c #F3443B",
"l@	c #DF5851",
"m@	c #DD9995",
"n@	c #D5A7A3",
"o@	c #BE9493",
"p@	c #D17570",
"q@	c #EC4640",
"r@	c #F92C2A",
"s@	c #FD1B1B",
"t@	c #FD1D1D",
"u@	c #F92F2C",
"v@	c #EA534F",
"w@	c #BA5C56",
"x@	c #A77362",
"y@	c #C68979",
"z@	c #E8A998",
"A@	c #D9A689",
"B@	c #D48973",
"C@	c #DA7966",
"D@	c #E17065",
"E@	c #E57F70",
"F@	c #E08E90",
"G@	c #D79EA0",
"H@	c #E8B3A4",
"I@	c #F5BBB6",
"J@	c #CB9591",
"K@	c #D57D7C",
"L@	c #D7483C",
"M@	c #E74234",
"N@	c #E54A3D",
"O@	c #DC494C",
"P@	c #BD594B",
"Q@	c #B27869",
"R@	c #C98A86",
"S@	c #C77A79",
"T@	c #EBBBA9",
"U@	c #F4BFB7",
"V@	c #EDC2C0",
"W@	c #EDBCB2",
"X@	c #F3C4B3",
"Y@	c #B37D73",
"Z@	c #DFB6B3",
"`@	c #E3ACA9",
" #	c #E5A6A3",
".#	c #DFA89B",
"+#	c #DBA594",
"@#	c #97311E",
"##	c #D99895",
"$#	c #CA7D85",
"%#	c #AC686B",
"&#	c #ECA8B0",
"*#	c #E49991",
"=#	c #B77A76",
"-#	c #BC7D83",
";#	c #C88E92",
">#	c #D09AA1",
",#	c #491810",
"'#	c #582918",
")#	c #592A26",
"!#	c #794E43",
"~#	c #77372E",
"{#	c #673A32",
"]#	c #692C1D",
"^#	c #643928",
"/#	c #8D534F",
"(#	c #361E16",
"_#	c #835D54",
":#	c #482918",
"<#	c #291107",
"[#	c #1A090C",
"}#	c #D5CECE",
"|#	c #CCADAF",
"1#	c #090707",
"2#	c #DCD6E0",
"3#	c #AEACB1",
"4#	c #E99FAA",
"5#	c #262525",
"6#	c #1A1616",
"7#	c #2D2A2B",
"8#	c #100E0B",
"9#	c #0C0C0B",
"0#	c #13110E",
"a#	c #1B1A1A",
"b#	c #28201B",
"c#	c #2E2C31",
"d#	c #141314",
"e#	c #040303",
"f#	c #100F10",
"g#	c #241F23",
"h#	c #0E0E11",
"i#	c #1E1E21",
"j#	c #3D3D40",
"k#	c #ACA27C",
"l#	c #483D41",
"  . + .   @   @ + # + $ % & * @ = $ & & + $ - ; + + > , ' * ) ! $ % $ = @   ~ + - # @ { $ ] $ # * = $ # %   @ . ^ / % ( _ _ : % : _ < [ % % : % # } % # | _ _ # ",
". * ~ * % % * 1   ~   @ * # # + & $ = + 2 3 ! $ $ * + ! ! % + , % # ! 4 ! ! ! _ _ ; _ # # + % & + $ % + % * ~ + ( # } % } # _ ; } + % 5 ~ ~ % % [ % % % % * ~ ~ ",
"% + % 6 6 % ! _ ! _ ! # # - _ ! - _ , - - - ' # + + + # + * ~ % ! + . = ~ % # _ * * + ' % * + * % $ * % $ . * 6 6 ~ . [ % . + % [ % % % % % ~ %   ~ ~ ~   1 @ ~ ",
"* % [ * ~ + _ 3 + 4 _ ! + + . ~ ~ + _ % 7 8 { * + % % % + % * $ . % # 4 _ 4 + * 9 * * [ + 2 2 [ $ # ! # ! ! [ . . . 0 6   * [ 2 /   ~ % [ ~ 6 ~ % + [ # + % + 4 ",
". * ~ % ! _ ! . 7 6 * . . % % * - _ - ! # % + % $ * * # ! _ 2 2 + ~ 7 7   % ! _ ! * 0 * * + + a = + ! [ % [ + . . . . ~ 6 * + ! # % % [ # + % [ % % + + + * ~ ~ ",
"[ [ * 6 ~ . % * } + [ + } + 4 2 # # # ! _ 2 # % 4 # # # # # + } + [ 4 | b c d e f g h i @ 7   1 * % + ~   ~ % % 1 ~ [ ! [ . ~ @ 2 # % * . + # _ ! ! [ ! # [ . * ",
"! ! [ 6 7   + 4 4 [ [ . . . % [ # - 2 2 _ - _ 2 _ _ 4 # % . ~ ~ 2 j k d k g f f f h l g m n o p ! - _ ! # [ # q ( ( # : # # _ _ + + * @ @ ~ % + 6   7 @     @   ",
"# [ + % # 4 # % * / * . . } + [ [ + ~   6 * * % % } # } [ # ( c d 8 { d 8 k r d g s t u t t v w x ! - 2 - [ * 6 / / # 4 | _ # : 4 2 b ! [ ! 2 ! 9 ! [ + + + q ! ",
"@ @ 6 + ! _ ! % % / ~ ^ @ @ @ @ @ @   ~ + # 4 ! ~   1 7 7 6 7 ~ y z k d g A f o o g B p C D p v E E E . . [ # 4 & % : - _ # # _ # _ | - % 6 ~ % % + ! _ 4 . ~ . ",
"[ + % + # ! # % ! # [ + % + # # # # + # ! 4 - # + # ! _ F F { d G H G g f m A x p E x I I C J K L L w M . * 6 @ # % ~ . & # # # ~ ~ 6 . # _ _ _ ! ! 4 ! # 4 ! 4 ",
"+ . ~ ~ . % + [ 7 7 1 @ 0 % ! 4 , - ! # # + % + N   ~ F F f f f d g O P v v Q p p p R S S S J T C w U L t [ % . % .   @ ^ . % %   ~ % % ~ ~ . % 6 6   1 @ * [ % ",
"[ % + . + [ ! 4 b 2 2 9 2 2 V b b 2 b _ ! # # # ; _ k A g r G A f m w L J C T S J T S W R T S R X Y w L w o # [ . [ ( ~ 1 6 + 4 %   7 ~ _ Z 2 % ` [ } * % 2 ; 2 ",
"2 _ 2 ! # + % % *  .*  .%  ..  .+ # ! # # + ! ! # k g M M k f o ..I +.w w S T p J J J Q Q U K K X C Y L Q L p @ * # 4 . 1 @ / ~ * # _ 4 *   6 * } 4 4 [ _ Z Z _ ",
"_ 2 _ _ [ . 0 ~   6 * * % + + % ~ ~ $ + % + # ! { g m B A @.n f P f c l M M u I #.$.%.&.*.=.v X C Q Q Y Q w w ! [ [ + . . . 6   6 @   * [ # + * ~ . % * . % % ~ ",
"# ! _ ! [ + # ! _ _ _ _ ! [ % . ! ! 4 _ 2 2 2 8 I x ..H -.;.H >.q ,.q  .'.9 9 ).!.!.!.~.).{.].^.I I I J U Q K I ! ! # , 2 - ! ! + ! 4 # * 0 . # ! _ ! ! [ % * ~ ",
"  6 ~ ~ ~ ~ + 4 + } # # ( # < _ 2 3 2 ; 3 3 8 r M B k >./.(._.:.<.[.}.|.1.2.1.3.4.|.|.5.6.6.7.8.` 9.0.c a.K K x b.7 a + + * + 2     7 7    .+ ! - ! # + ~ 1 1 6 ",
"$ & , , - ' _ c._ ] % % % % % } * % ! ! + * 8 I g @.d.e.e.f.f.g.h.i.|.|.1.j.k.3.l.m.[.|.6.<.:.g.n.(._.9.o.p.U K D < _ < & & & ) # _ _ # # # _ 3 < % ~ % ! ! ~ q.",
"- - _ ; ; Z Z Z r.3 _ + . / [ _ ! ! # + + r s.#.t.d.d.d.d.f.f.f.u.i.i.[.|.2.1.5.1.2.|.}.5.v.:.(.w./.x.y.z.>.A.X B.A.C._ 2 ; ; r.# % % - 3 _ # % 5 # # ! ! ! _ r.",
"* % + % + % % $             6 * + % a 1 r M s.F d.d.D.D.e.e.f.E.i.[.m.[.|.F.1.4.2.4.l.|.[.h.h.8.w.(.G.-.y.H.I.%.Y J k ~   @ 6 * ! % ~ % + * + 3 < _ _ ! + * = = ",
"! 4 _ 4 } * . % q + [ ! 4 ! .   ~ . + + r x %.f.d.D.(.D.e.f.h.i.[.j.2.J.K.K.2.L.F.2.2.1.1.5.6.:.:.w._.G.-.H.H.o.u J t i 6 6 ~ * 6 = + # + ~ . # # %   7 7   $ & ",
". . . ~ 6 1 7 1 * * * *  . . .*   = + d g x q d.d.d.D.D.e.f.E.[.j.J.J.K.K.J.k.2.K.k.k.k.k.|.5.6.v.8.n.z.y.H.H.>.M.U Q o 1   . [ ~ ~ ~ * % + * @ { @ % + + + , r.",
"4 + . % ! ! } ~ 7 . 4 ! % * + ! _ ! # d M r w.d.d.e.d.e.w.g.E.i.|.l.j.J.N.K.J.N.k.k.k.k.K.k.4.:.:.8.n.G.>.H.>.>.O.%.Y x * . [ _ ! ! +   ~ * % * . % ! 2 , ! + $ ",
"[ + % [ ! 4 ! + 6 # _ [ ~ @ N @ $ *   l o d D.D.(.D.e.e.w.e.h.f.E.|.1.2.J.1.~.3.l.1.1.|.L.6.).7.'.'._.z.-.>.H.H.O.e L Y R * . . * + _ 2 ! * * * _ % @ 7  .! ! ' ",
"@ * # + ~ 6 $ : ` / @ @ ~ # # # + q g l l >././.(.D.e.e.D.f.g.g.h.E.[.|.J.J.3.k.k.P.P.k.3.5.8.Q.Q.(._.z.y.-.H.R.R.S.v Y P ~ * ~ +     + + + . + @ = + T.! ' + ) ",
"! %   * ! _ ! + % * ~ = * % , Z ! ! d I c F G.U.(.(.D.D.w.f.f.h.h.<.}.h.l.k.k.K.k.N.P.3.L.6.V.W.(././.G.-.H.y.R.@.X.M Y o 2 , ! ! ! [ * 7 7   * $ $ $ $ $ & $   ",
"2 ! + % + * ~   $ *   1 7 7 * # # * k I r o.-.U.x.D.D.e.f.h.u.[.[.E.m.j.J.F.m.1.F.1.1.6.6.v.:.8.w.n.x.z.G.x.-.d @.e %.C M V _ & ! ! ! $ * & ! _ - - # ! ! - - _ ",
"7   * + $ + # ! [ + % * ~ * # V ! * r I h X.-.G.x.(.D.g.:.}.[.|.m.l.|.l.F.j.2.K.J.K.P.l.|.h.:.h.v.n.Q._.x.G.z.@.d M.l p B + $ * ! # + * + ! ! & # . ~ * ~   6 * ",
"* [ ! ! [ + ! _ Z 2 - ! + $ + ! 2 ! a.#.s z H.U./.D.g.g.h.|.|.j.l.2.2.F.l.2.1.K.k.P.K.k.5.5.6.|.}.v.Y.n.x.z.-.S.X.M.l s.x & ! - + + + + + + + [ ! % * + [ ~   ~ ",
"7   ~ $ + # ! 2 ! ! # ! _ 9 ! _ ! + M a.s @.R.U.G.Q.w.:.v.6.1.|.F.k.N.K.k.K.K.K.K.Z.k.N.P.P.4.3.~.6.Y.Y.`.`.y.S.M.c #.s.x ! ' + N 7   # +   * ! # * 6 % ! + % + ",
"! [ + + + *   1 7 8 8   % + + + % $ s.#.h R.H.-.x.x.Q.v.,.,.).).~.L.k.J.3.k.N.K.Z.N.k.k.k.3.3.L.~.Y.` ` `.`.y.S.d e #.M x & % ) 6   * ! & * $ _ Z - & 4 _ 2 2 3 ",
"+ # ! 2 3 Z 2 ! _ ! + ! ! ! # + ! ! x t h y.>.-._.W.R.@. +.+++@+#+$+9 L.~.4.k.k.k.3.L.3.3.%+!.&+9 {.{.9 ` 0 9.M.@.$.t M v , 2 ; V 2 ! ! _ 2 2 2 & & + $ $ % $ + ",
"+ + ! 2 3 2 [ *   { 7   * + [ ! ! ! o l M.y.G.z.n.>.O.*+=+-+;+>+,+'+)+$+{.~.L.L.1.V.L.).).$+!+~+{+]+^+/+M.$+0 d M.c l s.+.$ * * ! ! ~ 7 a 2 ! * $ # 2 - ! ! - - ",
"7   % # ! # ! ! ] # # : # < _ _ % [ u l F G.G.x.R.S.(+_+:+<+[+}+|+1+2+H ^.9.6.5.6.Y.Y.$+^.3+4+5+6+7+8+9+0+A s M.S.c h M v ! ! +   = = ~ + - ; , - _ $ + # + $ { ",
"[ % $ . $ # ! _ b ; 3 _ _ _ & % ~   A.s F x.G.-.S.9.a+b+c+d+e+f+g+h+i+j+H O.Y.L.L.W.k+X.l+m+n+o+p+q+r+s+t+u+a.c S.c $.t p ! ! ! _ # * 7 7 = ) & # &     % # ; ! ",
"! % @ 7 @ ~ * $ @   @   * # # # 4 # A.c 1 z.-.k+9.@.v+w+x+y+z+z+A+B+C+D+E+;.7.2.4.t.M.E+F+G+H+I+J+K+L+M+N+O+c p.P+P+A.M I 2 9 + + # ! # ! _ _ 2 # 2 # - 2 & + @ ",
"Z - [ + & ! # + 4 _ 2 _ 2 3 3 ; j.T.h r O.-.z.y.O.Q+R+S+T+z+z+z+U+V+W+X+H k+v.l.|.Q.i Y+Z+`+ @z+z+z+U+.@+@@@e s @.P+c I &.+ *   7 ~ [ 4 # * 1 8 ! - % + $ ~ + % ",
"# # & # # + % * 7 ~ [ % * @ 7 #@'.<.d h >.-.-.y z H $@%@&@*@z+z+=@-@;@>@Q.9 W.[.<._.c $.,@'@)@z+z+z+!@~@{@]@X.M.P+P+h #.A.! ! 2 2 _ 2 ! [ % . % 7 % ! ; 4 * ~   ",
"! ! 4 ! ! # ! # * ! ! ' % + 4 ^@/@I.9.h >.G.(.W.W.7.(@_@:@<@[@}@|@1@2@3@4 7.Q.<.<.n.$+4@5@6@7@8@z+z+9@0@a@b@H X.S.O.s #.C.a * ! ! & * ~ ~ * # 2 Z 3 ! & ~ 7 $ # ",
"% % % % % * * ~ + % .   8 7 * ^@/@c@d@p.-.n.g.e.g.E.e@f@g@h@i@j@k@l@m@n@v.8.w.<.<.n.9.$+o@p@q@r@s@t@u@v@w@x@S.d@P+O.s #.{.t.y@4@- # ) % $ * % + & ! # _ 2 & ! # ",
"# & ! ! ! # + . + ! 2 ! ! ! # y@^@'.;.A >.`.w.#@z@h.:.A@B@C@D@E@F@G@H@v.:.g.8.<.I@'.o.t.4@J@K@L@M@N@O@P@Q@9.t.`.O.M.s s &+R@S@S@, - & ' ! & % & # & ~ & ! & # + ",
"; & ~ =   q.N ) % ! * 8 F $ ! z@'.<.8.k O._.8.z@z@<.<.<.T@U@V@V@W@X@6.#@g.8.8.<.l.'.Y@>.t.).Z@`@ # #.#+#7.'._.`.k+M.s M.Q+/@@#c@% $ % < _ # % % % % % % % # ! # ",
"% % - 2 _ ! T.+ ! [ + ! ! + * 5.<.##/.R.R.x.w.z@<.<.<.<.[.I@I@|.m.|.z@w.:.w.:.<.k.8.9.>.y@~.~.~.~.4.6.5.v.w.#@'.9.P+s d@d@Y@@#$#  @ ~ ! _ ! } + # < _ 3 3 4 + % ",
"! ! # + ) ! _ 2 =   @ % +   7 V.Y.##;.H R._.(.z@z@<.I@m.F.F.F.F.5.<.#@w.:.7.g.<.K.z@9.Y@y@V.~.I@l.I@<.z@z@z@'.'.9.P+$.X.{.&+%#R@1 @ * # 4 % % + # # _ # + + % + ",
"_ 2 b 2 _ 2 ! ! [ - 2 ! 2 3 3 Y.~.&#H E+R.y@n.#@z@<.I@F.P.P.N.F.F.<.g.n.:.:.h.|.Z.V.k+o.t.V.~.P.P.P.I@<.E.*#'.R@Y@o.a.i {.&+=#-#! ! _ ; _ ! # ! [ % $ ~ ~ ~ [ ! ",
"*   * + $     ~   ! ! . + ! ! '.I@z@k+O R.-._.#@z@<.I@I@F.P.N.N.F.<.w.'.7.6.v.2.N.6.$+$+9.V.4.P.P.N.4.I@z@##'.y@9.^.a.i $+{.;#$+2 b _ ! + * % + % [ # # - 4 # & ",
"2 + + # + 6 ~ #   * ~   * * * ` 6.` e k R.O._.#@z@z@<.<.m.F.P.3.4.6._.V.8.7.:.4.4.V.$+$+Y@&+~.P.P.P.I@I@z@*#R@y@=#S.P a.{.>#;#].! ! # + ~ = * % ! # ! _ 2 < # 5 ",
"0 0 + ! # * @ @ + * N   ~   * ).y@I@..A d H.z.n.7.:.z@<.6.I@4.4.5.7.z.z.X.X.z.Y.##Y@S.X.S.9 ~.~.P.~.V.V.####R@y@Y@M.s.%.>#>#-#- % + ! # + [ + + ! ! + % % } % : ",
"6 0 6 1   % 4 _ # 2 2 ! 2 ! [ ' &+Y...m X.O.y.z.n.n.*#z@z@5.L.5.v.h./.E+,#'#)#H a.!#,#~#X.$+{.6.V.~.6.Y.'.R@R@=#P+e v s.].##R@* 8 7   * * *     % % [ + % # # _ ",
"$ $ & , 2 - - - # ~ % # $ % - , Y.y@=...k F H.y.y@_.'.8.v.V.7.7.v.h.(.;.~#!#P =.=.{#]#^#S.$+$+` Y.##'.=#R@9.Y@Y@M.s w v {./#$+! # ! _ ! % * 6 6 & * ~ * % .   1 ",
"# * N   % & ! & % ~ # ] ~ ~ & + Y.Y.v m s o.k+z.z.8.7.:.7.7.Q.W.h.h.:.9.s s O L (#(#L _#Y@ .t.9.t.` ;#9.9.Y@d@p.i s U w >#{.].! $ % # % * 6 @ ^ & % * ~ 6 ~ . } ",
"+ $ & ! ! & ! ! } # _ ( ~ . [ [ R@=#m t A e 9.O.`.n.W.Y.(.Q.8.h.7.W.`.P+B =...Y Y Y C =.p.$+4@t.Y@Y@Y@9.9.o.M.e _#_#J s.{.;#N @ & # ! # # % [ + ~ % * 7 {   . % ",
"7 * # - & % $ % } } [ [ ~ 6 * . p.d@P U P s I.9.` Q.7.W.Q.Q.`.6 O.o.k P M s.E n =.K K ..x h ^.0.0.S.Y@k+k+o.X.X.A %.w w ;#=## 2 & # # # % % . . # 2 _ % . + 4 ! ",
"2 # + # _ ; ; 2 4 [ % # [ 6 6  .s.f x E ..f e 9.`.n.` W.W.H E+E+E+a.f +.E :#_#p.S.:#Y L w s.I %.M.0.k+k+k+o.^.e %.p J (#=#C.% ! _ _ - # + % * / . + [ 6   % [ % ",
"# + ~   ~ + [ % % * 6 6 *   F 1 $ 4 m :#m P E+A 0.W.W.,.F ..m ..!#E+^#)#{#~#%#=#c@/#^#)#:#=.v E P %.$+0 k+P+e _#B J Q s.$ % # # & # - ! 4 # # # [ # } * + _ 2 - ",
"$ + [ % $ % $ * # 3 _ ! 2 2 ! 2 _ ! =.(#<#n A E+P+` Q.W.^#E :#Q (#]#]#]#~#z d@~#Q+~#]#'#,#E E (#U B  .0.{.s a.l ..=.K S . + ! _ * ~ % % % [ % % . * * . % + # & ",
"[ * @ @ ~ + 6 F 8 # &   ) 2 , ! ! ! q X K U m B s 0.q 0 ..E )#<#[#^#e , ).}#}#|#}#4@].H :#1#[#:#w ..0 P+c B #.B ..Q C # % + # ! # & # # + . ~ @ . ` # 2 b _ & # ",
". _ ! 1 7 . % 1 j = - _ ] $ % % # # ] U Y Q v =.B c 0.d P B ^.R@S@$#^.%+}#2#}#}#2#}#3#$.{#p.^.%.U w M.c %.B B x L B.+.+ 6 @ ~ + % * @   % _ _ [ & & % # ; ) @ $ ",
"_ [ + # # . % ! - - # + # _ _ # # # & D Y Y L L +.s 0 A ..u ` Q.n.##*#4#*#*#^@S@####$#$#%#Y@$+$.=.+.%.u v E U w Q Y x [ + + + 4 $ % [ # _ - % ~   % * = + %     ",
"*   / ! % 8 1 # # * { { @ % % * ( # % ..X Y 5#K C +.x w +.B 9.Q.n.n.z@*###4#&#&#&#R@S@R@k+P+^.M C K +.J J Q K W W U s.. + } [ ! # # # # + % % % # 2 4 [ ! _ + . ",
"~ % + & % ~   * [ [ [ [ ( 4 4 ( ( 4 ( n U D 6#X X X J w p w 0.z.n.9.q q t.t.R@;#;#;#$+0.c ^.$.v T J X X 6#W X X 7#C B * [ * % # b # + % * ~ & b 2 [ % [ [ 6 { 1 ",
"2 - # # 2 ; # @ % % % }  .` / . 6 / / 6 v 8#9#0#a#b#B.b#c#p c F x.@.e s a.p.$.s s s $.s M.c u U X b#a#6#W 6#B.X X s.# _ ! % + ! # & [ # # # ! _ ! . . [ + 6   6 ",
"2 _ 2 2 _ ! + % 3 ! } % 5 ` / . @ 1 1 1 @ W d#d#a#5#6#d#b#K h 0.9.R.s A ..u u s.a.a.s c _##.J Q a#a#6#6#6#a#d#a#d#R 2 2 # * . # * % % + # # # % . % ! # + b 3 % ",
"- _ ; 3 2 & # - ! % * . / ~ / . # * * $ % 0#0#9#e#a#d#f#7#c#p l ^.e s E+{#=._#P a.A A.c l M W X Q 7#f#g#a#0#9#b#6#[ 4 [ % . * . ~ % % ~ * # # $ @   * * ~ # !   ",
"! $ N   & Z & 7 {   } ! + / * } ! * * # - % a#8#h#d#8#6#i#7#T M #.h P !#s.%.$._#%.%.u p +.U a#a#6#0#6#9#d#8#a#6#a## # + % # [ * @ + ! % + _ _ % - $ # ; ! & & a ",
"; - ] $ - ; 2 ! + $ + # ! # ] [ = @ = % < < d#8#j#9#d#d#a#5#S x +.l E+A %._#s a.a.p x C T W 7#7#a#a#d#T a#d#9#W   ~ $ % ) % + # + 2 3 + ~ % * @ = ) ! # %   @ 6 ",
"& ) $ k#& 2 ; 2 ) $ % - _ _ - ( r.- % & 2 ; - a#d#7#d#6#d#a#C R U P #.c $._#a.a.A.w p K 7#5#i#c#a#6#6#d#6#d#0#) ~ { 7 $ _ ! + % ! _ # * * & 2 2 _ - - ! & + # 2 ",
"& < < + $ $ + ) # + $ + _ _ _ | ) + ) ~ * & ' & B.8#0#c#d#5#B.C T I $.s.s.P M x $.v l#7#T 5#d#6#6#9#e#9#6#9#1#2 #   = _ Z _ + + % # ! # # ! ! # , - - _ 2 ! # & ",
"- ; ; 2 ' + $ * - & ! # - # # 4 ! Z Z ! + & 2 ! ! a#0#9#d#d#a#7#C K s.v +.=.x B J J T c#i#a#6#R 9#a#e#d#d#9#Z - & & _ Z 3 ! # - 2 _ & * = ~ ! 3 2 _ _ 2 _ & * ~ ",
": # - _ _ , - 2 ) # 2 r.3 < % % ! ' + + ! V 2 ! + B.9#9#6#1#6#d#d#W c#K Q J w K T 7#a#a#9#9#i#d#a#9#9#9#0#' - & * # 2 - & + % & # - _ ! % + - r.; _ - - # + % # ",
"& + % % + + > , $ ) & # # # # _ ! ! ! - 2 3 2 2 - - 9#i#e#9#1#9#0#f#a#9#6#5#X 5#a#i#5#d#1#6#6#5#5#a#1#B.; + * $ & ! & % * % * 7 @ & Z r.; ! & % % + # ! & + & - ",
"% % % + $ ~ * + - + $ * % ] ( _ # } & [ ~ 7 { ~ $ ! - a#9#e#d#5#6#d#6#d#h#d#9#7#d#d#d#0#a#d#h#6#9#9#W   N N ) 2 3 _ ! # ! ! ~ N + _ 2 & % + # %   * + # & $ + & ",
"^ ~ [ - _ > - 2 ; - # - 3 _ # } % @ @ % ( # # # ; _ - + 9#9#j#0#e#e#9#5#e#1#6#e#d#6#9#9#9#0#6#9#1#W ; > & - 2 2 2 ! - 3 Z _ ! ! % ! - + [ - # * _ # + % * * & _ ",
"{ 7 @ # ! $ * , ; - - - ] 5 $ & _ - $ = $ , Z V , - ) 5 = 6#9#0#9#6#9#e#9#9#1#d#e#d#9#9#9#6#d#0#W # # ] % % ] # & - - , - , - ' < # : # %   * + % ] ] $ ] ] < - ",
"@ ~ * ! 3 2 - V - ! + ~ $ ] - _ - - _ , 2 ; - ' _ - - - , ; 9#d#a#e#9#d#h#9#d#e#1#9#9#e#8#1#0#2 _ _ _ ! # + # # , + = $ & - & = @ $ # % @ { ~ ! & & & # _ - - - ",
"< _ # % & $     ! , - ! , r.r._ - # $ $ $ ) ! 2 a $ % ) # 2 - & ~ e#e#9#9#9#e#e#9#8#1#e#& 3 V # - 2 - ! % ) + & 3 ' $ $ - ; 2 - _ : ~ ~ ~ *   @ ! # + # ! # + ~ ",
"% # % * $ ! ! , + T.! ! 2 _ ! $ # ! _ ; 2 # & , - ; 2 ! , r.Z - Z ! & % * ! ; _ Z r.r._ & + % + ! ! + + + + & ! ! # & + % & - 3 ~ * % & # # _ r.! # % * . . . * ",
"% 2 ! * ~ $ % + T.+ * ) + * % & ; ; ; 3 - ) $ ! $ & # $ ~ + & * & ~ + 3 2 # + $ % + ! - %   = % , + ) % ' 2 2 2 ! 2 2 ! $ * + - b # # 2 _ * ~ # * . % % % % # 4 ",
"j ~ $ % + + ! 2 ! + + ! _ & # 2 _ # % ~   @ * + ~ # - & % + + % - . % + ~ @ + 2 % ~ . # ! % . + #  .~ * + ! _ 2 ; ; _ _ ! & # ! % 7 7 % _ # % % @ * ! ! + + + ! ",
"< ; ; _ # + * + * * % + # # % % ^ $ # ' & + * * = % & ! # + % # + % 2 2 % * % # 2 # $ + # ! & + % $ % % + & & % # + $ % + % % $   % # + ~ @ ~ ~ N % , _ ' $ $ & ",
"# - & + + $ . ! 4 # / @ ~ } % ~ % # % * ~ + %  .% + [ # + + [ - 4 ! ! [ ~ + # + . % 6 7 @ . # + # < ; _ _ # # # [ & [ $ * 6 = ~   ) %   % _ _ 5 = ) - , & ) ! , "};
