/* XPM */
static char *c6d2e28df2a347b19b0d7669ca5631df0jx8q5wGyJwrPdSM[] = {
/* columns rows colors chars-per-pixel */
"80 80 254 2 ",
"   c #040303",
".  c #090707",
"X  c #0C0C0B",
"o  c #120D0B",
"O  c #13110E",
"+  c #1B130D",
"@  c #0F0F11",
"#  c #141314",
"$  c #1A1616",
"%  c #1C1A1A",
"&  c #24160C",
"*  c #24190E",
"=  c #291A0C",
"-  c #31170F",
";  c #251A13",
":  c #281C16",
">  c #221B1B",
",  c #27201B",
"<  c #2C221D",
"1  c #37241B",
"2  c #3D291A",
"3  c #1E1E21",
"4  c #241F23",
"5  c #2C2424",
"6  c #292728",
"7  c #352926",
"8  c #3C2C24",
"9  c #3B322C",
"0  c #2E2C31",
"q  c #3A3433",
"w  c #491810",
"e  c #482A18",
"r  c #522E19",
"t  c #683B16",
"y  c #6E3219",
"u  c #472B26",
"i  c #592A26",
"p  c #483529",
"a  c #573828",
"s  c #483A36",
"d  c #583C34",
"f  c #643928",
"g  c #77372E",
"h  c #673A32",
"j  c #6D431C",
"k  c #5B432B",
"l  c #4D4139",
"z  c #594539",
"x  c #664529",
"c  c #724B2E",
"v  c #664836",
"b  c #634B3C",
"n  c #774B3B",
"m  c #69533B",
"M  c #75563B",
"N  c #666633",
"B  c #3D3B4C",
"V  c #373950",
"C  c #3B3B50",
"Z  c #453C4C",
"A  c #503A4E",
"S  c #443C50",
"D  c #773D49",
"F  c #4C424A",
"G  c #584846",
"H  c #585348",
"J  c #45455C",
"K  c #4A475A",
"L  c #584D59",
"P  c #5C5458",
"I  c #664C47",
"U  c #6C4942",
"Y  c #704A4C",
"T  c #695548",
"R  c #785847",
"E  c #74544B",
"W  c #685956",
"Q  c #775A54",
"!  c #7B634A",
"~  c #796355",
"^  c #7D635A",
"/  c #695C62",
"(  c #786867",
")  c #97311E",
"_  c #D73D3B",
"`  c #E33F39",
"'  c #9D481A",
"]  c #885035",
"[  c #B3503B",
"{  c #976C3A",
"}  c #996939",
"|  c #A56E36",
" . c #B0713B",
".. c #E55636",
"X. c #972E43",
"o. c #A72D41",
"O. c #865947",
"+. c #91554C",
"@. c #845C55",
"#. c #AA5745",
"$. c #85674B",
"%. c #976B43",
"&. c #876657",
"*. c #8B6B5C",
"=. c #966959",
"-. c #907255",
";. c #98765A",
":. c #AB7156",
">. c #A7765C",
",. c #A25C69",
"<. c #896A65",
"1. c #976B64",
"2. c #887368",
"3. c #977567",
"4. c #9B7564",
"5. c #8D7475",
"6. c #AC686B",
"7. c #A37564",
"8. c #A77A68",
"9. c #B57D66",
"0. c #A67B73",
"q. c #B47C74",
"w. c #C36351",
"e. c #C77A79",
"r. c #ED931E",
"t. c #DA882C",
"y. c #D38F34",
"u. c #E28C25",
"i. c #EB9422",
"p. c #DCA239",
"a. c #EAA92D",
"s. c #EBAB2E",
"d. c #F2B22B",
"f. c #97855A",
"g. c #B18356",
"h. c #BA8557",
"j. c #9C8665",
"k. c #A68766",
"l. c #A48D6C",
"z. c #AC8E6C",
"x. c #B78469",
"c. c #BC8A6B",
"v. c #A4926C",
"b. c #AC936C",
"n. c #B5966C",
"m. c #AC8776",
"M. c #B78877",
"N. c #AC9574",
"B. c #AC9B74",
"V. c #A9977A",
"C. c #B49574",
"Z. c #B49B74",
"A. c #B99977",
"S. c #B49D7C",
"D. c #BC9D7C",
"F. c #ACA27C",
"G. c #B4A27C",
"H. c #BCA37C",
"J. c #BBA879",
"K. c #C58A69",
"L. c #C38C6D",
"P. c #CB8F6F",
"I. c #C38C73",
"U. c #C68979",
"Y. c #C89479",
"T. c #D49B78",
"R. c #C4A47C",
"E. c #C4AA7C",
"W. c #DBA37A",
"Q. c #E1A87B",
"!. c #B17D83",
"~. c #CA7D85",
"^. c #948284",
"/. c #B88B85",
"(. c #B18E8C",
"). c #B99A85",
"_. c #BC9695",
"`. c #B4A384",
"'. c #BCA584",
"]. c #BCAA84",
"[. c #B9A789",
"{. c #BCAC8C",
"}. c #BCAD90",
"|. c #AEACB1",
" X c #C98A86",
".X c #C89886",
"XX c #D59A86",
"oX c #C88E92",
"OX c #C69A96",
"+X c #D99895",
"@X c #E49991",
"#X c #C4A684",
"$X c #C4AB84",
"%X c #CAA887",
"&X c #C4AD8C",
"*X c #CCAE8C",
"=X c #D8A588",
"-X c #DCA58B",
";X c #C8B485",
":X c #C4B38C",
">X c #CCB38C",
",X c #D4B78C",
"<X c #CCA897",
"1X c #DAA896",
"2X c #C4B394",
"3X c #CCB494",
"4X c #CCBB94",
"5X c #C9B89B",
"6X c #D6B696",
"7X c #D4BA94",
"8X c #D4BD9C",
"9X c #E4AA86",
"0X c #E2AC8C",
"qX c #E7B18B",
"wX c #E3AC94",
"eX c #E8A998",
"rX c #E4B39B",
"tX c #EAB699",
"yX c #F2B69B",
"uX c #D09AA1",
"iX c #E99FAA",
"pX c #CCADAF",
"aX c #D4A8A4",
"sX c #DAB3A6",
"dX c #DDB9B6",
"fX c #E7AAAA",
"gX c #E7B6A7",
"hX c #EBBCAA",
"jX c #F4B9A7",
"kX c #E8B9B4",
"lX c #F5BBB6",
"zX c #CCC29C",
"xX c #D5C29B",
"cX c #EDC09F",
"vX c #EFC1AA",
"bX c #F5C4AA",
"nX c #ECC3B8",
"mX c #F3C5B4",
"MX c #F7C6B9",
"NX c #F5CBBD",
"BX c #FBCCBD",
"VX c #FBD2BE",
"CX c #B3BBD0",
"ZX c #D5CECE",
"AX c #EACCCA",
"SX c #F3CAC4",
"DX c #FBCDC3",
"FX c #F8CAC9",
"GX c #FBD2C4",
"HX c #FAD6CB",
"JX c #FBD3CC",
"KX c #FDD6D3",
"LX c #FEDAD3",
"PX c #DCD6E0",
/* pixels */
"N.D.'.D.N.b.N.b.'.$X'.G.H.].S.b.B.G.].].'.G.:X4X'.'.{.2X{.S.`.&XG.H.G.B.b.N.Z.'.:X$Xb.k.G.J.G.$XS.B.G.$XH.N.b.D.n.A.H.%X>X>XE.H.E.>X;X#XH.H.E.H.$XR.H.$X,X>X>X$X",
"D.S.Z.S.H.H.S.z.N.Z.N.b.S.$X$X'.].G.B.'.3X7X&XG.G.S.'.&X&XH.'.2XH.$X&X*X&X&X4.;.-.M ! *.Q '.J.].'.G.H.'.J.S.Z.'.%X$XR.H.R.$X>X4XR.'.H.J.Z.Z.H.H.#XH.H.H.H.S.Z.Z.",
"H.'.H.C.C.H.&X>X&X>X&X$X$X:X>X&X:X>X2X:X:X:X{.$X'.'.'.$X'.S.Z.H.&X'.f.$.;.$.! M M M *.~ ! k p m G G.S.H.G.D.S.C.C.Z.D.#XH.D.'.H.#XH.H.H.H.H.Z.H.N.Z.Z.Z.N.z.b.Z.",
"S.H.#XS.Z.'.>X7X'.*X>X&X'.'.D.Z.Z.'.>XH.l.j.k.S.'.H.H.H.'.H.S.G.3.;.j.k.;.j.$.-.;.! &.~ Q ~ ~ s p z &X$X&X&X#XD.D.D.S.C.N.S.#X3XA.N.Z.H.#XZ.C.Z.H.'.#X$X'.H.'.*X",
"D.S.Z.H.&X>X&XD.l.C.S.D.D.H.H.S.:X>X:X> : = = = = = = = = = = l.Z.k.-.$.;.! ! M m m ! z G 9 l G s u u u = = = = = = ; : , S.'.&X$XH.H.#X$X'.H.#XH.H.'.'.'.S.Z.Z.",
"#X#XS.C.Z.D.H.S.R.'.#X'.R.'.*X3X$X$X$X> z ! $.$.$.$.$.$.M k.k.j.;.c ] c ! M k R k H u z W W 9 s 7 1 2 p T M M M M M M T , D.Z.b.3X$XH.S.D.'.$X>X&X&X#X&X$X#XD.S.",
"&X&X#XC.l.N.'.*X*X#X#XD.D.D.H.#X$X:X3X; R c.g.h.h.h.h.h.k.k.M M M ;.! x v l s < G G G G F F F s q 9 p 8 2 ~ { { { } { -.2 > >X>X'.'.S.b.b.Z.H.'.C.N.l.b.N.N.b.N.",
"$X#X'.H.$X*X$XH.S.A.S.D.D.R.'.#X#X'.Z.* R h.h.h.h.h.h.$.R ! -.v R M k p 2 s 9 q F s q F % L q F H 5 : p 1 p m | | | | { 2 > $XE.*X3X6X&X#X&X3X&X3X&X#X'.'.'.&X&X",
"b.b.C.'.&X>X&XH.H.A.Z.n.b.b.b.b.b.b.N.= R h.h.] ] ] -.! m T $.M m a T l p p F q G s s s 1 1 8 7 7 5 8 : 2 < 2 H j ] } { 2 > $X>X$X>X,X:XH.C.Z.H.H.'.&X>X*XD.Z.D.",
"#X'.H.'.$X&X$XH.&X$X#X'.H.'.$X$X$X$X'.* R h.h.t t k.! k m R 7.t M v M 3.Q T I Q W ^ <.E <.5.d s 5 9 < < : < p p t t } { 2 > $X$XZ.Z.C.D.$X>X>X>X&X&X*X&X$X*X&X*X",
"'.D.Z.Z.D.H.'.#Xl.l.z.b.S.H.&X*X2X:X&X; R h.h.t j.T z a O.c.:.O.x.%X6X%XD.XX<X<XsXdXdXdXkXsXOX(.0.W T W s 8 < 7 T t } { 2 > H.H.N.Z.H.H.Z.Z.D.H.C.C.N.z.b.S.#XH.",
"#XH.'.D.'.#X&X*X6X3X3X3X3X3X5X6X6X3X6X; R h.h.j.&.T b $.x.P.T.Y.0XjXbXvXmXNXGXNXSXMXmXmXhXgXgX1X-X.XM.m.3.^ 7 7 z N } { 2 % '.*XH.N.l.Z.>X8X3XH..X#XR.S.H.3X4X3X",
"3X>X3X&X$X'.H.H.S.).S.).H.).D.).'.$X&X; R h.h.j.T ! 8.W.9X9XqXqX0XyXbXmXmXmXVXJXSXBXMXbXmXgXjXwX0XXXT.Y.M.8.1.8 7 l } { 2 > A.Z.S.$X>X*XS.N.C.S.R.*X*X#X>X8X8X>X",
">X3X>X>X#XD.S.Z.N.C.S.S.H.'.'.H.Z.Z.G.; R h.;.T ^ .XQ.W.Q.Q.qXqXqXvXbXbXbXmXVXNXhXSXGXmXvXhXrXwXT.=XP.P.c.I.x.3.5 & 2.!.2 > C.N.C.b.N.S.#X$X'.S.Z.D.H.S.D.H.H.Z.",
"$X&X>X&X#X'.$X&X>X>X>X>X&X#XH.D.&X&X*X* R *.T I k.Q.Q.W.W.9X9XqXyXbXmXmXbXmXBXNXNXGXMXBXmXvXtXtX-X-XT.L.c.x.9.8.E ; s $.2 > &X&X'.&X*X$XS.S.D.$X&X>X&X&X#XH.S.Z.",
"N.C.Z.Z.Z.Z.'.*X'.R.$X$X%X$X;X>X3X7X3X* R -.z E qXQ.W.T.Q.9XqXtXbXmXVXGXHXLXLXGXnXDXGXGXNXNXhXgXrXwX=XY.L.x.9.9.8.Q s ~ @.> '.3XN.N.l.l.N.).'.&X:X&X$X'.Z.z.z.C.",
"G.].2X2X:X{.>XzX>XJ.H.H.H.H.H.R.S.H.&X& ;.! z %XQ.Q.Q.W.W.9XqXyXmXVXHXHXHXLXHXHXGXLXJXHXJXHXmXhXgXrX-XXXI.c.9.9.x.4.8 < m > ].`.$X>X>X$X$X$X>X7X;XH.Z.H.&X&XZ.j.",
":X:X>X4X4X8X8X8XxX7X>X'.D.A.#X>X&X&X$X& ;.T *.=XQ.Q.9XQ.9X=X0XyXbXmXBXVXHXKXKXHXKXHXJXJXJXKXJXMXwXwX-XXXL.x.9.x.x.8.E : z % 4XxX$XH.H.:X7X>X$XH.J.$X$X&X&X&X>XxX",
"S.H.'.H.'.H.H.G.N.N.N.N.N.N.C.S.'.H.`.& ~ T 4.T.W.T.W.9X9X=X9XtXwXtXmXNXGXHXNXkXSXBXNXNXmXnXgXsX1XXXXXY.I.c.x.9.9.7.=.1 : P C.S.&XH.Z.H.'.S.'.7X;X>X>X&X'.S.B.B.",
"&X*X>X*XR.S.D.H.&X'.#X&X*X&XD.N.Z.).&X$.~ ~ x.P.P.T.W.9X9XW.0X0X0XtXyXbXvXHXHXFXHXHXSXSXJXSXhX-X=X=XT.Y.I.c.c.9.>.>.7.a ; v Z.S.C.B.'.$X'.Z.D.$X$XH.N.l.l.N.G.].",
"D.D.D.Z.C.z.l.z.S.S.S.S.).).).S.N.B.'.;.T 4.x.P.K.T.T.W.W.=XwXwXtXtXjXbXtXBXHXJXLXJXKXFXSXnXgXgX-XT.P.P.L.c.9.c.>.7.=.T : m D.#XZ.Z.Z.S.H.'.S.b.k.b.H.'.'.'.2XxX",
"*X'.D.H.&X&XR.Z.l.D.*X&XH.S.'.&X>X&X$X$.W *.8.c.K.P.W.W.9XqXtXcXbXbXyXBXVXHXDXBXNXDXNXNXgXgXrXwX-X=XXXP.I.L.I.c.;.7.=.E 9 T #X>X&X&X'.N.Z.S.H.S.D.H.&X3X2X&X'.G.",
"#X'.H.#X&X*X&X'.C.$X>X#XZ.b.v.b.G.S.N.-.Q *.=.c.L.P.T.W.0XtXvXmXmXBXBXmXBXDXBXGXLXHXLXDXBXmXtXwXtXrXXX=XY.P.L.I.7.=.4.^ G b D.D.S.'.>X3X&XS.S.S.>XH.b.l.).&X&X{.",
"b.S.$X'.Z.C.G.E..XA.b.b.Z.$X$X$X'.#XZ.~ ^ &.=.x.K.P.W.0X0XtXmXmXVXVXGXGXDXBXGXNXLXHXFXLXJXhXhXgXmXvXrX1XXXP.I.c.>.=.4.^ I z S.Z.'.N.N.'.'.'.D.'.b.B.'.[.&X{.'.`.",
"&XH.N.S.&X>X&X'.H.S.Z.B.S.H.2X8X&X&X&XT ~ &.7.>.K.L.=X-XwXrXgXNXmXGXJXKXLXJXLXLXLXLXLXJXKXFXFXMXSXkXgX1X1XY.Y.c.7.4.3.^ I z 2X&X&X&X#XS.l.l.N.S.G.G.G.G.G.].G.N.",
"3X&X'.H.'.S.Z.N.G.S.N.z.l.l.S.$X$XS.b.I ^ *.>.9.c.I.T.=XrXrX6XsXsXkXSXJXHXSXKXKXLXLXKXJXJXJXSXSXkXkXaX.X.XY.Y.x.7.;.=.^ T z >X].&X&X&XG.S.].&X>X:X:X$X&X&X:X:X>X",
"l.N.S.'.G.'.$X&X#X'.H.S.Z.S.$X5X&XS.l.z ~ *.x.x.c.Y.=X>.7.k.m.0.&.*./.<XnXkXNXJXJXJXSXnXSXSXAXdXaX<XOXOX<XOXA.M.4.8.<.~ I s G.S.&X$X'.S.'.&X&X].$XD.Z.S.Z.N.C.S.",
"S.#X&X&X#X'.&X>X8X3X:X&X'.G.'.&X3X&XG.m ~ 4.c.L.I..Xx.8.=.Q E I z v d R /.OXdXnXnXNXgXnXsXsX/.@.Y I E &.*.4./.M.;.4.3.~ I l &X:X'.'.'.'.'.'.'.#X&XH.S.'.#XZ.N.Z.",
"l.N.Z.G.'.$X&X3X&X&X$X&X>X3X&X>X&X'.$XQ &.k.I.L.Y.>.7.m.m.1.&.U f a a f O.0.M.gXhXgX1X<X/.0.Y d u a z G I b R *.4.7.3.*.T s {.'.v.l.N.$X'.N.S.&X$XS.C.H.&X'.H.'.",
"&X#X'.'.'.S.N.z.l.j.j.N.H.'.'.'.H.G.'.2.&.k.I.L.c.7.M.0.O.n f <.f w r n O.O.8.1XnXnX-Xm.=.O.v i u x b <.Q E U Q 3.7.3.<.~ G H.`.C.N.S.&X].S.G.>X8X:X].*X>X3X3X7X",
"'.$X&X3X7X8X3X&X>X&X'.&X&X&X$X'.&X&X'.2.3.z.I.c.z.M.8.] e =.h 1 u z v r x n =.1XGXNX.X=.n c h - u ^ 5.h *.3.1.3.3.8.8.2.T T 3X4X5X3X&X&X>X3X3X3X].].'.G.G.H.G.'.",
"'.'.&X3X7X3X#XS.N.k.l.N.S.'.#X&X&XVX[.*.*.8.c.I.x.8.] r f / s + : G @.O.] O.m.rXBXvX=X@.h f i d & CX+ a *.r =.1.*.4.8.3.E ( S.S.&X&XZ.l.V.3X&XS.G.$X3X:X&X&X:X:X",
"l.N.H.$X&X$X&X&XJ.$X$XE.$X;X>X>X0XXXjX;.*.x.c.c.g.%.O.=.O.(.2.c M ^.(.O.M.=X3X=XbXjXY.3.<.n h !.z < a ( d a c =.4.8.8.*.^ 2.&X'.N.B.B.Z.'.:X4X2X:X>XG.'.$X'.G.k.",
"#XH.G.D.G.$X&X>X6X4X7X>X>X>X].H.#.[ 9.M.*.x.L.T.=X=X-XT.U.OX_.dXpXaXOXsXkX<X1X=XjXjXXX/._.OX(.(.pX5.( ^.1.h O.O.=.7.8.&.^ ^.&X&X>X$XS.l.l.B.`.].$X].N.N.H.$X4X&X",
"&XH.b.l.b.Z.S.G.b.N.b.N.S.$X$X$Xw.' :.+.1.c.XX0X9X0XtX1X=X.X X+X.XU.q.aXaXrX-X=XjXjXXXM./._./.q./._._././.4.7.7.+.8.8.&.^ OX.XU._.$X&X$X&X>X>X3X$X3X$X:X3X].'.b.",
"8X:X#X'.].&X$X'.*X>X3X>X3X7X7X4XU.w.XX:.R x.Y.-X9XyXtX1X=XY.Y..XOXaXpXkXrXwX0X-XjXlXXX8..X_.<X_.=.7.8.6.=.q.M..XU.8.4.&.&.aX Xe.e.Z.#X*X$XS.z.j.&X:XH.'.G.Z.'.H.",
"$X$X].$X$X'.H.S.l.Z.#XH.S.b.l.l.eXXXjX-X$.9.Y.9XeXyXjXjXhXhXnXAXAXnXmXhX9X0X-X-XjXBXXXq.x. XsXdXdXdXdXsX<X1XXXY.Y.x.4.&.4.] ] ) #.>X3X&X#XH.D.H.l.H.&X4X*XS.Z.N.",
"&X&X*X&X&X$X&X$XS.&X&X{.H.'.*X3XhXfX+XP.>.>.Y.9XeXjXjXjXjXbXjXlXmXMXMXeX=XwX=XwXjXGX1XM.x.I.kXkXkXkXnXgXhXrXXX0XXXM.8.&.+.+.q.) ~.].S.Z.Z.S.$X3X8X7X&X].Z.l.G.$X",
"H.H.H.H.H.S.S.Z.'.H.D.N.j.l.S.'.gX+X+X:.O.>.Y.T.eXeXjXlXMXDXDXFXDXhXjX0X=XwX1X0XjXLXeXM.q.U.gXkXlXMXhXjXeXeXeX+XXXM.0.1.=.OXaX6.oX$X`.H.G.S.H.'.].&X$X>X3X].&X$X",
"$X].&X&X&X$X'.D.'.&X3X&X&X&X$X&X1XkXfXO.R >.U.XX9XyXjXMXDXFXFXKXJXDXyX0XXX1XwXtXmXKXsXq.q.U.sXkXFXJXFXlXjXyX@XXX Xq.0.Q @.OXaXq.~.:X].{.&X].H.].$X].Z.].&X].$X'.",
"4X].Z.B.N.j.v.`.H.&XS.j.k.G.&X&XXXlXeXm.v 8.M.U.0XeXjXlXlXDXFXKXKXDXjX=XXX1XgXwXDXKXgX/./.M.gXNXFXFXKXMXlXeX@XXXU.M.8.Q @./.OXoX/.G.H.;X>X$XH.H.H.H.H.H.H.$X&X$X",
"H.H.:X3X>X&X[.'.&X#X'.&X&X'.S.&X.XgXOX=.$.>.8.U.wXeXeXjXjXMXDXFXSXMXgXY.rX-XwXwXMXnXfX/./.0.aXkXFXFXFXlXlXeX@X XU.q.7.v Q OXuXoX(.b.Z.&X>X&XR.'.$X;X>X7X7X*X'.H.",
"&X&X$X'.`.&X>X3XB.N.b.H.'.N.l.'.sXU.lXa R ;.9.I.XX1XwXeXjXjXlXSXMXhX1XI.U.=.=.I.1X+Xq.7.=.7.<XkXkXFXkXgXfX+X+X XU.q.4.I E uXuX!.z.b.S.$X*XH.H.'.$X$X>X$X'.'.H.'.",
">X3X6X3X>X3X&X&X#X:X3X&X3X7X7X7X}.aX1Xa k =.8.x.I.XXXX0XeXeXhXlXhXrXtXP.n w r i O.Q n w g =./.OXgXfXkXhXeXXX X Xq.0.*.a U (.+X X&X&X>X4X>X&X$X&X#XH.G.Z.Z.Z.#X&X",
"S.N.S.'.G.N.N.Z.N.&X&XD.'.&X&XS.5XeXU.d a &.x.9.M.U.Y.-X1XrXgX1X1XrXtXT.:.g R v d d h y f 7././..X1X+XXXq. XM.q.q.4.&.p p OX+./.3X6X>X&X'.S.H.'.H.#X$X$X:X*X$X].",
"3X'.'.$X'.C.Z.$XN.S.Z.N.S.S.S.#XH.1X1Xs k &.8.M.M.I.-X1X1XrX1X=X-XtXtXwXM.&.&.x 1 - 1 2 @.0.)..XM..X.XoXM.M.q.+.1.&.&.7 u uXOX(.&X&X$X'.Z.B.S.H.&X$X&X>X3X;X$XG.",
"S.S.'.&X$XS.b.b.'.S.v.N.Z.N.S.3X8X Xq.k ~ R =.M.8.Y.XX=X=X.X=X-XtX6X-XY.8.b d a : ; : 9 d 1./._..X0.q.q.M.M.8.4.=.@.@.s U OXoX:XH.'.&X$X'.#X'.'.&X&X'.H.H.R.H.E.",
"C.S.C.z.N.H.*X>X$X3X3X&X3X&X#X&X$X1.+.v 8 v &.9.M.Y.=X1X=X=X=XY.C.8.0.$.v T I u r d 7 7 a z *.0.m.m.7.0.M.M.0.=.=.R E p p oXq.S.j.l.N.S.S.S.N.N.H.H.#X'.H.$X$X>X",
"G.G.].2X3X:X:X:X$XZ.H.$XG.H.:X&XJ.Y R z u a M =.M.Y..X.X*X=XO.n n n Q M l r e @.1.7.e : 8 p I Q E 4.m.M.M.m.0.0.=.E G s 1 q.^.&X$X&X>X&XH.S.C.C.].S.Z.S.H.D.N.z.",
"$XS.v.N.H.].&X].H.Z.$XJ.Z.Z.].'.J.G.Z.k e k v n R m.=X=X6Xk.a k a U n f i h g ,.q.,.O.f i e d a u v E /.M.M.8.*.@.b s 1 I % #X&XG.H.$XH.S.C.b.n.].H.S.Z.C.Z.D.R.",
"'.G.].&X&X].&X&XR.$X>X%XZ.D.#X#XH.$X3Xd - & r R n 7..X%X*Xf u e - w i y y g | +.g ] y y i w u u 1 u b ).m.OX&.Q ^ a d 7 F % v.b.].$X&X$X$XH.#X'.Z.H.S.l.k.N.D.H.",
"l.S.$X:X].H.G.H.R.R.#X#XZ.C.S.D.$X].].& 1 7 8 z U -.m.%XA.a u i - & f -.2XsXZXZXpXZX_.(.O.e . o e p a M.7.3.b ^ v a < 9 2 % $X3X].$X$X$XH.H.D.D.$X3X>XH.D.'.*X&X",
"3X$X'.$X>X4X4X3X*X#XH.$X#XC.C.).G.'.'.& 8 : < s k b 3.m.;.v b 0. Xe.~.0.AXPXPXZXPXPXZX|.<.h 1.0.E 8 p 3.3.E v v z 1 + l 2 % H.&X>X>X:X$X'.H.S.A.D.'.#XC.N.H.#XH.",
"$X'.Z.N.Z.'.#XH.H.S.C.C.S.N.k.z.G.*X8X* l ; : 1 2 z &.V.R a Q .X=XXX+X@XiX@X@Xw.e.+X+X~.~.6.0./.<.l z E Q s u 8 p < ; z 2 % $X$X].$X:X&X*X$X$X$X#X$XR.S.'.>X3X:X",
"G.'.#XH.G.H.G.S.$X7X>X&X3X3X&X3X>X&X'.* a 5 ; 5 7 9 z z p z b M.=X.XXXwX@X+XiXlXiXiX X~. XM.8.0.T 9 7 l s s < 7 > > 8 T 2 % &X>XS.Z.H.H.H.#XH.H.D.S.S.D.H.'.$X].",
"#XS.b.b.Z.'.C.k.j.$X].N.`.3X2X&X&X&X&X* u 8 l $ 6 6 5 s p F p M.I..XM.%XOX.X.X XoXoXoX/.m.3.0.<.s q s 5 5 $ > 5 6 6 9 b 2 % $X&X$X].$X$X'.D.Z.b.D..X$X3X6X>X].$X",
"D.>X&Xz.l.D.H.z.f.B.:X>XJ.G.H.H.$X$XJ.* b d o @ O % , + , 0 G 3.x.Y.8.=.&.Q 1.<.&.&.&.<.*.1.3.Q 8 5 , % % > $ + 6 5 I %.2 % Z.'.H.S.b.N.H.>X>X#X].].H.$X4X`.b.G.",
">X#X'.$X$XD.H.&X:X:X$X'.$X>X>X$X$X$X].* v } > # # % 5 $ # , 5 *.m.M.>.$.R a Q E U Q E &.3.@.^ s < % % $ $ $ % # % # H { 2 % '.*XG.H.#X$X>X:XH.Z.N.H.S.B.'.H.N.N.",
"S.N.A.&XH.j.z.$X$XS.k.k.b.H.H.S.%X$XH.; v } O O X   % # @ 0 0 G ^ 0.=.&.v d z @.v Q R 1.3.^ T > 5 < 0 @ 4 % O X 5 $ } { 2 % #X&X$X$X$X$X'.H.H.H.$X3X*X#X&X>X'.D.",
"Z.H.'.].H.Z.N.S.#X#X#X#X%X*X*X%X%X*X%X; v } | % @ @ # O $ 3 6 q T ^ *.v R U E <.@.E E Q G l 8 % % $ O $ X # o % $ % } %.2 % H.$X6X$X'.H.S.Z.].6X3X#XH.#X#XC.k.z.",
"3X:X$X$X3X4X$Xb.H.H.H.R.)..XA.D.C.A.C.5 I T O.# @ B X # # % 5 F z z ~ n E E @.&.Q Q G z 9 9 > 6 0 % $ # q % O X > Q Q ~ 9 6 '.&X$X].#X$X$X$X&X>X&XD.D.#X'.C.N.C.",
"3X>X3X3X>X&X'.H.7X&XR.H.J..XA.D.b.j.L J &.s.p.G % # 6 # $ # % 9 L 8 v ^ 3.<.@.Q Q 2.p G 7 0 6 3 0 % $ $ # $ + O &.s.s.p.K S D.$XS.H.H.'.$X$X$XH.D.H.&X$X'.6X7XH.",
":X>X4X7X3X].$X:X&XH.S.D.A.Z.A.D.$XV.K J &.d.p.E Y + @ O 0 # 5 + 9 q W 2.U Y v Y z <.s Z 0 l 6 # $ $ X   X $ X . -.d.d.p.K J S.D.Z.H.H.Z.S.$X$XG.b.N.S.S.Z.$X&XN.",
"&XG.v.N.].8X].l.k.N.R.&X'.A.S.R.&XV.K J &.d.s.i.i.t.% O X # @ % 7 9 0 I p z d z b s s q 0 3 % $ K X %   # # X u.i.d.d.p.K J #XS.b.'.&XH.'.>X>XH.:XG.$X4X&X].].S.",
"4X:XJ.G.:X4X3X&X'.G.'.$X&X$XJ.#XB.j.K J &.d.d.r.r.t.+ X X $ . $ # # > 0 7 < s p 7 q 6 $ % X X 3 # % X X X O r.r.i.d.d.p.K J '.$X'.3X7X'.Z.H.S.b.B.`.&X$XH.N.b.C.",
"].`.G.F.].3X4X3X`.G.H.:X>X>X:X%XxX`./ J &.p.p.t.t.y.S X 3   X . X O @ % o $ 5 6 5 % > 6 # X $ % 6 6 %   + E t.t.t.s.s.p.K C '.H.&X>X$XS.S.].3X3X>X:X:X&X].'.$X3X",
"].;X;X'.G.G.'.`.$X'.G.'.>X>X>X,X`.'.`.> I P L F F F C C % X   # 6 # @ $ # @ # X 6 # $ # O % # @ $ X X > C C F F F L L W 8 4 '.'.H.$X&X$X$X&X&X$X2X:X:X>X3X&X$X].",
":X4X4X3X{.'.G.S.:X].&X$X:X$X$X*X&X8X8X* b K J C C C C C Z X X B @     X 6   . $   # $ X . X O $ X . > C C C C C C J J L 2 > $X:X3X>X].S.B.Z.&X7X3X>X>X3X>X].S.Z.",
"E.$X:X>X>X2X:X3X`.$X3XxX7X;XH.H.&X{.'.* b L L Z Z Z C C A X.+ X O X $ X   X X . #   # X X X # @ O > D C C S F Z Z K L W 2 > H.].$X:X>X&XH.'.:XxX4X>X:X:X$X'.H.$X",
"].'.H.H.'.'.{.2XG.`.].$X$X$X$X>X&X&X&X* v { | t t M C C D ` ` X # %   X # @ X #   . X X   o . O ` ` _ Z C G } j t t } %.2 > S.l.b.].8XxX4X&X].H.H.'.$X&X].'.].:X",
"H.H.H.'.G.Z.S.'.:X'.G.S.H.J.%X>X$XR.].* v } | t t M C V D ` ` _ o.o.    X X X     X o .   X.o.o.` ` _ S C G } j t t } { 2 > Z.v.'.>X3X].H.'.$XH.N.S.'.$X].G.'.].",
"n.Z.#X:X>X{.:X3X4X:X$X:X7X>X$XR.H.b.b.* v { | t t M C V Y ......[ [ #.D D C C C C C A D O.#.[ [ ...._ S C G } j t t { %.2 > &X&XH.&X:X'.#X:X$XS.>X$X'.H.S.S.].>X",
"k.l.b.$X&XG.S.2X4X:X:X:XJ.G.G.].>X:XG.+ m ;.%.t j M C V ! s.d.s.i.i.u.#.#.K J J K J W #. .s.s.s.i.r.t.S C G %.x x j %.-.2 > :X{.;X$XE.$XH.N.S.'.H.J.J.G.J.J.;X:X",
"b.Z.S.&X7X3X:X5X:X&X'.Z.G.J.:X>X:X:X>X, p k x e e s C C $.d.d.d.r.r.u.[ #.K K J K J W #. .s.d.d.r.r.t.Z C Z k e e e k k 1 > ].B.b.G.$XH.b.k.Z.&X].].].$X>X:X:X:X",
";X>X$XH.].G.N.N.&X2X:X&X2XxXxX>X:X$XG., ; + & ; ; 6 C C R s.s.s.u.u.t.#.+.J J J J J L #. .p.s.s.u.u.t.S C V * $ ; * = ; > > 3X:X>XE.Z.Z.Z.S.N.b.&X$X'.$X&X$X'.Z.",
"H.$XH.S.G.&X&X2X'.[.&X&X3X>X&XG.$X&X>X4X3X$X].2X:X[.C C F R M M n n U Z W {.3X>X6X8X{.S F R M M n n U C C W ].&X&X$X].'.H.].:X7XZ.S.H.].$X$X>XxX&X$XH.S.D.D.D.S.",
"H.3X&XS.Z.G.H.'.[.'.S.`.'.S.H.].4X4X4X7X:X`.G.&XG.S.W P P U U U U U I W 2.$X'.G.H.'.`.W P U U U U U I P P 2.3X3X&X3X3X&XG.S.'.:X6X$X$X3X>XS.Z.$XS.D.H.H.H.H.$X*X",
"f.Z.G.H.'.'.&X3X&X'.'.&X>X].$X3X>X$XH.Z.N.b.S.'.Z.$X&X'.N.S C C C C W `.C.b.'.3XH.Z.D.#X).K C C C C W V.'.&X>X3X4X4X>X>X&X].$X&XH.l.l.H.>X$XH.H.b.S.&X&X'.'.'.&X",
";X4X4X>X$X'.S.'.S.S.H.'.$X$XH.H.n.G.$X{.].'.S.S.B.H.].&XS.C C C C C / 3XH.S.H.$X3X$XG.'.S.K C C C C W H.'.].].H.$X'.G.H.'.H.H.G.N.H.$X'.Z.b.Z.Z.V.H.2X>X{.G.G.].",
"$X:X].'.'.G.D.&X*X$XA.b.Z.R.H.Z.H.$XH.S.Z.'.H.).H.'.#X$XV.P P W W P ( #XZ.'.$X'.D.H.C.l.l./ P P P P 2.>X>X$X$X$X#X].#XG.S.C.B.Z.N.`.H.N.H.>X>XJ.B.`.:X2X].`.&X2X"
};
