/* XPM */
static char *_3daa4b9f7ae48bbd6a2a69e9a57eaa1AmcPTJ5H1YwNCCEC[] = {
/* columns rows colors chars-per-pixel */
"80 80 192 2 ",
"   c #1F160C",
".  c #1F1808",
"X  c #1E1812",
"o  c #1E1A19",
"O  c #24160E",
"+  c #24190E",
"@  c #281A0D",
"#  c #251813",
"$  c #251A12",
"%  c #211A1A",
"&  c #28201C",
"*  c #3A2619",
"=  c #3D2919",
"-  c #4A2E16",
";  c #48321A",
":  c #713A0F",
">  c #673B13",
",  c #6A3C13",
"<  c #683916",
"1  c #6A3C19",
"2  c #723D12",
"3  c #453826",
"4  c #694119",
"5  c #6D411C",
"6  c #70431A",
"7  c #77471B",
"8  c #5C4328",
"9  c #634121",
"0  c #6C4827",
"q  c #7D4B21",
"w  c #674F33",
"e  c #694D34",
"r  c #754B3F",
"t  c #68553E",
"y  c #71563B",
"u  c #73583B",
"i  c #2D2D43",
"p  c #323653",
"a  c #353A50",
"s  c #3A3A50",
"d  c #6F3847",
"f  c #61394A",
"g  c #6B3848",
"h  c #7A3446",
"j  c #3D495F",
"k  c #5F4C45",
"l  c #47465E",
"z  c #4B455D",
"x  c #4B4B5F",
"c  c #724A40",
"v  c #6C5645",
"b  c #615348",
"n  c #755E44",
"m  c #795C46",
"M  c #7E644D",
"N  c #56556B",
"B  c #AB3938",
"V  c #E63F38",
"C  c #80501C",
"Z  c #864F24",
"A  c #87512A",
"S  c #B35E3F",
"D  c #9C682E",
"F  c #8D693C",
"G  c #976536",
"H  c #9A6635",
"J  c #956B3E",
"K  c #9B6C3C",
"L  c #9E703C",
"P  c #A56E35",
"I  c #A56F39",
"U  c #B7603E",
"Y  c #A67035",
"T  c #DE7110",
"R  c #E64038",
"E  c #8F2F44",
"W  c #962C43",
"Q  c #9E2B42",
"!  c #AF2D43",
"~  c #B02D43",
"^  c #BF2B4A",
"/  c #A73044",
"(  c #C72849",
")  c #CB2A4A",
"_  c #D42C4A",
"`  c #CE3346",
"'  c #D93246",
"]  c #DB3946",
"[  c #E53645",
"{  c #E63846",
"}  c #EA3B46",
"|  c #E23C48",
" . c #895845",
".. c #816347",
"X. c #85694E",
"o. c #966B43",
"O. c #986A41",
"+. c #99764E",
"@. c #A37444",
"#. c #BC7F4D",
"$. c #D84846",
"%. c #EB4E45",
"&. c #EC4148",
"*. c #E95245",
"=. c #F15749",
"-. c #FA564D",
";. c #FB584D",
":. c #E25653",
">. c #EA6146",
",. c #EC6648",
"<. c #F96B46",
"1. c #FC6457",
"2. c #FD685A",
"3. c #ED931E",
"4. c #ED981C",
"5. c #F2991C",
"6. c #F1B12B",
"7. c #F5B92A",
"8. c #FEBA28",
"9. c #F7D139",
"0. c #FBDD38",
"q. c #98845C",
"w. c #BE824E",
"e. c #BC8251",
"r. c #B58459",
"t. c #B98559",
"y. c #BB895C",
"u. c #9C8664",
"i. c #9C8A64",
"p. c #A48664",
"a. c #A48C64",
"s. c #AC8E64",
"d. c #A48D6C",
"f. c #AC8E6C",
"g. c #B48E6C",
"h. c #A4926C",
"j. c #AC936C",
"k. c #B5976C",
"l. c #AC8E74",
"z. c #AC9574",
"x. c #AC9B74",
"c. c #AA987A",
"v. c #B49574",
"b. c #B49B74",
"n. c #BC9C74",
"m. c #B4967C",
"M. c #B49D7C",
"N. c #BC9E7C",
"B. c #ACA27C",
"V. c #B4A274",
"C. c #BCA674",
"Z. c #B4A27C",
"A. c #BCA37C",
"S. c #BCAA7C",
"D. c #FF8575",
"F. c #FF8A78",
"G. c #C4A57C",
"H. c #C4AA7C",
"J. c #FFE57A",
"K. c #B99E84",
"L. c #B4A484",
"P. c #BCA584",
"I. c #BCAA84",
"U. c #B7A789",
"Y. c #BCAC8C",
"T. c #BCB28C",
"R. c #C49E84",
"E. c #C4A684",
"W. c #C4AB84",
"Q. c #CCAC84",
"!. c #C4A68C",
"~. c #C4AD8C",
"^. c #CCAE8C",
"/. c #C4B284",
"(. c #C4B28C",
"). c #CCB789",
"_. c #CCB38C",
"`. c #D4B48C",
"'. c #D4BA8C",
"]. c #CAAE94",
"[. c #C4B394",
"{. c #CCB594",
"}. c #CCBB94",
"|. c #C8B898",
" X c #CCBC9C",
".X c #D4B694",
"XX c #D4BB94",
"oX c #D4B69C",
"OX c #D4BC9C",
"+X c #CCC29C",
"@X c #D5C39B",
"#X c #FFF59A",
/* pixels */
"~.(.~.(._.}.XX{._.~.~.W.~._.~.A.P.W.~.W.Z.~.{.}._.P.N.z.P._.~.P.I.~.~._.}._.W.~.E.A.b.b.b.E.~.W.W.Z.z.x.P.{.~.~.z.d.M.[._..X{._.{.~.E.(.{.~.XXXXXXOX~.~.{.{.{.~.",
"N.P._.~.W.~.I.W.~._.}.}._.(._.~.W.~.W.{.(.I.I.W.P.A.A.P.(._.Z.M.W.{..X_.~.P.A.P.A.E.W.(.^.W.I.A.A.W.~.~.OX~.Y.P.M.x.P.oXM.M.P.Z.z.b.z.~.~.N.~.~.M.M.b.M.b.M.M.b.",
"~.~._.^.I.E.P.A.P._.{.~.P.b.b._.I.Z.b.A.{.I.P.(.A.M.A.(.W.M.z.z.M.~.~.W.P.b.M.A.~.W._.{./.W.V.j.d.b.P.A.d.z.~.{.(.{._.P.{.P.W.P.v.W.z.M.b.z.M.M.E.A.~.W.P.N.A.A.",
"p.b.M.M.A.W.~._.P.b.z.M.A.~.P.~.~.W.I.~.I.I.(._.A.M.v.{.~._.(.W.~.A.s s s s s s s s s s s s H.W.W.W.(.{.E.Z.W.W.z.A.I.A.m.P.~.W.M.j.P.M.h.z.z.M.{.OXd.f.~.{.P.d.",
"/.A.A.I.E.A._.P.W.W.~.W.P.P.A.A.A.W.W.% % @ @ @ @ @ @ @ @ @ @ @ @ @ s s s s s s s s s s s s @ @ @ @ @ @ @ @ @ @ @ @ $ $ & I.[.{.(.(.W.b.A.W.A.(.~.C.(.}.{.(./.E.",
"W.E.~._.W.A.P.W.(._.P.h.b.W.^.E.A.P.E.% k M ............u u u X.u y a a a a a a a a a a a a y y y y y y y y y y y y y v & h.z.A.I.I.A.b.W.S.b.I.P.S.b.~. X@X}.Z.",
"Z.W._.W.P.Z._.~.W.A.A.N.A.P.N.b.b.b.b.$ n g.r.t.y.y.y.y.s s s g g g -.-.-.-.-.-.-.-.-.{ { { g g g s s s L L L L L K L +.= % ~.~.I.~.G.W._.Q.N.E.E.A.{.(.P.M.V.W.",
"W.A.b.j.d.a.P.`.~.W.W.W.A.b.b.E.W.W.^.@ n y.w.#.e.e.e.e.s s s g g g -.-.-.-.-.-.-.-.-.{ { { g g g s s s I I I I I P Y J = % (.I.A.A.G.G.E.E.v.M.N.W.I.~.~.~.W.A.",
"W.W.P.P.W.A.P.j.b.A.W._.XXXX^.W.A.A.A.@ n r.e.Z A A A A s s s g g g -.-.-.-.-.-.-.-.-.{ { { g g g s s s q q q 7 7 C D F = % z.b.P.A.A.M.v.v.l.p.f.Z.OX~.l.p.z.W.",
"^.~.W.W.W.W._.XX{._._.(.W.A._.W.E.E.A.@ m t.e.< < s s s Q Q Q -.-.-.D.D.D.2.2.2.{ { { ' ' ' ) ) ) Q Q Q s s s 1 < 2 H O.= o A.Z.A.M.W.XX_.~.{.~.{._.P.P.~.~.~._.",
"b.W._.{.W.M.z.A._.OXXXW.W._.P.A.W.~.^.$ m t.w.< 1 s s s Q Q Q -.-.-.D.D.D.2.2.2.{ { { ' ' ' ) ) ) Q Q Q s s s 5 1 2 H J = % j.b.P.p.u.W.I.z.{.[.~.~.!.M.l.d.z.W.",
"c.~.S.A.A.E..X`._.W.M.z.N.A.P.A.E.P.P.$ m t.e.< 1 a a a W W W -.-.-.D.D.D.2.2.2.[ [ [ ' ' ' ) ) ) W Q W a a a 6 1 : H J * o f.d.N.f.q.x.(._.Z.A.A.W.S.P.b.j.z./.",
"_.W.S.E.A.E.].d.j.M.G.W.^._._.z.b.W._.$ m t.s s s Q Q Q ' ' ' D.D.D.2.2.2.2.2.2.-.-.-.{ { { ) ) ) ) ) ) Q Q Q s s s H J = % W.W.N.~.(.(.W.P._._.W.W.I.A.A.P.~.W.",
"N.v.k.A.W.{.(.(.W.E.A.W.^.W.v.W.~.N.j.$ m t.s s s Q Q Q ' ' ' D.D.D.2.2.2.2.2.2.-.-.-.{ { { ) ) ) ) ) ) Q Q Q s s s H J = % I.A.b.M.E.E.E.E.^.^.Q.Q.Q.N.N.G.E.k.",
"^.Q.E.Q._.{.L.W.E.A.~._.~.G.P.A.N.M.N.$ m t.s s s Q Q Q ' ' ' D.D.D.2.2.2.2.2.2.-.-.-.{ { { ) ) ) ) ) ) Q Q Q s s s H J = % W.{.}.j.A.A.A.G.R.n.N.v.n.v.b.E.^.`.",
"`.v.j.z.A.P.M._.W.E.A.A.A.M.~.~.~.P.A.g g g l l l ) ) ) { { { 2.2.2.2.2.2.-.-.-.-.-.-.-.-.-.{ { { ) ) ) ) ) ) l l l g g g % {._.~.A.XX~.G.A.R.n.N.j.f.s.j.n.Q.k.",
"(.W.H.A.b.j.p.E.A.b.v.E.~._.n.W.^.A.b.g g g l l l ) ) ) { { { 2.2.2.2.2.2.-.-.-.-.-.-.-.-.-.{ { { ) ) ) ) ) ) l l l g g g % XX{.I.(.~.A.M.N.b.n.N.W.M.Z.A.A.S.W.",
"I.E.W.~.I.P.I.}.P.A.~.A.M.A.A.z.E.^.A.f f f z z z ) ) ) } } } 1.1.1.1.1.1.-.-.-.-.-.-.-.-.-.} } } ) ) ) ) ) ) z z z f f f % Z.(.}.~.P.Z.P.W.W.S.E.x.x.A././.(.P.",
"A.d.d.x.P.(.~._.W.P.I.A.P.{.{.z.g g g s s s g g g ) ) ) -.-.-.-.-.-.-.-.-.-.-.-.-.-.-.-.-.-.-.-.-.' ' ' ) ) ) g g g s s s g g g {.{.L.Z.A.(._.(.Q.@XA.I.{.}.(.j.",
"I.{._.~.E.A.~.(.~.A.W.XX_.I._._.g g g s s s g g g ) ) ) -.-.-.-.-.-.-.-.-.-.-.-.-.-.-.-.-.-.-.-.-.' ' ' ) ) ) g g g s s s g g g Z.L.W.P.Z.P._._.'.L.L.b.M.I.Y._.",
"~._.{.I.b.x._.P.A.M.Z.}.~.x.I.b.g g g s s s g g g ) ) ) -.-.-.-.-.-.-.-.-.-.-.-.-.-.-.-.-.-.-.-.-.' ' ' ) ) ) g g g s s s g g g P.M.(.I.~.W.W.W.^.~.OX~.P.I.{.~.",
"~.A.b.j.x.P.~.P.~.W.Z.P._.(.W._.l l l { { { g g g ) ) ) -.-.-.-.-.-.-.-.-.-.-.-.-.-.-.-.-.-.-.-.-.{ { { Q Q Q g g g Q Q Q l l l [.{.L.W.{.@X/.A.A.~.P.P.~.|.{.P.",
"b.~.(.P.A.P..XP.Z.M.I.{.A.h.z.{.l l l { { { g g g ) ) ) -.-.-.-.-.-.-.-.-.-.-.-.-.-.-.-.-.-.-.-.-.{ { { Q Q Q g g g Q Q Q l l l b.P.(.P.Z.M.S.Q._.W.I.E.b.d.a.Z.",
"W._.(.P.I.W.j.W.W.W.(.(.W.P.U.U.l l l [ [ [ g g g ) ) ) -.-.-.-.-.-.-.-.-.-.-.-.-.-.-.-.-.-.;.;.;.{ { { Q Q Q g g g Q Q Q l l l Y.{.}.(.W.(._.W.G.A.j.A.Q.W.W.}.",
" X(.L.V.x.x.|.}.I.I.(.M.L.W.Y.W.s s s -.-.-.Q Q Q ' ' ' -.-.-.-.-.-.-.-.-.-.-.-.-.-.-.-.-.-.{ { { ' ' ' Q Q Q g g g Q Q Q s s s Z.[.}.(.(.(.V.Z.I.).Z.x.Z.[.OX[.",
"Y.(.(.(.[.}.OXI.P.Y.A.h.I.(.j.d.s s s -.-.-.Q Q Q ' ' ' -.-.-.-.-.-.-.-.-.-.-.-.-.-.-.-.-.-.{ { { ' ' ' Q Q Q g g g Q Q Q s s s {. X(.~.P.b.S.(.).(._.[.{.}.(._.",
"[.}.{.~.[.@X(.OX~.I.A.~.}._.OX@Xs s s -.-.-.:.:.:.~ ~ ~ &.&.&.-.-.-.-.-.-.-.-.-.&.&.&.| | | _ _ _ ! ! ! h h h E E E Q Q Q s s s ~.[.P.U.~.~._.~.Z.W._.}.{.W.I.(.",
"~.I.W.Z.b.P.M.I.b.P.XXW.P.Z.A.~.s s s -.-.-.2.2.2.Q Q Q { { { -.-.-.-.-.-.-.-.-.{ { { ' ' ' ) ) ) Q Q Q g g g Q Q Q Q Q Q s s s Z.P.U.P.M.L.M.A.I.}.}.XX(.L.Z.Z.",
"P.W.(.I.A.P.A.(.N.A.P.j.P.{.A.N.s s s -.-.-.2.2.2.Q Q Q { { { -.-.-.-.-.-.-.-.-.{ { [ ' ' ' ) ) ) Q Q Q g g g Q Q Q Q Q Q s s s P.{.~.P.P.~.I.W.{._.A.b.z.j.M.b.",
"M.A.I.~.W.P.W.P.A.{.{.M.A.W.{.Z.s s s =.=.=.2.2.2./ / / { { { -.-.-.-.-.-.-.-.-.{ { { ' ' ' ( ( ( Q Q Q d d d Q Q Q Q Q Q s s s P.P.M.M.A.P.W.A.A.k.W.Y.I.P.M.x.",
"K.P.E.W.P.P.(.^.~.~.E.P.W.P.N.v.s s s Q Q Q D.D.D.2.2.2.{ { { { { { -.-.-.{ { { { { } $.$.] Q Q Q Q Q Q Q Q Q Q Q Q g g g s s s Z.~.^.W.n.j.G.A.b.A.A.M.b.P.A.A.",
"(.I.W./.~.W.(.z.b.I.A.A.b.A.I.(.s s s Q Q Q D.D.D.2.2.2.{ { { { { { -.-.-.{ { { { { *.,.,.*.Q Q Q Q Q Q Q Q Q Q Q Q g g g s s s v.E.P.Z.A.W.P.b.z.W.M.P.W.P.W.W.",
"~.A.A.A.P.A.A.P.P.{.P.~.P.(.P.~.~.W.P.a a a ( ( ( D.D.D.2.2.2.;.;.;.-.-.-.;.;.;.;.;.<.<.<.*.} } } } } } ) ) ) g g g a a a % A.v.z.P.W.A.M.A.E.P.A.A.j.A.P.M.A.~.",
"W.~.I.W.(._.~.M.M.P.P.~.P.M.P.A.P.N.N.s s s ) ) ) D.D.D.2.2.2.-.-.-.-.-.-.-.-.-.-.-.;.=.=.%.{ { { { { { ) ) ) g g g s s s % W.P.A.Z.W.M.z.b.I.W.W.P.~.W.P.E.I.XX",
"P.b.z.x.A.I.A.z.c.~.[.OXM.z.N.P.N.A.P.s s s ) ) ) D.D.D.2.2.2.-.-.-.-.-.-.-.-.-.-.-.-.{ { { { { { { { { ) ) ) g g g s s s % I.I.W.M.P.M.b.M.E.P.A.P._.~.P.A.P.V.",
"~._.W.W.W.~.~.P.~.XX_.(.~.~.j.A.A.I.W.s s s _ _ _ F.F.F.2.2.2.-.-.-.-.-.-.-.-.-.-.-.-.[ [ [ [ [ [ } } } ) ) ) d d d s s s % Z.W.[.P.A.E.W._.P.M.A.W.P.W.E.M.N._.",
"M._.W.Z.b.M._.}.W.I.V._.Z.j.L.{.I.Y.I.s s s s s s ) ) ) { { { -.-.-.-.-.-.-.-.-.-.-.-.-.-.-.-.-.-.) ) ) Q Q Q s s s s s s % ~.W.~.z.P.W.W.P.j.P.XXW.b.a.z.{.XXI.",
"I.P.(.{.(.I.Y.A.(.'._.S./._.B.(.N.f.z.s s s s s s ) ) ) { { { -.-.-.-.-.-.-.-.-.-.-.-.-.-.-.-.-.-.) ) ) Q Q Q s s s s s s % L.Z.Z.(.A.W.W.P.A.I._.M._.I.A.(._.x.",
"W.I.P.P.I.I.z.W.(._.(.(.(._.}.Z.a.d.A.l l l c c c s s s g g g ) ) ) { { { { { { { { { ) ) ) Q Q Q g g g s s s c c c l l l % (.W.P.~.W.W.I.A.A.^.XXZ.~.A.A.W.W.(.",
"{.{.(.I.L.P.Y.XX}.{./.~.(.(.I.z.a.z.W.l l l c c c s s s g g g ) ) ) { { { { { { { { { ) ) ) Q Q Q g g g s s s c c c l l l o I.M.x.(.W.(._._.P.A.A.~._.~.W.(._.(.",
"(.x.d.h.P._.L.A.~.(.(.(.{.{.{.~.Y.W.(.l l l c c c s s s g g g ) ) ) { { { { { { { { { ) ) ) Q Q Q g g g s s s c c c l l l o P.W.P.W.(.G.M.b.M.E._.W.A.A.A.A.W.P.",
"_.(.P.Z.L.Z.d.I.(.{.{.(.~.I.^.b.Z.I.T.l l l c c c s s s g g g ) ) ) { { { { { { { { { ) ) ) Q Q Q g g g s s s c c c l l l o P.W.W.W._.A.M.b.b.b.A.~.I.W.I.W.~.OX",
"W.Z.P.~.W.~.XX[.{.{.(.~.I.M.b.M.I.}.}.@ e K l l l c c c c c c s s s s s s s s s s s s s s s s s s c c c c c c l l l H O.= o W.P.P.W.x.j.b.W.W.~._.S.A.Z.A.I.I.z.",
"/.(.Y.I.I.L.x.[.~.~.~.}.~.L.g.A.L.L.L.O e K l l l c c c c c c s s s s s s s s s s s s s s s s s s c c c c c c l l l H O.= o {._.E.P._.W.A.~.W.W.~.W.W.W.I._._.[.",
"}.P.Y.[.Y.M.~.Z.A.Z.x.z.b.P.(.j.a.Z.S.O e K I > > a a a c c c r r r r r r r r r r r r r r r r r r c c c a a a 6 , , H J = o N.z.j.j.P.W.P.Z.I.M.j.x.I.I.P.Z.(.P.",
"W.P.P.W.P.M.A.~.P.N.x.A.W._.M.P.Y.A.M.O e K P > > s s s c c c c c c c c c c c c c c c c c c c c c c c c s s s 6 , , H J = o v.v.A._.~._.~.W.(._.~.(.[.(.(.(.Y.P.",
"M.A.A.A.P.A.Z.N.A.W.^.^.P.M.].M.E.P.{.O e K P > > s s s c c c c c c c c c c c c c c c c c c c c c c c c s s s 6 , , H O.= o M.b.P.XXP.^._.~.P.N.b.b._.A.d.u.a.P.",
"A.M.M.W.~._.{.P.b.d.d.A.~._.~.m.M.M.P.O e K P > > p p p r r r r r r r r r r r r r r r r r r r r r r r r p p p 6 , , H O.= o A.~._.N.d.v.M.N.A.A.M.(.(.~.W.A.P.Z.",
"A.W.W.W.W.W.G.P.E.^.`..X_.~.v.x.M.j.d.O e K s s s 3.3.3.s s s s s s s s s s s s s s s s s s s s s s s s 3.3.3.s s s H O.= o v.b.N.M.G.P.E.P.P.^.{.W.W.~._.{.W.^.",
"A.G.W.G.E.W._.^.W.E.E.G.A.E.Q.A.n._._.O e K s s s 3.3.3.s s s s s s s s s s s s s s s s s s s s s s s s 3.3.3.s s s H O.= o A.W.^.A.M.n.M.N.G.P.E.E.b.z.v.M.M.A.",
"~.z.f.d.d.v.n.j.M.A.N.j.z.b.P.N.M.b.v.x x x ^ ^ ^ ` ` ` ^ ^ ^ ^ ^ ^ ^ ^ ^ W W W W W W ^ ^ ^ ^ ^ ^ ^ ^ ^ ` ` ` ^ ^ ^ N N N o P.~._.A.A.n.b.k.j.j.j.j.z.b.P.W.^.b.",
"W.W.~._._.Q.N.P.E.E.A.E.^._.P.A.N.b.f.s s s ) ) ) ) ) ) ) ) ) ) ) ) ) ) ) Q Q Q Q Q Q ) ) ) ) ) ) ) ) ) ) ) ) ) ) ) l l l o P.W.~.A.~.W.E.P.P.W.W.W.P.W.~.^.(.P.",
"P.z.b.N.~.^.^.n.A.A.W.W.P.A.N.P.~._._.s s s ) ) ) ) ) ) ) ) ) ) ) ) ) ) ) Q Q Q Q Q Q ) ) ) ) ) ) ) ) ) ) ) ) ) ) ) l l l o b.N.A.E.d.d.f.j.A.~.^.[.~.W.W.P.A.h.",
"W._.I.A.M.M.N.M.P.W.^.^.E.A.A.z.b.P.A.s s s ) ) ) ) ) ) V V V V V V V V V ) ) ) Q Q Q V V V V V V V V V ) ) ) ) ) ) l l l o N.P.E.^..X{.{.].{.|..X.X.X_.~.W.W.}.",
"~.OX}.{.(.P.j.N.N.A.M.M.A.W.E.W.~.^.P.s s s ) ) ) ) ) ) V V V V V V V V V ) ) ) Q Q Q V V V V V V V V V ) ) ) ) ) ) l l l o _.E.N.b.z.v.M.M.P.P.A.b.Z.P.A.P.W.@X",
"XX}.(.(._.{.{.W.^._..XW.E.A.~.^.W.M.j.s s s ) ) ) ) ) ) V V V V V V V V V ) ) ) Q Q Q V V V V V V V V V ) ) ) ) ) ) l l l o ~.E.P.~._._._._.E.A.N.~.^._.{.{.{.}.",
"XX{.(._.{._.{..X_.~._.{._.Q.~.~.i i i 8.8.8.a a a 0.0.0.R R R V V V V V V ) ) ) Q Q Q V V V V V V V V V 0.0.0.j j j 8.8.8.s s s b.^.P.G.W.W.W.Q._.{.{.}.XXXXXX}.",
"z.A.P.b.j.j.A.S.I.H.A.v.l.f.z.W.s s s 6.6.6.s s s 9.9.9.R R R V V V V V V ) ) ) Q Q Q V V V V V V V V V 9.9.9.l l l 6.6.6.l l l T.+X_.S.A.A.A.A.G.M.~.~.P.M.z.A.",
"u.A.c.z.z.b.P.I.W.W._.^.E.N.A.I.s s s 6.6.6.s s s 9.9.9.R R R V V V V V V ) ) ) Q Q Q V V V V V V V V V 9.9.9.l l l 6.6.6.l l l A.Z.z.z.z.z.z.v.M.P.c.f.u.q.u.P.",
"M.v.M.P.P.M.u.b.M.P.^.A.N.v.Z.E.s s s 6.6.6.3.3.3.s s s 9.9.9.J.J.J.#X#X#X9.9.9.T T T J.J.J.J.J.J.9.9.9.s s s 3.3.3.6.6.6.l l l M.A.!.P.E.~.~.N.z.b.P.P.W.~.P.z.",
"P.A.v.M.P.~.{.Z.N.A.W.E.W.^.~.z.s s s 6.6.6.3.3.3.s s s 9.9.9.J.J.J.#X#X#X9.9.9.T T T J.J.J.J.J.J.9.9.9.s s s 3.3.3.6.6.6.l l l f.f.M.M.M.M.K.K.M.z.P.P.~._.W.~.",
"A.z.M.^.OX{.P.P.A.P.W.A.A.A.~.d.s s s 6.6.6.3.3.3.s s s 9.9.9.J.J.J.#X#X#X9.9.9.T T T J.J.J.J.J.J.9.9.9.s s s 3.3.3.6.6.6.l l l ~.b.d.N.^.~.M.P.~._.W.M.A.~.Y.z.",
"P.z.z.M.M.M.P.z.l.z.P.v.j.j.P.M.P.~.{.b b b k k k s s s  . . .>.>.>.,.,.,.$.$.$.B B B >.>.>.>.>.>. . . .s s s k k k b b b o E.~.^.P.v.W._.E.j.h.j.Z.z.d.z.P.~.P.",
"P.P.A.I.Y.I.(.(.I.~.OXI.Z._.T.Z.z.x.P.s s s s s s s s s g g g V V V V V V ) ) ) Q Q Q V V V V V V g g g s s s s s s s s s o M.~._.P.A.M.b.x.A.[.OX~.~.~.P.L.P.W.",
"z.W.(.{.XX}.|.A.z.h.A.P.P.W.(. X(.W.W.s s s s s s s s s g g g V V V V V V ) ) ) Q Q Q V V V V V V g g g s s s s s s s s s o A.P.M.z.Z.M.z.f.d.M.W.W.j.d.u.u.d.P.",
"(.A.M.M.L.(.I.P.Z.P.(.~.W.I.L.W.P.A.M.@ e K I , , s s s V V V Q Q Q g g g s s s s s s g g g Q Q Q V V V s s s 5 1 , H O.= % P.Z.P.~.E.P.A.M.M.W. X~.d.d.x.P.W.M.",
"!.~.W.A.~.}.I.j.A.W.P.j.x.M.W.z.b.P.A.@ e K I , , s s s V V V Q Q Q g g g s s s s s s g g g Q Q Q V V V s s s 5 1 , G O.= % ~.E.P._.OX{.(.~.Z.P.~.{.Z.P.W.~.I.W.",
"OX{.~.E.W._.W.W.~._._.`._.~.M.~.W.P.A.@ e K I , , s s s V V V Q Q Q g g g s s s s s s g g g Q Q Q V V V s s s 5 1 , G O.= % P.P.M.f.d.u.u.z.P.P.P.A.P.~.(._.{.}.",
"W.W.M.z.z.b.N.f.z.b.E.M.z.a.A.{.~.P.I.@ e K I , , s s s 7.7.7.5.5.5.U U U l l l l l l U U U 7.7.7.4.4.4.s s s 6 1 , H O.= % {.XXOX~._.~.P.~.~.W.P.~.P.P.P.P.P.(.",
"{.~._.{._.N.j.f.f.v.v.f.v.E._.~.Z.Z.I.@ e K I < , s s s 6.6.6.3.3.3.S S S l l l l l l S S S 6.6.6.3.3.3.s s s 6 1 , H J = % {.XX{.M.l.a.d.z.P.E.~.~.I.~.~.~.~.~.",
"j.j.x.M.A.I.~.P.x.i.z.P.h.h.{.I.Z.P.(.+ w K I > , s s s 6.6.6.3.3.3.S S S l l l l l l S S S 6.6.6.3.3.3.s s s 4 > > G J = % W.~.W.~.S.W.W.H./._._.A.E.E.N.b.v.d.",
"A.(.{.XX{.(.W.(.W.P.W.I.P._.P.I.I.(.{.+ w K I , > s s s c c c c c c s s s D D D D D D s s s c c c c c c s s s 5 < , G o.= % N.Z.W._..X}.XX_._.I.A.b.j.j.N.P.P.W.",
"A.A.P.A.M.Z.(.P.P.b.M.M.j.j.Z.A.M.b.x.X t +.@.< 4 s s s c c c c c c s s s @.@.@.@.@.@.s s s c c c c c c s s s 0 9 4 o.+.= % P.I.~.P.^._.{._.XXXX}.~.{.~.A.b.M.A.",
"Z.A.P.Z.Z.A._.{._.W.~.P.b.x.Z.}.XX}.XX& 3 8 9 - - s s s c c c c c c s s s 9 9 9 9 9 9 s s s c c c c c c s s s ; ; - 8 8 * % W.W.P.M.d.b.E.A.j.d.d.W.^.W.M.z.b.P.",
"Z.I.W.I.P.A.M.P.W.P.b.j.f.b.v.P.P.E.I.% $   O $ $ X   + s s s s s s O O O O O O O O O O O O s s s s s s O . . X $ $ + $ % % ~.~.W.W.M.~.~.Y.P.^.{._.b.x.M.A.A.P.",
"{.~.~._.(.~.A.^.{.^.A.P.P._.~.A.M.b.P.W.P.M.j.z.XX{.I.A.s s s s s s W.L.A.Z.A.P.I.~._.{.I.~.s s s s s s XXj.P.I.P._.I.j.A.A.A.A.M.b.P.A.N.z.d.M.P.A.j.b.~.}.XXW.",
"I.Z.M.A.W.W.P.N.N.f.z.E.N.M.A.A.N.P.~.W.I.{.{.~.~.~.P.P.s s s s s s (.I.Y.~.A.I.W.I.I.~.I.W.s s s s s s ~.{.~.I.(._.~.I.W.~.~.~.W.N.P.~.{.~.~.W.~.~.~.Y.~.~.I.A.",
"P.(.~.W.I.~.(.~.(.(.~.I.~.~.A.~.~.W.I.W.Z.I.W.P.b.M.P.M.b.M.P.W.Z.z.j.b.~._.G.P.W./.XXXX^.P.A.Z.I.~.W.P.~.Z.W.W.b.I.{.}.A.(.{._.~.P.~.E.P.~.P.M.~.^.P.P.P.P.A.~.",
"{.I.Z.z.z.x.Z.(.{.XXOXW.Z.x.z.b.M.M.M.x.x.W.}.(.~.W.A.I.W.(.XXXX_.s.j.M.W.^.A.P.W.W.W.P.P.A.P.XX}.I.Z.M.h.z.~.OXP.W.~.W.~.W.P.L.~.{.x.z.j.A.z.d.P.P.{.W.x.z.P._.",
"~.(.~.(._.}.XX{._.~.~.W.~._.~.A.P.W.~.W.Z.~.{.}._.P.N.z.P._.~.P.I.~.~._.}._.W.~.E.A.b.b.b.E.~.W.W.Z.z.x.P.{.~.~.z.d.M.[._..X{._.{.~.E.(.{.~.XXXXXXOX~.~.{.{.{.~."
};
