/* XPM */
static char *de7cace593004263e6132466684ae5ceFw8qZNzsciGdDUSb[] = {
/* columns rows colors chars-per-pixel */
"80 80 153 2 ",
"   c #754B3F",
".  c #2D2D45",
"X  c #36364C",
"o  c #37384F",
"O  c #3C3A4F",
"+  c #2D2F52",
"@  c #2D3453",
"#  c #2D3950",
"$  c #333751",
"%  c #353B51",
"&  c #3B3A50",
"*  c #3B3E62",
"=  c #433A4F",
"-  c #58394B",
";  c #423950",
":  c #622D49",
">  c #6E3847",
",  c #62344A",
"<  c #6B3848",
"1  c #763148",
"2  c #3D485F",
"3  c #444255",
"4  c #46465E",
"5  c #48455D",
"6  c #6D4741",
"7  c #6F4941",
"8  c #644A4C",
"9  c #724A40",
"0  c #7F5348",
"q  c #414460",
"w  c #505067",
"e  c #E53E38",
"r  c #B35E3F",
"t  c #B95E3D",
"y  c #BA613E",
"u  c #DE6F10",
"i  c #DD7010",
"p  c #992645",
"a  c #9E2B42",
"s  c #8B3044",
"d  c #A02942",
"f  c #AD3447",
"g  c #CB2A4A",
"h  c #D22849",
"j  c #C93344",
"k  c #D93246",
"l  c #E53746",
"z  c #E63846",
"x  c #81554A",
"c  c #E7454C",
"v  c #FA564D",
"b  c #FB584D",
"n  c #E94F54",
"m  c #EA5054",
"M  c #F45552",
"N  c #FD6658",
"B  c #FD685A",
"V  c #F56662",
"C  c #EB8F1D",
"Z  c #EC921E",
"A  c #F0991B",
"S  c #F99A1A",
"D  c #F2B22B",
"F  c #F7D139",
"G  c #F8D239",
"H  c #98885C",
"J  c #9C8664",
"K  c #9C8E64",
"L  c #9C8A6C",
"P  c #A48664",
"I  c #A48C64",
"U  c #AC8E64",
"Y  c #A48D6C",
"T  c #AC8E6C",
"R  c #A4926C",
"E  c #AC936C",
"W  c #AC9A6C",
"Q  c #B4966C",
"!  c #B49A6C",
"~  c #AC8E74",
"^  c #B48E74",
"/  c #A49474",
"(  c #AC9574",
")  c #AC9B74",
"_  c #AC967C",
"`  c #AC9C7C",
"'  c #B49574",
"]  c #B49B74",
"[  c #BC9C74",
"{  c #B4967C",
"}  c #B49D7C",
"|  c #BC9D7C",
" . c #ACA27C",
".. c #B4A274",
"X. c #BCA374",
"o. c #B4A27C",
"O. c #BCA37C",
"+. c #B4AA7C",
"@. c #BCAA7C",
"#. c #FF8575",
"$. c #C4A47C",
"%. c #C4AA7C",
"&. c #FEE47B",
"*. c #FFEC7E",
"=. c #898995",
"-. c #B49E84",
";. c #BC9E84",
":. c #B4A484",
">. c #BCA584",
",. c #B4AA84",
"<. c #BCAA84",
"1. c #BCA68C",
"2. c #BCAC8C",
"3. c #BCB288",
"4. c #C49E84",
"5. c #F69784",
"6. c #FA9985",
"7. c #C4A684",
"8. c #C4AB84",
"9. c #CCAC84",
"0. c #C4A68C",
"q. c #C4AD8C",
"w. c #CCAE8C",
"e. c #C4B284",
"r. c #CCB384",
"t. c #C4B38C",
"y. c #CCB38C",
"u. c #C4BA8C",
"i. c #CCBA8C",
"p. c #D4B68C",
"a. c #D4BA8C",
"s. c #CCAE94",
"d. c #C4B494",
"f. c #CCB594",
"g. c #C4BA94",
"h. c #CCBB94",
"j. c #CCB69C",
"k. c #CCBC9C",
"l. c #D4B694",
"z. c #D4BB94",
"x. c #D4BD9C",
"c. c #DCBE9C",
"v. c #F5AD9E",
"b. c #F7AFA0",
"n. c #FAAFA0",
"m. c #FAB0A0",
"M. c #FABAA6",
"N. c #CCC29C",
"B. c #D4C294",
"V. c #D4C29C",
"C. c #DCC59C",
"Z. c #FECAAF",
"A. c #FFCBB0",
/* pixels */
"( | >.| ( E ( E >.8.>.o.O.<.} E ) o.<.<.>.o.t.h.>.>.2.d.2.} :.q.o.O.o.) E ( ] >.t.8.E I o.@.o.8.} ) o.8.O.( E | Q [ O.9.y.y.%.O.%.y.r.7.O.O.%.O.8.$.O.8.p.y.y.8.",
"| } ] } O.O.} T ( ] ( E } 8.8.>.<.o.) >.f.z.q.o.o.} >.q.q.O.>.d.O.8.q.w.q.q.q.y.y.h.y.8.8.>.O.<.>.o.O.>.O.} ] >.9.8.$.O.$.8.y.h.$.>.O.X.] ] O.O.7.O.O.O.O.} ] ] ",
"O.>.O.' ' O.q.y.q.y.q.8.8.t.y.q.t.y.d.t.t.t.2.8.>.>.>.8.>.} ] O.q.>.& & & & & & & & & & & & >.} O.o.} O.o.| } ' ' ] | 7.O.| >.O.7.O.O.O.O.O.] O.( ] ] ] ( U E ] ",
"} O.7.} ] >.y.z.>.w.y.q.>.>.| ] ] >.y.O.Y J I } >.O.O.O.>.O.} o.| O.& & & & & & & & & & & & f.7.o.8.q.8.q.q.7.| | | { ' ( } 7.f.[ ( ] O.7.] ' ] O.>.7.8.>.O.>.w.",
"| } ] O.q.y.q.| Y ' } | | O.O.} t.y.t.q.8.O.>.O.o.} } 8.q.y.f.f.>.] # # # # # # # # # # # # >._ ) >.q.7.O.7.>.| | | | ] ' } >.q.8.O.O.7.8.>.O.7.O.O.>.>.>.} ] ] ",
"7.7.} ' ] | O.} $.>.7.>.$.>.w.f.8.8.8.q.y.f.8.O.w.8.8.& & & < < < , v v v v v v v v v z z z < < < & & & ( ] O.O.T ] 7.q.7.| ] E f.8.O.} | >.8.y.q.q.7.q.8.7.| } ",
"q.q.7.' Y ( >.w.w.7.7.| | | O.7.8.t.f.f.y.t.y.f.y.y.w.& & & < < < , v v v v v v v v v z z z < < < & & & 8.7.8.0.9.9.8.%.8.8.y.y.>.>.} E E ] O.>.' ( Y E ( ( E ( ",
"8.7.>.O.8.w.8.O.} [ } | | $.>.7.7.>.] ( ' } } O.O.$.8.& & & < < < , v v v v v v v v v z z z < < < & & & t.7.} ' [ [ 8.w.p.y.8.%.w.f.l.q.7.q.f.q.s.q.7.>.>.>.0.q.",
"E E ' >.q.y.q.O.O.[ ] ! E E E E E E ( ] >.8.w.q.& & & a a a v v v v #.#.#.B B B z z z k k k g g g a a a & & & O <.O.%.t.y.8.8.y.8.y.p.t.O.' ] O.O.>.q.y.w.| ] | ",
"7.>.O.>.8.q.8.O.q.8.7.>.O.>.8.8.8.8.>.8.q.w.t.8.& & & a a a v v v v #.#.#.B B B z z z k k k g g g a a a & & & O 8.O.] | <.8.8.8.] ] ' | 8.y.y.y.q.q.w.q.8.w.q.w.",
">.| ] ] | O.>.7.Y Y T E { O.q.w.d.t.q.8.8.>.O.>.& & & a a a v v v v #.#.#.B B B z z z k k k g g g a a a & & & O O.| ( E Q | O.O.( ] O.O.] ] | O.' ' ( T E } 7.O.",
"7.O.>.| >.7.q.w.l.f.f.s.f.f.j.l.l.f.l.y.q.& & & a a a k k k #.#.#.#.B B B B B B v v v z z z g g g g g g a a a a & & $ r r r >.w.O.( Y ] y.c.f.O.4.7.$.} O.f.h.f.",
"f.y.f.q.8.>.O.O.} ;.} ;.O.;.| -.>.8.q.8.8.& & & a a a k k k #.#.#.#.B B B B B B v v v z z z g g g g g g a a a a & & $ r r r [ ] } 8.y.w.} ( ' } $.w.w.7.y.x.x.y.",
"y.f.y.y.7.| { ] ( ' } } O.>.>.O.] ] o.>.O.& & & a a a k k k #.#.#.#.B B B B B B v v v z z z g g g g g g a a a a & & $ r r r ' ( ' E ( } 7.8.>.} ] | O.} | O.O.] ",
"8.q.y.q.7.>.8.q.y.y.y.y.q.7.O.| q.q.< < < 4 4 4 g g g z z z B B B B B B B v v v v v v v v v z z z g g g g g g g 4 4 * D D D r r r q.w.8.} { | 8.q.y.q.q.7.O.} ] ",
"( ' ] ] ] ] >.w.>.$.8.8.9.8.r.y.f.z.< < < 4 4 4 g g g z z z B B B B B B B v v v v v v v v v z z z g g g g g g g 4 4 * D D D r r r ~ Y Y ( ;.>.q.t.q.8.>.] T T ^ ",
"o.<.d.d.t.3.y.N.y.@.O.O.O.O.O.$.} O.< < < 4 4 4 g g g z z z B B B B B B B v v v v v v v v v z z z g g g g g g g 4 4 * D D D r r r y.y.8.8.8.y.z.r.O.] O.q.q.] K ",
"t.t.y.h.h.x.x.x.C.z.y.>.| [ 7.< < < & & & < < < g g g v v v v v v v v v v v v v v v v v v v v v v k k k g g g g < < : F F F 9 9 9 O.O.t.z.y.8.O.X.8.8.q.q.q.y.B.",
"} O.>.O.>.O.O.o.( ( ( ( ( ( ' < < < & & & < < < g g g v v v v v v v v v v v v v v v v v v v v v v k k k g g g g < < : F F F 9 9 9 O.] O.>.} >.z.r.y.y.q.>.} ) ) ",
"q.w.y.w.$.} | O.0.>.7.q.w.q.| < < < & & & < < < g g g v v v v v v v v v v v v v v v v v v v v v v k k k g g g g < < : F F F 9 9 9 ) >.8.>.] | 8.8.O.( Y Y ( o.<.",
"| | | ] ' T Y T } } } } ;.;.;.4 4 4 h h h < < < g g g v v v v v v v v v v v v v v v v v v v v v v z z z a a a a < < , C C C & & & ] ] } O.>.} E I E O.>.>.>.d.V.",
"w.>.| O.q.q.$.] Y | w.q.O.} >.4 4 4 g g g < < < g g g v v v v v v v v v v v v v v v v v v v v v v l z z a a a a < < , Z Z Z & & & q.>.( ] } O.} | O.q.f.d.q.>.o.",
"7.>.O.7.q.w.q.>.' 8.y.7.] E R 4 4 4 g g g < < < g g g v v v v v v v v v v v v v v v v v v v v v v l z z a a a a < < , Z Z Z & & & >.y.f.q.} } } y.O.E Y -.q.q.2.",
"E } 8.>.] ' o.%.4.[ E E ] 8.8.& & & g g g a a a k k k v v v v v v v v v v v v v v v v v v v z z z k k k a a a a < < , i i i & & & ( ( >.>.>.| >.E ) >.1.q.2.>.:.",
"q.O.( } q.y.q.>.O.} ] ) } O.d.& & & g g g a a a k k k v v v v v v v v v v v v v v v v v v v z z z k k k a a a a < < , i i i & & & q.7.} Y Y ( } o.o.o.o.o.<.o.( ",
"f.q.>.O.>.} ] ( o.} ( T Y Y } & & & g g g a a a k k k v v v v v v v v v v v v v v v v v v v z z z k k k a a a a < < , i i i & & & q.q.o.} <.q.y.t.t.8.q.q.t.t.y.",
"Y ( } >.o.>.8.q.7.>.O.} ] } 8.& & & k k k a a a k k k v v v v v v v v v v v v v v v v v v v z z z k k k a a a a a a p u u u & & & 8.>.} >.q.q.<.8.| ] } ] ( ' } ",
"} 7.q.q.7.>.q.y.x.f.t.q.>.o.>.& & & k k k a a a k k k v v v v v v v v v v v v v v v v v v v z z z k k k a a a a a a p u u u & & & >.>.>.>.>.>.7.q.O.} >.7.] ( ] ",
"Y ( ] o.>.8.q.f.q.q.8.q.y.s.q.& & & k k k a a a k k k v v v v v v v v v v v v v v v v v v v z z z k k k a a a a a a p u u u & & & Y ( 8.>.( } q.8.} ' O.q.>.O.>.",
"q.7.>.>.>.} ( T Y J J ( O.>.>.& & & a a a k k k a a a l l l v v v v v v v v v b l l l k k k g g g a a a a a a a g g g a a a & & & ( } q.<.} o.y.x.t.<.w.y.f.f.z.",
">.8.q.f.z.x.f.q.y.q.>.q.q.q.8.& & & a a a k k k a a a z z z v v v v v v v v v b z z z k k k g g g a a a a a a a g g g a a a & & & f.q.q.y.f.f.f.<.<.>.o.o.O.o.>.",
">.>.q.f.z.f.7.} ~ I Y ( } >.7.& & & a a a k k k a a a z z z v v v v v v v v v b z z z k k k g g g a a a a a a a g g g a a a & & & q.] Y ` f.q.} o.8.f.t.q.q.t.t.",
"Y ( O.8.q.8.q.q.@.8.8.%.8.e.y.& & & < < < a a a k k k z z z B B B N #.#.#.#.#.#.B B B #.#.#.B B B v v v z z z z a a a a a a & & & ) ) ] >.t.h.g.t.y.o.>.8.>.o.I ",
"7.O.o.| o.8.q.y.l.h.z.y.y.y.<.& & & < < < a a a k k k z z z B B B N #.#.#.#.#.#.B B B #.#.#.B B B v v v z z z z a a a a a a & & & 8.} Y Y ) :.<.8.<.( ( O.8.h.q.",
"q.O.E Y E ] } o.E ( E ( } 8.8.& & & < < < a a a k k k z z z B B B N #.#.#.#.#.#.B B B #.#.#.B B B v v v z z z z a a a a a a & & & 8.q.8.q.y.y.f.8.f.8.t.f.<.>.E ",
"x.t.7.>.<.q.8.>.w.y.f.y.f.z.z.=.=.=.- - - 1 1 1 f f f j j j m n n n V V V V V V M M M V V V M M M c c c j j j j s s s 1 1 1 =.=.=.] 7.w.8.} T J q.t.O.>.o.] >.O.",
"8.8.<.8.8.>.O.} Y ] 7.O.} E Y Y 8.q.& & & & & & < < < a a a g g g g z z z z z z z z z z z z z z z g g g a a a a < < > & & & q.f.f.y.f.q.7.O.| O.Y O.q.h.w.} ] ( ",
"q.q.w.q.q.8.q.8.} q.q.2.O.>.w.f.y.>.& & & & & & < < < a a a g g g g z z z z z z z z z z z z z z z g g g a a a a < < > & & & } q.q.<.} ] ] } 8.f.x.z.q.<.] Y o.8.",
"O.O.O.O.O.} } ] >.O.| ( J Y } >.O.) 4 4 4 7 7 7 & & & O O O ; ; ; ; = = = = = = = = = = = = = = = ; ; ; O O O O 5 5 & q.O.( { >.u.8.:.O.o.} O.>.<.q.8.y.f.<.q.8.",
"8.<.q.q.q.8.>.| >.q.f.q.q.q.8.q.q.q.4 4 4 9 9 9 & & & & & & & & & & & & & & & & & & & & & & & & & & & & & & & & 4 4 & } Y J ( 0.g.t.<.2.q.<.O.<.8.<.] <.q.<.8.>.",
"h.<.] ) ( L R :.O.q.} J P o.q.q.:.} 4 4 4 9 9 9 & & & & & & & & & & & & & & & & & & & & & & & & & & & & & & & & 4 4 & y.q.q.8.8.O.o.O.r.y.8.O.O.O.O.O.O.O.8.q.8.",
"O.O.t.f.y.q.1.>.q.7.>.q.q.>.} q.w.q.w w w 9 9 9 O O O O O O 3 3 3 3 3 3 3 3 3 3 3 3 3 3 3 3 3 3 3 & & & 3 3 3 3 4 4 & } >.8.o.( ( E ] q.y.q.$.>.8.e.y.z.z.w.>.O.",
"q.q.8.>.:.q.y.f.) ( E O.>.( Y >.>.q.f.8.) 4 4 4 9 9 9 9 9 9 b.v.v.v.A.A.A.A.A.A.A.A.A.A.A.A.A.A.A.o & & Z.Z.Z.Z.4 4 & t.z.z.y.>.U E } 8.w.O.O.>.8.8.y.8.>.>.O.>.",
"y.f.l.f.y.f.q.q.7.t.f.q.f.z.z.z.x.f.q.q.f.4 4 4 9 9 9 9 9 9 b.v.v.v.A.A.A.A.A.A.A.A.A.A.A.A.A.A.A.o & & Z.Z.Z.Z.4 4 & y.q.>.<.8.q.q.y.h.y.q.8.q.7.O.o.] ] ] 7.q.",
"} ( } >.o.( ( ] ( q.q.| >.q.q.} } } ] } ] & & & 9 9 9 9 9 9 b.v.v.v.M.M.M.A.A.A.A.A.A.A.A.A.A.A.A.8 8 8 Z.Z.Z.Z.3 3 X y.o.} 8.h.f.l.y.q.>.} O.>.O.7.8.8.t.w.8.<.",
"f.>.>.8.>.' ] 8.( } ] ( } } } 7.O.7.q.8.>.& & & 9 9 9 9 9 9 b.v.v.v.v.v.v.A.A.A.A.A.A.A.A.A.A.A.A.0 x x Z.Z.Z.Z.& & . } ( ( } 8.q.q.8.>.] ) } O.q.8.q.y.f.e.8...",
"{ { >.q.8.} E E >.} R ( ] ( } f.x.} Y T q.& & & 9 9 9 9 9 9 b.v.v.v.v.v.v.A.A.A.A.A.A.A.A.A.A.A.A.0 x x Z.Z.Z.Z.& & . y.t.8.q.t.O.>.q.8.>.7.>.>.q.q.>.O.O.$.O.%.",
"' { ' T ( O.w.y.8.f.f.q.f.q.7.q.8.q.7.| ] & & & 9 9 9 9 9 9 b.v.v.v.v.v.v.A.A.A.A.A.A.A.A.A.A.A.A.0 x x Z.Z.Z.Z.& & . t.q.O.] } J Y ( } } } ( ( O.O.7.>.O.8.8.y.",
"o.o.<.d.f.t.t.t.8.] O.8.o.O.t.q.X.<.t.h.f.t.e.e.& & & v.v.v.v.v.v.v.A.A.A.A.A.A.A.A.A.v.v.v.5.5.5.5.5.5.& & & O y.8.>.>.O.O.>.q.8.q.y.q.O.} ' ' <.} ] } O.| ( T ",
"8.} R ( O.<.q.<.O.] 8.@.] ] <.>.@.o.] q.k.C.h.8.& & & v.v.v.v.v.v.v.A.A.A.A.A.A.A.A.A.v.v.v.5.5.5.5.5.5.& & & O >.O.>.8.q.>.7.q.o.O.8.O.} ' E Q <.O.} ] ' ] | $.",
">.o.<.q.q.<.q.q.$.8.y.9.] | 7.7.O.8.f.t.>.} ..o.X X X m.m.m.m.m.m.n.A.A.A.A.A.A.A.A.A.m.m.m.6.6.6.6.6.6.X X X X O.} | ] ' E R E <.8.q.8.8.O.7.>.] O.} Y I ( | O.",
"Y } 8.t.<.O.o.O.$.$.7.7.] ' } | 8.<.<.q.q.q.8.8.O.O.] & & & & & & & & & & & & & & & & 4 4 4 4 4 4 4 4 4 <.>.8.w.q.8.>.O.} >.8.f.<.8.8.8.O.O.| | 8.f.y.O.| >.w.q.",
"f.8.>.8.y.h.h.f.w.7.O.8.7.' ' ;...>.>.>.-.o.>.@.l.y.y.& & & & & & & & & & & & & & & & 4 4 4 4 4 4 4 4 4 >.O.o.O.t.q.O.] E ( O.q.y.y.t.8.>.O.} [ | >.7.' ( O.7.O.",
"8.>.] ( ] >.7.O.O.} ' ' } ~ P T o.w.x.q.~ P ( 8.8.8.>.& & & % % % % % % % @ @ @ + + + q q q 2 2 2 4 4 4 y.f.q.<.y.y.f.>.o.O.8.8.<.8.t.q.w.8.8.8.7.8.$.} >.y.f.t.",
"o.>.7.O.o.O.o.} 8.z.y.q.f.f.q.f.y.q.>.>.q.q.q.w.y.q.8.& & & a a a d 9 9 6 Z Z C G G G 9 9 9 g g g & & & o.q.y.q.I ( } } | >.q.y.} ] O.O.O.7.O.O.| } } | O.>.8.<.",
"7.} E E ] >.' P J 8.<.( :.f.d.q.q.q.0.} ~ Y ( ] 8.8.y.& & & a a a d 9 9 6 Z Z C G G G 9 9 9 g g g & & & O.o.] } >.y.y.8.O.>.8.q.8.<.8.8.>.| ] E | 4.8.f.l.y.<.8.",
"| y.q.T Y | O.T H ) t.y.@.o.O.O.8.8.@.>.] E ( ` e.q.@.& & & a a a d 9 9 6 Z Z C G G G 9 9 9 g g g & & & ( I ] 8.] >.8.>.' E ] >.O.} E ( O.y.y.7.<.<.O.8.h.:.E o.",
"y.7.>.8.8.| O.q.t.t.8.>.8.y.y.8.8.8.<.O.O.>.q.y.8.8.@.9 9 9 Z Z Z S & & % e e e e e e 4 4 4 &.&.&.r r r 8.O.>.>.7.7.>.7.>.>.>.w.o.O.7.8.y.t.O.] ( O.} ) >.O.( ( ",
"} ( [ q.O.J T 8.8.} I I E O.O.} 9.8.O.] ] >.7.O.$.O.| 9 9 9 Z Z Z S & & % e e e e e e 4 4 4 &.&.&.r r r 8.8.8.8.<.] ( | >.$.7.q.8.8.8.8.>.O.O.O.8.f.w.7.q.y.>.| ",
"] O.>.<.O.] ( } 7.7.7.7.9.w.w.9.9.w.9.| | $.7.| Q ' Q       A Z Z S O O % e e e e e e 4 4 4 *.*.*.t y y O.O.8.y.>.' E } 7.} O.8.l.8.>.O.} ] <.l.f.7.O.7.7.' I T ",
"f.t.8.8.f.h.8.E O.O.O.$.;.4.[ | ' [ [ ' ] 7.w.w.p.9.7.& & & g g g h 4 4 q D D D D D D 4 4 4 e e e & & & <.7.<.>.8.O.8.y.q.O.>.q.8.<.7.8.8.8.q.y.q.| | 7.>.' ( ' ",
"f.y.f.f.y.q.>.O.z.q.$.O.X.4.[ | E T T U E [ 9.p.! ' E & & & g g g h 4 4 q D D D D D D 4 4 4 e e e & & & y.y.O.] O.q.f.f.8.} | 8.} O.O.>.8.8.8.O.| O.q.8.>.l.z.O.",
"t.y.h.z.f.<.8.t.q.O.} | [ ] [ | 8.} } o.O.O.@.t.8.8.%.& & & g g g h 4 4 q D D D D D D 4 4 4 e e e & & & 8.q.O.( | 7.w.7.O.| } | ] O.O.] } 8.8.o.E ( } } ] 8.q.( ",
"q.o.R ( <.x.<.Y I ( $.q.>.[ } $.q.} } 8.t.O.W ! @.8.y.& & & g g g h 4 4 q Z Z C D D D 4 4 4 e e e & & & o.O.O.O.>.8.8.>.O.8.7.} E >.q.O.>.y.y.O.t.o.8.h.q.<.<.` ",
"h.t.+.o.t.h.f.q.>.o.>.8.q.8.@.7.) W ) O.e.e.t.<.>.7.8.& & & g g g h 4 4 q Z Z Z D D D 4 4 4 e e e & & & L ] <.<.( ] o.O.:.O.>.8.>.f.z.>.] O.} E ) :.q.8.O.( E ' ",
"<.,.o. .<.f.h.f.:.o.O.t.y.y.t.9.B.t.O.<.f.h.t.O.E Y Y & & & g g g h 4 4 q Z Z Z D D D 4 4 4 e e e & & & t.:.} :.] I Y o.y.q.>.O.q.y.8.} } <.f.f.y.t.t.q.<.>.8.f.",
"3.e.e.>.o.o.>.:.8.>.o.>.y.y.y.a.:.>.:.] } <.2.<.y.f.y.q.7.O.X & & & & & O 4 4 4 4 4 4 g g g & & & } / ) ) ) >.f.8.( ) y.x.y.>.>.O.8.q.8.8.q.q.8.d.t.t.y.f.q.8.<.",
"t.h.h.f.2.>.o.} t.<.q.8.t.8.8.w.q.x.x.q.>.<.f.q.q.y.f.<.] ) X & & & & & O 4 4 4 4 4 4 g g g & & & q.f.f.f.x.x.t.<.<.y.x.z.q.8.t.f.y.<.} ) ] q.z.f.y.y.f.y.<.} ] ",
"%.8.t.y.y.d.t.f.:.8.f.V.z.e.O.O.q.2.>.>.q.j.f.q.>.O.] E ) >.X & & & & & O 4 4 4 4 4 4 g g g & & & k.h.<.>.2.t.<.} 8.f.t.<.>.O.<.8.t.y.q.O.>.t.V.h.y.t.t.8.>.O.8.",
"<.>.O.O.>.>.2.d.o.:.<.8.8.8.8.y.q.q.q.t.f.z.f.f.t.t.q.o.o.8.X & & % a a a g g g e e e e e e & & & f.f.x.h.>.} o.<.q.<.O.} O.} Y E <.x.V.h.q.<.O.O.>.8.q.<.>.<.t.",
"O.O.O.>.o.] } >.t.>.o.} O.@.9.y.8.$.<.7.] Y I ] o.q.t.>.O.>.X & & % a a a g g g e e e e e e & & & <.` ( R R :.f.z.y.q.8.q.q.] R >.y.f.<.O.>.8.O.( } >.8.<.o.>.<.",
"Q ] 7.t.y.2.t.f.h.t.8.t.z.y.8.$.O.E E O.9.8.8.8.h.y.t.>.<.8.X & & % a a a g g g e e e e e e & & & z.h.2.<.t.f.f.f.q.t.z.x.y.q.q.O.q.t.>.7.t.8.} y.8.>.O.} } <.y.",
"I Y E 8.q.o.} d.h.t.t.t.@...o.<.i.t.o.) o.d.x.k.d.t.,...) ) X & & % 9 9 9 9 9 9 9 9 9 & & & <.t.8.8.8.@.O.O.@.8.3.t.t.d.u.d.t.3.r.8.%.8.O.( } >.O.@.@.o.@.@.e.t.",
"E ] } q.z.f.t.k.t.q.>.] o.@.t.i.t.t.y.d.f.h.t.2.y.t.t.t.d.h.X & & % 9 9 9 9 9 9 9 9 9 & & & h.f.y.y.y.q.8.>.8.8.d.>.) o.<.t.<.) E o.8.O.E I ] q.<.<.<.8.y.t.t.t.",
"r.y.8.O.<.o.( ( q.d.t.q.d.V.V.y.t.8.o.o.o.:.q.f.` o.O.:.8.f.X & & % 9 9 9 9 9 9 9 9 9 & & & k.8.t.f.t.q.O.:.>.<.z.2.o.o.t.h.f.t.y.%.] ] ] } ( E q.8.>.8.q.8.>.] ",
"O.8.O.} o.q.q.d.>.1.q.q.f.y.q.o.8.q.y.h.f.8.<.d.t.h.f.q.d.V.x.t.x.q.& & & & & & & & & y.<.>.O.>.q.q.>.>.>.>.<.q.q.8.<.>.O.<.t.z.] } O.<.8.8.y.C.q.8.O.} | | | } ",
"O.f.q.} ] o.O.>.1.>.} :.>.} O.<.h.h.h.z.t.:.o.q.o.<.8.o.] >.<.} <.] & & & & & & & & & t.O.( ) O.d.>.:.O.2.f.f.f.q.f.f.q.o.} >.t.l.8.8.f.y.} ] 8.} | O.O.O.O.8.w.",
"H ] o.O.>.>.q.f.q.>.>.q.y.<.8.f.y.8.O.] ( E } >.] 8.t.<.O.>.>.O.t.| & & & & & & & & & 8.q.O.| >.8.-.] } >.q.y.f.h.h.y.y.q.<.8.q.O.Y Y O.y.8.O.O.E } q.q.>.>.>.q.",
"e.h.h.y.8.>.} >.} } O.>.8.8.O.O.! o.8.2.<.>.} } ) O.<.q.8.>.O.8.>.O.f.f.O.} O.8.f.8.o.>.8.q.<.>.O.o.O.O.>.<.<.O.8.>.o.O.>.O.O.o.( O.8.>.] E ] ] / O.d.y.2.o.o.<.",
"8.t.<.>.>.o.| q.w.8.[ E ] $.O.] O.8.O.} ] >.O.-.O.>.7.8.>.>.7.t.w.q.q.7.] >.8.>.| O.' Y E | 8.>.8.r.h.i.y.8.8.8.7.<.7.o.} ' ) ] ( :.O.( O.y.y.X.) :.t.d.<.:.q.d."
};
