/* XPM */
static char *_08ba2f19ada4c9ea50bcc377501ecafhSDznmnJtWCKOB1r[] = {
/* columns rows colors chars-per-pixel */
"80 80 197 2 ",
"   c #1E170C",
".  c #1E1812",
"X  c #1E1A19",
"o  c #24160E",
"O  c #24190E",
"+  c #281A0D",
"@  c #241A12",
"#  c #261A15",
"$  c #211B1B",
"%  c #28201C",
"&  c #34251D",
"*  c #3C2919",
"=  c #4B3119",
"-  c #663B16",
";  c #6A3C13",
":  c #693C19",
">  c #723D12",
",  c #543C23",
"<  c #5F431F",
"1  c #69411C",
"2  c #704319",
"3  c #744619",
"4  c #5C4326",
"5  c #624222",
"6  c #6C4827",
"7  c #674F33",
"8  c #694D34",
"9  c #754B3F",
"0  c #68553E",
"q  c #715639",
"w  c #2D2D45",
"e  c #36364C",
"r  c #37384F",
"t  c #3C3A4F",
"y  c #2D2F52",
"u  c #2D3453",
"i  c #2D3950",
"p  c #333751",
"a  c #353B51",
"s  c #3B3A50",
"d  c #3B3E62",
"f  c #433A4F",
"g  c #58394B",
"h  c #423950",
"j  c #622D49",
"k  c #6E3847",
"l  c #62344A",
"z  c #6B3848",
"x  c #763148",
"c  c #3D485F",
"v  c #5D4F41",
"b  c #444255",
"n  c #46465E",
"m  c #48455D",
"M  c #6B4945",
"N  c #724A40",
"B  c #6C5645",
"V  c #795A46",
"C  c #7E644D",
"Z  c #414460",
"A  c #505067",
"S  c #E53E38",
"D  c #80501C",
"F  c #864F24",
"G  c #875627",
"H  c #875629",
"J  c #895529",
"K  c #B35E3F",
"L  c #B95E3D",
"P  c #9B672A",
"I  c #9C662C",
"U  c #8B653B",
"Y  c #996636",
"T  c #996937",
"R  c #9C6D3C",
"E  c #9E703C",
"W  c #A2692F",
"Q  c #A36C37",
"!  c #A46D35",
"~  c #BA613E",
"^  c #A97539",
"/  c #DE6F10",
"(  c #DD7010",
")  c #992645",
"_  c #9E2B42",
"`  c #8B3044",
"'  c #A02942",
"]  c #AD3447",
"[  c #CB2A4A",
"{  c #D22849",
"}  c #C93344",
"|  c #D93246",
" . c #E53746",
".. c #E63846",
"X. c #81554A",
"o. c #816347",
"O. c #966B42",
"+. c #986A41",
"@. c #9C7346",
"#. c #9A7954",
"$. c #A27543",
"%. c #A37948",
"&. c #B47E45",
"*. c #E8484E",
"=. c #FA564D",
"-. c #FB584D",
";. c #E94F54",
":. c #F45552",
">. c #FD6658",
",. c #FD685A",
"<. c #F56662",
"1. c #EB8F1D",
"2. c #EC921E",
"3. c #F79A1A",
"4. c #F2B22B",
"5. c #F7D139",
"6. c #F8D239",
"7. c #98845C",
"8. c #BE824E",
"9. c #BA8657",
"0. c #BF8C54",
"q. c #BF9057",
"w. c #BE915A",
"e. c #9C8664",
"r. c #9C8A64",
"t. c #A68864",
"y. c #A48C64",
"u. c #A48D6C",
"i. c #AC8E6C",
"p. c #B48E6C",
"a. c #A4926C",
"s. c #AC936C",
"d. c #B5976C",
"f. c #AC8E74",
"g. c #AC9574",
"h. c #AC9B74",
"j. c #AA987A",
"k. c #B49574",
"l. c #B49B74",
"z. c #BC9C74",
"x. c #B4967C",
"c. c #B49D7C",
"v. c #BC9E7C",
"b. c #ACA27C",
"n. c #B5A374",
"m. c #B4A27C",
"M. c #BCA37C",
"N. c #BCAA7C",
"B. c #C08C54",
"V. c #C1935D",
"C. c #C39561",
"Z. c #FF8575",
"A. c #C4A57C",
"S. c #C4AA7C",
"D. c #D3A472",
"F. c #FEE77C",
"G. c #898995",
"H. c #B99E84",
"J. c #B4A484",
"K. c #BCA584",
"L. c #BCAA84",
"P. c #B8A888",
"I. c #BCAC8C",
"U. c #BCB28C",
"Y. c #C49E84",
"T. c #F69784",
"R. c #FA9985",
"E. c #C4A684",
"W. c #C4AB84",
"Q. c #CCAC84",
"!. c #C4A68C",
"~. c #C4AD8C",
"^. c #CCAE8C",
"/. c #C4B284",
"(. c #C4B28C",
"). c #CAB789",
"_. c #CCB38C",
"`. c #D4B68C",
"'. c #CAAE94",
"]. c #C4B494",
"[. c #CCB594",
"{. c #CCBB94",
"}. c #CABA9A",
"|. c #D4B694",
" X c #D4BB94",
".X c #D4B69C",
"XX c #D4BC9C",
"oX c #F5AD9E",
"OX c #F7AFA0",
"+X c #FAAFA0",
"@X c #FAB0A0",
"#X c #FABAA6",
"$X c #CCC29C",
"%X c #D6C39A",
"&X c #F0C18F",
"*X c #FECAAF",
"=X c #FFCBB0",
/* pixels */
"~.(.~.(._.{. X[._.~.~.W.~._.~.M.K.W.~.W.m.~.[.{._.K.v.g.K._.~.K.L.~.~._.{._.W.~.E.M.l.l.l.E.~.W.W.m.g.h.K.[.~.~.g.u.c.]._.|.[._.[.~.E.(.[.~. X X XXX~.~.[.[.[.~.",
"v.K._.~.W.~.L.W.~._.{.{._.(._.~.W.~.W.[.(.L.L.W.K.M.M.K.(._.m.c.W.[.|._.~.K.M.K.M.E.W.(.^.W.L.M.M.W.~.~.XX~.I.K.c.h.K..Xc.c.K.m.g.l.g.~.~.v.~.~.c.c.l.c.l.c.c.l.",
"~.~._.^.L.E.K.M.K._.[.~.K.l.l._.L.m.l.M.[.L.K.(.M.c.M.(.W.c.g.g.c.~.s s s s s s s s s s s s n.s.u.l.K.M.u.g.~.[.(.[._.K.[.K.W.K.k.W.g.c.l.g.c.c.E.M.~.W.K.v.M.M.",
"t.l.c.c.M.W.~._.K.l.g.c.M.~.K.~.~.W.L.~.L.L.(._.M.c.k.[.~._.(.W.~.M.s s s s s s s s s s s s S.W.W.W.(.[.E.m.W.W.g.M.L.M.x.K.~.W.c.s.K.c.a.g.g.c.[.XXu.i.~.[.K.u.",
"/.M.M.L.E.M._.K.W.W.~.W.K.K.M.M.M.W.W.$ # @ + + + + + + + + + + + + i i i i i i i i i i i i + + + + + + + + + + + + @ # % L.].[.(.(.W.l.M.W.M.(.~.n.(.{.[.(./.E.",
"W.E.~._.W.M.K.W.(._.K.a.l.W.^.E.M.K.E.$ v C o.o.o.o.o.s s s z z z l =.=.=.=.=.=.=.=.=.......z z z s s s q q q q q q q B % a.g.M.L.L.M.l.W.N.l.L.K.N.l.~.}.%X{.m.",
"m.W._.W.K.m._.~.W.M.M.v.M.K.v.l.l.l.l.@ V p.9.9.9.9.9.s s s z z z l =.=.=.=.=.=.=.=.=.......z z z s s s E E E E E R E @.* $ ~.~.L.~.A.W._.Q.v.E.E.M.[.(.K.c.n.W.",
"W.M.l.s.u.y.K.`.~.W.W.W.M.l.l.E.W.W.^.+ V 9.8.&.8.8.8.s s s z z z l =.=.=.=.=.=.=.=.=.......z z z s s s ! ! ! ! ! ! ! T * $ (.L.M.M.A.A.E.E.k.c.v.W.L.~.~.~.W.M.",
"W.W.K.K.W.M.K.s.l.M.W._. X X^.W.M.M.M.+ V 9.8.F s s s _ _ _ =.=.=.=.Z.Z.Z.,.,.,.......| | | [ [ [ _ _ _ s s s t 3 D T U * $ g.l.K.M.M.c.k.k.f.t.i.m.XX~.f.t.g.W.",
"^.~.W.W.W.W._. X[._._.(.W.M._.W.E.E.M.+ V 9.8.; s s s _ _ _ =.=.=.=.Z.Z.Z.,.,.,.......| | | [ [ [ _ _ _ s s s t ; > Y +.* X M.m.M.c.W. X_.~.[.~.[._.K.K.~.~.~._.",
"l.W._.[.W.c.g.M._.XX XW.W._.K.M.W.~.^.@ V 9.8.; s s s _ _ _ =.=.=.=.Z.Z.Z.,.,.,.......| | | [ [ [ _ _ _ s s s t : > Y R * $ s.l.K.t.e.W.L.g.[.].~.~.!.c.f.u.g.W.",
"j.~.N.M.M.E.|.`._.W.c.g.v.M.K.M.E.K.K.@ V s s s _ _ _ | | | Z.Z.Z.Z.,.,.,.,.,.,.=.=.=.......[ [ [ [ [ [ _ _ _ _ s s p K K K i.u.v.i.7.h.(._.m.M.M.W.N.K.l.s.g./.",
"_.W.N.E.M.E.'.u.s.c.A.W.^._._.g.l.W._.@ V s s s _ _ _ | | | Z.Z.Z.Z.,.,.,.,.,.,.=.=.=.......[ [ [ [ [ [ _ _ _ _ s s p K K K W.W.v.~.(.(.W.K._._.W.W.L.M.M.K.~.W.",
"v.k.d.M.W.[.(.(.W.E.M.W.^.W.k.W.~.v.s.@ V s s s _ _ _ | | | Z.Z.Z.Z.,.,.,.,.,.,.=.=.=.......[ [ [ [ [ [ _ _ _ _ s s p K K K L.M.l.c.E.E.E.E.^.^.Q.Q.Q.v.v.A.E.d.",
"^.Q.E.Q._.[.J.W.E.M.~._.~.A.K.M.v.c.z z z n n n [ [ [ ......,.,.,.,.,.,.,.=.=.=.=.=.=.=.=.=.......[ [ [ [ [ [ [ n n d 4.4.4.K K K s.M.M.M.A.Y.z.v.k.z.k.l.E.^.`.",
"`.k.s.g.M.K.c._.W.E.M.M.M.c.~.~.~.K.z z z n n n [ [ [ ......,.,.,.,.,.,.,.=.=.=.=.=.=.=.=.=.......[ [ [ [ [ [ [ n n d 4.4.4.K K K M. X~.A.M.Y.z.v.s.i.i.s.z.Q.d.",
"(.W.S.M.l.s.t.E.M.l.k.E.~._.z.W.^.M.z z z n n n [ [ [ ......,.,.,.,.,.,.,.=.=.=.=.=.=.=.=.=.......[ [ [ [ [ [ [ n n d 4.4.4.K K K (.~.M.c.v.l.z.v.W.c.m.M.M.N.W.",
"L.E.W.~.L.K.L.{.K.M.~.M.c.M.M.z z z s s s z z z [ [ [ =.=.=.=.=.=.=.=.=.=.=.=.=.=.=.=.=.=.=.=.=.=.| | | [ [ [ [ z z j 5.5.5.N N N ~.K.m.K.W.W.N.E.h.h.M././.(.K.",
"M.u.u.h.K.(.~._.W.K.L.M.K.[.[.z z z s s s z z z [ [ [ =.=.=.=.=.=.=.=.=.=.=.=.=.=.=.=.=.=.=.=.=.=.| | | [ [ [ [ z z j 5.5.5.N N N [.J.m.M.(._.(.Q.%XM.L.[.{.(.s.",
"L.[._.~.E.M.~.(.~.M.W. X_.L._.z z z s s s z z z [ [ [ =.=.=.=.=.=.=.=.=.=.=.=.=.=.=.=.=.=.=.=.=.=.| | | [ [ [ [ z z j 5.5.5.N N N J.W.K.m.K._._.`.J.J.l.c.L.I._.",
"~._.[.L.l.h._.K.M.c.m.{.~.h.L.n n n { { { z z z [ [ [ =.=.=.=.=.=.=.=.=.=.=.=.=.=.=.=.=.=.=.=.=.=......._ _ _ _ z z l 1.1.1.s s s c.(.L.~.W.W.W.^.~.XX~.K.L.[.~.",
"~.M.l.s.h.K.~.K.~.W.m.K._.(.W.n n n [ [ [ z z z [ [ [ =.=.=.=.=.=.=.=.=.=.=.=.=.=.=.=.=.=.=.=.=.=. ....._ _ _ _ z z l 2.2.2.s s s [.J.W.[.%X/.M.M.~.K.K.~.}.[.K.",
"l.~.(.K.M.K.|.K.m.c.L.[.M.a.g.n n n [ [ [ z z z [ [ [ =.=.=.=.=.=.=.=.=.=.=.=.=.=.=.=.=.=.=.=.=.=. ....._ _ _ _ z z l 2.2.2.s s s K.(.K.m.c.N.Q._.W.L.E.l.u.y.m.",
"W._.(.K.L.W.s.W.W.W.(.(.W.K.I.s s s [ [ [ _ _ _ | | | =.=.=.=.=.=.=.=.=.=.=.=.=.=.=.=.=.=.=.......| | | _ _ _ _ z z l ( ( ( s s s [.{.(.W.(._.W.A.M.s.M.Q.W.W.{.",
"}.(.P.n.h.h.].{.L.L.(.c.J.W.I.s s s [ [ [ _ _ _ | | | =.=.=.=.=.=.=.=.=.=.=.=.=.=.=.=.=.=.=.......| | | _ _ _ _ z z l ( ( ( s s s ].{.(.(.(.n.m.L.).m.h.m.].XX].",
"I.(.(.(.].{.XXL.K.I.M.a.L.(.s.s s s [ [ [ _ _ _ | | | =.=.=.=.=.=.=.=.=.=.=.=.=.=.=.=.=.=.=.......| | | _ _ _ _ z z l ( ( ( s s s }.(.~.K.l.N.(.).(._.].[.{.(._.",
"].{.[.~.].%X(.XX~.L.M.~.{._.XXs s s | | | _ _ _ | | | =.=.=.=.=.=.=.=.=.=.=.=.=.=.=.=.=.=.=.......| | | _ _ _ _ _ _ ) / / / s s s ].K.I.~.~._.~.m.W._.{.[.W.L.(.",
"~.L.W.m.l.K.c.L.l.K. XW.K.m.M.s s s | | | _ _ _ | | | =.=.=.=.=.=.=.=.=.=.=.=.=.=.=.=.=.=.=.......| | | _ _ _ _ _ _ ) / / / s s s K.I.K.c.J.c.M.L.{.{. X(.J.m.m.",
"K.W.(.L.M.K.M.(.v.M.K.s.K.[.M.s s s | | | _ _ _ | | | =.=.=.=.=.=.=.=.=.=.=.=.=.=.=.=.=.=.=.......| | | _ _ _ _ _ _ ) / / / s s s [.~.K.K.~.L.W.[._.M.l.g.s.c.l.",
"c.M.L.~.W.K.W.K.M.[.[.c.M.W.[.s s s _ _ _ | | | _ _ _  . . .=.=.=.=.=.=.=.=.=.-. . . .| | | [ [ [ _ _ _ _ _ _ _ [ [ [ _ _ _ s s s K.c.c.M.K.W.M.M.d.W.I.L.K.c.h.",
"H.K.E.W.K.K.(.^.~.~.E.K.W.K.v.s s s _ _ _ | | | _ _ _ ......=.=.=.=.=.=.=.=.=.-.......| | | [ [ [ _ _ _ _ _ _ _ [ [ [ _ _ _ s s s ~.^.W.z.s.A.M.l.M.M.c.l.K.M.M.",
"(.L.W./.~.W.(.g.l.L.M.M.l.M.L.s s s _ _ _ | | | _ _ _ ......=.=.=.=.=.=.=.=.=.-.......| | | [ [ [ _ _ _ _ _ _ _ [ [ [ _ _ _ s s s E.K.m.M.W.K.l.g.W.c.K.W.K.W.W.",
"~.M.M.M.K.M.M.K.K.[.K.~.K.(.K.s s s z z z _ _ _ | | | ......,.,.,.>.Z.Z.Z.Z.Z.Z.,.,.,.Z.Z.Z.,.,.,.=.=.=........._ _ _ _ _ _ s s s K.W.M.c.M.E.K.M.M.s.M.K.c.M.~.",
"W.~.L.W.(._.~.c.c.K.K.~.K.c.K.s s s z z z _ _ _ | | | ......,.,.,.>.Z.Z.Z.Z.Z.Z.,.,.,.Z.Z.Z.,.,.,.=.=.=........._ _ _ _ _ _ s s s m.W.c.g.l.L.W.W.K.~.W.K.E.L. X",
"K.l.g.h.M.L.M.g.j.~.].XXc.g.v.s s s z z z _ _ _ | | | ......,.,.,.>.Z.Z.Z.Z.Z.Z.,.,.,.Z.Z.Z.,.,.,.=.=.=........._ _ _ _ _ _ s s s c.K.c.l.c.E.K.M.K._.~.K.M.K.n.",
"~._.W.W.W.~.~.K.~. X_.(.~.~.s.G.G.G.g g g x x x ] ] ] } } } ;.;.;.;.<.<.<.<.<.<.:.:.:.<.<.<.:.:.:.*.*.*.} } } } ` ` ` x x x G.G.G.K.M.E.W._.K.c.M.W.K.W.E.c.v._.",
"c._.W.m.l.c._.{.W.L.n._.m.s.J.[.L.I.s s s s s s z z z _ _ _ [ [ [ [ ..............................[ [ [ _ _ _ _ z z k s s s ~.W.~.g.K.W.W.K.s.K. XW.l.y.g.[. XL.",
"L.K.(.[.(.L.I.M.(.`._.N./._.b.(.v.i.s s s s s s z z z _ _ _ [ [ [ [ ..............................[ [ [ _ _ _ _ z z k s s s J.m.m.(.M.W.W.K.M.L._.c._.L.M.(._.h.",
"W.L.K.K.L.L.g.W.(._.(.(.(._.{.m.y.u.n n n N N N s s s t t t h h h h f f f f f f f f f f f f f f f h h h t t t t m m s O.* $ (.W.K.~.W.W.L.M.M.^. Xm.~.M.M.W.W.(.",
"[.[.(.L.J.K.I. X{.[./.~.(.(.L.g.y.g.n n n N N N s s s s s s s s s s s s s s s s s s s s s s s s s s s s s s s s n n s O.* X L.c.h.(.W.(._._.K.M.M.~._.~.W.(._.(.",
"(.h.u.a.K._.J.M.~.(.(.(.[.[.[.~.I.W.n n n N N N s s s s s s s s s s s s s s s s s s s s s s s s s s s s s s s s n n s +.* X K.W.K.W.(.A.c.l.c.E._.W.M.M.M.M.W.K.",
"_.(.K.m.J.m.u.L.(.[.[.(.~.L.^.l.m.L.A A A N N N t t t t t t b b b b b b b b b b b b b b b b b b b s s s b b b b n n s +.* X K.W.W.W._.M.c.l.l.l.M.~.L.W.L.W.~.XX",
"W.m.K.~.W.~. X].[.[.(.~.L.c.l.c.L.{.{.O 8 n n n N N N N N N OXoXoXoX=X=X=X=X=X=X=X=X=X=X=X=X=X=X=Xr s s *X*X*X*Xn n s +.* X W.K.K.W.h.s.l.W.W.~._.N.M.m.M.L.L.g.",
"/.(.I.L.L.J.h.].~.~.~.{.~.J.p.M.P.P.J.O 8 n n n N N N N N N OXoXoXoX=X=X=X=X=X=X=X=X=X=X=X=X=X=X=Xr s s *X*X*X*Xn n s +.* X [._.E.K._.W.M.~.W.W.~.W.W.W.L._._.].",
"{.K.I.].I.c.~.m.M.m.h.g.l.K.(.s.y.m.N.O 8 s s s N N N N N N OXoXoXoX#X#X#X=X=X=X=X=X=X=X=X=X=X=X=XM M M *X*X*X*Xb b e R * X v.g.s.s.K.W.K.m.L.c.s.h.L.L.K.m.(.K.",
"W.K.K.W.K.c.M.~.K.v.h.M.W._.c.K.I.M.c.@ 8 s s s N N N N N N OXoXoXoXoXoXoX=X=X=X=X=X=X=X=X=X=X=X=XV X.X.*X*X*X*Xs s w R * X k.k.M._.~._.~.W.(._.~.(.].(.(.(.I.K.",
"c.M.M.M.K.M.m.v.M.W.^.^.K.c.'.c.E.K.[.@ 8 s s s N N N N N N OXoXoXoXoXoXoX=X=X=X=X=X=X=X=X=X=X=X=XV X.X.*X*X*X*Xs s w +.* X c.l.K. XK.^._.~.K.v.l.l._.M.u.e.y.K.",
"M.c.c.W.~._.[.K.l.u.u.M.~._.~.x.c.c.K.@ 8 s s s N N N N N N OXoXoXoXoXoXoX=X=X=X=X=X=X=X=X=X=X=X=XV X.X.*X=X*X*Xs s w +.* X M.~._.v.u.k.c.v.M.M.c.(.(.~.W.M.K.m.",
"M.W.W.W.W.W.A.K.E.^.`.|._.~.k.h.c.s.u.O 8 R ! ; s s s oXoXoXoXoXoXoX=X=X=X=X=X=X=X=X=XoXoXoXT.T.T.T.T.T.s s s t : ; Y +.* X k.l.v.c.A.K.E.K.K.^.[.W.W.~._.[.W.^.",
"M.A.W.A.E.W._.^.W.E.E.A.M.E.Q.M.z._._.O 8 R ! ; s s s oXoXoXoXoXoXoX=X=X=X=X=X=X=X=X=XoXoXoXT.T.T.T.T.T.s s s t : ; Y +.* X M.W.^.M.c.z.c.v.A.K.E.E.l.g.k.c.c.M.",
"~.g.i.u.u.k.z.s.c.M.v.s.g.l.K.v.c.l.k.O 8 R ! ; e e e @X@X@X@X@X@X+X=X=X=X=X=X=X=X=X=X@X@X@XR.R.R.R.R.R.e e e e : ; Y +.* X K.~._.M.M.z.l.d.s.s.s.s.g.l.K.W.^.l.",
"W.W.~._._.Q.v.K.E.E.M.E.^._.K.M.v.l.i.O 8 R ! ; ; H ! s s s s s s s s s s s s s s s s n n n n n n n n n 0.! W 2 : ; Y +.* X K.W.~.M.~.W.E.K.K.W.W.W.K.W.~.^.(.K.",
"K.g.l.v.~.^.^.z.M.M.W.W.K.M.v.K.~._._.O 8 R ! ; ; H ! s s s s s s s s s s s s s s s s n n n n n n n n n 0.! W 2 : ; Y +.* X l.v.M.E.u.u.i.s.M.~.^.].~.W.W.K.M.a.",
"W._.L.M.c.c.v.c.K.W.^.^.E.M.M.g.l.K.M.+ 8 R ! ; ; H ! s s s a a a a a a a u u u y y y Z Z Z c c c n n n B.! W 2 : ; Y +.* X v.K.E.^.|.[.[.'.[.}.|.|.|._.~.W.W.{.",
"~.XX{.[.(.K.s.v.v.M.c.c.M.W.E.W.~.^.K.+ 8 R ! ; ; H ! s s s _ _ _ ' N N M 2.2.1.6.6.6.N N N [ [ [ s s s B.! W 2 : ; Y +.* X _.E.v.l.g.k.c.c.K.K.M.l.m.K.M.K.W.%X",
" X{.(.(._.[.[.W.^._.|.W.E.M.~.^.W.c.s.+ 8 R ! ; ; H ! s s s _ _ _ ' N N M 2.2.1.6.6.6.N N N [ [ [ s s s B.! W 2 : ; Y +.* X ~.E.K.~._._._._.E.M.v.~.^._.[.[.[.{.",
" X[.(._.[._.[.|._.~._.[._.Q.~.~.K.s.i.O 8 R ! ; ; H ! s s s _ _ _ ' N N M 2.2.1.6.6.6.N N N [ [ [ s s s B.! W 2 : ; Y +.* X l.l.l.^.K.A.W.W.W.Q._.[.[.{. X X X{.",
"g.M.K.l.s.s.M.N.L.S.M.k.f.i.g.W.Q._.{.O 8 R ! ; ; H ! N N N 2.2.2.3.s s a S S S S S S n n n F.F.F.K K K 0.! W 2 : ; Y R * X ].(.U.$X_.N.M.M.M.M.A.c.~.~.K.c.g.M.",
"e.M.j.g.g.l.K.L.W.W._.^.E.v.M.L.M.K.M.+ 8 R ! ; ; H ! N N N 2.2.2.3.s s a S S S S S S n n n F.F.F.K K K 0.! W 2 : ; Y R * X M.K.M.m.g.g.g.g.g.k.c.K.j.i.e.7.e.K.",
"c.k.c.K.K.c.e.l.c.K.^.M.v.k.m.E.^.~.W.O 8 R ! ; ; J ! 9 9 9 3.2.2.3.t t a S S S S S S n n n F.F.F.L ~ ~ 0.! W 2 : ; Y +.* X ^.A.c.M.!.K.E.~.~.v.g.l.K.K.W.~.K.g.",
"K.M.k.c.K.~.[.m.v.M.W.E.W.^.~.g.s.g.l.+ 8 R ! ; ; J ! s s s [ [ [ { n n Z 4.4.4.4.4.4.n n n S S S s s s 0.! W 2 : ; Y +.* X l.k.i.i.c.c.c.c.H.H.c.g.K.K.~._.W.~.",
"M.g.c.^.XX[.K.K.M.K.W.M.M.M.~.u.y.g.l.+ 8 R ! ; ; J ! s s s [ [ [ { n n Z 4.4.4.4.4.4.n n n S S S s s s 0.! W 2 : ; Y +.* X M.~.~.l.u.v.^.~.c.K.~._.W.c.M.~.I.g.",
"K.g.g.c.c.c.K.g.f.g.K.k.s.s.K.c.K.~.[.+ 8 R ! ; ; J ! s s s [ [ [ { n n Z 4.4.4.4.4.4.n n n S S S s s s 0.! W 2 : ; Y +.* X E.~.^.K.k.W._.E.s.a.s.m.g.u.g.K.~.K.",
"K.K.M.L.I.L.(.(.L.~.XXL.m._.U.m.g.h.K.+ 8 R ! ; ; J ! s s s [ [ [ { n n Z 2.2.1.4.4.4.n n n S S S s s s 0.! W 2 : ; Y +.* X c.~._.K.M.c.l.h.M.].XX~.~.~.K.J.K.W.",
"g.W.(.[. X{.].M.g.a.M.K.K.W.(.}.(.W.W.+ 8 R ! ; ; J ! s s s [ [ [ { n n Z 2.2.2.4.4.4.n n n S S S s s s 0.! W 2 : ; Y +.* X M.K.c.g.m.c.g.i.u.c.W.W.s.u.e.e.u.K.",
"(.M.c.c.J.(.L.K.m.K.(.~.W.L.J.W.K.M.c.+ 8 R ! ; ; J ! s s s [ [ [ { n n Z 2.2.2.4.4.4.n n n S S S s s s q.! W 2 : ; Y O.* $ K.m.K.~.E.K.M.c.c.W.}.~.u.u.h.K.W.c.",
"!.~.W.M.~.{.L.s.M.W.K.s.h.c.W.g.l.K.M.+ 8 R ! ; ; J ! I C.w.e s s s s s t n n n n n n [ [ [ s s s &XV.V.q.! W 2 : ; Y O.* $ ~.E.K._.XX[.(.~.m.K.~.[.m.K.W.~.L.W.",
"XX[.~.E.W._.W.W.~._._.`._.~.c.~.W.K.M.+ 8 R ! ; ; J ! I C.w.e s s s s s t n n n n n n [ [ [ s s s &XV.V.w.! W 2 : ; Y O.* $ K.K.c.i.u.e.e.g.K.K.K.M.K.~.(._.[.{.",
"W.W.c.g.g.l.v.i.g.l.E.c.g.y.M.[.~.K.L.+ 8 R ! ; ; J ! I C.w.e s s s s s t n n n n n n [ [ [ s s s D.V.V.w.R W 2 : ; Y +.* $ [. XXX~._.~.K.~.~.W.K.~.K.K.K.K.K.(.",
"[.~._.[._.v.s.i.i.k.k.i.k.E._.~.m.m.L.+ 8 R ! ; ; H ! I V.V.e s s a _ _ _ [ [ [ S S S S S S s s t q.q.w.w.T I 2 : ; Y T * $ [. X[.c.f.y.u.g.K.E.~.~.L.~.~.~.~.~.",
"s.s.h.c.M.L.~.K.h.r.g.K.a.a.[.L.m.K.(.O 7 R ! ; ; G ! I &.^ e s s a _ _ _ [ [ [ S S S S S S s s s &.^ &.^ P P 1 - ; Y U * $ W.~.W.~.N.W.W.S./._._.M.E.E.v.l.k.u.",
"M.(.[. X[.(.W.(.W.K.W.L.K._.K.L.L.(.[.O 7 R Q : ; H Q I R I e s s a _ _ _ [ [ [ S S S S S S s s s T P ! I I T 1 - : Y O.* $ v.m.W._.|.{. X_._.L.M.l.s.s.v.K.K.W.",
"M.M.K.M.c.m.(.K.K.l.c.c.s.s.m.M.c.l.h.  0 #.@.- 1 U @.@.$.$.e s s a N N N N N N N N N s s s $.$.$.$.E $.$.$.%.6 5 1 O.#.* $ K.L.~.K.^._.[._. X X{.~.[.~.M.l.c.M.",
"m.M.K.m.m.M._.[._.W.~.K.l.h.m.{. X{. X% , 4 5 = = , 4 5 5 4 e s s a N N N N N N N N N s s s 5 5 5 5 - 5 1 1 < = = = 4 4 & $ W.W.K.c.u.l.E.M.s.u.u.W.^.W.c.g.l.K.",
"m.L.W.L.K.M.c.K.W.K.l.s.i.l.k.K.K.E.L.# @   O @ @ .   O     e s s a N N N N N N N N N s s s O O O O o O o     . @ @ O @ $ $ ~.~.W.W.c.~.~.I.K.^.[._.l.h.c.M.M.K.",
"[.~.~._.(.~.M.^.[.^.M.K.K._.~.M.c.l.K.W.K.c.s.g. X[.L.M.W.~.M.g.x.(.s s s s s s s s s [.L.~.W.g.l.M.~.~. Xs.K.L.K._.L.s.M.M.M.M.c.l.K.M.v.g.u.c.K.M.s.l.~.{. XW.",
"L.m.c.M.W.W.K.v.v.i.g.E.v.c.M.M.v.K.~.W.L.[.[.~.~.~.K.K.E.c.u.e.g.].s s s s s s s s s ~.L.W.K.L.I._._.~.~.[.~.L.(._.~.L.W.~.~.~.W.v.K.~.[.~.~.W.~.~.~.I.~.~.L.M.",
"K.(.~.W.L.~.(.~.(.(.~.L.~.~.M.~.~.W.L.W.m.L.W.K.l.c.K.c.l.c.K.W.m.g.s s s s s s s s s  X^.K.M.m.L.~.W.K.~.m.W.W.l.L.[.{.M.(.[._.~.K.~.E.K.~.K.c.~.^.K.K.K.K.M.~.",
"[.L.m.g.g.h.m.(.[. XXXW.m.h.g.l.c.c.c.h.h.W.{.(.~.W.M.L.W.(. X X_.i.s.c.W.^.M.K.W.W.W.K.K.M.K. X{.L.m.c.a.g.~.XXK.W.~.W.~.W.K.J.~.[.h.g.s.M.g.u.K.K.[.W.h.g.K._.",
"~.(.~.(._.{. X[._.~.~.W.~._.~.M.K.W.~.W.m.~.[.{._.K.v.g.K._.~.K.L.~.~._.{._.W.~.E.M.l.l.l.E.~.W.W.m.g.h.K.[.~.~.g.u.c.]._.|.[._.[.~.E.(.[.~. X X XXX~.~.[.[.[.~."
};
