/* XPM */
static char *_b5264a7abba4821e41b7f10192c7896kgqNUzeccFS1kkS6[] = {
/* columns rows colors chars-per-pixel */
"80 80 186 2 ",
"   c #3E3A4F",
".  c #3A3A50",
"X  c #3C3B50",
"o  c #3D3D51",
"O  c #6F3748",
"+  c #6B3948",
"@  c #6D3848",
"#  c #753947",
"$  c #753C44",
"%  c #46414E",
"&  c #454559",
"*  c #47475E",
"=  c #48455D",
"-  c #48475F",
";  c #4A495F",
":  c #6E4941",
">  c #764246",
",  c #724A40",
"<  c #515167",
"1  c #DB3F39",
"2  c #E03D39",
"3  c #E63F38",
"4  c #B35E3F",
"5  c #B45F3F",
"6  c #B9653E",
"7  c #DD6F10",
"8  c #DE7010",
"9  c #E64038",
"0  c #9D2B42",
"q  c #9A2C42",
"w  c #9F2C42",
"e  c #A12B43",
"r  c #A32C42",
"t  c #C22B4A",
"y  c #CB2A4A",
"u  c #CC2B4A",
"i  c #C92E49",
"p  c #D93246",
"a  c #DB3547",
"s  c #E23B45",
"d  c #E53846",
"f  c #81554A",
"g  c #F8564D",
"h  c #FD6759",
"j  c #FD685A",
"k  c #F97F72",
"l  c #EB921E",
"z  c #EC921F",
"x  c #ED951F",
"c  c #E28D21",
"v  c #ECAB2C",
"b  c #F1AC29",
"n  c #F0B12B",
"m  c #F2B22B",
"M  c #F6D139",
"N  c #F8D239",
"B  c #F9D33F",
"V  c #94865C",
"C  c #9C8A5C",
"Z  c #9C8664",
"A  c #9C8E64",
"S  c #9C8A6C",
"D  c #A48664",
"F  c #A48A64",
"G  c #A48E64",
"H  c #AC8E64",
"J  c #A48A6C",
"K  c #A48E6C",
"L  c #AC8A6C",
"P  c #AC8E6C",
"I  c #A4926C",
"U  c #AC926C",
"Y  c #AC966C",
"T  c #AC9A6C",
"R  c #B4966C",
"E  c #B49A6C",
"W  c #AC8E74",
"Q  c #B48E74",
"!  c #A49274",
"~  c #AC9274",
"^  c #AC9674",
"/  c #AC9A74",
"(  c #AC9E74",
")  c #AC967C",
"_  c #AC9A7C",
"`  c #AC9E7C",
"'  c #B49274",
"]  c #B49674",
"[  c #B49A74",
"{  c #B49E74",
"}  c #BC9A74",
"|  c #BC9E74",
" . c #B4967C",
".. c #B49A7C",
"X. c #B49E7C",
"o. c #BC9A7C",
"O. c #BC9E7C",
"+. c #ACA27C",
"@. c #B4A274",
"#. c #BCA274",
"$. c #BCA674",
"%. c #B4A27C",
"&. c #B4A67C",
"*. c #BCA27C",
"=. c #BCA67C",
"-. c #B4AA7C",
";. c #BCAA7C",
":. c #FE8475",
">. c #C4A27C",
",. c #C4A67C",
"<. c #C4AA7C",
"1. c #FFE57B",
"2. c #B49E84",
"3. c #BC9E84",
"4. c #B4A284",
"5. c #B4A684",
"6. c #BCA284",
"7. c #BCA684",
"8. c #B4AA84",
"9. c #BCAA84",
"0. c #BCAE84",
"q. c #B4A28C",
"w. c #BCA68C",
"e. c #BCAA8C",
"r. c #BCAE8C",
"t. c #BCB284",
"y. c #BCB28C",
"u. c #C49E84",
"i. c #F69784",
"p. c #F69986",
"a. c #C4A284",
"s. c #C4A684",
"d. c #C4AA84",
"f. c #C4AE84",
"g. c #CCAA84",
"h. c #CCAE84",
"j. c #C4A68C",
"k. c #C4AA8C",
"l. c #C4AE8C",
"z. c #CCAA8C",
"x. c #CCAE8C",
"c. c #C4B284",
"v. c #CCB284",
"b. c #CCB684",
"n. c #C4B28C",
"m. c #C4B68C",
"M. c #CCB28C",
"N. c #CCB68C",
"B. c #C4BA8C",
"V. c #CCBA8C",
"C. c #D4B68C",
"Z. c #D4BA8C",
"A. c #C4AE94",
"S. c #CCAE94",
"D. c #C4B294",
"F. c #C4B694",
"G. c #CCB294",
"H. c #CCB694",
"J. c #C4BA94",
"K. c #CCBA94",
"L. c #CCBE94",
"P. c #CCB69C",
"I. c #CCBA9C",
"U. c #CCBE9C",
"Y. c #D0B197",
"T. c #D4B694",
"R. c #D4BA94",
"E. c #D5BC97",
"W. c #D1B79B",
"Q. c #D4BA9C",
"!. c #D4BE9C",
"~. c #DCBE9C",
"^. c #EBA89B",
"/. c #F4AD9E",
"(. c #F6AE9F",
"). c #EEBFA8",
"_. c #CCC29C",
"`. c #D4C294",
"'. c #D4C29C",
"]. c #DCC29C",
"[. c #DCC69C",
"{. c #FFF59A",
"}. c #F4C1A7",
"|. c #F3C3AB",
" X c #FECAAF",
".X c #FFCBB0",
/* pixels */
"^ O.7.O.^ U ~ Y 7.d.7.%.*.9.X.U / %.9.9.7.&.n.K.7.7.r.D.e.X.4.l.%.*.%./ U ^ { 7.m.f.Y G %.;.%.f.X./ %.d.*.~ U O.R } =.h.M.M.<.=.<.M.v.s.*.=.<.*.f.,.=.f.C.N.M.f.",
"O.X.[ ..*.*...P ^ [ ^ Y ..d.d.6.9.%.( 7.H.R.l.%.%.X.7.l.k.*.7.D.*.d.l.x.l.l.l.M.N.K.N.f.f.7.=.9.7.%.*.6.=...[ 6.g.d.>.*.,.f.M.K.,.7.=.#.{ { *.*.s.*.*.*.*...[ [ ",
"*.6.*.] ] *.k.M.l.M.l.d.d.n.M.l.n.M.D.m.n.n.r.d.7.6.7.d.7.X.[ *.l.7.O./ [ *.d.M.X.X.7.e.*.X.6.X.*.%.X.*.%.O...] ' [ O.a.*.O.6.=.s.*.*.*.*.*.{ *.^ [ [ [ ~ H U [ ",
"X.*.s.X.[ 6.M.R.7.x.M.l.7.6.O.[ [ 7.M.=.K Z G X.6.*.*.*.7.*.X.%.O.*.d.x.M.x.7.X.S...X.s.7.G.H.s.%.d.l.f.l.l.s.O.o.o. .] ~ ..s.G.| ^ [ *.s.{ ] [ *.6.s.d.7.*.7.x.",
"O.X.[ *.k.M.k.O.K ] X.O.O.*.*.X.n.M.n.l.d.=.6.=.%.X.X.d.l.M.G.H.6.[ K o o o o o . X X o o 6.7.) / 7.l.s.*.s.7.O.o.O.o.[ ] ..6.l.d.*.*.s.f.7.*.s.*.*.6.7.6...[ [ ",
"s.s.X.] [ O.*.X.>.6.s.6.>.7.z.G.d.d.d.l.N.G.d.*.x.d.d.d.d.d.7.,.7.s.z.. . . . . . . . . . K ~ P X.=.7.{ ^ [ *.*.P [ a.k.s.O.[ Y G.d.*.X.O.6.d.M.l.k.s.k.d.s.O.X.",
"l.l.s.] K ^ 7.x.x.s.s.O.O.O.*.a.d.n.H.H.M.n.M.H.M.M.x.d.*.O.[ [ G.g.6.. . . . . . . . . . x.f.M.l.n.M.l.d.s.d.j.h.g.d.<.d.f.M.N.7.6.X.U U [ *.7.] ~ K U ~ ~ U ~ ",
"d.s.6.*.d.x.d.*...} ..O.O.>.6.s.s.6.[ ^ ] ..X.*.*.,.d.,.s.. . . + + + g g g g g g g g d d @ @ @   . . G.n.s.X.] } | d.x.C.N.f.<.z.H.T.k.s.l.G.l.S.k.s.6.6.6.j.l.",
"U U ] 6.l.M.k.*.*.| [ E U U U U Y U ~ [ 7.f.x.k.{ ^ P K K . . . + + + g g g g g g g g d d @ @ @   . . O.O.s.d.x.9.=.<.n.M.d.f.N.f.M.C.n.*.] [ *.=.7.l.M.x.O.[ o.",
"s.7.*.7.d.k.d.*.l.d.s.7.=.7.d.d.d.d.7.d.l.x.n.d.7.d.l.M.M.. . . + + + g g g g g g g g d d @ @ @   . . O.O...' U f.*.[ O.9.f.d.d.[ [ ] O.d.N.N.M.l.l.x.l.f.z.k.x.",
"6.O.[ [ O.*.7.s.K K P U  .*.l.x.D.n.l.d.d.7.=.6.I ^ . . . 0 0 0 g g g :.:.j j j g g g p p u y y e 0 0 . . . *.o.*.O.^ U R O.*.*.^ { *.*.[ [ O.=.] ] ^ P U X.s.*.",
"s.*.6.O.7.s.l.x.T.G.G.S.G.G.P.T.T.H.T.M.l.d.d.d.K.M.. . . 0 0 0 g g g :.:.j j j g g g p p u y y e 0 0 . . . d.s.O.s.g.[ P ] 6.z.*.~ J [ M.~.G.*.u.s.>...*.H.L.H.",
"G.N.G.l.d.7.*.*...3.X.3.*.3.O.2.7.d.l.f.d.7.k.l.f.k.. . . 0 0 0 g g g :.:.j j j g g g p p u u y e 0 0 . . . ^ U ..d.Y.o.P U } [ ..d.M.x.X.~ ] X.>.x.z.s.M.!.!.N.",
"M.G.M.M.s.O. .[ ~ ] ..X.*.6.6.*.[ { %.6.*.7.d.& . . 0 0 0 p p p :.:.:.j j j j j g g g d d u u u y y y 0 0 0 . . . s.7.O.O.o.] ~ ] U ~ ..s.f.7...[ O.*.X.O.=.*.[ ",
"d.k.M.l.s.7.d.l.M.N.M.M.l.s.*.O.l.l.W.M.G.H.H.& . . 0 0 0 p p p :.:.:.j j j j j g g g d d u u u y y y 0 0 0 . . . k.d.A.G.n.k.k.7.k.x.d... .O.d.l.M.l.l.s.*...[ ",
"^ ] [ [ [ { 7.x.7.,.d.d.h.f.v.M.H.R.H.K.R.R.E.& . . 0 0 0 p p p :.:.:.j j j j j g g g d d u u u y y y 0 0 0 . . . K _ 7.6.X.6.G.~ W J J ^ 3.7.k.n.l.d.7.[ P P Q ",
"%.9.F.F.n.y.N._.N.;.*.=.=.*.*.>...*.k.l.7.+ + = * * y y y d d d j j j j j g g g g g g g g a p p u y y y y y * * * + + + 0.9.9.8.f.N.N.f.d.f.N.R.b.=.{ *.l.l.{ A ",
"n.n.N.K.K.!.!.!.[.R.M.7.O.} s.M.l.l.d.7.7.+ + = * * y y y d d d j j j j j g g g g g g g g a p p u y y y y y * * * + + + H.K.K.'.d.*.*.n.R.N.d.*.#.d.f.l.l.l.N.`.",
"X.*.6.=.6.=.*.%.^ ^ ^ ^ ~ ~ ' ..7.*._ P Z + + = * * y y y d d d j j j j j g g g g g g g g a p p u y y y y y * * * + + + ^ Y ] X.l.*.{ *.7.X.7.R.v.M.M.l.7.X./ / ",
"k.x.M.x.>.X.o.*.j.7.a.k.x.k.O.~ [ O.+ + + . . + + + y y y g g g g g g 8 8 4 4 4 4 4 4 4 4 s d d u y y y y y @ @ @ . . . + + @ X.] / 6.f.7.{ O.f.f.=.^ K K ^ &.9.",
"O.O.O.[ ' P J L ......X.3.3.3.X.~ / + + + . . + + + y y y g g g g g g 8 8 4 4 4 5 5 5 5 4 s d d u y y y y y @ @ @ . . . + + @ s.{ [ [ X.*.7.X.U G Y *.7.6.7.D.'.",
"x.7.o.*.k.l.>.[ J o.z.k.*.X.7.l.M.l.+ + + . . + + + y y y g g g g g g 8 8 4 4 4 5 5 5 5 4 s d d u y y y y y @ @ @ . . . + + @ M.l.k.7.^ [ X.*.X.O.=.l.G.D.l.7.%.",
"s.7.*.s.l.x.k.7.] d.M.s.[ U I U %.X.* * * d d r 0 0 u u u g g g 8 8 8 N N N N N N N N m m 6 5 5 i y y 0 0 0 + + + 0 0 0 * * = O...7.M.H.k.X...X.N.*.U K 2.k.l.r.",
"U X.d.7.{ ] %.<.u.| Y U [ d.f.f.7.j.* * * d d r e e u u u g g g 8 8 8 N N N N N N N N m m 6 5 5 i y y 0 0 0 + + + 0 0 0 * * = { 7.^ ~ 6.7.6.O.7.U / 6.w.k.e.7.5.",
"l.*.^ X.k.M.l.7.*.X.[ / X.*.D.!.l.l.* * * d d r 0 0 y y y g g g 8 8 8 N N N N N N N N m m 6 5 5 i y y 0 0 0 + + + 0 0 0 * * = l.l.l.s.X.K J ~ X.%.%.%.%.&.9.%.^ ",
"G.l.7.*.6.X.[ ~ %...^ P J K ..d.d.X.. . . g g d d d p p p 4 4 4 m m m 8 8 8 8 8 8 8 8 8 8 b m m > @ @ 0 0 0 0 0 0 0 0 0 . . X 9.k.l.k.%.X.9.l.M.n.n.f.l.l.n.m.N.",
"K ^ X.6.%.6.d.l.s.7.*.X.[ ..d.I.k.... . . g g d d d p p p 4 4 4 m m m 8 8 8 8 8 8 8 8 8 8 b m m > @ @ 0 0 0 0 0 0 0 0 0 . . . X.k.d.7.X.6.l.l.9.d.O.[ X.[ ^ ] X.",
"X.s.k.l.s.7.k.M.Q.H.n.k.7.%.7.l.H.l.. . . g g h j j w w w 4 4 4 8 8 8 8 8 8 8 8 8 8 8 8 8 8 8 8 $ @ @ + + + 0 0 0 0 0 0 . . . n.7.7.7.7.7.7.7.s.l.*.X.7.s.[ ^ [ ",
"K ^ [ %.6.d.l.H.l.k.d.l.M.S.l.M.l.7.. . . g g h j j w w w 4 4 4 8 8 8 8 8 8 8 8 8 8 8 8 8 8 8 8 $ @ @ + + + 0 0 0 0 0 0 . . o 7.I K ^ d.6.^ ..k.d...] *.l.7.*.7.",
"l.s.7.6.6.X.^ P K Z Z ~ *.7.7.6.*.%.. . . g g h j j w w w 4 4 4 8 8 8 8 8 8 8 8 8 8 8 8 8 8 8 8 $ @ @ + + + 0 0 0 0 0 0 . . o 4.] ^ X.k.9.X.%.M.!.n.9.x.N.G.H.R.",
"7.d.k.H.R.!.H.l.M.k.7.k.l.l.d.7.l.k.. . . 0 0 k :.:.j j j d d d 0 0 0 7 7 8 8 8 8 8 8 8 8 $ @ @ + + + 0 0 0 0 0 0 + + + . . . K.I.G.l.l.M.H.H.G.9.9.7.&.%.*.%.7.",
"7.7.l.H.R.H.s.X.W F K ^ X.6.s.l.l.k.. . . 0 0 k :.:.j j j d d d 0 0 0 7 7 8 8 8 8 8 8 8 8 $ @ @ + + + 0 0 0 0 0 0 + + + . . . X.l.k.[ J _ G.l...%.f.H.m.l.l.n.n.",
"K ^ *.d.k.d.l.l.;.d.f.<.d.c.M.M.*.s.. . . 0 0 k :.:.j j j d d d 0 0 e 7 7 8 8 8 8 8 8 8 8 $ @ @ + + + 0 0 0 0 0 0 + + + . . X 6.^ / / { 7.m.L.J.n.M.%.7.d.7.%.F ",
"s.*.%.O.%.d.l.M.T.K.R.N.M.M.9.*.[ ~ U U O.. . t y y :.:.:.j j j g g g e e 7 7 7 8 8 8 @ @ q 0 0 y y y y y y @ @ @ . . . 6.k.l.k.M.f.X.K K ( 5.9.d.9.^ ^ =.f.K.l.",
"l.*.U K U [ X.%.Y ^ Y ^ X.d.d.d.x.d.O.X.X.. . t y y :.:.:.j j j g g g e 0 7 7 7 8 8 8 @ @ q 0 0 y y y y y y @ @ @ . . . H.H.S.6.7.d.k.f.l.M.N.H.f.G.f.n.G.9.7.U ",
"!.n.s.7.9.k.d.7.x.M.H.M.H.R.R.K.l.H.H.l.*.. . t y y :.:.:.j j j g g g e 0 7 7 7 8 8 8 @ @ q 0 0 y y y y y y @ @ @ . . . k.7...^ J [ s.x.d.X.P Z l.n.*.7.%.{ 7.=.",
"d.d.9.d.d.7.*.X.K { s.*...Y K K d.l.x.d.X.. . . . . y y y d d d g g g g g 0 0 0 + + + 0 0 y y y y y y 0 0 0 . . . . . . d.k.l.G.G.M.G.l.s.*.O.*.K =.l.K.x.X.[ ^ ",
"l.l.x.l.l.f.k.d.X.k.l.e.*.7.x.H.M.7.[ / X.. . . . . y y y d d d g g g g g 0 0 0 + + + 0 0 y y y y y y 0 0 0 . . . . . . ..) X.k.l.9.X.[ [ X.d.H.!.E.l.9.[ K %.d.",
"*.*.*.*.*.X.X.{ 6.=.O.~ Z K ..7.=./ Y [ l.. . . . . y y y d d d g g g g g e 0 0 + + + 0 0 y y y y y y 0 0 0 . . . . . . *.^  .6.B.f.5.=.%.X.*.6.9.l.d.N.H.9.l.d.",
"d.9.l.l.l.d.7.O.6.k.G.l.k.k.d.k.l.l.l.r.l.* * ^.(.(.X X X + + + y y y d d d d d d d d y y e 0 0 O + + . . . (.(.(.= = = K Z ~ j.J.n.0.r.l.9.=.9.d.9.[ 9.l.9.f.7.",
"K.9.[ / ~ S I 4.*.l.X.Z D %.l.l.5.X.( [ X.* * ^.(.(.. X X + + + y y y d d d d d d d d y y e 0 0 O + + . . . (.(.(.= = = l.l.f.d.=.%.*.v.N.f.=.=.=.*.*.*.=.d.k.d.",
"*.=.n.G.M.l.w.7.k.s.7.l.l.6...l.x.l.7.7.6.* * ^.(.(.X X X + + + y y y d d d d d d d d y y e 0 0 O + + . . . (.(.(.= = = 7.d.%.^ ^ U { l.N.k.,.7.d.c.N.R.R.x.7.*.",
"l.l.f.7.4.k.M.G./ ~ U *.7.~ K 7.7.l.H.d./ * * |. X X.X.X.X.X.X.XX X X . . . . . . . . . . . . . ). X X.X.X.X.X.X.X= = = R.E.M.7.H U X.f.x.=.=.7.f.f.M.f.7.6.=.7.",
"M.H.T.H.N.G.l.l.s.n.G.l.H.R.R.R.!.G.l.k.G.* * |. X X.X.X.X.X.X.XX X X . . . . . . . . . . . . . ). X X.X.X.X.X.X.X= = = l.7.9.f.l.l.M.K.M.k.d.l.s.=.%.[ [ { s.l.",
"X.^ ..6.%.~ ~ [ ~ k.l.O.7.l.k.X.X.X.{ ..[ ..X.< * * (.(.(..X.X.Xf f f  X X.X.X.X.X.X.X.X.Xf f f }. X X(.(.(.= = = n.K.M.&.X.d.K.H.T.N.l.7.X.*.7.=.s.d.f.n.x.f.9.",
"G.7.6.d.6.] [ d.^ X.[ ^ ..X.X.s.*.s.k.d.6.O.=.< * * (.(.(..X.X.Xf f f  X X.X.X.X.X.X.X.X.Xf f f }. X X(.(.(.= = = f.=.X.^ ^ X.d.l.l.d.6.[ / ..*.l.f.l.M.H.c.d.@.",
" . .6.k.d.X.U U 6...I ~ [ ^ X.G.Q.X.J P k.H.6.< * * (.(.(..X.X.Xf f f  X X.X.X.X.X.X.X.X.Xf f f }. X X(.(.(.= = = l.l.M.n.f.l.n.*.7.k.d.7.s.7.7.l.k.7.=.*.,.=.<.",
"]  .] P ~ *.x.M.f.H.G.l.G.l.s.k.d.k.s.O.[ ] ..< * * (.(.(.i.i.i.i.i.i.(.(.(.(.(.(.(.(.(.(.p.i.i.i.i.i.(.(.(.= = = I *.n.l.*.{ X.Z J ^ ..X...^ ~ *.*.s.7.=.d.f.N.",
"%.%.9.F.H.n.n.n.f.{ =.f.%.*.n.l.$.0.n.K.H.m.c.< * * (.(.(.i.i.i.i.i.i.(.(.(.(.(.(.(.(.(.(.p.i.i.i.i.i.(.(.(.= = = d.7.7.*.*.7.k.d.l.M.l.*.X.] ] 9.X.[ X.*.o.~ P ",
"f.X.I ^ =.9.l.9.=.{ d.;.[ [ 9.6.;.%.{ l.U.[.K.< * * (.(.(.i.i.i.i.i.i.(.(.(.(.(.(.(.(.(.(.p.i.i.i.i.i.(.(.(.= = = *.7.d.l.7.s.l.&.=.d.=.X.] Y R 9.*.X.[ ] [ O.>.",
"7.%.9.l.l.9.l.l.,.d.M.g.[ o.s.s.=.f.H.n.7.. . c l l * * * * * * * * * * * * * * * * * * * * * * * * * * * * z z z = = = ] U I U 9.f.l.f.d.=.s.7.[ *...K F ~ o.*.",
"K X.d.n.9.*.%.=.,.>.s.a.[ ' ..O.d.9.9.l.l.. . c l l * * * * * * * * * * * * * * * * * * * * * * * * * * * * z z z = = = X.6.d.H.9.f.f.d.=.*.O.O.d.H.M.*.O.7.x.l.",
"H.f.7.d.M.K.K.G.x.s.*.d.a.] ' 3.@.7.7.7.2.. . c l l * * * * * * * * * * * * * * * * * * * * * * * * * * * * z z z = = = U ^ *.k.N.M.n.d.7.*.X.| O.7.s.] ^ *.s.*.",
"d.6.[ ^ [ 7.s.=.*.X.' ] ..W D P %.x.Q.k.W . . 1 3 3 y y y y y y y y y y y 0 0 0 0 0 0 y y y y y y y y y y y 3 3 3 * * * %.*.d.d.0.f.n.l.x.d.d.d.s.d.>.X.6.M.H.n.",
"%.7.s.*.%.*.%.X.d.R.M.k.G.G.k.G.N.l.7.6.k.. . 1 3 3 y y y y y y y y y y y 0 0 0 0 0 0 y y y y y y y y y y y 3 3 3 * * * O.7.l.M.X.{ *.=.=.s.*.*.o.....O.=.7.d.9.",
"s.X.U U [ 6.] D Z d.9.^ 4.G.D.l.k.k.j...W . . 1 3 3 y y y y y y y y y y y 0 0 0 0 0 0 y y y y y y y y y y y 3 3 3 * * * *.7.d.k.f.0.d.d.7.O.[ Y O.u.d.H.T.M.9.d.",
"o.M.k.P J O.*.P V ( m.N.;.%.*.=.d.f.* * * m m % X X M M M 9 9 9 3 3 3 3 3 y y y 0 0 0 3 3 3 3 3 3 3 3 N N N = = = m m m = = ; 7.*.X.Y ^ =.M.M.s.0.9.*.f.K.4.U &.",
"M.s.7.d.d.O.*.k.m.n.f.7.d.M.M.f.f.f.* * * m m % X X M M M 9 9 9 3 3 3 3 3 y y y 0 0 0 3 3 3 3 3 3 3 3 N N N = = = m m m = = ; x.%.*.s.d.M.n.=.[ ^ *.X./ 7.=.^ ^ ",
"X.^ } k.*.Z P d.f.X.G F Y *.*.X.g.d.* * * m m x z z X X X M M M 1.1.1.{.{.N N N 8 8 8 1.1.1.1.1.B N N X X X l l l m m m = = = l.f.d.f.d.7.*.*.=.d.H.x.s.l.M.6.O.",
"[ *.7.9.*.[ ^ X.s.s.s.s.g.x.x.g.g.x.* * * m m x z z X X X M M M 1.1.1.{.{.N N N 8 8 8 1.1.1.1.1.B N N X X X l l l m m m = = ; d.T.f.7.*.X.{ 9.T.G.s.*.s.s.] F P ",
"H.n.d.d.G.K.d.U *.*.*.,.3.u.| O.] | * * * m m x z z X X X M M M 1.1.1.{.{.N N N 8 8 8 1.1.1.1.1.B N N X X X l l l m m m = = ; l.d.9.s.d.f.d.l.M.k.O.O.s.6.] ~ ' ",
"H.M.H.H.N.l.7.=.R.l.>.*.#.u.} o.U P P H U * * . . . . . . + + + 3 3 3 3 3 y y y 0 0 0 3 3 3 3 3 # @ @ . . . . . . * * * d.X.O.d.X.*.=.7.d.f.d.*.O.=.k.d.7.T.R.*.",
"n.M.K.R.H.9.d.n.l.*.X.O.| [ } O.d.X...%.*.* * . . . . . . + + + 3 3 3 3 3 y y y 0 0 0 3 3 3 3 3 # @ @ . . . . . . * * * *.O.X.O.[ =.*.{ X.d.d.%.U ^ X.X.[ f.l.^ ",
"l.%.I ^ 0.Q.0.K G ^ ,.l.7.| X.,.k.X.X.f.n.* * . . . . . . + + + 3 3 3 3 3 y y y 0 0 0 3 3 3 3 3 # @ @ . . . . . . * * * *.d.s.X.Y 7.l.=.7.N.M.*.n.%.f.K.l.9.9.` ",
"L.m.-.%.n.K.H.k.7.&.7.f.l.d.;.s.( T ( =.c.c.n.0.6.s.. . . 3 3 3 0 0 0 + + . . . . . . + + q 0 0 2 3 3 X X X 9.9.^ { %.*.5.=.7.d.7.H.R.7.{ *.X.U / 5.l.f.*.^ U ] ",
"0.8.%.+.9.G.K.H.4.%.=.n.N.N.n.h.`.m.=.9.H.L.n.*.U K . . . 3 3 3 0 0 0 + @ . . . . . . + + q 0 0 2 3 3 X X X X.4.[ G J %.M.l.7.=.l.N.f.X.X.9.H.H.N.n.n.l.9.7.d.G.",
"t.c.c.7.%.%.7.4.f.7.%.7.M.M.N.Z.5.7.4.{ X.9.e.9.M.H.. . . 3 3 3 0 0 0 + @ . . . . . . + + q 0 0 2 3 3 X X X 7.H.f.^ / M.!.M.7.7.=.d.l.f.d.l.l.f.F.n.n.M.H.l.d.9.",
"m.K.L.H.r.7.%.X.n.0.l.f.n.f.f.x.l.Q.Q.l.6.9.G.l.l.N.. . . m m m z z z 5 5 = = * * * * 4 4 v m m x z z X X X Q.n.9.9.M.!.E.l.d.n.H.M.9.X./ { l.R.G.M.M.H.M.9.X.[ ",
"<.d.n.N.N.D.n.H.4.d.H.'.R.c.=.=.k.e.7.6.l.P.G.k.7.*.. . . m m m z z z 5 5 * * * * * * 4 4 v m m x z z X X X n.9.X.d.H.n.9.7.=.9.d.n.M.l.*.7.n.'.K.N.n.n.d.7.=.d.",
"9.7.*.=.7.7.e.D.%.5.9.f.f.d.f.M.l.k.l.n.G.R.H.H.n.n.. . . m m m z z z 5 5 * * * * * * 4 4 v m m x z z X X X X.%.9.l.9.*.X.=.X.K U 9.!.'.K.l.9.*.*.7.d.l.9.7.9.n.",
"=.*.*.6.%.{ X.7.n.7.%.X.=.;.h.N.d.,.9.s.{ K G [ %.l.. . . , , , , , , . . H.=.I ^ 4.G.. . : , , , , , . . . 4.H.R.N.l.d.l.l.{ I 7.M.H.9.*.7.d.*.^ ..7.d.9.%.7.9.",
"R [ s.n.M.r.n.H.K.n.d.n.R.N.f.,.=.U U *.h.d.d.f.K.N.. . . , , , , , , . . n.f.7.w.2.q.. . : , , , , , . . . H.H.H.l.n.R.!.N.l.l.*.l.n.7.s.n.f.X.M.d.7.*.X.X.9.N.",
"F K Y d.l.%.X.D.L.m.n.m.;.@.%.0.V.m.&.( &.F.!.U.F.n.8.@./ . . . . . . n.7.X.5.f.r.9.f.F.n.; . . . . . ;.=.*.;.d.t.n.n.F.B.F.n.y.v.d.<.f.=.^ ..6.=.;.;.&.;.;.c.n.",
"U [ X.l.R.H.n.I.n.l.7.{ %.;.n.V.n.m.N.F.H.K.m.r.N.n.n.n.F.. . . . . . *.I I 9.n.Y I K ^ 9.; . . . . . l.d.7.d.f.F.7.( %.9.n.9./ Y %.f.*.U F [ l.9.9.9.f.N.m.n.n.",
"v.M.d.=.9.%.^ ^ l.D.n.l.D.'.'.N.m.f.&.%.%.5.l.H.` %.=.5.f.. . . . . . m.7.=.9.7.9.f.%.X.9.; . . . . . k.=.4.6.9.E.r.%.%.n.K.H.n.N.<.{ [ [ X.^ U l.d.7.d.l.f.7.{ ",
"=.f.=.X.%.k.k.D.6.w.k.k.G.M.l.%.f.l.N.K.H.d.9.D.n.K.H.l.F.'.!.n.!.l.9.*.X.l.K.N.Q.'.'.M.9.7.=.6.l.k.7.6.6.7.9.k.l.f.9.7.=.9.n.E.{ X.*.9.f.d.M.].l.d.*.X.O.O.O.X.",
"=.H.l.X.{ %.*.7.w.6.X.4.6.X.*.9.L.K.K.E.n.4.%.k.%.9.d.%.{ 7.9.X.9.{ 7.R.H.f.7.%.*.7.l.n.=.^ / *.D.7.4.*.e.G.H.H.l.H.H.l.%.X.7.n.T.d.f.H.M.X.{ d.X.O.*.*.*.*.d.x.",
"C { &.*.7.7.k.G.k.6.6.l.M.9.d.H.N.f.=.[ ^ U X.7.[ d.n.9.=.7.7.=.n.O.=.7.[ U 7.H.*.[ O.d.l.=.O.7.d.2.[ ..7.l.M.G.K.K.N.M.l.9.f.k.=.K J *.N.f.=.*.U X.l.l.7.6.7.l.",
"c.L.L.M.f.6.X.6.X.X.*.7.f.d.=.*.E %.d.e.9.6.X.../ *.9.l.d.7.=.d.6.*.G.H.=...*.d.H.d.%.6.d.k.9.7.*.%.*.*.7.9.9.=.d.7.%.*.7.=.*.%.^ *.f.7.[ Y [ { ! *.D.M.e.%.%.9.",
"f.n.9.7.7.%.O.k.x.d.| U [ ,.=.{ =.d.=.X.[ 6.*.2.=.6.s.d.7.7.s.n.x.l.l.s.[ 6.d.7.O.*.] J U O.d.7.f.v.K.V.N.f.d.f.s.9.s.%.X.] / [ ~ 4.*.^ *.N.N.#./ 5.n.D.9.5.k.D."
};
