/* XPM */
static char *_e6e12a77bf24bcebbc84817a6c7edb8knMqAcf1NzxUFVfH[] = {
/* columns rows colors chars-per-pixel */
"80 80 197 2 ",
"   c #1F160C",
".  c #1E180D",
"X  c #1E1812",
"o  c #1E1A19",
"O  c #24160E",
"+  c #24190E",
"@  c #281A0D",
"#  c #241B13",
"$  c #261A15",
"%  c #211A1B",
"&  c #28201C",
"*  c #3A2619",
"=  c #3C2919",
"-  c #4B3119",
";  c #673B13",
":  c #663A17",
">  c #6A3C13",
",  c #6A3C19",
"<  c #723C11",
"1  c #453826",
"2  c #5F431F",
"3  c #65411C",
"4  c #6D411C",
"5  c #704319",
"6  c #77471B",
"7  c #5D4325",
"8  c #624221",
"9  c #6C4827",
"0  c #7D4B21",
"q  c #694D34",
"w  c #6A4938",
"e  c #754B3F",
"r  c #68553E",
"t  c #71563B",
"y  c #73583B",
"u  c #2D2D44",
"i  c #313147",
"p  c #353A50",
"a  c #3B3A50",
"s  c #413C4E",
"d  c #50394C",
"f  c #673649",
"g  c #6B3848",
"h  c #7B334D",
"j  c #5A4646",
"k  c #46465E",
"l  c #4B465C",
"z  c #574054",
"x  c #6D4942",
"c  c #724A40",
"v  c #6C5645",
"b  c #785945",
"n  c #77505B",
"m  c #7E644D",
"M  c #414460",
"N  c #E53F38",
"B  c #F03F36",
"V  c #80501C",
"C  c #864F24",
"Z  c #875529",
"A  c #895429",
"S  c #A65A3F",
"D  c #B35E3F",
"F  c #9B672B",
"G  c #9D662B",
"H  c #8B653B",
"J  c #9A6636",
"K  c #9C6B33",
"L  c #96683B",
"P  c #9C6D3C",
"I  c #9E703C",
"U  c #A2692F",
"Y  c #A36C37",
"T  c #A46D35",
"R  c #A97539",
"E  c #DF6E16",
"W  c #DD7011",
"Q  c #E74837",
"!  c #8F2F44",
"~  c #9E2B42",
"^  c #87394C",
"/  c #A42A41",
"(  c #A73144",
")  c #C92749",
"_  c #CB2A4A",
"`  c #D2294A",
"'  c #D43146",
"]  c #D93246",
"[  c #E53746",
"{  c #E63846",
"}  c #EA3B46",
"|  c #81554A",
" . c #A65A41",
".. c #816347",
"X. c #85694E",
"o. c #966B43",
"O. c #986A41",
"+. c #9C7346",
"@. c #9A7954",
"#. c #A27543",
"$. c #B47E45",
"%. c #B27875",
"&. c #F7534C",
"*. c #FA564D",
"=. c #FC594E",
"-. c #FC6457",
";. c #FD695A",
":. c #ED931E",
">. c #E38722",
",. c #F1AB28",
"<. c #F1B12B",
"1. c #F2B82E",
"2. c #F7D139",
"3. c #F9D239",
"4. c #98845C",
"5. c #BE824E",
"6. c #BC8251",
"7. c #BF8C54",
"8. c #B78559",
"9. c #BB8B5B",
"0. c #BF9057",
"q. c #BE905A",
"w. c #9C8664",
"e. c #9C8A64",
"r. c #A68864",
"t. c #A48C64",
"y. c #A48D6C",
"u. c #AC8E6C",
"i. c #B48E6C",
"p. c #A4926C",
"a. c #AC936C",
"s. c #B5976C",
"d. c #AC8E74",
"f. c #AC9574",
"g. c #AC9B74",
"h. c #AA987A",
"j. c #B49574",
"k. c #B49B74",
"l. c #BC9C74",
"z. c #B4967C",
"x. c #B49D7C",
"c. c #BC9E7C",
"v. c #ACA27C",
"b. c #B5A374",
"n. c #B4A27C",
"m. c #BCA37C",
"M. c #BCAA7C",
"N. c #C08C54",
"B. c #C1935D",
"V. c #C39561",
"C. c #FF8575",
"Z. c #FF8877",
"A. c #FF8A78",
"S. c #C4A57C",
"D. c #C4AA7C",
"F. c #D4A671",
"G. c #F8CF76",
"H. c #FEE47B",
"J. c #AD8180",
"K. c #B28686",
"L. c #B99E84",
"P. c #B2938B",
"I. c #B4A484",
"U. c #BCA584",
"Y. c #BCAA84",
"T. c #B7A789",
"R. c #BCAC8C",
"E. c #BCB28C",
"W. c #C49E84",
"Q. c #F59784",
"!. c #C4A684",
"~. c #C4AB84",
"^. c #CCAC84",
"/. c #C4A68C",
"(. c #C4AD8C",
"). c #CCAE8C",
"_. c #C4B284",
"`. c #C4B28C",
"'. c #CAB789",
"]. c #CCB38C",
"[. c #D4B68C",
"{. c #CAAE94",
"}. c #C4B394",
"|. c #CCB594",
" X c #CCBB94",
".X c #CABA9A",
"XX c #D4B694",
"oX c #D4BB94",
"OX c #D4B69C",
"+X c #D4BC9C",
"@X c #F6AE9F",
"#X c #CCC29C",
"$X c #D5C39B",
"%X c #F0C18F",
"&X c #FDCAAF",
"*X c #FFCBB0",
"=X c #FFD1B4",
/* pixels */
"(.`.(.`.]. XoX|.].(.(.~.(.].(.m.U.~.(.~.n.(.|. X].U.c.f.U.].(.U.Y.(.(.]. X].~.(.!.m.k.k.k.!.(.~.~.n.f.g.U.|.(.(.f.y.x.}.].XX|.].|.(.!.`.|.(.oXoXoX+X(.(.|.|.|.(.",
"c.U.].(.~.(.Y.~.(.]. X X].`.].(.~.(.~.|.`.Y.Y.~.U.m.m.U.`.].n.x.~.|.XX].(.U.m.U.m.!.~.`.).~.Y.m.m.~.(.(.+X(.R.U.x.g.U.OXx.x.U.n.f.k.f.(.(.c.(.(.x.x.k.x.k.x.x.k.",
"(.(.].).Y.!.U.m.U.].|.(.U.k.k.].Y.n.k.m.|.Y.U.`.m.x.m.`.~.x.f.f.x.(.(.~.U.k.x.m.(.~.].|._.~.b.a.y.k.U.m.y.f.(.|.`.|.].U.|.U.~.U.j.~.f.x.k.f.x.x.!.m.(.~.U.c.m.m.",
"r.k.x.x.m.~.(.].U.k.f.x.m.(.U.(.(.~.Y.(.Y.Y.`.].m.x.j.|.(.].`.~.(.m.a a a a a a a a a a a a D.~.~.~.`.|.!.n.~.~.f.m.Y.m.z.U.(.~.x.a.U.x.p.f.f.x.|.+Xy.u.(.|.U.y.",
"_.m.m.Y.!.m.].U.~.~.(.~.U.U.m.m.m.~.~.% $ # @ @ @ @ @ @ @ @ @ @ @ @ a a a a a a a a a a a a @ @ @ @ @ @ @ @ @ @ @ @ # $ & Y.}.|.`.`.~.k.m.~.m.`.(.b.`. X|.`._.!.",
"~.!.(.].~.m.U.~.`.].U.p.k.~.).!.m.U.!.% j m ............y y y X.y t p p p p p p p p p p p p t t t t t t t t t t t t t v & p.f.m.Y.Y.m.k.~.M.k.Y.U.M.k.(..X$X Xn.",
"n.~.].~.U.n.].(.~.m.m.c.m.U.c.k.k.k.k.# b i.6.8.9.9.9.9.a a a g g g *.*.*.*.*.*.*.*.*.{ { { g g g a a a I I I I I P I +.= % (.(.Y.(.S.~.].^.c.!.!.m.|.`.U.x.b.~.",
"~.m.k.a.y.t.U.[.(.~.~.~.m.k.k.!.~.~.).@ b 9.5.5.6.6.6.6.a a a g g g *.*.*.*.*.*.*.*.*.{ { { g g g a a a T T T T T T T L = % `.Y.m.m.S.S.!.!.j.x.c.~.Y.(.(.(.~.m.",
"~.~.U.U.~.m.U.a.k.m.~.].oXoX).~.m.m.m.@ b 8.6.C A A Z Z a a a g g g *.*.*.*.*.*.*.*.*.{ { { g g g a a a 0 0 0 6 6 V K H = % f.k.U.m.m.x.j.j.d.r.u.n.+X(.d.r.f.~.",
").(.~.~.~.~.].oX|.].].`.~.m.].~.!.!.m.@ b 8.6.> > a a a ~ ~ ~ *.*.*.C.C.C.;.;.;.{ { { ] ] ] _ _ _ ~ ~ ~ a a a , > < J O.= o m.n.m.x.~.oX].(.|.(.|.].U.U.(.(.(.].",
"k.~.].|.~.x.f.m.].+XoX~.~.].U.m.~.(.).# b 8.5.> , a a a ~ ~ ~ *.*.*.C.C.C.;.;.;.{ { { ] ] ] _ _ _ ~ ~ ~ a a a 4 , < J P = % a.k.U.r.w.~.Y.f.|.}.(.(./.x.d.y.f.~.",
"h.(.M.m.m.!.XX[.].~.x.f.c.m.U.m.!.U.U.# b 8.6.> , p p p ~ ~ ~ &.&.&.C.C.C.;.;.;.[ [ [ ] ] ] _ _ _ ~ ~ ~ p p p 5 , < J L = o u.y.c.u.4.g.`.].n.m.m.~.M.U.k.a.f._.",
"].~.M.!.m.!.{.y.a.x.S.~.).].].f.k.~.].D D D a a a ~ ~ ~ ] ] ] C.C.C.;.;.;.;.;.;.*.*.*.{ { { _ _ _ _ _ _ ~ ~ ~ a a a J P = % ~.~.c.(.`.`.~.U.].].~.~.Y.m.m.U.(.~.",
"c.j.s.m.~.|.`.`.~.!.m.~.).~.j.~.(.c.a.D D D a a a ~ ~ ~ ] ] ] C.C.C.;.;.;.;.;.;.*.*.*.{ { { _ _ _ _ _ _ ~ ~ ~ a a a J L = % Y.m.k.x.!.!.!.!.).).^.^.^.c.c.S.!.s.",
").^.!.^.].|.I.~.!.m.(.].(.S.U.m.c.x.c.D D D a a a ~ ~ ~ ] ] ] C.C.C.;.;.;.;.;.;.*.*.*.{ { { _ _ _ _ _ _ ~ ~ ~ a a a J P = % ~.|. Xa.m.m.m.S.W.l.c.j.l.j.k.!.).[.",
"[.j.a.f.m.U.x.].~.!.m.m.m.x.(.(.D D D <.<.<.k k k _ _ _ { { { ;.;.;.;.;.;.*.*.*.*.*.*.*.*.*.{ { { _ _ _ _ _ _ k k k g g g % |.].(.m.oX(.S.m.W.l.c.a.u.u.a.l.^.s.",
"`.~.D.m.k.a.r.!.m.k.j.!.(.].l.~.D D D <.<.<.k k k _ _ _ { { { ;.;.;.;.;.;.*.*.*.*.*.*.*.*.*.{ { { _ _ _ _ _ _ k k k g g g % oX|.Y.`.(.m.x.c.k.l.c.~.x.n.m.m.M.~.",
"Y.!.~.(.Y.U.Y. XU.m.(.m.x.m.m.f.S S S 1.1.1.l l l _ _ _ } } } -.-.-.-.-.-.*.*.*.*.*.*.*.*.*.} } } _ _ _ _ _ _ l l l f f f n n n  X(.U.n.U.~.~.M.!.g.g.m._._.`.U.",
"m.y.y.g.U.`.(.].~.U.Y.m.U.|.|.f.c c c 2.2.2.g g g _ _ _ *.*.*.*.*.*.*.*.*.*.*.*.*.*.*.*.*.*.*.*.*.] ] ] _ _ _ g g g a a a g g g |.|.I.n.m.`.].`.^.$Xm.Y.|. X`.a.",
"Y.|.].(.!.m.(.`.(.m.~.oX].Y.].].c c c 2.2.2.g g g _ _ _ *.*.*.*.*.*.*.*.*.*.*.*.*.*.*.*.*.*.*.*.*.] ] ] _ _ _ g g g a a a g g g n.I.~.U.n.U.].].[.I.I.k.x.Y.R.].",
"(.].|.Y.k.g.].U.m.x.n. X(.g.Y.k.c c c 2.2.2.g g g _ _ _ *.*.*.*.*.*.*.*.*.*.*.*.*.*.*.*.*.*.*.*.*.] ] ] _ _ _ g g g a a a g g g U.x.`.Y.(.~.~.~.).(.+X(.U.Y.|.(.",
"(.m.k.a.g.U.(.U.(.~.n.U.].`.~.].a a a :.:.:.g g g _ _ _ *.*.*.*.*.*.*.*.*.*.*.*.*.*.*.*.*.*.*.*.*.{ { { ~ ~ ~ g g g ~ ~ ~ k k k }.|.I.~.|.$X_.m.m.(.U.U.(..X|.U.",
"k.(.`.U.m.U.XXU.n.x.Y.|.m.p.f.|.a a a :.:.:.g g g _ _ _ *.*.*.*.*.*.*.*.*.*.*.*.*.*.*.*.*.*.*.*.*.{ { { ~ ~ ~ g g g ~ ~ ~ k k k k.U.`.U.n.x.M.^.].~.Y.!.k.y.t.n.",
"~.].`.U.Y.~.a.~.~.~.`.`.~.U.T.T.a a a :.:.:.g g g _ _ _ *.*.*.*.*.*.*.*.*.*.*.*.*.*.*.*.*.*.=.=.=.{ { { ~ ~ ~ g g g ~ ~ ~ k k k R.|. X`.~.`.].~.S.m.a.m.^.~.~. X",
".X`.I.b.g.g.}. XY.Y.`.x.I.~.R.~.a a a W W W ~ ~ ~ ] ] ] *.*.*.*.*.*.*.*.*.*.*.*.*.*.*.*.*.*.{ { { ] ] ] ~ ~ ~ g g g ~ ~ ~ a a a n.}. X`.`.`.b.n.Y.'.n.g.n.}.+X}.",
"R.`.`.`.}. X+XY.U.R.m.p.Y.`.a.y.a a a W W W ~ ~ ~ ] ] ] *.*.*.*.*.*.*.*.*.*.*.*.*.*.*.*.*.*.{ { { ] ] ] ~ ~ ~ g g g ~ ~ ~ a a a |..X`.(.U.k.M.`.'.`.].}.|. X`.].",
"}. X|.(.}.$X`.+X(.Y.m.(. X].+X$Xa a a W W W ~ ~ ~ ] ] ] *.*.*.*.*.*.*.*.*.*.*.*.*.*.*.*.*.*.{ { { ] ] ] ~ ~ ~ ! ! ! ~ ~ ~ a a a (.}.U.T.(.(.].(.n.~.]. X|.~.Y.`.",
"(.Y.~.n.k.U.x.Y.k.U.oX~.U.n.m.(.a a a W W W ~ ~ ~ ] ] ] *.*.*.*.*.*.*.*.*.*.*.*.*.*.*.*.*.*.{ { { ] ] ] ~ ~ ~ ~ ~ ~ ~ ~ ~ a a a n.U.T.U.x.I.x.m.Y. X XoX`.I.n.n.",
"U.~.`.Y.m.U.m.`.c.m.U.a.U.|.m.c.a a a W W W ~ ~ ~ ] ] ] *.*.*.*.*.*.*.*.*.*.*.*.*.*.*.*.*.*.{ { { ] ] ] ~ ~ ~ ~ ~ ~ ~ ~ ~ a a a U.|.(.U.U.(.Y.~.|.].m.k.f.a.x.k.",
"x.m.Y.(.~.U.~.U.m.|.|.x.m.~.|.n.a a a E E E ( ( ( ' ' ' &.&.&.*.*.*.*.*.*.*.*.*.&.&.&.&.&.&.[ [ [ ' ' ' ~ ~ ~ ~ ~ ~ ~ ~ ~ a a a U.U.x.x.m.U.~.m.m.s.~.R.Y.U.x.g.",
"L.U.!.~.U.U.`.).(.(.!.U.~.U.c.j.a a a *.*.*.;.;.;.~ ~ ~ { { { *.*.*.*.*.*.*.*.*.{ { { ] ] ] _ _ _ ~ ~ ~ ~ ~ ~ ~ ~ ~ ~ ~ ~ a a a n.(.).~.l.a.S.m.k.m.m.x.k.U.m.m.",
"`.Y.~._.(.~.`.f.k.Y.m.m.k.m.Y.`.a a a *.*.*.;.;.;.~ ~ ~ { { { *.*.*.*.*.*.*.*.*.{ { { ] ] ] _ _ _ ~ ~ ~ ~ ~ ~ ~ ~ ~ ~ ~ ~ a a a j.!.U.n.m.~.U.k.f.~.x.U.~.U.~.~.",
"(.m.m.m.U.m.m.U.U.|.U.(.U.`.U.(.a a a ~ ~ ~ ) ) ) } } } *.*.*.C.C.C.C.C.C.;.;.;.Z.Z.Z.;.;.;.;.;.;.} } } _ _ _ ~ ~ ~ g g g a a a f.U.~.m.x.m.!.U.m.m.a.m.U.x.m.(.",
"~.(.Y.~.`.].(.x.x.U.U.(.U.x.U.m.a a a ~ ~ ~ _ _ _ { { { *.*.*.C.C.C.C.C.C.;.;.;.C.C.C.;.;.;.;.;.;.{ { { _ _ _ ~ ~ ~ g g g a a a m.n.~.x.f.k.Y.~.~.U.(.~.U.!.Y.oX",
"U.k.f.g.m.Y.m.f.h.(.}.+Xx.f.c.U.a a a ~ ~ ~ _ _ _ { { { *.*.*.C.C.C.C.C.C.;.;.;.C.C.C.;.;.;.;.;.;.{ { { _ _ _ ~ ~ ~ g g g a a a ~.x.U.x.k.x.!.U.m.U.].(.U.m.U.b.",
"(.].~.~.~.(.(.U.(.oX].`.(.(.a.m.u u u / / / ` ` ` } } } =.=.=.A.A.A.A.A.A.;.;.;.A.A.A.;.;.;.;.;.;.} } } ` ` ` / / / g g g u u u }.U.m.!.~.].U.x.m.~.U.~.!.x.c.].",
"x.].~.n.k.x.]. X~.Y.b.].n.a.I.|.Y.R.Y.a a a g g g ~ ~ ~ _ _ _ { { { { { { { { { { { { { { { _ _ _ ~ ~ ~ g g g a a a a a a % (.~.(.f.U.~.~.U.a.U.oX~.k.t.f.|.oXY.",
"Y.U.`.|.`.Y.R.m.`.[.].M._.].v.`.c.u.f.a a a g g g ~ ~ ~ _ _ _ { { { { { { { { { { { { { { { _ _ _ ~ ~ ~ g g g a a a a a a % I.n.n.`.m.~.~.U.m.Y.].x.].Y.m.`.].g.",
"~.Y.U.U.Y.Y.f.~.`.].`.`.`.]. Xn.t.y.m.a a a z z z f f f h h h ^ ^ ^ ^ ^ ^ ^ ^ ^ ^ ^ ^ ^ ^ ^ h h h f f f d d d j j j k k k % `.~.U.(.~.~.Y.m.m.).oXn.(.m.m.~.~.`.",
"|.|.`.Y.I.U.R.oX X|._.(.`.`.Y.f.t.f.~.+ q P k k k a a a a a a a a a a a a a a a a a a a a a a a a a a a a a a c c e k k k o Y.x.g.`.~.`.].].U.m.m.(.].(.~.`.].`.",
"`.g.y.p.U.].I.m.(.`.`.`.|.|.|.(.R.~.`.@ q P k k k a a a a a a a a a a a a a a a a a a a a a a a a a a a a a a c e e k k k o U.~.U.~.`.S.x.k.x.!.].~.m.m.m.m.~.U.",
"].`.U.n.I.n.y.Y.`.|.|.`.(.Y.).k.n.Y.E.@ q P k k k a a a a a a a a a a a a a a a a a a a a a a a a a a a a a a c c e k k k o U.~.~.~.].m.x.k.k.k.m.(.Y.~.Y.~.(.+X",
"~.n.U.(.~.(.oX}.|.|.`.(.Y.x.k.x.Y. X X@ q P k k k &X&X&Xa a a &X&X&X*X*X*X*X*X*X*X*X*X*X*X*X@X@X@Xc c c c c c k k k J O.= o ~.U.U.~.g.a.k.~.~.(.].M.m.n.m.Y.Y.f.",
"_.`.R.Y.Y.I.g.}.(.(.(. X(.I.i.m.I.I.I.+ q P k k k &X&X&Xa a a &X&X&X*X*X*X*X*X*X*X*X*X*X*X*X@X@X@Xc c c c c c k k k J O.= o |.].!.U.].~.m.(.~.~.(.~.~.~.Y.].].}.",
" XU.R.}.R.x.(.n.m.n.g.f.k.U.`.a.t.n.M.+ q P a a a &X&X&X| | | &X&X&X*X*X*X*X*X*X*X*X*X@X@X@X@X@X@Xc c c c c c a a a J P = o c.f.a.a.U.~.U.n.Y.x.a.g.Y.Y.U.n.`.U.",
"~.U.U.~.U.x.m.(.U.c.g.m.~.].x.U.R.m.x.+ q P a a a &X&X&X| | | &X&X&X*X*X*X*X*X*X*X*X*X@X@X@X@X@X@Xc c c c c c a a a J P = o j.j.m.].(.].(.~.`.].(.`.}.`.`.`.R.U.",
"x.m.m.m.U.m.n.c.m.~.).).U.x.{.x.!.U.|.+ q P a a a &X&X&X| | | &X&X&X*X*X*X*X*X*X*X*X*X@X@X@X@X@X@Xc c c c c c a a a J O.= o x.k.U.oXU.).].(.U.c.k.k.].m.y.w.t.U.",
"m.x.x.~.(.].|.U.k.y.y.m.(.].(.z.x.x.U.+ q P i i i =X=X=Xb b b *X*X*X*X*X*X*X*X*X*X*X*X@X@X@X@X@X@Xw w w e e e i i i J O.= o m.(.].c.y.j.x.c.m.m.x.`.`.(.~.m.U.n.",
"m.~.~.~.~.~.S.U.!.).[.XX].(.j.g.x.a.y.+ q P T > ; a a a Q.Q.Q.Q.Q.Q.@X@X@X*X*X*X*X*X*X*X*X*X@X@X@X@X@X@Xa a a 5 , > J O.= o j.k.c.x.S.U.!.U.U.).|.~.~.(.].|.~.).",
"m.S.~.S.!.~.].).~.!.!.S.m.!.^.m.l.].].+ q P T > ; a a a Q.Q.Q.Q.Q.Q.@X@X@X*X*X*X*X*X*X*X*X*X@X@X@X@X@X@Xa a a 5 , > J O.= o m.~.).m.x.l.x.c.S.U.!.!.k.f.j.x.x.m.",
"(.f.u.y.y.j.l.a.x.m.c.a.f.k.U.c.x.k.j.+ q P T > ; a a a %.%.%.%.%.%.K.K.K.P.P.P.P.P.P.P.P.P.J.J.J.J.J.J.a a a 5 , > J O.= o U.(.].m.m.l.k.s.a.a.a.a.f.k.U.~.).k.",
"~.~.(.].].^.c.U.!.!.m.!.).].U.m.c.k.u.+ q P T > ; Z T G k k k k k k k k k a a a a a a a a a a a a a a a 7.T U 5 , > J O.= o U.~.(.m.(.~.!.U.U.~.~.~.U.~.(.).`.U.",
"U.f.k.c.(.).).l.m.m.~.~.U.m.c.U.(.].].+ q P T > ; Z T G k k k k k k k k k a a a a a a a a a a a a a a a 7.T U 5 , > J O.= o k.c.m.!.y.y.u.a.m.(.).}.(.~.~.U.m.p.",
"~.].Y.m.x.x.c.x.U.~.).).!.m.m.f.k.U.m.@ q P T > ; Z T G a a a _ _ _ c c c 3.3.3.:.:.:.c c c ~ ~ ~ a a a N.T U 5 , > J O.= o c.U.!.).XX|.|.{.|..XXXXXXX].(.~.~. X",
"(.+X X|.`.U.a.c.c.m.x.x.m.~.!.~.(.).U.@ q P T > ; Z T G a a a _ _ _ c c c 2.2.2.:.:.:.c c c ~ ~ ~ a a a N.T U 5 , > J O.= o ].!.c.k.f.j.x.x.U.U.m.k.n.U.m.U.~.$X",
"oX X`.`.].|.|.~.).].XX~.!.m.(.).~.x.a.@ q P T > ; Z T G a a a _ _ _ c c c 2.2.2.:.:.:.c c c ~ ~ ~ a a a N.T U 5 , > J O.= o (.!.U.(.].].].].!.m.c.(.).].|.|.|. X",
"oX|.`.].|.].|.XX].(.].|.].^.(.(.U.a.u.@ q P T > ; Z T G  . . .G.G.G.l l l Q Q Q Q Q Q s s s >.>.>.x x x N.T U 5 , > J O.= o k.k.k.).U.S.~.~.~.^.].|.|. XoXoXoX X",
"f.m.U.k.a.a.m.M.Y.D.m.j.d.u.f.~.^.]. X+ q P T > ; Z T G D D D H.H.H.k k k N N N N N N a a a :.:.:.c c c 7.T U 5 , > J P = o }.`.E.#X].M.m.m.m.m.S.x.(.(.U.x.f.m.",
"w.m.h.f.f.k.U.Y.~.~.].).!.c.m.Y.m.U.m.@ q P T > ; Z T G D D D H.H.H.k k k Q N N N N N a a a :.:.:.c c c 7.T U 5 , > J P = o m.U.m.n.f.f.f.f.f.j.x.U.h.u.w.4.w.U.",
"x.j.x.U.U.x.w.k.x.U.).m.c.j.n.!.).(.~.+ q P T ; ; A T G a a a N N N k k k <.<.<.<.<.<.k k k _ _ _ a a a 7.T U 5 , > J O.= o ).S.x.m./.U.!.(.(.c.f.k.U.U.~.(.U.f.",
"U.m.j.x.U.(.|.n.c.m.~.!.~.).(.f.a.f.k.@ q P T ; ; A T G a a a N N N k k k <.<.<.<.<.<.k k k _ _ _ a a a 7.T U 5 , > J O.= o k.j.u.u.x.x.x.x.L.L.x.f.U.U.(.].~.(.",
"m.f.x.).+X|.U.U.m.U.~.m.m.m.(.y.t.f.k.@ q P T ; ; A T G a a a N N N k k k <.<.<.<.<.<.k k k _ _ _ a a a 7.T U 5 , > J O.= o m.(.(.k.y.c.).(.x.U.(.].~.x.m.(.R.f.",
"U.f.f.x.x.x.U.f.d.f.U.j.a.a.U.x.U.(.|.@ q P T ; ; A T G a a a N N N k k k <.<.<.,.,.,.k k k _ _ _ a a a 7.T U 5 , > J O.= o !.(.).U.j.~.].!.a.p.a.n.f.y.f.U.(.U.",
"U.U.m.Y.R.Y.`.`.Y.(.+XY.n.].E.n.f.g.U.@ q P T > ; A T G a a a N N N k k k <.<.<.:.:.:.k k k _ _ _ a a a 7.T U 5 , > J O.= o x.(.].U.m.x.k.g.m.}.+X(.(.(.U.I.U.~.",
"f.~.`.|.oX X}.m.f.p.m.U.U.~.`..X`.~.~.@ q P T > ; A T G a a a N N N k k k <.<.<.:.:.:.k k k _ _ _ a a a 7.T U 5 , > J O.= o m.U.x.f.n.x.f.u.y.x.~.~.a.y.w.w.y.U.",
"`.m.x.x.I.`.Y.U.n.U.`.(.~.Y.I.~.U.m.x.@ q P T > ; A T G V.q.F.p p p _ _ _ k k k M M M a a a p p p %XB.B.0.T U 4 , > J O.= % U.n.U.(.!.U.m.x.x.~..X(.y.y.g.U.~.x.",
"/.(.~.m.(. XY.a.m.~.U.a.g.x.~.f.k.U.m.@ q P T ; ; A T G V.q.F.a a a _ _ _ k k k k k k a a a a a a %XB.B.0.T U 4 , > J O.= % (.!.U.].+X|.`.(.n.U.(.|.n.U.~.(.Y.~.",
"+X|.(.!.~.].~.~.(.].].[.].(.x.(.~.U.m.@ q P T ; ; A T G V.q.F.a a a _ _ _ k k k k k k a a a a a a %XB.B.q.T U 4 , > J O.= % U.U.x.u.y.w.w.f.U.U.U.m.U.(.`.].|. X",
"~.~.x.f.f.k.c.u.f.k.!.x.f.t.m.|.(.U.Y.@ q P T ; ; A T G V.q.F.a a a Q Q Q B B B ` ` ` / / / a a a F.B.B.q.K U 5 , > J O.= % |.oX+X(.].(.U.(.(.~.U.(.U.U.U.U.U.`.",
"|.(.].|.].c.a.u.u.j.j.u.j.!.].(.n.n.Y.@ q P T > > Z T G B.B.q.a a a N N N N N N _ _ _ ~ ~ ~ a a a 7.7.q.q.K U 5 , > J L = % |.oX|.x.d.t.y.f.U.!.(.(.Y.(.(.(.(.(.",
"a.a.g.x.m.Y.(.U.g.e.f.U.p.p.|.Y.n.U.`.+ q P T > ; Z T G $.R $.a a a N N N N N N _ _ _ ~ ~ ~ a a a $.R $.R F G 4 : > J L = % ~.(.~.(.M.~.~.D._.].].m.!.!.c.k.j.y.",
"m.`.|.oX|.`.~.`.~.U.~.Y.U.].U.Y.Y.`.|.+ q P Y , ; Z Y F K F K K F F a a a c c c c c c c c c a a a K F T F F K 4 : , L o.= % c.n.~.].XX XoX].].Y.m.k.a.a.c.U.U.~.",
"m.m.U.m.x.n.`.U.U.k.x.x.a.a.n.m.x.k.g.  r @.+.: 3 H +.+.#.#.#.#.#.#.a a a c c c c c c c c c a a a #.I #.#.#.#.9 8 3 o.@.= % U.Y.(.U.).].|.].oXoX X(.|.(.m.k.x.m.",
"n.m.U.n.n.m.].|.].~.(.U.k.g.n. XoX XoX& 1 7 8 - - - 7 8 8 7 7 8 8 8 a a a c c c c c c c c c a a a 8 : 8 3 3 2 - - - 7 7 * % ~.~.U.x.y.k.!.m.a.y.y.~.).~.x.f.k.U.",
"n.Y.~.Y.U.m.x.U.~.U.k.a.u.k.j.U.U.!.Y.$ #   + # # X   + . . . . .   + + + a a a a a a a a a + + + + O + O     X # # + # $ % (.(.~.~.x.(.(.R.U.).|.].k.g.x.m.m.U.",
"|.(.(.].`.(.m.).|.).m.U.U.].(.m.x.k.U.~.U.x.a.f.oX|.Y.m.~.(.m.f.z.`.~.I.m.a a a a a a a a a ~.f.k.m.(.(.oXa.U.Y.U.].Y.a.m.m.m.m.x.k.U.m.c.f.y.x.U.m.a.k.(. XoX~.",
"Y.n.x.m.~.~.U.c.c.u.f.!.c.x.m.m.c.U.(.~.Y.|.|.(.(.(.U.U.!.x.y.w.f.}.`.Y.R.a a a a a a a a a U.Y.R.].].(.(.|.(.Y.`.].(.Y.~.(.(.(.~.c.U.(.|.(.(.~.(.(.(.R.(.(.Y.m.",
"U.`.(.~.Y.(.`.(.`.`.(.Y.(.(.m.(.(.~.Y.~.n.Y.~.U.k.x.U.x.k.x.U.~.n.f.a.k.(.].S.U.~._.oXoX).U.m.n.Y.(.~.U.(.n.~.~.k.Y.|. Xm.`.|.].(.U.(.!.U.(.U.x.(.).U.U.U.U.m.(.",
"|.Y.n.f.f.g.n.`.|.oX+X~.n.g.f.k.x.x.x.g.g.~. X`.(.~.m.Y.~.`.oXoX].u.a.x.~.).m.U.~.~.~.U.U.m.U.oX XY.n.x.p.f.(.+XU.~.(.~.(.~.U.I.(.|.g.f.a.m.f.y.U.U.|.~.g.f.U.].",
"(.`.(.`.]. XoX|.].(.(.~.(.].(.m.U.~.(.~.n.(.|. X].U.c.f.U.].(.U.Y.(.(.]. X].~.(.!.m.k.k.k.!.(.~.~.n.f.g.U.|.(.(.f.y.x.}.].XX|.].|.(.!.`.|.(.oXoXoX+X(.(.|.|.|.(."
};
