/* XPM */
static char *f8833d5090e240ccd2cce81604343cbalRtaOPFXQSObiR2g[] = {
/* columns rows colors chars-per-pixel */
"80 80 191 2 ",
"   c #1F160C",
".  c #1F1808",
"X  c #1E1812",
"o  c #1E1A19",
"O  c #24160E",
"+  c #24190E",
"@  c #281A0D",
"#  c #251813",
"$  c #251A12",
"%  c #211A1A",
"&  c #28201C",
"*  c #3A2619",
"=  c #3D2919",
"-  c #4A2E16",
";  c #48321A",
":  c #713A0F",
">  c #673B13",
",  c #6A3C13",
"<  c #683916",
"1  c #6A3C19",
"2  c #723D12",
"3  c #453826",
"4  c #694119",
"5  c #6D411C",
"6  c #70431A",
"7  c #77471B",
"8  c #5C4328",
"9  c #634121",
"0  c #6C4827",
"q  c #7D4B21",
"w  c #674F33",
"e  c #694D34",
"r  c #754B3F",
"t  c #68553E",
"y  c #71563B",
"u  c #73583B",
"i  c #2D2D43",
"p  c #323653",
"a  c #353A50",
"s  c #3A3A50",
"d  c #6F3847",
"f  c #61394A",
"g  c #6B3848",
"h  c #7A3446",
"j  c #3D495F",
"k  c #5F4C45",
"l  c #47465E",
"z  c #4B455D",
"x  c #4B4B5F",
"c  c #724A40",
"v  c #6C5645",
"b  c #615348",
"n  c #755E44",
"m  c #795C46",
"M  c #7E644D",
"N  c #56556B",
"B  c #AB3938",
"V  c #E63F38",
"C  c #80501C",
"Z  c #864F24",
"A  c #87512A",
"S  c #B35E3F",
"D  c #9C682E",
"F  c #8D693C",
"G  c #976536",
"H  c #9A6635",
"J  c #956B3E",
"K  c #9B6C3C",
"L  c #9E703C",
"P  c #A56E35",
"I  c #A56F39",
"U  c #B7603E",
"Y  c #A67035",
"T  c #DE7110",
"R  c #E64038",
"E  c #8F2F44",
"W  c #962C43",
"Q  c #9E2B42",
"!  c #AF2D43",
"~  c #B02D43",
"^  c #BF2B4A",
"/  c #A73044",
"(  c #C72849",
")  c #CB2A4A",
"_  c #D42C4A",
"`  c #CE3346",
"'  c #D93246",
"]  c #DB3946",
"[  c #E53645",
"{  c #E63846",
"}  c #EA3B46",
"|  c #E23C48",
" . c #895845",
".. c #816347",
"X. c #85694E",
"o. c #966B43",
"O. c #986A41",
"+. c #99764E",
"@. c #A37444",
"#. c #BC7F4D",
"$. c #D84846",
"%. c #EB4E45",
"&. c #EC4148",
"*. c #E95245",
"=. c #F15749",
"-. c #FA564D",
";. c #FB584D",
":. c #E25653",
">. c #EA6146",
",. c #EC6648",
"<. c #F96B46",
"1. c #FC6457",
"2. c #FD685A",
"3. c #ED931E",
"4. c #ED981C",
"5. c #F2991C",
"6. c #F1B12B",
"7. c #F5B92A",
"8. c #FEBA28",
"9. c #F7D139",
"0. c #FBDD38",
"q. c #98885C",
"w. c #BE824E",
"e. c #BC8251",
"r. c #B98559",
"t. c #B9875B",
"y. c #9C8664",
"u. c #9C8C68",
"i. c #A78964",
"p. c #A48C64",
"a. c #A48D6C",
"s. c #AC8E6C",
"d. c #A4926C",
"f. c #AC936C",
"g. c #AC9A6C",
"h. c #B5966C",
"j. c #AC8E74",
"k. c #B48E74",
"l. c #AC9574",
"z. c #AC9B74",
"x. c #A99979",
"c. c #B49574",
"v. c #B49B74",
"b. c #BC9C74",
"n. c #B4967C",
"m. c #B49D7C",
"M. c #BC9D7C",
"N. c #ACA27C",
"B. c #B8A375",
"V. c #B4A27C",
"C. c #BCA37C",
"Z. c #BCAA7C",
"A. c #FF8575",
"S. c #FF8A78",
"D. c #C4A47C",
"F. c #C4AA7C",
"G. c #FFE57A",
"H. c #B49E84",
"J. c #BC9E84",
"K. c #B4A484",
"L. c #BCA584",
"P. c #BCAA84",
"I. c #B9A789",
"U. c #BCAC8C",
"Y. c #BCB289",
"T. c #C49E84",
"R. c #C4A684",
"E. c #C4AB84",
"W. c #CCAC84",
"Q. c #C4A68C",
"!. c #C4AD8C",
"~. c #CCAE8C",
"^. c #C4B284",
"/. c #CCB384",
"(. c #C4B38C",
"). c #CCB38C",
"_. c #CABA8C",
"`. c #D4B78C",
"'. c #CCAE94",
"]. c #C4B394",
"[. c #CCB494",
"{. c #CCBB94",
"}. c #C9B999",
"|. c #D4B694",
" X c #D4BA94",
".X c #D4BD9C",
"XX c #DCBE9C",
"oX c #CCC29C",
"OX c #D4C29C",
"+X c #D8C398",
"@X c #FFF59A",
/* pixels */
"l.M.L.M.l.f.l.f.L.E.L.V.C.P.m.f.z.V.P.P.L.V.(.{.L.L.U.].U.m.K.!.V.C.V.z.f.l.v.L.(.E.f.p.V.Z.V.E.m.z.V.E.C.l.f.M.h.b.C.W.).).F.C.F.)./.R.C.C.F.C.E.D.C.E.`.).).E.",
"M.m.v.m.C.C.m.s.l.v.l.f.m.E.E.L.P.V.z.L.[. X!.V.V.m.L.!.!.C.L.].C.E.!.~.!.!.!.).).{.).E.E.L.C.P.L.V.C.L.C.m.v.L.W.E.D.C.D.E.).{.D.L.C.B.v.v.C.C.R.C.C.C.C.m.v.v.",
"C.L.C.c.c.C.!.).!.).!.E.E.(.).!.(.).].(.(.(.U.E.L.L.L.E.L.m.v.C.!.L.M.z.v.C.E.).m.m.L.U.C.m.L.m.C.V.m.C.V.M.m.c.c.v.M.R.C.M.L.C.R.C.C.C.C.C.v.C.l.v.v.v.l.i.f.v.",
"m.C.R.m.v.L.). XL.~.).!.L.L.M.v.v.L.).C.a.y.p.m.L.C.C.C.L.C.m.V.M.C.s s s s s s s s s s s s [.R.V.E.!.E.!.!.R.M.M.M.n.c.l.m.R.[.b.l.v.C.R.v.c.v.C.L.R.E.L.C.L.~.",
"M.m.v.C.!.).!.M.a.c.m.M.M.C.C.m.(.).(.% % $ @ @ @ @ @ @ @ @ @ @ @ @ s s s s s s s s s s s s @ @ @ @ @ @ @ @ @ @ @ @ $ $ & m.L.!.E.C.C.R.E.L.C.R.C.C.L.L.L.m.v.v.",
"R.R.m.c.v.M.C.m.D.L.R.L.D.L.~.[.E.E.E.% k M ............u u u X.u y a a a a a a a a a a a a y y y y y y y y y y y y y v & M.v.f.[.E.C.m.M.L.E.).!.!.R.!.E.R.M.m.",
"!.!.R.c.a.l.L.~.~.R.R.M.M.M.C.R.E.(.[.$ n h.e.r.r.r.r.r.s s s g g g -.-.-.-.-.-.-.-.-.{ { { g g g s s s L L L L L K L +.= % ).).L.L.m.f.f.v.C.L.c.l.a.f.l.l.f.l.",
"E.R.L.C.E.~.E.C.m.b.m.M.M.D.L.R.R.L.v.@ n r.w.#.e.e.e.e.s s s g g g -.-.-.-.-.-.-.-.-.{ { { g g g s s s I I I I I P Y J = % E.F.~.[.|.!.R.!.[.!.'.!.R.L.L.L.Q.!.",
"f.f.c.L.!.).!.C.C.b.v.h.f.f.f.f.f.f.l.@ n r.e.Z A A A A s s s g g g -.-.-.-.-.-.-.-.-.{ { { g g g s s s q q q 7 7 C D F = % E.).E.).`.(.C.c.v.C.C.L.!.).~.M.v.M.",
"R.L.C.L.E.!.E.C.!.E.R.L.C.L.E.E.E.E.L.@ m r.e.< < s s s Q Q Q -.-.-.A.A.A.2.2.2.{ { { ' ' ' ) ) ) Q Q Q s s s 1 < 2 H O.= o E.E.v.v.c.M.E.).).).!.!.~.!.E.~.!.~.",
"L.M.v.v.M.C.L.R.a.a.s.f.n.C.!.~.].(.!.$ m r.w.< 1 s s s Q Q Q -.-.-.A.A.A.2.2.2.{ { { ' ' ' ) ) ) Q Q Q s s s 5 1 2 H J = % C.C.l.v.C.C.v.v.M.C.c.c.l.s.f.m.R.C.",
"R.C.L.M.L.R.!.~.|.[.[.'.[.[.}.|.|.[.|.$ m r.e.< 1 a a a W W W -.-.-.A.A.A.2.2.2.[ [ [ ' ' ' ) ) ) W Q W a a a 6 1 : H J * o L.~.C.l.a.v.).XX[.C.T.R.D.m.C.[.{.[.",
"[.).[.!.E.L.C.C.m.J.m.J.C.J.M.H.L.E.!.$ m r.s s s Q Q Q ' ' ' A.A.A.2.2.2.2.2.2.-.-.-.{ { { ) ) ) ) ) ) Q Q Q s s s H J = % b.v.m.E.).~.m.l.c.m.D.~.~.R.)..X.X).",
").[.).).R.M.n.v.l.c.m.m.C.L.L.C.v.v.V.$ m r.s s s Q Q Q ' ' ' A.A.A.2.2.2.2.2.2.-.-.-.{ { { ) ) ) ) ) ) Q Q Q s s s H J = % c.l.c.f.l.m.R.E.L.m.v.M.C.m.M.C.C.v.",
"E.!.).!.R.L.E.!.).).).).!.R.C.M.!.!.~.$ m r.s s s Q Q Q ' ' ' A.A.A.2.2.2.2.2.2.-.-.-.{ { { ) ) ) ) ) ) Q Q Q s s s H J = % !.!.L.!.~.E.m.n.M.E.!.).!.!.R.C.m.v.",
"l.c.v.v.v.v.L.~.L.D.E.E.W.E./.).[. X[.g g g l l l ) ) ) { { { 2.2.2.2.2.2.-.-.-.-.-.-.-.-.-.{ { { ) ) ) ) ) ) l l l g g g % L.[.l.j.a.a.l.J.L.!.(.!.E.L.v.s.s.k.",
"V.P.].].(.Y.).oX).Z.C.C.C.C.C.D.m.C.!.g g g l l l ) ) ) { { { 2.2.2.2.2.2.-.-.-.-.-.-.-.-.-.{ { { ) ) ) ) ) ) l l l g g g % P.K.E.).).E.E.E.). X/.C.v.C.!.!.v.u.",
"(.(.).{.{..X.X.X+X X).L.M.b.R.).!.!.E.f f f z z z ) ) ) } } } 1.1.1.1.1.1.-.-.-.-.-.-.-.-.-.} } } ) ) ) ) ) ) z z z f f f % {.OXE.C.C.(. X).E.C.B.E.E.!.!.!.).+X",
"m.C.L.C.L.C.C.V.l.l.l.l.l.l.c.m.g g g s s s g g g ) ) ) -.-.-.-.-.-.-.-.-.-.-.-.-.-.-.-.-.-.-.-.-.' ' ' ) ) ) g g g s s s g g g !.C.v.C.L.m.L. X/.).).!.L.m.z.z.",
"!.~.).~.D.m.M.C.Q.L.R.!.~.!.M.l.g g g s s s g g g ) ) ) -.-.-.-.-.-.-.-.-.-.-.-.-.-.-.-.-.-.-.-.-.' ' ' ) ) ) g g g s s s g g g c.z.L.E.L.v.M.E.E.C.l.a.a.l.V.P.",
"M.M.M.v.c.s.a.s.m.m.m.m.J.J.J.m.g g g s s s g g g ) ) ) -.-.-.-.-.-.-.-.-.-.-.-.-.-.-.-.-.-.-.-.-.' ' ' ) ) ) g g g s s s g g g v.v.v.m.C.L.m.f.p.f.C.L.L.L.].OX",
"~.L.M.C.!.!.D.v.a.M.~.!.C.m.L.!.l l l { { { g g g ) ) ) -.-.-.-.-.-.-.-.-.-.-.-.-.-.-.-.-.-.-.-.-.{ { { Q Q Q g g g Q Q Q l l l !.!.L.l.v.m.C.m.M.C.!.[.].!.L.V.",
"R.L.C.R.!.~.!.L.c.E.).R.v.f.d.f.l l l { { { g g g ) ) ) -.-.-.-.-.-.-.-.-.-.-.-.-.-.-.-.-.-.-.-.-.{ { { Q Q Q g g g Q Q Q l l l m.L.).[.!.m.m.m.).C.f.a.H.!.!.U.",
"f.m.E.L.v.c.V.F.T.b.f.f.v.E.E.E.l l l [ [ [ g g g ) ) ) -.-.-.-.-.-.-.-.-.-.-.-.-.-.-.-.-.-.;.;.;.{ { { Q Q Q g g g Q Q Q l l l L.l.l.L.L.L.M.L.f.z.L.I.!.U.L.K.",
"!.C.l.m.!.).!.L.C.m.v.z.m.C.]..Xs s s -.-.-.Q Q Q ' ' ' -.-.-.-.-.-.-.-.-.-.-.-.-.-.-.-.-.-.{ { { ' ' ' Q Q Q g g g Q Q Q s s s !.!.R.m.a.a.l.m.V.V.V.V.V.P.V.l.",
"[.!.L.C.L.m.v.l.V.m.l.s.a.a.m.E.s s s -.-.-.Q Q Q ' ' ' -.-.-.-.-.-.-.-.-.-.-.-.-.-.-.-.-.-.{ { { ' ' ' Q Q Q g g g Q Q Q s s s !.!.!.V.m.P.!.).(.(.E.!.!.(.(.).",
"a.l.m.L.V.L.E.!.R.L.C.m.v.m.E.}.s s s -.-.-.:.:.:.~ ~ ~ &.&.&.-.-.-.-.-.-.-.-.-.&.&.&.| | | _ _ _ ! ! ! h h h E E E Q Q Q s s s !.E.L.m.L.!.!.P.E.M.v.m.v.l.c.m.",
"m.R.!.!.R.L.!.)..X[.(.!.L.V.L.!.s s s -.-.-.2.2.2.Q Q Q { { { -.-.-.-.-.-.-.-.-.{ { { ' ' ' ) ) ) Q Q Q g g g Q Q Q Q Q Q s s s L.L.L.L.L.L.L.R.!.C.m.L.R.v.l.v.",
"a.l.v.V.L.E.!.[.!.!.E.!.).'.!.).s s s -.-.-.2.2.2.Q Q Q { { { -.-.-.-.-.-.-.-.-.{ { [ ' ' ' ) ) ) Q Q Q g g g Q Q Q Q Q Q s s s d.a.l.E.L.l.m.!.E.m.c.C.!.L.C.L.",
"!.R.L.L.L.m.l.s.a.y.y.l.C.L.L.L.s s s =.=.=.2.2.2./ / / { { { -.-.-.-.-.-.-.-.-.{ { { ' ' ' ( ( ( Q Q Q d d d Q Q Q Q Q Q s s s c.l.m.!.P.m.V.)..X(.P.~.).[.[. X",
"L.E.!.[. X.X[.!.).!.L.!.!.!.E.L.s s s Q Q Q A.A.A.2.2.2.{ { { { { { -.-.-.{ { { { { } $.$.] Q Q Q Q Q Q Q Q Q Q Q Q g g g s s s }.[.!.!.).[.[.[.P.P.L.V.V.C.V.L.",
"L.L.!.[. X[.R.m.j.p.a.l.m.L.R.!.s s s Q Q Q A.A.A.2.2.2.{ { { { { { -.-.-.{ { { { { *.,.,.*.Q Q Q Q Q Q Q Q Q Q Q Q g g g s s s !.!.v.a.x.[.!.m.V.E.[.(.!.!.(.(.",
"a.l.C.E.!.E.!.!.Z.E.E.F.E.^.).).C.R.R.a a a ( ( ( A.A.A.2.2.2.;.;.;.-.-.-.;.;.;.;.;.<.<.<.*.} } } } } } ) ) ) g g g a a a % !.L.l.z.z.v.L.(.{.].(.).V.L.E.L.V.p.",
"R.C.V.M.V.E.!.).|.{. X).).).P.C.v.l.f.s s s ) ) ) A.A.A.2.2.2.-.-.-.-.-.-.-.-.-.-.-.;.=.=.%.{ { { { { { ) ) ) g g g s s s % !.!.).E.m.a.a.z.K.P.E.P.l.l.C.E.{.!.",
"!.C.f.a.f.v.m.V.f.l.f.l.m.E.E.E.~.E.M.s s s ) ) ) A.A.A.2.2.2.-.-.-.-.-.-.-.-.-.-.-.-.{ { { { { { { { { ) ) ) g g g s s s % '.L.L.E.!.E.!.).).[.E.[.E.(.[.P.L.f.",
".X(.R.L.P.!.E.L.~.).[.).[. X X{.!.[.[.s s s _ _ _ S.S.S.2.2.2.-.-.-.-.-.-.-.-.-.-.-.-.[ [ [ [ [ [ } } } ) ) ) d d d s s s % m.l.a.v.R.~.E.m.s.y.!.(.C.L.V.v.L.C.",
"E.E.P.E.E.L.C.m.a.v.R.C.m.f.a.a.E.!.~.s s s s s s ) ) ) { { { -.-.-.-.-.-.-.-.-.-.-.-.-.-.-.-.-.-.) ) ) Q Q Q s s s s s s % !.[.[.).[.!.R.C.M.C.a.C.!.{.~.m.v.l.",
"!.!.~.!.!.E.!.E.m.!.!.U.C.L.~.[.).L.v.s s s s s s ) ) ) { { { -.-.-.-.-.-.-.-.-.-.-.-.-.-.-.-.-.-.) ) ) Q Q Q s s s s s s % m.!.!.P.m.v.v.m.E.[..X X!.P.v.a.V.E.",
"C.C.C.C.C.m.m.v.L.C.M.l.y.a.m.L.C.z.f.l l l c c c s s s g g g ) ) ) { { { { { { { { { ) ) ) Q Q Q g g g s s s c c c l l l % n.L._.E.K.C.V.m.C.L.P.!.E.).[.P.!.E.",
"E.P.!.!.!.E.L.M.L.!.[.!.!.!.E.!.!.!.!.l l l c c c s s s g g g ) ) ) { { { { { { { { { ) ) ) Q Q Q g g g s s s c c c l l l o l.Q.].(.P.U.!.P.C.P.E.P.v.P.!.P.E.L.",
"{.P.v.z.l.u.d.K.C.!.m.y.i.V.!.!.K.m.z.l l l c c c s s s g g g ) ) ) { { { { { { { { { ) ) ) Q Q Q g g g s s s c c c l l l o E.E.C.V.C./.).E.C.C.C.C.C.C.C.E.!.E.",
"C.C.(.[.).!.I.L.!.R.L.!.!.L.m.!.~.!.L.l l l c c c s s s g g g ) ) ) { { { { { { { { { ) ) ) Q Q Q g g g s s s c c c l l l o V.l.l.f.v.!.).!.D.L.E.^.). X X~.L.C.",
"!.!.E.L.K.!.).[.z.l.f.C.L.l.a.L.L.!.[.O e K l l l c c c c c c s s s s s s s s s s s s s s s s s s c c c c c c l l l H O.= o ).L.i.f.m.E.~.C.C.L.E.E.).E.L.L.C.L.",
").[.|.[.).[.!.!.R.(.[.!.[. X X X.X[.!.O e K l l l c c c c c c s s s s s s s s s s s s s s s s s s c c c c c c l l l H O.= o P.E.!.!.).{.).!.E.!.R.C.V.v.v.v.R.!.",
"m.l.m.L.V.l.l.v.l.!.!.M.L.!.!.m.m.m.v.O e K I > > a a a c c c r r r r r r r r r r r r r r r r r r c c c a a a 6 , , H J = o E.{.[.|.).!.L.m.C.L.C.R.E.E.(.~.E.P.",
"[.L.L.E.L.c.v.E.l.m.v.l.m.m.m.R.C.R.!.O e K P > > s s s c c c c c c c c c c c c c c c c c c c c c c c c s s s 6 , , H J = o m.E.!.!.E.L.v.z.m.C.!.E.!.).[.^.E.B.",
"n.n.L.!.E.m.f.f.L.m.d.l.v.l.m.[..Xm.a.O e K P > > s s s c c c c c c c c c c c c c c c c c c c c c c c c s s s 6 , , H O.= o !.(.C.L.!.E.L.R.L.L.!.!.L.C.C.D.C.F.",
"c.n.c.s.l.C.~.).E.[.[.!.[.!.R.!.E.!.R.O e K P > > p p p r r r r r r r r r r r r r r r r r r r r r r r r p p p 6 , , H O.= o v.m.y.a.l.m.m.m.l.l.C.C.R.L.C.E.E.).",
"V.V.P.].[.(.(.(.E.v.C.E.V.C.(.!.B.P.(.O e K s s s 3.3.3.s s s s s s s s s s s s s s s s s s s s s s s s 3.3.3.s s s H O.= o L.!.E.!.).!.C.m.c.c.P.m.v.m.C.M.l.s.",
"E.m.d.l.C.P.!.P.C.v.E.Z.v.v.P.L.Z.V.v.O e K s s s 3.3.3.s s s s s s s s s s s s s s s s s s s s s s s s 3.3.3.s s s H O.= o R.!.V.C.E.C.m.c.f.h.P.C.m.v.c.v.M.D.",
"L.V.P.!.!.P.!.!.D.E.).W.v.M.R.R.C.E.[.x x x ^ ^ ^ ` ` ` ^ ^ ^ ^ ^ ^ ^ ^ ^ W W W W W W ^ ^ ^ ^ ^ ^ ^ ^ ^ ` ` ` ^ ^ ^ N N N o d.f.P.E.!.E.E.C.R.L.v.C.m.a.p.l.M.C.",
"a.m.E.(.P.C.V.C.D.D.R.R.v.c.m.M.E.P.P.s s s ) ) ) ) ) ) ) ) ) ) ) ) ) ) ) Q Q Q Q Q Q ) ) ) ) ) ) ) ) ) ) ) ) ) ) ) l l l o E.[.P.E.E.E.C.C.M.M.E.[.).C.M.L.~.!.",
"[.E.L.E.).{.{.[.~.R.C.E.R.c.c.J.B.L.L.s s s ) ) ) ) ) ) ) ) ) ) ) ) ) ) ) Q Q Q Q Q Q ) ) ) ) ) ) ) ) ) ) ) ) ) ) ) l l l o C.!.).).(.E.L.C.m.b.M.L.R.c.l.C.R.C.",
"E.L.v.l.v.L.R.C.C.m.c.c.m.j.i.s.V.~..Xs s s ) ) ) ) ) ) V V V V V V V V V ) ) ) Q Q Q V V V V V V V V V ) ) ) ) ) ) l l l o E.E.P.E.(.!.~.E.E.E.R.E.D.m.L.).[.(.",
"V.L.R.C.V.C.V.m.E. X).!.[.[.!.[.).!.L.s s s ) ) ) ) ) ) V V V V V V V V V ) ) ) Q Q Q V V V V V V V V V ) ) ) ) ) ) l l l o !.).m.v.C.C.C.R.C.C.M.m.m.M.C.L.E.P.",
"R.m.f.f.v.L.c.i.y.E.P.l.K.[.].!.!.!.Q.s s s ) ) ) ) ) ) V V V V V V V V V ) ) ) Q Q Q V V V V V V V V V ) ) ) ) ) ) l l l o E.!.E.P.E.E.L.M.v.f.M.T.E.[.|.).P.E.",
"M.).!.s.a.M.C.s.q.z.(.).Z.V.C.C.i i i 8.8.8.a a a 0.0.0.R R R V V V V V V ) ) ) Q Q Q V V V V V V V V V 0.0.0.j j j 8.8.8.s s s C.m.f.l.C.).).R.P.P.C.E.{.K.f.V.",
").R.L.E.E.M.C.!.(.(.E.L.E.).).E.s s s 6.6.6.s s s 9.9.9.R R R V V V V V V ) ) ) Q Q Q V V V V V V V V V 9.9.9.l l l 6.6.6.l l l V.C.R.E.).(.C.v.l.C.m.z.L.C.l.l.",
"m.l.b.!.C.y.s.E.E.m.p.p.f.C.C.m.s s s 6.6.6.s s s 9.9.9.R R R V V V V V V ) ) ) Q Q Q V V V V V V V V V 9.9.9.l l l 6.6.6.l l l E.E.E.E.L.C.C.C.E.[.~.R.!.).L.M.",
"v.C.L.P.C.v.l.m.R.R.R.R.W.~.~.W.s s s 6.6.6.3.3.3.s s s 9.9.9.G.G.G.@X@X@X9.9.9.T T T G.G.G.G.G.G.9.9.9.s s s 3.3.3.6.6.6.l l l |.E.L.C.m.v.P.|.[.R.C.R.R.c.p.s.",
"[.(.E.E.[.{.E.f.C.C.C.D.J.T.b.M.s s s 6.6.6.3.3.3.s s s 9.9.9.G.G.G.@X@X@X9.9.9.T T T G.G.G.G.G.G.9.9.9.s s s 3.3.3.6.6.6.l l l E.P.R.E.E.E.!.).!.M.M.R.L.c.l.c.",
"[.).[.[.).!.L.C. X!.D.C.B.T.b.M.s s s 6.6.6.3.3.3.s s s 9.9.9.G.G.G.@X@X@X9.9.9.T T T G.G.G.G.G.G.9.9.9.s s s 3.3.3.6.6.6.l l l m.C.C.L.E.E.E.C.M.C.!.E.L.|. XC.",
"(.).{. X[.P.E.(.!.C.m.M.b.v.b.M.E.m.m.b b b k k k s s s  . . .>.>.>.,.,.,.$.$.$.B B B >.>.>.>.>.>. . . .s s s k k k b b b o m.M.v.C.C.v.m.E.E.V.f.l.m.m.v.E.!.l.",
"!.V.d.l.P..XP.a.p.l.D.!.L.b.m.D.!.m.m.s s s s s s s s s g g g V V V V V V ) ) ) Q Q Q V V V V V V g g g s s s s s s s s s o R.m.f.L.!.C.L.).).C.(.V.E.{.!.P.P.x.",
"{.(.Z.V.(.{.[.!.L.V.L.E.!.E.Z.R.z.g.z.s s s s s s s s s g g g V V V V V V ) ) ) Q Q Q V V V V V V g g g s s s s s s s s s o L.E.L.[. XL.v.C.m.f.z.K.!.E.C.l.f.c.",
"P.K.V.N.P.[.{.[.K.V.C.(.).).(.W.+X(.C.@ e K I , , s s s V V V Q Q Q g g g s s s s s s g g g Q Q Q V V V s s s 5 1 , H O.= % L.C.!.).E.m.m.P.[.[.).(.(.!.P.L.E.[.",
"Y.^.^.L.V.V.L.K.E.L.V.L.).).).`.K.L.K.@ e K I , , s s s V V V Q Q Q g g g s s s s s s g g g Q Q Q V V V s s s 5 1 , G O.= % L.L.C.E.!.E.E.!.!.E.].(.(.).[.!.E.P.",
"(.{.{.[.U.L.V.m.(.P.!.E.(.E.E.~.!..X.X@ e K I , , s s s V V V Q Q Q g g g s s s s s s g g g Q Q Q V V V s s s 5 1 , G O.= % E.(.[.).P.m.z.v.!. X[.).).[.).P.m.v.",
"F.E.(.).).].(.[.K.E.[.OX X^.C.C.!.U.L.@ e K I , , s s s 7.7.7.5.5.5.U U U l l l l l l U U U 7.7.7.4.4.4.s s s 6 1 , H O.= % C.P.E.(.).!.C.L.(.OX{.).(.(.E.L.C.E.",
"P.L.C.C.L.L.U.].V.K.P.E.E.E.E.).!.!.!.@ e K I < , s s s 6.6.6.3.3.3.S S S l l l l l l S S S 6.6.6.3.3.3.s s s 6 1 , G J = % m.a.f.P..XOX{.!.P.C.C.L.E.!.P.L.P.(.",
"C.C.C.L.V.v.m.L.(.L.V.m.C.Z.W.).E.D.P.+ w K I > , s s s 6.6.6.3.3.3.S S S l l l l l l S S S 6.6.6.3.3.3.s s s 4 > > G J = % v.d.L.).[.P.C.L.E.C.l.m.L.E.P.V.L.P.",
"h.v.R.(.).U.(.[.{.(.E.(. X).E.D.C.f.f.+ w K I , > s s s c c c c c c s s s D D D D D D s s s c c c c c c s s s 5 1 , G o.= % !.!.C.!.(.L.R.(.E.m.).E.L.C.m.m.P.).",
"p.a.f.E.!.V.m.].{.(.(.(.Z.B.V.P._.(.V.  t +.@.< 4 s s s c c c c c c s s s @.@.@.@.@.@.s s s c c c c c c s s s 0 9 4 o.+.= % (.Y./.E.F.E.C.l.m.L.C.Z.Z.V.Z.Z.^.(.",
"f.v.m.!. X[.(.}.(.!.L.v.V.Z.(._.(.(.).& 3 8 9 - - s s s c c c c c c s s s 9 9 9 9 9 9 s s s c c c c c c s s s ; ; - 8 8 * % P.z.f.V.E.C.f.p.v.!.P.P.P.E.).(.(.(.",
"/.).E.C.P.V.l.l.!.].(.!.].OXOX).(.E.V.% $   O $ $ X   + s s s s s s O O O O O O O O O O O O s s s s s s O . . X $ $ + $ % % [.(.).F.v.v.v.m.l.f.!.E.L.E.!.E.L.v.",
"C.E.C.m.V.!.!.].L.I.!.!.[.).!.V.E.!.).{.[.E.P.].(.{.[.!.s s s s s s P.C.m.!.{.)..XOXOX).P.L.s s s s s s L.L.P.!.!.E.P.L.C.P.(. Xv.m.C.P.E.E.).+X!.E.C.m.M.M.M.m.",
"C.[.!.m.v.V.C.L.I.L.m.K.L.m.C.P.{.{.{. X(.K.V.!.V.P.E.V.s s s s s s L. X[.E.L.V.C.L.!.(.C.l.s s s s s s U.[.[.[.!.[.[.!.V.m.L.(.|.E.E.[.).m.v.E.m.M.C.C.C.C.E.~.",
"q.v.V.C.L.L.!.[.!.L.L.!.).P.E.[.).E.C.v.l.f.m.L.v.E.(.P.C.L.L.C.(.M.C.L.v.f.L.[.C.v.M.E.!.C.M.L.E.H.v.m.L.!.).[.{.{.).).!.P.E.!.C.a.a.C.).E.C.C.f.m.!.!.L.L.L.!.",
"^.{.{.).E.L.m.L.m.m.C.L.E.E.C.C.h.V.E.U.P.L.m.m.z.C.P.!.E.L.C.E.L.C.[.[.C.m.C.E.[.E.V.L.E.!.P.L.C.V.C.C.L.P.P.C.E.L.V.C.L.C.C.V.l.C.E.L.v.f.v.v.d.C.].).U.V.V.P.",
"E.(.P.L.L.V.M.!.~.E.b.f.v.D.C.v.C.E.C.m.v.L.C.H.C.L.R.E.L.L.R.(.~.!.!.R.v.L.E.L.M.C.c.a.f.M.E.L.E./.{._.).E.E.E.R.P.R.V.m.c.z.v.l.K.C.l.C.).).B.z.K.(.].P.K.!.]."
};
