/* XPM */
static char *_cb459ef5c304248841d2c7f758b6ad3eG10w4v9DM8wIlDa[] = {
/* columns rows colors chars-per-pixel */
"80 80 200 2 ",
"   c #764B3F",
".  c #2D2D43",
"X  c #313553",
"o  c #333950",
"O  c #343A50",
"+  c #303C50",
"@  c #353C51",
"#  c #3A3A50",
"$  c #3B3A50",
"%  c #6F3747",
"&  c #6F3847",
"*  c #61394A",
"=  c #6B3948",
"-  c #6C3848",
";  c #7A3446",
":  c #3D495F",
">  c #5F4C46",
",  c #46465E",
"<  c #4E4359",
"1  c #4F4359",
"2  c #48475F",
"3  c #4B4B5F",
"4  c #724A40",
"5  c #605348",
"6  c #56556B",
"7  c #AB3938",
"8  c #E63F38",
"9  c #B35E3F",
"0  c #B7603E",
"q  c #DE7110",
"w  c #E64038",
"e  c #8F2F44",
"r  c #962C43",
"t  c #992B42",
"y  c #9D2B42",
"u  c #9A2C42",
"i  c #AF2D43",
"p  c #B02D43",
"a  c #BF2B4A",
"s  c #A73044",
"d  c #C72548",
"f  c #C72A49",
"g  c #C9294A",
"h  c #CC2A4A",
"j  c #CE2C49",
"k  c #D4294A",
"l  c #D32E49",
"z  c #CE3346",
"x  c #D93246",
"c  c #E33645",
"v  c #E53646",
"b  c #E53846",
"n  c #E83946",
"m  c #EA3E47",
"M  c #E23C48",
"N  c #895845",
"B  c #D44D47",
"V  c #EB4148",
"C  c #EC4148",
"Z  c #F1524C",
"A  c #F9534B",
"S  c #F8534C",
"D  c #F9564D",
"F  c #FB584D",
"G  c #FB584E",
"H  c #E25653",
"J  c #EB6146",
"K  c #EB654C",
"L  c #FC6457",
"P  c #FD685A",
"I  c #FD6A5C",
"U  c #EC921E",
"Y  c #ED981C",
"T  c #F2991C",
"R  c #FEB927",
"E  c #F2B12B",
"W  c #F2B82A",
"Q  c #F7B92A",
"!  c #FEBA28",
"~  c #F7D139",
"^  c #F8D139",
"/  c #FBDD38",
"(  c #94865C",
")  c #9C8A5C",
"_  c #9C8664",
"`  c #9C8E64",
"'  c #9C8A6C",
"]  c #A48664",
"[  c #A48A64",
"{  c #A48E64",
"}  c #AC8E64",
"|  c #A48A6C",
" . c #A48E6C",
".. c #AC8A6C",
"X. c #AC8E6C",
"o. c #A4926C",
"O. c #AC926C",
"+. c #AC966C",
"@. c #AC9A6C",
"#. c #B4966C",
"$. c #B49A6C",
"%. c #AC8E74",
"&. c #B48E74",
"*. c #A49274",
"=. c #AC9274",
"-. c #AC9674",
";. c #AC9A74",
":. c #AC9E74",
">. c #AC967C",
",. c #AC9A7C",
"<. c #AC9E7C",
"1. c #B49274",
"2. c #B49674",
"3. c #B49A74",
"4. c #B49E74",
"5. c #BC9A74",
"6. c #BC9E74",
"7. c #B4967C",
"8. c #B49A7C",
"9. c #B49E7C",
"0. c #BC9A7C",
"q. c #BC9E7C",
"w. c #ACA27C",
"e. c #B4A274",
"r. c #BCA274",
"t. c #BCA674",
"y. c #B4A27C",
"u. c #B4A67C",
"i. c #BCA27C",
"p. c #BCA67C",
"a. c #B4AA7C",
"s. c #BCAA7C",
"d. c #FE8475",
"f. c #FF8A78",
"g. c #C4A27C",
"h. c #C4A67C",
"j. c #C4AA7C",
"k. c #FFE57B",
"l. c #B49E84",
"z. c #BC9E84",
"x. c #B4A284",
"c. c #B4A684",
"v. c #BCA284",
"b. c #BCA684",
"n. c #B4AA84",
"m. c #BCAA84",
"M. c #BCAE84",
"N. c #B4A28C",
"B. c #BCA68C",
"V. c #BCAA8C",
"C. c #BCAE8C",
"Z. c #BCB284",
"A. c #BCB28C",
"S. c #C49E84",
"D. c #C4A284",
"F. c #C4A684",
"G. c #C4AA84",
"H. c #C4AE84",
"J. c #CCAA84",
"K. c #CCAE84",
"L. c #C4A68C",
"P. c #C4AA8C",
"I. c #C4AE8C",
"U. c #CCAA8C",
"Y. c #CCAE8C",
"T. c #C4B284",
"R. c #CCB284",
"E. c #CCB684",
"W. c #C4B28C",
"Q. c #C4B68C",
"!. c #CCB28C",
"~. c #CCB68C",
"^. c #C4BA8C",
"/. c #CCBA8C",
"(. c #D4B68C",
"). c #D4BA8C",
"_. c #C4AE94",
"`. c #CCAE94",
"'. c #C4B294",
"]. c #C4B694",
"[. c #CCB294",
"{. c #CCB694",
"}. c #C4BA94",
"|. c #CCBA94",
" X c #CCBE94",
".X c #CCB69C",
"XX c #CCBA9C",
"oX c #CCBE9C",
"OX c #D4B694",
"+X c #D4BA94",
"@X c #D4BE94",
"#X c #D4BA9C",
"$X c #D4BE9C",
"%X c #DCBE9C",
"&X c #CCC29C",
"*X c #D4C294",
"=X c #D4C29C",
"-X c #DCC29C",
";X c #DCC69C",
":X c #FFF59A",
/* pixels */
"-.q.b.q.-.O.=.+.b.G.b.y.i.m.9.O.;.y.m.m.b.u.W.|.b.b.C.'.V.9.x.I.y.i.y.;.O.-.4.b.Q.H.+.{ y.s.y.H.9.;.y.G.i.=.O.q.#.5.p.K.!.!.j.p.j.!.R.F.i.p.j.i.H.h.p.H.(.~.!.H.",
"q.9.3.8.i.i.8.X.-.3.-.+.8.G.G.v.m.y.:.b.{.+XI.y.y.9.b.I.P.i.b.'.i.G.I.Y.I.I.I.!.~.|.~.H.H.b.p.m.b.y.i.v.p.8.3.v.J.G.g.i.h.H.!.|.h.b.p.r.4.4.i.i.F.i.i.i.i.8.3.3.",
"i.v.i.2.2.i.P.!.I.!.I.G.G.W.!.I.W.!.'.Q.W.W.C.G.b.v.b.G.b.9.3.i.I.b.q.;.3.i.G.!.9.9.b.V.i.9.v.9.i.y.9.i.y.q.8.2.1.3.q.D.i.q.v.p.F.i.i.i.i.i.4.i.-.3.3.3.=.} O.3.",
"9.i.F.9.3.v.!.+Xb.Y.!.I.b.v.q.3.3.b.!.p. ._ { 9.v.i.i.i.b.i.9.y.q.i.# # # # # # # # # # # # {.F.y.G.I.H.I.I.F.q.0.0.7.2.=.8.F.[.6.-.3.i.F.4.2.3.i.v.F.G.b.i.b.Y.",
"q.9.3.i.P.!.P.q. .2.9.q.q.i.i.9.W.!.W.I.G.p.v.p.y.9.9.G.I.!.[.{.v.3.# # # # # # # # # # # # b.>.;.b.I.F.i.F.b.q.0.q.0.3.2.8.v.I.G.i.i.F.H.b.i.F.i.i.v.b.v.8.3.3.",
"F.F.9.2.3.q.i.9.g.v.F.v.g.b.U.[.G.G.G.I.~.[.G.i.Y.G.G.G.G.G.b.h.b.F.O O O o o o o o o O O O =.X.9.p.b.4.-.3.i.i.X.3.D.P.F.q.3.+.[.G.i.9.q.v.G.!.I.P.F.P.G.F.q.9.",
"I.I.F.2. .-.b.Y.Y.F.F.q.q.q.i.D.G.W.{.{.!.W.!.{.!.!.Y.G.# # # = = = D D D D D D D D D b b b - - - # # # G.F.G.L.K.J.G.j.G.H.!.~.b.v.9.O.O.3.i.b.2.=. .O.=.=.O.=.",
"G.F.v.i.G.Y.G.i.8.5.8.q.q.g.v.F.F.v.3.-.2.8.9.i.i.h.G.h.# # # = = = D D D D D D D D D b b b - - - # # # W.F.9.2.5.6.G.Y.(.~.H.j.U.{.OXP.F.I.[.I.`.P.F.v.v.v.L.I.",
"O.O.2.v.I.!.P.i.i.6.3.$.O.O.O.O.+.O.=.3.b.H.Y.P.4.-.X. .# # # = = = D D D D D D D D D b b b - - - # # # q.F.G.Y.m.p.j.W.!.G.H.~.H.!.(.W.i.2.3.i.p.b.I.!.Y.q.3.0.",
"F.b.i.b.G.P.G.i.I.G.F.b.p.b.G.G.G.G.b.G.I.Y.W.G.b.# # # y y y D D D d.d.d.P P P b b b x x x g g g y y y # # # O.H.i.3.q.m.H.G.G.3.3.2.q.G.~.~.!.I.I.Y.I.H.U.P.Y.",
"v.q.3.3.q.i.b.F. . .X.O.7.i.I.Y.'.W.I.G.G.b.p.v.o.# # # y y y D D D d.d.d.P P P b b b x x x g g h y y y # # # 0.i.q.-.O.#.q.i.i.-.4.i.i.3.3.q.p.2.2.-.X.O.9.F.i.",
"F.i.v.q.b.F.I.Y.OX[.[.`.[.[..XOXOX{.OX!.I.G.G.G.|.@ @ @ t t t A A A d.d.d.P P P v v v x x x g h g y t t O O O F.q.F.J.3.X.2.v.U.i.=.| 3.!.%X[.i.S.F.g.8.i.{. X{.",
"[.~.[.I.G.b.i.i.8.z.9.z.i.z.q.l.b.G.I.H.G.b.# # # y y y x x x d.d.d.P P P P P P D D D b b b h g h g g g y y y # # # U.0.X.O.5.3.8.G.!.Y.9.=.2.9.g.Y.U.F.!.$X$X~.",
"!.[.!.!.F.q.7.3.=.2.8.9.i.v.v.i.3.4.y.v.i.b.# # # y y y x x x d.d.d.P P P P P P D D D b b b h h g g g g y y y # # # b.q.q.0.2.=.2.O.=.8.F.H.b.8.3.q.i.9.q.p.i.3.",
"G.P.!.I.F.b.G.I.!.~.!.!.I.F.i.q.I.I.Y.!.[.{.# # # y y y x x x d.d.d.P P P P P P D D D b b b g g g g g g y y y # # # G._.[.W.P.P.b.P.Y.G.8.7.q.G.I.!.I.I.F.i.8.3.",
"-.2.3.3.3.4.b.Y.b.h.G.G.K.H.R.!.{.+X{.= = = , , , g g g b b b P P P P P P D D D D D D D D D b b b g g g g g g , , , = = = 9.v.[.=.%.| | -.z.b.P.W.I.G.b.3.X.X.&.",
"y.m.].].W.A.~.&X~.s.i.p.p.i.i.g.8.i.P.= = = , , , g g g b b b P P P P P P D D D D D D D D D b b b h h h g g g , , 2 = = = m.m.n.H.~.~.H.G.H.~.+XE.p.4.i.I.I.4.` ",
"W.W.~.|.|.$X$X$X;X+X!.b.q.5.F.!.I.I.G.* * * < < < g g g m m m L L L L L L D D D D D D D D D m m m j j j g g h < < < * * * |.|.=XG.i.i.W.+X~.G.i.r.G.H.I.I.I.~.*X",
"9.i.v.p.v.p.i.y.-.-.-.-.=.=.1.8.= = = # # # = = = g g g D D D D D D D D D D D D D D D D D D D D D x x x g g g - - - # # # = = = I.i.4.i.b.9.b.+XR.!.!.I.b.9.;.;.",
"P.Y.!.Y.g.9.0.i.L.b.D.P.Y.P.q.=.= = = # # # = = = g g g D D D D D D D D D D D D D D D D D D D D D x x x g g g - - - # # # = = = 2.;.v.H.b.4.q.H.H.p.-. . .-.u.m.",
"q.q.q.3.1.X.| ..8.8.8.9.z.z.z.9.= = = # # # = = = g g g D D D D D D D D D D D D D D D D D D D D D x x x g g g - - - # # # = = = 4.3.3.9.i.b.9.O.{ +.i.b.v.b.'.=X",
"Y.b.0.i.P.I.g.3.| 0.U.P.i.9.b.I., , , b b b - - - g g g D D D D D D D D D D D D D D D D D D D D D b b b y y y = = = y y y , , , I.P.b.-.3.9.i.9.q.p.I.[.'.I.b.y.",
"F.b.i.F.I.Y.P.b.2.G.!.F.3.O.o.O., , , b b b - - - g g g D D D D D D D D D D D D D D D D D D D D D b b b y y y = = = y y y , , , 8.b.!.{.P.9.8.9.~.i.O. .l.P.I.C.",
"O.9.G.b.4.2.y.j.S.6.+.O.3.G.H.H.2 2 2 c c c = = = g g g D D D D D D D D D D D D D D D D D D G G G b b b s s s = = = y y y 2 2 2 b.-.=.v.b.v.q.b.O.;.v.B.P.V.b.c.",
"I.i.-.9.P.!.I.b.i.9.3.;.9.i.'.$X# # # D D D y y y x x x D D D D D D D D D D D D D D D D D D b b b x x x y y y = = = y y y # # # I.I.F.9. .| =.9.y.y.y.y.u.m.y.-.",
"[.I.b.i.v.9.3.=.y.8.-.X.|  .8.G.# # # D D D y y y x x x D D D D D D D D D D D D D D D D D D b b b x x x y y y = = = y y y # # # P.I.P.y.9.m.I.!.W.W.H.I.I.W.Q.~.",
" .-.9.v.y.v.G.I.F.b.i.9.3.8.G.XX# # # D D D H H H p p p V V V D D D D D D D D D C C C M M M l l l i i i ; ; ; e e e y y y # # # P.G.b.9.v.I.I.m.G.q.3.9.3.-.2.9.",
"9.F.P.I.F.b.P.!.#X{.W.P.b.y.b.I.# # # D D D P P P s y y b b b D D D D D D D D D b b b x x x g g g y y y = = = y y y y y y # # # b.b.b.b.b.b.b.F.I.i.9.b.F.3.-.3.",
" .-.3.y.v.G.I.{.I.P.G.I.!.`.I.!.# # # D D D P P P y y y b b b D D D D D D D D D b b b x x x g g g y y y = = = y y y y y y # # # o. .-.G.v.-.8.P.G.8.2.i.I.b.i.b.",
"I.F.b.v.v.9.-.X. ._ _ =.i.b.b.v.# # # Z Z Z I I I s s s b b b S S S D D D S S S b b b x x x f f f y y y % % % y y y u u u # # # 2.-.9.P.m.9.y.!.$XW.m.Y.~.[.{.+X",
"b.G.P.{.+X$X{.I.!.P.b.P.I.I.G.b.# # # y y y d.d.d.P P P b b b b b b D D D b b b b b b x x x y y y y y y y y y y y y = = = # # # XX[.I.I.!.{.{.[.m.m.b.u.y.i.y.b.",
"b.b.I.{.+X{.F.9.%.[  .-.9.v.F.I.# # # y y y d.d.d.P P P b b b b b b D D D b b b b b b x x x y y y y y y y y y y y y = = = # # # I.P.3.| ,.[.I.8.y.H.{.Q.I.I.W.W.",
" .-.i.G.P.G.I.I.s.G.H.j.G.T.!.!.i.F.F.@ @ @ d d d d.d.d.P P P G G G D D D G G G G G G b b n n n n n n n h h h = = = O O O I.I.v.-.;.;.4.b.Q. X}.W.!.y.b.G.b.y.[ ",
"F.i.y.q.y.G.I.!.OX|.+X~.!.!.m.i.3.=.O.# # # g g g d.d.d.P P P D D D D D D D D D D D D b b b b b b b b b g g h - - - # # # P.I.P.!.H.9. . .:.c.m.G.m.-.-.p.H.|.I.",
"I.i.O. .O.3.9.y.+.-.+.-.9.G.G.G.Y.G.q.# # # g g g d.d.d.P P P D D D D D D D D D D D D b b b b b b b b b g g g - - - # # # {.`.v.b.G.P.H.I.!.~.{.H.[.H.W.[.m.b.O.",
"$XW.F.b.m.P.G.b.Y.!.{.!.{.+X+X|.I.{.{.# # # k k k f.f.f.P P P D D D D D D D D D D D D v v v v v v n n n h h h & & & # # # b.8.-.| 3.F.Y.G.9.X._ I.W.i.b.y.4.b.p.",
"G.G.m.G.G.b.i.9. .4.F.i.8.+. . .G.I.Y.# # # # # # g g g b b b D D D D D D D D D D D D D D D D D D h g g y y y # # # # # # P.I.[.[.!.[.I.F.i.q.i. .p.I.|.Y.9.3.-.",
"I.I.Y.I.I.H.P.G.9.P.I.V.i.b.Y.{.!.b.3.# # # # # # g g g b b b D D D D D D D D D D D D D D D D D D h g g y y y # # # # # # >.9.P.I.m.9.3.3.9.G.{.$X@XI.m.3. .y.G.",
"i.i.i.i.i.9.9.4.v.p.q.=._  .8.b.p.;.+., , , 4 4 4 # # # = = = g g g b b b b b b b b b g g g y y y = = = # # # 4 4 4 , , , -.7.v.^.H.c.p.y.9.i.v.m.I.G.~.{.m.I.G.",
"G.m.I.I.I.G.b.q.v.P.[.I.P.P.G.P.I.I.I., , , 4 4 4 # # # = = = g g g b b b b b b b b b g g g y y y = = = # # # 4 4 4 , , , _ =.L.}.W.M.C.I.m.p.m.G.m.3.m.I.m.H.b.",
"|.m.3.;.=.' o.x.i.I.9._ ] y.I.I.c.9.:., , , 4 4 4 # # # = = = g g g b b b b b b b b b g g g y y y = = = # # # 4 4 4 , , , I.H.G.p.y.i.R.~.H.p.p.p.i.i.i.p.G.P.G.",
"i.p.W.[.!.I.B.b.P.F.b.I.I.v.8.I.Y.I.b., , , 4 4 4 # # # = = = g h h b n b b b b b b b h h h y y y = = = # # # 4 4 4 , , , G.y.-.-.O.4.I.~.P.h.b.G.T.~.+X+XY.b.i.",
"I.I.H.b.x.P.!.[.;.=.O.i.b.=. .b.b.I.{.G.;.-., , , 4 4 4 4 4 4 # # # # # # # # # # # # # # # # # # 4 4 4 4 4 4 , , , I.W.+X@X!.b.} O.9.H.Y.p.p.b.H.H.!.H.b.v.p.b.",
"!.{.OX{.~.[.I.I.F.W.[.I.{.+X+X+X$X[.I.P.[.{., , , 4 4 4 4 4 4 # # # # # # # # # # # # # # # # # # 4 4 4 4 4 4 , , , !.~.I.b.m.H.I.I.!.|.!.P.G.I.F.p.y.3.3.4.F.I.",
"9.-.8.v.y.=.=.3.=.P.I.q.b.I.P.9.9.9.4.8.3.8.9.q.4.O O O 4 4 4                                     4 4 4 O O O i.b.W.|.!.u.9.G.|.{.OX~.I.b.9.i.b.p.F.G.H.W.Y.H.m.",
"[.b.v.G.v.2.3.G.-.9.3.-.8.9.9.F.i.F.P.G.v.q.p.P.i.# # # 4 4 4 4 4 4 4 4 4 4 4 4 4 4 4 4 4 4 4 4 4 4 4 4 # # # i.W.H.p.9.-.-.9.G.I.I.G.v.3.;.8.i.I.H.I.!.{.T.G.e.",
"7.7.v.P.G.9.O.O.v.8.o.=.3.-.9.[.#X9.| X.P.{.v.]  .# # # 4 4 4 4 4 4 4 4 4 4 4 4 4 4 4 4 4 4 4 4 4 4 4 4 # # # 2.{.I.I.!.W.H.I.W.i.b.P.G.b.F.b.b.I.P.b.p.i.h.p.j.",
"2.7.2.X.=.i.Y.!.H.{.[.I.[.I.F.P.G.P.F.q.3.2.8.q.b.X X X                                                 X X X 3._ o.i.W.I.i.4.9._ | -.8.9.8.-.=.i.i.F.b.p.G.H.~.",
"y.y.m.].{.W.W.W.H.4.p.H.y.i.W.I.t.M.W.|.{.Q.# # # U U U # # # # # # # # # # # # # # # # # # # # # # # # U U U # # # b.b.i.i.b.P.G.I.!.I.i.9.2.2.m.9.3.9.i.0.=.X.",
"H.9.o.-.p.m.I.m.p.4.G.s.3.3.m.v.s.y.4.I.oX;X# # # U U U # # # # # # # # # # # # # # # # # # # # # # # # U U U # # # b.G.I.b.F.I.u.p.G.p.9.2.+.#.m.i.9.3.2.3.q.g.",
"b.y.m.I.I.m.I.I.h.G.!.J.3.0.F.F.p.H.{.3 3 3 a a a z z z a a a a a a a a a r r r r r r a a a a a a a a a z z z f a a 6 6 6 O.o.O.m.H.I.H.G.p.F.b.3.i.8. .[ =.0.i.",
" .9.G.W.m.i.y.p.h.g.F.D.3.1.8.q.G.m.m.# # # g g g g g g g g g g g g g g g y y y y y y g g g g g g g g g h h h h g g , , , v.G.{.m.H.H.G.p.i.q.q.G.{.!.i.q.b.Y.I.",
"{.H.b.G.!.|.|.[.Y.F.i.G.D.2.1.z.e.b.b.# # # g g g g g h h h g g g g g g g y y y y y y g g g g g g g g g g g h h g g , , , -.i.P.~.!.W.G.b.i.9.6.q.b.F.2.-.i.F.i.",
"G.v.3.-.3.b.F.p.i.9.1.2.8.%.] X.y.Y.#X# # # g g g g g g 8 8 8 8 8 8 8 8 8 g h h y y y 8 8 8 8 8 8 8 8 8 g g h h g g , , , i.G.G.M.H.W.I.Y.G.G.G.F.G.g.9.v.!.{.W.",
"y.b.F.i.y.i.y.9.G.+X!.P.[.[.P.[.~.I.b.# # # g g g g g g 8 8 8 8 8 8 8 8 8 g g g y y y 8 8 8 8 8 8 8 8 8 g g g g g g , , , b.I.!.9.4.i.p.p.F.i.i.0.8.8.q.p.b.G.m.",
"F.9.O.O.3.v.2.] _ G.m.-.x.[.'.I.P.P.L.# # # g g g g g h 8 8 8 8 8 8 8 8 8 g g g y y y 8 8 8 8 8 8 8 8 8 g g g g g g , , , b.G.P.H.M.G.G.b.q.3.+.q.S.G.{.OX!.m.G.",
"0.!.P.X.| q.i.X.( :.Q.~.s.y.i.p.. . . ! ! ! + + + / / / w w w 8 8 8 8 8 8 g g g y y y 8 8 8 8 8 8 8 8 8 / / / : : : R R R # # # i.9.+.-.p.!.!.F.M.m.i.H.|.x.O.u.",
"!.F.b.G.G.q.i.P.Q.W.H.b.G.!.!.H.# # # E E E # # # ~ ~ ~ w w w 8 8 8 8 8 8 g g g y y y 8 8 8 8 8 8 8 8 8 ^ ^ ^ , 2 , E E E , , , y.i.F.G.!.W.p.3.-.i.9.;.b.p.-.-.",
"9.-.5.P.i._ X.G.H.9.{ [ +.i.i.9.# # # E E E # # # ~ ~ ~ w w w 8 8 8 8 8 8 g g g y y y 8 8 8 8 8 8 8 8 8 ^ ^ ^ , 2 2 E E E , , , H.G.H.G.b.i.i.p.G.{.Y.F.I.!.v.q.",
"3.i.b.m.i.3.-.9.F.F.F.F.J.Y.Y.J.# # # E E E U U U # # # ~ ~ ~ k.k.k.:X:X:X^ ^ ^ q q q k.k.k.k.k.k.^ ^ ^ # # # U U U E E E , , , OXH.b.i.9.4.m.OX[.F.i.F.F.2.[ X.",
"{.W.G.G.[.|.G.O.i.i.i.h.z.S.6.q.# # # E E E U U U # # # ~ ~ ~ k.k.k.:X:X:X^ ^ ^ q q q k.k.k.k.k.k.^ ^ ^ # # # U U U E E E , , , G.m.F.G.H.G.I.!.P.q.q.F.v.2.=.1.",
"{.!.{.{.~.I.b.p.+XI.g.i.r.S.5.0.# # # E E E U U U # # # ~ ~ ~ k.k.k.:X:X:X^ ^ ^ q q q k.k.k.k.k.k.^ ^ ^ # # # U U U E E E , , , 9.i.p.b.G.H.G.i.q.p.P.G.b.OX+Xi.",
"W.!.|.+X{.m.G.W.I.i.9.q.6.3.5.q.G.9.8.5 5 5 > > > # # # N N N J J J K K K B B B 7 7 7 J J J J J J N N N # # # > > > 5 5 5 q.9.q.3.p.i.4.9.G.G.y.O.-.9.9.3.H.I.-.",
"I.y.o.-.M.#XM. .{ -.h.I.b.6.9.h.P.9.9.# # # # # # # # # = = = 8 8 8 8 8 8 g g g y y y 8 8 8 8 8 8 - - - # # # # # # # # # G.F.9.+.b.I.p.b.~.!.i.W.y.H.|.I.m.m.<.",
" XQ.a.y.W.|.{.P.b.u.b.H.I.G.s.F.:.@.:.# # # # # # # # # = = = 8 8 8 8 8 8 g g g y y y 8 8 8 8 8 8 - - - # # # # # # # # # p.b.G.b.{.+Xb.4.i.9.O.;.c.I.H.i.-.O.2.",
"M.n.y.w.m.[.|.{.x.y.p.W.~.~.W.K.*XQ.p.m.{. XW.i.O.# # # 8 8 8 y y y = = = # # # # # # = = = y y y 8 8 8 # # # x.3.{ | y.!.I.b.p.I.~.H.9.9.m.{.{.~.W.W.I.m.b.G.[.",
"Z.T.T.b.y.y.b.x.H.b.y.b.!.!.~.).c.b.x.4.9.m.V.m.!.# # # 8 8 8 y y y = = - # # # # # # = = = y y y 8 8 8 # # # {.H.-.;.!.$X!.b.b.p.G.I.H.G.I.I.H.].W.W.!.{.I.G.m.",
"Q.|. X{.C.b.y.9.W.M.I.H.W.H.H.Y.I.#X#XI.v.m.[.I.I.# # # 8 8 8 y y y = = = # # # # # # = = = y y y 8 8 8 # # # W.m.m.!.$X@XI.G.W.{.!.m.9.;.4.I.+X[.!.!.{.!.m.9.3.",
"j.G.W.~.~.'.W.{.x.G.{.=X+XT.p.p.P.V.b.v.I..X[.P.b.# # # W W W T T T 0 0 0 2 2 2 , , , 0 0 0 Q Q Q Y Y Y # # # m.9.G.{.W.m.b.p.m.G.W.!.I.i.b.W.=X|.~.W.W.G.b.p.G.",
"m.b.i.p.b.b.V.'.y.c.m.H.H.G.H.!.I.P.I.W.[.+X{.{.W.# # # E E E U U U 9 9 9 , , , , , , 9 9 9 E E E U U U # # # y.m.I.m.i.9.p.9. .O.m.$X=X|.I.m.i.i.b.G.I.m.b.m.W.",
"p.i.i.v.y.4.9.b.W.b.y.9.p.s.K.~.G.h.m.F.4. .{ 3.y.# # # E E E U U U 9 9 9 , , , , , , 9 9 9 E E E U U U # # # {.+X~.I.G.I.I.4.o.b.!.{.m.i.b.G.i.-.8.b.G.m.y.b.m.",
"#.3.F.W.!.C.W.{.|.W.G.W.+X~.H.h.p.O.O.i.K.G.G.H.|.# # # 4 4 4 4 4 4 # # # W.H.b.B.l.N.# # # 4 4 4 4 4 4 # # # {.{.I.W.+X$X~.I.I.i.I.W.b.F.W.H.9.!.G.b.i.9.9.m.~.",
"[  .+.G.I.y.9.'. XQ.W.Q.s.e.y.M./.Q.u.:.u.].$XoX].# # # 4 4 4 4 4 4 # # # 9.c.H.C.m.H.# # # 4 4 4 4 4 4 # # # G.Z.W.W.].^.].W.A.R.G.j.H.p.-.8.v.p.s.s.u.s.s.T.W.",
"O.3.9.I.+X{.W.XXW.I.b.4.y.s.W./.W.Q.~.].{.|.Q.C.~.# # # 4 4 4 4 4 4 # # # o.m.W.+.o. .# # # 4 4 4 4 4 4 # # # H.].b.:.y.m.W.m.;.+.y.H.i.O.[ 3.I.m.m.m.H.~.Q.W.W.",
"R.!.G.p.m.y.-.-.I.'.W.I.'.=X=X~.Q.H.u.y.y.c.I.{.<.y.p.c.# # # # # # {.Q.b.p.m.b.m.H.y.9.m.@X# # # # # # p.x.v.m.@XC.y.y.W.|.{.W.~.j.4.3.3.9.-.O.I.G.b.G.I.H.b.4.",
"p.H.p.9.y.P.P.'.v.B.P.P.[.!.I.y.H.I.~.|.{.G.m.'.W.|.{.I.# # # # # # m.i.9.I.|.~.#X=X=X!.m.b.# # # # # # v.b.m.P.I.H.m.b.p.m.W.@X4.9.i.m.H.G.!.-XI.G.i.9.q.q.q.9.",
"p.{.I.9.4.y.i.b.B.v.9.x.v.9.i.m. X|.|.@XW.x.y.P.y.m.G.y.# # # # # # b.+X{.H.b.y.i.b.I.W.p.-.# # # # # # V.[.{.{.I.{.{.I.y.9.b.W.OXG.H.{.!.9.4.G.9.q.i.i.i.i.G.Y.",
") 4.u.i.b.b.P.[.P.v.v.I.!.m.G.{.~.H.p.3.-.O.9.b.3.G.W.m.p.b.b.p.W.q.p.b.3.O.b.{.i.3.q.G.I.p.q.b.G.l.3.8.b.I.!.[.|.|.~.!.I.m.H.P.p. .| i.~.H.p.i.O.9.I.I.b.v.b.I.",
"T. X X!.H.v.9.v.9.9.i.b.H.G.p.i.$.y.G.V.m.v.9.8.;.i.m.I.G.b.p.G.v.i.[.{.p.8.i.G.{.G.y.v.G.P.m.b.i.y.i.i.b.m.m.p.G.b.y.i.b.p.i.y.-.i.H.b.3.+.3.4.*.i.'.!.V.y.y.m.",
"H.W.m.b.b.y.q.P.Y.G.6.O.3.h.p.4.p.G.p.9.3.v.i.l.p.v.F.G.b.b.F.W.Y.I.I.F.3.v.G.b.q.i.2.| O.q.G.b.H.R.|./.~.H.G.H.F.m.F.y.9.2.;.3.=.x.i.-.i.~.~.r.;.c.W.'.m.c.P.'."
};
