/* XPM */
static char *_8c69fd099c14c71ec9379bbb758e243Kgb1mD9UZQxgMkkI[] = {
/* columns rows colors chars-per-pixel */
"80 80 186 2 ",
"   c #1F170B",
".  c #1E1812",
"X  c #1E1A19",
"o  c #25160E",
"O  c #24190E",
"+  c #281B0D",
"@  c #251A12",
"#  c #261914",
"$  c #211A1A",
"%  c #28201C",
"&  c #3A2619",
"*  c #3C2919",
"=  c #4A2E16",
"-  c #4C331B",
";  c #713A0F",
":  c #653A13",
">  c #6B3C13",
",  c #683916",
"<  c #6B3C19",
"1  c #723C12",
"2  c #453826",
"3  c #643F23",
"4  c #5F431F",
"5  c #6C4117",
"6  c #62411E",
"7  c #6D411B",
"8  c #74461B",
"9  c #5C4327",
"0  c #634121",
"q  c #6C4827",
"w  c #7C4B22",
"e  c #7F4E2A",
"r  c #674F33",
"t  c #694D34",
"y  c #68553E",
"u  c #71563A",
"i  c #73583B",
"p  c #3E3A4F",
"a  c #3B3A50",
"s  c #6F3748",
"d  c #6B3848",
"f  c #753B45",
"g  c #46414E",
"h  c #5D4F41",
"j  c #46465E",
"k  c #49495D",
"l  c #6E4941",
"z  c #764246",
"x  c #724A40",
"c  c #6C5645",
"v  c #765D44",
"b  c #795C45",
"n  c #7E634B",
"m  c #515167",
"M  c #DB3F39",
"N  c #E53F38",
"B  c #80501C",
"V  c #834D23",
"C  c #865427",
"Z  c #85532B",
"A  c #895429",
"S  c #925C2F",
"D  c #B35E3F",
"F  c #9C682D",
"G  c #8B653B",
"H  c #9A6535",
"J  c #986636",
"K  c #956A3D",
"L  c #9C6D3C",
"P  c #9E703C",
"I  c #A1692F",
"U  c #A56E35",
"Y  c #A46F3A",
"T  c #B9653E",
"R  c #A67035",
"E  c #DD6F10",
"W  c #DE7010",
"Q  c #E64038",
"!  c #9E2B42",
"~  c #A22B43",
"^  c #C22B4A",
"/  c #CB2A4A",
"(  c #D93246",
")  c #E63846",
"_  c #81554A",
"`  c #816347",
"'  c #85694E",
"]  c #966B43",
"[  c #986A41",
"{  c #9C7346",
"}  c #9A7954",
"|  c #A37443",
" . c #A77949",
".. c #B17D41",
"X. c #BC7F4D",
"o. c #A57858",
"O. c #FA564D",
"+. c #FD6759",
"@. c #FD685A",
"#. c #F97F72",
"$. c #EC931E",
"%. c #E28D21",
"&. c #ECAB2C",
"*. c #F1AC29",
"=. c #F1B12B",
"-. c #F6D139",
";. c #F8D23A",
":. c #98885C",
">. c #AF804E",
",. c #BE824E",
"<. c #BD8353",
"1. c #B68458",
"2. c #B9855A",
"3. c #BA895C",
"4. c #9C8664",
"5. c #9C8C68",
"6. c #A78964",
"7. c #A48C64",
"8. c #A48D6C",
"9. c #AC8E6C",
"0. c #A4926C",
"q. c #AC936C",
"w. c #AC9A6C",
"e. c #B5966C",
"r. c #AC8E74",
"t. c #B48E74",
"y. c #AC9574",
"u. c #AC9B74",
"i. c #AA997A",
"p. c #B49574",
"a. c #B49B74",
"s. c #BC9C74",
"d. c #B4967C",
"f. c #B49D7C",
"g. c #BC9E7C",
"h. c #ACA27C",
"j. c #B8A375",
"k. c #B4A27C",
"l. c #BCA37C",
"z. c #BCAA7C",
"x. c #FF8475",
"c. c #C4A47C",
"v. c #C4AA7C",
"b. c #FFE57A",
"n. c #B49E84",
"m. c #BC9E84",
"M. c #B4A484",
"N. c #BCA584",
"B. c #BCAA84",
"V. c #B9A789",
"C. c #BCAC8C",
"Z. c #BCB289",
"A. c #C49E84",
"S. c #F69784",
"D. c #F69986",
"F. c #C4A684",
"G. c #C4AB84",
"H. c #CCAC84",
"J. c #C4A68C",
"K. c #C4AD8C",
"L. c #CCAE8C",
"P. c #C4B284",
"I. c #CCB384",
"U. c #C4B38C",
"Y. c #CCB38C",
"T. c #CABA8C",
"R. c #D4B78C",
"E. c #CCAE94",
"W. c #C4B394",
"Q. c #CCB494",
"!. c #CCBB94",
"~. c #C9B999",
"^. c #D4B694",
"/. c #D4BA94",
"(. c #D7BB9C",
"). c #D4BD9C",
"_. c #EBA89B",
"`. c #F5AE9F",
"'. c #EEBFA8",
"]. c #CCC29C",
"[. c #D4C29C",
"{. c #D8C398",
"}. c #FFF59A",
"|. c #F4C2A9",
" X c #FECAAF",
".X c #FFCBB0",
/* pixels */
"y.g.N.g.y.q.y.q.N.G.N.k.l.B.f.q.u.k.B.B.N.k.U.!.N.N.C.W.C.f.M.K.k.l.k.u.q.y.a.N.U.G.q.7.k.z.k.G.f.u.k.G.l.y.q.g.e.s.l.H.Y.Y.v.l.v.Y.I.F.l.l.v.l.G.c.l.G.R.Y.Y.G.",
"g.f.a.f.l.l.f.9.y.a.y.q.f.G.G.N.B.k.u.N.Q./.K.k.k.f.N.K.K.l.N.W.l.G.K.L.K.K.K.Y.Y.!.Y.G.G.N.l.B.N.k.l.N.l.f.a.N.H.G.c.l.c.G.Y.!.c.N.l.j.a.a.l.l.F.l.l.l.l.f.a.a.",
"l.N.l.p.p.l.K.Y.K.Y.K.G.G.U.Y.K.U.Y.W.U.U.U.C.G.N.N.N.G.N.f.a.l.K.N.g.u.a.l.G.Y.f.f.N.C.l.f.N.f.l.k.f.l.k.g.f.p.p.a.g.F.l.g.N.l.F.l.l.l.l.l.a.l.y.a.a.a.y.6.q.a.",
"f.l.F.f.a.N.Y./.N.L.Y.K.N.N.g.a.a.N.Y.l.8.4.7.f.N.l.l.l.N.l.f.k.g.l.G.L.Y.L.N.f.E.f.f.F.N.Q.Q.F.k.G.K.G.K.K.F.g.g.g.d.p.y.f.F.Q.s.y.a.l.F.a.p.a.l.N.F.G.N.l.N.L.",
"g.f.a.l.K.Y.K.g.8.p.f.g.g.l.l.f.U.Y.U.$ # @ + + + + + + + + + + + + + + + + + + + + + + + + + + + + + + + + + + + + @ # % f.N.K.G.l.l.F.G.N.l.F.l.l.N.N.N.f.a.a.",
"F.F.f.p.a.g.l.f.c.N.F.N.c.N.L.Q.G.G.G.$ h n ` ` ` ` ` ` i i i ' i u u a a a a a a a a a a u u u u u u u u u u u u u u c % g.a.q.Q.G.l.f.g.N.G.Y.K.K.F.K.G.F.g.f.",
"K.K.F.p.8.y.N.L.L.F.F.g.g.g.l.F.G.U.Q.@ v e.>.2.3.3.3.3.Y |  .3.>.L P a a a a a a a a a a L L L L L P P P P P P P L P { * $ Y.Y.N.N.f.q.q.a.l.N.p.y.8.q.y.y.q.y.",
"G.F.N.l.G.L.G.l.f.s.f.g.g.c.N.F.F.N.a.+ v 3.,.X.<.<.<.<.Y a a a d d d O.O.O.O.O.O.O.O.) ) d d d p a a Y Y Y Y U U U R K * $ G.v.L.Q.^.K.F.K.Q.K.E.K.F.N.N.N.J.K.",
"q.q.p.N.K.Y.K.l.l.s.a.e.q.q.q.q.q.q.y.+ v 1.2.V A A Z Z V a a a d d d O.O.O.O.O.O.O.O.) ) d d d p a a w w w w 8 8 B H G * $ G.Y.G.Y.R.U.l.p.a.l.l.N.K.Y.L.g.a.g.",
"F.N.l.N.G.K.G.l.K.G.F.N.l.N.G.G.G.G.N.+ b 2.<.< , < 1 > : a a a d d d O.O.O.O.O.O.O.O.) ) d d d p a a : : : > < , 1 H [ * X G.G.a.a.p.g.G.Y.Y.Y.K.K.L.K.G.L.K.L.",
"N.g.a.a.g.l.N.F.8.8.9.q.d.l.K.L.W.U.K.@ b 2.,., < w a a a ! ! ! O.O.O.x.x.@.@.@.O.O.O.( ( / / / ~ ! ! a a a C 7 < 1 H K * $ l.l.y.a.l.l.a.a.g.l.p.p.y.9.q.f.F.l.",
"F.l.N.g.N.F.K.L.^.Q.Q.E.Q.Q.~.^.^.Q.^.@ b 2.<., < Z a a a ! ! ! O.O.O.x.x.@.@.@.O.O.O.( ( / / / ~ ! ! a a a S 7 < ; H K * X N.L.l.y.8.a.Y.(.Q.l.A.F.c.f.l.Q.!.Q.",
"Q.Y.Q.K.G.N.l.l.f.m.f.m.l.m.g.n.N.G.K.@ b 2.<., , e a a a ! ! ! O.O.O.x.x.@.@.@.O.O.O.( ( / / / ~ ! ! a a a S 7 < 1 o.K * $ s.a.f.G.Y.L.f.y.p.f.c.L.L.F.Y.).).Y.",
"Y.Q.Y.Y.F.g.d.a.y.p.f.f.l.N.N.l.a.a.k.@ b 2.<.j a a ! ! ! ( ( ( x.x.x.@.@.@.@.@.O.O.O.) ) / / / / / / ! ! ! a a a 1 H K * $ p.y.p.q.y.f.F.G.N.f.a.g.l.f.g.l.l.a.",
"G.K.Y.K.F.N.G.K.Y.Y.Y.Y.K.F.l.g.K.K.(.@ b 2.<.j a a ! ! ! ( ( ( x.x.x.@.@.@.@.@.O.O.O.) ) / / / / / / ! ! ! a a a 1 H K * $ K.K.N.K.L.G.f.d.g.G.K.Y.K.K.F.l.f.a.",
"y.p.a.a.a.a.N.L.N.c.G.G.H.G.I.Y.Q./.Q.@ b 1.<.j a a ! ! ! ( ( ( x.x.x.@.@.@.@.@.O.O.O.) ) / / / / / / ! ! ! a a a > H K * $ N.Q.y.r.8.8.y.m.N.K.U.K.G.N.a.9.9.t.",
"k.B.W.W.U.Z.Y.].Y.z.l.l.l.l.l.c.f.l.K.o n d d j j j / / / ) ) ) @.@.@.@.@.O.O.O.O.O.O.O.O.( ( ( / / / / / / j j j d d d * $ B.M.G.Y.Y.G.G.G.Y./.I.l.a.l.K.K.a.5.",
"U.U.Y.!.!.).).).{./.Y.N.g.s.F.Y.K.K.G.o v d d j j j / / / ) ) ) @.@.@.@.@.O.O.O.O.O.O.O.O.( ( ( / / / / / / j j j d d d * X !.[.G.l.l.U./.Y.G.l.j.G.G.K.K.K.Y.{.",
"f.l.N.l.N.l.l.k.y.y.y.y.y.y.p.f.N.l.i.o t d d j j j / / / ) ) ) @.@.@.@.@.O.O.O.O.O.O.O.O.( ( ( / / / / / / j j j d d d * X p.f.K.l.a.l.N.f.N./.I.Y.Y.K.N.f.u.u.",
"K.L.Y.L.c.f.g.l.J.N.F.K.L.K.g.y.a.g.d d d a a d d d / / / O.O.O.O.O.O.W W D D D D D D D D ) ) ) / / / / / / d d d a a a d d a.f.p.u.N.G.N.a.g.G.G.l.y.8.8.y.k.B.",
"g.g.g.a.p.9.8.9.f.f.f.f.m.m.m.f.y.u.d d d a a d d d / / / O.O.O.O.O.O.W W D D D D D D D D ) ) ) / / / / / / d d d a a a d d g.F.a.a.a.f.l.N.f.q.7.q.l.N.N.N.W.[.",
"L.N.g.l.K.K.c.a.8.g.L.K.l.f.N.K.Y.K.d d d a a d d d / / / O.O.O.O.O.O.W W D D D D D D D D ) ) ) / / / / / / d d d a a a d d F.Y.K.K.N.y.a.f.l.f.g.l.K.Q.W.K.N.k.",
"F.N.l.F.K.L.K.N.p.G.Y.F.a.q.0.q.k.f.j j j ) ) ~ ! ! / / / O.O.O.W W W ;.;.;.;.;.;.;.;.=.=.T D D / / / ! ! ! d d d ! ! ! j j g.g.f.N.Y.Q.K.f.f.f.Y.l.q.8.n.K.K.C.",
"q.f.G.N.a.p.k.v.A.s.q.q.a.G.G.G.N.J.j j j ) ) ~ ! ! / / / O.O.O.W W W ;.;.;.;.;.;.;.;.=.=.T D D / / / ! ! ! d d d ! ! ! j j f.a.N.y.y.N.N.N.g.N.q.u.N.V.K.C.N.M.",
"K.l.y.f.K.Y.K.N.l.f.a.u.f.l.W.).K.K.j j j ) ) ~ ! ! / / / O.O.O.W W W ;.;.;.;.;.;.;.;.=.=.T D D / / / ! ! ! d d d ! ! ! j j W.K.K.K.F.f.8.8.y.f.k.k.k.k.k.B.k.y.",
"Q.K.N.l.N.f.a.y.k.f.y.9.8.8.f.G.G.f.a a a O.O.) ) ) ( ( ( D D D =.=.=.W W W W W W W W W W *.=.=.z d d ! ! ! ! ! ! ! ! ! a a Y.B.K.K.K.k.f.B.K.Y.U.U.G.K.K.U.U.Y.",
"8.y.f.N.k.N.G.K.F.N.l.f.a.f.G.~.K.f.a a a O.O.) ) ) ( ( ( D D D =.=.=.W W W W W W W W W W *.=.=.z d d ! ! ! ! ! ! ! ! ! a a k.f.K.G.N.f.N.K.K.B.G.g.a.f.a.y.p.f.",
"f.F.K.K.F.N.K.Y.(.Q.U.K.N.k.N.K.Q.K.a a a O.O.+.@.@.! ! ! D D D W W W W W W W W W W W W W W W W f d d d d d ! ! ! ! ! ! a a K.U.N.N.N.N.N.N.N.F.K.l.f.N.F.a.y.a.",
"8.y.a.k.N.G.K.Q.K.K.G.K.Y.E.K.Y.K.N.a a a O.O.+.@.@.! ! ! D D D W W W W W W W W W W W W W W W W f d d d d d ! ! ! ! ! ! a a C.N.0.8.y.G.N.y.f.K.G.f.p.l.K.N.l.N.",
"K.F.N.N.N.f.y.9.8.4.4.y.l.N.N.N.l.k.a a a O.O.+.@.@.! ! ! D D D W W W W W W W W W W W W W W W W f d d d d d ! ! ! ! ! ! a a l.M.p.y.f.K.B.f.k.Y.).U.B.L.Y.Q.Q./.",
"N.G.K.Q./.).Q.K.Y.K.N.K.K.K.G.N.K.K.a a a ! ! #.x.x.@.@.@.) ) ) ! ! ! E E W W W W W W W W f d d d d d ! ! ! ! ! ! d d d a a Q.!.~.Q.K.K.Y.Q.Q.Q.B.B.N.k.k.l.k.N.",
"N.N.K.Q./.Q.F.f.r.7.8.y.f.N.F.K.K.K.a a a ! ! #.x.x.@.@.@.) ) ) ! ! ! E E W W W W W W W W f d d d d d ! ! ! ! ! ! d d d a a f.f.K.K.a.8.i.Q.K.f.k.G.Q.U.K.K.U.U.",
"8.y.l.G.K.G.K.K.z.G.G.v.G.P.Y.Y.l.F.a a a ! ! #.x.x.@.@.@.) ) ) ! ! ! E E W W W W W W W W f d d d d d ! ! ! ! ! ! d d d a a K.N.y.u.u.a.N.U.!.W.U.Y.k.N.G.N.k.7.",
"F.l.k.g.k.G.K.Y.^.!./.Y.Y.Y.B.l.a.y.q.@ t a a ^ / / x.x.x.@.@.@.O.O.O.! ! E E E W W W d d ! ! ! / / / / / / d d d a a a * $ K.K.Y.G.f.8.8.u.M.B.G.B.y.y.l.G.!.K.",
"K.l.q.8.q.a.f.k.q.y.q.y.f.G.G.G.L.G.g.@ t a a ^ / / x.x.x.@.@.@.O.O.O.! ! E E E W W W d d ! ! ! / / / / / / d d d a a a * $ E.N.N.G.K.G.K.Y.Y.Q.G.Q.G.U.Q.B.N.q.",
").U.F.N.B.K.G.N.L.Y.Q.Y.Q././.!.K.Q.Q.@ t a a ^ / / x.x.x.@.@.@.O.O.O.! ! E E E W W W d d ! ! ! / / / / / / d d d a a a * $ f.y.8.a.F.L.G.f.9.4.K.U.l.N.k.a.N.l.",
"G.G.B.G.G.N.l.f.8.a.F.l.f.q.8.8.G.K.L.+ t a a a a a / / / ) ) ) O.O.O.O.O.! ! ! d d d ! ! / / / / / / ! ! ! a a a a a a * $ K.Q.Q.Y.Q.K.F.l.g.l.8.l.K.!.L.f.a.y.",
"K.K.L.K.K.G.K.G.f.K.K.C.l.N.L.Q.Y.N.a.+ t a a a a a / / / ) ) ) O.O.O.O.O.! ! ! d d d ! ! / / / / / / ! ! ! a a a a a a * $ f.K.K.B.f.a.a.f.G.Q.)./.K.B.a.8.k.G.",
"l.l.l.l.l.f.f.a.N.l.g.y.4.8.f.N.l.u.q.o t a a a a a / / / ) ) ) O.O.O.O.O.! ! ! d d d ! ! / / / / / / ! ! ! a a a a a a * $ d.N.T.G.M.l.k.f.l.N.B.K.G.Y.Q.B.K.G.",
"G.B.K.K.K.G.N.g.N.K.Q.K.K.K.G.K.K.K.K.o t j j _.`.`.a a a d d d / / / ) ) ) ) ) ) ) ) / / ~ ! ! s d d a a a `.`.`.j j j * X y.J.W.U.B.C.K.B.l.B.G.B.a.B.K.B.G.N.",
"!.B.a.u.y.5.0.M.l.K.f.4.6.k.K.K.M.f.u.o t j j _.`.`.a a a d d d / / / ) ) ) ) ) ) ) ) / / ~ ! ! s d d a a a `.`.`.j j j * X G.G.l.k.l.I.Y.G.l.l.l.l.l.l.l.G.K.G.",
"l.l.U.Q.Y.K.V.N.K.F.N.K.K.N.f.K.L.K.N.o t j j _.`.`.a a a d d d / / / ) ) ) ) ) ) ) ) / / ~ ! ! s d d a a a `.`.`.j j j * X k.y.y.q.a.K.Y.K.c.N.G.P.Y././.L.N.l.",
"K.K.G.N.M.K.Y.Q.u.y.q.l.N.y.8.N.N.K.Q.o t j j |. X X.X.X.X.X.X.Xa a a a a a a a a a a a a a a a '. X X.X.X.X.X.X.Xj j j * X Y.N.6.q.f.G.L.l.l.N.G.G.Y.G.N.N.l.N.",
"Y.Q.^.Q.Y.Q.K.K.F.U.Q.K.Q./././.).Q.K.o t j j |. X X.X.X.X.X.X.Xa a a a a a a a a a a a a a a a '. X X.X.X.X.X.X.Xj j j * X B.G.K.K.Y.!.Y.K.G.K.F.l.k.a.a.a.F.K.",
"f.y.f.N.k.y.y.a.y.K.K.g.N.K.K.f.f.f.a.o t L U m j j `.`.`..X.X.X_ _ _  X X.X.X.X.X.X.X.X.X_ _ _ |. X X`.`.`.j j j > H K * X G.!.Q.^.Y.K.N.f.l.N.l.F.G.G.U.L.G.B.",
"Q.N.N.G.N.p.a.G.y.f.a.y.f.f.f.F.l.F.K.o t L U m j j `.`.`..X.X.X_ _ _  X X.X.X.X.X.X.X.X.X_ _ _ |. X X`.`.`.j j j > H K * X f.G.K.K.G.N.a.u.f.l.K.G.K.Y.Q.P.G.j.",
"d.d.N.K.G.f.q.q.N.f.0.y.a.y.f.Q.(.f.8.o t L U m j j `.`.`..X.X.X_ _ _  X X.X.X.X.X.X.X.X.X_ _ _ |. X X`.`.`.j j j > H [ * X K.U.l.N.K.G.N.F.N.N.K.K.N.l.l.c.l.v.",
"p.d.p.9.y.l.L.Y.G.Q.Q.K.Q.K.F.K.G.K.F.o t L U m j j `.`.`.S.S.S.S.S.S.`.`.`.`.`.`.`.`.`.`.D.S.S.S.S.S.`.`.`.j j j > H [ * X a.f.4.8.y.f.f.f.y.y.l.l.F.N.l.G.G.Y.",
"k.k.B.W.Q.U.U.U.G.a.l.G.k.l.U.K.j.B.U.o t L U m j j `.`.`.S.S.S.S.S.S.`.`.`.`.`.`.`.`.`.`.D.S.S.S.S.S.`.`.`.j j j > H [ * X N.K.G.K.Y.K.l.f.p.p.B.f.a.f.l.g.y.9.",
"G.f.0.y.l.B.K.B.l.a.G.z.a.a.B.N.z.k.a.o t L U m j j `.`.`.S.S.S.S.S.S.`.`.`.`.`.`.`.`.`.`.D.S.S.S.S.S.`.`.`.j j j > H [ * X F.K.k.l.G.l.f.p.q.e.B.l.f.a.p.a.g.c.",
"N.k.B.K.K.B.K.K.c.G.Y.H.a.g.F.F.l.G.Q.o t a a %.$.$.j j j j j j j j j j j j j j j j j j j j j j j j j j j j $.$.$.j j j * X 0.q.B.G.K.G.G.l.F.N.a.l.f.8.7.y.g.l.",
"8.f.G.U.B.l.k.l.c.c.F.F.a.p.f.g.G.B.B.o t a a %.$.$.j j j j j j j j j j j j j j j j j j j j j j j j j j j j $.$.$.j j j * X G.Q.B.G.G.G.l.l.g.g.G.Q.Y.l.g.N.L.K.",
"Q.G.N.G.Y.!.!.Q.L.F.l.G.F.p.p.m.j.N.N.o t a a %.$.$.j j j j j j j j j j j j j j j j j j j j j j j j j j j j $.$.$.j j j * X l.K.Y.Y.U.G.N.l.f.s.g.N.F.p.y.l.F.l.",
"G.N.a.y.a.N.F.l.l.f.p.p.f.r.6.9.k.L.(.+ t a a M N N / / / / / / / / / / / ! ! ! ! ! ! / / / / / / / / / / / N N N j j j * X G.G.B.G.U.K.L.G.G.G.F.G.c.f.N.Y.Q.U.",
"k.N.F.l.k.l.k.f.G./.Y.K.Q.Q.K.Q.Y.K.N.+ t a a M N N / / / / / / / / / / / ! ! ! ! ! ! / / / / / / / / / / / N N N j j j * X K.Y.f.a.l.l.l.F.l.l.g.f.f.g.l.N.G.B.",
"F.f.q.q.a.N.p.6.4.G.B.y.M.Q.W.K.K.K.J.+ t a a M N N / / / / / / / / / / / ! ! ! ! ! ! / / / / / / / / / / / N N N j j j * X G.K.G.B.G.G.N.g.a.q.g.A.G.Q.^.Y.B.G.",
"g.Y.K.9.8.g.l.9.:.u.U.Y.z.k.l.l.G.G.j j j =.=.g a a -.-.-.Q Q Q N N N N N / / / ! ! ! N N N N N N N N ;.;.;.j j j =.=.=.j j a.N.l.f.q.y.l.Y.Y.F.B.B.l.G.!.M.q.k.",
"Y.F.N.G.G.g.l.K.U.U.G.N.G.Y.Y.G.G.G.j j j =.=.g a a -.-.-.Q Q Q N N N N N / / / ! ! ! N N N N N N N N ;.;.;.j j j =.=.=.j j N.L.k.l.F.G.Y.U.l.a.y.l.f.u.N.l.y.y.",
"f.y.s.K.l.4.9.G.G.f.7.7.q.l.l.f.H.G.j j j =.=.$.$.$.a a a -.-.-.b.b.b.}.}.;.;.;.W W W b.b.b.b.b.;.;.;.a a a $.$.$.=.=.=.j j F.K.G.G.G.G.N.l.l.l.G.Q.L.F.K.Y.N.g.",
"a.l.N.B.l.a.y.f.F.F.F.F.H.L.L.H.H.L.j j j =.=.$.$.$.a a a -.-.-.b.b.b.}.}.;.;.;.W W W b.b.b.b.b.;.;.;.a a a $.$.$.=.=.=.j j l.G.^.G.N.l.f.a.B.^.Q.F.l.F.F.p.7.9.",
"Q.U.G.G.Q.!.G.q.l.l.l.c.m.A.s.g.p.s.j j j =.=.$.$.$.a a a -.-.-.b.b.b.}.}.;.;.;.W W W b.b.b.b.b.;.;.;.a a a $.$.$.=.=.=.j j N.K.G.B.F.G.G.G.K.Y.K.g.g.F.N.p.y.p.",
"Q.Y.Q.Q.Y.K.N.l./.K.c.l.j.A.s.g.q.9.9.+ t j j a a a a a a d d d N N N N N / / / ! ! ! N N N N N f d d a a a a a a j j j * X g.G.f.l.l.N.G.G.G.l.g.l.K.G.N.^./.l.",
"U.Y.!./.Q.B.G.U.K.l.f.g.s.a.s.g.G.f.f.+ t j j a a a a a a d d d N N N N N / / / ! ! ! N N N N N f d d a a a a a a j j j * X f.g.a.l.l.a.f.G.G.k.q.y.f.f.a.G.K.y.",
"K.k.0.y.B.(.B.8.7.y.c.K.N.s.f.c.K.f.f.+ t j j a a a a a a d d d N N N N N / / / ! ! ! N N N N N f d d a a a a a a j j j * X F.f.q.N.K.l.N.Y.Y.l.U.k.G.!.K.B.B.i.",
"!.U.z.k.U.!.Q.K.N.k.N.G.K.G.z.F.u.w.u.+ t L U > > A a a a N N N ! ! ! d d a a a a a a d d ! ! ! N N N a a a I 7 : > J [ * X N.G.N.Q./.N.a.l.f.q.u.M.K.G.l.y.q.p.",
"B.M.k.h.B.Q.!.Q.M.k.l.U.Y.Y.U.H.{.U.l.+ t L U > > A a a a N N N ! ! ! d d a a a a a a d d ! ! ! N N N a a a I 7 < > H [ * $ N.l.K.Y.G.f.f.B.Q.Q.Y.U.U.K.B.N.G.Q.",
"Z.P.P.N.k.k.N.M.G.N.k.N.Y.Y.Y.R.M.N.M.+ t L U > > A a a a N N N ! ! ! d d a a a a a a d d ! ! ! N N N a a a I 7 < > J [ * $ N.N.l.G.K.G.G.K.K.G.W.U.U.Y.Q.K.G.B.",
"U.!.!.Q.C.N.k.f.U.B.K.G.U.G.G.L.K.(.(.+ t L U > > A a a a =.=.=.$.$.$.D D j j j j j j D D &.=.=.$.$.$.a a a I 7 < > J [ * $ G.U.Q.Y.B.f.u.a.K./.Q.Y.Y.Q.Y.B.f.a.",
"v.G.U.Y.Y.W.U.Q.M.G.Q.[./.P.l.l.K.C.N.+ t L U > > A a a a =.=.=.$.$.$.D D j j j j j j D D &.=.=.$.$.$.a a a I 7 < < H [ * $ l.B.G.U.Y.K.l.N.U.[.!.Y.U.U.G.N.l.G.",
"B.N.l.l.N.N.C.W.k.M.B.G.G.G.G.Y.K.K.K.+ t L U , > A a a a =.=.=.$.$.$.D D j j j j j j D D &.=.=.$.$.$.a a a I 7 < < H K * $ f.8.q.B.).[.!.K.B.l.l.N.G.K.B.N.B.U.",
"l.l.l.N.k.a.f.N.U.N.k.f.l.z.H.Y.G.c.B.O r L U > > C a a a x x x x x x a a ............a a l x x x x x a a a F 5 : > H K * $ a.0.N.Y.Q.B.l.N.G.l.y.f.N.G.B.k.N.B.",
"e.a.F.U.Y.C.U.Q.!.U.G.U./.Y.G.c.l.q.q.O r L Y : : A a a a x x x x x x a a F F F F F F a a l x x x x x a a a F 7 , : J ] * $ K.K.l.K.U.N.F.U.G.f.Y.G.N.l.f.f.B.Y.",
"7.8.q.G.K.k.f.W.!.U.U.U.z.j.k.B.T.U.k.  y } { , 6 G { { | a a a a a a | | | | | | | | | | k a a a a a | | |  .q 0 6 ] } * $ U.Z.I.G.v.G.l.y.f.N.l.z.z.k.z.z.P.U.",
"q.a.f.K./.Q.U.~.U.K.N.a.k.z.U.T.U.U.Y.% 2 9 0 = = - 9 0 0 a a a a a a 6 6 0 0 0 0 0 0 0 3 k a a a a a 0 6 6 4 - - = 9 9 & $ B.u.q.k.G.l.q.7.a.K.B.B.B.G.Y.U.U.U.",
"I.Y.G.l.B.k.y.y.K.W.U.K.W.[.[.Y.U.G.k.$ @   O # # .   O   a a a a a a O O O o o o o o o o k a a a a a O o     . # @ O @ $ $ Q.U.Y.v.a.a.a.f.y.q.K.G.N.G.K.G.N.a.",
"l.G.l.f.k.K.K.W.N.V.K.K.Q.Y.K.k.G.K.Y.!.Q.G.B.W.U.!.Q.K.W.[.).U.).K.B.l.f.K.!.Y.(.[.[.Y.B.N.l.N.K.K.N.N.N.N.B.K.K.G.B.N.l.B.U./.a.f.l.B.G.G.Y.{.K.G.l.f.g.g.g.f.",
"l.Q.K.f.a.k.l.N.V.N.f.M.N.f.l.B.!.!.!./.U.M.k.K.k.B.G.k.a.N.B.f.B.a.N./.Q.G.N.k.l.N.K.U.l.y.u.l.W.N.M.l.C.Q.Q.Q.K.Q.Q.K.k.f.N.U.^.G.G.Q.Y.f.a.G.f.g.l.l.l.l.G.L.",
":.a.k.l.N.N.K.Q.K.N.N.K.Y.B.G.Q.Y.G.l.a.y.q.f.N.a.G.U.B.l.N.N.l.U.g.l.N.a.q.N.Q.l.a.g.G.K.l.g.N.G.n.a.f.N.K.Y.Q.!.!.Y.Y.K.B.G.K.l.8.8.l.Y.G.l.l.q.f.K.K.N.N.N.K.",
"P.!.!.Y.G.N.f.N.f.f.l.N.G.G.l.l.e.k.G.C.B.N.f.f.u.l.B.K.G.N.l.G.N.l.Q.Q.l.f.l.G.Q.G.k.N.G.K.B.N.l.k.l.l.N.B.B.l.G.N.k.l.N.l.l.k.y.l.G.N.a.q.a.a.0.l.W.Y.C.k.k.B.",
"G.U.B.N.N.k.g.K.L.G.s.q.a.c.l.a.l.G.l.f.a.N.l.n.l.N.F.G.N.N.F.U.L.K.K.F.a.N.G.N.g.l.p.8.q.g.G.N.G.I.!.T.Y.G.G.G.F.B.F.k.f.p.u.a.y.M.l.y.l.Y.Y.j.u.M.U.W.B.M.K.W."
};
