/* XPM */
static char *_954287a4daf47308d0c96d5af6bc157PoePZeqbLQs2Wqui[] = {
/* columns rows colors chars-per-pixel */
"80 80 197 2 ",
"   c #1E170C",
".  c #1E1812",
"X  c #1E1A19",
"o  c #24160E",
"O  c #24190E",
"+  c #281A0D",
"@  c #241A12",
"#  c #261A15",
"$  c #211B1B",
"%  c #28201C",
"&  c #34251D",
"*  c #3C2919",
"=  c #4B3119",
"-  c #663B16",
";  c #6A3C13",
":  c #693C19",
">  c #723D12",
",  c #543C23",
"<  c #5F431F",
"1  c #69411C",
"2  c #704319",
"3  c #744619",
"4  c #5C4326",
"5  c #624222",
"6  c #6C4827",
"7  c #674F33",
"8  c #694D34",
"9  c #754B3F",
"0  c #68553E",
"q  c #715639",
"w  c #2D2D45",
"e  c #36364C",
"r  c #37384F",
"t  c #3C3A4F",
"y  c #2D2F52",
"u  c #2D3453",
"i  c #2D3950",
"p  c #333751",
"a  c #353B51",
"s  c #3B3A50",
"d  c #3B3E62",
"f  c #433A4F",
"g  c #58394B",
"h  c #423950",
"j  c #622D49",
"k  c #6E3847",
"l  c #62344A",
"z  c #6B3848",
"x  c #763148",
"c  c #3D485F",
"v  c #5D4F41",
"b  c #444255",
"n  c #46465E",
"m  c #48455D",
"M  c #6B4945",
"N  c #724A40",
"B  c #6C5645",
"V  c #795A46",
"C  c #7E644D",
"Z  c #414460",
"A  c #505067",
"S  c #E53E38",
"D  c #80501C",
"F  c #864F24",
"G  c #875627",
"H  c #875629",
"J  c #895529",
"K  c #B35E3F",
"L  c #B95E3D",
"P  c #9B672A",
"I  c #9C662C",
"U  c #8B653B",
"Y  c #996636",
"T  c #996937",
"R  c #9C6D3C",
"E  c #9E703C",
"W  c #A2692F",
"Q  c #A36C37",
"!  c #A46D35",
"~  c #BA613E",
"^  c #A97539",
"/  c #DE6F10",
"(  c #DD7010",
")  c #992645",
"_  c #9E2B42",
"`  c #8B3044",
"'  c #A02942",
"]  c #AD3447",
"[  c #CB2A4A",
"{  c #D22849",
"}  c #C93344",
"|  c #D93246",
" . c #E53746",
".. c #E63846",
"X. c #81554A",
"o. c #816347",
"O. c #966B42",
"+. c #986A41",
"@. c #9C7346",
"#. c #9A7954",
"$. c #A27543",
"%. c #A37948",
"&. c #B47E45",
"*. c #FA564D",
"=. c #FB584D",
"-. c #E84B50",
";. c #F45552",
":. c #FD6658",
">. c #FD685A",
",. c #F56662",
"<. c #EB8F1D",
"1. c #EC921E",
"2. c #F79A1A",
"3. c #F2B22B",
"4. c #F7D139",
"5. c #F8D239",
"6. c #98885C",
"7. c #BE824E",
"8. c #BA8657",
"9. c #BF8C54",
"0. c #BF9057",
"q. c #BE915A",
"w. c #9C8664",
"e. c #9C8C68",
"r. c #A78964",
"t. c #A48C64",
"y. c #A48D6C",
"u. c #AC8E6C",
"i. c #A5936C",
"p. c #AC936C",
"a. c #B5966C",
"s. c #AC8E74",
"d. c #B48E74",
"f. c #AC9574",
"g. c #AC9B74",
"h. c #A99979",
"j. c #B49574",
"k. c #B49B74",
"l. c #BC9C74",
"z. c #B4967C",
"x. c #B49D7C",
"c. c #BC9D7C",
"v. c #ACA27C",
"b. c #B8A375",
"n. c #B4A27C",
"m. c #BCA37C",
"M. c #BCAA7C",
"N. c #C08C54",
"B. c #C1935D",
"V. c #C39561",
"C. c #FF8575",
"Z. c #C4A47C",
"A. c #C4AA7C",
"S. c #D3A472",
"D. c #FEE77C",
"F. c #898995",
"G. c #B49E84",
"H. c #BC9E84",
"J. c #B4A484",
"K. c #BCA584",
"L. c #BCAA84",
"P. c #BAA78A",
"I. c #BCAC8C",
"U. c #BCB289",
"Y. c #C49E84",
"T. c #F69784",
"R. c #FA9985",
"E. c #C4A684",
"W. c #C4AB84",
"Q. c #CCAB84",
"!. c #C4A68C",
"~. c #C4AD8C",
"^. c #CCAE8C",
"/. c #C6B587",
"(. c #CCB384",
"). c #C4B38C",
"_. c #CCB38C",
"`. c #D4B78C",
"'. c #CCAE94",
"]. c #C4B394",
"[. c #CCB494",
"{. c #CCBB94",
"}. c #C8B998",
"|. c #D4B694",
" X c #D4BA94",
".X c #D4BD9C",
"XX c #DCBE9C",
"oX c #F5AD9E",
"OX c #F7AFA0",
"+X c #FAAFA0",
"@X c #FAB0A0",
"#X c #FABAA6",
"$X c #CCC29C",
"%X c #D5C29B",
"&X c #F0C18F",
"*X c #FECAAF",
"=X c #FFCBB0",
/* pixels */
"f.c.K.c.f.p.f.p.K.W.K.n.m.L.x.p.g.n.L.L.K.n.).{.K.K.I.].I.x.J.~.n.m.n.g.p.f.k.K.).W.p.t.n.M.n.W.x.g.n.W.m.f.p.c.a.l.m.Q._._.A.m.A._.(.E.m.m.A.m.W.Z.m.W.`._._.W.",
"c.x.k.x.m.m.x.u.f.k.f.p.x.W.W.K.L.n.g.K.[. X~.n.n.x.K.~.~.m.K.].m.W.~.^.~.~.~._._.{._.W.W.K.m.L.K.n.m.K.m.x.k.K.Q.W.Z.m.Z.W._.{.Z.K.m.b.k.k.m.m.E.m.m.m.m.x.k.k.",
"m.K.m.j.j.m.~._.~._.~.W.W.)._.~.)._.].).).).I.W.K.K.K.W.K.x.k.m.~.K.s s s s s s s s s s s s K.x.m.n.x.m.n.c.x.j.j.k.c.E.m.c.K.m.E.m.m.m.m.m.k.m.f.k.k.k.f.r.p.k.",
"x.m.E.x.k.K._. XK.^._.~.K.K.c.k.k.K._.m.y.w.t.x.K.m.m.m.K.m.x.n.c.m.s s s s s s s s s s s s [.E.n.W.~.W.~.~.E.c.c.c.z.j.f.x.E.[.l.f.k.m.E.k.j.k.m.K.E.W.K.m.K.^.",
"c.x.k.m.~._.~.c.y.j.x.c.c.m.m.x.)._.).$ # @ + + + + + + + + + + + + i i i i i i i i i i i i + + + + + + + + + + + + @ # % x.K.~.W.m.m.E.W.K.m.E.m.m.K.K.K.x.k.k.",
"E.E.x.j.k.c.m.x.Z.K.E.K.Z.K.^.[.W.W.W.$ v C o.o.o.o.o.s s s z z z l *.*.*.*.*.*.*.*.*.......z z z s s s q q q q q q q B % c.k.p.[.W.m.x.c.K.W._.~.~.E.~.W.E.c.x.",
"~.~.E.j.y.f.K.^.^.E.E.c.c.c.m.E.W.).[.@ V a.8.8.8.8.8.s s s z z z l *.*.*.*.*.*.*.*.*.......z z z s s s E E E E E R E @.* $ _._.K.K.x.p.p.k.m.K.j.f.y.p.f.f.p.f.",
"W.E.K.m.W.^.W.m.x.l.x.c.c.Z.K.E.E.K.k.+ V 8.7.&.7.7.7.s s s z z z l *.*.*.*.*.*.*.*.*.......z z z s s s ! ! ! ! ! ! ! T * $ W.A.^.[.|.~.E.~.[.~.'.~.E.K.K.K.!.~.",
"p.p.j.K.~._.~.m.m.l.k.a.p.p.p.p.p.p.f.+ V 8.7.F s s s _ _ _ *.*.*.*.C.C.C.>.>.>.......| | | [ [ [ _ _ _ s s s t 3 D T U * $ W._.W._.`.).m.j.k.m.m.K.~._.^.c.k.c.",
"E.K.m.K.W.~.W.m.~.W.E.K.m.K.W.W.W.W.K.+ V 8.7.; s s s _ _ _ *.*.*.*.C.C.C.>.>.>.......| | | [ [ [ _ _ _ s s s t ; > Y +.* X W.W.k.k.j.c.W._._._.~.~.^.~.W.^.~.^.",
"K.c.k.k.c.m.K.E.y.y.u.p.z.m.~.^.].).~.@ V 8.7.; s s s _ _ _ *.*.*.*.C.C.C.>.>.>.......| | | [ [ [ _ _ _ s s s t : > Y R * $ m.m.f.k.m.m.k.k.c.m.j.j.f.u.p.x.E.m.",
"E.m.K.c.K.E.~.^.|.[.[.'.[.[.}.|.|.[.|.@ V s s s _ _ _ | | | C.C.C.C.>.>.>.>.>.>.*.*.*.......[ [ [ [ [ [ _ _ _ _ s s p K K K K.^.m.f.y.k._.XX[.m.Y.E.Z.x.m.[.{.[.",
"[._.[.~.W.K.m.m.x.H.x.H.m.H.c.G.K.W.~.@ V s s s _ _ _ | | | C.C.C.C.>.>.>.>.>.>.*.*.*.......[ [ [ [ [ [ _ _ _ _ s s p K K K l.k.x.W._.^.x.f.j.x.Z.^.^.E._..X.X_.",
"_.[._._.E.c.z.k.f.j.x.x.m.K.K.m.k.k.n.@ V s s s _ _ _ | | | C.C.C.C.>.>.>.>.>.>.*.*.*.......[ [ [ [ [ [ _ _ _ _ s s p K K K j.f.j.p.f.x.E.W.K.x.k.c.m.x.c.m.m.k.",
"W.~._.~.E.K.W.~._._._._.~.E.m.c.~.~.z z z n n n [ [ [ ......>.>.>.>.>.>.>.*.*.*.*.*.*.*.*.*.......[ [ [ [ [ [ [ n n d 3.3.3.K K K ~.^.W.x.z.c.W.~._.~.~.E.m.x.k.",
"f.j.k.k.k.k.K.^.K.Z.W.W.Q.W.(._.[. Xz z z n n n [ [ [ ......>.>.>.>.>.>.>.*.*.*.*.*.*.*.*.*.......[ [ [ [ [ [ [ n n d 3.3.3.K K K s.y.y.f.H.K.~.).~.W.K.k.u.u.d.",
"n.L.].].).U._.$X_.M.m.m.m.m.m.Z.x.m.z z z n n n [ [ [ ......>.>.>.>.>.>.>.*.*.*.*.*.*.*.*.*.......[ [ [ [ [ [ [ n n d 3.3.3.K K K _._.W.W.W._. X(.m.k.m.~.~.k.e.",
").)._.{.{..X.X.X%X X_.K.c.l.E.z z z s s s z z z [ [ [ *.*.*.*.*.*.*.*.*.*.*.*.*.*.*.*.*.*.*.*.*.*.| | | [ [ [ [ z z j 4.4.4.N N N m.m.). X_.W.m.b.W.W.~.~.~._.%X",
"x.m.K.m.K.m.m.n.f.f.f.f.f.f.j.z z z s s s z z z [ [ [ *.*.*.*.*.*.*.*.*.*.*.*.*.*.*.*.*.*.*.*.*.*.| | | [ [ [ [ z z j 4.4.4.N N N m.k.m.K.x.K. X(._._.~.K.x.g.g.",
"~.^._.^.Z.x.c.m.!.K.E.~.^.~.c.z z z s s s z z z [ [ [ *.*.*.*.*.*.*.*.*.*.*.*.*.*.*.*.*.*.*.*.*.*.| | | [ [ [ [ z z j 4.4.4.N N N g.K.W.K.k.c.W.W.m.f.y.y.f.n.L.",
"c.c.c.k.j.u.y.u.x.x.x.x.H.H.H.n n n { { { z z z [ [ [ *.*.*.*.*.*.*.*.*.*.*.*.*.*.*.*.*.*.*.*.*.*......._ _ _ _ z z l <.<.<.s s s k.k.x.m.K.x.p.t.p.m.K.K.K.].%X",
"^.K.c.m.~.~.Z.k.y.c.^.~.m.x.K.n n n [ [ [ z z z [ [ [ *.*.*.*.*.*.*.*.*.*.*.*.*.*.*.*.*.*.*.*.*.*. ....._ _ _ _ z z l 1.1.1.s s s ~.K.f.k.x.m.x.c.m.~.[.].~.K.n.",
"E.K.m.E.~.^.~.K.j.W._.E.k.p.i.n n n [ [ [ z z z [ [ [ *.*.*.*.*.*.*.*.*.*.*.*.*.*.*.*.*.*.*.*.*.*. ....._ _ _ _ z z l 1.1.1.s s s K._.[.~.x.x.x._.m.p.y.G.~.~.I.",
"p.x.W.K.k.j.n.A.Y.l.p.p.k.W.W.s s s [ [ [ _ _ _ | | | *.*.*.*.*.*.*.*.*.*.*.*.*.*.*.*.*.*.*.......| | | _ _ _ _ z z l ( ( ( s s s f.f.K.K.K.c.K.p.g.K.P.~.I.K.J.",
"~.m.f.x.~._.~.K.m.x.k.g.x.m.].s s s [ [ [ _ _ _ | | | *.*.*.*.*.*.*.*.*.*.*.*.*.*.*.*.*.*.*.......| | | _ _ _ _ z z l ( ( ( s s s ~.E.x.y.y.f.x.n.n.n.n.n.L.n.f.",
"[.~.K.m.K.x.k.f.n.x.f.u.y.y.x.s s s [ [ [ _ _ _ | | | *.*.*.*.*.*.*.*.*.*.*.*.*.*.*.*.*.*.*.......| | | _ _ _ _ z z l ( ( ( s s s ~.~.n.x.L.~._.).).W.~.~.).)._.",
"y.f.x.K.n.K.W.~.E.K.m.x.k.x.W.s s s | | | _ _ _ | | | *.*.*.*.*.*.*.*.*.*.*.*.*.*.*.*.*.*.*.......| | | _ _ _ _ _ _ ) / / / s s s W.K.x.K.~.~.L.W.c.k.x.k.f.j.x.",
"x.E.~.~.E.K.~._..X[.).~.K.n.K.s s s | | | _ _ _ | | | *.*.*.*.*.*.*.*.*.*.*.*.*.*.*.*.*.*.*.......| | | _ _ _ _ _ _ ) / / / s s s K.K.K.K.K.K.E.~.m.x.K.E.k.f.k.",
"y.f.k.n.K.W.~.[.~.~.W.~._.'.~.s s s | | | _ _ _ | | | *.*.*.*.*.*.*.*.*.*.*.*.*.*.*.*.*.*.*.......| | | _ _ _ _ _ _ ) / / / s s s y.f.W.K.f.x.~.W.x.j.m.~.K.m.K.",
"~.E.K.K.K.x.f.u.y.w.w.f.m.K.K.s s s _ _ _ | | | _ _ _  . . .*.*.*.*.*.*.*.*.*.=. . . .| | | [ [ [ _ _ _ _ _ _ _ [ [ [ _ _ _ s s s f.x.~.L.x.n._..X).L.^._.[.[. X",
"K.W.~.[. X.X[.~._.~.K.~.~.~.W.s s s _ _ _ | | | _ _ _ ......*.*.*.*.*.*.*.*.*.=.......| | | [ [ [ _ _ _ _ _ _ _ [ [ [ _ _ _ s s s [.~.~._.[.[.[.L.L.K.n.n.m.n.K.",
"K.K.~.[. X[.E.x.s.t.y.f.x.K.E.s s s _ _ _ | | | _ _ _ ......*.*.*.*.*.*.*.*.*.=.......| | | [ [ [ _ _ _ _ _ _ _ [ [ [ _ _ _ s s s ~.k.y.h.[.~.x.n.W.[.).~.~.).).",
"y.f.m.W.~.W.~.~.M.W.W.A.W./._.s s s z z z _ _ _ | | | ......>.>.>.:.C.C.C.C.C.C.>.>.>.C.C.C.>.>.>.*.*.*........._ _ _ _ _ _ s s s g.g.k.K.).{.}.)._.n.K.W.K.n.t.",
"E.m.n.c.n.W.~._.|.{. X_._._.L.s s s z z z _ _ _ | | | ......>.>.>.:.C.C.C.C.C.C.>.>.>.C.C.C.>.>.>.*.*.*........._ _ _ _ _ _ s s s W.x.y.y.g.J.L.W.L.f.f.m.W.{.~.",
"~.m.p.y.p.k.x.n.p.f.p.f.x.W.W.s s s z z z _ _ _ | | | ......>.>.>.:.C.C.C.C.C.C.>.>.>.C.C.C.>.>.>.*.*.*........._ _ _ _ _ _ s s s W.~.W.~._._.[.W.[.W.).[.L.K.p.",
".X).E.K.L.~.W.K.^._.[._.[. X XF.F.F.g g g x x x ] ] ] } } } -.-.-.-.,.,.,.,.,.,.;.;.;.,.,.,.;.;.;.-.-.-.} } } } ` ` ` x x x F.F.F.k.E.^.W.x.u.w.~.).m.K.n.k.K.m.",
"W.W.L.W.W.K.m.x.y.k.E.m.x.p.y.y.W.~.s s s s s s z z z _ _ _ [ [ [ [ ..............................[ [ [ _ _ _ _ z z k s s s ~.[.[._.[.~.E.m.c.m.y.m.~.{.^.x.k.f.",
"~.~.^.~.~.W.~.W.x.~.~.I.m.K.^.[._.K.s s s s s s z z z _ _ _ [ [ [ [ ..............................[ [ [ _ _ _ _ z z k s s s x.~.~.L.x.k.k.x.W.[..X X~.L.k.y.n.W.",
"m.m.m.m.m.x.x.k.K.m.c.f.w.y.x.K.m.g.n n n N N N s s s t t t h h h h f f f f f f f f f f f f f f f h f f t t t t m m s O.* $ z.K.).W.J.m.n.x.m.K.L.~.W._.[.L.~.W.",
"W.L.~.~.~.W.K.c.K.~.[.~.~.~.W.~.~.~.n n n N N N s s s s s s s s s s s s s s s s s s s s s s s s s s t t s s s s n n s O.* X f.!.}.).L.I.~.L.m.L.W.L.k.L.~.L.W.K.",
"{.L.k.g.f.e.i.J.m.~.x.w.r.n.~.~.J.x.n n n N N N s s s s s s s s s s s s s s s s s s s s s s s s s s s s s s s s n n s +.* X W.W.m.n.m.(._.W.m.m.m.m.m.m.m.W.~.W.",
"m.m.).[._.~.P.K.~.E.K.~.~.K.x.~.^.~.A A A N N N t t t t t t b b b b b b b b b b b b b b b b b b b s s s b b b b n n s +.* X n.f.f.p.k.~._.~.Z.K.W./._. X X^.K.m.",
"~.~.W.K.J.~._.[.g.f.p.m.K.f.y.K.K.~.[.O 8 n n n N N N N N N OXoXoXoX=X=X=X=X=X=X=X=X=X=X=X=X=X=X=Xr s s *X*X*X*Xn n s +.* X _.K.r.p.x.W.^.m.m.K.W.W._.W.K.K.m.K.",
"_.[.|.[._.[.~.~.E.).[.~.[. X X X.X[.~.O 8 n n n N N N N N N OXoXoXoX=X=X=X=X=X=X=X=X=X=X=X=X=X=X=Xr s s *X*X*X*Xn n s +.* X L.W.~.~._.{._.~.W.~.E.m.n.k.k.k.E.~.",
"x.f.x.K.n.f.f.k.f.~.~.c.K.~.~.x.x.x.k.O 8 s s s N N N N N N OXoXoXoX#X#X#X=X=X=X=X=X=X=X=X=X=X=X=XM M M *X*X*X*Xb b e R * X W.{.[.|._.~.K.x.m.K.m.E.W.W.).^.W.L.",
"[.K.K.W.K.j.k.W.f.x.k.f.x.x.x.E.m.E.~.@ 8 s s s N N N N N N OXoXoXoXoXoXoX=X=X=X=X=X=X=X=X=X=X=X=XV X.X.*X*X*X*Xs s w R * X x.W.~.~.W.K.k.g.x.m.~.W.~._.[./.W.b.",
"z.z.K.~.W.x.p.p.K.x.i.f.k.f.x.[..Xx.y.@ 8 s s s N N N N N N OXoXoXoXoXoXoX=X=X=X=X=X=X=X=X=X=X=X=XV X.X.*X*X*X*Xs s w +.* X ~.).m.K.~.W.K.E.K.K.~.~.K.m.m.Z.m.A.",
"j.z.j.u.f.m.^._.W.[.[.~.[.~.E.~.W.~.E.o 8 s s s N N N N N N OXoXoXoXoXoXoX=X=X=X=X=X=X=X=X=X=X=X=XV X.X.*X=X*X*Xs s w +.* X k.x.w.y.f.x.x.x.f.f.m.m.E.K.m.W.W._.",
"n.n.L.].[.).).).W.k.m.W.n.m.).~.b.L.).O 8 R ! ; s s s oXoXoXoXoXoXoX=X=X=X=X=X=X=X=X=XoXoXoXT.T.T.T.T.T.s s s t : ; Y +.* X K.~.W.~._.~.m.x.j.j.L.x.k.x.m.c.f.u.",
"W.x.i.f.m.L.~.L.m.k.W.M.k.k.L.K.M.n.k.O 8 R ! ; s s s oXoXoXoXoXoXoX=X=X=X=X=X=X=X=X=XoXoXoXT.T.T.T.T.T.s s s t : ; Y +.* X E.~.n.m.W.m.x.j.p.a.L.m.x.k.j.k.c.Z.",
"K.n.L.~.~.L.~.~.Z.W._.Q.k.c.E.E.m.W.[.O 8 R ! ; e e e @X@X@X@X@X@X+X=X=X=X=X=X=X=X=X=X@X@X@XR.R.R.R.R.R.e e e e : ; Y +.* X i.p.L.W.~.W.W.m.E.K.k.m.x.y.t.f.c.m.",
"y.x.W.).L.m.n.m.Z.Z.E.E.k.j.x.c.W.L.L.O 8 R ! ; ; H ! s s s s s s s s s s s s s s s s n n n n n n n n n 9.! W 2 : ; Y +.* X W.[.L.W.W.W.m.m.c.c.W.[._.m.c.K.^.~.",
"[.W.K.W._.{.{.[.^.E.m.W.E.j.j.H.b.K.K.O 8 R ! ; ; H ! s s s s s s s s s s s s s s s s n n n n n n n n n 9.! W 2 : ; Y +.* X m.~._._.).W.K.m.x.l.c.K.E.j.f.m.E.m.",
"W.K.k.f.k.K.E.m.m.x.j.j.x.s.r.u.n.^..X+ 8 R ! ; ; H ! s s s a a a a a a a u u u y y y Z Z Z c c c n n n N.! W 2 : ; Y +.* X W.W.L.W.).~.^.W.W.W.E.W.Z.x.K._.[.).",
"n.K.E.m.n.m.n.x.W. X_.~.[.[.~.[._.~.K.+ 8 R ! ; ; H ! s s s _ _ _ ' N N M 1.1.<.5.5.5.N N N [ [ [ s s s N.! W 2 : ; Y +.* X ~._.x.k.m.m.m.E.m.m.c.x.x.c.m.K.W.L.",
"E.x.p.p.k.K.j.r.w.W.L.f.J.[.].~.~.~.!.+ 8 R ! ; ; H ! s s s _ _ _ ' N N M 1.1.<.5.5.5.N N N [ [ [ s s s N.! W 2 : ; Y +.* X W.~.W.L.W.W.K.c.k.p.c.Y.W.[.|._.L.W.",
"c._.~.u.y.c.m.u.6.g.)._.M.n.m.m.W.W.M.O 8 R ! ; ; H ! s s s _ _ _ ' N N M 1.1.<.5.5.5.N N N [ [ [ s s s N.! W 2 : ; Y +.* X k.K.m.x.p.f.m._._.E.L.L.m.W.{.J.p.n.",
"_.E.K.W.W.c.m.~.).).W.K.W._._.W.W.W.L.O 8 R ! ; ; H ! N N N 1.1.1.2.s s a S S S S S S n n n D.D.D.K K K 9.! W 2 : ; Y R * X K.^.n.m.E.W._.).m.k.f.m.x.g.K.m.f.f.",
"x.f.l.~.m.w.u.W.W.x.t.t.p.m.m.x.Q.W.m.+ 8 R ! ; ; H ! N N N 1.1.1.2.s s a S S S S S S n n n D.D.D.K K K 9.! W 2 : ; Y R * X E.~.W.W.W.W.K.m.m.m.W.[.^.E.~._.K.c.",
"k.m.K.L.m.k.f.x.E.E.E.E.Q.^.^.Q.Q.^.Q.O 8 R ! ; ; J ! 9 9 9 2.1.1.2.t t a S S S S S S n n n D.D.D.L ~ ~ 9.! W 2 : ; Y +.* X m.W.|.W.K.m.x.k.L.|.[.E.m.E.E.j.t.u.",
"[.).W.W.[.{.W.p.m.m.m.Z.H.Y.l.c.j.l.l.+ 8 R ! ; ; J ! s s s [ [ [ { n n Z 3.3.3.3.3.3.n n n S S S s s s 9.! W 2 : ; Y +.* X K.~.W.L.E.W.W.W.~._.~.c.c.E.K.j.f.j.",
"[._.[.[._.~.K.m. X~.Z.m.b.Y.l.c.p.u.u.+ 8 R ! ; ; J ! s s s [ [ [ { n n Z 3.3.3.3.3.3.n n n S S S s s s 9.! W 2 : ; Y +.* X c.W.x.m.m.K.W.W.W.m.c.m.~.W.K.|. Xm.",
")._.{. X[.L.W.).~.m.x.c.l.k.l.c.W.x.x.+ 8 R ! ; ; J ! s s s [ [ [ { n n Z 3.3.3.3.3.3.n n n S S S s s s 9.! W 2 : ; Y +.* X x.c.k.m.m.k.x.W.W.n.p.f.x.x.k.W.~.f.",
"~.n.i.f.L..XL.y.t.f.Z.~.K.l.x.Z.~.x.x.+ 8 R ! ; ; J ! s s s [ [ [ { n n Z 1.1.<.3.3.3.n n n S S S s s s 9.! W 2 : ; Y +.* X E.x.p.K.~.m.K._._.m.).n.W.{.~.L.L.h.",
"{.).M.n.).{.[.~.K.n.K.W.~.W.M.E.g.p.g.+ 8 R ! ; ; J ! s s s [ [ [ { n n Z 1.1.1.3.3.3.n n n S S S s s s 9.! W 2 : ; Y +.* X K.W.K.[. XK.k.m.x.p.g.J.~.W.m.f.p.j.",
"L.J.n.v.L.[.{.[.J.n.m.)._._.).Q.%X).m.+ 8 R ! ; ; J ! s s s [ [ [ { n n Z 1.1.1.3.3.3.n n n S S S s s s 0.! W 2 : ; Y O.* $ K.m.~._.W.x.x.L.[.[._.).).~.L.K.W.[.",
"U././.K.n.n.K.J.W.K.n.K._._._.`.J.K.J.+ 8 R ! ; ; J ! I V.q.e s s s s s t n n n n n n [ [ [ s s s &XB.B.0.! W 2 : ; Y O.* $ K.K.m.W.~.W.W.~.~.W.].).)._.[.~.W.L.",
").{.{.[.I.K.n.x.).L.~.W.).W.W.^.~..X.X+ 8 R ! ; ; J ! I V.q.e s s s s s t n n n n n n [ [ [ s s s &XB.B.q.! W 2 : ; Y O.* $ W.).[._.L.x.g.k.~. X[._._.[._.L.x.k.",
"A.W.)._._.].).[.J.W.[.%X X/.m.m.~.I.K.+ 8 R ! ; ; J ! I V.q.e s s s s s t n n n n n n [ [ [ s s s S.B.B.q.R W 2 : ; Y O.* $ m.L.W.)._.~.m.K.).%X{._.).).W.K.m.W.",
"L.K.m.m.K.K.I.].n.J.L.W.W.W.W._.~.~.~.+ 8 R ! ; ; H ! I B.B.e s s a _ _ _ [ [ [ S S S S S S s s t 0.0.q.q.T I 2 : ; Y O.* $ x.y.p.L..X%X{.~.L.m.m.K.W.~.L.K.L.).",
"m.m.m.K.n.k.x.K.).K.n.x.m.M.Q._.W.Z.L.O 7 R ! ; ; G ! I &.^ e s s a _ _ _ [ [ [ S S S S S S s s s &.^ &.^ P P 1 - ; Y T * $ k.i.K._.[.L.m.K.W.m.f.x.K.W.L.n.K.L.",
"a.k.E.)._.I.).[.{.).W.). X_.W.Z.m.p.p.O 7 R Q : ; H Q I R I e s s a _ _ _ [ [ [ S S S S S S s s s T P ! I I T 1 - : T O.* $ ~.~.m.~.).K.E.).W.x._.W.K.m.x.x.L._.",
"t.y.p.W.~.n.x.].{.).).).M.b.n.L._.).n.  0 #.@.- 1 U @.@.$.$.e s s a N N N N N N N N N s s s $.$.$.$.E $.$.$.%.6 5 1 O.#.* $ ).U.(.W.A.W.m.f.x.K.m.M.M.n.M.M./.).",
"p.k.x.~. X[.).}.).~.K.k.n.M.)._.).)._.% , 4 5 = = , 4 5 5 4 e s s a N N N N N N N N N s s s 5 5 5 5 - 5 1 1 < = = = 4 4 & $ L.g.p.n.W.m.p.t.k.~.L.L.L.W._.).).).",
"(._.W.m.L.n.f.f.~.].).~.].%X%X_.).W.n.# @   O @ @ .   O     e s s a N N N N N N N N N s s s O O O O o O o     . @ @ O @ $ $ [.)._.A.k.k.k.x.f.p.~.W.K.W.~.W.K.k.",
"m.W.m.x.n.~.~.].K.P.~.~.[._.~.n.W.~._.{.[.W.L.].).{.[.~.].%X.X)..X~.s s s s s s s s s _.L.K.m.K.~.~.K.K.K.K.L.~.~.W.L.K.m.L.). Xk.x.m.L.W.W._.%X~.W.m.x.c.c.c.x.",
"m.[.~.x.k.n.m.K.P.K.x.J.K.x.m.L.{.{.{. X).J.n.~.n.L.W.n.k.K.L.x.L.k.s s s s s s s s s ).m.f.g.m.].K.J.m.I.[.[.[.~.[.[.~.n.x.K.).|.W.W.[._.x.k.W.x.c.m.m.m.m.W.^.",
"6.k.n.m.K.K.~.[.~.K.K.~._.L.W.[._.W.m.k.f.p.x.K.k.W.).L.m.K.K.m.).c.s s s s s s s s s W.~.m.c.K.W.G.k.x.K.~._.[.{.{._._.~.L.W.~.m.y.y.m._.W.m.m.p.x.~.~.K.K.K.~.",
"/.{.{._.W.K.x.K.x.x.m.K.W.W.m.m.a.n.W.I.L.K.x.x.g.m.L.~.W.K.m.W.K.m.[.[.m.x.m.W.[.W.n.K.W.~.L.K.m.n.m.m.K.L.L.m.W.K.n.m.K.m.m.n.f.m.W.K.k.p.k.k.i.m.]._.I.n.n.L.",
"W.).L.K.K.n.c.~.^.W.l.p.k.Z.m.k.m.W.m.x.k.K.m.G.m.K.E.W.K.K.E.).^.~.~.E.k.K.W.K.c.m.j.y.p.c.W.K.W.(.{._._.W.W.W.E.L.E.n.x.j.g.k.f.J.m.f.m._._.b.g.J.).].L.J.~.]."
};
