/* XPM */
static char *_59b9ea0b360401ae3493f7976a3441dcyNc2LM3nAIpyKm2[] = {
/* columns rows colors chars-per-pixel */
"80 80 150 2 ",
"   c #6C463C",
".  c #754B3F",
"X  c #2D2D44",
"o  c #313147",
"O  c #353A50",
"+  c #3B3A50",
"@  c #413C4E",
"#  c #50394C",
"$  c #6E3847",
"%  c #67334A",
"&  c #61384A",
"*  c #6B3848",
"=  c #7B334D",
"-  c #594347",
";  c #46465E",
":  c #4B465C",
">  c #574054",
",  c #6D4942",
"<  c #724A40",
"1  c #7B5247",
"2  c #77505B",
"3  c #414460",
"4  c #E53F38",
"5  c #F03F36",
"6  c #A65A3F",
"7  c #B35E3F",
"8  c #DF6E16",
"9  c #DD7011",
"0  c #E74037",
"q  c #E74835",
"w  c #E74F38",
"e  c #8F2F44",
"r  c #9E2B42",
"t  c #87394C",
"y  c #A42A41",
"u  c #A73144",
"i  c #C92749",
"p  c #CB2A4A",
"a  c #D2294A",
"s  c #D43146",
"d  c #D93246",
"f  c #E53746",
"g  c #E63846",
"h  c #EA3B46",
"j  c #81554A",
"k  c #A65A41",
"l  c #B17775",
"z  c #B27875",
"x  c #F7534C",
"c  c #FA564D",
"v  c #FC594E",
"b  c #FC6457",
"n  c #FD695A",
"m  c #ED931E",
"M  c #E38722",
"N  c #F1AB28",
"B  c #F1B12B",
"V  c #F2B82E",
"C  c #F7D139",
"Z  c #F9D239",
"A  c #98885C",
"S  c #9C8664",
"D  c #9C8E64",
"F  c #9C8A6C",
"G  c #A48664",
"H  c #A48C64",
"J  c #AC8E64",
"K  c #A48D6C",
"L  c #AC8E6C",
"P  c #A4926C",
"I  c #AC936C",
"U  c #AC9A6C",
"Y  c #B4966C",
"T  c #B49A6C",
"R  c #AC8E74",
"E  c #B48E74",
"W  c #A49474",
"Q  c #AC9574",
"!  c #AC9B74",
"~  c #AC967C",
"^  c #AC9C7C",
"/  c #B49574",
"(  c #B49B74",
")  c #BC9C74",
"_  c #B4967C",
"`  c #B49D7C",
"'  c #BC9D7C",
"]  c #ACA27C",
"[  c #B4A274",
"{  c #BCA374",
"}  c #B4A27C",
"|  c #BCA37C",
" . c #B4AA7C",
".. c #BCAA7C",
"X. c #FF8575",
"o. c #FF8877",
"O. c #FF8A78",
"+. c #C4A47C",
"@. c #C4AA7C",
"#. c #F8CF76",
"$. c #FEE47B",
"%. c #AD8180",
"&. c #B28686",
"*. c #B49E84",
"=. c #BC9E84",
"-. c #B2938B",
";. c #B4A484",
":. c #BCA584",
">. c #B4AA84",
",. c #BCAA84",
"<. c #BCA68C",
"1. c #BCAC8C",
"2. c #BCB284",
"3. c #BCB28C",
"4. c #C49E84",
"5. c #F59784",
"6. c #C4A684",
"7. c #C4AB84",
"8. c #CCAC84",
"9. c #C4A68C",
"0. c #C4AD8C",
"q. c #CCAE8C",
"w. c #C4B284",
"e. c #CCB384",
"r. c #C4B38C",
"t. c #CCB38C",
"y. c #C4BA8C",
"u. c #CCBA8C",
"i. c #D4B68C",
"p. c #D4BA8C",
"a. c #C4AE94",
"s. c #CCAE94",
"d. c #C4B494",
"f. c #CCB594",
"g. c #C4BA94",
"h. c #CCBB94",
"j. c #CCB69C",
"k. c #CCBC9C",
"l. c #D4B694",
"z. c #D4BB94",
"x. c #D4BD9C",
"c. c #DCBE9C",
"v. c #F6AE9F",
"b. c #CCC29C",
"n. c #D4C294",
"m. c #D4C29C",
"M. c #DCC59C",
"N. c #FDCAAF",
"B. c #FFCBB0",
"V. c #FFD1B4",
/* pixels */
"Q ' :.' Q I Q I :.7.:.} | ,.` I ! } ,.,.:.} r.h.:.:.1.d.1.` ;.0.} | } ! I Q ( :.r.7.I H } ..} 7.` ! } 7.| Q I ' Y ) | 8.t.t.@.| @.t.e.6.| | @.| 7.+.| 7.i.t.t.7.",
"' ` ( ` | | ` L Q ( Q I ` 7.7.:.,.} ! :.f.z.0.} } ` :.0.0.| :.d.| 7.0.q.0.0.0.t.t.h.t.7.7.:.| ,.:.} | :.| ` ( :.8.7.+.| +.7.t.h.+.:.| { ( ( | | 6.| | | | ` ( ( ",
"| :.| / / | 0.t.0.t.0.7.7.r.t.0.r.t.d.r.r.r.1.7.:.:.:.7.:.` ( | 0.:.' ! ( | 7.t.` ` :.1.| ` :.` | } ` | } ' ` / / ( ' 6.| ' :.| 6.| | | | | ( | Q ( ( ( Q J I ( ",
"` | 6.` ( :.t.z.:.q.t.0.:.:.' ( ( :.t.| K S H ` :.| | | :.| ` } ' | + + + + + + + + + + + + f.6.} 7.0.7.0.0.6.' ' ' _ / Q ` 6.f.) Q ( | 6.( / ( | :.6.7.:.| :.q.",
"' ` ( | 0.t.0.' K / ` ' ' | | ` r.t.r.0.7.| :.| } ` ` 7.0.t.f.f.:.( + + + + + + + + + + + + :.~ ! :.0.6.| 6.:.' ' ' ' ( / ` :.0.7.| | 6.7.:.| 6.| | :.:.:.` ( ( ",
"6.6.` / ( ' | ` +.:.6.:.+.:.q.f.7.7.7.0.t.f.7.| q.7.7.7.7.7.:.+.:.6.O O O O O O O O O O O O Q L ` | :.( Q ( | | L ( 6.0.6.' ( I f.7.| ` ' :.7.t.0.0.6.0.7.6.' ` ",
"0.0.6./ K Q :.q.q.6.6.' ' ' | 6.7.r.f.f.t.r.t.f.t.t.q.7.+ + + * * * c c c c c c c c c g g g * * * + + + 7.6.7.9.8.8.7.@.7.7.t.t.:.:.` I I ( | :./ Q K I Q Q I Q ",
"7.6.:.| 7.q.7.| ` ) ` ' ' +.:.6.6.:.( Q / ` ` | | +.7.+.+ + + * * * c c c c c c c c c g g g * * * + + + r.6.` / ) ) 7.q.i.t.7.@.q.f.l.0.6.0.f.0.s.0.6.:.:.:.9.0.",
"I I / :.0.t.0.| | ) ( T I I I I I I Q ( :.7.q.0.( Q L K + + + * * * c c c c c c c c c g g g * * * + + + ' 6.7.q.,.| @.r.t.7.7.t.7.t.i.r.| / ( | | :.0.t.q.' ( ' ",
"6.:.| :.7.0.7.| 0.7.6.:.| :.7.7.7.7.:.7.0.q.r.7.:.+ + + r r r c c c X.X.X.n n n g g g d d d p p p r r r + + + I 7.| ( ' ,.7.7.7.( ( / ' 7.t.t.t.0.0.q.0.7.q.0.q.",
":.' ( ( ' | :.6.K K L I _ | 0.q.d.r.0.7.7.:.| :.P + + + r r r c c c X.X.X.n n n g g g d d d p p p r r r + + + ' | ' Q I Y ' | | Q ( | | ( ( ' | / / Q L I ` 6.| ",
"6.| :.' :.6.0.q.l.f.f.s.f.f.j.l.l.f.l.t.0.7.7.7.h.O O O r r r x x x X.X.X.n n n f f f d d d p p p r r r O O O 6.' 6.8.( L / :.q.| Q K ( t.c.f.| 4.6.+.` | f.h.f.",
"f.t.f.0.7.:.| | ` =.` =.| =.' *.:.7.0.7 7 7 + + + r r r d d d X.X.X.n n n n n n c c c g g g p p p p p p r r r + + + q.' L I ) ( ` 7.t.q.` Q / ` +.q.q.6.t.x.x.t.",
"t.f.t.t.6.' _ ( Q / ` ` | :.:.| ( ( } 7 7 7 + + + r r r d d d X.X.X.n n n n n n c c c g g g p p p p p p r r r + + + :.' ' ' / Q / I Q ` 6.7.:.` ( ' | ` ' | | ( ",
"7.0.t.0.6.:.7.0.t.t.t.t.0.6.| ' 0.0.q.7 7 7 + + + r r r d d d X.X.X.n n n n n n c c c g g g p p p p p p r r r + + + 7.a.f.r.0.0.:.0.q.7.` _ ' 7.0.t.0.0.6.| ` ( ",
"Q / ( ( ( ( :.q.:.+.7.7.8.7.e.t.7 7 7 B B B ; ; ; p p p g g g n n n n n n c c c c c c c c c g g g p p p p p p ; ; ; * * * ` :.f.Q R K K Q =.:.0.r.0.7.:.( L L E ",
"} ,.d.d.r.3.t.b.t...| | | | | +.7 7 7 B B B ; ; ; p p p g g g n n n n n n c c c c c c c c c g g g p p p p p p ; ; ; * * * ,.,.>.7.t.t.7.7.7.t.z.e.| ( | 0.0.( D ",
"r.r.t.h.h.x.x.x.M.z.t.:.' ) 6.t.6 6 6 V V V : : : p p p h h h b b b b b b c c c c c c c c c h h h p p p p p p : : : & & & 2 2 2 7.| | r.z.t.7.| { 7.7.0.0.0.t.n.",
"` | :.| :.| | } Q Q Q Q Q Q / ` < < < C C C * * * p p p c c c c c c c c c c c c c c c c c c c c c d d d p p p * * * + + + * * * 0.| ( | :.` :.z.e.t.t.0.:.` ! ! ",
"0.q.t.q.+.` ' | 9.:.6.0.q.0.' Q < < < C C C * * * p p p c c c c c c c c c c c c c c c c c c c c c d d d p p p * * * + + + * * * / ! :.7.:.( ' 7.7.| Q K K Q } ,.",
"' ' ' ( / L K L ` ` ` ` =.=.=.` < < < C C C * * * p p p c c c c c c c c c c c c c c c c c c c c c d d d p p p * * * + + + * * * ( ( ( ` | :.` I H I | :.:.:.d.m.",
"q.:.' | 0.0.+.( K ' q.0.| ` :.0.+ + + m m m * * * p p p c c c c c c c c c c c c c c c c c c c c c g g g r r r * * * r r r ; ; ; 0.0.:.Q ( ` | ` ' | 0.f.d.0.:.} ",
"6.:.| 6.0.q.0.:./ 7.t.6.( I P I + + + m m m * * * p p p c c c c c c c c c c c c c c c c c c c c c g g g r r r * * * r r r ; ; ; ` :.t.f.0.` ` ` t.| I K *.0.0.1.",
"I ` 7.:.( / } @.4.) I I ( 7.7.7.+ + + m m m * * * p p p c c c c c c c c c c c c c c c c c c v v v g g g r r r * * * r r r ; ; ; :.Q Q :.:.:.' :.I ! :.<.0.1.:.;.",
"0.| Q ` 0.t.0.:.| ` ( ! ` | d.x.+ + + 9 9 9 r r r d d d c c c c c c c c c c c c c c c c c c g g g d d d r r r * * * r r r + + + 0.0.6.` K K Q ` } } } } } ,.} Q ",
"f.0.:.| :.` ( Q } ` Q L K K ` 7.+ + + 9 9 9 r r r d d d c c c c c c c c c c c c c c c c c c g g g d d d r r r * * * r r r + + + 0.0.0.} ` ,.0.t.r.r.7.0.0.r.r.t.",
"K Q ` :.} :.7.0.6.:.| ` ( ` 7.k.+ + + 9 9 9 r r r d d d c c c c c c c c c c c c c c c c c c g g g d d d r r r e e e r r r + + + 0.7.:.` :.0.0.,.7.' ( ` ( Q / ` ",
"` 6.0.0.6.:.0.t.x.f.r.0.:.} :.0.+ + + 9 9 9 r r r d d d c c c c c c c c c c c c c c c c c c g g g d d d r r r r r r r r r + + + :.:.:.:.:.:.:.6.0.| ` :.6.( Q ( ",
"K Q ( } :.7.0.f.0.0.7.0.t.s.0.t.+ + + 9 9 9 r r r d d d c c c c c c c c c c c c c c c c c c g g g d d d r r r r r r r r r + + + P K Q 7.:.Q ` 0.7.` / | 0.:.| :.",
"0.6.:.:.:.` Q L K S S Q | :.:.:.+ + + 8 8 8 u u u s s s x x x c c c c c c c c c x x x x x x f f f s s s r r r r r r r r r + + + / Q ` 0.,.` } t.x.r.,.q.t.f.f.z.",
":.7.0.f.z.x.f.0.t.0.:.0.0.0.7.:.+ + + c c c n n n r r r g g g c c c c c c c c c g g g d d d p p p r r r r r r r r r r r r + + + k.f.0.0.t.f.f.f.,.,.:.} } | } :.",
":.:.0.f.z.f.6.` R H K Q ` :.6.0.+ + + c c c n n n r r r g g g c c c c c c c c c g g g d d d p p p r r r r r r r r r r r r + + + 0.0.( K ^ f.0.` } 7.f.r.0.0.r.r.",
"K Q | 7.0.7.0.0...7.7.@.7.w.t.t.+ + + r r r i i i h h h c c c X.X.X.X.X.X.n n n o.o.o.n n n n n n h h h p p p r r r * * * + + + Q ! ! ( :.r.h.g.r.t.} :.7.:.} H ",
"6.| } ' } 7.0.t.l.h.z.t.t.t.,.| + + + r r r p p p g g g c c c X.X.X.X.X.X.n n n X.X.X.n n n n n n g g g p p p r r r * * * + + + t.7.` K K ! ;.,.7.,.Q Q | 7.h.0.",
"0.| I K I ( ` } I Q I Q ` 7.7.7.+ + + r r r p p p g g g c c c X.X.X.X.X.X.n n n X.X.X.n n n n n n g g g p p p r r r * * * + + + :.7.0.7.0.t.t.f.7.f.7.r.f.,.:.I ",
"x.r.6.:.,.0.7.:.q.t.f.t.f.z.z.h.X X X y y y a a a h h h v v v O.O.O.O.O.O.n n n O.O.O.n n n n n n h h h a a a y y y $ $ $ X X X K ( 6.q.7.` L S 0.r.| :.} ( :.| ",
"7.7.,.7.7.:.| ` K ( 6.| ` I K K 7.0.q.+ + + * * * r r r p p p g g g g g g g g g g g g g g g p p p r r r * * * + + + + + + 0.0.f.f.t.f.0.6.| ' | K | 0.h.q.` ( Q ",
"0.0.q.0.0.7.0.7.` 0.0.1.| :.q.f.t.:.( + + + * * * r r r p p p g g g g g g g g g g g g g g g p p p r r r * * * + + + + + + ~ ` 0.0.,.` ( ( ` 7.f.x.z.0.,.( K } 7.",
"| | | | | ` ` ( :.| ' Q S K ` :.| ! I + + + > > > % % % = = = t t t t t t t t t t t t t t t = = = % % % # # # - - - ; ; ; Q _ :.y.7.;.| } ` | :.,.0.7.t.f.,.0.7.",
"7.,.0.0.0.7.:.' :.0.f.0.0.0.7.0.0.0.0.1.0.0.; ; ; + + + + + + + + + + + + + + + + + + + + + + + + + + + + + + < < . ; ; ; S Q 9.g.r.,.1.0.,.| ,.7.,.( ,.0.,.7.:.",
"h.,.( ! Q F P ;.| 0.` S G } 0.0.;.` ! ( ` ! ; ; ; + + + + + + + + + + + + + + + + + + + + + + + + + + + + + + < < . ; ; ; 0.7.7.| } | e.t.7.| | | | | | | 7.0.7.",
"| | r.f.t.0.<.:.0.6.:.0.0.:.` 0.q.0.:.:.:.:.; ; ; + + + + + + + + + + + + + + + + + + + + + + + + + + + + + + < < . ; ; ; 7.} Q Q I ( 0.t.0.+.:.7.w.t.z.z.q.:.| ",
"0.0.7.:.;.0.t.f.! Q I | :.Q K :.:.0.f.7.! Q ; ; ; N.N.N.+ + + N.N.N.B.B.B.B.B.B.B.B.B.B.B.B.v.v.v.< < < < < < ; ; ; 0.r.z.z.t.:.J I ` 7.q.| | :.7.7.t.7.:.:.| :.",
"t.f.l.f.t.f.0.0.6.r.f.0.f.z.z.z.x.f.0.0.f.f.; ; ; N.N.N.+ + + N.N.N.B.B.B.B.B.B.B.B.B.B.B.B.v.v.v.< < < < < < ; ; ; t.t.0.:.,.7.0.0.t.h.t.0.7.0.6.| } ( ( ( 6.0.",
"` Q ` :.} Q Q ( Q 0.0.' :.0.0.` ` ` ( ` ( ` + + + N.N.N.j j j N.N.N.B.B.B.B.B.B.B.B.B.v.v.v.v.v.v.< < < < < < + + + h.t.} ` 7.h.f.l.t.0.:.` | :.| 6.7.7.r.q.7.,.",
"f.:.:.7.:./ ( 7.Q ` ( Q ` ` ` 6.| 6.0.7.:.' + + + N.N.N.j j j N.N.N.B.B.B.B.B.B.B.B.B.v.v.v.v.v.v.< < < < < < + + + | ` Q Q ` 7.0.0.7.:.( ! ` | 0.7.0.t.f.w.7.[ ",
"_ _ :.0.7.` I I :.` P Q ( Q ` f.x.` K L 0.f.+ + + N.N.N.j j j N.N.N.B.B.B.B.B.B.B.B.B.v.v.v.v.v.v.< < < < < < + + + 0.t.r.7.0.r.| :.0.7.:.6.:.:.0.0.:.| | +.| @.",
"/ _ / L Q | q.t.7.f.f.0.f.0.6.0.7.0.6.' ( / o o o V.V.V.1 1 1 B.B.B.B.B.B.B.B.B.B.B.B.v.v.v.v.v.v.      . . . o o o | r.0.| ( ` S K Q ` ` ` Q Q | | 6.:.| 7.7.t.",
"} } ,.d.f.r.r.r.7.( | 7.} | r.0.{ ,.r.h.f.r.w.w.6.+ + + 5.5.5.5.5.5.v.v.v.B.B.B.B.B.B.B.B.B.v.v.v.v.v.v.+ + + f.t.7.:.:.| | :.0.7.0.t.0.| ` / / ,.` ( ` | ' Q L ",
"7.` P Q | ,.0.,.| ( 7...( ( ,.:...} ( 0.k.M.h.7.} + + + 5.5.5.5.5.5.v.v.v.B.B.B.B.B.B.B.B.B.v.v.v.v.v.v.+ + + 7.:.| :.7.0.:.6.0.} | 7.| ` / I Y ,.| ` ( / ( ' +.",
":.} ,.0.0.,.0.0.+.7.t.8.( ' 6.6.| 7.f.r.:.` [ } 7.+ + + l l l z z z &.&.&.-.-.-.-.-.-.-.-.-.%.%.%.%.%.%.+ + + P | ` ' ( / I P I ,.7.0.7.7.| 6.:.( | ` K H Q ' | ",
"K ` 7.r.,.| } | +.+.6.6.( / ` ' 7.,.,.0.0.0.7.7.| | ( I ; ; ; ; ; ; ; ; ; + + + + + + + + + + + + + + + ,.:.7.q.0.7.:.| ` :.7.f.,.7.7.7.| | ' ' 7.f.t.| ' :.q.0.",
"f.7.:.7.t.h.h.f.q.6.| 7.6./ / =.[ :.:.:.*.} :...l.t.t.t.; ; ; ; ; ; ; ; ; + + + + + + + + + + + + + + + :.| } | r.0.| ( I Q | 0.t.t.r.7.:.| ` ) ' :.6./ Q | 6.| ",
"7.:.( Q ( :.6.| | ` / / ` R G L } q.x.0.R G Q 7.7.7.:.:.+ + + p p p < < < Z Z Z m m m < < < r r r + + + t.f.0.,.t.t.f.:.} | 7.7.,.7.r.0.q.7.7.7.6.7.+.` :.t.f.r.",
"} :.6.| } | } ` 7.z.t.0.f.f.0.f.t.0.:.:.0.0.0.q.t.0.7.7.+ + + p p p < < < C C C m m m < < < r r r + + + } 0.t.0.H Q ` ` ' :.0.t.` ( | | | 6.| | ' ` ` ' | :.7.,.",
"6.` I I ( :./ G S 7.,.Q ;.f.d.0.0.0.9.` R K Q ( 7.7.t.f.+ + + p p p < < < C C C m m m < < < r r r + + + | } ( ` :.t.t.7.| :.7.0.7.,.7.7.:.' ( I ' 4.7.f.l.t.,.7.",
"' t.0.L K ' | L A ! r.t...} | | 7.7...:.( I Q ^ w.0...| k k k #.#.#.: : : w w w q q q @ @ @ M M M , , , Q H ( 7.( :.7.:./ I ( :.| ` I Q | t.t.6.,.,.| 7.h.;.I } ",
"t.6.:.7.7.' | 0.r.r.7.:.7.t.t.7.7.7.,.| | :.0.t.7.7...6.7 7 7 $.$.$.; ; ; 4 4 4 4 4 4 + + + m m m < < < 7.| :.:.6.6.:.6.:.:.:.q.} | 6.7.t.r.| ( Q | ` ! :.| Q Q ",
"` Q ) 0.| S L 7.7.` H H I | | ` 8.7.| ( ( :.6.| +.| ' ( 7 7 7 $.$.$.; ; ; 4 4 4 4 4 4 + + + m m m < < < 7.7.7.7.,.( Q ' :.+.6.0.7.7.7.7.:.| | | 7.f.q.6.0.t.:.' ",
"( | :.,.| ( Q ` 6.6.6.6.8.q.q.8.8.q.8.' ' +.6.' Y / Y | + + + 4 4 4 ; ; ; B B B B B B ; ; ; p p p + + + | | 7.t.:./ I ` 6.` | 7.l.7.:.| ` ( ,.l.f.6.| 6.6./ H L ",
"f.r.7.7.f.h.7.I | | | +.=.4.) ' / ) ) / ( 6.q.q.i.8.6.8.+ + + 4 4 4 ; ; ; B B B B B B ; ; ; p p p + + + ,.6.,.:.7.| 7.t.0.| :.0.7.,.6.7.7.7.0.t.0.' ' 6.:./ Q / ",
"f.t.f.f.t.0.:.| z.0.+.| { 4.) ' I L L J I ) 8.i.T / I Q + + + 4 4 4 ; ; ; B B B B B B ; ; ; p p p + + + t.t.| ( | 0.f.f.7.` ' 7.` | | :.7.7.7.| ' | 0.7.:.l.z.| ",
"r.t.h.z.f.,.7.r.0.| ` ' ) ( ) ' 7.` ` } | | ..r.7.7.@.| + + + 4 4 4 ; ; ; B B B N N N ; ; ; p p p + + + 7.0.| Q ' 6.q.6.| ' ` ' ( | | ( ` 7.7.} I Q ` ` ( 7.0.Q ",
"0.} P Q ,.x.,.K H Q +.0.:.) ` +.0.` ` 7.r.| U T ..7.t.t.+ + + 4 4 4 ; ; ; B B B m m m ; ; ; p p p + + + } | | | :.7.7.:.| 7.6.` I :.0.| :.t.t.| r.} 7.h.0.,.,.^ ",
"h.r. .} r.h.f.0.:.} :.7.0.7...6.! U ! | w.w.r.,.:.6.7.0.+ + + 4 4 4 ; ; ; B B B m m m ; ; ; p p p + + + F ( ,.,.Q ( } | ;.| :.7.:.f.z.:.( | ` I ! ;.0.7.| Q I / ",
",.>.} ] ,.f.h.f.;.} | r.t.t.r.8.n.r.| ,.f.h.r.| I K K ! :.r.r.O O O p p p ; ; ; 3 3 3 + + + O O O } ,.f.r.;.` ;.( H K } t.0.:.| 0.t.7.` ` ,.f.f.t.r.r.0.,.:.7.f.",
"2.w.w.:.} } :.;.7.:.} :.t.t.t.p.;.:.;.( ` ,.1.,.t.f.t.0.6.| ,.+ + + p p p ; ; ; ; ; ; + + + + + + ` W ! ! ! :.f.7.Q ! t.x.t.:.:.| 7.0.7.7.0.0.7.d.r.r.t.f.0.7.,.",
"r.h.h.f.1.:.} ` r.,.0.7.r.7.7.q.0.x.x.0.:.,.f.0.0.t.f.,.( ! :.+ + + p p p ; ; ; ; ; ; + + + + + + 0.f.f.f.x.x.r.,.,.t.x.z.0.7.r.f.t.,.` ! ( 0.z.f.t.t.f.t.,.` ( ",
"@.7.r.t.t.d.r.f.;.7.f.m.z.w.| | 0.1.:.:.0.j.f.0.:.| ( I ! :.7.+ + + 0 0 0 5 5 5 a a a y y y + + + k.h.,.:.1.r.,.` 7.f.r.,.:.| ,.7.r.t.0.| :.r.m.h.t.r.r.7.:.| 7.",
",.:.| | :.:.1.d.} ;.,.7.7.7.7.t.0.0.0.r.f.z.f.f.r.r.0.} } 7.f.+ + + 4 4 4 4 4 4 p p p r r r + + + f.f.x.h.:.` } ,.0.,.| ` | ` K I ,.x.m.h.0.,.| | :.7.0.,.:.,.r.",
"| | | :.} ( ` :.r.:.} ` | ..8.t.7.+.,.6.( K H ( } 0.r.:.| :.t.+ + + 4 4 4 4 4 4 p p p r r r + + + ,.^ Q P P ;.f.z.t.0.7.0.0.( P :.t.f.,.| :.7.| Q ` :.7.,.} :.,.",
"Y ( 6.r.t.1.r.f.h.r.7.r.z.t.7.+.| I I | 8.7.7.7.h.t.r.:.,.7.:.I 7.7.+ + + < < < < < < < < < + + + z.h.1.,.r.f.f.f.0.r.z.x.t.0.0.| 0.r.:.6.r.7.` t.7.:.| ` ` ,.t.",
"H K I 7.0.} ` d.h.r.r.r...[ } ,.u.r.} ! } d.x.k.d.r.>.[ ! ! ,.g.h.,.+ + + < < < < < < < < < + + + 7.7...| | ..7.2.r.r.d.y.d.r.3.e.7.@.7.| Q ` :.| ....} ....w.r.",
"I ( ` 0.z.f.r.k.r.0.:.( } ..r.u.r.r.t.d.f.h.r.1.t.r.r.r.d.h.h.x.,.:.+ + + < < < < < < < < < + + + t.t.0.7.:.7.7.d.:.! } ,.r.,.! I } 7.| I H ( 0.,.,.,.7.t.r.r.r.",
"e.t.7.| ,.} Q Q 0.d.r.0.d.m.m.t.r.7.} } } ;.0.f.^ } | ;.7.f.r.,.( ,.f.r.:.+ + + + + + + + + k.7.r.f.r.0.| ;.:.,.z.1.} } r.h.f.r.t.@.( ( ( ` Q I 0.7.:.7.0.7.:.( ",
"| 7.| ` } 0.0.d.:.<.0.0.f.t.0.} 7.0.t.h.f.7.,.d.r.h.f.0.d.m.x.r.x.0.,.| ` + + + + + + + + + | :.0.0.:.:.:.:.,.0.0.7.,.:.| ,.r.z.( ` | ,.7.7.t.M.0.7.| ` ' ' ' ` ",
"| f.0.` ( } | :.<.:.` ;.:.` | ,.h.h.h.z.r.;.} 0.} ,.7.} ( :.,.` ,.( :.z.f.+ + + + + + + + + ! | d.:.;.| 1.f.f.f.0.f.f.0.} ` :.r.l.7.7.f.t.` ( 7.` ' | | | | 7.q.",
"A ( } | :.:.0.f.0.:.:.0.t.,.7.f.t.7.| ( Q I ` :.( 7.r.,.| :.:.| r.' | :.( I :.f.| ( ' 7.0.| ' :.7.*.( ` :.0.t.f.h.h.t.t.0.,.7.0.| K K | t.7.| | I ` 0.0.:.:.:.0.",
"w.h.h.t.7.:.` :.` ` | :.7.7.| | T } 7.1.,.:.` ` ! | ,.0.7.:.| 7.:.| f.f.| ` | 7.f.7.} :.7.0.,.:.| } | | :.,.,.| 7.:.} | :.| | } Q | 7.:.( I ( ( W | d.t.1.} } ,.",
"7.r.,.:.:.} ' 0.q.7.) I ( +.| ( | 7.| ` ( :.| *.| :.6.7.:.:.6.r.q.0.0.6.( :.7.:.' | / K I ' 7.:.7.e.h.u.t.7.7.7.6.,.6.} ` / ! ( Q ;.| Q | t.t.{ ! ;.r.d.,.;.0.d."
};
