/* XPM */
static char *b631f301b1a0460482ca761c7348c8fcdQGOt8AbkfgFbb7N[] = {
/* columns rows colors chars-per-pixel */
"80 80 189 2 ",
"   c #1F160C",
".  c #1F190B",
"X  c #1E1812",
"o  c #1E1A19",
"O  c #25160E",
"+  c #24190E",
"@  c #281B0D",
"#  c #251A12",
"$  c #261914",
"%  c #211A1A",
"&  c #28201C",
"*  c #3A2619",
"=  c #3C2919",
"-  c #4A2E16",
";  c #4C331B",
":  c #713A0F",
">  c #653A13",
",  c #6B3C13",
"<  c #683916",
"1  c #6B3C19",
"2  c #723C12",
"3  c #453826",
"4  c #643F23",
"5  c #5F431F",
"6  c #6C4117",
"7  c #62411E",
"8  c #6D411B",
"9  c #70431A",
"0  c #7D4C1E",
"q  c #5C4327",
"w  c #634121",
"e  c #6C4827",
"r  c #7C4B22",
"t  c #7F4E2A",
"y  c #674F33",
"u  c #694D34",
"i  c #68553E",
"p  c #71563A",
"a  c #73583B",
"s  c #3E3A4F",
"d  c #3B3A50",
"f  c #6F3748",
"g  c #6B3848",
"h  c #753B45",
"j  c #46414E",
"k  c #5D4F41",
"l  c #46465E",
"z  c #48475E",
"x  c #49495D",
"c  c #6E4941",
"v  c #764246",
"b  c #724A40",
"n  c #6C5645",
"m  c #765D44",
"M  c #795C45",
"N  c #7E634B",
"B  c #515167",
"V  c #DB3F39",
"C  c #E53F38",
"Z  c #80501C",
"A  c #834D23",
"S  c #865427",
"D  c #85532B",
"F  c #895429",
"G  c #925C2F",
"H  c #B35E3F",
"J  c #9C682D",
"K  c #8B653B",
"L  c #9A6535",
"P  c #986636",
"I  c #956A3D",
"U  c #9C6D3C",
"Y  c #9E703C",
"T  c #A1692F",
"R  c #A56E35",
"E  c #A46F3A",
"W  c #B9653E",
"Q  c #A67035",
"!  c #DD6F10",
"~  c #DE7010",
"^  c #E64038",
"/  c #9E2B42",
"(  c #A22B43",
")  c #C22B4A",
"_  c #CB2A4A",
"`  c #D93246",
"'  c #E63846",
"]  c #81554A",
"[  c #816347",
"{  c #85694E",
"}  c #966B43",
"|  c #986A41",
" . c #9C7346",
".. c #9A7954",
"X. c #A37443",
"o. c #A77949",
"O. c #B17D41",
"+. c #BC7F4D",
"@. c #A57858",
"#. c #FA564D",
"$. c #FD6759",
"%. c #FD685A",
"&. c #F97F72",
"*. c #EC931E",
"=. c #E28D21",
"-. c #ECAB2C",
";. c #F1AC29",
":. c #F1B12B",
">. c #F6D139",
",. c #F8D23A",
"<. c #98845C",
"1. c #AF804E",
"2. c #BE824E",
"3. c #BD8353",
"4. c #B68458",
"5. c #B9855A",
"6. c #BA895C",
"7. c #9C8664",
"8. c #9C8A68",
"9. c #A48664",
"0. c #A48C64",
"q. c #AC8E64",
"w. c #A48D6C",
"e. c #AC8E6C",
"r. c #B48E6C",
"t. c #A4926C",
"y. c #AC936C",
"u. c #B5976C",
"i. c #AC8E74",
"p. c #AC9574",
"a. c #AC9B74",
"s. c #AA987A",
"d. c #B49574",
"f. c #B49B74",
"g. c #BC9C74",
"h. c #B4967C",
"j. c #B49D7C",
"k. c #BC9E7C",
"l. c #ACA27C",
"z. c #B4A274",
"x. c #BCA674",
"c. c #B4A27C",
"v. c #BCA37C",
"b. c #BCAA7C",
"n. c #FF8475",
"m. c #C4A57C",
"M. c #C4AA7C",
"N. c #FFE57A",
"B. c #B99E84",
"V. c #B4A484",
"C. c #BCA584",
"Z. c #BCAA84",
"A. c #B7A789",
"S. c #BCAC8C",
"D. c #BCB28C",
"F. c #C49E84",
"G. c #F69784",
"H. c #F69986",
"J. c #C4A684",
"K. c #C4AB84",
"L. c #CCAC84",
"P. c #C4A68C",
"I. c #C4AD8C",
"U. c #CCAE8C",
"Y. c #C4B284",
"T. c #C4B28C",
"R. c #CAB789",
"E. c #CCB38C",
"W. c #D4B48C",
"Q. c #D4BA8C",
"!. c #CAAE94",
"~. c #C4B494",
"^. c #CCB594",
"/. c #C7B897",
"(. c #CCBB94",
"). c #CCBC9C",
"_. c #D4B694",
"`. c #D4BB94",
"'. c #D4B69C",
"]. c #D4BC9C",
"[. c #EBA89B",
"{. c #F5AE9F",
"}. c #EEBFA8",
"|. c #CCC29C",
" X c #D5C39B",
".X c #FFF59A",
"XX c #F4C2A9",
"oX c #FECAAF",
"OX c #FFCBB0",
/* pixels */
"I.T.I.T.E.(.`.^.E.I.I.K.I.E.I.v.C.K.I.K.c.I.^.(.E.C.k.p.C.E.I.C.Z.I.I.E.(.E.K.I.J.v.f.f.f.J.I.K.K.c.p.a.C.^.I.I.p.w.j.~.E._.^.E.^.I.J.T.^.I.`.`.`.].I.I.^.^.^.I.",
"k.C.E.I.K.I.Z.K.I.E.(.(.E.T.E.I.K.I.K.^.T.Z.Z.K.C.v.v.C.T.E.c.j.K.^._.E.I.C.v.C.v.J.K.T.U.K.Z.v.v.K.I.I.].I.S.C.j.a.C.'.j.j.C.c.p.f.p.I.I.k.I.I.j.j.f.j.f.j.j.f.",
"I.I.E.U.Z.J.C.v.C.E.^.I.C.f.f.E.Z.c.f.v.^.Z.C.T.v.j.v.T.K.j.p.p.j.I.I.K.C.f.j.v.I.K.E.^.Y.K.z.y.w.f.C.v.w.p.I.^.T.^.E.C.^.C.K.C.d.K.p.j.f.p.j.j.J.v.I.K.C.k.v.v.",
"9.f.j.j.v.K.I.E.C.f.p.j.v.I.C.I.I.K.Z.I.Z.Z.T.E.v.j.d.^.I.E.T.K.I.v.C.I.K.C.C.C.I.I.v.v.m.v.M.K.K.K.T.^.J.c.K.K.p.v.Z.v.h.C.I.K.j.y.C.j.t.p.p.j.^.].w.e.I.^.C.w.",
"Y.v.v.Z.J.v.E.C.K.K.I.K.C.C.v.v.v.K.K.% $ # @ @ @ @ @ @ @ @ @ @ @ @ @ @ @ @ @ @ @ @ @ @ @ @ @ @ @ @ @ @ @ @ @ @ @ @ # $ & Z.~.^.T.T.K.f.v.K.v.T.I.x.T.(.^.T.Y.J.",
"K.J.I.E.K.v.C.K.T.E.C.t.f.K.U.J.v.C.J.% k N [ [ [ [ [ [ a a a { a p p d d d d d d d d d d p p p p p p p p p p p p p p n & t.p.v.Z.Z.v.f.K.b.f.Z.C.b.f.I.). X(.c.",
"c.K.E.K.C.c.E.I.K.v.v.k.v.C.k.f.f.f.f.# m r.1.5.6.6.6.6.E X.o.6.1.U Y d d d d d d d d d d U U U U U Y Y Y Y Y Y Y U Y  .= % I.I.Z.I.m.K.E.L.k.J.J.v.^.T.C.j.z.K.",
"K.v.f.y.w.0.C.W.I.K.K.K.v.f.f.J.K.K.U.@ m 6.2.+.3.3.3.3.E d d d g g g #.#.#.#.#.#.#.#.' ' g g g s d d E E E E R R R Q I = % T.Z.v.v.m.m.J.J.d.j.k.K.Z.I.I.I.K.v.",
"K.K.C.C.K.v.C.y.f.v.K.E.`.`.U.K.v.v.v.@ m 4.5.A F F D D A d d d g g g #.#.#.#.#.#.#.#.' ' g g g s d d r r r r 0 0 Z L K = % p.f.C.v.v.j.d.d.i.9.e.c.].I.i.9.p.K.",
"U.I.K.K.K.K.E.`.^.E.E.T.K.v.E.K.J.J.v.@ M 5.3.1 < 1 2 , > d d d g g g #.#.#.#.#.#.#.#.' ' g g g s d d > > > , 1 < 2 L | = o v.c.v.j.K.`.E.I.^.I.^.E.C.C.I.I.I.E.",
"f.K.E.^.K.j.p.v.E.].`.K.K.E.C.v.K.I.U.# M 5.2.< 1 r d d d / / / #.#.#.n.n.%.%.%.#.#.#.` ` _ _ _ ( / / d d d S 8 1 2 L I = % y.f.C.9.7.K.Z.p.^.~.I.I.P.j.i.w.p.K.",
"s.I.b.v.v.J._.W.E.K.j.p.k.v.C.v.J.C.C.# M 5.3.< 1 D d d d / / / #.#.#.n.n.%.%.%.#.#.#.` ` _ _ _ ( / / d d d G 9 1 : L I = o e.w.k.e.<.a.T.E.c.v.v.K.b.C.f.y.p.Y.",
"E.K.b.J.v.J.!.w.y.j.m.K.U.E.E.p.f.K.E.# M 5.3.< < t d d d / / / #.#.#.n.n.%.%.%.#.#.#.` ` _ _ _ ( / / d d d G 8 1 2 @.I = % K.K.k.I.T.T.K.C.E.E.K.K.Z.v.v.C.I.K.",
"k.d.u.v.K.^.T.T.K.J.v.K.U.K.d.K.I.k.y.# M 5.3.l d d / / / ` ` ` n.n.n.%.%.%.%.%.#.#.#.' ' _ _ _ _ _ _ / / / d d d 2 L I = % Z.v.f.j.J.J.J.J.U.U.L.L.L.k.k.m.J.u.",
"U.L.J.L.E.^.V.K.J.v.I.E.I.m.C.v.k.j.I.# M 5.3.l d d / / / ` ` ` n.n.n.%.%.%.%.%.#.#.#.' ' _ _ _ _ _ _ / / / d d d 2 L I = % K.^.(.y.v.v.v.m.F.g.k.d.g.d.f.J.U.W.",
"W.d.y.p.v.C.j.E.K.J.v.v.v.j.I.I.I.C.v.# M 4.3.l d d / / / ` ` ` n.n.n.%.%.%.%.%.#.#.#.' ' _ _ _ _ _ _ / / / d d d , L I = % ^.E.I.v.`.I.m.v.F.g.k.y.e.q.y.g.L.u.",
"T.K.M.v.f.y.9.J.v.f.d.J.I.E.g.K.U.v.f.O N g g l l l _ _ _ ' ' ' %.%.%.%.%.#.#.#.#.#.#.#.#.` ` ` _ _ _ _ _ _ l l l g g g = % `.^.Z.T.I.v.j.k.f.g.k.K.j.c.v.v.b.K.",
"Z.J.K.I.Z.C.Z.(.C.v.I.v.j.v.v.p.J.U.v.O m g g l l l _ _ _ ' ' ' %.%.%.%.%.#.#.#.#.#.#.#.#.` ` ` _ _ _ _ _ _ l l l g g g = o c.T.(.I.C.c.C.K.K.b.J.a.a.v.Y.Y.T.C.",
"v.w.w.a.C.T.I.E.K.C.Z.v.C.^.^.p.t.8.w.O u g g l l l _ _ _ ' ' ' %.%.%.%.%.#.#.#.#.#.#.#.#.` ` ` _ _ _ _ _ _ l l l g g g = o l.Z.^.^.V.c.v.T.E.T.L. Xv.Z.^.(.T.y.",
"Z.^.E.I.J.v.I.T.I.v.K.`.E.Z.E.E.E.U.g g g d d g g g _ _ _ #.#.#.#.#.#.~ ~ H H H H H H H H ' ' ' _ _ _ _ _ _ g g g d d d g g C.c.c.V.K.C.c.C.E.E.Q.V.V.f.j.Z.S.E.",
"I.E.^.Z.f.a.E.C.v.j.c.(.I.a.Z.f.y.p.g g g d d g g g _ _ _ #.#.#.#.#.#.~ ~ H H H H H H H H ' ' ' _ _ _ _ _ _ g g g d d d g g ^.S.C.j.T.Z.I.K.K.K.U.I.].I.C.Z.^.I.",
"I.v.f.y.a.C.I.C.I.K.c.C.E.T.K.E.T.K.g g g d d g g g _ _ _ #.#.#.#.#.#.~ ~ H H H H H H H H ' ' ' _ _ _ _ _ _ g g g d d d g g E.E.~.^.V.K.^. XY.v.v.I.C.C.I.).^.C.",
"f.I.T.C.v.C._.C.c.j.Z.^.v.t.p.^.].S.l l l ' ' ( / / _ _ _ #.#.#.~ ~ ~ ,.,.,.,.,.,.,.,.:.:.W H H _ _ _ / / / g g g / / / l l C.c.f.C.T.C.c.j.b.L.E.K.Z.J.f.w.0.c.",
"K.E.T.C.Z.K.y.K.K.K.T.T.K.C.A.A.^.).l l l ' ' ( / / _ _ _ #.#.#.~ ~ ~ ,.,.,.,.,.,.,.,.:.:.W H H _ _ _ / / / g g g / / / l l T.E.S.^.(.T.K.T.E.K.m.v.y.v.L.K.K.(.",
").T.V.z.a.a./.(.Z.Z.T.j.V.K.S.K.~.T.l l l ' ' ( / / _ _ _ #.#.#.~ ~ ~ ,.,.,.,.,.,.,.,.:.:.W H H _ _ _ / / / g g g / / / l l K.I.c.~.(.T.T.T.z.c.Z.R.c.a.c.~.].~.",
"S.T.T.T.~.(.].Z.C.S.v.t.Z.T.y.w.p.Z.d d d #.#.' ' ' ` ` ` H H H :.:.:.~ ~ ~ ~ ~ ~ ~ ~ ~ ~ ;.:.:.v g g / / / / / / / / / d d I.`.^.).T.I.C.f.b.T.R.T.E.~.^.(.T.E.",
"~.(.^.I.~. XT.].I.Z.v.I.(.E.]. XE.Z.d d d #.#.' ' ' ` ` ` H H H :.:.:.~ ~ ~ ~ ~ ~ ~ ~ ~ ~ ;.:.:.v g g / / / / / / / / / d d j.c.I.~.C.A.I.I.E.I.c.K.E.(.^.K.Z.T.",
"I.Z.K.c.f.C.j.Z.f.C.`.K.C.c.v.I.T.v.d d d #.#.$.%.%./ / / H H H ~ ~ ~ ~ ~ ~ ~ ~ ~ ~ ~ ~ ~ ~ ~ ~ h g g g g g / / / / / / d d j.f.c.C.A.C.j.V.j.v.Z.(.(.`.T.V.c.c.",
"C.K.T.Z.v.C.v.T.k.v.C.y.C.^.v.k.K.I.d d d #.#.$.%.%./ / / H H H ~ ~ ~ ~ ~ ~ ~ ~ ~ ~ ~ ~ ~ ~ ~ ~ h g g g g g / / / / / / d d v.C.C.^.I.C.C.I.Z.K.^.E.v.f.p.y.j.f.",
"j.v.Z.I.K.C.K.C.v.^.^.j.v.K.^.c.C.K.d d d #.#.$.%.%./ / / H H H ~ ~ ~ ~ ~ ~ ~ ~ ~ ~ ~ ~ ~ ~ ~ ~ h g g g g g / / / / / / d d E.K.C.C.j.j.v.C.K.v.v.u.K.S.Z.C.j.a.",
"B.C.J.K.C.C.T.U.I.I.J.C.K.C.k.d.w.y.d d d / / &.n.n.%.%.%.' ' ' / / / ! ! ~ ~ ~ ~ ~ ~ ~ ~ h g g g g g / / / / / / g g g d d C.C.c.I.U.K.g.y.m.v.f.v.v.j.f.C.v.v.",
"T.Z.K.Y.I.K.T.p.f.Z.v.v.f.v.Z.T.(.K.d d d / / &.n.n.%.%.%.' ' ' / / / ! ! ~ ~ ~ ~ ~ ~ ~ ~ h g g g g g / / / / / / g g g d d j.p.d.J.C.c.v.K.C.f.p.K.j.C.K.C.K.K.",
"I.v.v.v.C.v.v.C.C.^.C.I.C.T.C.I.I.K.d d d / / &.n.n.%.%.%.' ' ' / / / ! ! ~ ~ ~ ~ ~ ~ ~ ~ h g g g g g / / / / / / g g g d d v.d.p.C.K.v.j.v.J.C.v.v.y.v.C.j.v.I.",
"K.I.Z.K.T.E.I.j.j.C.C.I.C.j.C.v.C.k.k.# u d d ) _ _ n.n.n.%.%.%.#.#.#./ / ! ! ! ~ ~ ~ g g / / / _ _ _ _ _ _ g g g d d d = % K.C.v.c.K.j.p.f.Z.K.K.C.I.K.C.J.Z.`.",
"C.f.p.a.v.Z.v.p.s.I.~.].j.p.k.C.k.v.C.# u d d ) _ _ n.n.n.%.%.%.#.#.#./ / ! ! ! ~ ~ ~ g g / / / _ _ _ _ _ _ g g g d d d = % Z.Z.K.j.C.j.f.j.J.C.v.C.E.I.C.v.C.z.",
"I.E.K.K.K.I.I.C.I.`.E.T.I.I.y.v.v.Z.K.# u d d ) _ _ n.n.n.%.%.%.#.#.#./ / ! ! ! ~ ~ ~ g g / / / _ _ _ _ _ _ g g g d d d = % c.K.~.C.v.J.K.E.C.j.v.K.C.K.J.j.k.E.",
"j.E.K.c.f.j.E.(.K.Z.z.E.c.y.V.^.Z.S.Z.@ u d d d d d _ _ _ ' ' ' #.#.#.#.#./ / / g g g / / _ _ _ _ _ _ / / / d d d d d d = % I.K.I.p.C.K.K.C.y.C.`.K.f.0.p.^.`.Z.",
"Z.C.T.^.T.Z.S.v.T.Q.E.b.Y.E.l.T.k.e.p.@ u d d d d d _ _ _ ' ' ' #.#.#.#.#./ / / g g g / / _ _ _ _ _ _ / / / d d d d d d = % V.c.c.T.v.K.K.C.v.Z.E.j.E.Z.v.T.E.a.",
"K.Z.C.C.Z.Z.p.K.T.E.T.T.T.E.(.c.0.w.v.O u d d d d d _ _ _ ' ' ' #.#.#.#.#./ / / g g g / / _ _ _ _ _ _ / / / d d d d d d = % T.K.C.I.K.K.Z.v.v.U.`.c.I.v.v.K.K.T.",
"^.^.T.Z.V.C.S.`.(.^.Y.I.T.T.Z.p.0.p.K.O u l l [.{.{.d d d g g g _ _ _ ' ' ' ' ' ' ' ' _ _ ( / / f g g d d d {.{.{.l l l = o Z.j.a.T.K.T.E.E.C.v.v.I.E.I.K.T.E.T.",
"T.a.w.t.C.E.V.v.I.T.T.T.^.^.^.I.S.K.T.@ u z z [.{.{.d d d g g g _ _ _ ' ' ' ' ' ' ' ' _ _ ( / / f g g d d d {.{.{.l l l = o C.K.C.K.T.m.j.f.j.J.E.K.v.v.v.v.K.C.",
"E.T.C.c.V.c.w.Z.T.^.^.T.I.Z.U.f.c.Z.D.O u z l [.{.{.d d d g g g _ _ _ ' ' ' ' ' ' ' ' _ _ ( / / f g g d d d {.{.{.l l l = o C.K.K.K.E.v.j.f.f.f.v.I.Z.K.Z.K.I.].",
"K.c.C.I.K.I.`.~.^.^.T.I.Z.j.f.j.Z.(.(.@ u l l XXoXoXOXOXOXOXOXOXd d d d d d d d d d d d d d d d }.oXoXOXOXOXOXOXOXl l l = o K.C.C.K.a.y.f.K.K.I.E.b.v.c.v.Z.Z.p.",
"Y.T.S.Z.Z.V.a.~.I.I.I.(.I.V.r.v.V.V.V.O u l l XXoXoXOXOXOXOXOXOXd d d d d d d d d d d d d d d d }.oXoXOXOXOXOXOXOXl l l = o ^.E.J.C.E.K.v.I.K.K.I.K.K.K.Z.E.E.~.",
"(.C.S.~.S.j.I.c.v.c.a.p.f.C.T.y.0.c.b.O u U R B l l {.{.{.OXOXOX] ] ] oXoXOXOXOXOXOXOXOXOX] ] ] XXoXoX{.{.{.l l l , L I = o k.p.y.y.C.K.C.c.Z.j.y.a.Z.Z.C.c.T.C.",
"K.C.C.K.C.j.v.I.C.k.a.v.K.E.j.C.S.v.j.O u U R B l l {.{.{.OXOXOX] ] ] oXoXOXOXOXOXOXOXOXOX] ] ] XXoXoX{.{.{.l l l , L I = o d.d.v.E.I.E.I.K.T.E.I.T.~.T.T.T.S.C.",
"j.v.v.v.C.v.c.k.v.K.U.U.C.j.!.j.J.C.^.O u U R B l l {.{.{.OXOXOX] ] ] oXoXOXOXOXOXOXOXOXOX] ] ] XXoXoX{.{.{.l l l , L | = o j.f.C.`.C.U.E.I.C.k.f.f.E.v.w.7.0.C.",
"v.j.j.K.I.E.^.C.f.w.w.v.I.E.I.h.j.j.C.O u U R B l l {.{.{.G.G.G.G.G.G.{.{.{.{.{.{.{.{.{.{.H.G.G.G.G.G.{.{.{.l l l , L | = o v.I.E.k.w.d.j.k.v.v.j.T.T.I.K.v.C.c.",
"v.K.K.K.K.K.m.C.J.U.W._.E.I.d.a.j.y.w.O u U R B l l {.{.{.G.G.G.G.G.G.{.{.{.{.{.{.{.{.{.{.H.G.G.G.G.G.{.{.{.l l l , L | = o d.f.k.j.m.C.J.C.C.U.^.K.K.I.E.^.K.U.",
"v.m.K.m.J.K.E.U.K.J.J.m.v.J.L.v.g.E.E.O u U R B l l {.{.{.G.G.G.G.G.G.{.{.{.{.{.{.{.{.{.{.H.G.G.G.G.G.{.{.{.l l l , L | = o v.K.U.v.j.g.j.k.m.C.J.J.f.p.d.j.j.v.",
"I.p.e.w.w.d.g.y.j.v.k.y.p.f.C.k.j.f.d.O u d d =.*.*.l l l l l l l l l l l l l l l l l l l l l l l l l l l l *.*.*.l l l = o C.I.E.v.v.g.f.u.y.y.y.y.p.f.C.K.U.f.",
"K.K.I.E.E.L.k.C.J.J.v.J.U.E.C.v.k.f.e.O u d d =.*.*.l l l l l l l l l l l l l l l l l l l l l l l l l l l l *.*.*.l l l = o C.K.I.v.I.K.J.C.C.K.K.K.C.K.I.U.T.C.",
"C.p.f.k.I.U.U.g.v.v.K.K.C.v.k.C.I.E.E.O u d d =.*.*.l l l l l l l l l l l l l l l l l l l l l l l l l l l l *.*.*.l l l = o f.k.v.J.w.w.e.y.v.I.U.~.I.K.K.C.v.t.",
"K.E.Z.v.j.j.k.j.C.K.U.U.J.v.v.p.f.C.v.@ u d d V C C _ _ _ _ _ _ _ _ _ _ _ / / / / / / _ _ _ _ _ _ _ _ _ _ _ C C C l l l = o k.C.J.U._.^.^.!.^.)._._._.E.I.K.K.(.",
"I.].(.^.T.C.y.k.k.v.j.j.v.K.J.K.I.U.C.@ u d d V C C _ _ _ _ _ _ _ _ _ _ _ / / / / / / _ _ _ _ _ _ _ _ _ _ _ C C C l l l = o E.J.k.f.p.d.j.j.C.C.v.f.c.C.v.C.K. X",
"`.(.T.T.E.^.^.K.U.E._.K.J.v.I.U.K.j.y.@ u d d V C C _ _ _ _ _ _ _ _ _ _ _ / / / / / / _ _ _ _ _ _ _ _ _ _ _ C C C l l l = o I.J.C.I.E.E.E.E.J.v.k.I.U.E.^.^.^.(.",
"`.^.T.E.^.E.^._.E.I.E.^.E.L.I.I.C.y.l l l :.:.j d d >.>.>.^ ^ ^ C C C C C _ _ _ / / / C C C C C C C C ,.,.,.l l l :.:.:.l l f.f.f.U.C.m.K.K.K.L.E.^.^.(.`.`.`.(.",
"p.v.C.f.y.y.v.b.Z.M.v.d.i.e.p.K.L.E.l l l :.:.j d d >.>.>.^ ^ ^ C C C C C _ _ _ / / / C C C C C C C C ,.,.,.l l l :.:.:.l l ~.T.D.|.E.b.v.v.v.v.m.j.I.I.C.j.p.v.",
"7.v.s.p.p.f.C.Z.K.K.E.U.J.k.v.Z.v.C.l l l :.:.*.*.*.d d d >.>.>.N.N.N..X.X,.,.,.~ ~ ~ N.N.N.N.N.,.,.,.d d d *.*.*.:.:.:.l l v.C.v.c.p.p.p.p.p.d.j.C.s.e.7.<.7.C.",
"j.d.j.C.C.j.7.f.j.C.U.v.k.d.c.J.U.I.l l l :.:.*.*.*.d d d >.>.>.N.N.N..X.X,.,.,.~ ~ ~ N.N.N.N.N.,.,.,.d d d *.*.*.:.:.:.l l U.m.j.v.P.C.J.I.I.k.p.f.C.C.K.I.C.p.",
"C.v.d.j.C.I.^.c.k.v.K.J.K.U.I.p.y.p.l l l :.:.*.*.*.d d d >.>.>.N.N.N..X.X,.,.,.~ ~ ~ N.N.N.N.N.,.,.,.d d d *.*.*.:.:.:.l l f.d.e.e.j.j.j.j.B.B.j.p.C.C.I.E.K.I.",
"v.p.j.U.].^.C.C.v.C.K.v.v.v.I.w.0.p.f.@ u l l d d d d d d g g g C C C C C _ _ _ / / / C C C C C h g g d d d d d d l l l = o v.I.I.f.w.k.U.I.j.C.I.E.K.j.v.I.S.p.",
"C.p.p.j.j.j.C.p.i.p.C.d.y.y.C.j.C.I.^.@ u l l d d d d d d g g g C C C C C _ _ _ / / / C C C C C h g g d d d d d d l l l = o J.I.U.C.d.K.E.J.y.t.y.c.p.w.p.C.I.C.",
"C.C.v.Z.S.Z.T.T.Z.I.].Z.c.E.D.c.p.a.C.@ u l l d d d d d d g g g C C C C C _ _ _ / / / C C C C C h g g d d d d d d l l l = o j.I.E.C.v.j.f.a.v.~.].I.I.I.C.V.C.K.",
"p.K.T.^.`.(./.v.p.t.v.C.C.K.T.).T.K.K.@ u U R , , F d d d C C C / / / g g d d d d d d g g / / / C C C d d d T 9 > , P | = o v.C.j.p.c.j.p.e.w.j.K.K.y.w.7.7.w.C.",
"T.v.j.j.V.T.Z.C.c.C.T.I.K.Z.V.K.C.v.j.@ u U R , , F d d d C C C / / / g g d d d d d d g g / / / C C C d d d T 8 1 , L | = % C.c.C.I.J.C.v.j.j.K.).I.w.w.a.C.K.j.",
"P.I.K.v.I.(.Z.y.v.K.C.y.a.j.K.p.f.C.v.@ u U R , , F d d d C C C / / / g g d d d d d d g g / / / C C C d d d T 8 1 , P | = % I.J.C.E.].^.T.I.c.C.I.^.c.C.K.I.Z.K.",
"].^.I.J.K.E.K.K.I.E.E.W.E.I.j.I.K.C.v.@ u U R , , F d d d :.:.:.*.*.*.H H l l l l l l H H -.:.:.*.*.*.d d d T 8 1 , P | = % C.C.j.e.w.7.7.p.C.C.C.v.C.I.T.E.^.(.",
"K.K.j.p.p.f.k.e.p.f.J.j.p.0.v.^.I.C.Z.@ u U R , , F d d d :.:.:.*.*.*.H H l l l l l l H H -.:.:.*.*.*.d d d T 9 1 1 L | = % ^.`.].I.E.I.C.I.I.K.C.I.C.C.C.C.C.T.",
"^.I.E.^.E.k.y.e.e.d.d.e.d.J.E.I.c.c.Z.@ u U R < , F d d d :.:.:.*.*.*.H H l l l l l l H H -.:.:.*.*.*.d d d T 9 1 1 L I = % ^.`.^.j.i.0.w.p.C.J.I.I.Z.I.I.I.I.I.",
"y.y.a.j.v.Z.I.C.a.7.p.C.t.t.^.Z.c.C.T.+ y U R , , S d d d b b b b b b d d O.O.O.O.O.O.d d c b b b b b d d d J 6 > , L I = % K.I.K.I.b.K.K.M.Y.E.E.v.J.J.k.f.d.w.",
"v.T.^.`.^.T.K.T.K.C.K.Z.C.E.C.Z.Z.T.^.+ y U E > > F d d d b b b b b b d d J J J J J J d d c b b b b b d d d J 8 < > P } = % k.c.K.E._.(.`.E.E.Z.v.f.y.y.k.C.C.K.",
"v.v.C.v.j.c.T.C.C.f.j.j.y.y.c.v.j.f.a.  i .. .< 7 K  . .X.d d d d d d X.X.X.X.X.X.X.X.X.X.x d d d d d X.X.X.o.e w 7 } ..= % C.Z.I.C.U.E.^.E.`.`.(.I.^.I.v.f.j.v.",
"c.v.C.c.c.v.E.^.E.K.I.C.f.a.c.(.`.(.`.& 3 q w - - ; q w w d d d d d d 7 7 w w w w w w w 4 x d d d d d w 7 7 5 ; ; - q q * % K.K.C.j.w.f.J.v.y.w.w.K.U.K.j.p.f.C.",
"c.Z.K.Z.C.v.j.C.K.C.f.y.e.f.d.C.C.J.Z.% #   + $ $ X   + . d d d d d d + + + O O O O O O O x d d d d d + O   . X $ # + # % % I.I.K.K.j.I.I.S.C.U.^.E.f.a.j.v.v.C.",
"^.I.I.E.T.I.v.U.^.U.v.C.C.E.I.v.j.f.C.K.C.j.y.p.`.^.Z.v.K.I.v.p.h.T.K.V.v.c.v.C.Z.I.E.^.Z.I.K.p.f.v.I.I.`.y.C.Z.C.E.Z.y.v.v.v.v.j.f.C.v.k.p.w.j.C.v.y.f.I.(.`.K.",
"Z.c.j.v.K.K.C.k.k.e.p.J.k.j.v.v.k.C.I.K.Z.^.^.I.I.I.C.C.J.j.w.7.p./.T.Z.S.I.v.Z.K.Z.Z.I.Z.K.C.Z.S.E.E.I.I.^.I.Z.T.E.I.Z.K.I.I.I.K.k.C.I.^.I.I.K.I.I.I.S.I.I.Z.v.",
"C.T.I.K.Z.I.T.I.T.T.I.Z.I.I.v.I.I.K.Z.K.c.Z.K.C.f.j.C.j.f.j.C.K.c.p.y.f.I.E.m.C.K.Y.`.`.U.C.v.c.Z.I.K.C.I.c.K.K.f.Z.^.(.v.T.^.E.I.C.I.J.C.I.C.j.I.U.C.C.C.C.v.I.",
"^.Z.c.p.p.a.c.T.^.`.].K.c.a.p.f.j.j.j.a.a.K.(.T.I.K.v.Z.K.T.`.`.E.q.y.j.K.U.v.C.K.K.K.C.C.v.C.`.(.Z.c.j.t.p.I.].C.K.I.K.I.K.C.V.I.^.a.p.y.v.p.w.C.C.^.K.a.p.C.E.",
"I.T.I.T.E.(.`.^.E.I.I.K.I.E.I.v.C.K.I.K.c.I.^.(.E.C.k.p.C.E.I.C.Z.I.I.E.(.E.K.I.J.v.f.f.f.J.I.K.K.c.p.a.C.^.I.I.p.w.j.~.E._.^.E.^.I.J.T.^.I.`.`.`.].I.I.^.^.^.I."
};
