/* XPM */
static char *_69c291013e8437cef78ccf00667cb3ejYeMzvnoPStja7Dz[] = {
/* columns rows colors chars-per-pixel */
"80 80 256 2 ",
"   c #050001",
".  c #0B0203",
"X  c #0C040A",
"o  c #0D090A",
"O  c #120404",
"+  c #11050B",
"@  c #130B0C",
"#  c #160B07",
"$  c #1A120B",
"%  c #140D13",
"&  c #180C14",
"*  c #1B1517",
"=  c #0E0910",
"-  c #26150B",
";  c #241A19",
":  c #341D14",
">  c #2D1307",
",  c #36271C",
"<  c #2D231B",
"1  c #2A2527",
"2  c #362B27",
"3  c #38332A",
"4  c #383537",
"5  c #2F2B33",
"6  c #231D24",
"7  c #462A1C",
"8  c #493329",
"9  c #57372B",
"0  c #483936",
"q  c #543C34",
"w  c #583C37",
"e  c #4C2E25",
"r  c #633D36",
"t  c #633A2C",
"y  c #5C433C",
"u  c #59433A",
"i  c #4F4138",
"p  c #63443C",
"a  c #6B453C",
"s  c #67463A",
"d  c #76493D",
"f  c #754A35",
"g  c #3D3B45",
"h  c #483D44",
"j  c #533F45",
"k  c #3F4149",
"l  c #4A4449",
"z  c #594848",
"x  c #564B55",
"c  c #595157",
"v  c #565050",
"b  c #644B44",
"n  c #6A4B44",
"m  c #634D4A",
"M  c #6B4D4A",
"N  c #644643",
"B  c #734D45",
"V  c #7B4D43",
"C  c #744E4B",
"Z  c #6C524C",
"A  c #68524A",
"S  c #7C5244",
"D  c #74534C",
"F  c #7C544C",
"G  c #7D594E",
"H  c #745348",
"J  c #664E53",
"K  c #6C5453",
"L  c #695859",
"P  c #755553",
"I  c #7B5654",
"U  c #745A54",
"Y  c #7C5B55",
"T  c #745B5B",
"R  c #7C5C5B",
"E  c #73575C",
"W  c #7D635C",
"Q  c #79645A",
"!  c #675B66",
"~  c #7C5E62",
"^  c #755D65",
"/  c #686166",
"(  c #7C6362",
")  c #7A6768",
"_  c #7A6974",
"`  c #7D7375",
"'  c #5E5160",
"]  c #83544B",
"[  c #835A4E",
"{  c #88564A",
"}  c #935C4D",
"|  c #835B55",
" . c #8B5C54",
".. c #835D5C",
"X. c #8B5E5B",
"o. c #845653",
"O. c #935C54",
"+. c #945E58",
"@. c #804F45",
"#. c #8B6256",
"$. c #84625C",
"%. c #8C635D",
"&. c #846A5E",
"*. c #8B695E",
"=. c #846357",
"-. c #94635C",
";. c #9B645B",
":. c #936B5D",
">. c #9C6A5D",
",. c #986454",
"<. c #89715E",
"1. c #9A735C",
"2. c #97624E",
"3. c #A2685A",
"4. c #A5755B",
"5. c #865F61",
"6. c #836462",
"7. c #8B6462",
"8. c #846B63",
"9. c #8C6C63",
"0. c #8C6C6A",
"q. c #84686B",
"w. c #936563",
"e. c #936C63",
"r. c #9A6B64",
"t. c #976A68",
"y. c #8C7263",
"u. c #85726B",
"i. c #8B736B",
"p. c #8A7668",
"a. c #947264",
"s. c #9B7364",
"d. c #9B7A65",
"f. c #94736A",
"g. c #9B746B",
"h. c #947B6C",
"j. c #9B7B6C",
"k. c #937A66",
"l. c #856C73",
"z. c #897777",
"x. c #967A76",
"c. c #946E73",
"v. c #A26C62",
"b. c #A36A65",
"n. c #A37364",
"m. c #A3746B",
"M. c #A27B6C",
"N. c #AC7B6B",
"B. c #A97765",
"V. c #B27B69",
"C. c #A37C72",
"Z. c #A87D75",
"A. c #B27E70",
"S. c #96826D",
"D. c #9B836E",
"F. c #9C876C",
"G. c #8D827A",
"H. c #958374",
"J. c #9B8373",
"K. c #9C8A75",
"L. c #9B837B",
"P. c #98897B",
"I. c #8E816D",
"U. c #A4826D",
"Y. c #A9876B",
"T. c #B4836C",
"R. c #B8896B",
"E. c #A48373",
"W. c #AB8473",
"Q. c #A48B74",
"!. c #AB8C74",
"~. c #A4837B",
"^. c #A38C7A",
"/. c #AC8C7B",
"(. c #A9857B",
"). c #B48372",
"_. c #B38C74",
"`. c #B28C7B",
"'. c #BA8A76",
"]. c #A69376",
"[. c #AA9376",
"{. c #A5947B",
"}. c #AC947B",
"|. c #AC9B7D",
" X c #A7997B",
".X c #B4947B",
"XX c #B39B7D",
"oX c #BA9778",
"OX c #B8A27E",
"+X c #AC835C",
"@X c #C58D75",
"#X c #C69679",
"$X c #C1966F",
"%X c #CCA47C",
"&X c #7D7583",
"*X c #8A7A82",
"=X c #947D81",
"-X c #A07C80",
";X c #8C8585",
":X c #978984",
">X c #9A9287",
",X c #9B9598",
"<X c #948A94",
"1X c #A48D82",
"2X c #A78A85",
"3X c #A49483",
"4X c #AC9C84",
"5X c #A99889",
"6X c #B29C83",
"7X c #BB9C82",
"8X c #B69987",
"9X c #A49A97",
"0X c #B49B95",
"qX c #AD8E8C",
"wX c #ABA18A",
"eX c #B4A383",
"rX c #BBA48C",
"tX c #BDAB8C",
"yX c #B8A689",
"uX c #ACA397",
"iX c #B7A998",
"pX c #BDB29A",
"aX c #BCB18F",
"sX c #9896A7",
"dX c #A89EA4",
"fX c #A9A4A8",
"gX c #B7AAA6",
"hX c #BCB5A7",
"jX c #BBB7B4",
"kX c #AAA6B3",
"lX c #C49B83",
"zX c #C3A688",
"xX c #C4AC95",
"cX c #C6B699",
"vX c #D0B08F",
"bX c #C5B8A8",
"nX c #D4BBA7",
"mX c #C6BBB4",
"MX c #CAB3AD",
"NX c #CAC2A9",
"BX c #D5C4A8",
"VX c #CCC6B8",
"CX c #D6C8B9",
"ZX c #D8D2B9",
"AX c #E1C7AB",
"SX c #B2B5C6",
"DX c #BFC6D8",
"FX c #CAC8C6",
"GX c #D4CCC7",
"HX c #D8D3C9",
"JX c #D2D1D5",
"KX c #E6D7C7",
"LX c #EBE4D2",
"PX c #EEEFEF",
"IX c #DCDCE8",
"UX c #C0BFC7",
/* pixels */
"9.0.$.0.x.8.~.c.q.x.q.q.) ( ( q.~ ~ x.( ` ! ;X_ ;X&XsX<X<X,X;XdX;X>Xz.) G.>X/ >XG.wX>XuXG.` u.) 9Xz.I.F.u.:Xl.:X>X:XdXfX` kXhXbX3XgXJXwX5X3XP.) h.h.8.H.Q ^.x.P.",
"L.u.z.L x.~.7.0.x.0.2X0.2Xi.q.0.C.c.6.1Xz.z.` fXsXkXDXkX,X<X>X,X9X>Xz.:X>Xu.P.L G.z.>X>XuX) 1X:XP.P.aXS.4X5X9Xz.G.) ! <XkXIXGX8XLXHXGXL z.wXh.pXiXP.5XP.mXu.HXJX",
"H.z.) ) ) ) ) l.( f.K $.Z z U ..g./.f.( H.v / ;X*X,XfX9XUXjXFX,XjXgXJXFX3X3Xx.uXH.iXiX5Xz.L.1Xq.z.wX X].9.5X^ ! ) uX;X;X<X,XP.i ( T iX) L i.) u.H.x.4Xi.L P.H.uX",
"u.5X>Xz.) z.:X,X) R (.p w w n t.w.nXY R yX3 / l 5XJXIXFXjXG.wXP.L L h l 1Xz E 6.8.rX8X2Xz q.R z ) P.Q d.N R 4 z x.P.:X% 1 FXu.z W i.8.i.m A bX^.A P.h.h.8.H.bXP.",
"{.u.gX>X) 5X:XG.z.u.C r.9  .b.'.N.F *.9.4Xu.. 3 IXjXx.l.L.L v 1 0 l ; K P K M /.9.6.~.g.M w P 5.0 z s H B P ~ l.2 z.5Xo % fXiX8.$.N }.U R 6X0 Z 6XJ.yXQ.u.^.( i.",
"8.iXi.) u.h.z.>X/ :Xx. .V ;.O.3.{ >.g.Q.^.3 . . mX3X( ) 6.W Q T ~ ~ . MXg.g.nXM t.w.C.t.8 w C 5.m 7.#.#.9 y K z 8.P.L   % fXVXW a.e.$.$.Y e.$.R h.K.Y h.h.6XNX4X",
"Q.^.3Xh.$.Z h.L ) z.T C r d O.3.;.'.vXa.K # $   gXL.L U U J.$.8.K 2 P (.j.7.lXY I m.t.7.- n p w 0 H S >.7 y R R h.A >X. @ kXx.&.X.F X.w.M *.g.j.9.A &.2 T y.}.8.",
"h.6X8.h.9.e.$.i.` ) 6.B @.9 d } @XB. .Y 2 . .   3XiX8Xx.y $.Z j.- O P 7.8 8XM g.I | W.w.8 D D N b q @.{ 9 > I $.a.J.4   X L GXZ Y  .X.o.r..Xn a.!.y.N &.Y ].].{.",
"Q.S.h.K.f.G X.7.K u.T B { b.;.@XV.w X.~ # . .   L MXx.Z b P u 2 - : Y P $.e.y e.H M.C.F N C C N n 8 } 4.@.v.X./.Y W 3   @ l iXj. .N.r.-.F :.F a Y F j.p y.}.y.S.",
"E.h.W h.8.9.X.o.g.1XK 7.v.V.#X@X9 B ..E @ *     ^ 5X; P M D 6.g.u u g.j.E./. .M.s.M.M.W.H | F H `.m.{ 3.@.@.X.$.Y y.T .   ; 5X6Xu s s n.9 s.n.s. .H M.8 *.k.XXQ.",
"i.T 8.iX8.i.%. .G 6.L m M.A.A.#Xe a P $ & . o . x 0X(.C.`.g.j.t.6.j.~.D A j.j.G d.W.| H D D s X.D o.2.3.} ;.o.C.j.y.) . + $ 5X$.s.).-. ._.-.F M.s G U.=.*.k.XXU.",
"u.L 8.K.4Xu.Z s.u 8.z L w.'.7 9 +.b.5.j g &   . l 0X~.C.Z 7...lXD N Y /.E.:.e.:._.#.s.s s p :.n t.vX,.3.} { r.m.a.y.^.. + . iXU B 9 [ %._.a F [ U.!.M.U.| #.U.9.",
"c u.u.U H.uX6.| C.i.J T : : e : e 7 C j c X o X 4 GXQ.nXoX`.`.7.D y Y 7X.X%.s.U.M.oXoX[ N.F F o.Z.%.2.f d V.9 F j.h.1X  . . mXI C.=.:.M.n , y M.M.o.|  .M.H s.n ",
"R S.|.{.T 9XT $./.( L w 9 9  .B t O.N ~ * @   X l HXzXY._.W.`.I w.M.m.%.o.:.T.n.B.[ ,.T.{ ]  .-.I %.@.} V.#X%.w.M.j.x.  . O mXM j.*.| F H , q `.:.s.U.lXoX=.s.%.",
"9.y.K.u.H.q.l.x.( z.E N F r > O.e ;.I h 6 o . . c rXQ.vXn._.o.lX%.-.m.A.).B.v.T. .{ a } @.S d N.C.e.,.{ { N.F j.$.J.x.$ .   0XR E.q s.!.e.u *.N | (.s.C.n M n $.",
"{.p.Q ) z.9X:X~ l.L J I 9 e  .9 9 ;.N ; ; . . . l HXOXoXU.:.W.7.D -.v.o.-.n.{ } B.;.;.,.} ] {  .X.w.d 4.R.'.W.M./.J.z . . O 0XR E.H n %.y n *.!.q D %.Y g.g.a.9.",
"U Q ) ;X9X_ u...w z q q 8 w.n , d S 8 0 x +   . l CXcXzXD.*.$.9.C.M.| #.>.2.V.V.@.} O.3. .r.-.X.r.X.M.M.S G f.I K q.* . O   z.x.m 8.R K h.8.J.i.$.i.9.^.h.i.8.}.",
"y.h.) fX,X,XMXF r C r : o.C n p s S n E ; . . . l VXS.eXQ Z 9.6.u 9. ._.,.B.3.} V.B.3.B. .r.t.t.F ).M.:.!.k.U i.L.FXl.. . O x.L z.Z m T T 8.J.i {.{.K {.4XS.K.U ",
"S.8.i.u.fX5Xe.a ] e { +.r w b.-.;.N.I T 5 + . . l HX4Xk.eXy.bXL.9.}.j.U.H B.T.3.} } 3.#XN.m.X.o.m.n.N.M.s.M.U.x.L.L.2XO . . c.6.K Y 0.$.M y 9.W J.E.yX[.Z U U y.",
"a.i.8.:X9X>XF d V V d V a { { S ;.N.j.l.c . . & l 5Xu.cXh.y.^.) ( 6.f.*.G >.T.{ S d ] M.%.7.$.g.w.N.-.[ s.s.*.Q.5X0XgX#   O x.z R M q f., ..$.Y rX..E.D q y.$.D.",
"6.) :Xz.z.u.] > t } +.e 7 9 V S lXM.~.2Xl . %   l VXpXm pX4X1XL.x.u.^.E.$.*.r.[ s.:.r.`.9.0.x.7XC.m.W._..X.X}./.rX1X) ; . O h.A ....b D n e.f.8X....9.a.$.9..Xa.",
"L z.` l ) T ;.@.3.3.e 7 d V a lXD Z < 1 % & & . l JXL 1 L iX) 2X5X3X:X1Xz $.7./.`.(.E.2X( ( q.L.Z.P g..X$.j.rXf.z 1 O # O . ~.3X0 ; - , n t.g.0...P e.9.e.f.j.R ",
"G.) u.) ) C.F r V : > r > , a g.q q.1 + . .   % *X5 # $ . . 6 * X # $ ; O ; $ 2 2 ; $ $ . . @ ; O # . . # O . $ # *       # 5Xu.< - 0 0X- R g.Z.7.$./.M u b 7.xX",
") ( i.x.(.I t.C w n C : 8 y ..z . O . . * X &   _ _ . . . @ o   X . @ . # $ . O O . . # . .     . X X . O .   . . X   . . . L c 4 0.0Xc.x.z 4 x.~ ~ z ~ xX^.0X( ",
"; # ; ; z z J 0 j 2X4 0 z l.O O O + . +   + X X 4 6 6 * .   . X   . .     . . .   . @     o . o   = %   @ .     o     %   o % 1 ; h z z ^ 5 $ z.l.^ x.G.q.( l 0 ",
"@ . .   . O @ + O . + + ; . @ . @ + + X     o X ! <X! / ! 5 * + %       o + o . * @ o   . X   o %     = o   * o   * X X %   6   + . ; * . . O ; 1 $ ; ; $ $ . . ",
"X @ o % o + . . . & . + . + %   + . 1 h ! l ! ! ,XSX,X_ *X! z.*X' 1 .   o + o o ! k * * & *   & * 1 6 % o * x * = * = % 6 / ` / 4 4 z x 4 4 z _ 5 1 4 l v L L ! ",
". o o % @ % + @ * %   + &   + @ g g ! _ z._ z._ 9Xl _ g ) z.*X) l.c l x ! ! c x c / ! *X! c 4 ! sXSXsX<XkX<XkXkXkXsXsXSX;XDX;X;Xz.x.x.:XgXmXgXgXgXuXjXhXuXuXuX9X",
"* 5 ! z.*Xc 4 1 & * 5 ^ l.x *X_ =X,Xz.L l z.L.) uXL qXz.=X>Xz.z._ l.l.z.z.z._ ) :Xl.l _ *XjX>XdX<X;XfX>XgX:Xz.9Xz.<XdXFXUXz.9XG.5XmXGXmXgXmXVX4X5XgXhX4XP.wXVXmX",
"` G.fXfXuX;X:X9X:XgXx.l.x.z.qXgXL.H.H.3Xi.3XL.H.u.5X( 0X1X1Xi.iX2X0X0XL.l.u.x.:Xu.l./ >Xz.G.:X5X9Xz.FX0X^.xXxX8X1X2XqXx.^ u.P.4XJ.8X(.rXxXi.9.iX^.xXbXrX{.eXVXcX",
"uXwX5XhX0X5X1X5X1XL.2X8.i.4XQ A y.K h.u.K.y.<.F.J.eXm 8XpXbXH.8.R 0.L.1X1X1X3X0X1XL z H.1X3XiXyXpX) yXtX[.U.oXzXxX8X8X9.0 Q.A k.*.D < N 7XP 0 $.9.Q.}.tXXX[.tX|.",
"VXiXu.4XH.^.A z Z 9./.[.&.}.S.h.|.8.h.K.aXeXxXeXK.J.6X4XS.{.tX6XyXQ.x.x.h.( ( u.( 3 4 3XhX{.{.&.$.E.U.G #.#.:.:.s.Y n u n :.oXOXoX7XW.oX.XU..Xd.U.j.a.!.d.| a.#.",
"wX{.T u y.&.F.[.eXtX^.^.[.}.|.6XcXJ.h.{.eXH.z 4Xp.pXaX4XwXaXNX{. X{.( J.{.h.K.( 3X$ 5 ;XfXuXh.G #._.M.n.| u H =.H 8 n H a U.Y.[ S { O.d s 9 8 p s -.B [ a B [ 9 ",
"A ^.Q.Q.}.].[.OXxXKXyXnXcX6X}.J.^.H.3XhXhXhXVXhXZX XNXVXVXNX XVXNXaX3X8.^.eXcXwXwX@ o &X,XgXzX1.2.B.B.:.M.(.M..XM.q a.U.| 1.,.R.4.} 3.{ 4.S S n.B.a a #._.:.7 1.",
"8.pXJ.F.k.|.|.OXXXcXQ.NXbXiXiX5X( uXpXhXNXbXNXhXiXpXpXNXaX{.eXcXZX{.{.P.4XxX|.cXP..   _ dXmXyX1.4.R.R.[ s.`.=.a.zXp a.G a 1.[ T.2.} 4.S >.s s >.F B s.#.-.s.e M.",
"bXHX6X6X].xXtXzXBXcXyXcXHX5XmXFXK.VXuXhXpXNX4XVXNXHXaXpXVXZXLXaXaXK.h.5XJ.6Xy.|.(   @ l 9XmXD.1.,.R.R.>.Y..Xg..XE.D M.:.1.oX:.2.1.#XvXB.B.F F W.q p :.oX:.d.oXBX",
"hXVXiXcXcXcXZXKXNXNXtX}.VXbXgXL.4Xu.4X4XH.bXbXbXiXH.eX X XeXS.tXD.{.L.0.6.J.k.Q L * . % :XxX[.R.T.%XR.R.oXs.s.E.a.| =.s.M.U.n.Y.:.oXoXY. .G B !.D X.F e.H *.!.F ",
"iXiX6XbXNXcXNXcXF.].k.Q.J.{.H.P.3XW iX( K.4X{.S.4XK.{.{.H.8.W K.&.8.1X6.x.D $.A 8.4   . :XbXvXY.,.4.2.T.oXM.!.E.a.*.p q H :.Y.Y.oXM.#.U.F | H `.I a.Y n | zXE.*.",
"{.pXyXKXNXNX].Q F.F.S.{.p.W W iX4X^.yXH.aXQ.p.h.4X4XT u.{.K.K.z U i 0.c.x.N i Y x.4 . O ^ CXR.1.R.T.R.oXT.M.j.o.%.a.D s a.oXM.#.oX#.[ s.F Y F j.j.M D *.*.9.m !.",
"i.pXQ.tXZ F.k.k.&.<.K.&.J.S.K.{.K.I U VXJ.J.K. XJ.J.4XH.h.^.u.i.Z q T 0.z Y 8 S.x.# + . 1 KXd 4.4.,.#XT.,.Y.s.o.j.*.a.e._.!.| oXY.#.M.M. .9.j.E.9.b Y J.Y E.XX}.",
"Q BXZX|.&.|.yX[.F.k.m b U D.y.Q.y.cXJ.W J.P S.y.y.{.{.{.i.A I u.^.6.qXJ P 9.q 9.^.4 X . ; KXvX4.2.,.T.4.d s !.=.E.E.7X$.s.d.#.o.M.Q.F U.k.xX9.6Xf.R b j.$.h.}.&.",
"Z LX}.U k.cX[.[.OX].U.F.[.Q.F.].&.{.J.h.6X8.S.S.Q.pX{.J.K.J.h.W z 8.R w M Y k.Y 0 L . . 1 KX%X4.V.@X#X#X_.:._.`.E.a.g.9.e.a.e.e.!.G p zX7X$.8 P 4X9.6Xf.[.S.D.[.",
"3 PXj.Z D.j.b [.k.*.Q.Q.XXa.U.U.].|.|.6XcXJ.h.Q.yX^.W h.{.h.8.I rXJ.2 x.C.f.| &.J.u.X   x.7XoX+XT.O.;.#XT.n.M.#.zX7XrXj.D N 9.*.j.U.%.j.j.n P $.h.Y R $.^.6Xy.XX",
"D KXn =..X9.p j.*.=.d.Q.Q.d.zXXXeX[.XX!.XXQ.&.J.h.^.K.yXh.U 6.8Xy.Z R z 7.Y Y Z 3XL   & IXKXoX$XR.%XB.#XvX#X#.!.G *.U.D M M xXM.H #.:.d.!.u a.a.8X}.R }.eX}.[.^.",
"_.rXp 9.*.Y j.!.s.U.1.!.d.[.vXoXXXQ.XXQ.^.XXh.[.E.}.W f.J.8X^.f.F.b P P $.j.D &.( 1 &   :XmXAX$XR.R.@X#Xn.B.s.U.U.U.*.R I 9.E.y s.:.G n :.n .Xa.E.*.Q.S.Q.p Q.y.",
"M.*.H *.9 q M.#.s.U.#.Y.d._.%X_.XXQ.XX}.Q.XXh.Q.R E.8.j.$.i.f.Q.].A Z < f.Y d., h.5   . . GXvX$X@X@X3.,.'._. .Y.a.e.M }.7./.9.I H #.U.U..Xa.Q.D /.Y zXQ.j.y.Q.U.",
"_.B a F a p #.q Y.Y.o.U.oXM.oXoXXXU.j.[.a.y.Y 9.f.Q.$.^.f.h.9.E.Q.b 8 Y 9.q =.&.x..   @ . MXLXY.@Xd f @.3.n. .[ =.=.Y j.D 8.M 9.:.a [ oXY.F *.XX!.9.!.U.k.Q.y.<.",
"lX| X.*.*.p %.M.oXU.F :.oXS 1.Y.vX[.d.rXd.*.$.U.$.rXj.j.P j.i.9.XXQ m m Y A D.8.P.o . X   0XPXY.} t f d ;.S B 1.oXE.!.D Y R R f.a.G #.!.d.[.Q.}.p Y y.D !.D [.h.",
"zXP P 0 D b C.j.7.M y U Y !.D.U.U.Y.d.*.d.| j.$.j.Q.m 9.0.K ( q.0 u 2 S.i , 3 ) k +   X @ :XnXa.s d v.V ;. . .[ p q Y /.J.x.K W W i Z S.{.W S.yX0 K yX8.E H.8.{.",
"CXY N Y y t.I j.I N a.%.!.d.!.Q.a._.W..Xe.E.| *.$.m 0 f.0.0 z c.K b , y b z ) l g X X X   x.ZXA  .@.N.] -.N.-.N.r.e.g.j.f.8.f.h.U u.u.{.^.z ^.K.8.K.tXH.x.K U W ",
"(.N n w N 8 /.E.g.$.j..X!.!.d.j.zX8Xf.7.M x.Y ~.~.1X~ ^ 0 c.( K h Z., D 3 8X0 x g + X X   0.xXq ] ,. .;.;.v.r.M.s. .7X*.j.Q.R U 2 Z U 9.Q.Y CXbX^.}.9.Z y.A 6X6X",
"vXD | y q m.7.I 7...%..XM.zXOXBXvX8X(.j.~.8Xf.f.qXqX2 q.3 ^ q.0 -X0 ~ W 6.z 4 ) * &   . $ 2X8Xe.>. .#XN.n.'.B s.#.*.n u Z Z f.R 9.9.f.Y j.e.j.9.f.}.Y y Z N j.| ",
".XM.w.w...5.j.y t.$./.X.Y H U.zX.X!.!.7X7XE.E.Y 9.i 3 0.0 K z E x ^ J J q.L ; g & 1 X X % gXrX!.s.)._._.W. .o.| $.F a.$.$./.U E.E.t.X.X./.M.7...a.!.e.e.:.!.!..X",
"zX`.zXlXz I 0 5.7.R 0.I P 9.8XnXzXoXa.[.Y U h.Y i , Z 3 $ < 3 z z _ h ; 1 5 L & * 1 + X . gXbX9.M.%.lXe.e.C.D M.g.C.P C./.~.0.j.5.t.0 ..7.N b y g.e.X.M.=.M.o.!.",
"E.9.f.7.2X~ L.2X2Xx.~ ( E iX0XrXxXy.Q.6X8.8.{.T m z < 3 - # K T x c 4 g ! * 6 X X = . X 1 mXbX9.e.W.W.W.C.(.0.0.0 q R 0.~.0.2 8 z K # 0 3 < 2 0 w y D E./..Xe..X",
"J.8X~.1XE ( 5 l J l z 4 x z.0XqXiX0 x.) L.L.VXu.4 $ # * # ! v *X<Xl 1 * & 6 % . X +   % _ gXu.W R t.C.~.0.1X0 4 $ 0 ~ J z 1 1 j q.K $ ; O ; O 2 K P Z Z ..9.0.h.",
"8.5X^ 1 . # @ . . .   . . .   @ @ @ o .             X     o .       o @ X     .   X o ! gX>XmX- . 3 z 3 0 1 5 1 h 4 5 h 6 ; ; ; 5 h O # # z ^ ^ 0 J 1X1XL.T 0.i.",
"u.x.) v 1 X . . . @ * @   . X         X X             X       X X   . . . .   . @   5 jX9XG.T 3 $ ; 3 E z.5 ^ L 4 ! 5 5 + & c.qX:X^ * X * 5 4 z l z L z 4 ; 3 i ",
"hXP.:X>X9X;X:XfX<Xl.*Xz._ :X*Xg % X X   X             %   = . %   o         @ o . l.) :XhXbXpXVXiX- #   . . . @ @ & X % . O O   @   X . X @ $ # @ . . . # # # . ",
"P.H.iX5XjXjX9Xx.l.l.x.2Xl.:X2Xz.,X) 4 .   . +     o   % 1 _ *X:Xz.:X:X*X_ z.gXJX0XVXiXmXPXpXVX6XnXMXqXJ . O     X     .   .   .   .     l 9X9XFXjXFXVX` < . * 4 ",
"Q i.P.K ( L.gX0Xx.2X5X0.~ m m m T R f.c.8X2X2Xx.iXiX5X1X6X8X0.l 4 4 :Xx.c.2XJ ~ ~.~.CXE.$.$.Y ..C.lXg.~ ( IX*X` _ <X_ JXPXIXIXmXGXjXIXIXGXPXGXuXGXhXiXgXuXhXFXGX",
"~.rXCXBXCXnXCX/.m 6.~.M /.g.`.j.vX`..XC.(.Y e.W.vXC.$.7.!.E.j.9.L.q.l 4 0 m 0.c.w.w.q - . O 8 AXvX`.8XK 0.) . 1 c ,XjXFXgXhXgXhX( yXhXpXwXI.8.VXwX4X4XNXbXVXbXhX",
"s.:.s =.s.w.g.M q H g.| o. .'.#XlXr.r.F w.C -.r.m.X.Y Z.`.`.t.g.7.R - - ; : w.o., r , 9 , s lX-.)._.D M i.1 $ 4 z.9XJXFXJXPXH.H.{.D.].|. Xp. XeXtXeX{.4XS.|.yXcX",
"a N.s r.s.-.m.B r.] a N.a B.B.).A.+.] e o.+.b.B +.v.r.lXN.).o.I y 8 n q N t.X.).'.@XV.B.lX{ ] ).N.+.w q l 4   1 :XFXjXGXgXP.u.Q.y.Q.].<.XX<.tXtXyX].S.|.].aXeX|.",
"]  .3.;.).r.r.B w a o. .N.v.N.).O. .{ V @.V.V V V v.V ).#XN.n.n.a V B  .m.B.N.lX#XT.B.$X$X4.,.V.3.b.a t.J ;   X 9XJXGXbXW y./.a.Q.eXy.OX<.U.Q.XX|.Q.k.F.eX].].aX",
"n. .3.] v.N.-.] H %.m. .n.).lXV.O.3.+.d O.O.B.O.@.d { N.B.s { { a e b.V d v.B.T.V.n.>.,.,.2.@.} V.{ r 5.J * .   kXjXuXJ.^.E.M.E.XXzXXXk.[.[.BXXXS.Q.].S.].eX XxX",
"m.;.T.B.@XT.9 > 8 B B.r.A.'.A.V s +.@.;.@X+.N.V { O.;.v.A.9 9 B.{ t b.V 3.T.#XlXn.4.T.4.R.%XR.#X@XO.-.t.z O . . 4 uXGXp.|.!.U.oX!.zXj.k.Y U.].Q.F.eXtXk.k.yXyXcX",
"X.o.O. .v.B.B a w a %. .-.+.-.a { V.@.v.O.V @.s ;.A.v.B.;. .V lX7 #X).+.'.;.'.{ T.V.#XR.'.#X>.B.V.;.)...z . . X * 9XVXu.[..X_.M.j.h.k.k.y.k.XXcXk.XX].<.y.].eX].",
"n.>.T.#X).-.s 8 F  .m.-.-.o.] s e { { V s O.-.;.;. .n.B.s B.#Xn.d { # 7 ;.O.lX;.B.;.B.4.;.{ s { 3.3.X.8 J O .   l gX5XP.&.| M.U.D.Q.U XX=.tXF.cXOXcX].tXcXyXBX}.",
"n.>.B.'.v.o.F B n r.A. .r.-.o.w ] ;.V.9 s ;.F 9 F  .A. . .N.lX] { r r b.@.V B.B.;.{ V ,.;.@.{ T.N.T.o.2 K . . . ) jX0X^.m Y M.j.Q.$.a.Z Q.}.}.<.tX}.&.Q.Q.y.].y.",
"o.#.A.A.] B w N F t.X.w X.w. .o.r. .;.9 F n. .F V lXA. .oXN.n. .d t V.{ d vXAX).v.O.s O.>.V ;.'.).T.F N q.  + X z.3X3XW $..Xs. .j.$.Y *.D.BXXXQ.tXy.&.k.y.y.S.^.",
"p F ).A. .r.N | %.t.| F '.m.o.+.B ] v.lXA.v.F W. .vXn._._.s.>.-.9 > @.V B.T.N.N.+. .9 O.B.{ T.'.T.] 8 I 2X. %   z.) bX6.a.a.M oXXXj.y.!.j.XX&.F.y.y F.].Q.eXQ.cX",
"p [ +.V  .X.D p Y | n C m.-.s  .-.).r.-.F t.B lXp 8 -.r.m.M.F m.9 s 9 ;.;.N.).O.v.n. .-.-. .>.N.r. .N t.q.O + . l 9XgX}.$.H 8 !.!.j.j.E.E.xXD.Q.&.F.XXm XXyXF.h.",
"D t.-.p F 8 0 C ..I `.X.o.m.r m.X.Z.m.X.%.A. .m.%.W.7XW.M.C.%.B > 9  .).B.'.#X] >. . .B.N.M.lXzX).-.8 (.q.O   . >X:X1XI $.%.=.s.s.!.$.Y D u a.[.y.yXk.y.|.D.k.$.",
"w.t.o.X.7 q 0 w y t.g.m.8X`.n | Z.7Xm.%.%.7Xt.%.M.vXC.=.X.*.(.M 9  .;.).p vXoXn.r.o.F :.:.%.g.s. .lXg.E.z . @ + :X5XbXJ.N =.M.*.j.a.XXa.Q.a.$.^.&.eXh.xX6X[.}.nX",
"I X.r.B q w N 2 Z.w.M X.C w.m.o.7.m.X.t.%.vX`.C.| (.g.!.`.j.(.D B  ._.-.-..X%.H s.M.%.g._.g.j._.nXY.D 5.x.@ @   ! z.VXh.Y *.`.B rXj..XP j.xXa.rXeXXX|.yXD.6Xy.tX",
"7.X. .B q w.2 b g.7.7.M N F 0 w.W.`.W.C.C.e.X.Z Y 9.j.`.`.j.*.Z y [ o.oXoXKXo..XX.7Xs.a.7XM.e.lXoXY.!.~.( . . @ ; z.2Xj.b M.U.s.=.rX/.!.U./.}.!.XXy.D.Q..XbX}.}.",
"I F N.N X.w.C P 7.w I ..w N t.C.Z.j.7Xe.xXY (.E.%.e.E.%.Y 7.D Z _.j.`.j.vXU.H 7X$.nX.Xj.xX/.J.cXM.U.j.~.^ h + . . L.8X/.| M.a.oXe.7X/.Q.*..XcXcXQ.Q.}.yX6Xh.6X&.",
"M 7.b.w.X.t...z 0 z M g.8XX.`...C.`.zXj.cXP g.E.P f.8XE.f.j.9.$.*.=.s..XoXQ.Y !.m }.E.f.^.^.}.rXzX#.Y x.( ) . + ; x.bX0.cXe.a.| e.*..X7X!.7X/.a.Y Y h.XXS.W .Xy.",
"t.w.m.C m.q w 8 7.y g.%.w.w.`.I q g.W.7XzX%.D %.| a.E.E.a.a.E.7XBX!.vX7XeXj.j.Y Q.nXnXeXE.[.rXQ.zXW.8XK l ^ O . @ gX^.CXM f.y g.xX7Xj.7XE.Z xX$.cX$.J.^.i.S.9.I "
};
